<?xml version="1.0" encoding="utf-8"?>
<!-- Generator: Adobe Illustrator 24.3.0, SVG Export Plug-In . SVG Version: 6.00 Build 0)  -->
<svg version="1.1" id="sl-logo" xmlns="http://www.w3.org/2000/svg" xmlns:xlink="http://www.w3.org/1999/xlink" x="0px" y="0px"
	 viewBox="0 0 518.6 83.2" style="enable-background:new 0 0 518.6 83.2;" xml:space="preserve">
<style type="text/css">
	.st0{fill:#4285F4;}
	.st1{fill:#FBBC05;}
	.st2{fill:#EA4335;}
	.st3{fill:#34A853;}
	.st4{fill:#0C1C4A;}
	.st5{fill:#20C5E5;}
</style>
<g>
	<path class="st0" d="M48.7,29.2c4.7,0,9.3,0,14,0c1.2,0,1.2,0,1.3,1.1c0.7,5.8,0.1,11.5-2.1,16.9c-3.3,8-9.3,13.2-17.4,15.9
		c-4.5,1.5-9.2,1.9-13.9,1.4c-10.7-1.2-19-6.3-25-15.3C2.9,45,1.3,40.4,0.8,35.5C-0.7,22.8,5.7,10.8,16.2,4.3
		c4.6-2.8,9.6-4.5,15-4.9c9.1-0.7,17.1,2,24,8.1c0.1,0.1,0.2,0.1,0.2,0.2c0.6,0.6,0.6,0.6,0,1.2c-1.7,1.7-3.4,3.4-5.1,5.1
		c-0.5,0.5-0.5,0.7-1.2,0c-3.2-2.8-6.9-4.7-11.1-5.4c-13.6-2.3-24.1,6.2-27,16.9C8,37,13.4,48.9,24.1,53.7c3.7,1.7,7.6,2.3,11.7,1.9
		c3.4-0.3,6.5-1.1,9.5-2.7c5.4-3,8.6-7.6,9.6-13.7c0-0.2,0-0.4,0.1-0.7c0-0.3-0.1-0.4-0.4-0.4c-0.3,0-0.6,0-0.9,0
		c-6.2,0-12.3,0-18.5,0c-0.3,0-0.6,0-0.9,0c-0.4,0-0.6-0.2-0.6-0.6c0-2.6,0-5.2,0-7.8c0-0.4,0.2-0.6,0.6-0.6c1.1,0,2.2,0,3.3,0
		C41.3,29.2,45,29.2,48.7,29.2z"/>
	<path class="st0" d="M190.4,27.2c0-0.9,0-1.7,0-2.5c0-0.8,0-0.8,0.8-0.8c2.4,0,4.9,0,7.3,0c0.5,0,0.8,0.2,0.7,0.7
		c0,0.2,0,0.4,0,0.7c0,12,0,23.9,0,35.9c0,2.9-0.3,5.8-1,8.7c-2.1,7.8-7.9,12.6-15.9,13.5c-4,0.5-7.9,0.1-11.6-1.6
		c-4.4-2-7.6-5.4-9.8-9.7c-0.4-0.8-0.4-0.8,0.4-1.2c2.1-0.9,4.3-1.8,6.4-2.7c0.7-0.3,0.7-0.3,1.1,0.4c1.4,2.7,3.3,4.8,6.2,5.9
		c4,1.5,7.9,1.1,11.3-1.5c2.1-1.6,3.1-3.9,3.6-6.4c0.5-2.2,0.3-4.3,0.3-6.5c-0.4-0.2-0.5,0.1-0.7,0.3c-3.6,3.6-7.9,4.7-12.8,4.2
		c-8.3-0.9-16.1-7.7-17.7-17.1c-2-11.4,5.4-21.9,15.6-24.3c4.3-1,8.4-0.6,12.2,1.6c0.9,0.5,1.7,1.1,2.5,1.9
		C189.7,26.8,189.8,27.1,190.4,27.2z M168.1,43.7c0.1,4.2,1.5,7.7,4.8,10.3c5.1,3.9,12.5,3.1,16-2.8c3-5,3-10.2-0.1-15.2
		c-3.6-5.9-10.9-6.5-15.6-2.9C169.7,35.7,168.2,39.4,168.1,43.7z"/>
	<path class="st1" d="M113.4,43.5c-0.1-11.7,9-21,21.1-21c11.9,0,21.1,9.2,21.1,21.1c0,11.8-9.3,21-21.1,21
		C122.5,64.6,113.4,55.4,113.4,43.5z M146.3,43.6c0-1.8-0.3-3.5-0.9-5.2c-1.7-4.2-4.8-6.8-9.3-7.4c-4.7-0.6-8.5,1.1-11.2,5
		c-3.1,4.5-3,10.9,0.1,15.3c3.8,5.5,11.4,6.7,16.6,2.6C144.8,51.3,146.3,47.7,146.3,43.6z"/>
	<path class="st2" d="M110,43.6c-0.1,12.4-9.6,21-21.1,21c-11.9,0-21.1-9.2-21.1-21.1c0-11.9,9.2-21,21.1-21
		C100.3,22.5,109.9,31.1,110,43.6z M77,43.5c0,1.8,0.2,3.5,0.9,5.1c1.9,4.6,5.3,7.4,10.3,7.7c5,0.3,8.8-2.1,11-6.5
		c2.2-4.3,2.1-8.7-0.3-13c-3.5-6.2-11.6-7.9-17.2-3.5C78.5,35.8,77.1,39.4,77,43.5z"/>
	<path class="st2" d="M228.3,50.1c1.8,3.5,4.5,5.7,8.5,6.2c4.7,0.5,8.5-1.2,11.4-5c0.6-0.7,0.6-0.7,1.3-0.3c1.9,1.3,3.8,2.5,5.7,3.8
		c0.7,0.5,0.7,0.5,0.2,1.3c-3.1,4.1-7.1,6.9-12.2,8c-6.5,1.4-12.5,0.2-17.8-3.9c-4.3-3.3-6.8-7.8-7.6-13.1c-0.8-5.6,0-10.8,3.1-15.6
		c3.2-5,7.8-7.9,13.6-8.7c8.4-1.1,14.6,2.4,19,9.4c1.1,1.7,1.8,3.7,2.5,5.5c0.3,0.6-0.1,0.8-0.6,0.9c-2.9,1.2-5.8,2.4-8.7,3.6
		c-5.9,2.5-11.9,4.9-17.8,7.4C228.9,49.7,228.6,49.7,228.3,50.1z M245.5,35.1c-0.4-1.2-1.2-2-2.1-2.7c-1.4-1.1-3-1.6-4.7-1.7
		c-4.9-0.5-9.5,2.9-11.1,7c-0.6,1.6-1,3.3-0.9,5.2C233.1,40.3,239.3,37.7,245.5,35.1z"/>
	<path class="st3" d="M213.7,32.5c0,9.9,0,19.7,0,29.6c0,1.3,0.1,1.2-1.2,1.2c-2.3,0-4.7,0-7,0c-0.8,0-0.8,0-0.9-0.9
		c0-0.2,0-0.4,0-0.6c0-19.6,0-39.2,0-58.7c0-1.8-0.1-1.5,1.5-1.5c2.2,0,4.4,0,6.7,0c0.9,0,0.9,0,0.9,0.9c0,5.2,0,10.5,0,15.7
		C213.7,23.1,213.7,27.8,213.7,32.5z"/>
</g>
<path id="fill-1" class="st4" d="M319.1,43.9c-1.1-1-2.5-1.8-4-2.6c-1.6-0.8-3.4-1.5-5.4-2.2c-1.5-0.6-2.8-1-3.9-1.6
	c-1.1-0.4-2-1-2.7-1.6c-0.8-0.6-1.2-1.2-1.6-1.9c-0.3-0.7-0.6-1.5-0.6-2.5c0-1.8,0.8-3.1,2.4-3.9s3.4-1.2,5.5-1.2
	c2.5,0,4.5,0.2,6.3,0.7c1.7,0.4,3,0.9,3.8,1.3v-7.1c0,0-0.2-0.1-0.4-0.1c-0.8-0.2-1.7-0.4-2.7-0.6s-2.1-0.3-3.4-0.4S310,20,308.8,20
	c-4.7,0-8.6,1.1-11.3,3.3c-2.8,2.2-4.1,5.2-4.1,9c0,1.9,0.3,3.5,1,4.8s1.5,2.4,2.6,3.4c1.1,0.9,2.4,1.7,3.8,2.4s3,1.3,4.7,2
	c3.4,1.3,5.7,2.6,7.3,3.7c1.6,1.1,2.2,2.6,2.2,4.4c0,1.8-0.8,3-2.2,3.9c-1.5,0.8-3.8,1.2-6.9,1.2s-5.3-0.2-7.6-1
	c-1.9-0.7-3.3-1.1-4.1-1.5v7.1c0.7,0.2,1.9,0.6,2.9,0.9c2.4,0.7,5,0.9,8.9,0.9c5.4,0,9.5-1,12.4-3s4.4-4.9,4.4-9c0-2-0.3-3.7-0.9-5
	C321,46,320.3,44.9,319.1,43.9z M412.3,57.2c-1-0.3-1.8-1.1-2.5-1.9c-0.7-0.8-1.1-1.9-1.5-3.3c-0.3-1.3-0.4-3.1-0.4-5.3V27.2h12.7
	v-6.3h-12.7V7.5l-7.6,1.8V47c0,2.8,0.2,5.3,0.7,7.5c0.4,2.1,1.2,4,2.4,5.5c1.1,1.5,2.6,2.7,4.4,3.4c2,0.9,7.3,1.9,12.7,0.7v-6.7
	C416.1,58.2,413.3,57.6,412.3,57.2z M389.9,20.2c-0.8-0.1-1.6-0.1-2.2-0.1c-3.3,0-6.3,0.3-9,0.9s-4.8,1.1-6.7,1.8v40.7h7.6V27.9
	c0.4-0.1,1.3-0.3,2.7-0.6c1.3-0.3,2.8-0.4,4.1-0.4c2.1,0,3.9,0.1,5.3,0.4c1.3,0.3,2.4,0.6,2.9,0.8v-6.9c-0.7-0.1-1.6-0.3-2.5-0.4
	C391.5,20.4,390.6,20.2,389.9,20.2z M355.2,53.6c-2.1,2.8-5,4.1-8.9,4.1s-6.7-1.3-8.9-4.1c-2.1-2.8-3.3-6.6-3.3-11.4
	c0-4.7,1.1-8.6,3.3-11.4c2.1-2.8,5-4.1,8.9-4.1s6.7,1.3,8.9,4.1c2.1,2.8,3.3,6.5,3.3,11.4S357.4,50.7,355.2,53.6z M360.7,26
	c-1.8-1.9-3.8-3.5-6.3-4.5s-5-1.6-8.1-1.6c-2.9,0-5.5,0.6-8.1,1.6c-2.5,1-4.5,2.6-6.3,4.5s-3.1,4.3-4,7.2c-1,2.7-1.5,5.7-1.5,9.2
	s0.4,6.4,1.5,9.2c1,2.6,2.4,4.9,4.1,7.1c1.8,1.9,3.8,3.5,6.3,4.5c2.5,1,5,1.6,8.1,1.6c2.9,0,5.5-0.6,8.1-1.6s4.5-2.6,6.3-4.5
	s3.1-4.3,4-7.1c1-2.7,1.5-5.7,1.5-9.2c0-3.3-0.4-6.3-1.5-9.2C363.9,30.3,362.5,28.1,360.7,26L360.7,26z"/>
<path id="fill-2" class="st5" d="M452.9,6.2c-1.2,0-2.2,0.4-3.1,1.2s-1.2,1.9-1.2,3.3c0,1.3,0.4,2.5,1.2,3.3
	c0.9,0.8,1.9,1.2,3.1,1.2s2.2-0.4,3.1-1.2s1.2-1.9,1.2-3.3c0-1.3-0.4-2.5-1.2-3.3C455.3,6.7,454.2,6.2,452.9,6.2z M510.3,57.2
	c-1-0.3-1.8-1.1-2.5-1.9c-0.7-0.8-1.1-1.9-1.5-3.3c-0.3-1.3-0.4-3.1-0.4-5.3V27.2h12.7v-6.3h-12.7V7.7L498.3,9v37.9
	c0,2.8,0.2,5.3,0.7,7.5c0.4,2.1,1.2,4,2.4,5.5c1.1,1.5,2.6,2.7,4.4,3.4c2,0.9,7.3,1.9,12.7,0.7v-6.7
	C514.2,58.2,511.3,57.6,510.3,57.2z M489.9,43.9c-1.1-1-2.5-1.8-4-2.6c-1.6-0.8-3.4-1.5-5.4-2.2c-1.5-0.6-2.8-1-3.9-1.6
	c-1.1-0.4-2-1-2.7-1.6c-0.8-0.6-1.2-1.2-1.6-1.9c-0.3-0.7-0.6-1.5-0.6-2.5c0-1.8,0.8-3.1,2.4-3.9s3.4-1.2,5.5-1.2
	c2.5,0,4.5,0.2,6.3,0.7c1.7,0.4,3,0.9,3.8,1.3v-7.1c0,0-0.3-0.1-0.4-0.1c-0.8-0.2-1.7-0.4-2.7-0.6s-2.1-0.3-3.4-0.4
	c-1.2-0.1-2.4-0.2-3.6-0.2c-4.7,0-8.6,1.1-11.3,3.3c-2.8,2.2-4.1,5.2-4.1,9c0,1.9,0.3,3.5,1,4.8s1.5,2.4,2.6,3.4
	c1.1,0.9,2.4,1.7,3.8,2.4c1.5,0.7,3,1.3,4.7,2c3.4,1.3,5.7,2.6,7.3,3.7c1.6,1.1,2.2,2.6,2.2,4.4c0,1.8-0.8,3-2.2,3.9
	c-1.5,0.8-3.8,1.2-6.9,1.2s-5.3-0.2-7.6-1c-1.9-0.7-3.3-1.1-4.1-1.5v7.1c0.7,0.2,1.9,0.6,2.9,0.9c2.4,0.7,5,0.9,8.9,0.9
	c5.4,0,9.5-1,12.4-3s4.4-4.9,4.4-9c0-2-0.3-3.7-0.9-5C491.9,46,491,44.9,489.9,43.9z M449.2,63.4h7.6V20.9h-7.6V63.4z M437,56.2
	c-0.4-0.4-0.8-1.1-1-1.9s-0.3-1.8-0.3-3V1.5l-7.6,1.7v49.2c0,4,1,7.1,2.9,9s5.7,3,11.1,3.1V58c-1.2-0.1-2.2-0.3-3-0.6
	C438.1,57.1,437.5,56.7,437,56.2L437,56.2z"/>
<path d="M274.9,68V15.2c0-0.7,0.6-1.2,1.2-1.2l0,0c0.7,0,1.2,0.6,1.2,1.2V68c0,0.7-0.6,1.2-1.2,1.2l0,0
	C275.5,69.3,274.9,68.7,274.9,68z"/>
</svg>
