<svg xmlns="http://www.w3.org/2000/svg" xmlns:xlink="http://www.w3.org/1999/xlink" version="1.1" id="Calque_1" x="0px" y="0px" viewBox="0 0 133 133" style="enable-background:new 0 0 133 133;" xml:space="preserve"> <style type="text/css"> .st0{fill:#245347;} .st1{fill:#FFFFFF;} </style> <path class="st0" d="M102.4,133H30.6C13.7,133,0,119.3,0,102.4V30.6C0,13.7,13.7,0,30.6,0h71.9C119.3,0,133,13.7,133,30.6v71.9 C133,119.3,119.3,133,102.4,133z"></path> <path class="st1" d="M58.5,39.9c0.7,1,1.3,1.9,1.9,2.8c-1.5-6.3,0.1-11.8,3.8-17.2c0.3,0.6,0.5,1,0.6,1.4c0.5,2,1.1,4,1.4,6.1 c0.2,1.2,0.5,1.7,1.8,1.7c2.8,0,5.3,0.9,7.4,2.8c1.4,1.3,3.2,1.7,5,1.8c2.7,0.3,5.3,0.3,8,0.5c0.5,0,1,0,1.4,0.1 c0.9,0.2,1.4,0.8,1.1,1.8c-0.8,2.1-1.7,4.2-2.6,6.3c-0.2,0.5-1,0.9-1.6,1.1c-1.3,0.4-2.7,0.8-4.1,1c-5,0.8-9.7,7.3-10,11.9 c-0.3,4-0.6,7.9-1.3,11.8c-0.8,4.5-3.4,8.3-5.8,12.2c-2.1,3.4-4.1,6.8-4.5,10.8c-0.2,1.9,0,3.8,0.3,5.7c0.4,3.1,1.2,6.2,2.6,9.2 c-1-0.8-2-1.6-3-2.5c-9-7.7-17.2-16.3-23.6-26.4c-3.9-6.1-7.2-12.5-8.8-19.6c-1.5-6.7-2.1-13.5-0.3-20.3 c2.9-10.7,9.6-18.3,19.8-22.5c13.3-5.5,26.7-5.3,39.6,1.3c11.1,5.7,17.2,15,18.1,27.5C106.5,59.5,104,69,98.9,78 c-3.5,6.2-7.6,12-12.4,17.3c-0.3,0.4-1.1,0.6-1.6,0.5c-1.1-0.1-1.5-1.2-0.8-2.1c1.3-1.7,2.7-3.3,4-5c5-6.3,9.1-13.1,12.1-20.6 c1.4-3.5,2-7.2,2.4-10.9c0.4-3.8,0.5-7.5-0.2-11.3c-1.9-10-7.5-17.4-16.5-21.9c-12.8-6.1-25.9-6.1-38.7,0 c-9.1,4.4-14.7,11.9-16.7,22c-0.9,4.7-0.6,9.4,0.4,14c0.1,0.5,0.5,1,0.8,1.4c4.4,4.4,11.2,3.9,15.3-0.9c3-3.5,5.2-7.4,6.2-11.8 c0.7-3.1,2.3-5.5,4.2-7.8C57.9,40.6,58.2,40.2,58.5,39.9z M76.8,114.3c3-3.7,4.4-8.1,5.7-12.5c0.2-0.8,0.5-1.6,0.9-2.3 c0.4-0.7,0.4-1.2-0.3-1.7c-0.7-0.5-1.3-1-2.1-0.1c-1.1,1.1-2.3,2.1-3.5,3.2c-1.7,1.6-3.5,3.1-5.1,4.8c-1.6,1.6-3,3.4-3.5,5.6 c-0.7,2.8,1.2,5.2,3.4,5.2C74.7,116.5,75.8,115.5,76.8,114.3z M74.1,113c-0.5,0.5-1.2,0.9-1.9,0.3c-0.7-0.5-0.7-1.3-0.3-1.9 c0.8-1.2,1.5-2.5,2.5-3.6c1.2-1.3,2.5-2.5,3.8-3.7c0.1,0.1,0.2,0.2,0.3,0.2C77.6,107.5,76.5,110.5,74.1,113z"></path> </svg>