<svg xmlns="http://www.w3.org/2000/svg" xmlns:xlink="http://www.w3.org/1999/xlink" version="1.1" x="0px" y="0px" viewBox="0 0 907.1 907.1" style="enable-background:new 0 0 907.1 907.1;" xml:space="preserve"> <style type="text/css"> .st0{fill:#FFF5E8;} .st1{fill:#F8AB17;} .st2{display:none;} </style> <g id="Calque_2"> <circle class="st0" cx="452.2" cy="453.5" r="453.5"></circle> <g> <path class="st1" d="M489,573.5c0,0.1-0.1,0.2-0.1,0.3C489,573.7,489,573.6,489,573.5z"></path> <path class="st1" d="M444.9,496.7c1.9,1.6,3.8,3.2,5.6,4.8c0.8-0.6,1.6-1.2,2.5-1.8c-1.8-1.7-3.8-3.2-5.6-4.8 C446.5,495.5,445.7,496.1,444.9,496.7z"></path> <path class="st1" d="M797.8,400.9c-34.8-31.2-84.2-49.4-131-41.9c-15.1,2.3-29.8,6.8-43.9,12.4c-23.4,9.3-48.8,23.5-69.2,38.3 c-20.2,14.6-36.4,29.1-55.1,45.4c-16.3,14.1-33.6,27.2-51.2,39.8c1.9,1.6,3.8,3.1,5.6,4.8c15.5-11.1,30.7-22.6,45-35.2 c19.1-16.9,36.6-34.7,57.2-49.8c20.1-14.8,41.4-28,64.4-37.7c32.4-13.6,68.7-20,103.2-13.1c38.5,7.6,72.6,31.4,97.6,61.7 C813.6,416.6,806.1,408.3,797.8,400.9z"></path> <path class="st1" d="M439,501c-33.3,23.6-66.4,44.7-105.4,58c-46.5,15.9-96.4,21.8-145.3,17.2c-18.9-1.8-38-5.2-54.8-13.9 S102.1,539,97,520.8c-6.7-24.2,4.7-50.9,23.6-67.5c18.9-16.6,44-24.5,68.8-28.2c55.1-8.2,111.6,2.4,163.8,21.6 c32.7,12.1,64.7,28,91.6,50c0.8-0.6,1.6-1.2,2.5-1.8c-15-13-31.9-23.8-49.1-32.9c-60.8-32.1-129.9-50.8-198.5-45 c-28,2.4-56.5,9.2-79,26.1c-22.5,16.9-37.7,45.4-32.8,73.1c4.2,23.5,22,42.9,43.2,53.8c21.2,10.9,45.4,14.5,69.2,15.7 c6.5,0.3,13,0.5,19.5,0.5c54,0.1,108.2-11.4,156.3-36.4c26.2-13.7,50.1-30.9,73.9-47.8c0.2-0.1,0.3-0.3,0.5-0.4 c-1.9-1.6-3.7-3.3-5.6-4.8C442.9,498.1,441,499.6,439,501z"></path> <path class="st1" d="M453.1,499.8C453,499.7,453,499.7,453.1,499.8c-0.9,0.5-1.7,1.2-2.6,1.8c44.4,38.6,35.5,83,35.5,83 S496.3,535.6,453.1,499.8z"></path> <path class="st1" d="M577.2,556.3c-7.7-1.1-13.5-2.6-17.4-4.6c-4-1.9-6.7-4.5-8.2-7.7c-1.5-3.2-2.2-8.7-2.2-16.5V368.1 c0-29.9-0.2-56.3,2.5-72.4c2.8-16.8,29.3-47.1,29.3-47.1s-57.4,7.3-57.4,66.5c0,21.6-0.5,58-0.5,62.2l-0.4,47h-10.6H390.7 c0,0,0,0,0,0.1h-9.4l0.8-88.3c0-7.9,0.8-13.5,2.4-16.7c1.6-3.2,4.3-5.8,8.3-7.6c4-1.9,9.8-3.4,17.4-4.5c1.5,0,2.2-1.6,2.2-4.7 c0-3.1-0.7-4.7-2.2-4.7c-1.9,0-81.6,0-83.5,0c-1.2,0.4-2.2,2-2.2,4.7c0,3.1,0.7,4.7,2.2,4.7c7.7,1.1,13.5,2.6,17.4,4.6 c4,1.9,6.7,4.5,8.2,7.7c1.5,3.2,2.2,8.7,2.2,16.5v159.3c0,29.9,0.2,56.3-2.5,72.4c-2.7,16.8-29.3,47.1-29.3,47.1 s57.4-7.3,57.4-66.5c0-21.6,0.5-58,0.5-62.2l0.4-47h10.6v-0.1h120.5h10.4l-0.8,88.3c0,7.9-0.8,13.5-2.4,16.7 c-1.6,3.2-4.3,5.8-8.3,7.6c-4,1.9-9.8,3.4-17.4,4.5c-1.5,0-2.2,1.6-2.2,4.7c0,3.1,0.7,4.7,2.2,4.7c1.9,0,81.6,0,83.5,0 c1.2-0.4,2.2-2,2.2-4.7C579.4,557.8,578.7,556.3,577.2,556.3z"></path> </g> </g> <g id="Calque_1" class="st2"> </g> </svg>