<svg xmlns="http://www.w3.org/2000/svg" xmlns:xlink="http://www.w3.org/1999/xlink" version="1.1" id="Calque_1" x="0px" y="0px" viewBox="0 0 20 20" style="enable-background:new 0 0 20 20;" xml:space="preserve"> <path d="M10.9,15.6c0.2-1.3,0.6-2.4,1.6-3.3c0.7-0.7,1.4-0.8,2.3-1c1.8-0.4,3.5-0.8,5.3-1.2c-1.2-0.3-2.3-0.5-3.5-0.8 C15.3,9,14.1,8.9,13,8.2c-0.8-0.5-1.6-1.4-1.9-2.3c-0.1-0.5-0.2-1-0.4-1.6c-0.3-1.2-0.6-2.4-0.9-3.7C9.6,1.9,9.4,3.1,9.1,4.3 C9,4.8,8.9,5.2,8.8,5.7c-0.2,1-1,2-1.9,2.5C5.9,8.8,4.8,9,3.6,9.3C2.4,9.6,1.2,9.8,0,10.1c1.2,0.3,2.5,0.5,3.7,0.8 c0.9,0.2,1.8,0.3,2.6,0.7c1.6,0.8,2.4,2.2,2.8,3.9c0.3,1.3,0.6,2.5,0.9,3.8C10.3,18.1,10.6,16.9,10.9,15.6 C11.1,14,10.9,15.6,10.9,15.6z"></path> </svg>