<svg xmlns="http://www.w3.org/2000/svg" xmlns:xlink="http://www.w3.org/1999/xlink" version="1.1" id="Calque_1" x="0px" y="0px" viewBox="0 0 1080 473" style="enable-background:new 0 0 1080 473;" xml:space="preserve"> <style type="text/css"> .st0{fill:#FFFFFF;} .st1{fill:none;} .st2{fill:#0F9C19;} .st3{fill:#0D6804;} .st4{fill:#5E5EF7;} </style> <g> <g> <g> <g> <path class="st0" d="M74.6,471.4c-23.9,0-41.3-17.1-41.3-40.7c0-23.7,17.3-40.9,41.2-40.9c7.5,0,14.6,1.7,21.2,5.1L96,395v8.5 l-0.8-0.5c-5.9-3.9-13.3-6.1-20.7-6.1c-19.5,0-33.6,14.1-33.6,33.6s14.3,33.6,34.1,33.6c7.9,0,15.4-2.3,21.6-6.7l0.8-0.6v8.7 l-0.2,0.1C90.9,469.4,83.1,471.4,74.6,471.4z"></path> <path class="st0" d="M74.5,390.3c7.9,0,14.9,1.9,21,5v7.3c-5.7-3.8-13.1-6.2-21-6.2c-20.4,0-34.1,15-34.1,34.1 s13.7,34.1,34.6,34.1c8.2,0,15.8-2.5,21.9-6.8v7.5c-6.2,3.7-14,5.6-22.3,5.6c-24.1,0-40.8-17.5-40.8-40.2 C33.8,408.4,49.9,390.3,74.5,390.3 M74.5,389.3c-11.9,0-22.7,4.3-30.3,12.1c-7.4,7.6-11.4,18-11.4,29.3 c0,11.4,4.1,21.8,11.7,29.3c7.6,7.7,18.3,11.9,30.1,11.9c8.6,0,16.5-2,22.8-5.7l0.5-0.3v-0.6v-7.5v-1.9l-1.6,1.1 c-6.1,4.3-13.5,6.6-21.3,6.6c-19.5,0-33.6-13.9-33.6-33.1s13.9-33.1,33.1-33.1c7.3,0,14.6,2.1,20.4,6l1.6,1v-1.9v-7.3v-0.6 l-0.5-0.3C89.3,391,82.1,389.3,74.5,389.3L74.5,389.3z"></path> </g> <g> <rect x="138.8" y="391" class="st0" width="7.6" height="79.2"></rect> <path class="st0" d="M145.9,391.5v78.2h-6.6v-78.2H145.9 M146.9,390.5h-1h-6.6h-1v1v78.2v1h1h6.6h1v-1v-78.2V390.5L146.9,390.5z "></path> </g> <g> <polygon class="st0" points="212.2,470.3 212.2,398.1 185.3,398.1 185.3,391.1 246.7,391.1 246.7,398.1 219.8,398.1 219.8,470.3 "></polygon> <path class="st0" d="M246.2,391.6v6h-26.9v72.2h-6.6v-72.2l0,0h-26.9v-6L246.2,391.6 M247.2,390.6h-1h-60.4h-1v1v6v1h1h25.9 v71.2v1h1h6.6h1v-1v-71.2h25.9h1v-1v-6L247.2,390.6L247.2,390.6z"></path> </g> <g> <path class="st0" d="M334.9,470.1l-25.5-35h-16.1v35h-7.6V391h21.5c10.2,0,16.7,1.4,21.9,4.7c4.3,2.8,9.3,8.1,9.3,17.3 c0,7-3.1,13.2-8.4,16.9c-3.2,2.3-7,3.7-12,4.6l26.2,35.6H334.9z M309.2,428.6c7.9,0,13.1-1.4,16.8-4.4c3.2-2.7,4.8-6.3,4.8-10.8 c0-5.1-2.1-9.1-6.2-11.8c-3.8-2.6-8.7-3.5-17.8-3.5h-13.4v30.5L309.2,428.6L309.2,428.6z"></path> <path class="st0" d="M307.2,391.5c9.1,0,16.1,1.1,21.6,4.6c5.3,3.5,9.1,9.1,9.1,16.9c0,7.1-3.2,13-8.2,16.5 c-3.6,2.6-7.8,3.9-12.6,4.6l26.1,35.5h-8l-25.5-35h-16.9v35h-6.6v-78.1H307.2 M292.9,429.1h16.3l0,0c8.1,0,13.3-1.4,17.1-4.5 c3.3-2.8,5-6.6,5-11.2c0-5.7-2.5-9.6-6.4-12.2c-4.2-2.8-9.4-3.6-18.1-3.6h-13.9V429.1 M307.2,390.5h-21h-1v1v78.1v1h1h6.6h1v-1 v-34h15.4l25.2,34.6l0.3,0.4h0.5h8h2L344,469l-25.1-34.2c4.7-0.9,8.4-2.3,11.4-4.5c5.5-3.8,8.6-10.1,8.6-17.3 c0-9.4-5.2-14.9-9.5-17.7C324.1,391.9,317.5,390.5,307.2,390.5L307.2,390.5z M293.9,398.6h12.9c9,0,13.8,0.9,17.5,3.4 c4,2.6,6,6.5,6,11.4c0,4.3-1.6,7.8-4.6,10.4c-3.6,2.9-8.7,4.3-16.5,4.3h-15.3V398.6L293.9,398.6z"></path> </g> <g> <path class="st0" d="M417,471.4c-22.4,0-39.9-17.9-39.9-40.8s17.5-40.8,39.9-40.8c22.7,0,39.9,17.5,39.9,40.8 C456.9,453.5,439.4,471.4,417,471.4z M417,397.1c-18.4,0-32.3,14.4-32.3,33.6s13.9,33.6,32.3,33.6s32.3-14.4,32.3-33.6 S435.4,397.1,417,397.1z"></path> <path class="st0" d="M417,390.3c22.5,0,39.4,17.7,39.4,40.3c0,22.6-17,40.3-39.4,40.3s-39.4-17.7-39.4-40.3 C377.6,408.1,394.6,390.3,417,390.3 M417,464.8c19,0,32.8-15.1,32.8-34.1S436,396.6,417,396.6s-32.8,15.1-32.8,34.1 S398,464.8,417,464.8 M417,389.3c-11.1,0-21.3,4.3-28.8,12s-11.6,18.1-11.6,29.3c0,11.2,4.1,21.6,11.6,29.3 c7.5,7.7,17.7,12,28.8,12c11.1,0,21.3-4.3,28.8-12s11.6-18.1,11.6-29.3c0-11.2-4.1-21.7-11.5-29.3 C438.4,393.6,428.1,389.3,417,389.3L417,389.3z M417,463.8c-18.1,0-31.8-14.2-31.8-33.1s13.7-33.1,31.8-33.1 s31.8,14.2,31.8,33.1S435.1,463.8,417,463.8L417,463.8z"></path> </g> <g> <path class="st0" d="M555,470.3l-35.9-47.8c-3.9-5.2-7.4-10-11.1-15l-2.9-3.9c0.1,7.3,0.1,14.9,0.1,22.2v44.5h-7.4v-79.2h7 l36,47.8c3.9,5.2,7.4,10,11.1,15l2.9,3.9c-0.1-7.3-0.1-14.9-0.1-22.2v-44.5h7.4v79.2H555z"></path> <path class="st0" d="M561.6,391.6v78.2h-6.3l-35.8-47.6c-5.2-6.9-9.7-13.1-14.7-19.9l-0.2,0.1c0.1,7.6,0.1,15.6,0.1,23.4v44 h-6.4v-78.2h6.3l35.8,47.6c5.2,6.9,9.7,13.1,14.7,19.9l0.2-0.1c-0.1-7.6-0.1-15.6-0.1-23.4v-44L561.6,391.6 M562.6,390.6h-1 h-6.4h-1v1v44c0,6.8,0,13.9,0.1,20.7c-0.7-0.9-1.3-1.8-1.9-2.6c-3.7-5-7.2-9.8-11.1-15L505.4,391l-0.3-0.4h-0.5h-6.3h-1v1v78.2 v1h1h6.4h1v-1v-44c0-6.8,0-13.9-0.1-20.7c0.7,0.9,1.3,1.8,1.9,2.6c3.7,5,7.2,9.8,11.1,15l35.8,47.6l0.3,0.4h0.5h6.3h1v-1v-78.2 v-0.9H562.6z"></path> </g> </g> <g> <g> <g> <polygon class="st0" points="711.8,470.8 689.4,438.2 689.4,470.8 659.4,470.8 659.4,391.6 689.5,391.6 711.9,424.2 711.9,391.6 741.9,391.6 741.9,470.8 "></polygon> <path class="st0" d="M741.4,392.1v78.2h-29.3l-23-33.4l-0.2,0.1v33.3h-29v-78.2h29.3l23,33.4l0.2-0.1v-33.3L741.4,392.1 M742.4,391.1h-1h-29h-1v1v30.5l-21.4-31l-0.3-0.4h-0.5h-29.3h-1v1v78.2v1h1h29h1v-1v-30.5l21.4,31l0.3,0.4h0.5h29.3h1v-1 v-78.2V391.1L742.4,391.1z"></path> </g> <g> <path class="st0" d="M819.8,472c-24.7,0-44.1-17.9-44.1-40.8s19.4-40.8,44.1-40.8c24.7,0,44.1,17.9,44.1,40.8 S844.5,472,819.8,472z M819.8,420.1c-6.4,0-11.6,5.2-11.6,11.6s5.2,11.6,11.6,11.6s11.6-5.2,11.6-11.6S826.2,420.1,819.8,420.1 z"></path> <path class="st0" d="M819.8,390.9c24.5,0,43.6,17.6,43.6,40.3c0,22.7-19.1,40.3-43.6,40.3s-43.6-17.6-43.6-40.3 S795.3,390.9,819.8,390.9 M819.8,443.8c6.7,0,12.1-5.4,12.1-12.1s-5.4-12.1-12.1-12.1s-12.1,5.4-12.1,12.1 S813.1,443.8,819.8,443.8 M819.8,389.9c-25,0-44.6,18.1-44.6,41.3s19.6,41.3,44.6,41.3s44.6-18.1,44.6-41.3 S844.8,389.9,819.8,389.9L819.8,389.9z M819.8,442.8c-6.1,0-11.1-5-11.1-11.1s5-11.1,11.1-11.1s11.1,5,11.1,11.1 S825.9,442.8,819.8,442.8L819.8,442.8z"></path> </g> <g> <rect x="897.7" y="391.6" class="st0" width="33.2" height="79.2"></rect> <path class="st0" d="M930.4,392.1v78.2h-32.2v-78.2L930.4,392.1 M931.4,391.1h-1h-32.2h-1v1v78.2v1h1h32.2h1v-1v-78.2V391.1 L931.4,391.1z"></path> </g> <g> <path class="st0" d="M1010.9,470.8L999.6,446v24.8h-33.2v-79.2H999c14.4,0,38.5,3.3,38.5,25.3c0,7.7-3.3,14.1-9.7,18.8l18,35.1 L1010.9,470.8L1010.9,470.8z M1001,426.3l0.5-0.1c4.3,0,6.8-2,6.8-5.5c0-3.3-2.6-5.4-6.8-5.4h-1.9v11H1001z"></path> <path class="st0" d="M999,392.1c16.1,0,38,4,38,24.8c0,8.4-4,14.5-9.8,18.6l17.8,34.8h-33.8l-11.7-25.7h-0.4v25.7h-32.2v-78.2 l0,0L999,392.1 M999.1,426.8h2.4v-0.1c5.1,0,7.3-2.7,7.3-6s-2.4-5.9-7.3-5.9h-2.4V426.8 M999,391.1h-32.1h-1v1v78.2v1h1h32.2h1 v-1v-22l10.2,22.4l0.3,0.6h0.6h33.8h1.6l-0.7-1.5l-17.4-34c6.2-4.7,9.5-11.2,9.5-18.9C1038,394.5,1013.6,391.1,999,391.1 L999,391.1z M1000.1,415.8h1.4c3.9,0,6.3,1.8,6.3,4.9c0,3.2-2.3,5-6.3,5h-1v0.1h-0.4V415.8L1000.1,415.8z"></path> </g> </g> </g> </g> <g> <g> <g id="lamon_5_"> <g> <path class="st0" d="M600.2,198.1c-26.4,0-82.5-23.7-113.5-37.8c-41.5-18.8-80.8-39.8-85.6-44.6c-1.9-1.9-2.8-4.2-2.7-6.9 c0.7-10.9,19.6-26.7,40-42.2c22.2-16.9,33.7-21,39.9-23.2c0.8-0.3,1.5-0.5,2.2-0.8c5.4-2.1,12.6-4.3,18.9-5.6 c9.2-2.1,18.5-3.2,27.6-3.2c18,0,34.9,4.1,50.2,12.2c0.6,0.3,1.2,0.7,1.9,1c3.8,2.1,7.7,4.2,11.9,4.7c0.8,0.1,1.8,0.1,2.8,0.1 c1.1,0,2.3-0.1,3.4-0.1c1.1-0.1,2.3-0.1,3.4-0.1c1.1,0,2.1,0.1,3,0.2c4.9,0.6,9.6,3.4,12.8,7.7s4.6,9.6,3.8,14.5 c-0.2,1.4-0.6,2.7-1,4c-0.5,1.9-1,3.7-1,5.5c-0.1,3.4,1.5,6.7,2.9,9.9c0.3,0.6,0.5,1.1,0.8,1.7c0.8,1.7,1.5,3.6,2.2,5.3 l0.1,0.2v0.1l0.3,0.8c1.7,4.5,2.6,7,3.8,15.1c0.1,0.5,0.2,1.3,0.4,2.1c7.1,42.1,0.9,68.1-18.3,77.4 C607.7,197.5,604.4,198.1,600.2,198.1z"></path> <path class="st0" d="M526.8,34.8c17.2,0,34.1,3.8,49.7,12.1c4.5,2.4,9,5.2,14.1,5.8c1,0.1,2,0.2,2.9,0.2c2.3,0,4.5-0.2,6.8-0.2 c1,0,1.9,0,2.9,0.2c9.8,1.1,17.4,11.3,15.8,21c-0.5,3.3-2,6.4-2,9.7c-0.1,4.2,2.1,8.2,3.8,12c0.8,1.7,1.5,3.5,2.2,5.3v0.1 c1.9,5.2,2.8,7.3,4.1,15.9s12.8,63.9-17.4,78.5c-2.4,1.1-5.6,1.7-9.5,1.7c-46.1,0-189.5-73.2-198.5-82.1 c-9.8-9.6,12-28.4,37.2-47.6s36.7-21.8,41.8-23.8c5.1-2,12.3-4.2,18.7-5.6C508.5,35.9,517.6,34.8,526.8,34.8 M526.8,32.8 c-9.2,0-18.5,1.1-27.8,3.2c-6.2,1.4-13.5,3.5-19,5.7c-0.6,0.2-1.3,0.5-2.1,0.8c-6.2,2.2-17.8,6.3-40.2,23.3 c-23.8,18.1-39.7,32.3-40.4,43c-0.2,3,0.8,5.6,3,7.7c4.9,4.8,44.4,25.9,85.9,44.7c31.2,14.2,87.4,37.9,114,37.9 c4.3,0,7.8-0.6,10.4-1.9c12.7-6.1,19.9-19.6,21.4-40c1.2-16-1.5-31.7-2.6-38.5c-0.1-0.9-0.3-1.6-0.3-2.1 c-1.2-8.2-2.2-10.8-3.8-15.3l-0.2-0.6v-0.1l-0.1-0.3c-0.7-1.8-1.4-3.7-2.3-5.4c-0.2-0.5-0.5-1.1-0.8-1.7 c-1.4-3.1-2.9-6.3-2.9-9.4c0-1.7,0.5-3.5,1-5.3c0.4-1.3,0.8-2.7,1-4.2c0.8-5.1-0.6-10.7-4-15.2s-8.3-7.5-13.5-8.1 c-0.9-0.1-2-0.2-3.1-0.2c-1.2,0-2.3,0.1-3.5,0.1c-1.1,0.1-2.2,0.1-3.3,0.1c-1,0-1.9,0-2.7-0.1c-4-0.5-7.7-2.5-11.5-4.6 c-0.6-0.3-1.2-0.7-1.9-1C562,37,544.9,32.8,526.8,32.8L526.8,32.8z"></path> </g> <g> <path class="st0" d="M461.6,301c-21.3,0-41.8-5-59.3-14.5c-1-0.5-2-1.1-3-1.7c-4.6-2.6-9.3-5.2-14.5-6.4 c-1.3-0.3-2.6-0.4-4-0.6c-2-0.2-4-0.5-6-1.1c-9-2.8-15-12.8-13.1-22c0.3-1.3,0.7-2.6,1.1-3.9c0.5-1.6,1-3.1,1.2-4.6 c0.5-3.9-1-8-2.4-11.9c-0.2-0.5-0.4-1-0.5-1.5c-1.1-3.2-2.1-6.7-2.8-10.5c-0.8-5.8-1.4-15.6,0.8-29.3c0.1-0.4,0.1-0.6,0.1-0.7 c1.1-11.9,6.9-27.3,9.7-34.7c0.5-1.2,0.8-2.2,1.1-3c5.3-12.7,17.6-20.8,31.4-20.8c6.1,0,12.1,1.7,17.4,4.8v0.1 c6.1,2.8,67.7,34.5,101.7,52.3c102.2,53.5,102.2,57.1,102.2,58.6c0,0.5-0.3,1-0.8,1.2c-0.3,0.1-0.6,0.2-1.1,0.2 c-0.7,0-1.7-0.2-3.1-0.5c-7.9-2-15.4-3-22.4-3c-19,0-28.6,7.5-31.7,10l-0.3,0.2c-0.1,0.1-0.2,0.2-0.3,0.2 c-0.1,0.1-0.3,0.3-0.5,0.4c-0.1,0.1-0.3,0.2-0.5,0.4c-0.1,0.1-0.1,0.1-0.2,0.2c-0.2,0.1-0.4,0.3-0.7,0.5s-0.5,0.4-0.7,0.5 c-0.1,0-0.2,0.2-0.2,0.2l-0.1,0.1l-0.2,0.1c0,0-0.1,0-0.2,0.2l-0.1,0.1h-0.1c-1.8,1.3-4.1,3.1-6.7,5.3 c-10.5,8.5-26.3,21.4-44.7,27.4C493,298.3,477.4,301,461.6,301z"></path> <path class="st0" d="M401.3,134.8c5.8,0,11.6,1.5,16.9,4.7c0.1,0,218.4,110.5,202.5,110.5c-0.6,0-1.5-0.2-2.8-0.5 c-8.7-2.2-16.2-3.1-22.6-3.1c-20.1,0-30,8.4-32.7,10.5c0,0-0.1,0.1-0.3,0.2c-0.1,0.1-0.3,0.3-0.5,0.4c-0.1,0.1-0.2,0.2-0.4,0.3 c-0.3,0.2-0.6,0.5-1,0.7c-0.2,0.2-0.4,0.3-0.6,0.4c-0.2,0.1-0.4,0.3-0.5,0.4c-0.2,0.1-0.3,0.2-0.5,0.4 c-8.7,6.3-28.1,25-51.1,32.5c-14.8,5.1-30.5,7.8-46.1,7.8c-20.5,0-40.8-4.6-58.8-14.4c-5.7-3.1-11.3-6.7-17.7-8.1 c-3.3-0.7-6.7-0.7-10-1.7c-8.5-2.6-14.2-12.2-12.4-20.8c0.6-2.9,1.9-5.7,2.3-8.6c0.6-4.7-1.4-9.4-3-13.9 c-1.2-3.4-2.1-6.9-2.8-10.4c-2-14,0.8-28.7,0.9-29.7c1.3-13.7,8.9-32.3,10.7-37.4C376.1,142.2,388.5,134.8,401.3,134.8 M401.3,132.8v2V132.8c-14.2,0-26.9,8.4-32.3,21.4v0.1v0.1c-0.3,0.7-0.6,1.7-1.1,2.9c-2.8,7.4-8.6,22.9-9.7,34.9 c0,0.1,0,0.3-0.1,0.6c-2.2,13.8-1.6,23.7-0.8,29.5v0.1v0.1c0.8,3.9,1.7,7.4,2.9,10.7c0.2,0.5,0.4,1,0.6,1.5 c1.4,3.8,2.8,7.8,2.3,11.4c-0.2,1.4-0.7,2.9-1.2,4.5c-0.4,1.3-0.8,2.6-1.1,4c-2,9.6,4.3,20.2,13.8,23.1 c2.1,0.6,4.2,0.9,6.2,1.1c1.4,0.2,2.7,0.3,4,0.6c5,1.1,9.7,3.7,14.2,6.2c1,0.6,2,1.1,3,1.7c17.6,9.6,38.3,14.6,59.8,14.6 c15.8,0,31.6-2.7,46.7-7.9c18.5-6,34.4-19,45-27.5c2.6-2.1,4.9-4,6.7-5.3l0.1-0.1l0.1-0.1c0,0,0,0,0.1-0.1l0.2-0.1l0.2-0.2 c0,0,0,0,0.1-0.1c0.2-0.1,0.5-0.3,0.8-0.5s0.6-0.4,0.7-0.5l0.1-0.1c0.2-0.1,0.4-0.3,0.6-0.4c0.2-0.1,0.3-0.3,0.5-0.4 s0.3-0.2,0.4-0.3l0.3-0.2c3.1-2.4,12.5-9.8,31.1-9.8c6.9,0,14.3,1,22.1,3c1.5,0.4,2.5,0.5,3.3,0.5c2.2,0,2.8-1.5,2.8-2.4 c0-1.7,0-3.7-32.8-22c-16.9-9.4-40.4-22.1-69.9-37.5c-26.5-13.9-52.6-27.3-69.9-36.2c-10.2-5.2-18.2-9.3-23.1-11.8 c-5.5-2.8-7.7-3.9-8.7-4.3l0,0C413.8,134.6,407.6,132.8,401.3,132.8L401.3,132.8z"></path> </g> <path d="M561.8,257.5c-0.5,0.3-1.1,0.9-2,1.5C560.5,258.5,561.2,258,561.8,257.5z"></path> <polyline class="st1" points="585.4,179.5 585.4,179.5 585.4,179.5 585.4,179.5 "></polyline> <path class="st2" d="M585.4,179.5L585.4,179.5L585.4,179.5L585.4,179.5L585.4,179.5z"></path> <path class="st3" d="M585.4,179.5L585.4,179.5L585.4,179.5z"></path> <path class="st4" d="M598.8,250.3c0,0,142.5,100.5,118.9,9.7C699.7,191.3,685.1,310.2,598.8,250.3z"></path> <circle class="st4" cx="570.5" cy="289.6" r="7.4"></circle> <circle class="st4" cx="691.4" cy="210.6" r="7.4"></circle> <circle class="st4" cx="661.6" cy="190.5" r="3.8"></circle> </g> </g> <circle class="st4" cx="582.7" cy="14.3" r="12.8"></circle> </g> </g> </svg>