<svg xmlns="http://www.w3.org/2000/svg" xmlns:xlink="http://www.w3.org/1999/xlink" version="1.1" id="Calque_1" x="0px" y="0px" viewBox="0 0 1027.2 1080" style="enable-background:new 0 0 1027.2 1080;" xml:space="preserve"> <style type="text/css"> .st0{fill:#5C59F3;} </style> <g> <g> <g> <g> <path class="st0" d="M715,659.7c7.3,13.6,14.5,27.3,21.9,40.9c1.6,3,1.1,4.7-1.3,7.1c-41.2,41.2-82.3,82.4-123.3,123.8 c-2.9,3-4.4,1.8-6.7-0.4c-19.3-18.6-38.3-37.7-58.2-55.6c-38.4-34.5-82.3-60.2-130.9-77.7c-42-15.1-85.3-23.2-129.9-23.5 c-1.8,0-3.6,0-6,0c-0.1-2.2-0.3-4.1-0.3-6c0-60.2,0-120.5-0.2-180.7c0-5.5,1.7-8.3,6.9-9.8c13.4-3.7,26.7-8,40.2-11.5 c6.5-1.7,6.7-0.9,7.6,6c2.5,20.3,5.3,40.6,7.8,61c2.5,19.5,4.8,39.1,7.2,58.6c0.5,4,1.2,8.1,1.4,12.1c0.2,3.3,2,4.5,4.9,4.9 c30.9,4.5,60.8,12.7,89.9,23.6c46.3,17.4,89.2,41,127.8,72c9.6,7.7,18.8,16,28.2,24c0.7,0.6,1.6,1.1,2.9,2.1 c6.5-6.6,13-13.2,19.4-19.7c6.6-6.7,13.2-13.5,19.9-20.1c1.9-1.9,2.7-3.4,1.1-6.3C622,642,619,637.6,575.2,556.8 C531.4,475.9,695.7,623.4,715,659.7z"></path> </g> </g> <g> <path class="st0" d="M618.3,985.5c3.6-0.8,7.2-1.5,10.9-2.3c-142.6,103-347.7,103.9-489.7-17.1 c-151.7-126.6-184-352.4-75.7-517.7c96-151.1,286.6-217.6,453.5-163.5c-19.5,15.5-29.8,37-29.9,62.6c0,2.5,0,5.1,0.1,7.6 c-84.3-11.1-173.2,8.6-247.6,63.4C57.5,551.9,54.7,826.3,233.7,964.6C347.9,1053.8,501.9,1055.9,618.3,985.5z"></path> </g> <g> <path class="st0" d="M589.9,336.4c-1.3-6.9-2.3-14-2.8-21.2C587.7,322.4,588.7,329.5,589.9,336.4z"></path> </g> <g> <path class="st0" d="M790.1,698.7c-2.1-6.1-4.1-12.2-6.1-18.3c-0.3-0.8-0.5-1.6-0.8-2.3c-1.5-43.1-11.1-86-29.1-125.5 c-21.9-49.3-54-90.3-92.3-122.1c2.4-2.7,4.8-5.4,7.2-8.1c4-4.6,8.1-9.2,12.2-13.7c3.5-3.9,6.4-7.8,8.7-11.8 C763.2,479.2,799.3,589.8,790.1,698.7z"></path> </g> <g> <g> <g> <path class="st0" d="M884.7,112.5c-0.8-1-1.6-1.9-2.5-2.9l0,0c-0.4-0.4-0.9-0.9-1.3-1.3c-0.9-0.9-1.8-1.8-2.8-2.5 c-4.7-4-10.1-6.7-15.6-6.7c-1,0-2.1,0.1-3.1,0.3c-21,4-34.7,35.2-32.2,63c1.2,13.2,5.4,25.6,13.7,37.6 c6.1-6.7,11.8-12.9,17.4-19.2c12.4-13.9,24.7-27.9,37.1-41.9C898,135.8,893.1,122.9,884.7,112.5z"></path> </g> </g> <g> <g> <path class="st0" d="M995.5,32.2c0.2,3-3.2,6.3-5,8.3c-19.2,22.3-38.5,44.6-57.9,66.8c-2.9,3.3-5.1,4.9-7.2,4.9 c-2.4,0-4.6-1.9-7.6-5.7c-6.6-8.5-13.6-16.8-20.6-25c-5.1-6-4.7-9.8,2.2-13.9c25.2-15.1,50.3-30.3,75.7-44.7 c2-1.1,4.6-1.6,7.2-1.6c2.4,0,4.8,0.4,6.7,1.2C992,23.6,995.3,29.3,995.5,32.2z"></path> </g> </g> <g> <g> <path class="st0" d="M602.1,467.9c-8.9,10.9-18.6,21.1-28.9,32.8c-7.3-7.4-14.6-14.1-21-21.6c-30-34.9-43.7-75.9-45.3-121 c-0.1-3.5-0.2-7-0.2-10.6c0.1-22.3,10.1-40,28.8-52.1c1.3-0.9,2.7-1.7,4.1-2.6c7.7-4.8,15.6-9.5,24.5-14.9 c-0.5,8.6-0.7,17.1-0.5,25.4c0.8,26.9,5.7,52.3,14.9,76.6c3.7,10,8.2,19.8,13.5,29.5c3.8,7.1,8.3,13.8,12.4,20.7 C611.3,442,610.8,457.2,602.1,467.9z"></path> </g> </g> <g> <g> <path class="st0" d="M678,375.2c-0.1,0.5-0.2,1.1-0.3,1.6c-0.1,0.3-0.2,0.7-0.3,1c-0.1,0.4-0.2,0.8-0.4,1.3 c-0.1,0.3-0.2,0.6-0.3,0.9c-0.2,0.4-0.3,0.9-0.5,1.4c-0.1,0.3-0.2,0.5-0.3,0.7c-0.3,0.6-0.6,1.3-0.9,1.9 c-0.2,0.5-0.5,1-0.8,1.5c-0.7,1.4-1.6,2.8-2.6,4.2c-0.3,0.4-0.6,0.9-1,1.3c-0.4,0.5-0.8,1.1-1.2,1.6c-0.8,1.1-1.8,2.2-2.7,3.2 c-6.7,7.6-13.5,15.2-20.2,22.8c-3.1,3.5-6.2,7-9.4,10.5c-0.8,0.9-1.9,1.4-3.3,2.5c-4.6-6.1-8.9-12.3-12.9-18.6 c-0.8-1.2-1.5-2.4-2.2-3.6c-1.9-3.1-3.8-6.3-5.5-9.4c-0.8-1.4-1.6-2.8-2.3-4.3c-1.6-3-3.1-6.1-4.6-9.1 c-0.8-1.7-1.6-3.4-2.3-5.2c-0.7-1.6-1.4-3.2-2.1-4.8c-0.6-1.4-1.2-2.9-1.8-4.4c-1.3-3.4-2.6-6.9-3.7-10.4 c-0.5-1.6-1-3.2-1.5-4.9c0-0.1-0.1-0.3-0.1-0.4c-0.4-1.1-0.7-2.2-1-3.4c-0.2-0.8-0.4-1.7-0.6-2.5c-0.9-3.5-1.8-7-2.5-10.5 c-0.3-1.3-0.5-2.5-0.8-3.9c-1.3-6.9-2.2-14-2.8-21.2c0-0.3,0-0.5-0.1-0.7c0-0.3-0.1-0.5-0.1-0.7l0,0c-0.1-1.5-0.2-3.1-0.3-4.6 c-0.1-2-0.2-4.1-0.2-6.2c-0.5-24.5,9.5-43.6,30.2-56.7c8.6-5.5,17.4-10.6,26.8-16.3c0.1,10.5-0.1,20,0.4,29.5 c1.8,32.3,11.1,62.1,27.6,89.7C677.2,358.6,679.4,367.1,678,375.2z"></path> </g> <g> <path class="st0" d="M587.1,315.2L587.1,315.2c-0.1-0.3-0.1-0.5-0.1-0.7C587.1,314.7,587.1,314.9,587.1,315.2z"></path> </g> <g> <path class="st0" d="M589.9,336.4c-1.3-6.9-2.3-14-2.8-21.2C587.7,322.4,588.7,329.5,589.9,336.4z"></path> </g> <g> <path class="st0" d="M587.1,315.2c0.5,7.2,1.5,14.3,2.8,21.2C588.7,329.5,587.7,322.4,587.1,315.2z M587,314.4 c0,0.3,0,0.5,0,0.7l0,0C587.1,314.9,587.1,314.7,587,314.4z"></path> </g> </g> <g> <g> <path class="st0" d="M737.3,316.5c-11.2,12.6-22.4,25.2-34.5,38.7c-20.3-27.9-32.6-57.7-36-91.3c-3.1-31.4,8.4-54.8,35.9-69.9 c6.8-3.7,13.3-8,20.8-12.6c-0.1,6.6-0.2,12.5-0.3,18.4c-0.1,26.4,6.8,51,19,74.1C750.7,289.6,749,303.3,737.3,316.5z"></path> </g> </g> <g> <g> <path class="st0" d="M810.9,233.1c-12.2,15-25.4,29.2-39,44.7c-2.5-3.7-4.7-6.6-6.5-9.7c-12.8-22.6-21-46.4-18.3-73.1 c1.4-13.6,6.4-26.1,16.6-34.8c11.9-10.1,25.4-18.3,38.1-27.3c0.6,0.6,1.3,1.3,2,2c-2.2,23.3,1.6,45.4,11.1,66.6 C819.8,212.4,818.5,223.8,810.9,233.1z"></path> </g> </g> </g> </g> </g> </svg>