<svg xmlns="http://www.w3.org/2000/svg" xmlns:xlink="http://www.w3.org/1999/xlink" version="1.1" id="Calque_1" x="0px" y="0px" viewBox="0 0 139.1 50.4" style="enable-background:new 0 0 139.1 50.4;" xml:space="preserve"> <style type="text/css"> .st0{clip-path:url(#SVGID_00000165193229985019523450000000028476754092702873_);fill:#90C893;} .st1{clip-path:url(#SVGID_00000165193229985019523450000000028476754092702873_);fill:#FFFFFF;} .st2{clip-path:url(#SVGID_00000165193229985019523450000000028476754092702873_);fill:#3C3C3B;} </style> <g> <defs> <rect id="SVGID_1_" x="20.2" y="7.3" width="98.8" height="35.8"></rect> </defs> <clipPath id="SVGID_00000078762930515161321910000006243486173282108596_"> <use xlink:href="#SVGID_1_" style="overflow:visible;"></use> </clipPath> <path style="clip-path:url(#SVGID_00000078762930515161321910000006243486173282108596_);fill:#90C893;" d="M47,36.5l-2.7-13.3 c-0.7,2.1-2.7,3.7-6.1,5.1c-1.3,0.5-2.5,0.8-3.5,0.9c-0.4,1.2-1.2,2.5-2.1,2.9c-0.2,0.1-0.3,0.1-0.5,0.1c-0.3,0-0.6-0.1-0.9-0.3 c-0.3-0.3-0.6-0.6-0.6-1.1c-0.1-0.7,0.3-1.5,0.6-1.9c-0.4-0.1-0.6-0.2-0.8-0.3c-0.3,0.6-0.5,1.1-0.5,1.1s-0.6-1.2-0.1-2 c0.5-0.8,1.5-0.7,1.3-0.6c-0.1,0-0.2,0.3-0.4,0.7c0.6,0.3,3.3,1.4,7.1-0.2c4.7-1.9,6.5-4.2,5.8-7.4l-1.5-7.6 c-0.3-1.4-1.5-2.3-2.8-2.3c-0.2,0-0.4,0-0.6,0.1l-10.9,2.3c-1.5,0.3-2.5,1.9-2.2,3.4l4.8,24c0.2,0.8,0.6,1.4,1.2,1.8 c0.6,0.4,1.4,0.6,2.1,0.4l10.9-2.3C46.3,39.6,47.3,38,47,36.5"></path> <path style="clip-path:url(#SVGID_00000078762930515161321910000006243486173282108596_);fill:#90C893;" d="M32,29 c-0.2,0.4-0.7,1.1-0.6,1.6c0,0.2,0.1,0.4,0.3,0.5c0.2,0.2,0.4,0.2,0.6,0.1c0.5-0.2,1.1-1,1.5-2c-0.3,0-0.6,0-0.8,0 c-0.3,0.6-0.7,1.5-0.7,1.5c0-0.7,0.1-1.2,0.1-1.5C32.2,29.1,32.1,29.1,32,29"></path> <path style="clip-path:url(#SVGID_00000078762930515161321910000006243486173282108596_);fill:#FFFFFF;" d="M40,38.4 c0.1,0.7-0.3,1.3-0.9,1.4c-0.6,0.1-1.3-0.3-1.4-0.9c-0.1-0.7,0.3-1.3,0.9-1.4S39.9,37.7,40,38.4"></path> <path style="clip-path:url(#SVGID_00000078762930515161321910000006243486173282108596_);fill:#90C893;" d="M25.7,30.8 c-0.1,1,0,1.8,0.1,2.7c0.1,0.8,0.2,1.6,0.4,2.5c0.2,0.8,0.4,1.6,0.7,2.4c0.1,0.4,0.3,0.8,0.4,1.2c0.2,0.4,0.3,0.8,0.4,1.3 c-0.4-0.3-0.8-0.6-1.1-0.9c-0.3-0.3-0.6-0.7-0.9-1.1c-0.5-0.8-0.9-1.7-1.2-2.6c-0.2-1-0.3-2-0.1-2.9C24.6,32.4,25,31.5,25.7,30.8"></path> <path style="clip-path:url(#SVGID_00000078762930515161321910000006243486173282108596_);fill:#90C893;" d="M22.9,36.2 c0.1,0.6,0.3,1.1,0.4,1.6c0.2,0.5,0.4,0.9,0.7,1.4c0.3,0.4,0.6,0.8,0.9,1.3c0.2,0.2,0.4,0.4,0.5,0.6c0.2,0.2,0.4,0.4,0.6,0.7 c-0.3,0-0.6-0.1-0.9-0.2c-0.3-0.1-0.5-0.3-0.8-0.4c-0.5-0.3-0.9-0.8-1.3-1.3c-0.3-0.5-0.6-1.2-0.6-1.8 C22.4,37.4,22.5,36.8,22.9,36.2"></path> <path style="clip-path:url(#SVGID_00000078762930515161321910000006243486173282108596_);fill:#3C3C3B;" d="M41,21.3 c0.4,0.7,0,2.6-1.3,3.3c-1.3,0.7-3,0.1-3.4-0.6c-0.3-0.6,0.6-1.5,1.9-2.2C39.5,21,40.7,20.6,41,21.3"></path> <path style="clip-path:url(#SVGID_00000078762930515161321910000006243486173282108596_);fill:#FFFFFF;" d="M39.6,21.7 c0.1,0.1-0.3,0.6-0.9,1c-0.6,0.3-1.2,0.4-1.3,0.3c-0.1-0.1,0.4-0.5,1-0.9C39,21.7,39.5,21.5,39.6,21.7"></path> <path style="clip-path:url(#SVGID_00000078762930515161321910000006243486173282108596_);fill:#FFFFFF;" d="M33.6,20.5 c0-0.5-0.5-0.8-0.9-0.7c-1,0.2-2.6,0.8-3,2c-0.7,1.8-0.7,4.4,2,4.4c2.7,0.1,2.8-0.8,2.3-3C33.8,22.1,33.7,21.2,33.6,20.5"></path> <path style="clip-path:url(#SVGID_00000078762930515161321910000006243486173282108596_);fill:#3C3C3B;" d="M33.7,24.2 c0.1,0.7-0.3,1.5-1,1.6c-0.7,0.2-1.4-0.3-1.6-1.1c-0.1-0.7,0.3-1.5,1-1.6C32.9,22.9,33.6,23.4,33.7,24.2"></path> <path style="clip-path:url(#SVGID_00000078762930515161321910000006243486173282108596_);fill:#FFFFFF;" d="M33.3,23.8 c0.1,0.3-0.1,0.7-0.5,0.7c-0.3,0.1-0.7-0.1-0.7-0.5c-0.1-0.3,0.1-0.7,0.5-0.7C32.9,23.3,33.3,23.5,33.3,23.8"></path> <path style="clip-path:url(#SVGID_00000078762930515161321910000006243486173282108596_);fill:#3C3C3B;" d="M41.4,18.4 c0.1,0.7-0.3,1.5-1,1.6c-0.7,0.2-1.4-0.3-1.6-1.1c-0.1-0.7,0.3-1.5,1-1.6C40.5,17.2,41.2,17.7,41.4,18.4"></path> <path style="clip-path:url(#SVGID_00000078762930515161321910000006243486173282108596_);fill:#FFFFFF;" d="M41,18.1 c0.1,0.3-0.1,0.7-0.5,0.7c-0.3,0.1-0.7-0.1-0.7-0.5c-0.1-0.3,0.1-0.7,0.5-0.7C40.6,17.5,40.9,17.8,41,18.1"></path> <path style="clip-path:url(#SVGID_00000078762930515161321910000006243486173282108596_);fill:#3C3C3B;" d="M47.7,36.3l-3.3-16.4 c0,0,0,0,0,0v0l-1.5-7.6c-0.4-2-2.3-3.3-4.3-2.9l-9.2,1.9c0,0,0,0,0,0c0,0-0.5-0.9-0.2-1.8c0.2-0.5,0.7-1,1.4-1.2 c0.7-0.3,1.2-0.2,1.3,0c0.1,0.1,0.1,0.4,0,0.6c-0.2,0.4-0.8,0.8-1.7,0.6c-0.2,0-0.4,0.1-0.5,0.3c0,0.2,0.1,0.4,0.3,0.5 c1.3,0.3,2.2-0.4,2.5-1c0.3-0.6,0.3-1.2,0-1.6c-0.2-0.3-0.8-0.7-2.2-0.2c-1,0.4-1.7,1-1.9,1.7c-0.3,0.9,0,1.8,0.2,2.2l-0.9,0.2 c-1.3,0.3-2.2,1.2-2.7,2.4c-0.2-0.4-0.5-0.7-0.8-0.9c-0.5-0.3-1-0.3-1.6-0.1c-1.5,0.5-2.4,2.2-2.4,3.6c0,0.9,0.3,1.5,0.9,1.8 c0.2,0.1,0.3,0.1,0.5,0.1c0.2,0,0.4,0,0.6-0.1c1.1-0.6,1.7-2.6,1.7-2.9c0.1-0.2-0.1-0.4-0.3-0.5c-0.2-0.1-0.4,0.1-0.5,0.3 c-0.1,0.5-0.7,2-1.3,2.3c-0.1,0.1-0.3,0.1-0.4,0C21,17.5,21,17,21,16.7c0-1.1,0.8-2.5,1.9-2.8c0.4-0.1,0.6-0.1,0.9,0.1 c0.7,0.4,1,1.6,1.1,2.1c0,0.1,0,0.1,0,0.2l4.8,24c0.2,1,0.7,1.8,1.6,2.4c0.6,0.4,1.3,0.6,2,0.6c0.2,0,0.5,0,0.7-0.1l10.9-2.3 C46.9,40.3,48.1,38.3,47.7,36.3 M44.8,39.9l-10.9,2.3c-0.7,0.2-1.5,0-2.1-0.4c-0.6-0.4-1.1-1.1-1.2-1.8l-4.8-24 c-0.3-1.6,0.7-3.1,2.2-3.4l10.9-2.3c0.2,0,0.4-0.1,0.6-0.1c1.3,0,2.5,0.9,2.8,2.3l1.5,7.6c0.6,3.2-1.2,5.5-5.8,7.4 c-3.9,1.6-6.5,0.5-7.1,0.2c0.2-0.3,0.3-0.6,0.4-0.7c0.2-0.1-0.7-0.2-1.3,0.6c-0.5,0.8,0.1,2,0.1,2s0.2-0.6,0.5-1.1 c0.2,0.1,0.4,0.2,0.8,0.3c-0.3,0.5-0.6,1.2-0.6,1.9c0.1,0.4,0.3,0.8,0.6,1.1c0.3,0.2,0.6,0.3,0.9,0.3c0.1,0,0.3,0,0.5-0.1 c0.9-0.3,1.7-1.6,2.1-2.9c1-0.1,2.2-0.3,3.5-0.9c3.4-1.4,5.4-3.1,6.1-5.1L47,36.5C47.3,38,46.3,39.6,44.8,39.9 M32.2,30.6 c0,0,0.4-0.9,0.7-1.5c0.3,0,0.5,0,0.8,0c-0.4,1-1,1.9-1.5,2c-0.2,0.1-0.4,0-0.6-0.1c-0.2-0.1-0.3-0.3-0.3-0.5 c-0.1-0.5,0.3-1.3,0.6-1.6c0.1,0,0.2,0,0.4,0.1C32.2,29.4,32.2,29.9,32.2,30.6"></path> <path style="clip-path:url(#SVGID_00000078762930515161321910000006243486173282108596_);fill:#90C893;" d="M24.9,16.1 C24.9,16.1,24.9,16.1,24.9,16.1l0-0.2c-0.1-0.5-0.4-1.6-1.1-2c-0.3-0.2-0.6-0.2-0.9-0.1c-1.1,0.4-1.9,1.8-1.9,2.8 c0,0.3,0,0.8,0.4,1c0.1,0.1,0.3,0.1,0.4,0c0.7-0.3,1.2-1.8,1.3-2.3c0.1-0.2,0.3-0.3,0.5-0.3c0,0,0.6,0.1,1.3,1.4L24.9,16.1 L24.9,16.1z"></path> <path style="clip-path:url(#SVGID_00000078762930515161321910000006243486173282108596_);fill:#90C893;" d="M29.8,9.7L29.8,9.7 c0.1-0.1,0.3-0.2,0.4-0.2c0.9,0.2,1.5-0.2,1.7-0.6c0.1-0.2,0.2-0.5,0-0.6c-0.1-0.2-0.6-0.3-1.3,0c-0.8,0.3-1.3,0.7-1.4,1.2 c-0.3,0.8,0.2,1.8,0.2,1.8C29.6,10.2,29.8,9.7,29.8,9.7"></path> <path style="clip-path:url(#SVGID_00000078762930515161321910000006243486173282108596_);fill:#FFFFFF;" d="M32,29 c-0.2,0.4-0.7,1.1-0.6,1.6c0,0.2,0.1,0.4,0.3,0.5c0.2,0.2,0.4,0.2,0.6,0.1c0.5-0.2,1.1-1,1.5-2c-0.3,0-0.6,0-0.8,0 c-0.3,0.6-0.7,1.5-0.7,1.5c0-0.7,0.1-1.2,0.1-1.5C32.2,29.1,32.1,29.1,32,29"></path> <path style="clip-path:url(#SVGID_00000078762930515161321910000006243486173282108596_);fill:#3C3C3B;" d="M57.3,20.3L57.3,20.3 c0-2.7,2.1-4.9,4.9-4.9c2.8,0,4.9,2.2,4.9,4.9v0c0,2.7-2.1,4.9-4.9,4.9S57.3,23,57.3,20.3 M64.6,20.3L64.6,20.3 c0-1.4-0.9-2.6-2.3-2.6s-2.3,1.2-2.3,2.5v0c0,1.4,1,2.5,2.4,2.5C63.6,22.9,64.6,21.7,64.6,20.3"></path> <path style="clip-path:url(#SVGID_00000078762930515161321910000006243486173282108596_);fill:#3C3C3B;" d="M67.3,23.5l1.1-1.4 c0.1-0.1,0.2-0.1,0.3,0c0.9,0.7,1.8,1,2.8,1c0.7,0,1.1-0.2,1.1-0.6v0c0-0.4-0.3-0.6-1.6-0.9c-1.9-0.5-3.5-1-3.5-2.9v0 c0-1.7,1.3-3,3.5-3c1.5,0,2.6,0.4,3.6,1.1c0.1,0.1,0.1,0.2,0,0.3l-1,1.5c-0.1,0.1-0.2,0.1-0.3,0.1c-0.8-0.5-1.6-0.8-2.4-0.8 c-0.6,0-0.9,0.3-0.9,0.6v0c0,0.4,0.3,0.6,1.6,0.9c2.1,0.5,3.4,1.2,3.4,2.9v0c0,1.9-1.5,3.1-3.7,3.1c-1.5,0-3-0.5-4.1-1.4 C67.2,23.7,67.2,23.6,67.3,23.5"></path> <path style="clip-path:url(#SVGID_00000078762930515161321910000006243486173282108596_);fill:#90C893;" d="M78.8,15.4H81 c0.1,0,0.2,0.1,0.2,0.1l3.7,9.3c0.1,0.2,0,0.3-0.2,0.3h-2.2c-0.1,0-0.2-0.1-0.2-0.2l-0.5-1.4c0-0.1-0.1-0.2-0.2-0.2h-3.2 c-0.1,0-0.2,0.1-0.2,0.2l-0.5,1.4c0,0.1-0.1,0.2-0.2,0.2h-2.2c-0.2,0-0.3-0.2-0.2-0.3l3.7-9.3C78.7,15.5,78.7,15.4,78.8,15.4 M80.9,21.4l-1-2.7l-1,2.7H80.9z"></path> <path style="clip-path:url(#SVGID_00000078762930515161321910000006243486173282108596_);fill:#90C893;" d="M85.5,15.4h2.3 c0.1,0,0.2,0,0.2,0.1l2,3.5c0,0.1,0.2,0.1,0.2,0l2-3.5c0-0.1,0.1-0.1,0.2-0.1h2.3c0.1,0,0.2,0.1,0.2,0.2V25c0,0.1-0.1,0.2-0.2,0.2 h-2.1c-0.1,0-0.2-0.1-0.2-0.2v-5.4l-2.3,3.7c0,0.1-0.1,0.1-0.2,0l-2.3-3.7V25c0,0.1-0.1,0.2-0.2,0.2h-2c-0.1,0-0.2-0.1-0.2-0.2 v-9.3C85.3,15.5,85.4,15.4,85.5,15.4"></path> <path style="clip-path:url(#SVGID_00000078762930515161321910000006243486173282108596_);fill:#90C893;" d="M96.4,15.4h2.1 c0.1,0,0.2,0.1,0.2,0.2V25c0,0.1-0.1,0.2-0.2,0.2h-2.1c-0.1,0-0.2-0.1-0.2-0.2v-9.3C96.2,15.5,96.3,15.4,96.4,15.4"></path> <path style="clip-path:url(#SVGID_00000078762930515161321910000006243486173282108596_);fill:#90C893;" d="M99.5,23.5l1.1-1.4 c0.1-0.1,0.2-0.1,0.3,0c0.9,0.7,1.8,1,2.8,1c0.7,0,1.1-0.2,1.1-0.6v0c0-0.4-0.3-0.6-1.6-0.9c-1.9-0.5-3.5-1-3.5-3v0 c0-1.8,1.3-3,3.5-3c1.5,0,2.6,0.4,3.6,1.1c0.1,0.1,0.1,0.2,0,0.3l-1,1.5c-0.1,0.1-0.2,0.1-0.3,0.1c-0.8-0.5-1.6-0.8-2.4-0.8 c-0.6,0-0.9,0.3-0.9,0.6v0c0,0.4,0.3,0.6,1.6,0.9c2.1,0.5,3.4,1.2,3.4,2.9v0c0,1.9-1.5,3.1-3.7,3.1c-1.5,0-3-0.5-4.1-1.4 C99.5,23.7,99.5,23.6,99.5,23.5"></path> <path style="clip-path:url(#SVGID_00000078762930515161321910000006243486173282108596_);fill:#90C893;" d="M55.6,25.2h6.9 c0.1,0,0.2,0.1,0.2,0.2v1.8c0,0.1-0.1,0.2-0.2,0.2h-4.6V29h4.2c0.1,0,0.2,0.1,0.2,0.2v1.7c0,0.1-0.1,0.2-0.2,0.2h-4.2v1.6h4.7 c0.1,0,0.2,0.1,0.2,0.2v1.8c0,0.1-0.1,0.2-0.2,0.2h-7c-0.1,0-0.2-0.1-0.2-0.2v-9.3C55.4,25.3,55.5,25.2,55.6,25.2"></path> <path style="clip-path:url(#SVGID_00000078762930515161321910000006243486173282108596_);fill:#90C893;" d="M63.3,33.2l1.1-1.4 c0.1-0.1,0.2-0.1,0.3,0c0.9,0.7,1.8,1,2.8,1c0.7,0,1.1-0.2,1.1-0.6v0c0-0.4-0.3-0.6-1.6-0.9c-1.9-0.5-3.5-1-3.5-3v0 c0-1.8,1.3-3,3.5-3c1.5,0,2.6,0.4,3.6,1.1c0.1,0.1,0.1,0.2,0,0.3l-1,1.5c-0.1,0.1-0.2,0.1-0.3,0.1c-0.8-0.5-1.6-0.8-2.4-0.8 c-0.6,0-0.9,0.3-0.9,0.6v0c0,0.4,0.3,0.6,1.6,0.9c2.1,0.5,3.4,1.2,3.4,2.9v0c0,1.9-1.5,3.1-3.7,3.1c-1.5,0-3-0.5-4.1-1.4 C63.2,33.5,63.2,33.3,63.3,33.2"></path> <path style="clip-path:url(#SVGID_00000078762930515161321910000006243486173282108596_);fill:#3C3C3B;" d="M71.7,30.1L71.7,30.1 c0-2.8,2-4.9,4.8-4.9c1.8,0,2.9,0.7,3.7,1.8c0.1,0.1,0.1,0.3,0,0.3l-1.6,1.2c-0.1,0.1-0.2,0.1-0.3,0c-0.5-0.6-1.1-0.9-1.9-0.9 c-1.3,0-2.2,1.1-2.2,2.5v0c0,1.4,0.9,2.5,2.2,2.5c0.9,0,1.4-0.4,1.9-1c0.1-0.1,0.2-0.1,0.3,0l1.5,1.1c0.1,0.1,0.1,0.2,0.1,0.3 c-0.8,1.1-2,1.9-3.9,1.9C73.8,35,71.7,32.9,71.7,30.1"></path> <path style="clip-path:url(#SVGID_00000078762930515161321910000006243486173282108596_);fill:#3C3C3B;" d="M81.1,25.2h2.1 c0.1,0,0.2,0.1,0.2,0.2v3.2c0,0.1,0.1,0.2,0.2,0.2h2.8c0.1,0,0.2-0.1,0.2-0.2v-3.2c0-0.1,0.1-0.2,0.2-0.2H89c0.1,0,0.2,0.1,0.2,0.2 v9.3c0,0.1-0.1,0.2-0.2,0.2h-2.1c-0.1,0-0.2-0.1-0.2-0.2v-3.2c0-0.1-0.1-0.2-0.2-0.2h-2.8c-0.1,0-0.2,0.1-0.2,0.2v3.2 c0,0.1-0.1,0.2-0.2,0.2h-2.1c-0.1,0-0.2-0.1-0.2-0.2v-9.3C80.9,25.3,81,25.2,81.1,25.2"></path> <path style="clip-path:url(#SVGID_00000078762930515161321910000006243486173282108596_);fill:#3C3C3B;" d="M90.5,25.2h2.1 c0.1,0,0.2,0.1,0.2,0.2v9.3c0,0.1-0.1,0.2-0.2,0.2h-2.1c-0.1,0-0.2-0.1-0.2-0.2v-9.3C90.3,25.3,90.4,25.2,90.5,25.2"></path> <path style="clip-path:url(#SVGID_00000078762930515161321910000006243486173282108596_);fill:#3C3C3B;" d="M94.1,25.2h6.9 c0.1,0,0.2,0.1,0.2,0.2v1.8c0,0.1-0.1,0.2-0.2,0.2h-4.6V29h4.2c0.1,0,0.2,0.1,0.2,0.2v1.7c0,0.1-0.1,0.2-0.2,0.2h-4.2v1.6h4.7 c0.1,0,0.2,0.1,0.2,0.2v1.8c0,0.1-0.1,0.2-0.2,0.2h-7c-0.1,0-0.2-0.1-0.2-0.2v-9.3C93.9,25.3,94,25.2,94.1,25.2"></path> <path style="clip-path:url(#SVGID_00000078762930515161321910000006243486173282108596_);fill:#3C3C3B;" d="M102.2,25.2h2 c0.1,0,0.1,0,0.2,0.1l3.7,5.1v-4.9c0-0.1,0.1-0.2,0.2-0.2h2.1c0.1,0,0.2,0.1,0.2,0.2v9.3c0,0.1-0.1,0.2-0.2,0.2h-1.9 c-0.1,0-0.1,0-0.2-0.1l-3.9-5.3v5.1c0,0.1-0.1,0.2-0.2,0.2h-2.1c-0.1,0-0.2-0.1-0.2-0.2v-9.3C102,25.3,102.1,25.2,102.2,25.2"></path> <path style="clip-path:url(#SVGID_00000078762930515161321910000006243486173282108596_);fill:#3C3C3B;" d="M111.1,33.2l1.1-1.4 c0.1-0.1,0.2-0.1,0.3,0c0.9,0.7,1.8,1,2.8,1c0.7,0,1.1-0.2,1.1-0.6v0c0-0.4-0.3-0.6-1.6-0.9c-1.9-0.5-3.5-1-3.5-3v0 c0-1.8,1.3-3,3.5-3c1.5,0,2.6,0.4,3.6,1.1c0.1,0.1,0.1,0.2,0,0.3l-1,1.5c-0.1,0.1-0.2,0.1-0.3,0.1c-0.8-0.5-1.6-0.8-2.4-0.8 c-0.6,0-0.9,0.3-0.9,0.6v0c0,0.4,0.3,0.6,1.6,0.9c2.1,0.5,3.4,1.2,3.4,2.9v0c0,1.9-1.5,3.1-3.7,3.1c-1.5,0-3-0.5-4.1-1.4 C111.1,33.5,111,33.3,111.1,33.2"></path> <path style="clip-path:url(#SVGID_00000078762930515161321910000006243486173282108596_);fill:#3C3C3B;" d="M56.4,15.4h-2.1 c-0.1,0-0.2,0.1-0.2,0.2v4.9l-3.6-4.9c-0.1-0.2-0.3-0.3-0.5-0.3h-4.6l2,9.8H48v0h2.5v-5.4l3.8,5.2c0.1,0.1,0.2,0.1,0.3,0.1h1.8 c0.1,0,0.2-0.1,0.2-0.2v-9.3C56.6,15.5,56.5,15.4,56.4,15.4"></path> <path style="clip-path:url(#SVGID_00000078762930515161321910000006243486173282108596_);fill:#90C893;" d="M54.7,32.6h-4 c-0.1,0-0.2-0.1-0.2-0.2v-7.2l-3.1,0l2,9.8h5.3c0.1,0,0.2-0.1,0.2-0.2v-1.9C54.9,32.7,54.8,32.6,54.7,32.6"></path> </g> </svg>