<?xml version="1.0" encoding="utf-8"?>
<!-- Generator: Adobe Illustrator 27.1.1, SVG Export Plug-In . SVG Version: 6.00 Build 0)  -->
<svg version="1.1" id="Calque_1" xmlns="http://www.w3.org/2000/svg" xmlns:xlink="http://www.w3.org/1999/xlink" x="0px" y="0px"
	 viewBox="0 0 100 100" style="enable-background:new 0 0 100 100;" xml:space="preserve">
<style type="text/css">
	.st0{fill:#5E5EF7;}
	.st1{fill:#FFFFFF;}
</style>
<g id="speedometer" transform="translate(1107.959)">
	<path id="Tracé_4" class="st0" d="M-1047,69h-7.9V31c0-0.9-0.7-1.6-1.6-1.6l0,0h-15.8c-0.9,0-1.6,0.7-1.6,1.6v38h-7.9
		c-0.9,0-1.6,0.7-1.6,1.6c0,0.3,0.1,0.6,0.3,0.9l17.4,26.9c0.5,0.7,1.5,0.9,2.2,0.5c0.2-0.1,0.3-0.3,0.5-0.5l17.4-26.9
		c0.5-0.7,0.3-1.7-0.5-2.2C-1046.4,69.1-1046.7,69-1047,69z"/>
	<path id="Tracé_5" class="st0" d="M-1009.3,57l-17.4-26.9c-0.5-0.7-1.6-0.9-2.3-0.4c-0.1,0.1-0.3,0.2-0.4,0.4l-17.4,26.9
		c-0.5,0.7-0.3,1.7,0.5,2.2c0.3,0.2,0.6,0.3,0.9,0.3h7.9v37.9c0,0.9,0.7,1.6,1.6,1.6h15.8c0.9,0,1.6-0.7,1.6-1.6V59.5h7.9
		c0.9,0,1.6-0.7,1.6-1.6C-1009.1,57.6-1009.2,57.3-1009.3,57L-1009.3,57z"/>
	<path id="Tracé_6" class="st1" d="M-1073.9,1c-18.3,0-33.2,14.9-33.2,33.2s14.9,33.2,33.2,33.2s33.2-14.9,33.2-33.2
		S-1055.6,1-1073.9,1L-1073.9,1z M-1048.6,35.8h4.7c-0.2,3.8-1.1,7.6-2.7,11c-4.6-6.6-11.5-11.3-19.4-13.3c-0.2-2.5-1.5-4.7-3.6-6
		l6.7-14.8c0.4-0.8,0-1.7-0.7-2.1c-0.8-0.4-1.7,0-2.1,0.7c0,0,0,0,0,0.1l-6.8,15c-0.4-0.1-0.8-0.1-1.3-0.1c-4.1,0-7.5,3.2-7.8,7.3
		c-7.9,1.9-14.7,6.6-19.4,13.3c-1.6-3.5-2.5-7.2-2.7-11h4.7c0.9,0,1.6-0.7,1.6-1.6s-0.7-1.6-1.6-1.6l0,0h-4.7
		c0.4-6.9,3.1-13.4,7.7-18.5l3.3,3.3c0.6,0.6,1.6,0.6,2.2,0s0.6-1.6,0-2.2l0,0l-3.3-3.3c5.1-4.6,11.6-7.3,18.5-7.7V9
		c0,0.9,0.7,1.6,1.6,1.6s1.6-0.7,1.6-1.6l0,0V4.2c6.9,0.4,13.4,3.1,18.5,7.7l-3.3,3.3c-0.6,0.6-0.6,1.6,0,2.2s1.6,0.6,2.2,0l0,0
		l3.3-3.3c4.6,5.1,7.3,11.6,7.7,18.5h-4.7c-0.9,0-1.6,0.7-1.6,1.6C-1050.2,35.1-1049.5,35.8-1048.6,35.8L-1048.6,35.8L-1048.6,35.8z
		 M-1069.1,34.2c0,2.6-2.1,4.7-4.7,4.7s-4.7-2.1-4.7-4.7s2.1-4.7,4.7-4.7C-1071.3,29.5-1069.1,31.6-1069.1,34.2L-1069.1,34.2z
		 M-1073.9,64.2c-10.4,0-20-5.4-25.5-14.2c4.1-6.6,10.6-11.3,18.1-13.2c1.4,4.1,5.8,6.3,9.9,4.9c2.3-0.8,4.2-2.6,4.9-4.9
		c7.5,1.9,14,6.7,18,13.3C-1053.9,58.8-1063.5,64.2-1073.9,64.2L-1073.9,64.2z"/>
	<path id="Tracé_7" class="st1" d="M-1066,45.3h-15.8c-2.6,0-4.7,2.1-4.7,4.7l0,0v3.2c0,2.6,2.1,4.7,4.7,4.7l0,0h15.8
		c2.6,0,4.7-2.1,4.7-4.7l0,0V50C-1061.2,47.4-1063.4,45.3-1066,45.3L-1066,45.3z M-1064.4,53.2c0,0.9-0.7,1.6-1.6,1.6l0,0h-15.8
		c-0.9,0-1.6-0.7-1.6-1.6l0,0V50c0-0.9,0.7-1.6,1.6-1.6h15.8c0.9,0,1.6,0.7,1.6,1.6l0,0V53.2z"/>
</g>
</svg>
