<?xml version="1.0" encoding="utf-8"?>
<!-- Generator: Adobe Illustrator 27.1.1, SVG Export Plug-In . SVG Version: 6.00 Build 0)  -->
<svg version="1.1" id="Calque_1" xmlns="http://www.w3.org/2000/svg" xmlns:xlink="http://www.w3.org/1999/xlink" x="0px" y="0px"
	 viewBox="0 0 720 555" style="enable-background:new 0 0 720 555;" xml:space="preserve">
<style type="text/css">
	.st0{fill:#EDEDED;}
	.st1{fill:#5E5EF7;}
	.st2{fill:#FFFFFF;}
	.st3{fill:#575756;}
</style>
<path class="st0" d="M452.2,408.7c-46.1-46.1-214.4,166.6-353.9,52.8s44.5-247,125.3-263.5c0,0-4.6-148.7,146-137.7s129,168,129,168
	s170.8,28,174,161.1C675.3,505.1,536.2,492.7,452.2,408.7z"/>
<path class="st1" d="M371.4,143c0,0,34.9,12.4,65.1-10.5s17-81.4,17-81.4s-54.2,24.8-30.1,63.8c0,0-43.5-42.7-89.4-16.4
	C334,98.5,339,125.3,371.4,143z"/>
<path class="st2" d="M395.1,141.8c-1.2,0-2.3,0-3.5-0.1c-15.9-0.8-37.3-7.6-49.5-35.7l-0.7-1.5l1.3-1c1.1-0.9,26.8-20.9,69.8,8.5
	c1,0.7,1.2,2,0.6,3c-0.7,1-2,1.2-3,0.6c-35.3-24.1-57.6-13.2-63.2-9.6c9.1,19.8,24.2,30.4,44.8,31.5c16.1,0.8,29.6-4.7,29.8-4.7
	c1.1-0.5,2.4,0.1,2.8,1.2c0.5,1.1-0.1,2.4-1.2,2.8C422.5,136.9,410.4,141.8,395.1,141.8z"/>
<path class="st2" d="M423.8,108.7c-1.1,0-2-0.8-2.2-1.9c0-0.3-3.8-33.3,26.1-45.6l1.8-0.7l0.9,1.7c0.4,0.7,9.4,18.3-0.7,38
	c-0.6,1.1-1.9,1.5-2.9,0.9c-1.1-0.6-1.5-1.9-0.9-2.9c7.3-14.1,3.4-27.4,1.5-32.1c-24.7,11.6-21.7,39-21.5,40.2
	c0.1,1.2-0.7,2.3-1.9,2.4C423.9,108.7,423.9,108.7,423.8,108.7z"/>
<path d="M492.7,434.1c0,0-121.5-7-147.5-137.5S410,128.2,410,128.2l-1-18.9l46.8-2l6,21.9c0,0,186.3,52.8,106.6,274l-11,44.8
	l-69.7,5L492.7,434.1z"/>
<path class="st2" d="M521.3,442.4c-8.4,0-15.1-12.9-17.1-17.2c-12.9-1.3-115-14.8-144.1-119c-28.8-103,50.9-157.2,63.2-164.9
	c-2.7-8-2.5-13.4,0.4-16.4c2.8-2.9,7.1-2.3,9-1.9c2.3-1.1,8.7-3.8,12.7-2.8c4.2,1.1,14.2,13,17.8,17.3
	c7.6,3.3,94.2,42.6,112.4,127.9c14.3,67.1-2.6,107-11.7,128.4c-2.9,6.8-5.2,12.2-5.2,15.5c0,15.7-9.3,24.2-9.7,24.5l-0.6,0.5H535
	c-1.3,2.2-4.5,6.3-11.8,7.9C522.5,442.3,521.9,442.4,521.3,442.4z M429.7,126.9c-1,0-2.1,0.2-2.8,0.9c-0.8,0.9-2.4,3.9,1.1,13.6
	l0.6,1.7L427,144c-0.9,0.5-92.8,53.3-62.7,160.9c30.1,107.9,140.4,115.9,141.5,116l1.3,0.1l0.5,1.2c1.9,4.5,8.5,17,14.5,15.7
	c7.5-1.7,9.3-6.4,9.4-6.6l0.5-1.4h1.5h13c1.8-2,7.7-9.1,7.7-20.7c0-4.2,2.3-9.6,5.5-17.2c8.9-21,25.5-60.1,11.5-125.8
	c-18.5-86.5-109.4-124.6-110.3-125l-0.5-0.2l-0.4-0.4c-6-7.4-13.8-15.7-15.8-16.2c-2.2-0.6-7.4,1.3-10.5,2.8l-0.8,0.4l-0.9-0.3
	C432.2,127.3,431,126.9,429.7,126.9z"/>
<path class="st2" d="M516.7,275.9c-1.3,0-2.6-0.3-3.9-0.9c-10.2-4.9-11.3-29.2-11.4-31.9c0-1.2,0.9-2.2,2.1-2.2s2.2,0.9,2.3,2.1
	c0.3,9.4,3,25.3,9,28.1c2.1,1,4.6,0.3,7.8-2c1-0.7,2.3-0.5,3,0.4c0.7,1,0.5,2.3-0.4,3C522.1,274.8,519.3,275.9,516.7,275.9z"/>
<path class="st2" d="M473,273.5c-0.4,0-0.8-0.1-1.2-0.3c-1-0.6-1.3-2-0.7-3c0.9-1.4,8.5-13.4,17.2-12.9c3.8,0.2,6.9,2.8,9.2,7.7
	c0.5,1.1,0.1,2.4-1,2.9s-2.4,0.1-2.9-1c-1.6-3.3-3.4-5.1-5.5-5.2c-5-0.2-11.4,8-13.2,10.9C474.4,273.1,473.7,273.5,473,273.5z"/>
<path class="st2" d="M519.6,254c-0.4,0-0.8-0.1-1.2-0.4c-1-0.7-1.3-2-0.6-3c0.8-1.3,8.2-12.2,15.7-12.2c0.1,0,0.3,0,0.4,0
	c3.2,0.2,5.7,2.2,7.6,6c0.5,1.1,0.1,2.4-1,2.9s-2.4,0.1-2.9-1c-1.7-3.5-3.4-3.6-4-3.6c-0.1,0-0.1,0-0.2,0c-3.9,0-9.4,6.2-12.1,10.2
	C521,253.7,520.3,254,519.6,254z"/>
<path class="st1" d="M450.2,298.6c-1.8,0-4.1-0.8-7.4-2.6c-4-2.2-4.2-5.1-3.9-6.6c0.3-1.7,1.3-3.2,2.6-4.6c0.3-0.8,1-2,2.8-2.7
	c0.3-0.1,0.7-0.2,1.1-0.3c1.8-1.1,3.5-1.8,4.8-2c2.4-0.4,3.3,0.9,3.6,1.4c0.4,0.7,0.3,1.5,0,2.1c0.8,0.5,1.5,1.1,2.1,1.8
	c1.7,2,2,4.4,0.8,6.6c-0.4,0.7-0.7,1.4-1,2.1c-0.8,1.8-1.6,3.7-3.7,4.5C451.4,298.6,450.8,298.6,450.2,298.6z M443.2,290.4
	c0,0.4,0.3,0.9,1.3,1.6C444,291.5,443.6,291,443.2,290.4z M445.9,286.7c0.2,0.4,0.5,0.9,1,1.5c0.1-0.9,0.3-1.6,0.5-2.2
	c-0.2,0-0.3,0-0.5,0C446.6,286.2,446.2,286.5,445.9,286.7z"/>
<path class="st2" d="M477.3,299.9c-1.2,0-2.2-0.9-2.2-2.1s0.9-2.2,2.1-2.2c55.6-1.1,68.8-23.7,68.9-23.9c0.6-1,1.9-1.4,3-0.9
	c1.1,0.6,1.4,1.9,0.9,2.9C549.4,274.8,535.8,298.8,477.3,299.9L477.3,299.9z"/>
<path class="st1" d="M567,254.4c-1.8,0-4.1-0.8-7.4-2.6c-4-2.2-4.2-5.1-3.9-6.6c0.3-1.7,1.3-3.2,2.6-4.6c0.3-0.8,0.9-2,2.8-2.7
	c0.3-0.1,0.7-0.2,1.1-0.3c1.8-1.1,3.5-1.8,4.8-2c2.4-0.4,3.3,0.9,3.6,1.4c0.4,0.7,0.3,1.5,0,2.1c0.8,0.5,1.5,1.1,2.1,1.8
	c1.7,2,2,4.4,0.8,6.6c-0.4,0.7-0.7,1.4-1,2.1c-0.8,1.8-1.6,3.7-3.7,4.5C568.2,254.3,567.6,254.4,567,254.4z M560,246.2
	c0,0.4,0.3,0.9,1.3,1.6C560.8,247.3,560.3,246.7,560,246.2z M562.7,242.5c0.2,0.4,0.5,0.9,1,1.5c0.1-0.9,0.3-1.6,0.5-2.2
	c-0.2,0-0.3,0-0.5,0C563.4,242,563,242.3,562.7,242.5z"/>
<path class="st1" d="M496.1,525.6h-31.4l26-92.1c0.3-1.2,1.5-1.8,2.7-1.5s1.8,1.5,1.5,2.7l-24.4,86.5H492c-0.1-2.4-0.7-5.7-2.8-7.4
	c-1.9-1.5-5-1.6-9-0.2c-1.1,0.4-2.4-0.2-2.8-1.4c-0.4-1.1,0.2-2.4,1.4-2.8c5.6-1.9,10-1.5,13.2,1c5.2,4.2,4.4,12.9,4.4,13.2
	L496.1,525.6z"/>
<path class="st1" d="M544.7,524.7h-34l17.1-75.1c0.3-1.2,1.4-1.9,2.6-1.6c1.2,0.3,1.9,1.4,1.6,2.6l-15.9,69.8h24.4
	c-0.1-1.9-0.7-4.9-2.9-6.8c-2.6-2.2-6.8-2.5-12.6-0.9c-1.2,0.3-2.4-0.4-2.7-1.5s0.4-2.4,1.5-2.7c7.3-2,12.9-1.4,16.6,1.8
	c5.2,4.5,4.5,12.1,4.5,12.5L544.7,524.7z"/>
<path class="st3" d="M480.1,174.1c0,0,14.2,34.4,39.4,33.5c25.1-0.8-14.2-31.9-19.3-33.5C495.1,172.5,482.6,168.3,480.1,174.1z"/>
<path class="st3" d="M464.1,162.4c0,0-10.9-10.1,0-10.9c10.9-0.8,21,5.9,18.4,10.1C480.1,165.7,476.7,169.1,464.1,162.4z"/>
<g>
	<polygon points="189,230.8 255.1,301.1 217.4,334.2 152.2,266.2 	"/>
	<polygon class="st2" points="191.4,242.4 162.2,267.8 209.4,316 234.5,290 	"/>
	<circle class="st1" cx="230.4" cy="311.8" r="3.7"/>
</g>
<path class="st1" d="M433.8,520.8"/>
<path d="M154.3,408.4c4.1,3,76.2,72.7,76.2,72.7l87-75.1l-100.2-74.1L154.3,408.4z"/>
<polygon points="230.5,481 146.9,464.5 91.3,396 154.6,407.7 "/>
<g>
	<polygon class="st2" points="167.4,408.8 218.1,345.6 304.1,405.9 229.7,468.7 	"/>
	<path class="st1" d="M229.6,471.4L164.7,409l53-66.1l89.7,62.8L229.6,471.4z M170.1,408.6l59.7,57.4l71.1-60l-82.4-57.7
		L170.1,408.6z"/>
</g>
<polygon class="st1" points="138.9,170.3 190.7,173.5 182.8,230.5 168.7,231.6 174.6,254.8 154.8,232.2 140,232 "/>
<polygon class="st2" points="157.7,183.3 169.9,184.4 165.1,204.4 158.6,203.3 "/>
<ellipse transform="matrix(0.1552 -0.9879 0.9879 0.1552 -74.8953 340.9345)" class="st2" cx="161.9" cy="214.3" rx="4.5" ry="4.9"/>
<path class="st2" d="M513.1,312c-6.3,0-9.2-2.9-11-5.7c-0.1-0.2-0.2-0.3-0.3-0.4c-1-0.7-1.1-2-0.3-3c0.7-1,2.2-1.1,3.2-0.3
	c0.5,0.4,0.8,0.9,1.2,1.4c1.5,2.3,5.9,9.3,32.6-5.4c1.1-0.6,2.4-0.2,3,0.9s0.2,2.4-0.9,3C527.4,309.6,518.9,312,513.1,312z"/>
<polygon class="st1" points="143.7,513.8 289.7,515.2 318.6,457.4 123.1,447.7 "/>
<polygon points="289.7,515.2 338.3,429.8 324.5,428.5 281.4,516.6 "/>
<polygon points="302.7,424.7 346.5,429.1 343,437 301.2,431.1 "/>
<polygon points="362.7,430.9 359.8,438.3 365.2,438.3 367.6,431.4 "/>
<circle cx="150.2" cy="519.4" r="18.4"/>
<circle class="st2" cx="150.2" cy="519.4" r="9.9"/>
<circle cx="272.3" cy="519.4" r="18.4"/>
<circle class="st2" cx="272.3" cy="519.4" r="9.9"/>
<path class="st1" d="M350.6,444.8c-0.3,0-0.6-0.1-0.9-0.2c-1.1-0.5-1.6-1.8-1.1-2.9c7.9-17.6,6.2-18.9-1-24.3
	c-3.8-2.9-9.1-6.8-14.8-14.3c-17.7-23.4,24.4-56.9,26.2-58.3c0.9-0.7,2.3-0.6,3.1,0.4c0.7,0.9,0.6,2.3-0.4,3.1
	c-0.4,0.3-40.6,32.2-25.4,52.2c5.3,7,10.1,10.6,13.9,13.5c8.7,6.5,11.2,9.7,2.3,29.5C352.2,444.3,351.4,444.8,350.6,444.8z"/>
<path class="st1" d="M343.4,443.9c-0.3,0-0.5,0-0.8-0.1c-1.1-0.4-1.7-1.7-1.3-2.8l5.4-14.2c0.4-1.1,1.7-1.7,2.8-1.3
	c1.1,0.4,1.7,1.7,1.3,2.8l-5.4,14.2C345.2,443.3,344.3,443.9,343.4,443.9z"/>
<path class="st1" d="M357.8,445.7c-0.2,0-0.4,0-0.7-0.1c-1.1-0.4-1.8-1.6-1.4-2.7l4.9-15.8c0.4-1.1,1.6-1.8,2.7-1.4s1.8,1.6,1.4,2.7
	l-4.9,15.8C359.6,445.1,358.8,445.7,357.8,445.7z"/>
<path class="st1" d="M587.2,280.5c-0.7,0-1.3-0.3-1.8-0.9c-0.7-1-0.5-2.3,0.5-3c14.2-10.3,49.6-40.1,43.4-54.3
	c-3.6-8.2-23-15.1-95.4-1.1c-1.2,0.2-2.3-0.5-2.6-1.7s0.5-2.3,1.7-2.6c61.2-11.9,94-10.7,100.2,3.6c8.7,19.9-39.3,55.5-44.8,59.5
	C588.1,280.4,587.6,280.5,587.2,280.5z"/>
<path d="M47,466.3c-0.7,0-1.3-0.3-1.8-0.8c-33.5-38.7-44.7-81.7-33.4-127.6c13.2-53.8,54.8-95.3,87.4-120.6c1-0.8,2.5-0.6,3.3,0.4
	s0.6,2.5-0.4,3.3c-32,24.9-72.8,65.5-85.7,118c-10.9,44.4,0,85.9,32.4,123.4c0.9,1,0.7,2.5-0.2,3.4C48.1,466.2,47.5,466.3,47,466.3z
	"/>
<path d="M192,151.7c-0.2,0-0.4,0-0.6-0.1c-1.3-0.3-2.1-1.6-1.8-2.9c8.4-35.2,24.2-64.1,46.9-85.8c0.9-0.9,2.5-0.9,3.4,0.1
	c0.9,0.9,0.9,2.5-0.1,3.4c-22,21.1-37.3,49.2-45.5,83.5C194.1,150.9,193.1,151.7,192,151.7z"/>
<path d="M258.7,50.6c-0.8,0-1.5-0.4-2-1.1c-0.7-1.1-0.4-2.6,0.7-3.3c30.9-20.4,69.6-29.1,115.1-25.7c1.3,0.1,2.3,1.2,2.2,2.5
	c-0.1,1.3-1.3,2.3-2.5,2.2C327.7,22,290,30.4,260,50.2C259.6,50.5,259.2,50.6,258.7,50.6z"/>
<path d="M645,503.8c-0.9,0-1.8-0.5-2.2-1.4c-0.5-1.2,0-2.6,1.2-3.1c41.7-17.8,64.9-58.2,63.6-110.6c-1.1-46.8-19.3-87.7-53.9-121.7
	c-0.9-0.9-1-2.4,0-3.4c0.9-0.9,2.4-0.9,3.4,0c35.6,34.9,54.2,76.9,55.4,125c1.3,54.5-22.9,96.5-66.5,115.1
	C645.6,503.7,645.3,503.8,645,503.8z"/>
<path d="M65.4,491.1c-1.3,0-2.7-0.3-4-0.9c-2.3-1.1-4-2.9-4.9-5.3s-0.8-4.9,0.3-7.2c2.2-4.7,7.8-6.8,12.5-4.6c2.3,1.1,4,2.9,4.9,5.3
	s0.8,4.9-0.3,7.2c-1.1,2.3-2.9,4-5.3,4.9C67.6,490.9,66.5,491.1,65.4,491.1z M65.4,476.9c-1.8,0-3.5,1-4.3,2.7
	c-0.5,1.1-0.6,2.4-0.1,3.6s1.3,2.1,2.4,2.6s2.4,0.6,3.6,0.1c1.2-0.4,2.1-1.3,2.6-2.4s0.6-2.4,0.1-3.6c-0.4-1.2-1.3-2.1-2.4-2.6
	C66.7,477.1,66.1,476.9,65.4,476.9z"/>
<circle cx="87.1" cy="497.2" r="4.1"/>
<path d="M618.4,512.7c-0.7,0-1.4-0.1-2.1-0.2c-2.5-0.5-4.6-2-5.9-4.2c-1.3-2.1-1.8-4.7-1.2-7.1c0.6-2.5,2-4.6,4.2-5.9
	c2.1-1.3,4.7-1.8,7.1-1.2c2.5,0.6,4.6,2,5.9,4.2c1.3,2.1,1.8,4.7,1.2,7.1c-0.5,2.5-2,4.6-4.2,5.9
	C621.9,512.2,620.2,512.7,618.4,512.7z M618.4,498.6c-0.9,0-1.7,0.2-2.5,0.7c-1.1,0.7-1.8,1.7-2.1,2.9c-0.3,1.2-0.1,2.5,0.6,3.5
	c0.7,1.1,1.7,1.8,2.9,2.1c1.2,0.3,2.5,0.1,3.5-0.6c1.1-0.7,1.8-1.7,2.1-2.9c0.3-1.2,0.1-2.5-0.6-3.5c-0.7-1.1-1.7-1.8-2.9-2.1
	C619.1,498.6,618.7,498.6,618.4,498.6z"/>
<circle cx="591.5" cy="503.9" r="4.1"/>
<path class="st1" d="M656,145.3L656,145.3c0,9.7,7.9,17.6,17.6,17.6l0,0l0,0c-9.7,0-17.6,7.9-17.6,17.6l0,0l0,0
	c0-9.7-7.9-17.6-17.6-17.6l0,0l0,0C648.1,162.9,656,155,656,145.3L656,145.3z"/>
</svg>
