<?xml version="1.0" encoding="utf-8"?>
<!-- Generator: Adobe Illustrator 27.1.1, SVG Export Plug-In . SVG Version: 6.00 Build 0)  -->
<svg version="1.1" id="Calque_1" xmlns="http://www.w3.org/2000/svg" xmlns:xlink="http://www.w3.org/1999/xlink" x="0px" y="0px"
	 viewBox="0 0 720 486" style="enable-background:new 0 0 720 486;" xml:space="preserve">
<style type="text/css">
	.st0{fill:#EDEDED;}
	.st1{fill:#FFFFFF;stroke:#000000;stroke-width:1.8646;stroke-miterlimit:10;}
	.st2{fill:#FFFFFF;}
	.st3{fill:#5E5EF7;}
	.st4{fill:none;}
	.st5{fill:#575756;}
	.st6{fill:#151819;}
</style>
<g>
	<path class="st0" d="M438.1,371.5c-67.7-66.9-237.5,100.9-323,102.2S8.8,330.6,132.7,299.4c0,0-27.2-173.7,182.8-159.9
		c0,0,10.7-79.2,97.5-80.5s104.9,144.5,104.9,144.5s162.3,27.6,156.6,138.6C668.7,453.1,515.6,448.1,438.1,371.5z"/>
	<path d="M10.8,416.5c-1.1,0-2.1-0.8-2.2-2c-4.2-31.9,3.7-64.2,22.2-91.1c0.7-1,2.1-1.3,3.1-0.6c1,0.7,1.3,2.1,0.6,3.1
		C16.6,352,9,383.2,13.1,414c0.2,1.2-0.7,2.4-1.9,2.5C11,416.5,10.9,416.5,10.8,416.5z"/>
	<path d="M42.7,314.7c-0.6,0-1.1-0.2-1.6-0.6c-0.9-0.9-0.9-2.3-0.1-3.2c19-19.6,46.7-34.8,52.8-38.1c1.2-32.1,9.8-77.5,43.7-114.5
		c18-19.7,40.9-34.6,68-44.1c1.2-0.4,2.5,0.2,2.9,1.4c0.4,1.2-0.2,2.5-1.4,2.9c-26.4,9.3-48.7,23.8-66.2,42.9
		c-33.4,36.5-41.5,81.5-42.5,112.9v1.3l-1.2,0.6c-0.3,0.2-32.3,16.6-52.8,37.8C43.9,314.5,43.3,314.7,42.7,314.7z"/>
	<path d="M691.2,408.2c-0.4,0-0.8-0.1-1.2-0.4c-1.1-0.7-1.4-2.1-0.7-3.1c11.1-17.5,17.4-38,18.6-60.9c1.6-30.3-5.8-74.4-50-112.8
		c-12.4-10.8-27.2-20.7-44-29.5c-24.4-12.7-49-20.7-65.3-25.2c-1.2-0.3-1.9-1.6-1.6-2.8c0.3-1.2,1.6-1.9,2.8-1.6
		c16.5,4.5,41.5,12.6,66.2,25.6c17.1,8.9,32.2,19,44.9,30c45.5,39.6,53.1,85.2,51.5,116.4c-1.2,23.6-7.7,44.8-19.2,63
		C692.6,407.8,691.9,408.2,691.2,408.2z"/>
	<path d="M675.1,430.2c-0.9,0-1.8-0.1-2.7-0.4c-4.7-1.5-7.3-6.5-5.8-11.2c0.7-2.3,2.3-4.1,4.4-5.2c2.1-1.1,4.6-1.3,6.8-0.6
		c4.7,1.5,7.3,6.5,5.8,11.2c-0.7,2.3-2.3,4.1-4.4,5.2C678,429.9,676.6,430.2,675.1,430.2z M675.1,416.8c-0.7,0-1.4,0.2-2,0.5
		c-1.1,0.5-1.8,1.5-2.2,2.6c-0.7,2.3,0.6,4.8,2.9,5.6c1.1,0.4,2.3,0.3,3.4-0.3c1.1-0.5,1.8-1.5,2.2-2.6c0.7-2.3-0.6-4.8-2.9-5.6
		C676,416.9,675.6,416.8,675.1,416.8z"/>
	<circle cx="655.4" cy="432.4" r="3.9"/>
	<circle cx="15.8" cy="429" r="3.9"/>
</g>
<g>
	<path class="st1" d="M99.4,298.3"/>
	<polygon points="89.5,434.1 89.5,442 243.1,443.3 290.3,430.2 289.2,419.6 173.3,413.9 	"/>
	<polygon points="89.5,434.1 63,323.5 169,318.2 173.3,413.9 	"/>
	<g>
		<polygon class="st2" points="102.2,424.9 80.3,336.7 158.6,331.4 163.2,414.4 		"/>
		<path class="st3" d="M100.6,427.3l-23-92.6l83-5.6l4.8,87L100.6,427.3z M83,338.6l20.8,83.8l57.2-9.9l-4.4-78.9L83,338.6z"/>
	</g>
	<g>
		<line class="st4" x1="97.1" y1="355.8" x2="124.3" y2="352.7"/>
		<rect x="97" y="353.3" transform="matrix(0.9936 -0.1127 0.1127 0.9936 -39.2189 14.7317)" width="27.4" height="1.9"/>
	</g>
	<g>
		<line class="st4" x1="97.8" y1="362.1" x2="136.4" y2="357.2"/>
		<rect x="97.7" y="358.7" transform="matrix(0.9921 -0.1251 0.1251 0.9921 -44.0702 17.483)" width="38.9" height="1.9"/>
	</g>
	<g>
		<line class="st4" x1="99" y1="368.7" x2="118.9" y2="365.6"/>
		<rect x="98.9" y="366.2" transform="matrix(0.988 -0.1542 0.1542 0.988 -55.3125 21.1881)" width="20.1" height="1.9"/>
	</g>
	<g>
		<path d="M242.9,92.7c0,0-55.2,56.4-51.8,141.6S226.8,400,226.8,400h27.6c0,0,38-127.7,38-171.5C292.4,176.7,257.8,92.7,242.9,92.7
			z"/>
		<path class="st3" d="M216.1,367.2l-11.7-43.1c0,0-40.4,33.2-1.8,98.8L216.1,367.2z"/>
		<path class="st3" d="M263.2,367.2l11.7-43.1c0,0,40.4,33.2,1.8,98.8L263.2,367.2z"/>
		<g>
			<polygon class="st3" points="243,179.4 231.9,305.7 297.8,309.3 309.7,186 			"/>
			<polygon class="st2" points="250,193.4 300.7,195.7 291.2,284.1 244.2,277.6 			"/>
			<circle cx="266.2" cy="296.8" r="4.9"/>
		</g>
		<path class="st3" d="M188.7,230.8c-1,0-1.9-0.7-2-1.7c-0.2-1.1,0.5-2.2,1.7-2.4l54.5-10.1c1.1-0.2,2.2,0.5,2.4,1.7
			c0.2,1.1-0.5,2.2-1.7,2.4l-54.5,10.1C188.9,230.7,188.8,230.8,188.7,230.8z"/>
		<path class="st3" d="M240.2,260.6c-0.2,0-0.5,0-0.7-0.1l-51.6-19.3c-1.1-0.4-1.6-1.6-1.2-2.7c0.4-1.1,1.6-1.6,2.7-1.2l51.6,19.3
			c1.1,0.4,1.6,1.6,1.2,2.7C241.9,260.1,241.1,260.6,240.2,260.6z"/>
		<path class="st3" d="M190.6,262.1c-0.8,0-1.5-0.4-1.9-1.2c-0.5-1,0-2.3,1-2.8l48.2-22.7c1-0.5,2.3,0,2.8,1s0,2.3-1,2.8l-48.2,22.7
			C191.2,262,190.9,262.1,190.6,262.1z"/>
		<path class="st3" d="M237.4,275.1c-0.1,0-0.1,0-0.2,0l-46.3-4.8c-1.1-0.1-2-1.1-1.9-2.3c0.1-1.1,1.2-2,2.3-1.9l46.3,4.8
			c1.1,0.1,2,1.1,1.9,2.3C239.3,274.3,238.4,275.1,237.4,275.1z"/>
	</g>
	<path d="M246.4,443.3c-1,0-1.9-0.7-2.2-1.7c-0.3-1.2,0.4-2.4,1.7-2.8c2.4-0.6,41-10.2,76.9-16.3c0-0.2,0-0.4,0-0.5
		c-0.5-8.2,8.4-18.1,34.6-21c47.2-5.2,188.5,14.4,194.5,15.2c1.2,0.2,2.1,1.3,1.9,2.6c-0.2,1.2-1.3,2.1-2.6,1.9
		c-1.5-0.2-146.8-20.4-193.3-15.2c-21.6,2.4-30.9,9.9-30.5,16.2l0,0c15.3-2.5,29.7-4.2,40.2-4.2c17.2,0,27.8,4.1,27.8,10.6
		c0,2.6-1.7,6.2-9.8,9c-6.3,2.2-15.2,3.3-25.7,3.3c-20.2,0-31.7-6.4-35.6-13.5c-36.5,6.2-76.6,16.2-77.2,16.3
		C246.8,443.3,246.6,443.3,246.4,443.3z M329,426.1c4,5.3,14.5,9.8,30.8,9.8c12.7,0,20.2-1.7,24.3-3.1c4.6-1.6,6.7-3.5,6.7-4.7
		c0-2.1-6.8-6.1-23.3-6.1C357.5,422,343.7,423.7,329,426.1z"/>
</g>
<g>
	<path class="st3" d="M503.8,110.2c0,0-29.2,11-55-7.8s-15.6-68.3-15.6-68.3s46.1,20,26.4,53.3c0,0,35.9-36.7,75-15.2
		C534.6,72.2,530.9,94.8,503.8,110.2z"/>
	<path class="st2" d="M482.7,109.5c-12.4,0-22.2-3.7-22.4-3.8c-0.9-0.4-1.4-1.4-1-2.4c0.4-0.9,1.4-1.4,2.4-1
		c1.8,0.7,44.7,16.8,62.4-23.7c-4.8-2.9-23.8-11.7-53.1,9.1c-0.8,0.6-2,0.4-2.6-0.4s-0.4-2,0.4-2.6c35.7-25.4,57.7-9,58.6-8.3
		l1.1,0.9l-0.5,1.3C517.6,103.9,498.1,109.5,482.7,109.5z"/>
	<path class="st2" d="M459.2,82.2c-0.1,0-0.1,0-0.2,0c-1-0.1-1.7-1-1.6-2s2.3-24.1-18.8-33.5c-1.5,4-4.6,15.2,1.8,27
		c0.5,0.9,0.2,2-0.7,2.5c-0.9,0.5-2,0.2-2.5-0.7c-8.9-16.4-1.5-31.4-1.2-32l0.8-1.5l1.5,0.6c25.4,9.9,22.8,37.7,22.7,38
		C460.9,81.5,460.1,82.2,459.2,82.2z"/>
	<path d="M444,74.6L434.6,91c0,0-100.4,34.3-100.4,138.6s89.7,149.6,89.7,149.6l12,19.2h45.5l2.7-19.2c0,0,84.3-68.6,69.6-162
		c-13.9-88.1-77.6-123.5-77.6-123.5l-4-17.8L444,74.6z"/>
	<path class="st2" d="M440.8,394.2l-10.5-19.8c-7.4-4.3-85.2-51.2-88.4-134.4c-3.8-96.5,68-133.9,100.5-145.8l2.4-16.1l2,0.3
		c1.4,0.2,8.3,1.3,11,4c0.6-0.2,1.6-0.9,2.3-1.4c2.1-1.4,4.7-3.1,7.6-2.6c4.8,0.8,5.1,10.6,4.3,19.3c10.2,6.2,81.9,53.6,77.6,146.8
		c-3.7,79.6-68.5,128.7-77.6,135.2l1.4,12.8L440.8,394.2z M448.4,82.9l-2.2,14.5l-1.2,0.4C414,108.9,342.4,145,346.1,240
		c3.3,84.5,86,130.7,86.8,131.2l0.5,0.3l9.8,18.5l25.6-1.3l-1.2-10.9l1.1-0.7c0.7-0.5,72.9-49.6,76.8-132.7
		c4.5-97.1-75.8-143.2-76.6-143.7l-1.2-0.7l0.1-1.4c0.7-7.4,0.3-15.1-0.9-16.2c-1-0.1-2.8,1.1-4.4,2.1c-2.1,1.4-5.3,3.5-7.5,0.8
		C454.1,84.4,451.2,83.5,448.4,82.9z"/>
	<g>
		<path class="st2" d="M395.7,248c-1.7,0-3.6-0.4-5.7-1.1c-1.1-0.4-1.6-1.6-1.3-2.7c0.4-1.1,1.6-1.7,2.7-1.3
			c3.5,1.3,6.1,1.2,7.7-0.3c4.6-4.3,2.6-19.6,0.3-28.2c-0.3-1.1,0.4-2.3,1.5-2.6s2.3,0.4,2.6,1.5c0.7,2.5,6.5,25-1.5,32.4
			C400.3,247.2,398.2,248,395.7,248z"/>
		<path class="st2" d="M415.2,234.5c-0.1,0-0.2,0-0.3,0c-1.1-0.2-1.9-1.2-1.8-2.4c0.8-5.1,2.9-8.3,6.2-9.6c7.6-2.8,18.1,6,19.3,7
			c0.9,0.7,1,2.1,0.2,2.9c-0.8,0.9-2.1,1-2.9,0.2c-2.5-2.1-10.7-7.9-15.1-6.2c-1.9,0.7-3.1,2.8-3.6,6.3
			C417.1,233.7,416.2,234.5,415.2,234.5z"/>
		<path class="st2" d="M369.1,228.3c-0.1,0-0.2,0-0.3,0c-1.1-0.2-1.9-1.3-1.7-2.4c0.7-4.2,2.6-7,5.6-8.4c6.7-3,16.1,2.9,17.2,3.6
			c1,0.6,1.2,1.9,0.6,2.9s-1.9,1.2-2.9,0.6c-2.3-1.5-9.3-5-13.2-3.3c-1.7,0.7-2.7,2.5-3.2,5.2C371,227.6,370.1,228.3,369.1,228.3z"
			/>
		<path class="st3" d="M464.3,249.9c-0.1,0-0.1,0-0.2,0c-2.2-0.1-3.4-1.6-4.6-3.1c-0.4-0.5-0.9-1.1-1.5-1.6c-1.7-1.7-2.1-4-1.1-6.2
			c0.3-0.8,0.8-1.5,1.4-2.2c-0.5-0.5-0.8-1.2-0.6-1.9c0.1-0.6,0.6-2,2.9-2.3c1.2-0.2,3,0,4.9,0.5c0.4,0,0.7,0,1.1,0
			c1.8,0.1,2.8,1,3.3,1.7c1.6,0.9,3,2,3.7,3.5c0.7,1.3,1.3,4-1.7,7.1C468.6,248.5,466.4,249.9,464.3,249.9z M469.9,240.2
			c-0.2,0.6-0.5,1.2-0.7,1.8C469.9,241.1,470,240.6,469.9,240.2z M464.8,237.3c0.3,0.5,0.7,1.1,1.1,2c0.3-0.7,0.5-1.2,0.5-1.6
			c-0.4-0.2-0.9-0.3-1.3-0.4C465,237.2,464.9,237.2,464.8,237.3z"/>
		<path class="st3" d="M345.2,242.3c-0.1,0-0.1,0-0.2,0c-2.2-0.1-3.4-1.6-4.6-3.1c-0.4-0.5-0.9-1.1-1.5-1.7c-1.7-1.7-2.1-4-1.1-6.2
			c0.3-0.8,0.8-1.5,1.4-2.2c-0.5-0.5-0.8-1.2-0.6-1.9c0.1-0.6,0.6-2,2.9-2.3c1.2-0.2,3,0,4.9,0.4c0.4,0,0.7,0,1.1,0
			c1.8,0.1,2.8,1,3.3,1.7c1.6,0.9,3,2,3.7,3.5c0.7,1.3,1.3,4-1.7,7.1C349.4,241,347.2,242.3,345.2,242.3z M350.8,232.6
			c-0.2,0.6-0.5,1.2-0.7,1.8C350.8,233.5,350.8,233,350.8,232.6z M345.6,229.7c0.3,0.5,0.7,1.1,1.1,2c0.3-0.7,0.5-1.2,0.5-1.6
			c-0.4-0.2-0.9-0.3-1.3-0.4C345.8,229.6,345.7,229.6,345.6,229.7z"/>
		<path class="st2" d="M417.1,276.8c-20.1,0-42.5-7.4-43.8-7.8c-1.1-0.4-1.7-1.5-1.3-2.6c0.4-1.1,1.5-1.7,2.6-1.3
			c0.4,0.1,44,14.5,62.3,3.4c1-0.6,2.3-0.3,2.9,0.7s0.3,2.3-0.7,2.9C433.3,275.6,425.4,276.8,417.1,276.8z"/>
		<path class="st2" d="M414.3,288.5c-9.9,0-23.7-3.1-27.2-3.9c-1.1-0.3-1.8-1.4-1.6-2.5c0.3-1.1,1.4-1.8,2.5-1.6
			c10.4,2.4,28.6,5.3,32.8,2.8c1-0.6,2.3-0.3,2.9,0.7s0.3,2.3-0.7,2.9C421.1,288.1,417.9,288.5,414.3,288.5z"/>
	</g>
	<path class="st5" d="M484.7,144.8c0,0,6.2,35,29.8,39.5c23.6,4.4-6.7-32.7-11-35.3C499.1,146.3,488.2,139.8,484.7,144.8z"/>
	<path class="st5" d="M472.3,130.5c0,0-8.1-11.7,2.3-10.2c10.3,1.5,18.3,9.8,15.1,13.2C486.4,136.9,482.6,139.4,472.3,130.5z"/>
	<polygon points="552,381.3 630.2,381.3 630.8,439.4 618.1,451 541.9,453.4 539.3,391.4 	"/>
	<polygon class="st6" points="618.1,451 618.5,393.6 630.2,381.3 630.8,439.4 	"/>
	<g>
		<path class="st2" d="M579.8,346.4v47.2H593v-50C593.1,343.5,578.4,347.8,579.8,346.4z"/>
		<path d="M594.1,394.6h-15.2V347l-0.3-0.6l0.6-0.7l1.7-1.7v1.6c2-0.3,7.3-1.7,11.9-3l1.3-0.4V394.6z M580.8,392.6H592v-47.7
			c-6.4,1.8-9.6,2.6-11.2,2.7V392.6z"/>
	</g>
	<g>
		<polygon class="st2" points="544.7,339.7 547,350.1 625.8,348.2 624.7,335 		"/>
		<path d="M546.2,351.1l-2.7-12.3l82.1-4.8l1.3,15.2h-1.1L546.2,351.1z M545.9,340.7l1.9,8.4l76.9-1.8l-1-11.2L545.9,340.7z"/>
	</g>
	<path class="st3" d="M562.9,352.2c-0.2,0-0.3,0-0.5-0.1c-1.1-0.3-1.8-1.4-1.5-2.5c1.2-4.6,0.3-8.6-2.8-12.3
		c-27.3-32.6-202.7-20.2-204.5-20.1c-1.1,0.1-2.1-0.8-2.2-1.9s0.8-2.1,1.9-2.2c7.3-0.5,179.3-12.7,208,21.6c3.9,4.7,5.1,10.1,3.6,16
		C564.6,351.6,563.8,352.2,562.9,352.2z"/>
	<path class="st3" d="M609.5,349.6C609.5,349.6,609.4,349.6,609.5,349.6c-1.2,0-2.1-1-2.1-2.2c1.1-31.7-66.3-40.9-66.9-41
		c-1.1-0.1-1.9-1.2-1.8-2.3c0.1-1.1,1.2-1.9,2.3-1.8c2.9,0.4,71.8,9.8,70.6,45.3C611.5,348.7,610.6,349.6,609.5,349.6z"/>
	<path class="st3" d="M569.2,352.1c-0.2,0-0.4,0-0.6-0.1c-1.1-0.3-1.7-1.5-1.4-2.6c1.8-5.8-3.2-12.2-3.3-12.3
		c-0.7-0.9-0.6-2.2,0.4-2.9c0.9-0.7,2.2-0.6,2.9,0.3c0.3,0.3,6.4,8.2,4,16.1C570.9,351.6,570.1,352.1,569.2,352.1z"/>
	<path class="st3" d="M615,351.6c-0.2,0-0.3,0-0.5-0.1c-1.1-0.3-1.8-1.4-1.5-2.5c2-8.4-2.7-14.9-2.7-15c-0.7-0.9-0.5-2.2,0.4-2.9
		c0.9-0.7,2.2-0.5,2.9,0.4c0.2,0.3,5.9,8.2,3.4,18.4C616.8,350.9,615.9,351.6,615,351.6z"/>
	<path class="st3" d="M556.5,352.7c-0.2,0-0.5,0-0.7-0.1c-1.1-0.4-1.7-1.6-1.3-2.6c2-5.9-4.7-11.9-4.8-12c-0.9-0.8-0.9-2.1-0.2-2.9
		c0.8-0.9,2.1-0.9,2.9-0.2c0.4,0.3,8.9,7.9,6,16.4C558.2,352.2,557.4,352.7,556.5,352.7z"/>
	<path class="st3" d="M603.2,350.8C603.1,350.8,603.1,350.8,603.2,350.8c-1.2,0-2.1-1-2.1-2.2c0.3-8.5-3.7-13.1-3.9-13.3
		c-0.8-0.8-0.7-2.2,0.1-2.9c0.8-0.8,2.1-0.7,2.9,0.1c0.2,0.2,5.4,5.9,5,16.3C605.2,349.9,604.3,350.8,603.2,350.8z"/>
	<path class="st3" d="M461.9,446.6h-42.1l0.7-2.6c0.1-0.4,2.8-10.4,10.5-13.4c4.4-1.7,9.3-0.9,14.6,2.5c1,0.6,1.3,1.9,0.6,2.9
		c-0.6,1-1.9,1.3-2.9,0.6c-4.2-2.6-7.8-3.4-10.9-2.2c-3.5,1.4-5.8,5.1-7,8H455l-32.9-62.2c-0.5-1-0.1-2.3,0.9-2.8s2.3-0.2,2.8,0.9
		L461.9,446.6z"/>
	<path class="st3" d="M518.9,446.6h-40.6l3.9-67.5c0.1-1.1,1-2.1,2.2-2c1.1,0.1,2,1.1,2,2.2l-3.6,63.1h29.3
		c-2.1-3.2-5.9-8.1-10.7-9.1c-3-0.6-5.9,0.4-8.9,3.1c-0.9,0.8-2.2,0.7-2.9-0.2c-0.8-0.9-0.7-2.2,0.2-2.9c4-3.5,8.2-4.9,12.5-4
		c9.3,1.9,15.1,13.8,15.3,14.3L518.9,446.6z"/>
</g>
<g>
	<path class="st3" d="M295.3,63.6L295.3,63.6c0,9.3,7.6,16.9,16.9,16.9l0,0l0,0c-9.3,0-16.9,7.6-16.9,16.9l0,0l0,0
		c0-9.3-7.6-16.9-16.9-16.9l0,0l0,0C287.8,80.5,295.3,72.9,295.3,63.6L295.3,63.6z"/>
	<path class="st3" d="M358.3,10.7L358.3,10.7c0,9.3,7.6,16.9,16.9,16.9l0,0l0,0c-9.3,0-16.9,7.6-16.9,16.9l0,0l0,0
		c0-9.3-7.6-16.9-16.9-16.9l0,0l0,0C350.7,27.6,358.3,20,358.3,10.7L358.3,10.7z"/>
	<path class="st3" d="M235.4,28.2L235.4,28.2c0,5.9,4.8,10.7,10.7,10.7l0,0l0,0c-5.9,0-10.7,4.8-10.7,10.7l0,0l0,0
		c0-5.9-4.8-10.7-10.7-10.7l0,0l0,0C230.5,39,235.4,34.2,235.4,28.2L235.4,28.2z"/>
</g>
</svg>
