<?xml version="1.0" encoding="utf-8"?>
<!-- Generator: Adobe Illustrator 27.1.1, SVG Export Plug-In . SVG Version: 6.00 Build 0)  -->
<svg version="1.1" id="Calque_1" xmlns="http://www.w3.org/2000/svg" xmlns:xlink="http://www.w3.org/1999/xlink" x="0px" y="0px"
	 viewBox="0 0 720 496" style="enable-background:new 0 0 720 496;" xml:space="preserve">
<style type="text/css">
	.st0{fill:#EDEDED;}
	.st1{fill:#5E5EF7;}
	.st2{fill:#FFFFFF;}
	.st3{fill:#575756;}
	.st4{fill:none;}
	.st5{fill:#5DE5B4;}
</style>
<g>
	<path class="st0" d="M285.2,430.3c-63.1-18.6-187.4,102.5-228-23S142,257.1,142,257.1s-88.4-99,40.7-187.4s266.9,139.6,266.9,139.6
		s137.9-81.3,199.7,19.4S681.1,546.9,285.2,430.3z"/>
	<path d="M676,425.5c-0.5,0-1-0.2-1.4-0.5c-1-0.8-1.2-2.2-0.4-3.2c50.9-66.4,37.7-155.8,4-210.7c-0.7-1.1-0.3-2.5,0.8-3.1
		c1.1-0.7,2.5-0.3,3.1,0.8c34.5,56.2,47.9,147.7-4.3,215.9C677.3,425.2,676.6,425.5,676,425.5z"/>
	<path d="M22.8,420.7c-1,0-1.9-0.6-2.2-1.6c-8.8-27-11.8-52.5-9.1-75.8c0.1-1.3,1.3-2.1,2.5-2c1.3,0.1,2.2,1.3,2,2.5
		c-2.6,22.7,0.3,47.5,8.9,73.9c0.4,1.2-0.3,2.5-1.5,2.9C23.3,420.7,23.1,420.7,22.8,420.7z"/>
	<path d="M30.8,295.2c-0.4,0-0.8-0.1-1.2-0.3c-1.1-0.6-1.5-2-0.8-3.1c13-22.1,32.3-40.3,57.3-54c-10.3-24.9-14-50.3-10.9-75.5
		c4-33.3,19.7-64.1,46.6-91.6c0.9-0.9,2.3-0.9,3.2,0c0.9,0.9,0.9,2.3,0,3.2c-26.1,26.7-41.4,56.6-45.3,88.9
		c-3,25.1,0.8,50.3,11.4,75.1l0.8,1.9l-1.9,1c-25.1,13.4-44.4,31.4-57.3,53.3C32.3,294.8,31.5,295.2,30.8,295.2z"/>
	<path d="M461.9,165.2c-0.7,0-1.4-0.3-1.9-1c-12.2-17-25.2-33.2-38.5-48.2c-48.3-54.1-96.8-86.8-144.2-97
		c-40.6-8.8-78.8-1.1-113.8,22.8c-1.1,0.7-2.5,0.4-3.2-0.6s-0.5-2.5,0.6-3.2c36-24.7,75.5-32.6,117.3-23.5
		C326.6,25,376,58.1,424.9,113c13.5,15.1,26.5,31.4,38.8,48.6c0.7,1,0.5,2.5-0.5,3.2C462.8,165.1,462.3,165.2,461.9,165.2z"/>
	<path class="st1" d="M142.2,38.4L142.2,38.4c0,9.4,7.6,17,17,17l0,0l0,0c-9.4,0-17,7.6-17,17l0,0l0,0c0-9.4-7.6-17-17-17l0,0l0,0
		C134.6,55.3,142.2,47.7,142.2,38.4L142.2,38.4z"/>
	<path d="M35,449.7c-0.6,0-1.3-0.1-1.9-0.2c-4.9-1.1-8-5.9-6.9-10.8c0.5-2.4,1.9-4.4,4-5.7c2-1.3,4.5-1.7,6.8-1.2
		c2.4,0.5,4.4,1.9,5.7,4s1.7,4.5,1.2,6.8C42.9,446.8,39.2,449.7,35,449.7z M35,436.1c-0.9,0-1.7,0.2-2.4,0.7c-1,0.7-1.7,1.7-2,2.8
		c-0.5,2.4,1,4.8,3.4,5.4c1.2,0.3,2.4,0,3.4-0.6c1-0.7,1.7-1.7,2-2.8l0,0c0.3-1.2,0-2.4-0.6-3.4c-0.7-1-1.7-1.7-2.8-2
		C35.6,436.1,35.3,436.1,35,436.1z"/>
	<circle cx="53.8" cy="458.4" r="3.9"/>
</g>
<g>
	<path class="st1" d="M220,99.4c0,0,24,26.4,60,20.7s51.5-61.3,51.5-61.3s-57.3-3.7-54.6,40.4c0,0-17.4-56-68.4-54.6
		C208.5,44.7,200.5,69.6,220,99.4z"/>
	<path class="st2" d="M266.6,117.5c-0.6-0.1-15-1.6-29-10.1c-13.1-7.9-28.2-23.5-25.7-52.8L212,53l1.6-0.3c1.3-0.2,32.2-5.5,55.3,39
		l-3.7,1.9c-18.9-36.5-42.9-37.5-49.2-37c-1.3,20.9,6.7,36.8,23.7,47.1c13.2,8,27.3,9.6,27.4,9.6L266.6,117.5z"/>
	<path class="st2" d="M305.9,98.8l-2.4-3.5c12.6-8.7,15.3-21.7,15.9-26.5c-26.5-1.5-36.4,24-36.5,24.3l-3.9-1.5
		c0.1-0.3,11.9-29.9,42.9-26.8l1.9,0.2v1.9C323.8,67.7,323.5,86.7,305.9,98.8z"/>
	<path d="M252.6,95.6L292,89l7.2,17.3c0,0,82.6,23.9,106.3,125.6s-86.7,188.8-86.7,188.8l-38.4,3.7l-8.7-18.6
		c0,0-85.4-36.6-91.3-145.7c-5.3-98.1,70.4-139.4,70.4-139.4L252.6,95.6z"/>
	<path class="st2" d="M311.7,417.3h-25.4l-5.4-16.3c-9.4-3-75.4-27.6-89.4-120.3c-8.4-55.8,10.3-95.3,27.6-118.6
		c16.7-22.5,34.7-34.4,39-37.1l1.8-16.9c0.3-2.4,1.6-4.5,3.6-5.8c2.1-1.3,4.6-1.5,6.8-0.7l6.5,2.4l3.2-2.7c1.8-1.5,4.1-2.2,6.4-1.9
		c2.3,0.3,4.4,1.5,5.8,3.4l12.9,17.9c43.6,16.5,95,55.6,93.6,147.6C397.4,347,327,395.1,320,399.6L311.7,417.3z M289.4,413.2H309
		l7.7-16.6l0.5-0.3c0.8-0.5,75.9-48.1,77.2-128.2c1.5-90-48.9-127.9-91.4-143.8l-0.6-0.2l-13.6-18.9c-0.7-0.9-1.7-1.5-2.9-1.7
		c-1.1-0.1-2.3,0.2-3.2,1l-5.1,4.3l-8.8-3.2c-1.1-0.4-2.2-0.3-3.2,0.3c-1,0.6-1.6,1.6-1.7,2.7l-2,19l-0.9,0.5
		c-0.8,0.5-81.1,48.1-65.4,152c7.6,50.5,31,79.7,49.2,95.3c19.8,16.9,38,21.9,38.2,22l1.1,0.3L289.4,413.2z"/>
	<g>
		<path class="st1" d="M281.3,282.4c-1.8,0-4-0.8-7.1-2.5c-3.9-2.1-4-4.9-3.8-6.4c0.3-1.6,1.2-3.1,2.5-4.4c0.3-0.8,0.9-1.9,2.7-2.6
			c0.3-0.1,0.7-0.2,1-0.3c1.7-1,3.4-1.7,4.6-1.9c2.3-0.4,3.2,0.8,3.5,1.4c0.4,0.7,0.3,1.4,0,2.1c0.8,0.5,1.5,1.1,2,1.7
			c1.7,1.9,1.9,4.2,0.8,6.3c-0.4,0.7-0.7,1.4-0.9,2c-0.7,1.8-1.5,3.6-3.6,4.3C282.4,282.3,281.9,282.4,281.3,282.4z M274.5,274.5
			c0,0.4,0.2,0.9,1.3,1.5C275.3,275.5,274.9,275,274.5,274.5z M277.1,270.9c0.2,0.3,0.5,0.8,1,1.4c0.1-0.8,0.3-1.5,0.4-2.1
			c-0.2,0-0.3,0-0.5,0C277.8,270.4,277.4,270.6,277.1,270.9z"/>
		<path class="st1" d="M393.7,239.8c-1.8,0-4-0.8-7.1-2.5c-3.9-2.1-4-4.9-3.8-6.4c0.3-1.6,1.2-3.1,2.5-4.4c0.3-0.8,0.9-1.9,2.6-2.6
			c0.3-0.1,0.7-0.2,1-0.3c1.7-1,3.4-1.7,4.6-1.9c2.3-0.4,3.2,0.8,3.5,1.4c0.4,0.7,0.3,1.4,0,2.1c0.8,0.5,1.5,1.1,2,1.7
			c1.7,1.9,1.9,4.2,0.8,6.3c-0.4,0.7-0.7,1.4-0.9,2c-0.7,1.8-1.5,3.6-3.6,4.3C394.8,239.7,394.3,239.8,393.7,239.8z M386.9,231.9
			c0,0.4,0.2,0.9,1.2,1.5C387.7,232.9,387.3,232.4,386.9,231.9z M389.5,228.3c0.2,0.3,0.5,0.8,1,1.4c0.1-0.8,0.3-1.5,0.4-2.1
			c-0.1,0-0.3,0-0.5,0C390.2,227.9,389.9,228.1,389.5,228.3z"/>
		<g>
			<path class="st2" d="M345.3,260.4c-1.3,0-2.5-0.3-3.7-0.9c-9.9-4.7-10.9-28.1-11-30.7c0-1.2,0.9-2.1,2-2.2c1.2-0.2,2.1,0.9,2.2,2
				c0.3,9,2.9,24.4,8.6,27.1c2,1,4.5,0.3,7.5-1.9c0.9-0.7,2.2-0.5,2.9,0.4c0.7,0.9,0.5,2.2-0.4,2.9
				C350.5,259.4,347.8,260.4,345.3,260.4z"/>
			<path class="st2" d="M300.7,255.7c-0.5,0-1-0.2-1.3-0.5c-0.9-0.7-1-2.1-0.3-3c1-1.2,9.7-11.3,17.7-10.5c2.1,0.2,5.1,1.3,7.3,5.4
				c0.6,1,0.2,2.3-0.8,2.8c-1,0.6-2.3,0.2-2.8-0.8c-1.1-2-2.4-3.1-4.1-3.2c-5-0.6-11.9,6.3-14.1,9
				C301.9,255.5,301.3,255.7,300.7,255.7z"/>
			<path class="st2" d="M347.7,236.5c-0.6,0-1.1-0.2-1.5-0.7c-0.8-0.8-0.7-2.2,0.1-3c0.9-0.9,9.3-8.4,16.5-7.4
				c2.7,0.4,4.9,2,6.4,4.6c0.6,1,0.2,2.3-0.8,2.9c-1,0.6-2.3,0.2-2.9-0.8c-0.9-1.5-2-2.3-3.4-2.6c-4.4-0.7-10.9,4.3-13,6.3
				C348.7,236.3,348.2,236.5,347.7,236.5z"/>
			<path class="st2" d="M293.2,252.4c-0.1,0-0.3,0-0.4,0c-1.1-0.2-1.9-1.3-1.6-2.5c0.4-2.1,2.1-8.9,6-10.2c1.1-0.4,2.3,0.2,2.6,1.3
				c0.4,1.1-0.2,2.3-1.3,2.6c-1,0.3-2.5,3.8-3.2,7.1C295.1,251.7,294.2,252.4,293.2,252.4z"/>
			<path class="st2" d="M369.6,226.4c-0.5,0-1.1-0.2-1.5-0.6c-1.7-1.7-4.9-4.2-6.5-4.5c-1.1-0.2-1.9-1.3-1.7-2.4
				c0.2-1.1,1.3-1.9,2.4-1.7c3.5,0.6,7.9,4.8,8.8,5.7c0.8,0.8,0.8,2.1,0,3C370.7,226.2,370.2,226.4,369.6,226.4z"/>
		</g>
		<path class="st2" d="M340.1,304.7c-2.9,0-5.6-0.5-8.1-1.6c-12.4-5.2-14.7-21.4-14.8-22c-0.2-1.1,0.7-2.2,1.8-2.4
			c1.2-0.1,2.2,0.6,2.4,1.8c0,0.1,2.1,14.4,12.3,18.7c8.1,3.4,19.3-0.1,33.3-10.5c0.9-0.7,2.2-0.5,2.9,0.4c0.7,0.9,0.5,2.2-0.4,2.9
			C358.1,300.5,348.3,304.7,340.1,304.7z"/>
		<path class="st2" d="M319,281.7c-7.1,0-11.5-0.9-12-1c-1.1-0.2-1.9-1.3-1.6-2.5c0.2-1.1,1.3-1.8,2.5-1.6
			c0.3,0.1,32.7,6.4,67.5-17.7c0.9-0.7,2.3-0.4,2.9,0.5c0.7,1,0.4,2.3-0.5,2.9C354.3,278.7,332.1,281.7,319,281.7z"/>
	</g>
	<path class="st1" d="M300.3,476.2h-39l0.3-2.4c0.1-0.4,1.5-10.8,8.6-14.3c4.1-2,8.9-1.4,14.5,1.9c1,0.6,1.3,1.9,0.8,2.9
		c-0.6,1-1.9,1.3-2.9,0.8c-4.3-2.5-7.8-3.1-10.6-1.7c-3.2,1.6-5,5.8-5.8,8.7h28l-24.4-64.5c-0.4-1.1,0.1-2.3,1.2-2.7
		c1.1-0.4,2.3,0.1,2.7,1.2L300.3,476.2z"/>
	<path class="st1" d="M341.1,476.2h-37.7l26.4-78.2c0.4-1.1,1.6-1.7,2.7-1.3c1.1,0.4,1.7,1.6,1.3,2.7L309.2,472h27.5
		c-0.4-2.3-1.4-6-4.2-7.9c-2.7-1.9-6.7-1.8-11.9,0.2c-1.1,0.4-2.3-0.1-2.7-1.2c-0.4-1.1,0.1-2.3,1.2-2.7c6.5-2.5,11.8-2.4,15.7,0.3
		c6.1,4.2,6.2,13.1,6.2,13.5L341.1,476.2L341.1,476.2z"/>
	<g>
		<path class="st1" d="M404.8,315.7c-1,0-1.7,0-1.9,0c-1.2,0-2.1-1-2.1-2.2s1-2.2,2.2-2.1c0.6,0.1,59.3,1,76.7-24.1
			c0.7-1,2-1.2,3-0.5s1.2,2,0.5,3C466.1,314.3,415.5,315.7,404.8,315.7z"/>
		<polygon points="437,247.3 443.8,278.4 462.7,279.7 451.9,235.1 		"/>
		<polygon points="460,231 470.8,277 464.1,313.6 481.7,316.3 491.1,277 520.9,267.6 503.3,209.4 		"/>
		<polygon points="511.4,205.3 529,263.5 577.7,279.7 545.2,163.4 		"/>
		<path class="st1" d="M488.4,298.2L488.4,298.2l-12.1-0.2c-1.2,0-2.1-1-2.1-2.2s0.9-2.1,2.2-2.1l12,0.2c1.2,0,2.1,1,2.1,2.2
			C490.5,297.2,489.6,298.2,488.4,298.2z"/>
		<path class="st1" d="M490.9,292.5h-14.7c-1.2,0-2.1-1-2.1-2.1c0-1.2,1-2.1,2.1-2.1h14.7c1.2,0,2.1,1,2.1,2.1
			S492.1,292.5,490.9,292.5z"/>
		<path class="st1" d="M492.9,287.4L492.9,287.4l-16.1-0.2c-1.2,0-2.1-1-2.1-2.2s0.9-2.3,2.2-2.1l16.1,0.2c1.2,0,2.1,1,2.1,2.2
			C495,286.4,494.1,287.4,492.9,287.4z"/>
		<path class="st1" d="M584.9,215.5c-0.9,0-1.7-0.5-2-1.4c-0.4-1.1,0.2-2.3,1.3-2.7l54.1-19.7c1.1-0.4,2.3,0.2,2.7,1.3
			s-0.2,2.3-1.3,2.7l-54.1,19.7C585.4,215.4,585.2,215.5,584.9,215.5z"/>
		<path class="st1" d="M574.6,195.1c-0.5,0-1-0.2-1.3-0.5c-0.8-0.7-0.8-2-0.1-2.7l33.6-34.9c0.7-0.8,2-0.8,2.7-0.1
			c0.8,0.7,0.8,2,0.1,2.7L576,194.5C575.6,194.9,575.1,195.1,574.6,195.1z"/>
		<path class="st1" d="M635,246.7c-0.1,0-0.2,0-0.4,0l-48.7-8.1c-1.2-0.2-2-1.3-1.8-2.5s1.3-2,2.5-1.8l48.7,8.1
			c1.2,0.2,2,1.3,1.8,2.5C636.9,246,636,246.7,635,246.7z"/>
		<path class="st1" d="M560.8,176.2c-0.1,0-0.2,0-0.3,0c-1.2-0.2-2-1.3-1.8-2.4l2.8-19.5c0.2-1.2,1.3-2,2.4-1.8
			c1.2,0.2,2,1.3,1.8,2.4l-2.8,19.5C562.8,175.4,561.9,176.2,560.8,176.2z"/>
		<path class="st1" d="M604.4,269.8c-0.4,0-0.9-0.1-1.3-0.4l-20.4-14.8c-1-0.7-1.2-2-0.5-3s2-1.2,3-0.5l20.4,14.8c1,0.7,1.2,2,0.5,3
			C605.7,269.5,605.1,269.8,604.4,269.8z"/>
	</g>
	<path class="st3" d="M318.8,156.9c0,0,13.7,33.1,37.9,32.3c24.2-0.8-13.7-30.7-18.6-32.3S321.3,151.2,318.8,156.9z"/>
	<path class="st3" d="M303.5,145.6c0,0-10.5-9.7,0-10.5s20.2,5.6,17.8,9.7C318.8,148.8,315.6,152,303.5,145.6z"/>
	<g>
		<polygon points="139.1,287.7 128.6,267.1 7.5,308.6 17.5,334.9 		"/>
		<polygon class="st2" points="21.4,307.8 19.4,331.5 30,326.7 31.9,304.2 		"/>
		<polygon class="st2" points="43.5,321.6 44.7,300.1 57.6,295 54.3,317.1 		"/>
		<polygon class="st2" points="69.3,291.4 70,310.2 81.6,306.1 81.2,288.2 		"/>
		<polygon class="st2" points="93.5,283.5 94.6,300.4 106,296.5 105.7,279.5 		"/>
		<polygon class="st2" points="118.7,276.3 118.7,290.5 132.4,285.7 127.3,272.2 		"/>
	</g>
	<path class="st1" d="M175.5,410.9c-11.3,0-25.3-5.1-41.8-15.4c-1-0.6-1.3-1.9-0.7-2.9s1.9-1.3,2.9-0.7c23.7,14.8,41.5,18.5,53,11.1
		c20.3-13.1,14.7-57.3,14.6-57.8c-0.2-1.1,0.7-2.2,1.8-2.4c1.1-0.1,2.2,0.6,2.4,1.8c0.3,1.9,6,47.3-16.5,61.8
		C186.8,409.4,181.5,410.9,175.5,410.9z"/>
	<path class="st1" d="M148.9,396.6c-0.4,0-0.7-0.1-1-0.3l-9.5-5.5c-1-0.6-1.3-1.9-0.8-2.9c0.6-1,1.9-1.3,2.9-0.8l9.5,5.5
		c1,0.6,1.3,1.9,0.8,2.9C150.3,396.2,149.6,396.6,148.9,396.6z"/>
	<path class="st1" d="M139,405.1c-0.4,0-0.7-0.1-1.1-0.3l-8.9-5.1c-1-0.6-1.3-1.9-0.8-2.9c0.6-1,1.9-1.3,2.9-0.8l8.9,5.1
		c1,0.6,1.3,1.9,0.8,2.9C140.4,404.7,139.7,405.1,139,405.1z"/>
	<polygon points="122.2,399.8 138.5,383 149.7,388.1 192,352.4 139.8,290.6 40.7,372.6 98.1,431.7 130.3,404.5 	"/>
</g>
<g>
	<g>
		<polygon points="459.2,369.3 573.2,372 552,459.5 434,454.2 		"/>
		<polygon points="406.8,460.3 557.9,465.6 555.3,478.8 384.2,478.8 		"/>
		<g>
			<line class="st4" x1="471.2" y1="385.2" x2="541.4" y2="389.2"/>
			<path class="st5" d="M541.4,391.2L541.4,391.2l-70.4-4c-1.1-0.1-1.9-1-1.9-2.1c0.1-1.1,1-1.9,2.1-1.9l70.3,4
				c1.1,0.1,1.9,1,1.9,2.1C543.3,390.4,542.5,391.2,541.4,391.2z"/>
		</g>
		<path class="st5" d="M548.3,401L548.3,401l-81.4-2.3c-1.1,0-1.9-0.9-1.9-2s0.8-2.1,2-1.9l81.4,2.3c1.1,0,1.9,0.9,1.9,2
			C550.3,400.1,549.4,401,548.3,401z"/>
		<path class="st2" d="M488,410L488,410l-23.4-0.8c-1.1,0-1.9-0.9-1.9-2s1-2,2-1.9l23.4,0.8c1.1,0,1.9,0.9,1.9,2S489.1,410,488,410z
			"/>
		<path class="st5" d="M511.4,419L511.4,419l-49.8-0.8c-1.1,0-2-0.9-1.9-2c0-1.1,0.9-1.9,2-1.9l0,0l49.7,0.8c1.1,0,2,0.9,1.9,2
			C513.3,418.2,512.5,419,511.4,419z"/>
		<path class="st5" d="M486.5,430.3L486.5,430.3l-29.4-0.8c-1.1,0-2-0.9-1.9-2c0-1.1,0.9-1.9,2-1.9l29.4,0.8c1.1,0,2,0.9,1.9,2
			C488.5,429.5,487.6,430.3,486.5,430.3z"/>
	</g>
	<g>
		<polygon points="584.9,349.4 573.8,476.6 640.1,480.2 652.1,356.1 		"/>
		<polygon class="st2" points="591.9,363.5 643,365.9 633.5,454.8 586.1,448.3 		"/>
		<circle class="st5" cx="608.2" cy="467.6" r="4.9"/>
	</g>
</g>
</svg>
