<?xml version="1.0" encoding="utf-8"?>
<!-- Generator: Adobe Illustrator 27.1.1, SVG Export Plug-In . SVG Version: 6.00 Build 0)  -->
<svg version="1.1" id="Calque_1" xmlns="http://www.w3.org/2000/svg" xmlns:xlink="http://www.w3.org/1999/xlink" x="0px" y="0px"
	 viewBox="0 0 100 100" style="enable-background:new 0 0 100 100;" xml:space="preserve">
<style type="text/css">
	.st0{fill:#5E5EF7;}
	.st1{fill:#FFFFFF;}
	.st2{fill:#575756;}
</style>
<g>
	<path class="st0" d="M68.5,13.8c0,0-6.5,6.3-15.6,4.3S40.8,1.7,40.8,1.7s14.6,0,13.2,11.2c0,0,5.3-14,18.3-12.8
		C72.4,0.1,74,6.6,68.5,13.8z"/>
	<path class="st1" d="M56.4,17.7v-1.1c0,0,3.6-0.2,7.1-2C68,12.3,70.3,8.4,70.3,3c-1.6-0.2-7.7-0.4-13.1,8.6L56.3,11
		C62.9,0,70.7,1.9,71,2l0.4,0.1v0.4c0.2,7.5-3.9,11.2-7.4,13C60.2,17.5,56.5,17.7,56.4,17.7z"/>
	<path class="st1" d="M46.7,12.3c-4.3-3.3-4.1-8.2-4-8.4V3.4h0.5c7.9-0.3,10.5,7.4,10.5,7.5l-1,0.3c-0.1-0.3-2.2-6.7-8.9-6.8
		c0.1,1.2,0.6,4.6,3.6,7L46.7,12.3z"/>
	<path d="M48.7,9.5l-2.2,4.6c0,0-23,8-25.9,33.3C17.4,75.7,44.4,93,44.4,93l4.7,2.3l7.7-5.1c0,0,21.2-12.2,21.3-38.2
		c0.2-26.1-19-36.2-19-36.2l-1.5-5.1L48.7,9.5z"/>
	<path class="st1" d="M50.8,91.8L50.8,91.8l-4.5-0.2c-0.8,0-1.6-0.4-2-1.1l-1.5-2.2c-1.7-1-19.3-11.3-19.5-37.6
		c-0.3-26.1,22-34.9,24.4-35.8l1-2.1c0.3-0.6,0.8-1,1.4-1.2c0.6-0.2,1.3-0.1,1.8,0.2l1.3,0.8l2.2,0.2c0.8,0.1,1.5,0.6,1.9,1.3
		l1.9,3.9c1.4,1.2,17.5,15.5,16.7,37.3C75.1,77,57.3,86.6,55.6,87.5l-0.8,1.2C54.1,89.8,52.1,91.8,50.8,91.8z M50.8,12.6
		c-0.1,0-0.2,0-0.4,0c-0.3,0.1-0.6,0.3-0.7,0.6l-1.2,2.5l-0.2,0.1c-0.2,0.1-24.2,8.1-23.9,34.9c0.3,26.8,18.8,36.6,19,36.7l0.1,0.1
		l1.7,2.5c0.3,0.4,0.7,0.6,1.2,0.6l4.5,0.2l0,0c0.6,0,2.3-1.4,3-2.5l0,0l1-1.5l0.1-0.1c0.2-0.1,19.1-9.3,19.8-31.3
		C75.6,33.3,58.6,19,58.4,18.8l-0.1-0.2l-1.9-4c-0.2-0.4-0.6-0.7-1-0.7l-2.5-0.3l-1.4-0.8C51.2,12.7,51,12.6,50.8,12.6z"/>
	<path class="st2" d="M61.7,27.4c2.1-1.3,7.2,8.3,8.1,12.3s-2.3,4.6-2.9,2.4c-0.6-2.1-6.2-11.8-6.1-12.6
		C60.8,28.8,60.7,28,61.7,27.4z"/>
	<path class="st2" d="M60.3,25.5c-0.4,1-5.2-1-5.5-4.4C54.6,17.7,61.2,23.4,60.3,25.5z"/>
	<g>
		<path class="st1" d="M47.6,57.7c-0.4,0-0.9-0.1-1.4-0.2c-0.3-0.1-0.4-0.4-0.4-0.7c0.1-0.3,0.4-0.4,0.7-0.4c0.9,0.3,1.6,0.2,2-0.2
			c1.2-1.1,0.5-5.1-0.2-7.3c-0.1-0.3,0.1-0.6,0.4-0.7c0.3-0.1,0.6,0.1,0.7,0.4c0.2,0.6,1.9,6.4-0.1,8.3
			C48.8,57.5,48.3,57.7,47.6,57.7z"/>
		<path class="st0" d="M65,55.1L65,55.1c-0.6,0-0.9-0.4-1.2-0.7c-0.1-0.1-0.2-0.3-0.4-0.4c-0.5-0.4-0.6-1-0.3-1.6
			c0.1-0.2,0.2-0.4,0.4-0.6c-0.1-0.1-0.2-0.3-0.2-0.5s0.1-0.5,0.7-0.6c0.3,0,0.8,0,1.3,0.1c0.1,0,0.2,0,0.3,0c0.5,0,0.7,0.2,0.9,0.4
			c0.4,0.2,0.8,0.5,1,0.9c0.2,0.3,0.4,1-0.4,1.8C66.1,54.7,65.5,55.1,65,55.1z M66.4,52.5c0,0.2-0.1,0.3-0.2,0.5
			C66.4,52.8,66.4,52.6,66.4,52.5z M65,51.8c0.1,0.1,0.2,0.3,0.3,0.5c0.1-0.2,0.1-0.3,0.1-0.4C65.3,51.9,65.2,51.8,65,51.8
			C65.1,51.8,65,51.8,65,51.8z"/>
		<path class="st0" d="M32.4,54.8L32.4,54.8c-0.6,0-0.9-0.4-1.2-0.7c-0.1-0.1-0.2-0.3-0.4-0.4c-0.5-0.4-0.6-1-0.3-1.6
			c0.1-0.2,0.2-0.4,0.4-0.6c-0.1-0.1-0.2-0.3-0.2-0.5s0.1-0.5,0.7-0.6c0.3,0,0.8,0,1.3,0.1c0.1,0,0.2,0,0.3,0c0.5,0,0.7,0.2,0.9,0.4
			c0.4,0.2,0.8,0.5,1,0.9c0.2,0.3,0.4,1-0.4,1.8C33.5,54.5,32.9,54.8,32.4,54.8z M33.8,52.3c0,0.2-0.1,0.3-0.2,0.5
			C33.8,52.5,33.8,52.4,33.8,52.3z M32.4,51.6c0.1,0.1,0.2,0.3,0.3,0.5c0.1-0.2,0.1-0.3,0.1-0.4C32.7,51.6,32.6,51.6,32.4,51.6
			C32.5,51.6,32.4,51.6,32.4,51.6z"/>
		<path class="st1" d="M51.3,62.3c-5.4,0-11.6-1-12.7-1.2c-0.3,0-0.5-0.3-0.4-0.6c0-0.3,0.3-0.5,0.6-0.4c7.3,1.3,19.2,2.2,20.2-0.8
			c0.1-0.3,0.4-0.4,0.7-0.3c0.3,0.1,0.4,0.4,0.3,0.7C59.3,61.7,55.5,62.3,51.3,62.3z"/>
		<path class="st1" d="M44.8,52.1c-0.1,0-0.2,0-0.3-0.1c-2-1.6-5-0.1-5.1,0c-0.3,0.1-0.6,0-0.7-0.2c-0.1-0.3,0-0.6,0.2-0.7
			c0.2-0.1,3.7-1.9,6.2,0.2c0.2,0.2,0.3,0.5,0.1,0.8C45.1,52.1,44.9,52.1,44.8,52.1z"/>
		<path class="st1" d="M58.7,52.5c-0.1,0-0.2,0-0.2-0.1c-2.4-1.2-5.3-0.1-5.3-0.1c-0.3,0.1-0.6,0-0.7-0.3c-0.1-0.3,0-0.6,0.3-0.7
			c0.1,0,3.3-1.3,6.2,0.1c0.3,0.1,0.4,0.4,0.2,0.7C59.1,52.4,58.9,52.5,58.7,52.5z"/>
	</g>
	<path class="st0" d="M29.7,99.1c-4,0-7.6-0.7-9.6-2.7c-1.8-1.8-2.1-4.5-1-7.9c0.6-1.9,1.9-3.2,3.7-3.8c8.1-2.6,25.3,9.8,26,10.3
		l0.9,0.6l-1,0.3C48,96.1,38,99.1,29.7,99.1z M25.4,85.4c-0.8,0-1.6,0.1-2.3,0.3c-1.5,0.5-2.5,1.5-3,3.1c-1,3-0.7,5.3,0.8,6.8
		c5,5,21.9,0.8,26.3-0.4C43.9,93,32.4,85.4,25.4,85.4z"/>
	<path class="st0" d="M15,86.8c-4.3,0-9-1.7-14.1-5c-0.2-0.2-0.3-0.5-0.2-0.7s0.5-0.3,0.7-0.2c6.7,4.3,12.7,5.8,17.7,4.2
		c6.2-2,8.8-8,8.8-8.1c0.1-0.3,0.4-0.4,0.7-0.3c0.3,0.1,0.4,0.4,0.3,0.7c-0.1,0.3-2.8,6.6-9.5,8.7C18,86.6,16.5,86.8,15,86.8z"/>
	<path class="st0" d="M5.6,84c-1.3,0-2.3-1-2.3-2.3s1-2.3,2.3-2.3s2.3,1,2.3,2.3C7.9,83,6.8,84,5.6,84z M5.6,80.5
		c-0.7,0-1.2,0.6-1.2,1.2c0,0.7,0.6,1.2,1.2,1.2s1.2-0.6,1.2-1.2C6.8,81,6.3,80.5,5.6,80.5z"/>
	<path class="st0" d="M67.7,99.1c-8.3,0-18.3-3-18.9-3.2l-1-0.3l0.9-0.6c0.7-0.5,17.9-12.9,26-10.3c1.8,0.6,3,1.9,3.7,3.8
		c1.1,3.4,0.8,6.1-1,7.9C75.3,98.5,71.7,99.1,67.7,99.1z M50.2,95.2c4.4,1.2,21.4,5.5,26.3,0.4c1.5-1.5,1.7-3.8,0.8-6.8
		c-0.5-1.6-1.5-2.6-3-3.1C67.7,83.6,53.9,92.7,50.2,95.2z"/>
	<path class="st0" d="M83.6,87.2c-1.6,0-3-0.2-4.5-0.7c-6.7-2.1-9.4-8.4-9.5-8.7c-0.1-0.3,0-0.6,0.3-0.7s0.6,0,0.7,0.3
		c0,0.1,2.6,6.1,8.8,8.1c5,1.6,10.9,0.2,17.7-4.2c0.2-0.2,0.6-0.1,0.7,0.2c0.2,0.2,0.1,0.6-0.2,0.7C92.5,85.6,87.8,87.2,83.6,87.2z"
		/>
	<path class="st0" d="M92.9,84.5c-1.3,0-2.3-1-2.3-2.3s1-2.3,2.3-2.3s2.3,1,2.3,2.3C95.2,83.4,94.2,84.5,92.9,84.5z M92.9,80.9
		c-0.7,0-1.2,0.6-1.2,1.2c0,0.7,0.6,1.2,1.2,1.2c0.7,0,1.2-0.6,1.2-1.2C94.2,81.5,93.6,80.9,92.9,80.9z"/>
</g>
</svg>
