<?xml version="1.0" encoding="utf-8"?>
<!-- Generator: Adobe Illustrator 27.1.1, SVG Export Plug-In . SVG Version: 6.00 Build 0)  -->
<svg version="1.1" id="Calque_1" xmlns="http://www.w3.org/2000/svg" xmlns:xlink="http://www.w3.org/1999/xlink" x="0px" y="0px"
	 viewBox="0 0 720 493.5" style="enable-background:new 0 0 720 493.5;" xml:space="preserve">
<style type="text/css">
	.st0{fill:#EDEDED;}
	.st1{fill:#5E5EF7;}
	.st2{fill:#FFFFFF;}
	.st3{fill:#151819;}
	.st4{fill:#575756;}
</style>
<g>
	<path class="st0" d="M380.2,381.6c-32.6,4.1-161.4,103.1-272.7,43.4S41,193,165.8,183.5s153.6-31.8,210.3-74.6
		C498.3,16.7,676,15.7,676,224.2C676,433.1,380.2,381.6,380.2,381.6z"/>
	<path d="M90.1,459.9c-0.4,0-0.8-0.1-1.1-0.3C24.7,425.1-6.9,355.5,8.6,282.3c12.5-59.4,52.8-107.1,107.8-127.7
		c1.2-0.5,2.6,0.2,3,1.4c0.5,1.2-0.2,2.6-1.4,3c-53.4,20-92.6,66.5-104.8,124.3c-15,71.2,15.6,138.8,78,172.3c1.1,0.6,1.6,2,1,3.2
		C91.7,459.5,90.9,459.9,90.1,459.9z"/>
	<path d="M352.8,82.6c-0.7,0-1.4-0.3-1.9-0.9c-0.8-1-0.6-2.5,0.5-3.3l1.1-0.8c87.6-66.2,191.4-85.4,264.6-49c1.2,0.6,1.6,2,1.1,3.1
		c-0.6,1.2-2,1.6-3.1,1.1C543.4-2.9,441.5,16.2,355.3,81.3l-1.1,0.8C353.8,82.4,353.3,82.6,352.8,82.6z"/>
	<path d="M597.6,401.8c-0.9,0-1.8-0.5-2.2-1.4c-0.5-1.2,0.1-2.6,1.3-3.1c20.1-8.4,37.8-19,52.6-31.4c12.1-10.2,22.6-21.7,31.1-34.2
		c20-29.5,30.2-65.6,30.2-107.4c0-56.9-12-103.6-35.6-138.6c-0.7-1.1-0.4-2.5,0.6-3.2c1.1-0.7,2.5-0.4,3.2,0.6
		c24.1,35.8,36.4,83.4,36.4,141.3c0,42.7-10.4,79.7-31,110c-8.8,12.9-19.5,24.7-31.9,35.2c-15.2,12.8-33.3,23.6-53.8,32.2
		C598.2,401.7,597.9,401.8,597.6,401.8z"/>
	<path class="st1" d="M648.1,38L648.1,38c0,9.6,7.8,17.4,17.4,17.4l0,0l0,0c-9.6,0-17.4,7.8-17.4,17.4l0,0l0,0
		c0-9.6-7.8-17.4-17.4-17.4l0,0l0,0C640.4,55.3,648.1,47.6,648.1,38L648.1,38z"/>
	<path d="M332.6,103.5c-1.4,0-2.8-0.3-4.2-1l0,0l0,0c-4.6-2.3-6.4-7.9-4.2-12.5c1.1-2.2,3-3.9,5.4-4.7c2.4-0.8,4.9-0.6,7.1,0.5
		s3.9,3,4.7,5.4s0.6,4.9-0.5,7.1s-3,3.9-5.4,4.7C334.5,103.3,333.5,103.5,332.6,103.5z M332.6,89.5c-0.5,0-1,0.1-1.5,0.2
		c-1.2,0.4-2.1,1.2-2.7,2.3c-1.1,2.3-0.2,5.1,2.1,6.2l0,0c1.1,0.6,2.4,0.6,3.5,0.3c1.2-0.4,2.1-1.2,2.7-2.3c0.6-1.1,0.6-2.4,0.3-3.5
		s-1.2-2.1-2.3-2.7C334,89.7,333.3,89.5,332.6,89.5z"/>
	<circle cx="310.2" cy="108.3" r="4"/>
	<circle cx="104.3" cy="461.5" r="4"/>
</g>
<g>
	<polygon points="415.5,345 582.4,345 583.7,446.7 556.6,467.1 393.8,471.1 388.4,362.6 	"/>
	<polygon class="st2" points="422.3,384.3 518.6,385.7 517.2,400.6 420.9,406 	"/>
	<path class="st1" d="M482,127.9l-5.4,16.3c0,0-81.4,39.3-70.5,127.5c0,0,82.7,39.3,160.1,1.4c0,0,12.2-73.3-61-126.2v-13.6
		L482,127.9z"/>
	<path class="st1" d="M404.7,283.9c0,0,95,33.9,158.7-2.7c0,0-14.9,51.5-58.3,67.8l2.7,12.2l-25.8,1.4
		C482,362.6,420.9,347.7,404.7,283.9z"/>
	<polygon points="513.4,142.4 525.6,111.2 578.5,93.6 590.7,134.3 541.8,153.2 	"/>
	<circle class="st2" cx="528.8" cy="135.4" r="6.1"/>
	<g>
		<path class="st2" d="M559.5,136.4c-3.4,0-6.4-1.5-8.5-3.4c-4.7-4.5-6.6-12.9-1.5-18.7c2.8-3.1,5.9-4.8,9.4-4.9
			c5.7-0.2,10.1,3.9,10.3,4l-3,3.1c0,0-3.4-3.1-7.2-2.9c-2.3,0.1-4.4,1.3-6.4,3.5c-3.3,3.8-2.1,9.6,1.2,12.7c3.8,3.6,9,2.9,14-2
			l3,3.1C566.9,134.9,563,136.4,559.5,136.4z"/>
		<path class="st2" d="M544.5,123.2l-0.9-4.2c3.9-0.8,16.3-0.2,17.7-0.2l-0.2,4.3C557.5,123,547.4,122.6,544.5,123.2z"/>
		<path class="st2" d="M545,129.5l-0.4-4.3c4.2-0.4,14.3-1.2,16.9,0l-1.8,3.9C558.4,128.6,551,128.9,545,129.5z"/>
	</g>
	<circle class="st2" cx="538.9" cy="392.4" r="8.1"/>
	<rect x="442.6" y="243.2" class="st2" width="19" height="19"/>
	<rect x="472.9" y="243.2" class="st2" width="19" height="19"/>
	<path class="st1" d="M530.1,194.3c0,0-6,22.7,8.5,35.4c14.5,12.7,5-21.5,2.8-24.9C539.3,201.5,534,193,530.1,194.3z"/>
	<path class="st1" d="M518.9,181.4c0,0-4.1-8.9,3.1-4.6c7.2,4.3,11.7,11.4,9,12.1C528.1,189.6,525.1,189.6,518.9,181.4z"/>
	<polygon class="st3" points="556.6,467.1 557.3,366.5 582.4,345 583.7,446.7 	"/>
	<path class="st2" d="M412.6,266.5c-1.1,0-2-0.8-2.1-1.9c-0.1-0.7-6.4-73.2,67.7-114.7c1-0.6,2.3-0.2,2.9,0.8s0.2,2.3-0.8,2.9
		c-71.7,40.1-65.6,109.8-65.5,110.5c0.1,1.2-0.7,2.2-1.9,2.3C412.7,266.5,412.6,266.5,412.6,266.5z"/>
</g>
<g>
	<path class="st1" d="M142.5,133c0,0,30.1,11.3,56.7-8s16.1-70.3,16.1-70.3s-47.5,20.6-27.2,54.9c0,0-37-37.8-77.3-15.7
		C110.8,93.9,114.6,117.2,142.5,133z"/>
	<path class="st2" d="M164.3,132.3c-15.9,0-36-5.8-46.6-31.9l-0.5-1.3l1.1-0.9c0.9-0.7,23.6-17.7,60.4,8.5c0.9,0.6,1,1.8,0.4,2.6
		c-0.6,0.9-1.8,1.1-2.6,0.4c-30.2-21.5-49.8-12.4-54.7-9.4c18.2,41.8,62.4,25.2,64.3,24.5c1-0.4,2.1,0.1,2.4,1.1
		c0.4,1-0.1,2.1-1.1,2.4C187.1,128.5,177.1,132.3,164.3,132.3z"/>
	<path class="st2" d="M188.5,104.2c-1,0-1.8-0.7-1.9-1.7c0-0.3-2.8-29,23.4-39.1l1.6-0.6l0.8,1.5c0.3,0.6,7.9,16.1-1.3,33
		c-0.5,0.9-1.6,1.3-2.6,0.8c-0.9-0.5-1.3-1.6-0.8-2.6c6.6-12.1,3.4-23.7,1.9-27.8c-21.7,9.6-19.4,33.5-19.3,34.5
		c0.1,1-0.6,2-1.7,2.1C188.6,104.2,188.5,104.2,188.5,104.2z"/>
	<path class="st1" d="M274,474.3h-39.9l34.7-78.8c0.5-1.1,1.7-1.6,2.8-1.1c1.1,0.5,1.6,1.7,1.1,2.8l-32,72.8h28.6
		c-0.5-2.7-1.8-7.2-5.1-9.1c-2.9-1.6-7-0.9-12.3,2c-1,0.6-2.3,0.2-2.9-0.8c-0.6-1-0.2-2.3,0.8-2.9c6.6-3.7,12.2-4.4,16.5-2
		c7,3.9,7.6,14.4,7.6,14.9L274,474.3z"/>
	<path d="M169.7,113.3l4,15.8c0,0-75.3,62-55.2,155.7S214,398.3,214,398.3l-8.1,26.4l53.8-2.6c0,0,90.7-90.6,72.7-174.2
		c-24.2-112.1-117.1-128-117.1-128l-6.7-11.9L169.7,113.3z"/>
	<path class="st2" d="M217.5,416.6l4.1-23.3c-13-4.2-88.7-32.3-96-118.7c-7.4-88.1,42.4-131.9,49-137.2l2.8-16.6l11.7-1.5l14.8-8.9
		l8.5,17c9.8,2.1,81.6,20.6,108.8,112.1c29.1,97.9-69.7,173.1-70.7,173.9l-0.5,0.4L217.5,416.6z M181.1,124.5l-2.5,15.1l-0.7,0.5
		c-0.6,0.4-55.7,42.7-48,134c7.7,91,93.9,115.3,94.7,115.5l1.9,0.5l-3.8,21.6l25.6-2.3c7.3-5.7,95.9-77.2,68.7-168.8
		c-28.3-95.1-105.7-109.2-106.5-109.3l-1.1-0.2l-7.4-14.7l-12,7L181.1,124.5z"/>
	<g>
		<path class="st2" d="M366.3,389.2c-21.5-6.7-37-18.6-35.7-27.1h-0.1l-3.5,11.3c-2.7,8.6,13.3,21.2,35.6,28.1
			c22.3,6.9,42.6,5.5,45.2-3.1l2.9-10.5C405.9,394.9,387,395.6,366.3,389.2z"/>
		<path d="M388.8,406.9c-7.9,0-17.2-1.5-26.6-4.4c-10.9-3.4-20.7-8.2-27.5-13.6c-7.1-5.6-10.2-11.2-8.8-15.8l3.8-12.3l1.8,0.5v0.9
			c-1.2,8,14.6,19.7,35,26c19.7,6.1,38.7,5.7,43.2-1l3.5-5.2l-4.6,16.6c-1.4,4.6-7.2,7.5-16.2,8.1
			C391.3,406.9,390.1,406.9,388.8,406.9z M330.1,366.5l-2.2,7.2c-1.1,3.7,1.8,8.6,8.1,13.6c6.6,5.2,16.1,9.9,26.8,13.3
			c10.7,3.3,21.2,4.8,29.6,4.2c8-0.5,13.2-3,14.3-6.7l1.9-6.9c-7.5,5-24.3,4.8-42.7-0.9l0,0C347.4,384.4,333.3,374.9,330.1,366.5z"
			/>
	</g>
	<path class="st1" d="M226.3,474.3H188l24-76.6c0.4-1.1,1.6-1.7,2.7-1.4c1.1,0.4,1.8,1.6,1.4,2.7l-22.3,71H222c-0.3-2-1.1-5.1-3.6-7
		c-3.2-2.4-8.5-2.4-15.6,0.1c-1.1,0.4-2.3-0.2-2.7-1.3c-0.4-1.1,0.2-2.3,1.3-2.7c8.6-3,15.2-2.8,19.6,0.5c5.8,4.4,5.5,12.4,5.5,12.7
		L226.3,474.3z"/>
	<path class="st1" d="M321.4,386.5c-108.6,0-128.3-70.7-128.5-71.5c-0.3-1.1,0.4-2.3,1.5-2.6c1.1-0.3,2.3,0.4,2.6,1.5
		c0.2,0.7,20.3,72.1,133.2,68.1c1.1,0,2.2,0.9,2.2,2.1s-0.9,2.2-2.1,2.2C327.4,386.5,324.4,386.5,321.4,386.5z"/>
	<path class="st1" d="M354.7,366.2c-0.1,0-0.3,0-0.4,0c-25.2-5.2-34.6-34.6-35-35.8c-0.4-1.1,0.3-2.3,1.4-2.7
		c1.1-0.4,2.3,0.3,2.7,1.4c0.1,0.3,9,28.2,31.7,32.9c1.2,0.2,1.9,1.4,1.7,2.5C356.5,365.5,355.7,366.2,354.7,366.2z"/>
	<g>
		
			<ellipse transform="matrix(0.2959 -0.9552 0.9552 0.2959 -95.5249 617.7451)" class="st2" cx="371.3" cy="373.7" rx="16.4" ry="42.3"/>
		<path d="M392.8,394.7c-7.7,0-16.9-1.5-26.6-4.5c-23.2-7.2-39.1-20.1-36.2-29.4s23.3-11,46.5-3.8c10.9,3.4,20.7,8.2,27.5,13.6
			c7.1,5.6,10.2,11.2,8.8,15.8C411.1,391.9,403.4,394.7,392.8,394.7z M349.8,354.7c-9.6,0-16.5,2.3-17.9,6.8
			c-2.5,7.9,13.5,20.2,34.9,26.9c21.4,6.6,41.5,5.5,44-2.4c1.1-3.7-1.8-8.6-8.1-13.6c-6.6-5.2-16.1-9.9-26.8-13.3
			C366.5,356.1,357.3,354.7,349.8,354.7z"/>
	</g>
	<path class="st1" d="M200,285.9c-1.8,0-4.1-0.8-7.3-2.5c-4-2.1-4.1-5-3.9-6.5c0.3-1.6,1.3-3.2,2.6-4.5c0.3-0.8,0.9-2,2.7-2.6
		c0.3-0.1,0.7-0.2,1.1-0.3c1.7-1,3.5-1.7,4.7-1.9c2.4-0.4,3.3,0.8,3.6,1.4c0.4,0.7,0.3,1.5,0,2.1c0.8,0.5,1.5,1.1,2.1,1.7
		c1.7,1.9,2,4.3,0.8,6.5c-0.4,0.7-0.7,1.4-1,2.1c-0.8,1.8-1.6,3.7-3.7,4.4C201.2,285.8,200.7,285.9,200,285.9z M193.1,277.8
		c0,0.4,0.3,0.9,1.3,1.5C193.9,278.8,193.5,278.3,193.1,277.8z M195.8,274.1c0.2,0.4,0.5,0.8,1,1.4c0.1-0.9,0.3-1.6,0.4-2.2
		c-0.2,0-0.3,0-0.5,0C196.5,273.6,196.1,273.9,195.8,274.1z"/>
	<path class="st1" d="M315.1,242.3c-1.8,0-4.1-0.8-7.3-2.5c-4-2.1-4.1-5-3.9-6.5c0.3-1.6,1.3-3.2,2.6-4.6c0.3-0.8,0.9-2,2.7-2.6
		c0.3-0.1,0.7-0.2,1.1-0.3c1.7-1,3.5-1.7,4.7-1.9c2.3-0.4,3.3,0.8,3.6,1.4c0.4,0.7,0.3,1.5,0,2.1c0.8,0.5,1.5,1.1,2.1,1.7
		c1.7,1.9,2,4.3,0.8,6.5c-0.4,0.7-0.7,1.4-1,2.1c-0.8,1.8-1.6,3.7-3.7,4.4C316.3,242.2,315.7,242.3,315.1,242.3z M308.2,234.2
		c0,0.4,0.3,0.9,1.3,1.5C309,235.2,308.5,234.7,308.2,234.2z M310.8,230.6c0.2,0.4,0.5,0.8,1,1.4c0.1-0.9,0.3-1.6,0.4-2.2
		c-0.2,0-0.3,0-0.5,0C311.5,230.1,311.2,230.3,310.8,230.6z"/>
	<path class="st4" d="M229.4,163.2c0,0,14,33.9,38.8,33c24.8-0.8-14-31.4-19-33C244.3,161.6,231.9,157.4,229.4,163.2z"/>
	<path class="st4" d="M213.8,151.7c0,0-10.7-9.9,0-10.7s20.6,5.8,18.2,9.9C229.4,155,226.1,158.3,213.8,151.7z"/>
	<g>
		<path class="st2" d="M266.2,263.7c-1.2,0-2.4-0.3-3.5-0.8c-9.2-4.4-10.2-26.1-10.3-28.5c0-1.2,0.9-2.2,2.1-2.2
			c1.1,0,2.2,0.9,2.2,2.1c0.3,8.3,2.7,22.3,7.9,24.8c0.7,0.3,2.6,1.3,6.7-1.8c1-0.7,2.3-0.5,3,0.4s0.5,2.3-0.4,3
			C271.1,262.7,268.6,263.7,266.2,263.7z"/>
		<path class="st2" d="M227.4,261.6c-0.4,0-0.8-0.1-1.1-0.3c-1-0.6-1.3-2-0.7-3c0.8-1.2,7.8-12.1,15.4-11.6c3.4,0.2,6.2,2.5,8.3,6.9
			c0.5,1.1,0.1,2.4-1,2.9s-2.4,0.1-2.9-1c-1.4-2.9-3-4.4-4.7-4.5c-4.4-0.2-9.9,7-11.6,9.6C228.8,261.2,228.1,261.6,227.4,261.6z"/>
		<path class="st2" d="M268.8,242.2c-0.3,0-0.6-0.1-0.9-0.2c-1.1-0.5-1.6-1.7-1.1-2.8c0.1-0.3,3.4-7.7,9.7-8.9
			c3.8-0.7,7.7,0.8,11.6,4.6c0.8,0.8,0.9,2.2,0,3c-0.8,0.8-2.2,0.9-3,0c-2.8-2.8-5.4-3.9-7.7-3.5c-4.1,0.8-6.6,6.4-6.6,6.4
			C270.4,241.7,269.6,242.2,268.8,242.2z"/>
		<path class="st2" d="M241.2,293.3c-4.2,0-6.9-0.2-7-0.2c-1.2-0.1-2-1.2-1.9-2.3c0.1-1.2,1.2-2,2.3-1.9c0.6,0.1,57.9,4.9,65.6-32.3
			c0.2-1.2,1.4-1.9,2.5-1.7s1.9,1.4,1.7,2.5C297.6,289.9,257.6,293.3,241.2,293.3z"/>
		<path class="st2" d="M271.1,302.6c-1.2,0-2.4-0.1-3.5-0.3c-9.2-1.8-13.8-10-14-10.3c-0.6-1-0.2-2.3,0.9-2.9c1-0.6,2.3-0.2,2.9,0.8
			c0,0.1,3.9,6.8,11.1,8.2c5.6,1.1,11.9-1.3,18.7-7c0.9-0.8,2.3-0.6,3,0.3c0.8,0.9,0.6,2.3-0.3,3C283.3,299.8,277,302.6,271.1,302.6
			z"/>
	</g>
</g>
</svg>
