<?xml version="1.0" encoding="utf-8"?>
<!-- Generator: Adobe Illustrator 27.1.1, SVG Export Plug-In . SVG Version: 6.00 Build 0)  -->
<svg version="1.1" id="Calque_1" xmlns="http://www.w3.org/2000/svg" xmlns:xlink="http://www.w3.org/1999/xlink" x="0px" y="0px"
	 viewBox="0 0 720 481" style="enable-background:new 0 0 720 481;" xml:space="preserve">
<style type="text/css">
	.st0{fill:#EDEDED;}
	.st1{fill:#C6C6C5;}
	.st2{fill:#5E5EF7;}
	.st3{fill:#FFFFFF;}
	.st4{fill:#575756;}
	.st5{fill:none;stroke:#000000;stroke-width:4.6792;stroke-linecap:round;stroke-miterlimit:10;}
	.st6{fill:none;}
</style>
<path class="st0" d="M354.2,391c-82.7-39.9-302.9,71.7-307.3-83.2c-3.6-126.6,146.4-103.1,146.4-103.1s61.5-159,184.4-150
	s159.1,159.1,159.1,159.1s104.9,5.4,139.2,88.6C710.4,385.6,553.1,486.8,354.2,391z"/>
<path class="st1" d="M321.2,237.6c31.9,1.6,60,17.2,82.4,39.3c24.6,24.3,41.2,54,54.6,85.7c6.3,15,12.4,30,18.4,45.1
	c4.4,11.3,11.8,21.4,25.3,18.4c12.1-2.7,22.4-12.9,30.8-21.5c8.9-9.1,17.8-18.6,25.5-28.7c10-13,18.1-28,20.8-44.4
	c1.6-9.4,5.6-29-4.6-35c-4.3-2.5-10.1-1.9-14.8-1.3c-5.3,0.6-10.6,1.7-15.8,2.9c-11.6,2.6-21.3,8.5-30.4,16.1
	c-11.2,9.4-21,20.4-31.1,30.9c-9,9.5-18.4,19.7-30,26.2c-22.5,12.5-42.7-5.7-63-14.1c-5.9-2.4-12-4.2-18.4-5.1
	c-7.1-0.9-14-0.2-21.1,0.4c-16.9,1.3-33.8,1-50.8,1.6c-18.2,0.6-36.5,2.2-54.3,6.2c-9.4,2.1-18.6,5-27.6,8.6
	c-5.2,2.1-7.1,3.6-11.9,3.1c-9.2-1-18.5-4.6-26.8-8.4c-9.5-4.2-19.4-9.3-26.9-16.6c-5.6-5.4-7.5-10.1-0.7-15.4
	c8.5-6.5,20.2-9.4,30.4-12c28.1-7,60.5-12.2,86.4,4.3c17.7,11.3,26.8,33.7,24.7,54.2c-6.8,65.7-102.8,29.6-138.4,14.6
	c-12.9-5.5-25.7-11.7-37.1-20c-9.7-7-19.2-16.4-20.9-28.8c-2.8-21.3,19.7-35.9,36.4-43.2c9.8-4.3,20.5-7.4,31.2-8.6
	c7.5-0.9,18-1.9,24.4,3.1c7.3,5.8,9.8,16.7,11.3,25.4c2.1,11.9,2,24.2,1.1,36.2c-0.7,10.1-2.2,20.3-5,30.1c3.3,0,6.6,0,9.9,0
	c-0.8-2.2-0.6-3.1,0.2-5.8c0.9-3.2,2.5-6.3,4.1-9.2c4.7-8.4,10.6-16.1,16.7-23.5c12.3-15,25.7-29.2,40-42.4c2-1.8,4-3.6,6-5.3
	c0.2-0.2,1.3-1,0.6-0.5c-0.5,0.4,1.1-0.8,1.4-1c1.8-1.3,3.7-2.5,5.5-3.8c9.4-6.4,18.9-13,26.6-21.4c6.9-7.5,13.1-17.4,10.4-28
	c-2.6-10.2-12.6-15.3-22.3-16.8c-10.6-1.6-23.3-0.8-33,4.4c-15,8-9.4,26.3-4.9,38.9c2.2,6.2,12.1,3.5,9.9-2.7
	c-3.2-8.9-9.8-23.7,2.4-28.3c8.5-3.2,19-3.8,27.7-1.4c8.3,2.3,13,8.7,9.2,17.1c-4.1,9.2-13.2,16.3-21.1,22.1
	c-6.3,4.7-13.2,8.8-19.3,13.7c-4.5,3.7-8.7,7.8-12.9,11.8c-13.4,13-26.2,26.8-37.7,41.5c-5.8,7.5-11.6,15.2-15.9,23.7
	c-2.8,5.7-6,13.2-3.5,19.6c1.8,4.5,8.4,5.2,9.9,0c6.5-22.7,7.9-48.5,3.9-71.7c-1.8-10.2-5.1-21.3-12.6-28.7
	c-7-6.9-16.7-8.1-26.1-7.8c-22.8,0.7-46.9,9.3-64.8,23.4C88,319.1,79,341.9,92.1,362.4c7.7,12,20,20.5,32.1,27.5
	c12.1,6.9,24.9,12.4,37.9,17.4c16.7,6.5,33.9,12.3,51.5,15.8c16.8,3.4,34.9,5.2,51.7,1c22.6-5.7,36.4-25.5,37.6-48.2
	c1.3-22.6-9.2-45.9-27.7-59.1c-26.5-18.8-61.1-14.9-90.8-8.2c-11.4,2.6-23,5.7-33.4,11.2c-8.2,4.4-17.1,12.1-14.6,22.4
	c2.2,9,11.2,15.6,18.5,20.5c9.8,6.5,20.7,11.4,31.8,15.3c7.6,2.6,17.5,6.2,25.6,4.1c3.3-0.8,6.3-2.7,9.5-3.9c4.8-1.9,9.7-3.6,14.7-5
	c9.6-2.8,19.5-4.8,29.4-6.2c18.6-2.5,37.5-2.7,56.2-3c8.7-0.2,17.4-0.4,26.1-1c7.5-0.5,15-1.7,22.5-0.5
	c23.8,3.7,42.9,25.5,67.7,23.7c13.3-1,24.5-8.5,34.3-17.1c11.4-10,21.4-21.6,32-32.5c9.6-9.9,20.2-20.7,33.2-26
	c4.4-1.8,9.3-2.7,13.9-3.6c4.4-0.9,12.2-3.4,16.6-1.7c3.3,1.3,1.9,11.2,1.6,14.6c-0.7,8-2,15.7-4.7,23.2
	c-5.8,15.9-16.6,28.9-27.9,41.3c-8.8,9.6-17.4,20-28.4,27.2c-3.9,2.5-9.9,6.4-14.7,4.5c-5.2-2-7.4-9.8-9.1-14.5
	c-6-16.4-13.1-32.6-20-48.6c-7.6-17.5-16-34.7-26.9-50.4c-18.4-26.3-41.8-50.7-71.4-64.2c-14.5-6.6-29.8-10.3-45.7-11.1
	C314.6,227,314.6,237.3,321.2,237.6L321.2,237.6z"/>
<path class="st1" d="M243.7,281c-24.4-0.8-46.2-17.2-51.8-41.3c-6.5-28,13.3-51.8,35.4-66.3c24-15.6,53.2-16.8,80.4-9.9
	c28.8,7.3,53.9,22.9,78.7,38.8c26,16.6,51.7,33,80.4,44.7c18.2,7.5,52.5,18.5,59.4-9.6c2.7-11-0.3-23.2-4.5-33.5
	c-4.6-11.5-11.7-21.9-20.8-30.3c-9.6-8.9-21.6-15.9-34.6-18.4c-12.8-2.4-25.4-0.1-37.1,5.3c-24.4,11.3-44.3,34.2-58.8,56.3
	c-16.5,25.1-27,53.8-34.9,82.6c-2,7.3-3.8,14.7-5.6,22.1c-1.5,6.4,8.4,9.2,9.9,2.7c6.9-28.9,15.1-57.8,28.9-84.3
	c12.7-24.3,30.7-48.2,53.6-63.7c10.8-7.4,23.3-12.7,36.6-11.8c13.3,0.9,25.8,7.9,35.4,16.9c8.6,8.1,15.3,18.2,19.2,29.4
	c3,8.9,7.1,23.6-1,31c-8.9,8-23.9,2.7-33.5-0.9c-13-4.8-25.6-10.5-37.7-17.1c-27.1-14.7-52.1-32.9-78.7-48.2
	c-23.6-13.6-49.6-23.9-77-25.9c-27.7-2.1-53.4,6.2-74.8,23.8c-20.2,16.6-34.1,40.4-28.9,67.1c4.5,23.1,22.5,41.7,44.9,48.3
	c5.6,1.6,11.4,2.4,17.2,2.6C250.4,291.5,250.3,281.2,243.7,281L243.7,281z"/>
<polygon class="st1" points="447.7,434.4 495.6,183.2 577.9,186.3 609.7,431.5 "/>
<path class="st2" d="M96.2,364.4l-39.5,29.3c-9.4,7-11.4,20.2-4.4,29.6l29.3,39.5c7,9.4,20.2,11.4,29.6,4.4l10-7.4l-20.9-28.1
	l-6,4.4l-7.2-9.7l6-4.4c0,0-1-1.4-5.7-7.6c-5.3-7.2-4.3-13.8,4.2-20.1c1.4-1,7.9-5.9,7.9-5.9l7.4,10c0,0-4.4,3.3-6.2,4.6
	c-2.2,1.6-2,2.9-0.3,5.1c1.4,1.9,4.1,5.5,4.1,5.5l8.8-6.6l6.3,10.2l-8,5.9l21,28.3l18-13.4c9.4-7,11.4-20.2,4.4-29.6l-29.3-39.5
	C118.9,359.4,105.6,357.4,96.2,364.4z"/>
<path class="st2" d="M412,70.4c0,0-27.5,23.9-63.5,13.8s-44.8-68.5-44.8-68.5s58.6,3.2,50.6,47.7c0,0,24.5-54.8,76.1-47.2
	C430.3,16.2,435.4,42.5,412,70.4z"/>
<path class="st3" d="M362.7,83.2c-0.2,0-0.3,0-0.3,0c-1.2,0-2.1-1-2.1-2.2s1-2.1,2.1-2.1c0,0,0,0,0.1,0c1.4,0,15.2-0.2,28.9-6.4
	c18.5-8.4,28.5-23.5,29.8-45c-6.4-1.2-30.8-3.2-54.5,31.6c-0.7,1-2,1.2-3,0.6c-1-0.7-1.2-2-0.6-3c28.8-42.4,59.6-33.3,60.9-32.9
	l1.6,0.5l-0.1,1.6C424.5,56,407.3,70,393,76.4C378.8,82.9,364.9,83.2,362.7,83.2z"/>
<path class="st3" d="M348.9,58.8c-1,0-1.8-0.7-1.9-1.7s-3.4-24.5-28.2-30.8c-0.6,4.3-1.1,15.6,8.5,26.5c0.7,0.8,0.6,2-0.2,2.7
	c-0.8,0.7-2,0.6-2.7-0.2c-13.4-15.1-9.2-31.2-9-31.9l0.5-1.7l1.8,0.4c29.3,6.1,33.1,34.2,33.2,34.5c0.1,1.1-0.6,2-1.7,2.1
	C349,58.7,349,58.8,348.9,58.8z"/>
<path d="M332.2,51.9h42.1l2.6,22.3c0,0,86.7,43.4,89.4,155.1C468.9,341,373,401.5,373,401.5l-51.3,1.3l-5.3-23.7
	c0,0-82.8-27.6-76.2-149.8s90.7-149.8,90.7-149.8L332.2,51.9z"/>
<path class="st3" d="M371,395.1c-0.2,0-0.5,0-0.7-0.1c-5.7-1-17.3-1.9-17.4-1.9l-19.9,1.1l-6-20.1c-9.7-4.1-85.9-39.5-80.4-135.4
	C253.4,119.5,322,90.6,340,85.1c-0.5-4.6-1.6-16-0.7-19.5c0.3-1.1,1-2.1,2.1-2.6c3.1-1.6,8.8-0.1,11.5,0.8l15.5-7.8l3.2,23.3
	c9.8,5.3,86.1,50,87,143.8s-69.3,143.6-78.2,149.5c-0.5,4.6-2.2,17.9-6.6,21.4C372.9,394.8,372,395.1,371,395.1z M352.9,388.9
	c0.8,0,12.2,1,18,2c1.7-0.2,4.4-9,5.3-19.5l0.1-1.1l0.9-0.6c0.8-0.5,78-49.4,77-146.4c-1-97.1-84.8-140.1-85.6-140.5l-1-0.5
	L365,62.6l-11.8,5.9l-0.9-0.3c-3.8-1.4-8.1-2-9-1.4c-0.6,2.4,0.4,13.3,1.1,19.6l0.2,1.8l-1.8,0.5c-14.2,3.9-85.1,29.7-92.1,150.2
	c-3,51.5,18.5,84.5,37.1,103.1c20.2,20.2,41.3,28.3,41.6,28.4l1,0.4l5.7,18.9L352.9,388.9z"/>
<path class="st2" d="M333.1,459.5H291l0.3-2.4c0.1-0.4,1.5-10.6,9.1-14.5c4.9-2.5,11.1-1.8,18.4,2.2c1,0.6,1.4,1.9,0.9,2.9
	c-0.6,1-1.9,1.4-2.9,0.9c-6-3.2-10.8-4-14.4-2.1c-3.7,1.9-5.5,6.1-6.3,8.8H328l-12.8-74.7c-0.2-1.2,0.6-2.3,1.8-2.5
	c1.1-0.2,2.3,0.6,2.5,1.8L333.1,459.5z"/>
<path class="st2" d="M411.4,459.5h-39.6l19.1-84.6c0.3-1.2,1.4-1.9,2.6-1.6s1.9,1.4,1.6,2.6l-17.9,79.3h28.5
	c-1.1-2.9-3.4-7.3-7.2-9.1c-2.5-1.2-5.2-1-8.4,0.5c-1.1,0.5-2.3,0-2.9-1c-0.5-1.1,0-2.3,1-2.9c4.4-2,8.5-2.2,12.1-0.5
	c7.6,3.6,10.3,14.1,10.4,14.6L411.4,459.5z"/>
<path class="st2" d="M291.9,243c-2.1,0-4.4-1.4-7.7-4.8c-3.2-3.2-2.5-6-1.8-7.4c0.7-1.5,2.1-2.7,3.8-3.6c0.5-0.7,1.5-1.6,3.4-1.7
	c0.4,0,0.7,0,1.1,0c2-0.5,3.8-0.6,5.1-0.5c2.3,0.3,2.9,1.8,3,2.4c0.1,0.8-0.1,1.5-0.7,2c0.6,0.7,1.1,1.5,1.5,2.3
	c1,2.4,0.6,4.7-1.1,6.4c-0.6,0.6-1.1,1.2-1.5,1.7c-1.3,1.5-2.6,3.1-4.8,3.1C292,243,292,243,291.9,243z M286.2,233.1
	c-0.1,0.4,0,0.9,0.8,1.8C286.6,234.3,286.4,233.6,286.2,233.1z M289.8,230.4c0.1,0.4,0.2,1,0.5,1.7c0.4-0.8,0.7-1.4,1.1-1.9
	c-0.2,0-0.3-0.1-0.5-0.1C290.6,230.1,290.2,230.2,289.8,230.4z"/>
<path class="st2" d="M414.6,235.2c-2.1,0-4.4-1.4-7.7-4.8c-3.2-3.2-2.5-6-1.8-7.4c0.7-1.5,2.1-2.7,3.8-3.6c0.5-0.7,1.5-1.6,3.4-1.7
	c0.4,0,0.7,0,1.1,0c2-0.5,3.8-0.6,5.1-0.5c2.3,0.3,2.9,1.8,3,2.4c0.1,0.8-0.1,1.5-0.7,2c0.6,0.7,1.1,1.5,1.5,2.3
	c1,2.4,0.6,4.7-1.1,6.4c-0.6,0.6-1.1,1.2-1.5,1.7c-1.3,1.5-2.6,3.1-4.8,3.1C414.7,235.2,414.7,235.2,414.6,235.2z M408.8,225.2
	c-0.1,0.4,0,0.9,0.8,1.9C409.3,226.4,409.1,225.8,408.8,225.2z M412.5,222.5c0.1,0.4,0.2,1,0.5,1.7c0.4-0.8,0.7-1.4,1.1-1.9
	c-0.2,0-0.3-0.1-0.5-0.1C413.3,222.2,412.9,222.4,412.5,222.5z"/>
<path class="st3" d="M357.6,251.7c-3.5,0-6.2-1.2-8-3.5c-7-8.7,2.3-30.7,3.4-33.2c0.5-1.1,1.7-1.6,2.8-1.1c1.1,0.5,1.6,1.7,1.1,2.8
	c-3.7,8.5-8,23.8-4,28.8c1.4,1.8,4,2.3,7.8,1.5c1.1-0.3,2.3,0.5,2.5,1.7s-0.5,2.3-1.7,2.5C360.1,251.5,358.8,251.7,357.6,251.7z"/>
<path class="st3" d="M389.2,229.5c-0.8,0-1.5-0.4-1.9-1.1c-3.7-6.8-7.7-10.4-10.9-10.4c-3.6,0-6.6,4.4-7.5,6c-0.5,1-1.8,1.5-2.9,0.9
	c-1.1-0.5-1.5-1.8-0.9-2.9c0.2-0.3,4.3-8.3,11.2-8.4h0.1c5.1,0,10,4.2,14.6,12.6c0.6,1,0.2,2.3-0.8,2.9
	C389.9,229.4,389.5,229.5,389.2,229.5z"/>
<path class="st3" d="M316.8,227.8c-0.3,0-0.6-0.1-0.9-0.2c-1.1-0.5-1.6-1.8-1.1-2.8c3.3-7.3,7.2-11.1,11.8-11.5
	c6.8-0.5,11.9,7.3,12.2,7.6c0.6,1,0.3,2.3-0.6,3c-1,0.6-2.3,0.3-3-0.6c-1.1-1.7-4.7-5.9-8.2-5.7c-2.9,0.2-5.7,3.3-8.2,9
	C318.4,227.3,317.6,227.8,316.8,227.8z"/>
<path class="st4" d="M384.9,112.9c-10.6,4,21.8,35.1,30.2,65.3c8.5,30.2,25.4,10.3,20-5.4C429.7,157,397.6,108.1,384.9,112.9z"/>
<path class="st4" d="M382.6,108.5c-4.8,4-19.3-6.4-15.3-12.2C371.5,90.5,389.4,102.7,382.6,108.5z"/>
<path class="st5" d="M338.7,457.2"/>
<path class="st3" d="M360,268.5c-22.7,0-45.8-6.1-47.6-7c-1.1-0.5-1.5-1.8-1-2.9c0.5-1,1.8-1.5,2.8-1c3.9,1.6,57.1,15,78.4-1.3
	c0.9-0.7,2.3-0.6,3,0.4c0.7,0.9,0.5,2.3-0.4,3C386.6,266.4,373.4,268.5,360,268.5z"/>
<path class="st3" d="M342.1,278.7c-9.7,0-14.7-5.3-14.9-5.6c-0.8-0.9-0.7-2.2,0.1-3c0.9-0.8,2.2-0.7,3,0.1l0,0
	c0.3,0.3,6.9,7.1,20.3,2.8c1.1-0.4,2.3,0.3,2.7,1.4c0.4,1.1-0.3,2.3-1.4,2.7C348.2,278.2,344.9,278.7,342.1,278.7z"/>
<g>
	<polygon points="612.7,343.4 486.8,346.3 510.2,442.9 640.5,437.1 	"/>
	<polygon points="670.7,443.8 503.7,449.7 506.7,464.3 695.5,464.3 	"/>
	<g>
		<line class="st6" x1="588" y1="360.9" x2="510.4" y2="365.3"/>
		<path class="st2" d="M510.4,367.5c-1.2,0-2.1-0.9-2.2-2.1s0.8-2.2,2.1-2.3l77.6-4.4c1.3-0.1,2.2,0.9,2.3,2.1s-0.8,2.2-2.1,2.3
			L510.4,367.5C510.5,367.5,510.4,367.5,510.4,367.5z"/>
	</g>
	<path class="st2" d="M514.3,378.3c-1.2,0-2.1-0.9-2.2-2.1c0-1.2,0.9-2.2,2.1-2.2l89.9-2.5c1.1,0,2.2,0.9,2.2,2.1s-0.9,2.2-2.1,2.2
		L514.3,378.3C514.4,378.3,514.4,378.3,514.3,378.3z"/>
	<path class="st3" d="M516.6,388.3c-1.2,0-2.1-0.9-2.2-2.1c0-1.2,0.9-2.2,2.1-2.2l25.8-0.8c1.1,0.1,2.2,0.9,2.2,2.1
		s-0.9,2.2-2.1,2.2L516.6,388.3C516.7,388.3,516.6,388.3,516.6,388.3z"/>
	<path class="st2" d="M519.7,407.3c-1.2,0-2.2-1-2.2-2.1c0-1.2,0.9-2.2,2.1-2.2l54.9-0.8c1.3,0,2.2,0.9,2.2,2.1s-0.9,2.2-2.1,2.2
		L519.7,407.3L519.7,407.3z"/>
	<path class="st2" d="M521.9,416.5c-1.2,0-2.1-0.9-2.2-2.1c0-1.2,0.9-2.2,2.1-2.2l32.5-0.8c0,0,0,0,0.1,0c1.2,0,2.1,0.9,2.2,2.1
		c0,1.2-0.9,2.2-2.1,2.2L521.9,416.5L521.9,416.5z"/>
</g>
<g>
	<polygon points="209.6,321.8 221.9,462.4 148.6,466.4 135.4,329.3 	"/>
	<polygon class="st3" points="201.8,337.4 145.4,340.1 156,438.3 208.3,431.1 	"/>
	<circle class="st2" cx="183.8" cy="452.4" r="5.4"/>
</g>
<path class="st2" d="M182,401.2l11.7-15.5c1.8-2.4,2.8-5.5,2.2-8.5s-3-6.9-9.2-6.7c-12.3,0.4-9.1,11.1-9.1,11.1s-5.5-11.9-14.2-6.6
	c-9.7,6-2.3,13.8,2.6,16.7S182,401.2,182,401.2z"/>
<g>
	<path class="st3" d="M537.6,208.4c6.5-0.1,7.3-0.1,9.9-0.1c2.4,0.1,3.7,0.4,4.6,0.8c1.2,0.4,2,0.9,2.9,1.8c0.9,0.8,1.4,1.6,1.9,2.8
		c0.4,0.9,0.8,2.1,0.9,4.5c0.2,2.6,0.2,3.4,0.3,9.9s0.1,7.3,0.1,9.9c-0.1,2.4-0.4,3.7-0.8,4.6c-0.4,1.2-0.9,2-1.8,2.9
		c-0.8,0.9-1.6,1.4-2.8,1.9c-0.9,0.4-2.1,0.8-4.5,0.9c-2.6,0.2-3.4,0.2-9.9,0.3s-7.3,0.1-9.9,0.1c-2.4-0.1-3.7-0.4-4.6-0.8
		c-1.2-0.4-2-0.9-2.9-1.8c-0.9-0.8-1.4-1.6-1.9-2.8c-0.4-0.9-0.8-2.1-0.9-4.5c-0.2-2.6-0.2-3.4-0.3-9.9s-0.1-7.3-0.1-9.9
		c0.1-2.4,0.4-3.7,0.8-4.6c0.4-1.2,0.9-2,1.8-2.9c0.8-0.9,1.6-1.4,2.8-1.9c0.9-0.4,2.1-0.8,4.5-0.9
		C530.3,208.6,531.1,208.5,537.6,208.4 M537.5,204c-6.6,0.1-7.5,0.2-10.1,0.4s-4.4,0.6-5.9,1.3c-1.6,0.7-2.9,1.5-4.3,2.9
		c-1.3,1.4-2.1,2.8-2.7,4.4c-0.6,1.6-1,3.4-1,6c-0.1,2.6-0.1,3.4,0.1,10.1c0.1,6.6,0.2,7.5,0.4,10.1s0.6,4.4,1.3,5.9
		c0.7,1.6,1.5,2.9,2.9,4.3c1.4,1.3,2.8,2.1,4.4,2.7c1.6,0.6,3.4,1,6,1c2.6,0.1,3.4,0.1,10.1-0.1c6.6-0.1,7.5-0.2,10.1-0.4
		s4.4-0.6,5.9-1.3c1.6-0.7,2.9-1.5,4.3-2.9c1.3-1.4,2.1-2.8,2.7-4.4c0.6-1.6,1-3.4,1-6c0.1-2.6,0.1-3.4-0.1-10.1
		c-0.1-6.6-0.2-7.5-0.4-10.1s-0.6-4.4-1.3-5.9c-0.7-1.6-1.5-2.9-2.9-4.3c-1.4-1.3-2.8-2.1-4.4-2.7c-1.6-0.6-3.4-1-6-1
		C545,203.8,544.2,203.8,537.5,204"/>
	<path class="st3" d="M537.8,215.9c-6.9,0.1-12.5,5.9-12.3,12.8c0.1,6.9,5.9,12.5,12.8,12.3c6.9-0.1,12.5-5.9,12.3-12.8
		C550.5,221.3,544.7,215.7,537.8,215.9 M538.2,236.6c-4.5,0.1-8.2-3.5-8.3-8s3.5-8.2,8-8.3s8.2,3.5,8.3,8S542.7,236.5,538.2,236.6"
		/>
	<path class="st3" d="M553.8,215.1c0,1.6-1.3,3-2.9,3c-1.6,0-3-1.3-3-2.9c0-1.6,1.3-3,2.9-3C552.4,212.1,553.7,213.4,553.8,215.1"/>
</g>
<circle class="st3" cx="512.3" cy="274" r="10"/>
<polygon class="st3" points="524.2,266.4 524.7,271.3 565,271.3 563.9,265.9 "/>
<polygon class="st3" points="525.3,274.6 547,274.6 545.9,277.8 525.8,277.8 "/>
<polygon class="st3" points="525.7,280.5 551.1,280.5 550.8,282.4 525.4,281.8 "/>
<circle class="st3" cx="512.3" cy="299.6" r="10"/>
<polygon class="st3" points="525.1,293.2 572.7,292.6 572.4,295.7 524.5,296 "/>
<polygon class="st3" points="524.8,298.8 553.9,298.5 553.9,301.3 525.4,301.6 "/>
<polygon class="st3" points="531.4,323.7 566.3,324 566.3,325.8 531.7,325.8 "/>
<polygon class="st2" points="318.3,305.7 317.7,327.4 333.5,328.5 334.6,303 "/>
<polygon class="st2" points="365.5,300.2 363.4,328.5 379.1,327.9 380.7,305.1 "/>
<path class="st2" d="M220,450.7c-0.1,0-0.1,0-0.1,0c-1.2-0.1-2.1-1.1-2-2.3s1.1-2.1,2.3-2c0.1,0,19.5-0.7,40.2-63.7
	c21.9-66.9,59.1-68.8,60.6-68.8c0,0,0,0,0.1,0c1.2,0,2.1,0.9,2.1,2.1s-0.9,2.2-2.1,2.2c-0.5,0-35.8,2.2-56.7,65.9
	C243.1,448.9,222.1,450.7,220,450.7z"/>
<path class="st2" d="M504.6,458.3c-0.1,0-0.2,0-0.3,0c-0.5-0.1-47.8-7.4-58.3-68.6c-9.9-58.1-65.7-70.9-66.2-71
	c-1.2-0.3-1.9-1.4-1.6-2.6c0.2-1.2,1.4-1.9,2.5-1.6c0.6,0.1,59.1,13.5,69.5,74.5c9.9,58.1,54.2,65,54.7,65c1.2,0.2,2,1.3,1.8,2.4
	C506.5,457.5,505.6,458.3,504.6,458.3z"/>
<path class="st2" d="M301.2,332.5c-0.2,0-0.3,0-0.5-0.1c-104-25.3-102.8-34.8-102.3-38.8c1.1-9.2,31.7-9.9,44.6-10
	c1.2,0,2.1,1,2.1,2.2s-1,2.1-2.1,2.1c-0.3,0-0.5,0-0.8,0c-20.7,0-39.1,2.9-39.5,6.2c-0.2,1.6,3.6,10.9,99.1,34.1
	c1.2,0.3,1.9,1.4,1.6,2.6C303.1,331.8,302.2,332.5,301.2,332.5z"/>
<path class="st2" d="M396,329.7c-1,0-1.9-0.7-2.1-1.6c-0.3-1.2,0.4-2.3,1.6-2.6c92.6-22,101.2-30.4,101.6-32.4
	c-1.4-2.5-19.5-4.2-39.3-3.5c-1.1,0-2.2-0.9-2.2-2.1s0.9-2.2,2.1-2.2c15.9-0.6,42.7-0.4,43.7,7.3c0.5,3.8,1.6,11.8-104.8,37.1
	C396.3,329.7,396.1,329.7,396,329.7z"/>
<path class="st2" d="M298.9,337.7c-0.2,0-0.4,0-0.5-0.1l-13.8-3.6c-1.1-0.3-1.8-1.5-1.5-2.6s1.5-1.8,2.6-1.5l13.8,3.6
	c1.1,0.3,1.8,1.5,1.5,2.6C300.7,337.1,299.8,337.7,298.9,337.7z"/>
<path class="st2" d="M306,327.2c-0.1,0-0.3,0-0.4,0l-16.4-3.3c-1.2-0.2-1.9-1.4-1.7-2.5c0.2-1.2,1.4-1.9,2.5-1.7l16.4,3.3
	c1.2,0.2,1.9,1.4,1.7,2.5C307.9,326.5,307,327.2,306,327.2z"/>
<path class="st2" d="M388.2,325.6c-1,0-1.8-0.6-2.1-1.6c-0.3-1.2,0.4-2.3,1.5-2.6l15.9-4c1.2-0.3,2.3,0.4,2.6,1.5
	c0.3,1.2-0.4,2.3-1.5,2.6l-15.9,4C388.5,325.5,388.3,325.6,388.2,325.6z"/>
<path class="st2" d="M401,335.1c-0.9,0-1.8-0.6-2.1-1.5c-0.3-1.1,0.3-2.3,1.4-2.7l14.3-4.3c1.2-0.4,2.3,0.3,2.7,1.4
	c0.3,1.1-0.3,2.3-1.4,2.7l-14.3,4.3C401.4,335,401.2,335.1,401,335.1z"/>
<polygon class="st3" points="353.1,307.1 368.9,307.1 368.3,312.5 351.5,313.1 "/>
<polygon class="st3" points="350.9,318.5 366.1,318.5 365.1,324 350.9,323.4 "/>
<path d="M710.2,290.7c-0.9,0-1.8-0.5-2.2-1.4c-17.5-42.4-50.5-73.7-98.1-93c-1.2-0.5-1.8-1.9-1.3-3c0.5-1.2,1.8-1.8,3-1.3
	c48.1,19.5,82.9,52.5,100.7,95.5c0.5,1.2-0.1,2.6-1.3,3.1C710.8,290.6,710.5,290.7,710.2,290.7z"/>
<path d="M15.3,349.1c-1,0-2-0.7-2.3-1.7c-3.2-11.7-5-24.6-5.4-38.4C6,252.1,29.7,219,49.9,201.2c1-0.9,2.4-0.8,3.3,0.2
	c0.9,1,0.8,2.4-0.2,3.3c-19.4,17.1-42.3,49.1-40.7,104.1c0.4,13.4,2.2,26,5.3,37.3c0.3,1.2-0.4,2.5-1.6,2.9
	C15.7,349.1,15.5,349.1,15.3,349.1z"/>
<path d="M75.8,188.5c-0.8,0-1.6-0.4-2.1-1.2c-0.6-1.1-0.2-2.6,1-3.2c32.3-17.2,68.8-20.7,94.4-20.4c8.1-15.8,21.4-39,39.6-61.8
	c20.1-25.3,42.2-45.4,65.8-59.8c1.1-0.7,2.5-0.3,3.2,0.8s0.3,2.5-0.8,3.2c-23.1,14.1-44.8,33.9-64.6,58.7
	c-18.4,23.1-31.8,46.6-39.7,62.3l-0.7,1.3h-1.5c-25-0.4-61.6,2.7-93.5,19.8C76.6,188.4,76.2,188.5,75.8,188.5z"/>
<path d="M26.4,374.2c-5.1,0-9.3-4.2-9.3-9.3c0-5.1,4.2-9.3,9.3-9.3s9.3,4.2,9.3,9.3C35.7,370,31.5,374.2,26.4,374.2z M26.4,360.3
	c-2.5,0-4.6,2.1-4.6,4.6s2.1,4.6,4.6,4.6s4.6-2.1,4.6-4.6C31,362.3,29,360.3,26.4,360.3z"/>
<circle cx="41.7" cy="382.3" r="4"/>
<path class="st2" d="M56,164.3L56,164.3c0,9.6,7.8,17.4,17.4,17.4l0,0l0,0c-9.6,0-17.4,7.8-17.4,17.4l0,0l0,0
	c0-9.6-7.8-17.4-17.4-17.4l0,0l0,0C48.2,181.7,56,173.9,56,164.3L56,164.3z"/>
<path class="st2" d="M596.9,156.2L596.9,156.2c0,9.6,7.8,17.4,17.4,17.4l0,0l0,0c-9.6,0-17.4,7.8-17.4,17.4l0,0l0,0
	c0-9.6-7.8-17.4-17.4-17.4l0,0l0,0C589.1,173.5,596.9,165.8,596.9,156.2L596.9,156.2z"/>
<circle cx="288.7" cy="39.3" r="4"/>
</svg>
