<?xml version="1.0" encoding="utf-8"?>
<!-- Generator: Adobe Illustrator 27.1.1, SVG Export Plug-In . SVG Version: 6.00 Build 0)  -->
<svg version="1.1" id="Calque_1" xmlns="http://www.w3.org/2000/svg" xmlns:xlink="http://www.w3.org/1999/xlink" x="0px" y="0px"
	 viewBox="0 0 720 509" style="enable-background:new 0 0 720 509;" xml:space="preserve">
<style type="text/css">
	.st0{fill:#EDEDED;}
	.st1{fill:#C6C6C5;}
	.st2{fill:#5E5EF7;}
	.st3{fill:#FFFFFF;}
	.st4{fill:#575756;}
</style>
<path d="M50.6,460.2c-0.6,0-1.2-0.2-1.7-0.7c-16.1-15.6-28-35.6-35.2-59.4C3,364.4,6.1,329,23,297.8c23.4-43.4,67.2-69.8,100.3-84.3
	c3.5-31.3,15.6-62.2,34.2-86.9c0.8-1.1,2.3-1.3,3.3-0.5c1.1,0.8,1.3,2.3,0.5,3.3c-18.3,24.4-30.2,55-33.4,85.9l-0.1,1.4l-1.3,0.6
	c-26.6,11.6-75,37.8-99.2,82.8c-16.2,30.1-19.3,64.2-8.8,98.8c6.9,23,18.4,42.2,33.9,57.3c0.9,0.9,1,2.4,0.1,3.4
	C51.9,459.9,51.2,460.2,50.6,460.2z"/>
<path class="st0" d="M359.3,439.3c-68.7-15.6-267.3,81-307.1-50.7C20.3,283.4,162.8,241.3,162.8,241.3S151.7,146,250,104.9
	s278.1,114.4,329.2,176c0,0,77.5-4.4,91.3,63.4C694.4,461,482.4,467.1,359.3,439.3z"/>
<g>
	<path class="st1" d="M331.6,118.1l14.4,22.1l11.5-6.1l1.9,49.9l62.4-1l1-52.8l11.5,8l16.6-23.1l-29.1-19.5H419
		c0,0-26.9,32.7-53.8,2.9L331.6,118.1z"/>
	<polygon class="st1" points="362.3,108.2 389.2,90.9 419,107.3 414.4,111.4 389.2,97.7 368.2,111.1 	"/>
	<path class="st1" d="M391.6,96.7c-0.5-0.4-12.4-9.8-11.3-18.1c0.6-4.5,5.2-8.4,10.5-8.7c5.7-0.4,10.3,3.3,12.2,10l-2.8,0.8
		c-1.5-5.3-4.8-8.2-9.2-7.9c-3.9,0.3-7.4,3.1-7.9,6.2c-0.7,5.5,7.1,13,10.2,15.4L391.6,96.7z"/>
	<rect x="389.9" y="54.6" class="st1" width="2.9" height="21.6"/>
</g>
<g>
	<path class="st1" d="M405.8,123.8l16.6,25.5l13.3-7L438,200l72.1-1.1l1.1-61l13.3,9.2l19.2-26.6L510.1,98h-3.3
		c0,0-31,37.7-62.1,3.3L405.8,123.8z"/>
	<polygon class="st1" points="441.3,112.3 472.4,92.4 506.8,111.2 501.4,116.1 472.4,100.1 448.1,115.7 	"/>
	<path class="st1" d="M475.1,99c-0.6-0.5-14.4-11.3-13.1-20.9c0.7-5.2,6-9.7,12.2-10.1c6.7-0.5,11.9,3.8,14.1,11.5l-3.2,0.9
		c-1.8-6.2-5.6-9.4-10.7-9.1c-4.5,0.3-8.6,3.6-9.1,7.2c-0.9,6.4,8.2,15,11.8,17.8L475.1,99z"/>
	<rect x="473.1" y="50.5" class="st1" width="3.4" height="24.9"/>
</g>
<path class="st2" d="M256.2,154.5c0,0,30.7,11.6,57.8-8.2c27.1-19.8,16.4-71.7,16.4-71.7s-48.4,21-27.7,55.9c0,0-37.7-38.5-78.8-16
	C223.8,114.6,227.7,138.3,256.2,154.5z"/>
<path class="st3" d="M278.4,153.8c-16.2,0-36.7-6-47.6-32.5l-0.6-1.4l1.2-0.9c1-0.7,24-18,61.6,8.7c0.9,0.6,1.1,1.8,0.5,2.7
	s-1.8,1.1-2.7,0.5c-30.5-21.7-50.7-12.5-55.8-9.6c18.6,42.6,63.6,25.7,65.5,24.9c1-0.4,2.1,0.1,2.5,1.1s-0.1,2.1-1.1,2.5
	C301.7,149.9,291.4,153.8,278.4,153.8z"/>
<path class="st3" d="M303.1,125.1c-1,0-1.8-0.7-1.9-1.7c0-0.3-2.8-29.5,23.9-39.9l1.6-0.6l0.8,1.6c0.3,0.7,8,16.4-1.3,33.6
	c-0.5,0.9-1.7,1.3-2.6,0.8s-1.3-1.7-0.8-2.6c6.7-12.4,3.5-24.2,1.9-28.4c-22.1,9.8-19.8,34.1-19.7,35.2c0.1,1.1-0.7,2-1.7,2.1
	C303.2,125.1,303.1,125.1,303.1,125.1z"/>
<path d="M284,134.5l4.1,16.1c0,0-76.8,63.2-56.3,158.8s97.4,115.7,97.4,115.7L321,452l54.9-2.7c0,0,92.5-92.4,74.1-177.6
	c-24.7-114.4-119.4-130.5-119.4-130.5l-6.9-12.1L284,134.5z"/>
<path class="st3" d="M332.7,443.7l4.2-23.8c-13.3-4.3-90.5-33-97.9-121.1c-7.6-89.8,43.3-134.5,49.9-140l2.8-16.9l11.9-1.5l15.1-9.1
	l8.7,17.3c10,2.1,83.2,21,110.9,114.3c29.7,99.9-71.1,176.5-72.1,177.3l-0.5,0.4L332.7,443.7z M295.5,145.8l-2.6,15.4l-0.7,0.5
	c-0.1,0.1-14.4,10.9-27.5,33c-12.1,20.4-25.6,55-21.5,103.6c7.8,92.8,95.7,117.6,96.6,117.8l1.9,0.5l-3.9,22l26.1-2.4
	c7.5-5.8,97.8-78.7,70-172.2c-15.1-50.7-43.8-78.3-65.2-92.5c-23.2-15.4-43.2-18.9-43.4-19l-1.1-0.2l-7.5-15l-12.3,7.1L295.5,145.8z
	"/>
<path class="st2" d="M314.9,310.4c-1.8,0-4.1-0.8-7.4-2.6c-4-2.2-4.2-5.1-3.9-6.6c0.3-1.7,1.3-3.3,2.6-4.6c0.3-0.8,1-2,2.8-2.7
	c0.3-0.1,0.7-0.2,1.1-0.3c1.8-1.1,3.5-1.8,4.8-2c2.3-0.4,3.3,0.9,3.6,1.4c0.4,0.7,0.3,1.5,0,2.1c0.8,0.5,1.5,1.1,2.1,1.8
	c1.7,2,2,4.4,0.8,6.6c-0.4,0.7-0.7,1.5-1,2.1c-0.8,1.8-1.6,3.7-3.7,4.5C316.1,310.3,315.5,310.4,314.9,310.4z M307.8,302.1
	c0,0.4,0.3,0.9,1.3,1.6C308.6,303.2,308.2,302.7,307.8,302.1z M310.6,298.4c0.2,0.4,0.5,0.9,1,1.5c0.1-0.9,0.3-1.6,0.5-2.2
	c-0.2,0-0.3,0-0.5,0C311.2,297.9,310.9,298.2,310.6,298.4z"/>
<path class="st2" d="M432.2,266c-1.8,0-4.1-0.8-7.4-2.6c-4-2.2-4.2-5.1-3.9-6.6c0.3-1.7,1.3-3.3,2.6-4.6c0.3-0.8,1-2,2.8-2.7
	c0.3-0.1,0.7-0.2,1.1-0.3c1.8-1.1,3.5-1.8,4.8-2c2.4-0.4,3.3,0.9,3.6,1.4c0.4,0.7,0.3,1.5,0,2.1c0.8,0.5,1.5,1.1,2.1,1.8
	c1.7,2,2,4.4,0.8,6.6c-0.4,0.7-0.7,1.5-1,2.1c-0.8,1.8-1.6,3.7-3.7,4.5C433.4,265.9,432.8,266,432.2,266z M425.1,257.7
	c0,0.4,0.3,0.9,1.3,1.6C425.9,258.8,425.5,258.2,425.1,257.7z M427.9,254c0.2,0.4,0.5,0.9,1,1.5c0.1-0.9,0.3-1.6,0.5-2.2
	c-0.2,0-0.3,0-0.5,0C428.5,253.5,428.2,253.7,427.9,254z"/>
<path class="st4" d="M344.9,185.3c0,0,14.3,34.5,39.6,33.7c25.3-0.8-14.3-32-19.4-33.7S347.4,179.4,344.9,185.3z"/>
<path class="st4" d="M328.9,173.5c0,0-10.9-10.1,0-10.9c10.9-0.8,21.1,5.9,18.5,10.1C344.9,176.9,341.5,180.3,328.9,173.5z"/>
<g>
	<path class="st3" d="M382.3,287.8c-1.3,0-2.5-0.3-3.6-0.8c-9.4-4.5-10.4-26.6-10.5-29.1c0-1.2,0.9-2.2,2.1-2.3
		c1.1,0.1,2.2,0.9,2.3,2.1c0.3,8.4,2.7,22.8,8,25.3c0.7,0.3,2.7,1.3,6.8-1.8c1-0.7,2.3-0.5,3.1,0.4c0.7,1,0.5,2.3-0.4,3.1
		C387.4,286.8,384.8,287.8,382.3,287.8z"/>
	<path class="st3" d="M342.7,285.6c-0.4,0-0.8-0.1-1.2-0.3c-1-0.6-1.3-2-0.7-3c0.8-1.3,8.1-12.3,15.7-11.8c3.5,0.2,6.4,2.6,8.5,7.1
		c0.5,1.1,0.1,2.4-1,2.9s-2.4,0.1-2.9-1c-1.4-2.9-3-4.5-4.8-4.6c-0.1,0-0.2,0-0.2,0c-4.4,0-9.9,7.2-11.6,9.8
		C344.2,285.3,343.5,285.6,342.7,285.6z"/>
	<path class="st3" d="M385,265.9c-0.3,0-0.6-0.1-0.9-0.2c-1.1-0.5-1.6-1.8-1.1-2.9c0.1-0.3,3.5-7.8,9.9-9.1
		c3.9-0.8,7.8,0.8,11.8,4.7c0.9,0.8,0.9,2.2,0,3.1s-2.2,0.9-3.1,0c-2.9-2.8-5.5-4-7.9-3.6c-4.2,0.8-6.7,6.5-6.8,6.5
		C386.6,265.4,385.8,265.9,385,265.9z"/>
	<path class="st3" d="M356.8,317.9c-4.3,0-7-0.2-7.2-0.2c-1.2-0.1-2.1-1.2-2-2.4c0.1-1.2,1.1-2.1,2.4-2c0.6,0,59,5,66.9-32.9
		c0.2-1.2,1.4-1.9,2.6-1.7c1.2,0.2,1.9,1.4,1.7,2.6C414.3,314.5,373.5,317.9,356.8,317.9z"/>
	<path class="st3" d="M387.3,327.4c-1.2,0-2.4-0.1-3.6-0.3c-9.4-1.8-14.1-10.2-14.3-10.5c-0.6-1.1-0.2-2.4,0.9-3
		c1-0.6,2.4-0.2,3,0.9c0,0.1,3.9,7,11.3,8.4c5.7,1.1,12.1-1.3,19.1-7.1c0.9-0.8,2.3-0.7,3.1,0.3c0.8,0.9,0.6,2.3-0.3,3.1
		C399.8,324.6,393.4,327.4,387.3,327.4z"/>
</g>
<polygon class="st2" points="210.8,382.4 518.4,372.9 516.6,483.5 214.2,483.5 "/>
<polygon points="216.2,483.5 173.9,74.1 183.1,74.1 225.5,481.7 "/>
<polygon points="511.4,483.5 526.2,50.1 535.4,48.2 522.5,487.2 "/>
<polygon class="st2" points="148.1,81.4 559.4,57.5 557.6,16.9 133.3,51.9 "/>
<path class="st1" d="M184.3,475.4c0,0,7.5-274.3-153.4-280.5c0,0,38.7,212,140.9,205.7l5,73.6l-28.7,10l54.9,1.2L184.3,475.4z"/>
<path d="M463,340.1l5.5,42.9c0,0,20.8,1.4,24.9-1.4c4.2-2.8,5.5-45.7,5.5-45.7L463,340.1z"/>
<path d="M467.7,372.2c-6.9,0-12.5-5.6-12.5-12.5s5.6-12.5,12.5-12.5s12.5,5.6,12.5,12.5C480.1,366.6,474.6,372.2,467.7,372.2z
	 M467.7,351.5c-4.6,0-8.3,3.7-8.3,8.3c0,4.6,3.7,8.3,8.3,8.3c4.6,0,8.3-3.7,8.3-8.3S472.2,351.5,467.7,351.5z"/>
<g>
	<polygon points="620.1,359.2 590.5,356.6 579.3,373.5 627,378.1 	"/>
	<polygon points="630.4,384.3 578.7,380 545,360.9 536.3,377.3 571.8,400 571,432.6 634.3,435.1 	"/>
	<polygon points="634.5,442.8 571.1,440.3 542.4,487.1 661.6,490.2 	"/>
</g>
<path class="st2" d="M278.5,381.2c-47,0-55.1-6.3-56.3-11.8c-0.5-2.2-0.4-14,45.6-30.6c1.1-0.4,2.4,0.2,2.8,1.3
	c0.4,1.1-0.2,2.4-1.3,2.8c-21.5,7.8-44,19.7-42.8,25.5c0.9,4.1,14.4,12.9,121.1,5.4c1.2-0.1,2.3,0.8,2.3,2c0.1,1.2-0.8,2.3-2,2.3
	C318.5,380.4,295.9,381.2,278.5,381.2z"/>
<path d="M678.3,439.2c-0.6,0-1.2-0.2-1.7-0.7c-0.9-0.9-0.9-2.5,0-3.4c26.4-25.9,36.3-59.7,28.5-97.8c-8.2-40-34.4-69.6-73.8-83.4
	c-10.8-3.8-22.5-6.3-34.6-7.6l-0.9-0.1l-0.6-0.7c-7.5-8.2-16-16.9-25.4-26c-0.9-0.9-1-2.4-0.1-3.4c0.9-0.9,2.4-1,3.4-0.1
	c9.2,8.9,17.6,17.5,25,25.5c12.2,1.3,23.9,3.9,34.8,7.7c41.1,14.4,68.4,45.2,76.9,87c8.1,39.8-2.2,75.1-29.9,102.2
	C679.5,438.9,678.9,439.2,678.3,439.2z"/>
<path d="M69.4,476.9c-5.2,0-9.5-4.3-9.5-9.5s4.3-9.5,9.5-9.5s9.5,4.3,9.5,9.5S74.6,476.9,69.4,476.9z M69.4,462.7
	c-2.6,0-4.7,2.1-4.7,4.7s2.1,4.7,4.7,4.7s4.7-2.1,4.7-4.7C74.1,464.8,72,462.7,69.4,462.7z"/>
<circle cx="89.7" cy="476.5" r="4.1"/>
<circle cx="668.7" cy="446.7" r="4.1"/>
<path class="st2" d="M562.2,171.2L562.2,171.2c0,9.8,7.9,17.7,17.7,17.7l0,0l0,0c-9.8,0-17.7,7.9-17.7,17.7l0,0l0,0
	c0-9.8-7.9-17.7-17.7-17.7l0,0l0,0C554.2,188.9,562.2,180.9,562.2,171.2L562.2,171.2z"/>
<path class="st2" d="M90,141.6L90,141.6c0,9.8,7.9,17.7,17.7,17.7l0,0l0,0c-9.8,0-17.7,7.9-17.7,17.7l0,0l0,0
	c0-9.8-7.9-17.7-17.7-17.7l0,0l0,0C82,159.4,90,151.4,90,141.6L90,141.6z"/>
<path class="st2" d="M367.6,396.4L367.6,396.4c0,18.5,15,33.4,33.4,33.4l0,0l0,0c-18.5,0-33.4,15-33.4,33.4l0,0l0,0
	c0-18.5-15-33.4-33.4-33.4l0,0l0,0C352.6,429.8,367.6,414.9,367.6,396.4L367.6,396.4z"/>
</svg>
