<?xml version="1.0" encoding="utf-8"?>
<!-- Generator: Adobe Illustrator 27.1.1, SVG Export Plug-In . SVG Version: 6.00 Build 0)  -->
<svg version="1.1" id="Calque_1" xmlns="http://www.w3.org/2000/svg" xmlns:xlink="http://www.w3.org/1999/xlink" x="0px" y="0px"
	 viewBox="0 0 720 496" style="enable-background:new 0 0 720 496;" xml:space="preserve">
<style type="text/css">
	.st0{fill:#EDEDED;}
	.st1{fill:#5E5EF7;}
	.st2{fill:#C6C6C5;}
	.st3{fill:#FFFFFF;}
	.st4{fill:none;}
	.st5{fill:#575756;}
</style>
<g>
	<path class="st0" d="M415.3,358.9c-56.6-42.7-257.1,184.2-341,52.2s55-206.2,55-206.2s-53.6-88,26.1-145.7s228.2,59.1,291.5,70.1
		s229.6-4.1,244.7,125.1S617.4,511.5,415.3,358.9z"/>
	<path d="M688.7,163.5c-0.6,0-1.2-0.2-1.7-0.7c-29.6-30.5-75.4-49.7-139.9-58.6c-1.3-0.2-2.2-1.4-2-2.7c0.2-1.3,1.4-2.2,2.7-2
		c65.6,9.1,112.2,28.7,142.6,60c0.9,0.9,0.9,2.4,0,3.4C689.9,163.3,689.3,163.5,688.7,163.5z"/>
	<path d="M42.7,433.6c-0.8,0-1.6-0.4-2-1.1C9.9,384,0.5,335.8,12.7,289.3c0.3-1.3,1.6-2,2.9-1.7s2,1.6,1.7,2.9
		C5.4,335.7,14.6,382.6,44.7,430c0.7,1.1,0.4,2.6-0.7,3.3C43.6,433.5,43.2,433.6,42.7,433.6z"/>
	<path d="M45.3,231.9c-0.5,0-1-0.2-1.4-0.5c-1-0.8-1.2-2.3-0.4-3.3C53.7,214.8,66,202.3,79.9,191C69.5,158.9,55.8,82.1,132.1,26.9
		c1.1-0.8,2.5-0.5,3.3,0.5c0.8,1.1,0.5,2.5-0.5,3.3C59.9,85,74.9,160.9,84.8,191l0.5,1.6l-1.3,1c-14.1,11.4-26.5,24-36.8,37.4
		C46.7,231.6,46,231.9,45.3,231.9z"/>
	<path class="st1" d="M29.7,243L29.7,243c0,9.7,7.9,17.6,17.6,17.6l0,0l0,0c-9.7,0-17.6,7.9-17.6,17.6l0,0l0,0
		c0-9.7-7.9-17.6-17.6-17.6l0,0l0,0C21.8,260.6,29.6,252.7,29.7,243L29.7,243z"/>
	<path d="M702.1,198.7L702.1,198.7c-2.6,0-4.9-1-6.7-2.8s-2.7-4.2-2.7-6.7s1-4.9,2.8-6.6c3.7-3.7,9.7-3.6,13.3,0.1
		c3.7,3.7,3.6,9.7-0.1,13.3l0,0C707,197.7,704.6,198.7,702.1,198.7z M707.1,194.3L707.1,194.3L707.1,194.3z M702.1,184.6
		c-1.2,0-2.4,0.4-3.3,1.3c-1.8,1.8-1.9,4.8,0,6.6c0.9,0.9,2,1.4,3.3,1.4c1.3-0.1,2.4-0.5,3.3-1.3l0,0c1.8-1.8,1.9-4.8,0-6.6
		C704.6,185,703.3,184.6,702.1,184.6z"/>
	<circle cx="708.4" cy="215.3" r="4.1"/>
	<circle cx="50.5" cy="441.6" r="4.1"/>
</g>
<g>
	<g>
		<circle class="st2" cx="198.1" cy="39.3" r="30.6"/>
		<polygon class="st2" points="234.4,16.2 236,31.1 358.7,31.1 355.4,14.6 		"/>
		<polygon class="st2" points="237.7,41.1 304,41.1 300.7,51 239.3,51 		"/>
		<polygon class="st2" points="239.1,59.3 316.4,59.3 315.5,64.9 238.2,63 		"/>
		<circle class="st2" cx="198.1" cy="117.5" r="30.6"/>
		<polygon class="st2" points="237.3,97.9 382.4,96 381.4,105.4 235.4,106.4 		"/>
		<polygon class="st2" points="236.3,114.9 324.9,113.9 324.9,122.4 238.2,123.3 		"/>
		<polygon class="st2" points="238.2,132.8 344.7,133.7 344.7,139.4 239.1,139.4 		"/>
		<circle class="st2" cx="198.1" cy="192.1" r="30.6"/>
		<polygon class="st2" points="234.4,170.6 350.3,169.7 350.3,183.8 235.4,181.9 		"/>
		<polygon class="st2" points="235.4,192.3 339,192.3 338.1,198.9 239.1,198.9 		"/>
		<polygon class="st2" points="235.4,207.4 276.8,207.4 275.9,213 234.4,213 		"/>
	</g>
	<polygon class="st1" points="272.4,389.7 273.7,469.7 139,461.5 134.9,388.5 	"/>
	<polyline class="st1" points="273.6,469.7 365.8,447.6 353.9,373.4 272.4,389.7 	"/>
	<polygon class="st1" points="134.9,388.5 244.9,366.5 353.9,373.4 266.9,392.7 	"/>
	<polygon points="163.7,374.8 163.7,383 277.9,384.4 334.2,370.7 332.8,359.7 263.7,353.7 	"/>
	<polygon points="163.7,374.8 132.1,259.3 258.6,253.8 263.7,353.7 	"/>
	<g>
		<polygon class="st3" points="178.9,365.2 152.7,273.1 246.2,267.6 251.7,354.2 		"/>
		<path class="st1" d="M177.2,367.8l-27.5-97l98.8-5.8l5.8,91.1L177.2,367.8z M155.8,275.3l24.7,87.3l68.7-10.4l-5.2-82.1
			L155.8,275.3z"/>
	</g>
	<polygon points="154.1,417.4 154.1,431.2 253.1,438 253.1,425.7 	"/>
	<circle cx="251.5" cy="411.7" r="2.9"/>
	<circle cx="241.1" cy="411.1" r="2.7"/>
	<g>
		<path class="st3" d="M163.7,426.3l63.2,4.1c0,0-27.5,60.5-79.7,52.2l-60.5-12.4C86.7,470.3,144.4,468.9,163.7,426.3z"/>
		<path d="M156.8,484.3c-3.2,0-6.4-0.2-9.7-0.8l-68.6-14l8.2-0.2c0.1,0,14.5-0.4,31-6c15.2-5.1,35.3-15.8,45.1-37.5l0.3-0.6h0.6
			l64.6,4.2l-0.6,1.2C227.5,431.3,202.9,484.3,156.8,484.3z M93.2,470.6l54.2,11.1c26.5,4.2,46.5-10,58.6-22.7
			c11-11.5,17.6-23.9,19.5-27.8l-61.2-4C148.7,460.8,108.9,468.8,93.2,470.6z"/>
	</g>
	<g>
		<path class="st3" d="M129,430.2c0,0,6.2-51,22.5-60.8c0,0-39-38-43.8-81.9c0,0-29.7,40.3-27.8,73.3
			C79.9,360.8,84.3,384.1,129,430.2z"/>
		<path d="M129.6,432.3l-1.4-1.4C83.9,385.1,79,362,78.9,361c-1.9-33.1,27.7-73.6,28-74l1.4-1.9l0.3,2.4
			c4.7,43.1,43.1,80.9,43.5,81.3l0.9,0.8l-1,0.6c-15.8,9.5-22,59.6-22.1,60.1L129.6,432.3z M107.1,290c-5.8,8.4-27.9,42.5-26.3,70.7
			c0,0.1,4.9,23.1,47.5,67.4c1.3-9.3,7.5-48.8,21.7-58.9C144.5,363.6,112.4,329.2,107.1,290z"/>
	</g>
	<polygon class="st1" points="297.9,151.3 211.2,143 209.6,239.5 232.6,245 216.7,281.9 255.5,249.6 280,253 	"/>
	<polygon class="st3" points="263.5,167.8 242.9,166.4 245.6,200.8 256.6,200.8 	"/>
	<ellipse class="st3" cx="248.4" cy="218" rx="8.2" ry="7.6"/>
	<g>
		<line class="st4" x1="172.7" y1="293.1" x2="205.3" y2="289.8"/>
		<polygon points="172.8,294.1 172.6,292 205.2,288.8 205.4,290.8 		"/>
	</g>
	<g>
		<line class="st4" x1="173.7" y1="299.6" x2="219.7" y2="294.4"/>
		<rect x="173.5" y="296" transform="matrix(0.994 -0.1096 0.1096 0.994 -31.3714 23.3437)" width="46.3" height="2.1"/>
	</g>
	<g>
		<line class="st4" x1="175.1" y1="306.5" x2="198.7" y2="303.3"/>
		<rect x="174.9" y="303.9" transform="matrix(0.9906 -0.1365 0.1365 0.9906 -39.8777 28.3603)" width="23.9" height="2.1"/>
	</g>
</g>
<g>
	<path class="st1" d="M498.9,100.1c0,0-30.5,11.5-57.4-8.1s-16.3-71.3-16.3-71.3s48.1,20.9,27.6,55.6c0,0,37.5-38.3,78.3-15.9
		C531.1,60.4,527.2,84,498.9,100.1z"/>
	<path class="st3" d="M476.8,99.3c-13,0-23.2-3.8-23.4-3.9c-1-0.4-1.5-1.5-1.1-2.5s1.5-1.5,2.5-1.1c1.9,0.7,46.6,17.5,65.1-24.8
		c-5-3-24.8-12.2-55.4,9.5c-0.9,0.6-2.1,0.4-2.7-0.5s-0.4-2.1,0.5-2.7c37.3-26.6,60.2-9.4,61.2-8.6l1.2,0.9l-0.6,1.3
		C513.3,93.4,492.9,99.3,476.8,99.3z"/>
	<path class="st3" d="M452.3,70.8c-0.1,0-0.1,0-0.2,0c-1.1-0.1-1.8-1.1-1.7-2.1c0.1-1,2.4-25.2-19.6-35c-1.6,4.2-4.8,15.9,1.9,28.2
		c0.5,0.9,0.2,2.1-0.8,2.6c-0.9,0.5-2.1,0.2-2.6-0.8c-9.3-17-1.6-32.7-1.3-33.3l0.8-1.6l1.6,0.6C457,39.7,454.2,68.8,454.1,69
		C454.1,70.1,453.3,70.8,452.3,70.8z"/>
	<path d="M436.5,62.8L426.7,80c0,0-104.8,35.8-104.8,144.7S415.5,381,415.5,381l12.6,20.1h47.5l2.8-20.1c0,0,88-71.7,72.7-169.1
		c-14.5-92-81-129-81-129l-4.2-18.6L436.5,62.8z"/>
	<path class="st3" d="M433.1,396.6L422.2,376c-7.7-4.5-88.9-53.4-92.3-140.3c-3.9-100.8,71-139.9,104.9-152.3l2.5-16.9l2.1,0.3
		c1.5,0.2,8.7,1.3,11.5,4.2c0.6-0.2,1.7-0.9,2.4-1.4c2.2-1.5,4.9-3.3,7.9-2.8c5.1,0.8,5.3,11.1,4.5,20.1c10.6,6.5,85.5,56,81,153.3
		c-3.9,83.1-71.5,134.4-81,141.2l1.5,13.4L433.1,396.6z M441,71.5l-2.3,15.1l-1.2,0.4c-32.3,11.6-107.1,49.3-103.3,148.4
		c3.4,88.3,89.8,136.5,90.6,137l0.6,0.3l10.2,19.3l26.8-1.4l-1.3-11.4l1.1-0.7c0.8-0.5,76.1-51.8,80.2-138.5
		c4.7-101.4-79.2-149.6-80-150l-1.2-0.7l0.1-1.4c0.8-7.7,0.3-15.8-1-16.9c-1.1-0.2-3,1.1-4.6,2.2c-2.2,1.4-5.5,3.6-7.9,0.8
		C447,73.1,444,72.1,441,71.5z"/>
	<path class="st1" d="M455.2,451.3h-44l0.7-2.7c0.1-0.4,2.9-10.8,10.9-14c4.5-1.8,9.7-0.9,15.3,2.6c1,0.6,1.3,2,0.7,3
		c-0.6,1-2,1.3-3,0.7c-4.3-2.7-8.2-3.5-11.3-2.3c-3.8,1.5-6.1,5.6-7.3,8.3H448l-34.4-65c-0.6-1.1-0.2-2.4,0.9-2.9
		c1.1-0.6,2.4-0.2,2.9,0.9L455.2,451.3z"/>
	<path class="st1" d="M514.6,451.3h-42.4l4-70.5c0.1-1.2,1-2.2,2.3-2c1.2,0.1,2.1,1.1,2,2.3l-3.8,65.9h30.6
		c-2.2-3.4-6.2-8.4-11.2-9.5c-3.1-0.6-6.1,0.4-9.3,3.2c-0.9,0.8-2.3,0.7-3.1-0.2c-0.8-0.9-0.7-2.3,0.2-3.1c4.2-3.7,8.6-5.1,13.1-4.2
		c9.7,2,15.7,14.4,16,15L514.6,451.3z"/>
	<g>
		<path class="st3" d="M386,243.9c-1.8,0-3.8-0.4-5.9-1.2c-1.1-0.4-1.7-1.7-1.3-2.8c0.4-1.1,1.6-1.7,2.8-1.3c3.7,1.3,6.3,1.2,8-0.4
			c4.8-4.5,2.7-20.5,0.3-29.5c-0.3-1.2,0.4-2.4,1.5-2.7c1.2-0.3,2.4,0.4,2.7,1.5c0.7,2.7,6.8,26.1-1.5,33.8
			C390.8,243.1,388.6,243.9,386,243.9z"/>
		<path class="st3" d="M406.3,229.8c-0.1,0-0.2,0-0.3,0c-1.2-0.2-2-1.3-1.8-2.5c0.8-5.3,3-8.7,6.5-10c7.9-2.9,18.9,6.2,20.2,7.3
			c0.9,0.8,1,2.2,0.2,3.1c-0.8,0.9-2.2,1-3.1,0.2c-2.6-2.2-11.2-8.3-15.8-6.5c-1.9,0.7-3.2,2.9-3.7,6.6
			C408.3,229,407.4,229.8,406.3,229.8z"/>
		<path class="st3" d="M358.2,223.3c-0.1,0-0.2,0-0.4,0c-1.2-0.2-2-1.3-1.8-2.5c0.7-4.4,2.7-7.3,5.9-8.7c7-3.1,16.8,3,17.9,3.8
			c1,0.7,1.3,2,0.6,3c-0.6,1-2,1.3-3,0.6c-2.4-1.6-9.7-5.3-13.8-3.4c-1.8,0.8-2.9,2.6-3.3,5.5C360.2,222.6,359.3,223.3,358.2,223.3z
			"/>
		<path class="st1" d="M457.7,245.9c-0.1,0-0.1,0-0.2,0c-2.3-0.1-3.6-1.7-4.8-3.2c-0.5-0.5-1-1.1-1.5-1.7c-1.8-1.8-2.2-4.1-1.2-6.5
			c0.4-0.8,0.9-1.6,1.5-2.3c-0.5-0.5-0.8-1.3-0.7-2c0.1-0.6,0.7-2.1,3-2.4c1.3-0.2,3.1,0,5.1,0.5c0.4,0,0.8,0,1.1,0
			c1.9,0.1,2.9,1,3.4,1.8c1.7,0.9,3.1,2.1,3.8,3.6c0.7,1.4,1.4,4.2-1.8,7.5C462.1,244.5,459.8,245.9,457.7,245.9z M463.5,235.8
			c-0.2,0.6-0.5,1.2-0.8,1.9C463.5,236.7,463.6,236.2,463.5,235.8z M458.1,232.7c0.4,0.5,0.7,1.2,1.1,2c0.3-0.7,0.5-1.3,0.6-1.7
			c-0.4-0.2-0.9-0.3-1.4-0.5C458.3,232.6,458.2,232.7,458.1,232.7z"/>
		<path class="st3" d="M396.7,292.2c-9.3,0-19.6-4.1-30.6-12.3c-1-0.7-1.2-2.1-0.5-3c0.7-1,2.1-1.2,3-0.5
			c14,10.3,26.3,13.7,36.8,9.9c14.7-5.3,22-23.2,24.6-30.7c-39.5,7.4-71.1-3.4-72.5-3.9c-1.1-0.4-1.7-1.6-1.3-2.8
			c0.4-1.1,1.6-1.7,2.8-1.3c0.3,0.1,33.8,11.5,73.7,3.1l3.4-0.7l-0.8,3.4c-0.3,1.2-7.5,29.6-28.3,37.1
			C403.6,291.6,400.2,292.2,396.7,292.2z"/>
		<path class="st1" d="M333.3,238c-0.1,0-0.1,0-0.2,0c-2.3-0.1-3.6-1.7-4.8-3.2c-0.5-0.5-1-1.1-1.5-1.7c-1.8-1.7-2.2-4.1-1.2-6.5
			c0.4-0.8,0.9-1.6,1.5-2.3c-0.5-0.5-0.8-1.2-0.7-2c0.1-0.6,0.7-2.1,3-2.4c1.3-0.2,3.2,0,5.1,0.5c0.4,0,0.8,0,1.1,0
			c1.9,0.1,2.9,1,3.4,1.8c1.7,0.9,3.1,2.1,3.8,3.6c0.7,1.4,1.4,4.2-1.8,7.5C337.7,236.6,335.4,238,333.3,238z M339.1,227.9
			c-0.2,0.6-0.5,1.2-0.8,1.9C339.1,228.8,339.2,228.2,339.1,227.9z M333.7,224.8c0.4,0.5,0.7,1.2,1.1,2c0.3-0.7,0.5-1.3,0.6-1.7
			c-0.5-0.2-0.9-0.3-1.4-0.5C333.9,224.7,333.8,224.8,333.7,224.8z"/>
	</g>
	<path class="st5" d="M478.9,136.1c0,0,6.4,36.6,31.1,41.2c24.7,4.6-7-34.1-11.5-36.9C494,137.8,482.6,131,478.9,136.1z"/>
	<path class="st5" d="M465.9,121.2c0,0-8.4-12.2,2.4-10.6c10.8,1.5,19.1,10.3,15.8,13.8S476.7,130.5,465.9,121.2z"/>
	<g>
		<path class="st3" d="M533.1,239.7c0,0-30.7,69.7-30.7,82.5h80.4c0,0,36.6-77,43.9-80.7C633.9,237.9,533.1,239.7,533.1,239.7z"/>
		<path d="M583.4,323.2h-81.9v-0.9c0-12.9,29.5-80,30.8-82.9l0.2-0.5h0.6c0.2,0,23.6-0.4,46.7-0.5c1,0,2.1,0,3.1,0
			c44.5,0,44.8,1.4,45.1,2.6c0.1,0.3,0.1,1-0.9,1.5c-5.2,2.6-28.8,49.4-43.4,80.2L583.4,323.2z M503.3,321.3h78.9
			c4.6-9.7,34.4-71.8,43.1-79.9c-8.4-1.6-58-1.4-91.6-0.8C530.9,247,504.6,307.4,503.3,321.3z"/>
	</g>
	<g>
		<polygon class="st3" points="502.4,322.2 509.7,393.7 603.2,391.9 582.8,322.2 		"/>
		<path d="M508.8,394.7l-0.1-0.9l-7.4-72.5h82.1l0.2,0.7l20.8,70.8L508.8,394.7z M503.4,323.2l7.1,69.6L602,391l-19.9-67.8H503.4z"
			/>
	</g>
	<path class="st1" d="M333.4,347c-14.4,0-16.4-4.1-17.5-6.3c-5.7-11.3,20.4-31,25.7-34.9c1-0.7,2.3-0.5,3,0.5s0.5,2.3-0.5,3
		c-11.9,8.7-27.4,23.5-24.4,29.4c2.6,5.2,23.4,12.5,159.9-31.4c1.2-0.4,2.4,0.3,2.7,1.4c0.4,1.1-0.3,2.4-1.4,2.7
		C392.9,339.8,352.4,347,333.4,347z"/>
	<path class="st1" d="M595.1,318.9c-0.3,0-0.6-0.1-0.9-0.2l-13.3-5.7c-1.1-0.5-1.6-1.8-1.1-2.9s1.8-1.6,2.9-1.1l13.3,5.7
		c1.1,0.5,1.6,1.8,1.1,2.9C596.7,318.4,595.9,318.9,595.1,318.9z"/>
	<path class="st1" d="M599.3,311.7c-0.3,0-0.6-0.1-0.9-0.2l-15.3-6.9c-1.1-0.5-1.6-1.8-1.1-2.9s1.8-1.6,2.9-1.1l15.3,6.9
		c1.1,0.5,1.6,1.8,1.1,2.9C600.9,311.2,600.1,311.7,599.3,311.7z"/>
	<path class="st1" d="M603.5,304.5c-0.3,0-0.7-0.1-1-0.2l-13.7-6.9c-1.1-0.5-1.5-1.8-1-2.9s1.8-1.5,2.9-1l13.7,6.9
		c1.1,0.5,1.5,1.8,1,2.9C605,304,604.3,304.5,603.5,304.5z"/>
	<g>
		<path class="st3" d="M528.5,442.8c0,0,47.7-33,62.3-34.8s99,5.5,99,5.5l-62.3,31.2c0,0-100.8-9.2-100.8,0s99,11,99,11l62.5-31.5
			l-14.7-2.5"/>
		<path d="M625.9,456.5h-0.2c-0.2,0-25.1-0.5-49.5-2.1c-50.4-3.3-50.4-7.9-50.4-9.9c0-0.5,0.2-1.1,0.9-1.8c0.3-0.3,0.8-0.6,1.5-0.9
			c2.9-2,48.1-33.1,62.7-34.9c14.6-1.8,95.7,5.2,99.2,5.5l3.3,0.3l-16.6,8.3l14.6,2.5L625.9,456.5z M529,443.5
			c-0.5,0.2-0.9,0.4-1.2,0.7c-0.2,0.2-0.2,0.3-0.2,0.4c0,4.1,36.6,8.9,97.8,10.1l59.8-30.2l-11.5-2l-46.1,23h-0.3
			c-24.3-2.2-86.9-6.6-98.2-2.1C529.1,443.5,529,443.5,529,443.5L529,443.5z M553.5,439.6c27.5,0,66.7,3.4,73.8,4.1l59.1-29.6
			c-15.7-1.3-82.7-6.8-95.5-5.2c-11.7,1.5-45.7,23.7-57.7,31.8C538.2,439.9,545.3,439.6,553.5,439.6z"/>
	</g>
</g>
</svg>
