<?xml version="1.0" encoding="utf-8"?>
<!-- Generator: Adobe Illustrator 27.1.1, SVG Export Plug-In . SVG Version: 6.00 Build 0)  -->
<svg version="1.1" id="Calque_1" xmlns="http://www.w3.org/2000/svg" xmlns:xlink="http://www.w3.org/1999/xlink" x="0px" y="0px"
	 viewBox="0 0 720 608" style="enable-background:new 0 0 720 608;" xml:space="preserve">
<style type="text/css">
	.st0{fill:#EDEDED;}
	.st1{fill:#ECECEC;}
	.st2{fill:#C6C6C5;}
	.st3{fill:#FFFFFF;}
	.st4{fill:#5E5EF7;}
	.st5{fill:#131313;}
	.st6{fill:#575756;}
</style>
<path class="st0" d="M355,439.3c-91.5,0-314.2-16.7-302.9-132.9c12.8-132.1,144.4-93,144.4-93S176.1,68.9,342.8,52.3
	s193.6,193,193.6,193s129,15.8,131.9,90.9C671.3,415.2,466.8,439.3,355,439.3z"/>
<ellipse class="st1" cx="359.9" cy="579" rx="112.8" ry="19.1"/>
<g>
	<g>
		<path class="st2" d="M112.5,499.7c-14.3,0-24.1-3.4-28.2-10.4c-18.6-32.2,88-127.4,242.6-216.7c58-33.5,115.5-61.9,166.4-82.1
			c1.2-0.5,2.5,0.1,3,1.3s-0.1,2.5-1.3,3c-50.6,20.1-108,48.4-165.8,81.8C198,352.4,69.9,455,88.3,487
			c18.5,32,171.4-27.7,302.7-103.5c92.1-53.2,172-111.7,213.7-156.5c0.9-0.9,2.3-1,3.3-0.1c0.9,0.9,1,2.3,0.1,3.3
			c-42,45.2-122.3,104-214.8,157.4C272.6,457.2,163.4,499.7,112.5,499.7z"/>
		<path class="st2" d="M633.9,174.3c-0.8,0-1.6-0.4-2-1.2c-5-8.6-21.8-10.6-48.7-5.8c-1.2,0.2-2.5-0.6-2.7-1.9
			c-0.2-1.3,0.6-2.5,1.9-2.7c29.4-5.3,47.3-2.6,53.5,8c0.6,1.1,0.3,2.5-0.8,3.2C634.7,174.2,634.3,174.3,633.9,174.3z"/>
		<path class="st2" d="M605.3,506.6c-49.9,0-159.4-45.8-280-120c-84.1-51.7-157.2-107.3-200.5-152.5c-0.9-0.9-0.8-2.4,0.1-3.3
			c0.9-0.9,2.4-0.8,3.3,0.1c43,45,115.8,100.3,199.5,151.8C456.9,462,608.1,525.9,627.5,494.5c19.3-31.5-105.9-137.6-235-217
			c-71.8-44.2-142.8-80-199.8-100.9c-55.2-20.3-91.6-24.2-99.8-10.9c-2.2,3.5-2.3,8.3-0.5,14.3c0.4,1.2-0.3,2.5-1.6,2.9
			c-1.2,0.4-2.5-0.3-2.9-1.6c-2.2-7.3-1.8-13.4,1-18.1c12.3-20,64.1-6.2,105.4,9c57.3,21,128.6,57,200.7,101.3
			C547.1,367,651,465.1,631.5,496.8C627.4,503.4,618.4,506.6,605.3,506.6z"/>
	</g>
	<g>
		<polygon points="198,284.7 124,351.7 90.4,312.1 162.1,246 		"/>
		<polygon class="st3" points="185.9,287 160.2,256.3 109.4,304.2 135.8,330.7 		"/>
		<circle class="st4" cx="113.3" cy="326" r="3.8"/>
	</g>
	<g>
		<polygon points="562,355.6 564.5,360.8 636.7,326.2 667.9,300.1 663.6,293.6 618.3,311.3 		"/>
		<polygon points="562,355.6 506.3,292.8 584.1,250.1 618.3,311.3 		"/>
		<g>
			<polygon class="st3" points="568.5,344.8 523.5,295 580.6,262.6 610.9,315.3 			"/>
			<path class="st4" d="M568.2,347l-47.4-52.4l60.3-34.3l31.9,55.5L568.2,347z M526.1,295.4l42.6,47.2l40-27.8l-28.7-50L526.1,295.4
				z"/>
		</g>
	</g>
	<g>
		<circle cx="219.2" cy="129.9" r="26"/>
		<path class="st3" d="M228.5,154.5c-0.5,0-1.1-0.2-1.5-0.6l-17.6-15.2l20.1-15.9l5.4,25.5c0.3,1.2-0.5,2.5-1.8,2.7
			c-1.2,0.3-2.5-0.5-2.7-1.8l-3.8-18.2l-9.9,7.8l13.4,11.5c1,0.8,1.1,2.3,0.2,3.3C229.8,154.2,229.1,154.5,228.5,154.5z"/>
		<g>
			<path class="st4" d="M228,165.3c-0.7,0-1.4-0.3-1.8-0.9c-0.8-1-0.6-2.5,0.4-3.2l16.7-12.6c1-0.8,2.5-0.6,3.2,0.4
				c0.8,1,0.6,2.5-0.4,3.2l-16.7,12.6C229,165.1,228.5,165.3,228,165.3z"/>
			<path class="st4" d="M232.1,172.4c-0.7,0-1.4-0.3-1.8-0.9c-0.8-1-0.6-2.5,0.4-3.2l16.7-12.6c1-0.8,2.5-0.6,3.2,0.4
				c0.8,1,0.6,2.5-0.4,3.2l-16.7,12.6C233.1,172.2,232.6,172.4,232.1,172.4z"/>
			<path class="st4" d="M240.2,175.6c-0.7,0-1.4-0.3-1.8-0.9c-0.8-1-0.6-2.5,0.4-3.2l6.6-5c1-0.8,2.5-0.6,3.2,0.4
				c0.8,1,0.6,2.5-0.4,3.2l-6.6,5C241.2,175.4,240.7,175.6,240.2,175.6z"/>
			<path class="st4" d="M223.8,158c-0.7,0-1.4-0.3-1.8-0.9c-0.8-1-0.6-2.5,0.4-3.2l16.7-12.6c1-0.8,2.5-0.6,3.2,0.4
				c0.8,1,0.6,2.5-0.4,3.2l-16.7,12.6C224.8,157.9,224.3,158,223.8,158z"/>
		</g>
	</g>
	<path class="st5" d="M656.8,194.7L636.7,182c-4.8-3-11.1-1.6-14.1,3.2L610,205.3c-3,4.8-1.6,11.1,3.2,14.1l20.1,12.6
		c4.8,3,11.1,1.6,14.1-3.2l12.6-20.1C663,204,661.6,197.7,656.8,194.7z M621.5,215l-4.9-3.1l10.1-16l4.9,3.1L621.5,215z
		 M630.4,195.4c-1.6-1-2.1-3.2-1.1-4.8s3.2-2.1,4.8-1.1s2.1,3.2,1.1,4.8C634.1,195.9,632,196.4,630.4,195.4z M640,226.7l-4.9-3.1
		c0,0,3.8-6.1,5.3-8.4c1.4-2.3,1.4-4.1-0.4-5.3c-2-1.2-3.9-0.6-5.3,1.7c-1.5,2.5-5.3,8.4-5.3,8.4l-4.7-3l10.1-16l4.7,3l-1.4,2.2
		c0,0,3.1-1.7,6.5,0.4c3.4,2.1,4.5,5.7,1.8,10C643.7,220.8,640,226.7,640,226.7z"/>
	<path class="st4" d="M525.2,126.8l-30.9,22.9c-7.3,5.4-8.9,15.8-3.4,23.1l22.9,30.9c5.4,7.3,15.8,8.9,23.1,3.4l7.8-5.8l-16.3-22
		l-4.6,3.4l-5.6-7.6l4.6-3.4c0,0-0.8-1.1-4.4-6c-4.2-5.6-3.3-10.8,3.3-15.7c1.1-0.8,6.2-4.6,6.2-4.6l5.8,7.8c0,0-3.5,2.6-4.8,3.6
		c-1.7,1.3-1.5,2.2-0.2,4c1.1,1.5,3.2,4.3,3.2,4.3l6.9-5.1l4.9,8l-6.2,4.6l16.4,22.1l14.1-10.5c7.3-5.4,8.9-15.8,3.4-23.1
		l-22.9-30.9C542.9,122.9,532.6,121.3,525.2,126.8z"/>
	<g>
		<path class="st5" d="M105,200.8c6,3.7,6.7,4.2,9,5.8c2.1,1.5,3.1,2.6,3.7,3.4c0.8,1.1,1.2,2,1.5,3.3s0.3,2.3,0.1,3.6
			c-0.2,1-0.6,2.4-1.8,4.7c-1.4,2.4-1.8,3.2-5.5,9.2s-4.2,6.7-5.8,9c-1.5,2.1-2.6,3.1-3.4,3.7c-1.1,0.8-2,1.2-3.3,1.5
			s-2.3,0.3-3.6,0.1c-1-0.2-2.4-0.6-4.7-1.8c-2.4-1.4-3.2-1.8-9.2-5.5s-6.7-4.2-9-5.8c-2.1-1.5-3.1-2.6-3.7-3.4
			c-0.8-1.1-1.2-2-1.5-3.3s-0.3-2.3-0.1-3.6c0.2-1,0.6-2.4,1.8-4.7c1.4-2.4,1.8-3.2,5.5-9.2s4.2-6.7,5.8-9c1.5-2.1,2.6-3.1,3.4-3.7
			c1.1-0.8,2-1.2,3.3-1.5s2.3-0.3,3.6-0.1c1,0.2,2.4,0.6,4.7,1.8C98.2,196.6,99,197.1,105,200.8 M107.5,196.7
			c-6.1-3.8-6.9-4.2-9.3-5.6c-2.5-1.4-4.3-2-6.1-2.3c-1.8-0.3-3.6-0.4-5.6,0.1s-3.6,1.2-5.1,2.4c-1.4,1.1-2.8,2.5-4.4,4.8
			s-2.1,3.1-5.9,9.2c-3.8,6.1-4.2,6.9-5.6,9.3c-1.4,2.5-2,4.3-2.3,6.1s-0.4,3.6,0.1,5.6s1.2,3.6,2.4,5.1c1.1,1.4,2.5,2.8,4.8,4.4
			c2.3,1.6,3.1,2.1,9.2,5.9c6.1,3.8,6.9,4.2,9.3,5.6c2.5,1.4,4.3,2,6.1,2.3c1.8,0.3,3.6,0.4,5.6-0.1s3.6-1.2,5.1-2.4
			c1.4-1.1,2.8-2.5,4.4-4.8s2.1-3.1,5.9-9.2c3.8-6.1,4.2-6.9,5.6-9.3c1.4-2.5,2-4.3,2.3-6.1s0.4-3.6-0.1-5.6s-1.2-3.6-2.4-5.1
			c-1.1-1.4-2.5-2.8-4.8-4.4C114.3,201,113.6,200.5,107.5,196.7"/>
		<path class="st5" d="M100.7,207.7c-6.4-4-14.7-2-18.7,4.4s-2,14.7,4.4,18.7s14.7,2,18.7-4.4C109,220,107.1,211.6,100.7,207.7
			 M88.9,226.7c-4.1-2.6-5.4-8-2.8-12.1s8-5.4,12.1-2.8c4.1,2.6,5.4,8,2.8,12.1S93,229.3,88.9,226.7"/>
		<path class="st5" d="M115.7,216.4c-0.9,1.5-2.9,1.9-4.4,1s-1.9-2.9-1-4.4s2.9-1.9,4.4-1C116.1,212.9,116.6,214.9,115.7,216.4"/>
	</g>
</g>
<g>
	<path class="st4" d="M445.8,142.7c0,0-29.5,28.6-70.4,19.4S320.8,88,320.8,88s66,0,59.7,50.4c0,0,24.1-63,82.5-57.6
		C463,80.8,470.3,110,445.8,142.7z"/>
	<path class="st3" d="M390.9,160.2l-0.2-4.8c0.2,0,16.4-0.7,32.2-9c20.3-10.6,30.6-28.2,30.7-52.3c-7.3-1-34.8-1.7-59.2,38.8
		l-4.1-2.5c29.8-49.4,64.8-41,66.3-40.7l1.8,0.5V92c0.7,33.9-17.8,50.6-33.4,58.7C408.2,159.4,391.6,160.1,390.9,160.2z"/>
	<path class="st3" d="M347.2,135.7c-19.3-15.1-18.3-37-18.2-37.9l0.1-2.2l2.2-0.1c35.7-1.4,47.2,33.5,47.3,33.9l-4.6,1.4
		c-0.4-1.3-9.9-30.3-40.2-30.6c0.3,5.6,2.5,20.8,16.3,31.6L347.2,135.7z"/>
	<path d="M356.3,123.4l-10,20.9c0,0-103.8,36.2-116.6,150C215.4,421.7,337,499.8,337,499.8l21.1,10.5l34.9-22.8
		c0,0,95.5-54.9,96.2-172.4S403.6,152,403.6,152l-6.6-23L356.3,123.4z"/>
	<path class="st3" d="M365.9,494.3h-0.1l-20.4-0.8c-3.6-0.1-7-2-9.1-5l-6.9-10.1c-7.5-4.2-86.6-50.8-87.8-169.4
		c-1.2-117.9,99.1-157.5,110.2-161.5l4.6-9.3c1.3-2.5,3.5-4.5,6.3-5.3c2.7-0.8,5.7-0.4,8.1,1l5.7,3.4l9.8,1c3.7,0.4,6.9,2.6,8.6,6
		l8.5,17.5c6.2,5.3,78.7,70.1,75.3,168.4c-3.4,97.9-83.8,141.1-91.6,145.1l-3.8,5.5C380.6,485.4,371.5,494.3,365.9,494.3z
		 M365.7,137.3c-0.5,0-1,0.1-1.6,0.2c-1.5,0.4-2.6,1.4-3.3,2.8l-5.5,11.1l-1,0.3c-1.1,0.4-109.1,36.6-107.9,157.2
		c1.2,120.8,84.9,165,85.7,165.4l0.6,0.3l7.5,11.1c1.2,1.7,3.2,2.8,5.3,2.9l20.4,0.8l0,0c2.5,0,10.2-6.1,13.5-11.3l0.1-0.1l4.5-6.6
		l0.6-0.3c0.9-0.4,86-41.8,89.4-141.2c3.4-99.7-73.2-164.2-74-164.8l-0.6-0.8l-8.8-17.9c-0.9-1.9-2.7-3.1-4.7-3.3l-11.4-1.4
		l-6.2-3.7C367.6,137.6,366.7,137.3,365.7,137.3z"/>
	<path class="st6" d="M414.8,204c9.4-5.8,32.4,37.4,36.5,55.4c4.2,17.9-10.2,20.6-13.1,10.9c-2.9-9.6-27.8-53-27.6-56.6
		C410.8,210.2,410.5,206.6,414.8,204z"/>
	<path class="st6" d="M408.8,195.3c-1.9,4.3-23.3-4.4-24.6-19.8S413,186.2,408.8,195.3z"/>
	<g>
		<path class="st3" d="M351.3,340.5c-1.9,0-3.9-0.4-6.1-1.1c-1.3-0.4-2-1.8-1.6-3c0.4-1.3,1.8-2,3-1.6c4.2,1.3,7.1,1.1,8.9-0.7
			c5.2-5.1,2.2-22.8-0.8-32.7c-0.4-1.3,0.3-2.6,1.6-3c1.3-0.4,2.6,0.3,3,1.6c0.9,2.9,8.6,28.7-0.4,37.5
			C357,339.5,354.4,340.5,351.3,340.5z"/>
		<path class="st4" d="M429.8,328.8C429.8,328.8,429.7,328.8,429.8,328.8c-2.5,0-4.1-1.7-5.5-3.3c-0.5-0.6-1.1-1.2-1.8-1.8
			c-2.1-1.9-2.6-4.5-1.5-7.2c0.4-0.9,0.9-1.8,1.6-2.6c-0.6-0.5-0.9-1.4-0.8-2.2c0.1-0.7,0.6-2.3,3.3-2.8c1.4-0.2,3.5-0.1,5.7,0.3
			c0.4-0.1,0.9-0.1,1.2-0.1c2.1,0,3.3,1,3.9,1.8c1.9,1,3.5,2.2,4.4,3.9c0.8,1.5,1.7,4.6-1.7,8.3
			C434.7,327.1,432.2,328.8,429.8,328.8z M436,317.3c-0.2,0.7-0.5,1.4-0.8,2.1C436.1,318.3,436.1,317.7,436,317.3z M429.9,314.1
			c0.4,0.6,0.9,1.3,1.3,2.2c0.3-0.8,0.5-1.4,0.5-1.9c-0.5-0.2-1-0.3-1.5-0.4C430.2,314,430.1,314.1,429.9,314.1z"/>
		<path class="st4" d="M282.8,327.7C282.8,327.7,282.7,327.7,282.8,327.7c-2.5,0-4.1-1.7-5.5-3.3c-0.5-0.6-1.1-1.2-1.8-1.8
			c-2.1-1.9-2.6-4.5-1.5-7.2c0.4-0.9,0.9-1.8,1.6-2.6c-0.6-0.5-1-1.4-0.8-2.2c0.1-0.7,0.6-2.3,3.3-2.8c1.4-0.2,3.5-0.1,5.7,0.3
			c0.4-0.1,0.8-0.1,1.2-0.1c2.1,0.1,3.3,1,3.9,1.8c1.9,1,3.5,2.2,4.4,3.9c0.8,1.5,1.7,4.6-1.7,8.3
			C287.7,326,285.2,327.7,282.8,327.7z M289,316.2c-0.2,0.7-0.5,1.4-0.8,2.1C289.1,317.3,289.1,316.6,289,316.2z M282.9,313
			c0.4,0.6,0.9,1.3,1.3,2.2c0.3-0.8,0.5-1.4,0.5-1.9c-0.5-0.2-1-0.3-1.5-0.4C283.2,312.9,283.1,313,282.9,313z"/>
		<path class="st3" d="M368.1,361.3c-24.5,0-52.1-4.7-57.2-5.6c-1.3-0.2-2.2-1.5-2-2.8s1.5-2.2,2.8-2c32.7,5.8,86.4,9.9,91.3-3.5
			c0.5-1.3,1.8-1.9,3.1-1.4c1.2,0.5,1.9,1.8,1.4,3.1C404.1,358.5,387,361.3,368.1,361.3z"/>
		<path class="st3" d="M338.6,315.5c-0.5,0-1.1-0.2-1.5-0.5c-8.8-7.2-22.7-0.3-22.8-0.2c-1.2,0.6-2.6,0.1-3.2-1
			c-0.6-1.2-0.1-2.6,1-3.2c0.7-0.4,16.8-8.5,28.1,0.7c1,0.8,1.2,2.4,0.3,3.4C340,315.2,339.3,315.5,338.6,315.5z"/>
		<path class="st3" d="M401.5,317.3c-0.4,0-0.7-0.1-1.1-0.3c-10.9-5.4-23.8-0.4-24-0.4c-1.3,0.5-2.6-0.1-3.1-1.4
			c-0.5-1.2,0.1-2.6,1.3-3.1c0.6-0.2,15-5.9,27.9,0.5c1.2,0.6,1.7,2,1.1,3.2C403.3,316.9,402.4,317.3,401.5,317.3z"/>
	</g>
	<path class="st4" d="M270.7,527.4c-18,0-34.2-3.1-43.2-12.2c-8-8.2-9.6-20.1-4.6-35.6c2.8-8.7,8.4-14.5,16.5-17.2
		c36.5-11.9,113.9,44,117.2,46.3l3.9,2.8L356,513C353.2,513.8,308.2,527.4,270.7,527.4z M251.1,465.5c-3.7,0-7.1,0.5-10.2,1.5
		c-6.7,2.2-11.1,6.8-13.4,14.1c-4.4,13.6-3.2,24,3.4,30.7c22.4,22.7,98.8,3.5,118.8-2C334.9,499.5,283,465.5,251.1,465.5z"/>
	<path class="st4" d="M204.2,471.7c-19.2,0-40.5-7.5-63.7-22.5c-1.1-0.7-1.4-2.2-0.7-3.3c0.7-1.1,2.2-1.4,3.3-0.7
		c30.4,19.6,57.2,26,79.7,19c28.1-8.8,39.6-36.1,39.8-36.4c0.5-1.2,1.9-1.8,3.1-1.3s1.8,1.9,1.3,3.1s-12.5,29.6-42.7,39.1
		C218,470.7,211.2,471.7,204.2,471.7z"/>
	<path class="st4" d="M161.9,459.2c-5.7,0-10.3-4.6-10.3-10.3c0-5.7,4.6-10.3,10.3-10.3s10.4,4.6,10.4,10.3
		C172.3,454.6,167.6,459.2,161.9,459.2z M161.9,443.4c-3,0-5.5,2.5-5.5,5.5s2.5,5.5,5.5,5.5s5.5-2.5,5.5-5.5
		C167.5,445.8,165,443.4,161.9,443.4z"/>
	<path class="st4" d="M442,527.4c-37.5,0-82.5-13.6-85.3-14.4l-4.6-1.4l3.9-2.8c3.3-2.4,80.8-58.2,117.2-46.3
		c8.1,2.7,13.7,8.4,16.5,17.2c5,15.5,3.4,27.4-4.6,35.6C476.2,524.3,460,527.4,442,527.4z M363,509.8c20,5.5,96.4,24.8,118.8,2
		c6.7-6.8,7.8-17.1,3.4-30.7c-2.3-7.3-6.7-11.9-13.4-14.1C442.1,457.3,379.6,498.3,363,509.8z"/>
	<path class="st4" d="M513.5,473.7c-7,0-13.7-1-20.1-3c-30.3-9.5-42.2-37.9-42.7-39.1s0.1-2.6,1.3-3.1c1.2-0.5,2.6,0.1,3.1,1.3
		c0.1,0.3,11.7,27.6,39.8,36.4c22.5,7,49.3,0.7,79.7-19c1.1-0.7,2.6-0.4,3.3,0.7s0.4,2.6-0.7,3.3C554,466.2,532.7,473.7,513.5,473.7
		z"/>
	<path class="st4" d="M555.8,461.3c-5.7,0-10.4-4.6-10.4-10.3s4.6-10.3,10.4-10.3c5.7,0,10.3,4.6,10.3,10.3S561.5,461.3,555.8,461.3
		z M555.8,445.4c-3,0-5.5,2.5-5.5,5.5s2.5,5.5,5.5,5.5s5.5-2.5,5.5-5.5S558.9,445.4,555.8,445.4z"/>
</g>
<path d="M41.8,397.8c-0.7,0-1.4-0.3-1.9-0.9c-24.2-26.6-35.2-59.4-31.7-94.7c2.3-23.8,8.1-45.1,17.2-63.5c0.6-1.3,2.2-1.8,3.5-1.2
	s1.8,2.2,1.2,3.5c-8.8,17.8-14.4,38.5-16.6,61.7c-3.3,33.8,7.2,65.2,30.4,90.7c1,1.1,0.9,2.7-0.2,3.7
	C43.1,397.6,42.4,397.8,41.8,397.8z"/>
<path d="M523.2,100.4c-0.8,0-1.7-0.4-2.2-1.1C476.8,35.8,413.9,6.1,339,13.6C274.9,20,226.2,43.8,194.4,84.3
	c-0.9,1.1-2.6,1.3-3.7,0.4c-1.1-0.9-1.3-2.6-0.4-3.7C223,39.3,272.9,14.9,338.4,8.4c75.8-7.6,142.2,23.6,187,87.9
	c0.8,1.2,0.5,2.8-0.7,3.7C524.3,100.3,523.8,100.4,523.2,100.4z"/>
<path d="M642.9,432.2c-0.9,0-1.9-0.5-2.3-1.4c-0.7-1.3-0.2-2.9,1.1-3.5c16.3-8.5,29.6-18,39.6-28.4c17.8-18.5,26.8-40.7,25.9-64.2
	c-1.2-32.5-16.1-60.1-44.3-82c-1.1-0.9-1.4-2.5-0.5-3.7c0.9-1.1,2.6-1.3,3.7-0.5c29.4,22.9,45,51.8,46.3,86
	c0.9,24.9-8.5,48.5-27.3,68c-10.3,10.7-24.1,20.6-40.9,29.4C643.8,432.1,643.4,432.2,642.9,432.2z"/>
<path d="M64.2,421.5c-1.6,0-3.2-0.4-4.7-1.1l0,0c-5.2-2.6-7.2-8.9-4.7-14c1.2-2.5,3.4-4.4,6-5.2c2.7-0.9,5.5-0.7,8,0.6
	c2.5,1.2,4.4,3.4,5.2,6c0.9,2.6,0.7,5.5-0.6,8C71.7,419.4,68,421.5,64.2,421.5z M61.9,415.7c2.6,1.3,5.7,0.2,7-2.3
	c0.6-1.2,0.7-2.6,0.3-4c-0.4-1.3-1.4-2.4-2.6-3s-2.7-0.7-4-0.3c-1.3,0.4-2.4,1.4-3,2.6C58.3,411.3,59.3,414.4,61.9,415.7L61.9,415.7
	z"/>
<circle cx="88" cy="425.2" r="4.5"/>
<path class="st4" d="M163.9,82.1L163.9,82.1c0,10.8,8.7,19.5,19.5,19.5l0,0l0,0c-10.8,0-19.5,8.7-19.5,19.5l0,0l0,0
	c0-10.8-8.7-19.5-19.5-19.5l0,0l0,0C155.2,101.6,163.9,92.8,163.9,82.1L163.9,82.1z"/>
<circle cx="627.4" cy="436" r="4.5"/>
</svg>
