<?xml version="1.0" encoding="utf-8"?>
<!-- Generator: Adobe Illustrator 27.1.1, SVG Export Plug-In . SVG Version: 6.00 Build 0)  -->
<svg version="1.1" id="Calque_1" xmlns="http://www.w3.org/2000/svg" xmlns:xlink="http://www.w3.org/1999/xlink" x="0px" y="0px"
	 viewBox="0 0 160 160" style="enable-background:new 0 0 160 160;" xml:space="preserve">
<style type="text/css">
	.st0{fill:#EDEDED;}
	.st1{fill:#5E5EF7;}
	.st2{fill:#FFFFFF;}
	.st3{fill:#575756;}
</style>
<g>
	<path class="st0" d="M44.9,108.4c-9.2,1.3-9.5,13.3-21.9,16.2S1.7,109.3,11.2,88.4s41-57.6,63-38.1c0,0,9.5-20,28.3-18.8
		s27.3,33.7,27.3,33.7s25.4,19.1,21.6,40c-3.8,21-19.4,23.5-29.2,21.6S56.4,106.8,44.9,108.4z"/>
	<path d="M3.9,85.6c-0.1,0-0.1,0-0.2,0c-0.3-0.1-0.4-0.4-0.3-0.7c2.9-6.3,7.3-13.4,12.4-20c0.2-0.2,0.5-0.3,0.7-0.1
		c0.2,0.2,0.3,0.5,0.1,0.7c-5,6.5-9.4,13.6-12.2,19.8C4.3,85.5,4.1,85.6,3.9,85.6z"/>
	<path d="M71.9,39.8l-0.4-0.2C66,37.2,60,36.6,53.7,38c-0.3,0.1-0.5-0.1-0.6-0.4C53,37.3,53.2,37,53.5,37c6.4-1.4,12.5-0.8,18.1,1.6
		c1.1-1.5,2.3-2.8,3.6-4.1c8-8.2,17.6-12.2,27.8-11.5c0.3,0,0.5,0.3,0.5,0.5c0,0.3-0.3,0.5-0.5,0.5c-9.9-0.7-19.3,3.2-27.1,11.1
		c-1.3,1.4-2.6,2.8-3.8,4.3L71.9,39.8z"/>
	<path d="M127.5,135.9c-2.3,0-4.7-0.2-7-0.7c-0.3,0-0.5-0.3-0.4-0.6s0.3-0.5,0.6-0.4c2.2,0.4,4.5,0.7,6.8,0.7
		c6.6,0,12.7-1.8,17.6-5.2c7.1-4.9,11.7-12.7,13.6-23.1c3.9-21.6-16.1-40.4-22.4-45.7c-0.2-0.2-0.3-0.5-0.1-0.7s0.5-0.3,0.7-0.1
		c6.3,5.4,26.7,24.5,22.7,46.6c-1.9,10.7-6.7,18.7-14.1,23.8C140.6,134,134.3,135.9,127.5,135.9z"/>
	<path d="M2.3,92.5c-0.3,0-0.6-0.1-0.9-0.2c-0.5-0.2-0.8-0.6-1-1.1s-0.1-1.1,0.1-1.5c0.2-0.5,0.6-0.8,1.1-1s1.1-0.1,1.5,0.1
		c0.5,0.2,0.8,0.6,1,1.1C4.6,90.9,4,92,3,92.4l0,0C2.8,92.4,2.6,92.5,2.3,92.5z M2.8,91.9L2.8,91.9L2.8,91.9z M2.3,89.5
		c-0.1,0-0.2,0-0.3,0c-0.3,0.1-0.5,0.3-0.6,0.5c-0.1,0.3-0.1,0.5,0,0.8c0.2,0.5,0.8,0.8,1.3,0.6l0,0c0.5-0.2,0.8-0.8,0.6-1.3
		c-0.1-0.3-0.3-0.5-0.5-0.6C2.6,89.5,2.5,89.5,2.3,89.5z"/>
	<circle cx="1.2" cy="96.1" r="0.9"/>
	<path class="st1" d="M48.4,32.1L48.4,32.1c0,2.1,1.7,3.8,3.8,3.8l0,0l0,0c-2.1,0-3.8,1.7-3.8,3.8l0,0l0,0c0-2.1-1.7-3.8-3.8-3.8
		l0,0l0,0C46.7,35.9,48.4,34.2,48.4,32.1L48.4,32.1z"/>
	<circle cx="105.8" cy="24.5" r="0.9"/>
</g>
<g>
	<g>
		<polygon points="65.8,48 72.8,128.3 30.9,130.5 23.4,52.3 		"/>
		<g>
			<polygon class="st2" points="63.5,52.5 26.3,54.3 33.3,118.9 67.7,114.2 			"/>
			<path class="st1" d="M32.9,119.4l-7-65.6l38-1.8l4.3,62.5L32.9,119.4z M26.8,54.7l6.8,63.7l33.6-4.6L63.1,53L26.8,54.7z"/>
		</g>
		<g>
			<circle class="st2" cx="51" cy="122.6" r="3.1"/>
			<path class="st1" d="M51,126.1c-1.9,0-3.5-1.6-3.5-3.5s1.6-3.5,3.5-3.5s3.5,1.6,3.5,3.5S52.9,126.1,51,126.1z M51,119.9
				c-1.5,0-2.7,1.2-2.7,2.7s1.2,2.7,2.7,2.7s2.7-1.2,2.7-2.7S52.5,119.9,51,119.9z"/>
		</g>
	</g>
	<g>
		<path d="M67.8,119.8l-2,14.6c0,0,13.1,3.7,20.6,1.4l-1.6-15.2C84.8,120.5,80.5,126.6,67.8,119.8z"/>
		<path class="st2" d="M80.2,137c-6.8,0-14.1-2.1-14.6-2.2l-0.4-0.1l2.1-15.6l0.6,0.3c12.2,6.5,16.5,0.9,16.5,0.8l0.7-0.9l1.7,16.7
			l-0.3,0.1C84.6,136.7,82.4,137,80.2,137z M66.3,134c2.2,0.6,13,3.2,19.7,1.4l-1.4-13.9c-1.7,1.4-6.5,4.1-16.4-1L66.3,134z"/>
	</g>
	<path class="st1" d="M67.3,119.3c0,0,7.1,3.7,11.4,3.2s5.1-1.8,5.1-1.8S81.7,114.7,67.3,119.3z"/>
	<path class="st1" d="M87.2,135.3c-7,0-18.1-10.4-18.7-10.9c-0.2-0.2-0.2-0.5,0-0.7s0.5-0.2,0.7,0c0.1,0.1,13.8,13,19.8,10.3
		c1.1-0.5,1.7-1.1,1.8-1.9c0.3-2.5-4.2-6.3-5.9-7.5c-0.2-0.2-0.3-0.4-0.1-0.6c0.2-0.2,0.4-0.3,0.6-0.1c0.3,0.2,6.7,4.8,6.3,8.4
		c-0.1,1.2-0.9,2.1-2.4,2.7C88.7,135.1,88,135.3,87.2,135.3z"/>
	<path class="st1" d="M59.1,132.2c0,0-4.1,0-4.4,1.2c-0.3,1.2,3,3,3,3S65,133.3,59.1,132.2z"/>
	<path class="st1" d="M50,132.2c0,0,4.1,0.3,2.4,1.2C50.6,134.2,51.2,133.6,50,132.2z"/>
	<path class="st1" d="M52.6,135.7c0,0,1.5,1.5-0.6,1.5C50,137.2,50.6,136.3,52.6,135.7z"/>
	<polygon class="st1" points="34.7,62.1 35.3,67.4 59.1,62.4 59.1,59.5 	"/>
	<polygon class="st1" points="36.2,71.8 52.3,69.2 51.5,72.4 36.7,75.4 	"/>
	<polygon class="st1" points="36.2,81.3 51.2,77.1 51.8,80.4 36.4,84.2 	"/>
	<polygon class="st1" points="37.3,90.7 52.6,86.8 53.8,89.5 36.7,94.5 	"/>
</g>
<g>
	<path class="st1" d="M114.9,43.6c0,0,0.1,7.9,6.9,12.3s17.6-2.5,17.6-2.5s-8.9-9.1-15-1.4c0,0,5.4-11.9-3.2-19.2
		C121.1,32.8,116.1,35.8,114.9,43.6z"/>
	<path class="st2" d="M120.3,53.6c-0.1,0-0.3,0-0.3-0.2c-0.1-0.1-8.9-9.9,0.2-18.5l0.3-0.3l0.3,0.2c0.3,0.2,6.2,3.8,3.4,14.6
		c-0.1,0.3-0.3,0.4-0.6,0.3c-0.3-0.1-0.4-0.3-0.3-0.6c2.2-8.8-1.6-12.5-2.7-13.4c-8,7.9-0.3,16.6,0.1,16.9c0.2,0.2,0.2,0.5,0,0.7
		C120.5,53.6,120.4,53.6,120.3,53.6z"/>
	<path class="st2" d="M130.5,56.2c-0.4,0-0.8,0-1.2-0.1c-0.3,0-0.4-0.3-0.4-0.5c0-0.3,0.3-0.4,0.5-0.4c3.4,0.4,5.7-1.3,6.6-2
		c-4.1-4.1-9.4-1.5-9.6-1.4s-0.5,0-0.6-0.2s0-0.5,0.2-0.6c0.1,0,6.4-3.2,11.1,1.9l0.3,0.3l-0.3,0.3
		C136.8,53.7,134.4,56.2,130.5,56.2z"/>
	<path d="M109.4,45.6l9.4-0.6l0.9,5.6c0,0,23.5,14.1,16.8,39.7s-26.2,28.6-26.2,28.6l-2.1,5l-7.1-0.9l-2.4-6.2c0,0-17.1-9.4-15-29.7
		s14.4-31.2,23.5-36.2L109.4,45.6z"/>
	<path class="st2" d="M107,122.6h-0.8l-3.9-0.6l-1.8-6.6c-1.9-1.3-20.3-14.9-12.7-36.9c7.4-21.5,19.6-25.1,21.6-25.6l2.4-6.2
		l3.9-0.3l2.4,5.5c2,1.2,25,15.8,15.4,39.6c-9.2,22.8-21.9,25.5-24.2,25.9C108.1,122.6,107.3,122.6,107,122.6z M103,121.2l3.2,0.5
		h0.6c0.4-0.4,1.1-2.8,1.5-4.9l0.1-0.3h0.4c0.1,0,14-1.2,23.7-25.3s-14.9-38.4-15.1-38.6l-0.1-0.1l-2.3-5.1l-2.6,0.2l-2.3,6.2h-0.3
		c-0.1,0-13.4,2.6-21.1,25c-7.7,22.3,12.3,35.8,12.5,36l0.1,0.1L103,121.2z M107,121.6L107,121.6L107,121.6z"/>
	<path class="st1" d="M72.2,92c0,0,4.2,7.6,7.6,9.2c3.5,1.7,50.3,15.6,50.3,15.6l0.5-2.1c0,0-42.3-22.4-44.9-23
		c-2.5-0.5-12.4-1.5-12.4-1.5L72.2,92z"/>
	<path d="M73.9,89.7c-1.8,5.8-10.7,8-16.2-2.1c-3.6-6.8-0.5-16.7-0.5-16.7s3.5,6.5,8.7,9.1C71.1,82.5,75.5,84.8,73.9,89.7z"/>
	<polygon points="76.4,87.9 72,95.4 76.3,99.2 81.4,90.2 	"/>
	<path class="st1" d="M102.2,135.6H93l0.1-0.5c0-0.1,0.4-2.8,2.3-3.7c1.2-0.6,2.8-0.3,4.6,1c0.2,0.1,0.3,0.4,0.1,0.6
		c-0.1,0.2-0.4,0.3-0.6,0.1c-1.6-1-2.8-1.3-3.7-0.9c-1,0.5-1.5,1.7-1.6,2.4h7.5c1.8-5.7-3.1-17.5-3.2-17.6c-0.1-0.2,0-0.5,0.3-0.6
		c0.2-0.1,0.5,0,0.6,0.3c0.2,0.5,5.3,12.7,3.1,18.6L102.2,135.6z"/>
	<path class="st1" d="M116.1,135.7h-8.7l-0.1-0.3c-2.2-7.7,2.4-16.3,2.6-16.6c0.1-0.2,0.4-0.3,0.6-0.2c0.2,0.1,0.3,0.4,0.2,0.6
		c0,0.1-4.5,8.3-2.6,15.6h7c-0.1-0.7-0.4-1.9-1.4-2.4c-0.9-0.5-2.2-0.3-4,0.7c-0.2,0.1-0.5,0-0.6-0.2s0-0.5,0.2-0.6
		c2-1.1,3.7-1.4,4.9-0.7c1.8,1,1.9,3.5,1.9,3.6V135.7z"/>
	<path class="st1" d="M83.1,108.7c-3.2,0-6.9-0.6-8.8-3c-1.8-2.3-1.7-5.7,0.4-10.3c0.1-0.2,0.4-0.3,0.6-0.2c0.2,0.1,0.3,0.4,0.2,0.6
		c-1.9,4.2-2.1,7.3-0.5,9.3c3.3,4.2,13.4,2.2,13.5,2.1c0.3-0.1,0.5,0.1,0.5,0.4s-0.1,0.5-0.4,0.5C88.5,108.2,86,108.7,83.1,108.7z"
		/>
	<path class="st1" d="M75.3,99.6c0,0-0.1,0-0.2,0c-0.2-0.1-0.4-0.4-0.3-0.6l1.1-2.8c0.1-0.2,0.4-0.4,0.6-0.3s0.4,0.4,0.3,0.6
		l-1.1,2.8C75.6,99.5,75.4,99.6,75.3,99.6z"/>
	<path class="st1" d="M72.7,98.4L72.7,98.4c-0.4-0.1-0.5-0.3-0.4-0.6l0.9-3.1c0.1-0.3,0.3-0.4,0.6-0.3c0.3,0.1,0.4,0.3,0.3,0.6
		l-0.9,3.1C73.1,98.3,72.9,98.4,72.7,98.4z"/>
	<path class="st1" d="M126.2,113.5c-0.3,0-0.5-0.2-0.5-0.4c0-0.3,0.2-0.5,0.4-0.5c4.1-0.2,6.5-1.1,7.2-2.8c1.1-2.6-2.4-6.4-2.4-6.4
		c-0.2-0.2-0.2-0.5,0-0.7s0.5-0.2,0.7,0s3.9,4.2,2.6,7.4C133.4,112.2,130.7,113.3,126.2,113.5L126.2,113.5z"/>
	<path class="st3" d="M126.1,65.4c0.8-1.8,6.6,4.4,6.8,11.2c0.1,6.8-2.1,11.8-3.5,11.7c-1.4-0.1,2.1-5.7,1.3-10.6
		C129.8,72.7,124.8,68.3,126.1,65.4z"/>
	<path class="st3" d="M125.5,62.4c0,0,0.1,1.7-1.3,1.2c-1.4-0.5-2.2-3-1-3C124.4,60.6,125.5,62.4,125.5,62.4z"/>
	<g>
		<path class="st2" d="M99.7,84.2c-0.5,0-1.2-0.2-1.8-0.7c-0.2-0.2-0.3-0.4-0.1-0.6c0.2-0.2,0.4-0.3,0.6-0.1
			c0.7,0.5,1.2,0.6,1.7,0.4c1.3-0.6,1.9-4,1.9-6c0-0.3,0.3-0.4,0.5-0.5c0.3,0,0.5,0.2,0.5,0.5c0,0.6-0.3,5.8-2.4,6.8
			C100.2,84.2,100,84.2,99.7,84.2z"/>
		<path class="st2" d="M109,83.7c-0.2,0-0.3-0.1-0.4-0.2c-0.4-0.6-1.7-2.4-2.8-2.3c-0.4,0-0.8,0.4-1.2,1.1c-0.1,0.2-0.4,0.3-0.6,0.2
			c-0.2-0.1-0.3-0.4-0.2-0.6c0.5-1,1.2-1.6,2-1.6c1.8-0.1,3.5,2.5,3.7,2.8c0.1,0.2,0.1,0.5-0.1,0.6C109.2,83.7,109.1,83.7,109,83.7z
			"/>
		<path class="st2" d="M99.2,78.8c-0.1,0-0.3,0-0.4-0.2c-0.4-0.5-1.6-1.7-2.6-1.6c-0.4,0-0.8,0.3-1,0.9c-0.1,0.2-0.4,0.3-0.6,0.2
			c-0.2-0.1-0.3-0.4-0.2-0.6c0.4-0.8,1-1.3,1.8-1.4c1.6-0.2,3.2,1.7,3.4,1.9c0.2,0.2,0.1,0.5-0.1,0.7C99.4,78.7,99.3,78.8,99.2,78.8
			z"/>
		<path class="st1" d="M113.9,89.1c-0.1,0-0.3,0-0.4-0.1c-0.5-0.2-0.6-0.6-0.8-1c-0.1-0.1-0.1-0.3-0.2-0.5c-0.3-0.5-0.2-1,0.2-1.4
			c0.1-0.1,0.3-0.3,0.5-0.4c-0.1-0.1-0.1-0.3,0-0.5c0.1-0.1,0.3-0.4,0.8-0.3c0.3,0,0.6,0.2,1,0.4c0.1,0,0.2,0,0.2,0.1
			c0.4,0.1,0.5,0.4,0.6,0.6c0.3,0.3,0.5,0.6,0.5,1c0,0.3,0,1-0.8,1.4C114.8,88.9,114.3,89.1,113.9,89.1z M115.4,87.4
			c-0.1,0.1-0.2,0.2-0.3,0.3C115.3,87.6,115.4,87.5,115.4,87.4z M114.5,86.4c0,0.1,0.1,0.3,0.1,0.5c0.1-0.1,0.2-0.2,0.2-0.3
			C114.7,86.5,114.6,86.4,114.5,86.4L114.5,86.4z"/>
		<path class="st1" d="M88.9,79.7c-0.1,0-0.3,0-0.4-0.1c-0.5-0.2-0.6-0.6-0.8-1c-0.1-0.1-0.1-0.3-0.2-0.5c-0.3-0.5-0.2-1,0.2-1.4
			c0.1-0.1,0.3-0.3,0.5-0.4c-0.1-0.1-0.1-0.3,0-0.5c0.1-0.1,0.3-0.4,0.8-0.3c0.3,0,0.6,0.2,1,0.4c0.1,0,0.2,0,0.2,0.1
			c0.4,0.1,0.5,0.4,0.6,0.6c0.3,0.3,0.5,0.6,0.5,1c0,0.3,0,1-0.8,1.4C89.8,79.5,89.3,79.7,88.9,79.7z M90.4,77.9
			c-0.1,0.1-0.2,0.2-0.3,0.3C90.4,78.1,90.4,78,90.4,77.9z M89.5,76.9c0,0.1,0.1,0.3,0.1,0.5c0.1-0.1,0.2-0.2,0.2-0.3
			C89.8,77,89.7,77,89.5,76.9C89.6,76.9,89.5,76.9,89.5,76.9z"/>
		<path class="st2" d="M103.2,91.8c-5.5,0-10.8-3.9-10.8-3.9c-0.2-0.1-0.2-0.4-0.1-0.6s0.4-0.2,0.6-0.1c0.1,0.1,10,7.3,16.2,1.5
			c0.2-0.2,0.5-0.2,0.6,0c0.2,0.2,0.2,0.5,0,0.6C107.8,91.2,105.5,91.8,103.2,91.8z"/>
		<path class="st2" d="M110.1,92.2L110.1,92.2c-0.3-0.1-0.5-0.3-0.4-0.5c0.7-2.8-1.5-3.5-1.6-3.5c-0.2-0.1-0.4-0.3-0.3-0.5
			s0.3-0.4,0.5-0.3c0,0,3.1,1,2.2,4.6C110.5,92.1,110.3,92.2,110.1,92.2z"/>
	</g>
	<path class="st1" d="M57.2,68.3c0,0-3.5,7.8-2.1,12.5s3.5-0.1,3.5-0.1s1.7,4.9,3.7,3.3c2-1.5-1.5-4.7-1.5-4.7s1.7,1.8,2.4,0.5
		s0-2.8,0-2.8S58.8,75.6,57.2,68.3z"/>
</g>
</svg>
