<?xml version="1.0" encoding="utf-8"?>
<!-- Generator: Adobe Illustrator 27.1.1, SVG Export Plug-In . SVG Version: 6.00 Build 0)  -->
<svg version="1.1" id="Calque_1" xmlns="http://www.w3.org/2000/svg" xmlns:xlink="http://www.w3.org/1999/xlink" x="0px" y="0px"
	 viewBox="0 0 720 588.2" style="enable-background:new 0 0 720 588.2;" xml:space="preserve">
<style type="text/css">
	.st0{fill:#EDEDED;}
	.st1{fill:#5E5EF7;}
	.st2{fill:#FFFFFF;}
	.st3{fill:#57DBE9;}
	.st4{fill:#575756;}
</style>
<g>
	<path d="M646.9,455.6c-0.8,0-1.6-0.4-2-1.2c-0.7-1.1-0.3-2.6,0.8-3.3c22.5-13.5,38.2-27.9,46.9-43c31.1-53.9-6.7-140.6-24.5-175.4
		l-0.4-0.7l0.1-0.8c7.4-47-5-94.1-34.8-132.5c-0.8-1-0.6-2.5,0.4-3.3s2.5-0.6,3.3,0.4c30.4,39.3,43.1,87.4,35.8,135.4
		c18.2,35.9,56.1,123.6,24,179.2c-9.1,15.7-25.4,30.8-48.6,44.7C647.7,455.5,647.3,455.6,646.9,455.6z"/>
	<path d="M11,497.5c-1.2,0-2.2-0.9-2.4-2.1c-6.8-50,1.8-98.9,25.5-145.3c0.6-1.2,2-1.6,3.2-1s1.6,2,1,3.2
		c-23.2,45.5-31.6,93.4-25,142.5c0.2,1.3-0.7,2.5-2,2.7C11.2,497.5,11.1,497.5,11,497.5z"/>
	<path d="M93.9,274.6c-0.6,0-1.2-0.2-1.7-0.7c-0.9-0.9-1-2.4-0.1-3.4c14.9-15.3,31.8-30.3,50.3-44.6c51.1-39.3,103.6-65,130.9-77
		c5.1-14.8,14.1-36.7,28.4-58.9c35.9-56,86-85.1,145.2-84.1c1.3,0,2.4,1.1,2.3,2.4c0,1.3-1.2,2.4-2.4,2.3
		C389.5,9.5,340.7,38,305.7,92.5c-14.3,22.3-23.2,44.3-28.2,58.9l-0.3,1l-1,0.4c-26.9,11.7-79.6,37.4-130.9,76.8
		c-18.3,14.1-35.1,29-49.8,44.1C95.2,274.3,94.6,274.6,93.9,274.6z"/>
	<path class="st0" d="M492.4,469.8C439,488.2,76,694.6,48.3,490.1s258-311.4,258-311.4S337.7,44.1,446.4,46
		c108.7,1.8,210.1,84.8,184.3,191.6c0,0,59,105,31.3,152.9C634.3,438.5,492.4,469.8,492.4,469.8z"/>
	<path class="st1" d="M615,58.7L615,58.7c0,9.8,7.9,17.7,17.7,17.7l0,0l0,0c-9.8,0-17.7,7.9-17.7,17.7l0,0l0,0
		c0-9.8-7.9-17.7-17.7-17.7l0,0l0,0C607.1,76.4,615,68.5,615,58.7L615,58.7z"/>
	<path d="M19.5,526.2c-1.7,0-3.5-0.5-5.1-1.5c-4.4-2.8-5.7-8.7-2.9-13.1c1.4-2.1,3.5-3.6,5.9-4.2c2.5-0.5,5-0.1,7.1,1.3
		s3.6,3.5,4.2,5.9c0.5,2.5,0.1,5-1.3,7.1l0,0C25.7,524.7,22.7,526.2,19.5,526.2z M19.6,512c-0.3,0-0.7,0-1,0.1c-1.2,0.3-2.3,1-3,2.1
		c-1.4,2.2-0.8,5.1,1.4,6.5s5.1,0.8,6.5-1.4l0,0c0.7-1.1,0.9-2.3,0.6-3.5s-1-2.3-2.1-3C21.3,512.3,20.5,512,19.6,512z"/>
	<circle cx="31.6" cy="540.9" r="4.1"/>
</g>
<g>
	<g>
		<polygon points="444.7,101.8 443.3,427.9 179.9,436.9 153.9,116 		"/>
		<g>
			<polygon class="st2" points="432.2,119.7 167.9,125.5 195.7,414 425.4,404.4 			"/>
			<path class="st1" d="M193.9,416.1l-28.2-292.7l268.7-5.9l-6.9,288.9l-1.9,0.1L193.9,416.1z M170.2,127.5l27.4,284.4l225.8-9.4
				l6.8-280.7L170.2,127.5z"/>
		</g>
	</g>
	<path d="M251.2,535.4c-0.3,0-0.5,0-0.8-0.1c-1.2-0.4-1.9-1.8-1.5-3l35.9-105c0.4-1.2,1.8-1.9,3-1.5s1.9,1.8,1.5,3l-35.9,105
		C253.1,534.7,252.2,535.4,251.2,535.4z"/>
	<path d="M379.7,528.5c-0.9,0-1.8-0.5-2.2-1.5l-42.8-102.3c-0.5-1.2,0.1-2.6,1.3-3.1c1.2-0.5,2.6,0.1,3.1,1.3l42.8,102.3
		c0.5,1.2-0.1,2.6-1.3,3.1C380.4,528.4,380.1,528.5,379.7,528.5z"/>
	<polygon class="st3" points="214.4,287.3 247,287.3 265.9,242.3 284.7,257.3 319.1,213.2 348.9,222.1 382.7,166.7 384.6,183.2 
		391.7,181.5 387.7,153.7 360.7,158.6 361.8,166.1 377.6,163.7 346.5,211.1 316.3,194 287.2,236.1 257.1,219.9 	"/>
	<g>
		<polygon points="211.3,402.5 222.9,535.2 153.8,539 141.3,409.5 		"/>
		<polygon class="st2" points="204,417.2 150.7,419.7 160.7,512.5 210.1,505.7 		"/>
		<circle class="st1" cx="187" cy="525.8" r="5.1"/>
	</g>
	<polygon class="st1" points="56.2,308.6 143.2,300.3 144.9,397.2 121.8,402.8 137.7,439.9 98.8,407.4 74.1,410.8 	"/>
	
		<rect x="201.2" y="285.7" transform="matrix(0.9982 -6.055192e-02 6.055192e-02 0.9982 -16.9744 15.4788)" class="st3" width="91.4" height="4.2"/>
	
		<rect x="206.8" y="147.9" transform="matrix(0.9958 -9.204729e-02 9.204729e-02 0.9958 -20.3309 20.2084)" class="st3" width="4.2" height="165.2"/>
	
		<rect x="208.1" y="329.3" transform="matrix(0.9964 -8.498403e-02 8.498403e-02 0.9964 -27.3239 20.9456)" class="st3" width="48.5" height="4.2"/>
	
		<rect x="210.9" y="338.3" transform="matrix(0.997 -7.714608e-02 7.714608e-02 0.997 -25.5237 20.0656)" class="st3" width="72.1" height="4.2"/>
	
		<rect x="212.3" y="350.7" transform="matrix(0.9979 -6.444637e-02 6.444637e-02 0.9979 -22.2504 15.7975)" class="st3" width="42.9" height="4.2"/>
	
		<rect x="380.9" y="211.8" transform="matrix(0.9989 -4.784133e-02 4.784133e-02 0.9989 -9.7809 19.1647)" class="st3" width="29.1" height="4.2"/>
	
		<rect x="361.6" y="223.5" transform="matrix(0.9982 -6.055192e-02 6.055192e-02 0.9982 -12.9554 23.6938)" class="st3" width="45.7" height="4.2"/>
	<rect x="383.7" y="233.2" class="st3" width="20.7" height="4.2"/>
	<polygon class="st2" points="90.7,325.1 111.5,323.8 108.7,358.3 97.6,358.3 	"/>
	<ellipse class="st2" cx="105.9" cy="375.6" rx="8.3" ry="7.6"/>
</g>
<g>
	<path class="st1" d="M572.6,196.5c0,0-30.7,11.6-57.7-8.2c-27.1-19.7-16.4-71.6-16.4-71.6s48.3,21,27.7,55.9c0,0,37.7-38.5,78.7-16
		C604.9,156.6,601,180.3,572.6,196.5z"/>
	<path class="st2" d="M550.4,195.8c-13,0-23.3-3.9-23.5-4c-1-0.4-1.5-1.5-1.1-2.5s1.5-1.5,2.5-1.1c1.9,0.7,46.9,17.6,65.5-24.9
		c-5-3.1-24.9-12.3-55.7,9.6c-0.9,0.6-2.1,0.4-2.7-0.5c-0.6-0.9-0.4-2.1,0.5-2.7c37.5-26.7,60.5-9.4,61.5-8.7l1.2,0.9l-0.6,1.4
		C587,189.8,566.6,195.8,550.4,195.8z"/>
	<path class="st2" d="M525.7,167.1c-0.1,0-0.1,0-0.2,0c-1.1-0.1-1.8-1.1-1.7-2.1c0.1-1.1,2.4-25.3-19.7-35.1
		c-1.6,4.2-4.8,16,1.9,28.4c0.5,0.9,0.2,2.1-0.8,2.6c-0.9,0.5-2.1,0.2-2.6-0.8c-9.3-17.2-1.6-32.9-1.3-33.6l0.8-1.6l1.6,0.6
		c26.7,10.4,23.9,39.6,23.9,39.9C527.5,166.4,526.7,167.1,525.7,167.1z"/>
	<path d="M519.3,171.4l-16.4,18.3c0,0-95.1,30.6-106.8,135.5s61.4,160.3,61.4,160.3l16.9,29.1l57.9,1.6l-10.5-22
		c0,0,89.2-37.9,100.9-129.7s-73.1-167.6-73.1-167.6l-1.4-25.2L519.3,171.4z"/>
	<path class="st2" d="M521.5,509.9l-41-1.6L465,480c-6-4.6-75.9-60.8-59.9-159.4c15.8-97.5,89.8-119.7,97.7-121.8l18-19.4l0.7-0.1
		c0.5-0.1,4.7-0.9,7.4,1.4c0.5,0.4,1,1,1.4,1.8c1.9-2.3,4.8-5,8-2.8c4.4,2.9,7,15,7.7,18.7c7.3,7.7,95.7,104.2,63.6,188.4
		c-29.5,77.3-84.6,102.1-97,106.8L521.5,509.9z M483.2,504.1l30.9,1.2l-7.7-14.2l2.6-0.8c0.6-0.2,64.3-20.2,96.7-105.1
		c32.3-84.8-62.1-183.3-63.1-184.3l-0.5-0.5l-0.1-0.7c-1.3-6.9-3.9-15.2-6-16.5l0,0c-0.8,0-2.6,2.4-3.2,3.2
		c-1.2,1.7-2.4,3.2-4.2,2.6c-1.8-0.6-1.8-2.7-1.8-3.5c0-1.1-0.4-1.4-0.5-1.5c-0.7-0.6-2.1-0.6-3.1-0.6l-17.9,19.3l-0.7,0.1
		c-0.8,0.2-78.9,18.9-95.1,118.5c-16.2,99.7,57.8,154.9,58.6,155.4l0.6,0.7L483.2,504.1z"/>
	<path class="st1" d="M495,556.8h-39l0.2-2.3c0.1-1.1,1-11,7.1-14.2c3.2-1.7,7-1.2,11.4,1.4c1,0.6,1.4,2,0.7,3c-0.6,1-2,1.4-3,0.7
		c-2.9-1.8-5.3-2.2-7.1-1.3c-2.6,1.3-3.9,5.4-4.5,8.3H488l-32.5-65.9c-0.5-1.1-0.1-2.4,1-2.9s2.4-0.1,2.9,1L495,556.8z"/>
	<path class="st1" d="M579,557.2h-32.7l-24.1-61.7c-0.4-1.1,0.1-2.4,1.2-2.8c1.1-0.4,2.4,0.1,2.8,1.2l23,58.9h25.1
		c-0.4-2.6-1.5-6.7-4.6-8.7c-3.2-1.9-7.9-1.4-14.1,1.8c-1.1,0.5-2.4,0.1-2.9-1s-0.1-2.4,1-2.9c7.7-3.8,13.9-4.4,18.4-1.6
		c6.8,4.2,6.9,14.1,6.9,14.6L579,557.2L579,557.2z"/>
	<path class="st1" d="M393.4,359.1c-0.1,0-0.1,0-0.2,0c-0.8-0.1-79.4-8.1-75.2-97.6c0.1-1.2,1.1-2.1,2.3-2.1
		c1.2,0.1,2.1,1.1,2.1,2.3c-4,85.3,68.2,92.8,71.3,93.1c1.2,0.1,2.1,1.2,2,2.4C395.5,358.3,394.5,359.1,393.4,359.1z"/>
	<path class="st1" d="M633,547.6c-2.6,0-5-0.7-7.1-2.2c-7.7-5.1-9.3-17.7-9.4-18.2v-144c0-1.2,1-2.2,2.2-2.2s2.2,1,2.2,2.2v143.7
		l0,0c0,0,1.5,10.9,7.5,14.9c2.2,1.5,4.7,1.8,7.7,1c4.1-1.1,6.6-3.5,6.8-6.6c0.2-2.1-0.8-4.2-2.3-4.9c-1.4-0.7-2.9,0.3-3.8,1.3
		c-0.8,0.9-2.2,0.9-3.1,0c-0.9-0.9-0.9-2.2,0-3.1c2.7-2.7,5.9-3.5,8.8-2.2c3.1,1.5,5.1,5.3,4.8,9.2c-0.4,4.9-4.2,8.8-10,10.4
		C635.7,547.4,634.3,547.6,633,547.6z"/>
	<g>
		<path class="st2" d="M462.4,354.3c-2.3,0-4.8-0.8-7.6-2.3c-1.1-0.6-1.4-1.9-0.8-3s1.9-1.4,3-0.8c3.4,1.9,6.1,2.3,8,1
			c5.5-3.6,6.1-19.8,5.2-29.2c-0.1-1.2,0.8-2.3,2-2.4s2.3,0.8,2.4,2c0.3,2.8,2.4,27-7.2,33.3C465.9,353.8,464.2,354.3,462.4,354.3z"
			/>
		<path class="st2" d="M436.8,329.1c-0.2,0-0.5,0-0.7-0.1c-1.1-0.4-1.7-1.6-1.4-2.8c1.5-4.2,3.9-6.8,7.3-7.7
			c7.5-1.9,16.2,5.8,17.1,6.7c0.9,0.8,1,2.2,0.1,3.1c-0.8,0.9-2.2,1-3.1,0.1c-2.2-2-8.7-6.8-13.1-5.7c-1.9,0.5-3.3,2.1-4.2,4.9
			C438.6,328.6,437.7,329.1,436.8,329.1z"/>
		<path class="st1" d="M532.1,368.2c-0.4,0-0.7,0-1-0.1c-2.2-0.5-3.3-2.2-4.3-4c-0.4-0.6-0.8-1.3-1.2-2c-1.5-2-1.5-4.5-0.1-6.7
			c0.5-0.7,1.1-1.4,1.9-2c-0.5-0.6-0.6-1.4-0.3-2.1c0.2-0.6,1-2,3.4-1.9c1.3,0,3.1,0.5,5,1.3c0.4,0,0.8,0.1,1.1,0.2
			c1.9,0.4,2.7,1.5,3.1,2.3c1.5,1.2,2.7,2.6,3.2,4.3c0.5,1.5,0.7,4.4-3,7.1C536.4,367.1,534,368.2,532.1,368.2z M538.7,359.1
			c-0.3,0.6-0.7,1.1-1.1,1.7C538.6,360,538.7,359.4,538.7,359.1z M533.9,355.1c0.3,0.6,0.5,1.3,0.8,2.2c0.4-0.6,0.7-1.2,0.8-1.6
			c-0.4-0.2-0.8-0.5-1.3-0.7C534.1,355.1,534,355.1,533.9,355.1z"/>
		<path class="st1" d="M410.1,339.6c-0.4,0-0.7,0-1-0.1c-2.2-0.5-3.3-2.2-4.3-4c-0.4-0.6-0.8-1.3-1.2-2c-1.5-2-1.5-4.5-0.1-6.7
			c0.5-0.7,1.1-1.4,1.9-2c-0.5-0.6-0.6-1.4-0.3-2.1c0.2-0.6,1-1.9,3.4-1.9c1.3,0,3.1,0.5,5,1.3c0.4,0,0.8,0.1,1.1,0.2
			c1.9,0.4,2.7,1.5,3.1,2.3c1.5,1.2,2.7,2.6,3.2,4.3c0.5,1.5,0.7,4.4-3,7.1C414.4,338.5,412,339.6,410.1,339.6z M416.7,330.4
			c-0.3,0.6-0.7,1.1-1.1,1.7C416.6,331.4,416.7,330.8,416.7,330.4z M411.9,326.5c0.3,0.6,0.5,1.3,0.8,2.2c0.4-0.6,0.7-1.2,0.8-1.6
			c-0.4-0.2-0.8-0.5-1.3-0.7C412.1,326.4,412,326.5,411.9,326.5z"/>
		<path class="st2" d="M475.4,402.1c-1.2,0-2.2-1-2.2-2.2s1-2.2,2.2-2.2c4.8,0,15.9-13.3,19.8-20c-13.1,6.1-47.6,0.1-51.6-0.6
			c-1.2-0.2-2-1.4-1.8-2.5c0.2-1.2,1.4-2,2.5-1.8c11.1,2,41.7,6,50.2,0.3c1-0.7,3.5-2.3,5.4-0.9c1.1,0.9,1.4,2.3,0.7,4.2
			C498.6,382.4,484.1,402.1,475.4,402.1z"/>
		<path class="st2" d="M513.7,339.6c-0.7,0-1.3-0.3-1.7-0.9c-5.1-6.7-10.1-10-14.8-9.9c-5.7,0.2-9.2,5.6-9.3,5.6c-0.7,1-2,1.3-3,0.6
			c-1-0.7-1.3-2-0.6-3c0.2-0.3,4.8-7.3,12.8-7.6c6.2-0.2,12.4,3.7,18.4,11.6c0.7,1,0.5,2.3-0.4,3.1
			C514.6,339.4,514.2,339.6,513.7,339.6z"/>
	</g>
	<path class="st4" d="M549.2,235.1c3.6-7.6,44.5,45.9,46.5,85s-20.2-27.7-26.3-35.1S543.1,247.9,549.2,235.1z"/>
	<path class="st4" d="M535.1,216.2c0-6.4,14.8,3.4,13.5,8.1C547.2,229,535.1,235.8,535.1,216.2z"/>
	<path class="st1" d="M319.5,257.2c-0.6,0-1.2-0.2-1.6-0.7l-9.9-10.9c-0.8-0.9-0.7-2.3,0.2-3.1c0.9-0.8,2.3-0.7,3.1,0.2l9.9,10.9
		c0.8,0.9,0.7,2.3-0.2,3.1C320.6,257.1,320.1,257.2,319.5,257.2z"/>
	<path class="st1" d="M313.8,261.4c-0.6,0-1.3-0.3-1.7-0.8l-9.4-11.4c-0.8-0.9-0.6-2.3,0.3-3.1s2.3-0.6,3.1,0.3l9.4,11.4
		c0.8,0.9,0.6,2.3-0.3,3.1C314.8,261.2,314.3,261.4,313.8,261.4z"/>
</g>
</svg>
