<?xml version="1.0" encoding="utf-8"?>
<!-- Generator: Adobe Illustrator 27.1.1, SVG Export Plug-In . SVG Version: 6.00 Build 0)  -->
<svg version="1.1" id="Calque_1" xmlns="http://www.w3.org/2000/svg" xmlns:xlink="http://www.w3.org/1999/xlink" x="0px" y="0px"
	 viewBox="0 0 720 495" style="enable-background:new 0 0 720 495;" xml:space="preserve">
<style type="text/css">
	.st0{fill:#EDEDED;}
	.st1{fill:#5E5EF7;}
	.st2{fill:#FFFFFF;}
	.st3{fill:none;}
	.st4{fill:#575756;}
</style>
<g>
	<path class="st0" d="M415,334.1C341.5,336,170.2,530,76,475.3S70.4,262.5,196.5,255c0,0-11.3-162,165.7-131.8
		c0,0,69.7-145,235.4-64s50.8,254.2,50.8,254.2s47.1,73.4-20.7,105.5S415,334.1,415,334.1z"/>
	<path d="M28.6,317.5c-0.5,0-0.9-0.1-1.3-0.4c-1.1-0.7-1.4-2.3-0.7-3.4c24.2-36.4,59.2-65.9,98.7-83c1.2-0.5,2.7,0,3.2,1.3
		c0.5,1.2,0,2.7-1.3,3.2c-38.6,16.8-72.9,45.6-96.6,81.2C30.2,317.1,29.4,317.5,28.6,317.5z"/>
	<path d="M169.1,185.5c-0.3,0-0.5,0-0.8-0.1c-1.3-0.4-1.9-1.8-1.5-3.1c9-26,23-47.7,41.5-64.5c33-29.9,77.9-42.8,133.2-38.4
		c9.9-13.5,26.1-32.7,48.9-49.2c1.1-0.8,2.6-0.6,3.4,0.5s0.6,2.6-0.5,3.4c-22.9,16.6-39.1,36-48.6,49.3l-0.8,1.1l-1.4-0.1
		c-54.6-4.6-98.7,7.8-130.9,37c-17.9,16.2-31.5,37.3-40.2,62.5C171,184.9,170.1,185.5,169.1,185.5z"/>
	<path d="M644.2,456.1c-0.9,0-1.8-0.5-2.2-1.4c-0.6-1.2-0.1-2.7,1.2-3.2c34.9-16.5,48.5-41.5,53.6-59.6c8.3-28.8,0.8-57.4-7-76.2
		c-0.5-1.2,0.1-2.7,1.3-3.2c1.3-0.5,2.7,0.1,3.2,1.3c8,19.6,15.8,49.2,7.1,79.4c-5.5,19.1-19.7,45.4-56.3,62.7
		C644.9,456,644.6,456.1,644.2,456.1z"/>
	<path class="st1" d="M144.7,190.8L144.7,190.8c0,10,8.1,18.1,18.1,18.1l0,0l0,0c-10,0-18.1,8.1-18.1,18.1l0,0l0,0
		c0-10-8.1-18.1-18.1-18.1l0,0l0,0C136.6,208.9,144.7,200.8,144.7,190.8L144.7,190.8z"/>
	<path d="M19.1,351.3c-4.2,0-8.2-2.8-9.3-7.1c-1.4-5.1,1.6-10.5,6.7-11.9c5.2-1.4,10.5,1.6,11.9,6.7s-1.6,10.5-6.7,11.9l0,0
		C20.8,351.2,20,351.3,19.1,351.3z M21,348.6L21,348.6L21,348.6z M19.1,336.8c-0.4,0-0.9,0.1-1.3,0.2c-2.5,0.7-4.1,3.4-3.3,5.9
		c0.7,2.5,3.4,4,5.9,3.3l0,0c2.6-0.7,4.1-3.4,3.3-5.9C23.1,338.2,21.2,336.8,19.1,336.8z"/>
	<circle cx="11.7" cy="368.2" r="4.2"/>
	<path class="st1" d="M694.4,267.3L694.4,267.3c0,10,8.1,18.1,18.1,18.1l0,0l0,0c-10,0-18.1,8.1-18.1,18.1l0,0l0,0
		c0-10-8.1-18.1-18.1-18.1l0,0l0,0C686.3,285.4,694.4,277.3,694.4,267.3L694.4,267.3z"/>
	<circle cx="404.9" cy="25.4" r="4.2"/>
</g>
<g>
	<polygon points="125.8,454.7 125.8,463.9 252.2,465.4 314.6,450.2 313.1,438 236.5,431.4 	"/>
	<polygon points="125.8,454.7 90.7,326.8 230.8,320.7 236.5,431.4 	"/>
	<g>
		<polygon class="st2" points="142.5,444.1 113.6,342.1 217.1,336 223.2,431.9 		"/>
		<path class="st1" d="M140.8,446.8l-30.3-107l109-6.4l6.4,100.6L140.8,446.8z M116.8,344.3l27.5,97l76.4-11.5l-5.8-91.3
			L116.8,344.3z"/>
	</g>
	<polygon class="st1" points="274.3,207.2 178.4,198 176.6,304.9 202,311 184.5,351.9 227.4,316.1 254.5,319.9 	"/>
	<polygon class="st2" points="236.2,225.5 213.4,223.9 216.5,262 228.6,262 	"/>
	<ellipse class="st2" cx="219.5" cy="281" rx="9.1" ry="8.4"/>
	<g>
		<line class="st3" x1="135.7" y1="364.2" x2="171.7" y2="360.6"/>
		<polygon points="135.8,365.3 135.6,363.1 171.6,359.4 171.9,361.7 		"/>
	</g>
	<g>
		<line class="st3" x1="136.7" y1="371.4" x2="187.7" y2="365.7"/>
		<polygon points="136.9,372.5 136.6,370.3 187.6,364.6 187.8,366.9 		"/>
	</g>
	<g>
		<line class="st3" x1="138.3" y1="379.1" x2="164.5" y2="375.5"/>
		<polygon points="138.4,380.3 138.1,378 164.4,374.4 164.7,376.7 		"/>
	</g>
</g>
<g>
	<path class="st1" d="M556.7,68.2c0,0-25.5,28.2-63.9,22.1S437.9,25,437.9,25s61-3.9,58.2,43.1c0,0,18.6-59.7,72.8-58.2
		C568.9,9.9,577.5,36.4,556.7,68.2z"/>
	<path class="st2" d="M507,87.5l-0.5-4.4c0.2,0,15.1-1.6,29.2-10.2c18.1-11,26.6-27.9,25.2-50.2c-6.8-0.5-32.3,0.5-52.4,39.4l-4-2.1
		c24.6-47.4,57.5-41.8,58.9-41.5l1.7,0.3l0.1,1.7c2.6,31.3-13.4,47.9-27.4,56.3C523,85.8,507.6,87.5,507,87.5z"/>
	<path class="st2" d="M465.2,67.5c-18.7-12.9-19.1-33.1-19.1-34v-2l2-0.2c33.1-3.4,45.6,28.2,45.7,28.5l-4.2,1.6
		c-0.4-1.1-10.9-27.3-38.9-25.9c0.6,5.2,3.5,19.1,17,28.3L465.2,67.5z"/>
	<path d="M472.9,55.6l-8,19.9c0,0-93.8,39.6-98.9,145.6c-5.6,118.6,111.4,183.6,111.4,183.6H529l-1.6-24.2c0,0,86-46.8,79.8-155.5
		S518.4,79.3,518.4,79.3l-7.5-20.9L472.9,55.6z"/>
	<path class="st2" d="M484.4,398.3c-3.2,0-6.3-1.5-8.3-4.1l-6.9-8.9c-7.2-3.4-83.1-41.8-91.2-151.3
		c-8.1-108.9,82.3-151.5,92.3-155.8l3.7-8.9c1-2.4,3-4.3,5.5-5.3c2.5-0.9,5.2-0.7,7.6,0.5l5.5,2.8l9.2,0.3c3.5,0.1,6.6,2,8.3,5
		l8.9,15.6c6,4.6,76.9,60.1,79.6,151.2c2.6,88.1-70.4,130.8-81.7,136.9l1.6,11.5c0.3,2.3-0.3,4.7-1.9,6.5s-3.7,2.9-6.1,3l-25.7,1
		C484.6,398.3,484.5,398.3,484.4,398.3z M482.7,67.9c-0.6,0-1.2,0.1-1.7,0.3c-1.3,0.5-2.4,1.5-2.9,2.8l-4.4,10.6l-0.9,0.3
		c-1,0.4-98.6,40.3-90.4,151.7c8.3,111.6,88.2,147.5,89.1,147.8l0.5,0.2l7.6,9.8c1.2,1.5,3.1,2.3,5,2.3l25.7-1
		c1.1,0,2.1-0.5,2.8-1.4s1-1.9,0.9-3l-2.1-14.7l1.5-0.7c0.8-0.4,83.4-41.5,80.7-133.5c-2.8-92.5-77.4-147.4-78.2-148l-0.6-0.7
		l-9.2-16c-1-1.7-2.7-2.7-4.6-2.8l-10.6-0.6l-5.9-3C484.3,68.1,483.5,67.9,482.7,67.9z"/>
	<path class="st1" d="M575.1,465.6h-42l-7.8-84.8c-0.1-1.2,0.8-2.3,2-2.4s2.3,0.8,2.4,2l7.4,80.8h32.6c-0.9-3.2-2.9-8.4-7.1-10.3
		c-3.7-1.6-8.7-0.4-14.7,3.7c-1,0.7-2.4,0.4-3.1-0.6c-0.7-1-0.4-2.4,0.6-3.1c7.4-5,13.8-6.4,19-4c8.5,3.8,10.2,15.8,10.3,16.3
		L575.1,465.6z"/>
	<path class="st1" d="M450.8,465.6l0.1-2.4c0-0.4,0.5-10.4,7.4-14.5c4.4-2.6,10.2-2.3,17.1,1c1.1,0.5,1.6,1.9,1.1,3s-1.9,1.6-3,1.1
		c-5.5-2.7-9.9-3.1-12.9-1.2c-3.1,1.9-4.4,5.9-4.9,8.5l30-0.8c0.1-60.1-29.1-66.8-29.4-66.9c-1.2-0.2-2-1.4-1.7-2.6
		c0.2-1.2,1.4-2,2.6-1.8c1.4,0.3,33.9,7.4,33,73.5v2.2L450.8,465.6z M487.9,462.4L487.9,462.4L487.9,462.4z"/>
	<path class="st2" d="M438.8,231c-2,0-4.2-0.5-6.6-1.5c-1.1-0.5-1.7-1.8-1.2-2.9s1.8-1.7,2.9-1.2c3.7,1.5,6.4,1.5,8.3,0
		c5.2-4.4,3.7-20.9,1.6-30.2c-0.3-1.2,0.5-2.4,1.7-2.7s2.4,0.5,2.7,1.7c0.6,2.8,5.8,27.1-3.1,34.6C443.3,230.3,441.2,231,438.8,231z
		"/>
	<path class="st2" d="M459.8,217.5c-0.3,0-0.6-0.1-0.9-0.2c-1.1-0.5-1.7-1.8-1.2-2.9c3.7-8.5,8.1-12.9,13.1-13.1c0.1,0,0.1,0,0.2,0
		c8.2,0,13.9,11.3,14.5,12.6c0.5,1.1,0.1,2.4-1,3c-1.1,0.5-2.4,0.1-3-1c-1.3-2.6-6-10.1-10.5-10.1h-0.1c-3.1,0.1-6.2,3.7-9.1,10.4
		C461.5,216.9,460.7,217.5,459.8,217.5z"/>
	<path class="st2" d="M433,210.5c-0.7,0-1.4-0.4-1.9-1c-3.2-4.9-7.6-11.6-10.6-11.6h-0.1c-1.4,0.1-3.9,1.8-7.6,9.4
		c-0.5,1.1-1.9,1.6-3,1c-1.1-0.5-1.6-1.9-1-3c3.8-8,7.3-11.7,11.3-11.9c5.3-0.4,9.3,5.1,14.8,13.6c0.7,1,0.4,2.4-0.6,3.1
		C433.9,210.4,433.4,210.5,433,210.5z"/>
	<path class="st1" d="M511.9,236.3c-0.1,0-0.3,0-0.4,0c-2.3-0.2-3.6-1.9-4.8-3.5c-0.4-0.6-0.9-1.2-1.5-1.8c-1.8-1.9-2.1-4.3-0.9-6.7
		c0.4-0.8,1-1.6,1.6-2.3c-0.5-0.5-0.8-1.3-0.6-2.1c0.2-0.6,0.8-2.1,3.2-2.3c1.3-0.1,3.2,0.1,5.2,0.7c0.4,0,0.8,0,1.2,0
		c2,0.2,2.9,1.2,3.4,2c1.7,1,3.1,2.3,3.8,3.9c0.7,1.5,1.2,4.4-2.2,7.6C516.4,234.9,514.1,236.3,511.9,236.3z M518.1,226.2
		c-0.3,0.6-0.6,1.2-0.9,1.9C518.1,227.1,518.2,226.6,518.1,226.2z M512.8,222.8c0.3,0.6,0.7,1.3,1.1,2.1c0.3-0.7,0.5-1.3,0.6-1.7
		c-0.5-0.2-0.9-0.4-1.4-0.5C513,222.7,512.9,222.7,512.8,222.8z"/>
	<path class="st1" d="M384.6,222.6c-0.1,0-0.3,0-0.4,0c-2.3-0.2-3.6-1.9-4.8-3.5c-0.4-0.6-0.9-1.2-1.5-1.8c-1.8-1.9-2.1-4.3-0.9-6.7
		c0.4-0.8,1-1.6,1.6-2.3c-0.5-0.5-0.8-1.3-0.6-2.1c0.2-0.6,0.8-2.1,3.2-2.3c1.3-0.1,3.2,0.1,5.2,0.7c0.4,0,0.8,0,1.2,0
		c2,0.2,3,1.2,3.4,2c1.7,1,3.1,2.3,3.8,3.9c0.7,1.5,1.2,4.4-2.2,7.6C389.1,221.2,386.7,222.6,384.6,222.6z M390.8,212.4
		c-0.3,0.6-0.6,1.2-0.9,1.9C390.8,213.4,390.9,212.8,390.8,212.4z M385.4,209c0.3,0.6,0.7,1.3,1.1,2.1c0.3-0.7,0.5-1.3,0.6-1.7
		c-0.5-0.2-0.9-0.4-1.4-0.5C385.7,209,385.6,209,385.4,209z"/>
	<path class="st4" d="M531.7,126.6c8.3-5.9,32.1,32.7,37,49s-8.2,19.6-11.4,10.9c-3.3-8.7-28.9-47.4-28.9-50.6
		S527.9,129.3,531.7,126.6z"/>
	<path class="st4" d="M525.7,119c-1.5,4.1-21.8-2.7-24-16.9S529,110.3,525.7,119z"/>
	<path class="st2" d="M459.6,262.5c-22.5,0-46.3-8.3-47.6-8.8c-1.2-0.4-1.8-1.7-1.4-2.9s1.7-1.8,2.9-1.4c0.4,0.2,45,15.8,68.2,4.4
		c6.1-3,10-7.5,12-13.6c0.4-1.2,1.7-1.8,2.8-1.4c1.2,0.4,1.8,1.6,1.4,2.8c-2.4,7.3-7.2,12.8-14.3,16.3
		C476.7,261.3,468.2,262.5,459.6,262.5z"/>
	<path class="st2" d="M462.7,278.7c-2.9,0-6.2-0.2-9.8-0.7c-20.6-2.7-32.6-6.6-35.7-11.7c-1.1-1.9-0.7-3.3-0.6-3.7
		c0.4-1.2,1.7-1.8,2.9-1.3c1,0.4,1.6,1.4,1.4,2.5c0.2,0.6,3,6,32.6,9.8c15.8,2,21.6-1,23.6-3.9c2.8-4.1-0.2-10.2-0.2-10.2
		c-0.6-1.1-0.1-2.4,0.9-3c1.1-0.6,2.4-0.2,3,0.9c0.2,0.3,4.4,8.5-0.1,14.9C477.8,276.6,471.7,278.7,462.7,278.7z M420.9,264.1
		L420.9,264.1L420.9,264.1z M420.9,264.1L420.9,264.1L420.9,264.1z"/>
	<path class="st1" d="M389.7,390.3c-1.1,0-2.3-0.1-3.4-0.4c-8.9-2-15-12-18.2-29.6c-0.2-1.2,0.6-2.4,1.8-2.6
		c1.2-0.2,2.4,0.6,2.6,1.8c2.8,15.7,7.8,24.5,14.8,26c12.1,2.7,29.1-16.6,34.6-24.3c0.7-1,2.1-1.2,3.1-0.5s1.2,2.1,0.5,3.1
		C424.7,365,406.4,390.3,389.7,390.3z"/>
	<polygon class="st1" points="333.9,338.1 304,314.8 273.9,319.7 258.4,345.1 291.4,340.2 311.1,359.8 296.9,383.9 265.5,390.3 
		288.5,409.1 317.2,403.8 338.5,370.9 361.7,366.9 359.7,357.1 380.1,354 381.4,363.5 532.2,337.4 534,329.5 524.2,330.7 524.2,312 
		539,309.5 541.8,297.1 	"/>
	<path class="st1" d="M378.2,371c-1,0-2-0.7-2.2-1.7l-2.3-10.5c-0.3-1.2,0.5-2.4,1.7-2.7c1.2-0.3,2.4,0.5,2.7,1.7l2.3,10.5
		c0.3,1.2-0.5,2.4-1.7,2.7C378.5,371,378.4,371,378.2,371z"/>
	<path class="st1" d="M366.8,374.5c-1,0-1.9-0.7-2.2-1.7l-3-13.1c-0.3-1.2,0.5-2.4,1.7-2.7c1.2-0.3,2.4,0.5,2.7,1.7l3,13.1
		c0.3,1.2-0.5,2.4-1.7,2.7C367.1,374.5,366.9,374.5,366.8,374.5z"/>
	<path class="st1" d="M529.4,322.9c-1.1,0-2-0.8-2.2-1.8c-0.2-1.2,0.6-2.4,1.8-2.6c87.7-16,102-32.1,102.6-40.4
		c0.9-10.3-18.2-19.5-25.7-22.2c-1.2-0.4-1.8-1.7-1.3-2.9c0.4-1.2,1.7-1.8,2.9-1.3c1.2,0.4,29.9,10.9,28.6,26.8
		c-1.4,17.1-36.2,31.6-106.3,44.4C529.7,322.9,529.6,322.9,529.4,322.9z"/>
	<path class="st1" d="M528.6,316.9c-1.1,0-2-0.8-2.2-1.9c-0.2-1.2,0.6-2.4,1.9-2.6l12.4-2c1.2-0.2,2.4,0.6,2.6,1.9
		c0.2,1.2-0.6,2.4-1.9,2.6l-12.4,2C528.9,316.8,528.8,316.9,528.6,316.9z"/>
	<path class="st1" d="M527.5,328.9c-1.1,0-2.1-0.9-2.2-2c-0.1-1.2,0.8-2.3,2-2.4l13.5-1.3c1.2-0.2,2.3,0.8,2.4,2
		c0.1,1.2-0.8,2.3-2,2.4l-13.5,1.3C527.7,328.9,527.6,328.9,527.5,328.9z"/>
</g>
</svg>
