<?xml version="1.0" encoding="utf-8"?>
<!-- Generator: Adobe Illustrator 27.1.1, SVG Export Plug-In . SVG Version: 6.00 Build 0)  -->
<svg version="1.1" id="Calque_1" xmlns="http://www.w3.org/2000/svg" xmlns:xlink="http://www.w3.org/1999/xlink" x="0px" y="0px"
	 viewBox="0 0 720 555" style="enable-background:new 0 0 720 555;" xml:space="preserve">
<style type="text/css">
	.st0{fill:#EDEDED;}
	.st1{fill:#C6C6C5;}
	.st2{fill:#5E5EF7;}
	.st3{fill:#FFFFFF;}
	.st4{fill:#575756;}
</style>
<path class="st0" d="M425.4,424.8C395,362.5,137.1,602.7,64.1,449.2C-12.1,289,212,217,212,217S197,46.6,382.4,46.6
	C547.1,46.6,542.6,267,542.6,267s176.8,101.6,116.9,199C596.9,567.7,466.6,509.1,425.4,424.8z"/>
<circle class="st1" cx="158.8" cy="106.9" r="31.3"/>
<circle class="st1" cx="342.2" cy="42" r="31.3"/>
<circle class="st1" cx="646.4" cy="235" r="31.3"/>
<circle class="st1" cx="154" cy="365.5" r="31.3"/>
<g>
	<polygon class="st1" points="54.1,213 55.2,224.7 134.5,224.7 132.3,211.7 	"/>
	<polygon class="st1" points="56.2,232.5 99.1,232.5 97,240.3 57.3,240.3 	"/>
	<polygon class="st1" points="57.2,246.8 107.2,246.8 106.6,251.2 56.6,249.8 	"/>
</g>
<g>
	<polygon class="st1" points="136.8,407.6 230.7,406.1 230.1,413.5 135.6,414.2 	"/>
	<polygon class="st1" points="136.2,420.9 193.5,420.1 193.5,426.8 137.4,427.5 	"/>
	<polygon class="st1" points="137.4,434.9 206.3,435.7 206.3,440.1 138,440.1 	"/>
</g>
<g>
	<polygon class="st1" points="250.1,30.2 301.4,29.5 301.4,40.6 250.5,39.1 	"/>
	<polygon class="st1" points="250.5,47.2 296.4,47.2 296,52.4 252.2,52.4 	"/>
	<polygon class="st1" points="250.5,59.1 268.9,59.1 268.5,63.5 250.1,63.5 	"/>
</g>
<path class="st2" d="M250.4,205.1c-0.9,0-1.7-0.5-2-1.3c-0.7-1.5-12.3-29-11.1-55.9c-13.2-2.7-28-7.1-44.4-13.4
	c-1.1-0.4-1.7-1.7-1.3-2.9c0.4-1.1,1.7-1.7,2.9-1.3c16,6.1,30.4,10.4,43.2,13.1c0.7-7.6,2.6-15.1,6.2-21.8c6.9-12.8,19-20.9,36-24
	c22.7-4.2,36.2,3.8,41.3,12.7c4.6,8,3.3,17.7-3.3,25.4c-10.7,12.6-35.6,20.5-76.1,13c-0.8,25.9,10.6,52.9,10.7,53.2
	c0.5,1.1,0,2.4-1.2,2.9C250.9,205.1,250.6,205.1,250.4,205.1z M241.9,144.4c38.9,7.4,62.5,0.2,72.5-11.5c5.4-6.3,6.5-13.9,2.8-20.3
	c-4.3-7.5-16.2-14.2-36.7-10.5c-15.6,2.9-26.7,10.2-32.9,21.7C244.3,130,242.6,137.1,241.9,144.4z"/>
<path class="st2" d="M197.5,146.2c-0.8,0-1.5-0.4-1.9-1.1l-8.5-14.5l14.2-7.3c1.1-0.6,2.4-0.1,3,1s0.1,2.4-1,3l-10,5.1l6.1,10.4
	c0.6,1.1,0.3,2.4-0.8,3C198.3,146.1,197.9,146.2,197.5,146.2z"/>
<path class="st2" d="M73.9,197.9L73.9,197.9c-1.3,0-2.3-1.1-2.2-2.3c1.4-43.2,60.2-61.7,62.7-62.4c1.2-0.4,2.4,0.3,2.8,1.5
	c0.4,1.2-0.3,2.4-1.5,2.8c-0.6,0.2-58.2,18.3-59.5,58.3C76.1,197,75.1,197.9,73.9,197.9z"/>
<path class="st2" d="M168,326.4c-0.3,0-0.6-0.1-0.9-0.2c-1.1-0.5-1.6-1.8-1.1-3c45.3-96.1,3.3-178.3,2.9-179.2
	c-0.6-1.1-0.1-2.4,0.9-3c1.1-0.6,2.4-0.2,3,0.9c0.4,0.8,43.5,85-2.8,183.1C169.6,325.9,168.8,326.4,168,326.4z"/>
<path class="st2" d="M191.9,350.3c-0.9,0-1.7-0.5-2.1-1.4c-0.4-1.1,0.1-2.4,1.3-2.9c78.7-29.9,73.3-82.5,73-84.7
	c-0.1-1.2,0.7-2.3,1.9-2.5c1.2-0.1,2.3,0.7,2.5,1.9c0.1,0.6,6.3,58.3-75.8,89.4C192.4,350.2,192.1,350.3,191.9,350.3z"/>
<path class="st2" d="M612.8,227.8c-0.4,0-0.8-0.1-1.1-0.3c-168.5-100.9-298.2-39.6-299.5-38.9c-1.1,0.5-2.4,0.1-3-1
	c-0.5-1.1-0.1-2.4,1-3c1.3-0.6,133.1-63.1,303.7,39.1c1.1,0.6,1.4,2,0.8,3C614.3,227.4,613.6,227.8,612.8,227.8z"/>
<path class="st2" d="M651,195.8c-1.1,0-2.1-0.8-2.2-2c-0.1-0.8-10.5-80.4-77.2-131C522.2,25.5,455,13,371.9,25.9
	c-1.2,0.2-2.3-0.6-2.5-1.9c-0.2-1.2,0.6-2.3,1.9-2.5c84.4-13,152.7-0.3,203.1,37.9c68.2,51.7,78.8,133.1,78.9,133.9
	c0.1,1.2-0.7,2.3-1.9,2.5C651.2,195.8,651.1,195.8,651,195.8z"/>
<path class="st2" d="M324.2,164.8c-0.6,0-1.2-0.3-1.7-0.8c-0.8-0.9-0.7-2.3,0.2-3.1c40.5-35.1,26.2-81.4,26-81.9
	c-0.4-1.2,0.3-2.4,1.4-2.8c1.2-0.4,2.4,0.3,2.8,1.4c0.2,0.5,15.4,49.6-27.3,86.6C325.2,164.6,324.7,164.8,324.2,164.8z"/>
<path class="st2" d="M317.9,168.8l2.6-16.4c0.2-1.2,1.3-2.1,2.5-1.9c1.2,0.2,2,1.3,1.8,2.5l-1.7,10.9l10-0.7
	c1.2-0.1,2.3,0.8,2.4,2.1c0.1,1.2-0.8,2.3-2.1,2.4L317.9,168.8z"/>
<path class="st2" d="M602.3,234c-0.9,0-1.8-0.6-2.1-1.5c-0.4-1.2,0.2-2.4,1.3-2.8l11.5-4.2l-7.1-11.3c-0.6-1-0.3-2.4,0.7-3.1
	c1.1-0.7,2.4-0.3,3.1,0.7l10,16l-16.6,6.1C602.8,234,602.6,234,602.3,234z"/>
<path class="st2" d="M388.1,33c-0.2,0-0.4,0-0.6-0.1l-21.9-6.3l9.9-17.8c0.6-1.1,1.9-1.5,3-0.9s1.5,1.9,0.9,3l-7.2,12.9l16.5,4.8
	c1.2,0.3,1.9,1.6,1.5,2.8C390,32.4,389.1,33,388.1,33z"/>
<path class="st2" d="M73.9,203.9L60,189c-0.8-0.9-0.8-2.3,0.1-3.1c0.9-0.8,2.3-0.8,3.1,0.1L74,197.6l11.6-11.2
	c0.9-0.9,2.3-0.8,3.1,0.1c0.9,0.9,0.8,2.3,0,3.1L73.9,203.9z"/>
<path class="st2" d="M164.5,330.6l-7.2-20.5c-0.4-1.2,0.2-2.4,1.4-2.8s2.4,0.2,2.8,1.4l5.6,16.2l15.3-6c1.1-0.4,2.4,0.1,2.9,1.3
	c0.4,1.1-0.1,2.4-1.3,2.9L164.5,330.6z"/>
<path class="st2" d="M257,274.5c-0.4,0-0.8-0.1-1.1-0.3c-1.1-0.6-1.4-2-0.8-3l10.8-18.5l11.8,18.4c0.7,1,0.4,2.4-0.7,3.1
	c-1,0.7-2.4,0.4-3.1-0.7l-7.8-12.3l-7.1,12.2C258.6,274.1,257.8,274.5,257,274.5z"/>
<circle class="st1" cx="284.6" cy="207.2" r="43.5"/>
<g>
	<path class="st2" d="M540.5,160.9c0,0-37.1,7.2-64.1-20.4s-4.8-84.6-4.8-84.6s50.9,33.2,20.7,68.9c0,0,50.3-36.5,92.6-3
		C584.9,121.7,575.9,148,540.5,160.9z"/>
	<path class="st3" d="M526.7,156.9c-2.2,0-4.3-0.1-6.4-0.3c-17.3-1.7-30.5-9.5-31-9.8l2.3-3.8c0.1,0.1,13,7.7,29.3,9.2
		c21,2.1,37.8-6.4,50-25c-5.1-4.4-26-18.8-65.2,0.2l-1.9-4c47.8-23.1,70.7,0.9,71.6,2l1.1,1.2l-0.9,1.4
		C561.2,151.2,542.1,156.9,526.7,156.9z"/>
	<path class="st3" d="M492.6,122.6c-0.2,0-0.5,0-0.8-0.1c-1.2-0.4-1.7-1.7-1.3-2.8c0.4-1.2,9.7-27.7-12.3-44.8
		c-2.9,4.3-9.8,16.6-5.7,32.3c0.3,1.2-0.4,2.4-1.6,2.7c-1.2,0.3-2.4-0.4-2.7-1.6c-5.7-21.9,7.3-37.3,7.9-38l1.3-1.5L479,70
		c27,19,15.8,50.9,15.7,51.2C494.3,122,493.5,122.6,492.6,122.6z"/>
	<path d="M425.3,454.5c0,0,123.9-7.1,150.3-140.2s-66-171.7-66-171.7l1-19.3l-47.7-2l-6.1,22.3c0,0-190,53.8-108.7,279.4l11.2,45.7
		l71.1,5.1L425.3,454.5z"/>
	<path class="st3" d="M396.2,463c-0.6,0-1.2-0.1-1.9-0.2c-7.4-1.7-10.8-5.8-12.1-8.1h-13.7l-0.6-0.6c-0.4-0.4-9.9-9-9.9-25
		c0-3.4-2.3-8.8-5.3-15.8c-9.3-21.9-26.6-62.6-11.9-131c18.6-87,106.8-127,114.6-130.4c3.6-4.4,13.8-16.5,18.1-17.6
		c4-1,10.6,1.8,13,2.8c1.9-0.4,6.3-1,9.1,1.9c3,3.1,3.1,8.6,0.4,16.7c12.6,7.8,93.8,63.2,64.5,168.2
		C530.8,430.2,426.7,444,413.6,445.3C411.5,449.9,404.8,463,396.2,463z M370.3,450.3h14.9l0.5,1.5c0.1,0.2,1.9,5,9.5,6.7
		c6,1.3,12.8-11.4,14.7-16l0.5-1.3l1.4-0.1c1.1-0.1,113.6-8.4,144.3-118.3c30.6-109.7-63-163.5-64-164.1l-1.6-0.9l0.6-1.8
		c3.6-9.8,2-12.9,1.2-13.8c-1.7-1.8-5.5-0.6-5.5-0.6L486,142l-0.8-0.4c-3.1-1.5-8.4-3.5-10.7-2.9c-2,0.5-10,9-16.1,16.5l-0.4,0.4
		l-0.5,0.2c-0.9,0.4-93.6,39.2-112.4,127.4c-14.3,67,2.6,106.9,11.7,128.3c3.3,7.7,5.6,13.2,5.6,17.5
		C362.5,440.9,368.4,448.3,370.3,450.3z"/>
	<path class="st3" d="M401.4,292.5c-2.7,0-5.6-1.2-8.6-3.5c-1-0.7-1.2-2.1-0.4-3.1c0.7-1,2.1-1.2,3.1-0.4c3.2,2.4,5.9,3.1,8,2.1
		c5.9-2.9,8.4-18.7,8.6-28c0-1.2,1-2.2,2.2-2.2l0,0c1.2,0,2.2,1,2.2,2.3c-0.1,2.7-0.9,26.9-11.1,31.9
		C404.1,292.2,402.8,292.5,401.4,292.5z"/>
	<path class="st3" d="M452.6,290.7c-0.9,0-1.7-0.6-2.1-1.4c0-0.1-3.9-10.4-10.7-11.6c-3.7-0.7-7.9,1.6-12.4,6.7
		c-0.8,0.9-2.2,1-3.1,0.2s-1-2.2-0.2-3.1c5.6-6.4,11.2-9.1,16.6-8.1c9.2,1.7,13.8,13.9,14,14.4c0.4,1.1-0.2,2.4-1.3,2.9
		C453.1,290.7,452.9,290.7,452.6,290.7z"/>
	<path class="st3" d="M397.7,271.7c-1.1,0-2-0.8-2.2-1.9c-0.4-2.5-2.4-9.5-6.4-10.8c-3.3-1.1-7.3,2-10.2,4.7
		c-0.9,0.8-2.3,0.8-3.1-0.1c-0.9-0.9-0.8-2.3,0.1-3.1c5.4-5.2,10.3-7.1,14.6-5.7c7.2,2.4,9.2,13,9.4,14.3c0.2,1.2-0.6,2.3-1.8,2.6
		C397.9,271.7,397.8,271.7,397.7,271.7z"/>
	<path class="st2" d="M468.6,316.4c-0.6,0-1.2-0.1-1.8-0.3c-2.2-0.8-3-2.7-3.8-4.6c-0.3-0.7-0.6-1.4-1-2.1c-1.2-2.2-0.9-4.7,0.8-6.7
		c0.6-0.7,1.3-1.3,2.2-1.8c-0.4-0.6-0.4-1.5,0-2.2c0.3-0.6,1.3-1.8,3.7-1.4c1.3,0.2,3.1,0.9,4.9,2c0.4,0.1,0.7,0.2,1.1,0.3
		c1.8,0.7,2.5,1.9,2.8,2.7c1.4,1.4,2.4,3,2.7,4.7c0.3,1.6,0.1,4.5-4,6.7C472.8,315.6,470.5,316.4,468.6,316.4z M475.8,308
		c-0.4,0.5-0.8,1.1-1.3,1.6C475.5,309,475.7,308.4,475.8,308z M471.4,303.4c0.2,0.6,0.4,1.4,0.5,2.3c0.5-0.6,0.8-1.1,1.1-1.5
		c-0.4-0.3-0.8-0.6-1.2-0.8C471.7,303.4,471.6,303.4,471.4,303.4z"/>
	<path class="st3" d="M441,317.7c-0.1,0-0.1,0-0.2,0c-42.8-3.8-72-25.1-73.3-26c-1-0.7-1.2-2.1-0.5-3.1s2.1-1.2,3.1-0.5
		c0.3,0.2,29.5,21.4,71,25.1c1.2,0.1,2.1,1.2,2,2.4C443.1,316.9,442.1,317.7,441,317.7z"/>
	<path class="st2" d="M349.5,271.3c-0.6,0-1.2-0.1-1.8-0.3c-2.2-0.8-3-2.7-3.8-4.6c-0.3-0.7-0.6-1.4-1-2.1c-1.2-2.2-0.9-4.7,0.8-6.7
		c0.6-0.7,1.3-1.3,2.2-1.8c-0.4-0.6-0.4-1.5,0-2.2c0.3-0.6,1.3-1.8,3.7-1.4c1.3,0.2,3.1,0.9,4.9,2c0.4,0.1,0.7,0.2,1.1,0.3
		c1.8,0.7,2.5,1.9,2.8,2.7c1.4,1.4,2.4,3,2.7,4.7c0.3,1.6,0.1,4.5-4,6.7C353.7,270.5,351.4,271.3,349.5,271.3z M356.7,262.9
		c-0.4,0.5-0.8,1.1-1.3,1.6C356.4,263.9,356.7,263.3,356.7,262.9z M352.4,258.3c0.2,0.6,0.4,1.4,0.5,2.3c0.5-0.6,0.8-1.1,1.1-1.5
		c-0.4-0.3-0.8-0.6-1.2-0.8C352.6,258.3,352.5,258.3,352.4,258.3z"/>
	<path class="st2" d="M454,535.7h-32.2l-0.2-2c0-0.4-0.9-9.2,4.5-13.5c3.2-2.6,7.7-2.9,13.4-1c1.2,0.4,1.8,1.6,1.4,2.8
		s-1.6,1.8-2.8,1.4c-4.2-1.4-7.3-1.3-9.2,0.3c-2.1,1.7-2.8,5.2-2.9,7.6h21.9l-24.7-76.1c-0.4-1.2,0.3-2.4,1.4-2.8
		c1.2-0.4,2.4,0.3,2.8,1.4L454,535.7z"/>
	<path class="st2" d="M407.1,534.8h-34.8l-0.2-2c0-0.3-0.8-8.2,4.5-12.7c3.8-3.2,9.5-3.8,17-1.8c1.2,0.3,1.9,1.5,1.6,2.7
		s-1.5,1.9-2.7,1.6c-5.9-1.6-10.3-1.3-12.9,0.9c-2.2,1.9-2.9,4.9-3,6.9h24.8l-16.1-59c-0.3-1.2,0.4-2.4,1.6-2.7
		c1.2-0.3,2.4,0.4,2.7,1.6L407.1,534.8z"/>
	<path class="st4" d="M542.6,267c0,0-29-24.5-20.4-48.7s26.5,23.7,26.6,29.1C548.9,252.9,549,266.4,542.6,267z"/>
	<path class="st4" d="M510.6,208.1c0,0,6.4,13.7,10.6,3.4s0.8-22.2-4.1-21C512.3,191.6,508,193.8,510.6,208.1z"/>
	<path class="st3" d="M403.9,324c-4,0-8.3-0.4-12.6-1.5c-6.9-1.7-10.4-4.3-10.8-7.9c-0.7-6.3,9.6-11.7,11.6-12.8
		c1.1-0.5,2.4-0.1,3,1c0.5,1.1,0.1,2.4-1,3c-4,2-9.4,6-9.2,8.3c0.1,1.1,2.1,2.8,7.5,4.1c20.2,5.1,39.5-5.6,39.7-5.7
		c1.1-0.6,2.4-0.2,3,0.8c0.6,1.1,0.2,2.4-0.8,3C433.5,316.7,420.4,324,403.9,324z"/>
	<path class="st2" d="M340.8,408c-0.4,0-0.7-0.1-1.1-0.3c-2.2-1.2-53.3-29.9-47.9-55.6c3.5-16.8,28.8-27.2,77.3-32
		c1.2-0.1,2.3,0.8,2.4,2s-0.8,2.3-2,2.4c-56.9,5.6-71.3,18.6-73.4,28.5c-4.7,22.5,45.2,50.5,45.8,50.8c1.1,0.6,1.5,1.9,0.9,3
		C342.3,407.6,341.6,408,340.8,408z"/>
</g>
<polygon points="507.4,538.2 615.3,538.2 608.2,476.1 537.9,475.4 515.6,475.2 "/>
<polygon points="545.7,454.9 553.9,454.9 550.4,477.5 537.5,478.5 "/>
<polygon points="574,454 577.5,478.6 590.1,477.7 581.1,454 "/>
<path class="st2" d="M524.7,485.7h76.8c0,0-3.7,29-33.7,30.9C537.8,518.4,524.7,485.7,524.7,485.7z"/>
<polygon class="st3" points="556.5,508.1 556.5,527.8 571.5,526.9 571.5,506.3 "/>
<path class="st2" d="M563.9,465.6L563.9,465.6c-1.3-0.1-2.3-1.1-2.2-2.3c2.2-42.6-25.7-63.8-25.9-64c-1-0.7-1.2-2.1-0.5-3.1
	s2.1-1.2,3.1-0.5c1.2,0.9,30.1,22.7,27.7,67.8C566.1,464.7,565.1,465.6,563.9,465.6z"/>
<path class="st2" d="M557.6,466.4L557.6,466.4c-1.3,0-2.3-1-2.2-2.3l0.2-10c0-1.2,1-2.2,2.2-2.2c0,0,0,0,0.1,0c1.2,0,2.2,1,2.2,2.3
	l-0.2,10C559.8,465.4,558.8,466.4,557.6,466.4z"/>
<path class="st2" d="M570.2,466.1c-1.2,0-2.2-1-2.2-2.2l-0.3-9.9c0-1.2,0.9-2.3,2.2-2.3c1.2,0.1,2.3,0.9,2.3,2.2l0.3,9.9
	C572.4,465.1,571.5,466.1,570.2,466.1L570.2,466.1z"/>
<path d="M671.2,515.9c-0.6,0-1.2-0.2-1.7-0.7c-1-0.9-1-2.4-0.1-3.4c7.5-8,14.4-17.1,20.5-27c17.1-27.8,21.9-59.3,13.9-91
	c-7-27.5-23.7-55.6-49.6-83.5c-0.9-1-0.9-2.5,0.1-3.4s2.5-0.9,3.4,0.1c26.5,28.5,43.6,57.3,50.8,85.6c8.4,33,3.4,65.8-14.4,94.8
	c-6.3,10.2-13.4,19.6-21.1,27.8C672.5,515.6,671.9,515.9,671.2,515.9z"/>
<path d="M147,542c-68.4,0-102.7-39.7-119.7-75.4C9.3,428.7,3.5,391.5,10.2,356c0.2-1.3,1.5-2.2,2.8-1.9c1.3,0.2,2.2,1.5,1.9,2.8
	c-6.4,34.5-0.8,70.7,16.8,107.6c18.6,39.1,58.8,83.1,144.4,70.4c27.5-4.1,58.3-13.6,97-30.1c18-7.6,35.5-15.8,52.4-23.7l1.3,2.1
	l1,2.2c-17.2,8-34.8,16.2-52.8,23.9c-39,16.6-70.2,26.2-98.2,30.4C166.2,541.3,156.3,542,147,542z"/>
<path d="M23.9,345.2c-5.3,0-9.6-4.3-9.6-9.6c0-5.3,4.3-9.6,9.6-9.6s9.6,4.3,9.6,9.6C33.6,340.9,29.3,345.2,23.9,345.2z M23.9,330.8
	c-2.6,0-4.8,2.1-4.8,4.8s2.1,4.8,4.8,4.8c2.6,0,4.8-2.1,4.8-4.8S26.6,330.8,23.9,330.8z"/>
<circle cx="38.9" cy="311.9" r="4.2"/>
<circle cx="657.7" cy="523.2" r="4.2"/>
<path class="st2" d="M634.9,271.4L634.9,271.4c0,9.9,8.1,18,18,18l0,0l0,0c-9.9,0-18,8.1-18,18l0,0l0,0c0-9.9-8.1-18-18-18l0,0l0,0
	C626.8,289.4,634.9,281.4,634.9,271.4L634.9,271.4z"/>
<path d="M205.6,33.9L205.6,33.9c0,9.9,8.1,18,18,18l0,0l0,0c-9.9,0-18,8.1-18,18l0,0l0,0c0-9.9-8.1-18-18-18l0,0l0,0
	C197.5,51.9,205.6,43.8,205.6,33.9L205.6,33.9z"/>
</svg>
