<?xml version="1.0" encoding="utf-8"?>
<!-- Generator: Adobe Illustrator 27.1.1, SVG Export Plug-In . SVG Version: 6.00 Build 0)  -->
<svg version="1.1" id="Calque_1" xmlns="http://www.w3.org/2000/svg" xmlns:xlink="http://www.w3.org/1999/xlink" x="0px" y="0px"
	 viewBox="0 0 720 528.6" style="enable-background:new 0 0 720 528.6;" xml:space="preserve">
<style type="text/css">
	.st0{fill:#EDEDED;}
	.st1{fill:#5E5EF7;}
	.st2{fill:#57DBE9;}
	.st3{fill:#FFFFFF;}
	.st4{fill:#575756;}
	.st5{fill:none;stroke:#000000;stroke-width:1.1397;stroke-linecap:round;stroke-miterlimit:10;}
</style>
<g>
	<path class="st0" d="M336,482c-66.5,2.5-293-53.6-281.9-145.6S195,169,195,169s-121.1-7.8-78.3-87.4c40.9-76,325.4,17.1,325.4,17.1
		s96.6-63.6,185.3-20.1S687.6,468.6,336,482z"/>
	<path d="M95.9,457.6c-0.4,0-0.9-0.1-1.3-0.3C73.4,444.9,56,431.4,43,417.4c-30.2-32.8-33.6-64.9-31-86.1
		c4-32.9,19.1-66.3,45.1-99.3c0.9-1.1,2.4-1.3,3.5-0.4c1.1,0.9,1.3,2.4,0.4,3.5c-25.4,32.2-40.2,64.8-44,96.8
		c-2.4,20.1,0.8,50.7,29.7,82.1c12.6,13.7,29.6,26.8,50.5,38.9c1.2,0.7,1.6,2.2,0.9,3.4C97.7,457.1,96.8,457.6,95.9,457.6z"/>
	<path d="M77.5,153.6c-0.9,0-1.7-0.5-2.2-1.3c-4.7-8.5-7.8-17.7-9.3-27.2c-3-20.1,1.5-41.5,13.4-63.6
		c22.5-41.7,75.3-58.2,161.5-50.2c1.4,0.1,2.4,1.4,2.3,2.7c-0.1,1.4-1.3,2.4-2.7,2.3c-83.9-7.8-135.1,7.8-156.6,47.5
		C72.5,85,68.2,105.3,71,124.3c1.3,9,4.3,17.5,8.7,25.5c0.7,1.2,0.2,2.8-1,3.4C78.3,153.5,77.9,153.6,77.5,153.6z"/>
	<path d="M555.6,460.9c-0.8,0-1.6-0.4-2.1-1.2c-0.8-1.2-0.4-2.7,0.8-3.5c102.3-65.9,135.6-160.8,146.3-211.5
		C720,153.1,696.7,71,643.8,45.1c-58.4-28.7-118.2-19.6-158.1-6.9c-1.3,0.4-2.7-0.3-3.2-1.6c-0.4-1.3,0.3-2.7,1.6-3.2
		c40.8-13,101.9-22.2,161.9,7.2c54.9,27,79.4,111.4,59.5,205.3c-10.9,51.5-44.7,147.8-148.5,214.7
		C556.5,460.8,556.1,460.9,555.6,460.9z"/>
	<path d="M529.8,480.3c-1.7,0-3.4-0.4-5-1.3c-2.3-1.3-4-3.5-4.7-6.1s-0.3-5.3,1-7.6c1.3-2.3,3.5-4,6.1-4.7s5.3-0.3,7.6,1
		s4,3.5,4.7,6.1s0.3,5.3-1,7.6C536.7,478.5,533.3,480.3,529.8,480.3z M529.9,465.3c-0.4,0-0.9,0.1-1.3,0.2c-1.3,0.3-2.4,1.2-3,2.3
		c-0.7,1.2-0.8,2.5-0.5,3.8s1.2,2.4,2.3,3c2.4,1.4,5.4,0.5,6.8-1.8c0.7-1.2,0.8-2.5,0.5-3.8s-1.2-2.4-2.3-3
		C531.6,465.6,530.7,465.3,529.9,465.3z"/>
	<circle cx="504.9" cy="484.2" r="4.3"/>
	<path class="st1" d="M63.8,187.7L63.8,187.7c0,10.3,8.4,18.7,18.7,18.7l0,0l0,0c-10.3,0-18.7,8.4-18.7,18.7l0,0l0,0
		c0-10.3-8.4-18.7-18.7-18.7l0,0l0,0C55.5,206.5,63.8,198.1,63.8,187.7L63.8,187.7z"/>
	<path class="st1" d="M459.9,10.3L459.9,10.3c0,10.3,8.4,18.7,18.7,18.7l0,0l0,0c-10.3,0-18.7,8.4-18.7,18.7l0,0l0,0
		c0-10.3-8.4-18.7-18.7-18.7l0,0l0,0C451.5,29,459.9,20.6,459.9,10.3L459.9,10.3z"/>
	<circle cx="110.6" cy="461.9" r="4.3"/>
</g>
<g>
	<polygon class="st2" points="161.6,254.1 135.2,115.7 313.6,93.2 322.4,212.2 	"/>
	<polygon class="st2" points="377,222.9 440.3,57.2 626.5,131.3 557.3,284.3 	"/>
	<polygon class="st1" points="95.3,232.6 203.5,214.1 205.4,285.3 181.1,291.1 208.3,319.4 156.7,296 113.8,303.8 	"/>
	<polygon points="503.7,306.2 518.3,239.9 607,269.2 578.7,326.7 539.8,315 507.6,331.6 522.2,311.1 	"/>
	<polygon points="114.2,333.4 160.4,306 176.1,342.8 162.8,350.7 180.8,360.1 151.8,356.9 132.2,367.9 	"/>
	<circle class="st3" cx="164.9" cy="135.6" r="7.9"/>
	<circle class="st1" cx="527.6" cy="256.8" r="4.7"/>
	<circle class="st1" cx="449.1" cy="76.7" r="4.7"/>
	<circle class="st1" cx="128.4" cy="336.9" r="3.1"/>
	<circle class="st2" cx="113.8" cy="243.3" r="4.7"/>
	<path class="st1" d="M587.6,245.1c-0.6,0-1.2-0.2-1.7-0.7c-0.9-0.9-0.8-2.4,0.1-3.3l13.1-12.1c0.9-0.9,2.4-0.8,3.3,0.1
		c0.9,0.9,0.8,2.4-0.1,3.3l-13.1,12.1C588.8,244.9,588.2,245.1,587.6,245.1z"/>
	<path class="st1" d="M590.5,255.6c-1.2,0-2.2-0.9-2.3-2.1c-0.1-1.3,0.8-2.4,2.1-2.5l19.1-1.7c1.3-0.1,2.4,0.8,2.5,2.1
		s-0.8,2.4-2.1,2.5l-19.1,1.7C590.7,255.6,590.6,255.6,590.5,255.6z"/>
	<path class="st1" d="M122.1,216.1c-0.1,0-0.2,0-0.3,0l-20.8-2.5c-1.3-0.2-2.2-1.3-2-2.6s1.3-2.2,2.6-2l20.8,2.5
		c1.3,0.2,2.2,1.3,2,2.6C124.3,215.2,123.3,216.1,122.1,216.1z"/>
	<path class="st1" d="M128.3,203.4c-0.5,0-1-0.2-1.4-0.5l-21.1-16c-1-0.8-1.2-2.2-0.4-3.2c0.8-1,2.2-1.2,3.2-0.4l21.1,16
		c1,0.8,1.2,2.2,0.4,3.2C129.7,203.1,129,203.4,128.3,203.4z"/>
	<path class="st1" d="M138.4,195c-0.8,0-1.6-0.4-2-1.2l-12.6-23.6c-0.6-1.1-0.2-2.5,0.9-3.1s2.5-0.2,3.1,0.9l12.6,23.6
		c0.6,1.1,0.2,2.5-0.9,3.1C139.1,194.9,138.8,195,138.4,195z"/>
	<polygon class="st3" points="553.6,143.9 635.1,174.1 615,214.3 553.6,190.1 510.4,205.2 536.5,185.1 517.4,176.1 529.5,135.8 	"/>
</g>
<g>
	<path class="st1" d="M299.3,101c0,0,26.4,29.1,66.2,22.9c39.8-6.3,56.8-67.6,56.8-67.6s-63.2-4-60.2,44.6c0,0-19.2-61.8-75.4-60.2
		C286.6,40.7,277.8,68.2,299.3,101z"/>
	<path class="st3" d="M350.8,121c-0.7-0.1-65.6-7.4-60.3-69.4l0.1-1.8l1.7-0.3c1.4-0.3,35.5-6.1,61,43l-4.1,2.1
		c-20.7-39.9-47.3-41.1-54.3-40.7c-3.4,55.6,53.9,62.2,56.3,62.5L350.8,121z"/>
	<path class="st3" d="M394.1,100.3l-2.6-3.8c13.9-9.6,16.9-23.9,17.6-29.3c-28.9-1.6-39.8,25.6-40.3,26.8l-4.3-1.7
		c0.1-0.3,13.1-33.1,47.3-29.5l2.1,0.2v2.1C413.8,66,413.5,87,394.1,100.3z"/>
	<path d="M330.5,84.7h45.4l2.8,24.1c0,0,93.5,46.8,96.4,167.2S374.4,461.6,374.4,461.6l-55.3,1.4l-5.7-25.5
		c0,0-89.3-29.8-82.2-161.6S329,114.3,329,114.3L330.5,84.7z"/>
	<path class="st3" d="M372.3,454.8c-0.3,0-0.5,0-0.8-0.1c-6.1-1-18.6-2.1-18.7-2.1l-21.5,1.1l-6.5-21.7
		c-10.5-4.4-92.6-42.6-86.7-146c5.9-101.6,55.5-152,100.8-165.5c-0.5-5-1.7-17.2-0.8-21c0.3-1.2,1.1-2.2,2.3-2.8
		c3.3-1.8,9.5-0.1,12.4,0.9l16.7-8.4l3.4,25.2c10.5,5.7,92.8,53.9,93.8,155S392,424.3,382.4,430.6c-0.5,5-2.3,19.3-7.2,23.1
		C374.4,454.4,373.4,454.8,372.3,454.8z M352.8,448c0.8,0,13.1,1.1,19.4,2.1c1.8-0.2,4.7-9.7,5.7-21.1l0.1-1.2l1-0.6
		c0.8-0.5,84.1-53.2,83.1-157.9s-91.4-151.1-92.3-151.5l-1.1-0.5l-2.9-21.2l-12.7,6.4l-0.9-0.3c-4.1-1.5-8.8-2.2-9.7-1.5
		c-0.6,2.6,0.4,14.4,1.2,21.1l0.2,2l-1.9,0.5c-15.3,4.2-91.8,32-99.3,162c-6.1,106.4,83.9,141.5,84.8,141.8l1.1,0.4l6.1,20.4
		L352.8,448z"/>
	<path class="st1" d="M331.5,524.2h-45.3l0.3-2.6c0.1-0.5,1.6-11.5,9.8-15.7c5.3-2.7,12-1.9,19.9,2.4c1.1,0.6,1.5,2,0.9,3.1
		c-0.6,1.1-2,1.5-3.1,0.9c-6.4-3.5-11.6-4.3-15.5-2.3c-4,2-5.9,6.6-6.8,9.5H326L312.2,439c-0.2-1.3,0.6-2.5,1.9-2.7s2.5,0.6,2.7,1.9
		L331.5,524.2z"/>
	<path class="st1" d="M415.9,524.2h-42.7l20.6-91.2c0.3-1.2,1.5-2,2.8-1.7c1.2,0.3,2,1.5,1.7,2.8L379,519.6h30.7
		c-1.2-3.1-3.7-7.9-7.7-9.8c-2.7-1.3-5.7-1.1-9.1,0.5c-1.2,0.5-2.5,0-3.1-1.1c-0.5-1.2,0-2.5,1.1-3.1c4.7-2.2,9.1-2.4,13.1-0.5
		c8.2,3.9,11.1,15.2,11.2,15.7L415.9,524.2z"/>
	<path class="st1" d="M201.1,400.7c-8.2,0-13.4-2.2-15.8-6.6c-10.2-18.6,41.2-69.1,47.1-74.8c0.9-0.9,2.4-0.9,3.3,0.1
		c0.9,0.9,0.9,2.4-0.1,3.3c-21.3,20.6-52.7,57.6-46.3,69.3c1.9,3.5,8.8,6.7,30.6,1.5c82.3-19.5,100.2-33.1,100.4-33.2
		c1-0.8,2.4-0.6,3.2,0.4c0.8,1,0.6,2.4-0.3,3.2c-0.7,0.6-18.3,14.2-102.2,34.1C213.1,399.8,206.5,400.7,201.1,400.7z"/>
	<path class="st1" d="M492.1,403.9c-20.3,0-56.2-12.5-108.5-37.8c-1.1-0.6-1.6-1.9-1.1-3.1c0.6-1.1,1.9-1.6,3.1-1.1
		c92.3,44.6,114.8,39.7,120,32.9c10.1-13.3-22.2-55.3-35.4-70.3c-0.8-1-0.8-2.4,0.2-3.3c1-0.8,2.4-0.8,3.3,0.2
		c5.1,5.8,49.9,57.4,35.7,76.2C506.1,401.9,500.4,403.9,492.1,403.9z"/>
	<path class="st1" d="M302.8,364.9c-0.9,0-1.7-0.5-2.1-1.4c-0.5-1.2,0-2.5,1.2-3l15.7-6.8c1.2-0.5,2.5,0,3,1.2s0,2.5-1.2,3
		l-15.7,6.8C303.4,364.8,303.1,364.9,302.8,364.9z"/>
	<path class="st1" d="M305.8,379c-0.9,0-1.8-0.6-2.2-1.5c-0.4-1.2,0.2-2.5,1.4-3l16.9-6.1c1.2-0.4,2.5,0.2,3,1.4
		c0.4,1.2-0.2,2.5-1.4,3l-16.9,6.1C306.4,379,306.1,379,305.8,379z"/>
	<path class="st1" d="M395,380.3c-0.4,0-0.8-0.1-1.1-0.3l-12.9-7.4c-1.1-0.6-1.5-2-0.9-3.2c0.6-1.1,2-1.5,3.2-0.9l12.9,7.4
		c1.1,0.6,1.5,2,0.9,3.2C396.5,379.8,395.8,380.3,395,380.3z"/>
	<path class="st1" d="M401.4,366.4c-0.4,0-0.8-0.1-1.1-0.3l-16.3-8.9c-1.1-0.6-1.5-2-0.9-3.1s2-1.5,3.1-0.9l16.3,8.9
		c1.1,0.6,1.5,2,0.9,3.1C403,366,402.2,366.4,401.4,366.4z"/>
	<path class="st1" d="M287.1,290.8c-2.3,0-4.7-1.5-8.3-5.2c-3.4-3.4-2.7-6.4-1.9-7.9c0.8-1.6,2.3-2.9,4.1-3.9
		c0.5-0.8,1.6-1.7,3.6-1.9c0.4,0,0.8,0,1.2,0c2.1-0.5,4.1-0.7,5.5-0.5c2.5,0.3,3.1,1.9,3.2,2.6c0.2,0.8-0.1,1.6-0.7,2.1
		c0.7,0.8,1.2,1.6,1.6,2.5c1.1,2.5,0.7,5.1-1.2,6.9c-0.6,0.6-1.2,1.3-1.6,1.8c-1.4,1.6-2.8,3.3-5.2,3.4
		C287.2,290.8,287.1,290.8,287.1,290.8z M280.8,280c-0.1,0.4,0,1,0.8,2C281.4,281.4,281.1,280.7,280.8,280z M284.8,277.1
		c0.1,0.4,0.3,1,0.6,1.8c0.4-0.9,0.8-1.5,1.1-2.1c-0.2-0.1-0.3-0.1-0.5-0.1C285.6,276.8,285.2,277,284.8,277.1z"/>
	<path class="st1" d="M419.3,282.4c-2.3,0-4.7-1.5-8.3-5.2c-3.4-3.4-2.7-6.4-1.9-7.9c0.8-1.6,2.3-2.9,4.1-3.9
		c0.5-0.8,1.6-1.7,3.6-1.9c0.4,0,0.8,0,1.2,0c2.1-0.5,4.1-0.7,5.5-0.5c2.5,0.3,3.1,1.9,3.2,2.6c0.2,0.8-0.1,1.6-0.7,2.1
		c0.7,0.8,1.2,1.6,1.6,2.5c1.1,2.5,0.7,5.1-1.2,6.9c-0.6,0.6-1.2,1.3-1.6,1.8c-1.4,1.6-2.8,3.3-5.2,3.4
		C419.5,282.4,419.4,282.4,419.3,282.4z M413.1,271.6c-0.1,0.4,0,1,0.8,2C413.7,272.9,413.4,272.2,413.1,271.6z M417.1,268.7
		c0.1,0.4,0.3,1,0.6,1.8c0.4-0.9,0.8-1.5,1.1-2.1c-0.2-0.1-0.3-0.1-0.5-0.1C417.9,268.4,417.5,268.5,417.1,268.7z"/>
	<path class="st3" d="M347.3,298.1c-1.3,0-2.7-0.2-4.3-0.5c-1.3-0.3-2.1-1.5-1.8-2.7c0.3-1.3,1.5-2.1,2.7-1.8
		c4.1,0.8,6.9,0.3,8.4-1.6c4.4-5.4-0.3-21.9-4.3-31.1c-0.5-1.2,0-2.5,1.2-3s2.5,0,3,1.2c1.2,2.7,11.2,26.4,3.7,35.8
		C353.9,296.8,351,298.1,347.3,298.1z"/>
	<path class="st3" d="M391.9,276.2L391.9,276.2c-1.3,0-2.3-1-2.3-2.3c0-3.9-1-6.4-2.9-7.5c-4.6-2.6-14.5,2.4-17.6,4.4
		c-1.1,0.7-2.5,0.4-3.2-0.7s-0.4-2.5,0.7-3.2c1.5-0.9,14.5-8.9,22.3-4.5c3.5,1.9,5.3,5.8,5.3,11.5
		C394.3,275.1,393.2,276.2,391.9,276.2z"/>
	<path class="st3" d="M316.3,276.9C316.2,276.9,316.2,276.9,316.3,276.9c-1.3,0-2.3-1.1-2.3-2.4c0.1-4.7,1.7-8.1,4.8-10.1
		c6.9-4.4,18.2,0.6,19.4,1.1c1.2,0.5,1.7,1.9,1.1,3.1c-0.5,1.2-1.9,1.7-3.1,1.1c-2.8-1.3-11-4-15.1-1.4c-1.7,1.1-2.6,3.1-2.7,6.3
		C318.5,275.9,317.5,276.9,316.3,276.9z"/>
	<path class="st3" d="M348.9,331.7c-40.1,0-70.6-15.1-71.1-15.3c-1.1-0.6-1.6-2-1-3.1s2-1.6,3.1-1c0.8,0.4,80.1,39.5,150-10.9
		c1-0.7,2.5-0.5,3.2,0.5s0.5,2.5-0.5,3.2C404.4,325.5,374.7,331.7,348.9,331.7z"/>
	<polygon class="st1" points="313.2,350 324,346.6 331.6,374.6 320.9,378.3 322.7,403.8 379.9,404.1 383.9,379.8 374.1,371.2 
		382.4,346.6 390.4,351.2 396.2,307.9 310.4,310.3 	"/>
	<path class="st4" d="M387.4,150.5c-11.4,4.4,23.5,37.8,32.6,70.4s27.4,11.1,21.5-5.9C435.6,198.1,401.1,145.3,387.4,150.5z"/>
	<path class="st4" d="M384.9,145.7c-5.1,4.4-20.8-6.9-16.4-13.2C372.8,126.3,392.2,139.5,384.9,145.7z"/>
	<path class="st5" d="M337.5,521.8"/>
</g>
</svg>
