<?xml version="1.0" encoding="utf-8"?>
<!-- Generator: Adobe Illustrator 27.1.1, SVG Export Plug-In . SVG Version: 6.00 Build 0)  -->
<svg version="1.1" id="Calque_1" xmlns="http://www.w3.org/2000/svg" xmlns:xlink="http://www.w3.org/1999/xlink" x="0px" y="0px"
	 viewBox="0 0 720 481" style="enable-background:new 0 0 720 481;" xml:space="preserve">
<style type="text/css">
	.st0{fill:#EDEDED;}
	.st1{fill:#C6C6C5;}
	.st2{fill:#5E5EF7;}
	.st3{fill:#FFFFFF;}
	.st4{fill:#575756;}
</style>
<path class="st0" d="M352.9,374.1c-90.4,33.4-246.3,133.6-253.2-100.2s211.5-79.3,211.5-79.3s-25-136.4,89-125.2
	s123.8-32,228.2,18.1S588,248.9,588,248.9s143.3,97.4,76.5,150.3S352.9,374.1,352.9,374.1z"/>
<g>
	<polygon class="st1" points="395.6,272 384.7,397.2 449.9,400.8 461.7,278.6 	"/>
	<polygon class="st1" points="402.6,285.9 452.8,288.3 443.4,375.8 396.8,369.4 	"/>
	<circle class="st1" cx="418.6" cy="388.4" r="4.8"/>
</g>
<path class="st1" d="M557.6,270.1c-0.3-0.1-28.9-6.8-40.3-30.2c-9.6-19.8-21.2-26-27.1-27.9c0.5-1.8-0.3-3.7-2.1-4.5
	c-2-0.9-4.3-0.1-5.2,1.9l-82.4,177.8c-0.9,2-0.1,4.3,1.9,5.2c0.5,0.2,1.1,0.4,1.7,0.4c1.5,0,2.9-0.8,3.6-2.3L467,262.6l2.6-2.7
	c0,0,3.4-3.4,8.5-3c5.2,0.4,10.7,4.7,15.9,12.4c7.8,11.4,20.3,14.7,32.3,14.7c16,0,30.9-6,32-6.4l11.6-4.7L557.6,270.1z"/>
<path class="st2" d="M278.3,83.6c0,0-21,31-59.3,30.4s-62.5-56.1-62.5-56.1s59-12.3,62.7,33.9c0,0,9.8-60.8,63-66.8
	C282.1,25.1,294.1,49.8,278.3,83.6z"/>
<path class="st3" d="M232.5,109.4l-1.1-4.3c0.1,0,14.5-3.7,27.1-14c16.2-13.2,22.1-30.9,17.7-52.4c-6.7,0.5-31.4,5-45.7,45.7
	l-4.2-1.5c17.4-49.6,50.3-48.7,51.7-48.6l1.7,0.1l0.4,1.6c6.9,30.1-6.5,48.5-18.9,58.7C247.8,105.5,233.1,109.2,232.5,109.4z"/>
<path class="st3" d="M190.3,94c-0.3,0-0.6-0.1-0.9-0.2c-19.6-9.3-22.7-27.9-22.8-28.7l-0.3-1.9l1.9-0.5c31-7.5,47.2,19.9,47.4,20.1
	c0.6,1,0.2,2.3-0.8,2.9s-2.3,0.2-2.9-0.8c-0.6-1-14.2-23.7-40.7-18.6c1.3,4.7,6,17,20,23.6c1.1,0.5,1.5,1.8,1,2.8
	C191.9,93.5,191.1,94,190.3,94z"/>
<path d="M204.1,88.5l1.1,21.1c0,0-67.5,74.3-28.1,171.1c44.1,108.4,175.6,118,175.6,118l46.1-21.4l-11.4-20.9
	c0,0,57.5-77.5,6.9-172.1S254.6,90.8,254.6,90.8l-15.3-15.6L204.1,88.5z"/>
<path class="st3" d="M352,391c-1.6,0-3.3-0.4-4.8-1.2l-9.9-5.1c-7.9-0.1-91.6-3-144.2-97.5c-52.3-94,10.8-169.5,18-177.5l-0.4-9.5
	c-0.1-2.6,0.9-5.1,2.7-7c1.8-1.8,4.4-2.9,7-2.7l6,0.2l8.3-3.5c3.2-1.3,6.7-0.9,9.5,1l14.4,10.2c8,1.1,93.8,14.4,133.8,94.4
	c39,77.9-9.1,153.4-16.3,164l6.3,9.6c1.3,2,1.6,4.4,1,6.6c-0.6,2.3-2.1,4.2-4.2,5.2l-22.5,11.5C355.2,390.6,353.6,391,352,391z
	 M338.4,380.3l10.9,5.6c1.7,0.9,3.8,0.9,5.5,0l22.5-11.5c1-0.5,1.7-1.4,2-2.4c0.3-1.1,0.1-2.2-0.5-3.1l-7.9-12.2l0.9-1.2
	c0.6-0.8,57.4-79.5,16.8-160.7c-40.7-81.3-130-91.9-130.9-92l-0.6-0.1l-15.3-10.9c-1.5-1.1-3.5-1.3-5.2-0.6l-9.2,3.9l-7-0.3
	c-1.5,0-2.7,0.5-3.7,1.4c-1,1-1.5,2.3-1.4,3.7l0.4,11.3l-0.6,0.7c-0.7,0.8-71.5,76.9-18,173c28,50.4,64.8,73.6,90.7,84.2
	c28.1,11.5,49.9,11.1,50.1,11.1L338.4,380.3z"/>
<path class="st3" d="M239.7,260.8c-1.2,0-2.1-0.9-2.2-2.1c-0.1-1.2,0.9-2.2,2.1-2.3c4-0.2,6.4-1.3,7.4-3.4c2.8-6-5.3-20.2-11.1-27.7
	c-0.7-1-0.6-2.3,0.4-3.1c1-0.7,2.3-0.6,3.1,0.4c1.7,2.2,16.4,21.8,11.6,32.3C249.3,258.5,245.5,260.5,239.7,260.8
	C239.8,260.8,239.7,260.8,239.7,260.8z"/>
<path class="st3" d="M258.6,238.8c-1.2,0-2.2-0.9-2.2-2.1c-0.3-9.2,1.8-14.9,6.3-17.1c7.3-3.6,17.3,4.2,18.4,5.1
	c0.9,0.8,1.1,2.1,0.3,3.1c-0.8,0.9-2.2,1.1-3.1,0.3c-2.3-1.8-9.6-6.6-13.7-4.6c-2.7,1.3-4,5.8-3.8,13
	C260.8,237.7,259.9,238.7,258.6,238.8L258.6,238.8z"/>
<path class="st3" d="M211.1,251.2L211.1,251.2c-1.2,0-2.2-1-2.2-2.2c0.1-8.7,1.7-13.5,5.2-15.4c4.6-2.5,10.4,0.8,18.8,6
	c1,0.6,1.3,2,0.7,3s-2,1.4-3,0.7c-5-3.1-11.8-7.3-14.4-5.9c-1.3,0.7-2.8,3.2-2.9,11.6C213.3,250.2,212.3,251.2,211.1,251.2z"/>
<path class="st2" d="M311.9,234.3c-1.5,0-2.8-0.7-4.2-1.4c-0.6-0.3-1.3-0.7-2.1-1c-2.4-1-3.7-3-3.6-5.7c0-0.9,0.2-1.8,0.5-2.7
	c-0.7-0.3-1.2-0.9-1.4-1.6c-0.1-0.6-0.2-2.2,1.9-3.4c1.1-0.6,2.9-1.2,5-1.5c0.3-0.2,0.7-0.3,1-0.4c1.8-0.6,3.1-0.1,3.9,0.3
	c1.9,0.2,3.7,0.8,5,1.9c1.2,1,2.9,3.4,1.2,7.7c-1.9,4.7-3.5,6.9-5.6,7.6C312.9,234.2,312.4,234.3,311.9,234.3z M315.2,222.2
	c0,0.7,0,1.3,0,2C315.6,223.1,315.5,222.5,315.2,222.2z M309,221.4c0.5,0.4,1.2,0.8,1.8,1.5c0-0.8,0-1.4-0.1-1.8c-0.5,0-1,0-1.5,0.1
	C309.2,221.2,309.1,221.3,309,221.4z"/>
<path class="st2" d="M192.4,274.7c-1.5,0-2.8-0.7-4.2-1.4c-0.6-0.3-1.3-0.7-2.1-1c-2.4-1-3.7-3-3.6-5.7c0-0.9,0.2-1.8,0.5-2.7
	c-0.7-0.3-1.2-0.9-1.4-1.6c-0.1-0.6-0.2-2.2,1.9-3.4c1.1-0.6,2.9-1.2,5-1.5c0.3-0.2,0.7-0.3,1-0.4c1.8-0.6,3.1-0.2,3.9,0.3
	c1.9,0.2,3.7,0.8,5,1.9c1.2,1,2.9,3.4,1.2,7.7c-1.9,4.7-3.5,6.9-5.6,7.6C193.4,274.6,192.9,274.7,192.4,274.7z M195.7,262.6
	c0,0.7,0,1.3,0,2.1C196.1,263.5,196,262.9,195.7,262.6z M189.5,261.8c0.5,0.4,1.2,0.8,1.8,1.5c0-0.8,0-1.4-0.1-1.8
	c-0.5,0-1,0-1.4,0.1C189.7,261.7,189.6,261.8,189.5,261.8z"/>
<path class="st4" d="M292.4,133.8c5-8.8,42.3,15.9,53.4,28.5s0.8,20.9-5.7,14.5s-45.4-30.4-46.8-33.3
	C291.9,140.6,290.1,137.9,292.4,133.8z"/>
<path class="st4" d="M283.8,129.5c0.3,4.3-20.6,6.6-28.4-5.2C247.6,112.6,283.2,120.4,283.8,129.5z"/>
<path class="st3" d="M225.9,286.3c-1.1,0-2.1-0.9-2.2-2c-0.1-1.2,0.8-2.3,2-2.4c0.5,0,46.8-4.6,62.8-24.3c4.2-5.2,5.9-10.8,5.1-17.2
	c-0.1-1.2,0.7-2.3,1.9-2.4c1.2-0.2,2.3,0.7,2.4,1.9c0.9,7.5-1.1,14.4-6.1,20.5C274.6,281.6,228,286.2,225.9,286.3
	C226,286.3,225.9,286.3,225.9,286.3z"/>
<path class="st2" d="M301.7,350.8c-0.3,0-0.6-0.1-0.9-0.2c-1.1-0.5-1.6-1.8-1.1-2.9l155.2-330c0.5-1.1,1.8-1.6,2.9-1.1
	s1.6,1.8,1.1,2.9l-155.2,330C303.3,350.3,302.5,350.8,301.7,350.8z"/>
<g>
	<path class="st3" d="M455.2,27.8c0,0,36,2.3,64.9,62s100.6,75.8,100.6,75.8s-100.4,40.9-139.4-16.2s-71.5-23.3-71.5-23.3
		L455.2,27.8z"/>
	<path d="M549.2,180.7c-25.9,0-52.7-7-68.9-30.7c-14-20.4-28.5-31.4-43.4-32.6c-15.9-1.4-26.4,9.4-26.5,9.5l-4.3,4.5l48.4-104.7h0.7
		c1.5,0.1,36.9,3,65.7,62.6c28.3,58.6,99.1,75.1,99.8,75.2l3.3,0.7l-3.1,1.3C620.4,166.8,585.7,180.7,549.2,180.7z M434.2,115.2
		c1,0,1.9,0,2.9,0.1c15.5,1.3,30.6,12.6,45,33.6c34.3,50.2,118,23.1,135.1,17c-14.4-4-72.8-23.3-98-75.5
		c-26-53.8-58.1-60.6-63.3-61.3l-43.2,93.4C416.8,119.3,424.3,115.2,434.2,115.2z"/>
</g>
<g>
	<polygon class="st1" points="440.8,307.8 482.9,426.1 543.7,402.2 503.7,286.2 	"/>
	<polygon class="st1" points="452.9,317.5 499.6,298.7 527.4,382.2 482.4,395.8 	"/>
	<ellipse transform="matrix(0.1602 -0.9871 0.9871 0.1602 29.6078 842.7998)" class="st1" cx="510.1" cy="404" rx="4.8" ry="4.8"/>
</g>
<path class="st1" d="M637.6,246.9c-0.3,0-29.6-2.2-44.5-23.6c-12.6-18.1-25-22.4-31.1-23.3c0.2-1.9-0.9-3.6-2.8-4.2
	c-2.1-0.6-4.3,0.6-4.9,2.7l-53.9,188.4c-0.6,2.1,0.6,4.3,2.7,4.9c0.6,0.2,1.1,0.2,1.7,0.1c1.5-0.2,2.8-1.3,3.2-2.8l38.8-135.6
	l2.1-3.1c0,0,2.9-3.9,7.9-4.3c5.2-0.4,11.3,3,17.7,9.8c9.5,10.1,22.4,11.4,34.2,9.6c15.8-2.5,29.6-10.7,30.6-11.3l10.7-6.5
	L637.6,246.9z"/>
<g>
	<polygon class="st1" points="550.9,297.9 516.5,393 566.6,409.2 601,316.7 	"/>
	<polygon class="st1" points="553.4,310.1 592,322.3 566.7,388.5 531.7,373.9 	"/>
	<circle class="st1" cx="544.7" cy="393.1" r="3.9"/>
</g>
<path class="st1" d="M703.3,338c-0.2-0.1-21.7-13.7-24.4-36c-2.3-18.9-10.1-27.2-14.4-30.4c0.9-1.3,0.8-3.1-0.4-4.3
	c-1.4-1.3-3.5-1.3-4.8,0.1L541.9,389.7c-1.3,1.4-1.3,3.5,0.1,4.8c0.4,0.4,0.8,0.6,1.3,0.8c1.2,0.4,2.6,0.1,3.6-0.9l84.4-88l2.9-1.5
	c0,0,3.8-1.9,7.8-0.1c4.1,1.8,7.4,6.9,9.5,14.6c3.2,11.5,12.5,17.7,22.3,21.1c13.1,4.5,27,3.8,28,3.7l10.8-0.6L703.3,338z"/>
<g>
	<polygon points="505.6,319.6 540.7,441.6 476.7,457.7 441.3,338.9 	"/>
	<polygon class="st3" points="501.4,334.7 452.1,346.7 478.3,431.7 523.3,416.3 	"/>
	<circle class="st2" cx="505.3" cy="439.4" r="4.9"/>
</g>
<g>
	<polygon points="627.2,352.3 589.2,446.3 541,424.9 577.3,332.8 	"/>
	<polygon class="st3" points="617.1,359.8 580.2,343 554.8,409.3 590.6,421.8 	"/>
	<circle class="st2" cx="568" cy="427.5" r="3.9"/>
</g>
<g>
	<path class="st2" d="M160.3,357.2c-10.9,0-21.4-2-29.6-7.4c-1-0.7-1.3-2.1-0.6-3.1s2.1-1.3,3.1-0.6c26.7,17.8,83.6-5.8,84.1-6.1
		c1.1-0.5,2.5,0.1,2.9,1.2s-0.1,2.5-1.2,2.9C217.4,344.8,187.6,357.2,160.3,357.2z"/>
	<polygon points="156.9,290.2 160.9,319.8 144.4,331.8 137.7,284 	"/>
	<polygon points="131.3,280.9 137.9,332.6 158.6,365.7 142.4,375.1 118,340.5 85.3,342.7 80,279.1 	"/>
	<polygon points="72.3,279.3 77.6,342.9 31.8,373.7 23.5,254.1 	"/>
	<path class="st2" d="M128,360.2c-0.9,0-1.7-0.5-2.1-1.4c-0.5-1.1,0.1-2.5,1.2-2.9l11.7-4.8c1.1-0.5,2.5,0.1,2.9,1.2
		c0.5,1.1-0.1,2.5-1.2,2.9l-11.7,4.8C128.6,360.1,128.3,360.2,128,360.2z"/>
	<path class="st2" d="M123.4,355.6c-0.9,0-1.7-0.5-2.1-1.4c-0.5-1.2,0.1-2.5,1.3-2.9l14.3-5.7c1.1-0.5,2.5,0.1,2.9,1.3
		c0.5,1.2-0.1,2.5-1.3,2.9l-14.3,5.7C124,355.5,123.7,355.6,123.4,355.6z"/>
	<path class="st2" d="M119.5,351.4c-0.9,0-1.7-0.5-2.1-1.4c-0.5-1.1,0.1-2.5,1.2-2.9l15.6-6.4c1.2-0.5,2.5,0.1,2.9,1.2
		c0.5,1.1-0.1,2.5-1.2,2.9l-15.6,6.4C120,351.3,119.7,351.4,119.5,351.4z"/>
</g>
<path class="st2" d="M314.9,307.2c-1.2,0-2.2-0.9-2.2-2.1c-0.1-1.2,0.9-2.3,2.1-2.3c140-6.4,156.3-20.3,156.9-26
	c0.8-9-33.4-21.3-58-27.1c-1.2-0.3-2-1.5-1.7-2.7s1.5-1.9,2.7-1.7c10.5,2.5,63,15.9,61.5,31.9c-0.9,9.8-18.6,23.5-161.1,30
	C314.9,307.2,314.9,307.2,314.9,307.2z"/>
<path class="st2" d="M310.8,315.5c-1.2,0-2.2-0.9-2.2-2.1s0.9-2.2,2.1-2.3l19.8-0.7c1.2,0,2.2,0.9,2.3,2.1c0,1.2-0.9,2.2-2.1,2.3
	L310.8,315.5L310.8,315.5z"/>
<path class="st2" d="M336.5,299.3H317c-1.2,0-2.2-1-2.2-2.2s1-2.2,2.2-2.2h19.5c1.2,0,2.2,1,2.2,2.2S337.8,299.3,336.5,299.3z"/>
<path class="st2" d="M295.4,452.9h-44.2l-0.5-1.5c-0.3-0.9-3.3-9.3,0.9-13.5c2.6-2.6,7-2.8,13.1-0.5c1.2,0.4,1.8,1.7,1.3,2.9
	c-0.4,1.2-1.7,1.8-2.9,1.3c-4.1-1.5-7.2-1.7-8.4-0.5c-1.4,1.4-1,4.9-0.3,7.3h28.1c-23.6-19.4-33.1-34.4-29-45.8
	c6.4-17.9,44.9-17.3,46.5-17.3c1.2,0,2.2,1,2.2,2.3c0,1.2-1,2.2-2.2,2.2l0,0c-10.2-0.2-37.8,2-42.2,14.3
	c-2.4,6.8,1.2,20.2,32.5,44.8L295.4,452.9z"/>
<path class="st2" d="M434.4,449.1h-39.9l-0.2-2c0-0.4-0.9-9.8,4.6-14c3.2-2.4,7.7-2.6,13.3-0.4c1.2,0.5,1.7,1.8,1.3,2.9
	c-0.5,1.2-1.8,1.7-2.9,1.3c-4-1.6-7-1.6-8.9-0.2c-2.3,1.8-2.8,5.6-2.9,7.9h28.6l-41.8-87.4c-0.5-1.1-0.1-2.5,1.1-3
	c1.1-0.6,2.5-0.1,3,1.1L434.4,449.1z"/>
<path class="st3" d="M260.2,301.6c-1.2,0-2.2-0.9-2.2-2.1s0.9-2.2,2.1-2.3c13.2-0.5,22.6-4.6,28.1-12c9.1-12.4,4.3-30.5,4.2-30.6
	c-0.3-1.2,0.4-2.4,1.5-2.7c1.2-0.3,2.4,0.4,2.7,1.5c0.2,0.8,5.4,20.2-4.9,34.4C285.4,296.4,274.8,301,260.2,301.6L260.2,301.6z"/>
<polygon class="st2" points="26.3,289.6 29.8,343.1 8.9,333.4 7.5,295.8 "/>
<g>
	<path class="st2" d="M627.4,344.9c-0.2,0-0.4,0-0.7-0.2c-0.7-0.4-1-1.2-0.6-1.9l5.9-11.7c0.4-0.7,1.2-1,1.9-0.6s1,1.2,0.6,1.9
		l-5.9,11.7C628.5,344.6,628,344.9,627.4,344.9z"/>
	<path class="st2" d="M633.5,351.2c-0.5,0-0.9-0.2-1.2-0.7c-0.4-0.7-0.2-1.6,0.4-2l13.9-8.9c0.7-0.4,1.6-0.2,2,0.4
		c0.4,0.7,0.2,1.6-0.4,2l-13.9,8.9C634,351.2,633.8,351.2,633.5,351.2z"/>
	<path class="st2" d="M636.3,359c-0.7,0-1.3-0.5-1.4-1.2c-0.1-0.8,0.4-1.5,1.2-1.6l16.5-2.3c0.8-0.1,1.5,0.4,1.6,1.2
		c0.1,0.8-0.4,1.5-1.2,1.6l-16.5,2.3C636.4,359,636.3,359,636.3,359z"/>
</g>
<path d="M62.6,239.9c-0.1,0-0.1,0-0.2,0c-1.3-0.1-2.3-1.3-2.2-2.6c4.7-59.2,26.3-99.5,64.1-119.8c1.2-0.6,2.6-0.2,3.3,1
	c0.6,1.2,0.2,2.6-1,3.3c-36.3,19.5-57,58.5-61.6,115.9C64.9,239,63.8,239.9,62.6,239.9z"/>
<path d="M668.5,224.8c-0.5,0-1-0.2-1.5-0.5c-1-0.8-1.2-2.3-0.4-3.4c26-33.2,37.6-64.4,34.7-92.7c-2.3-21.7-14.1-51.9-57.5-72.7
	c-1.2-0.6-1.7-2-1.1-3.2c0.6-1.2,2-1.7,3.2-1.1c45.4,21.8,57.8,53.7,60.2,76.6c3.1,29.6-8.9,62-35.7,96.2
	C669.9,224.5,669.2,224.8,668.5,224.8z"/>
<path d="M194.7,464.6c-25.5,0-47.3-6.1-66.8-18.6c-8.2-5.3-15.7-11.6-22.4-18.8c-0.9-1-0.8-2.5,0.1-3.4c1-0.9,2.5-0.8,3.4,0.1
	c6.4,6.9,13.6,13,21.5,18c18.7,12,39.7,17.8,64.2,17.8c1.3,0,2.4,1.1,2.4,2.4S196.1,464.6,194.7,464.6z"/>
<path d="M617.9,54.9c-1.3,0-2.6-0.3-3.9-0.8c-2.3-1-4.1-2.9-5-5.3l0,0c-1.9-4.9,0.6-10.4,5.5-12.3c2.4-0.9,5-0.8,7.3,0.2
	s4.1,2.9,5,5.3c0.9,2.4,0.8,5-0.2,7.3s-2.9,4.1-5.3,5C620.2,54.7,619,54.9,617.9,54.9z M613.4,47c0.5,1.2,1.3,2.1,2.5,2.6
	s2.4,0.6,3.6,0.1c1.2-0.5,2.1-1.3,2.6-2.5s0.6-2.4,0.1-3.6c-0.5-1.2-1.3-2.1-2.5-2.6c-1.1-0.5-2.4-0.6-3.6-0.1
	C613.7,41.9,612.5,44.6,613.4,47L613.4,47z"/>
<circle cx="591.1" cy="40.6" r="4.1"/>
<path d="M93,412.7c-1.9,0-3.8-0.6-5.5-1.7c-2.1-1.5-3.5-3.6-3.9-6.2c-0.4-2.5,0.1-5,1.6-7.1s3.6-3.5,6.2-3.9c2.5-0.4,5,0.1,7.1,1.6
	s3.5,3.6,3.9,6.2c0.4,2.5-0.1,5-1.6,7.1s-3.6,3.5-6.2,3.9C94.1,412.6,93.5,412.7,93,412.7z M93,398.4c-0.3,0-0.6,0-0.8,0.1
	c-1.2,0.2-2.3,0.9-3.1,1.9l0,0c-0.7,1-1,2.3-0.8,3.5s0.9,2.3,1.9,3.1c1,0.7,2.3,1,3.5,0.8s2.3-0.9,3.1-1.9c0.7-1,1-2.3,0.8-3.5
	s-0.9-2.3-1.9-3.1C94.9,398.7,94,398.4,93,398.4z M87.2,399.1L87.2,399.1L87.2,399.1z"/>
<circle cx="82" cy="378.3" r="4.1"/>
<path class="st2" d="M679.9,233.1L679.9,233.1c0,9.8,8,17.8,17.8,17.8l0,0l0,0c-9.8,0-17.8,8-17.8,17.8l0,0l0,0
	c0-9.8-8-17.8-17.8-17.8l0,0l0,0C671.9,250.9,679.9,243,679.9,233.1L679.9,233.1z"/>
<path class="st2" d="M403,7.7L403,7.7c0,9.8,8,17.8,17.8,17.8l0,0l0,0c-9.8,0-17.8,8-17.8,17.8l0,0l0,0c0-9.8-8-17.8-17.8-17.8l0,0
	l0,0C395,25.5,403,17.6,403,7.7L403,7.7z"/>
</svg>
