<?xml version="1.0" encoding="utf-8"?>
<!-- Generator: Adobe Illustrator 27.1.1, SVG Export Plug-In . SVG Version: 6.00 Build 0)  -->
<svg version="1.1" id="Calque_1" xmlns="http://www.w3.org/2000/svg" xmlns:xlink="http://www.w3.org/1999/xlink" x="0px" y="0px"
	 viewBox="0 0 160 160" style="enable-background:new 0 0 160 160;" xml:space="preserve">
<style type="text/css">
	.st0{fill:#ECECEC;}
	.st1{fill:#C6C6C5;}
	.st2{fill:#FFFFFF;}
	.st3{fill:#5E5EF7;}
	.st4{fill:#131313;}
	.st5{fill:#575756;}
</style>
<g>
	<ellipse class="st0" cx="78.5" cy="143.8" rx="30" ry="5.1"/>
	<g>
		<g>
			<path class="st1" d="M12.7,122.7c-3.8,0-6.4-0.9-7.5-2.8C0.3,111.3,28.6,86,69.8,62.3c15.4-8.9,30.7-16.5,44.3-21.8
				c0.3-0.1,0.7,0,0.8,0.3c0.1,0.3,0,0.7-0.3,0.8C101,46.9,85.8,54.5,70.4,63.3c-34.9,20.2-69,47.5-64.1,56s45.6-7.4,80.5-27.5
				c24.5-14.1,45.7-29.7,56.9-41.6c0.2-0.2,0.6-0.3,0.9,0c0.2,0.2,0.3,0.6,0,0.9C133.4,63,112,78.6,87.4,92.8
				C55.3,111.4,26.3,122.7,12.7,122.7z"/>
			<path class="st1" d="M151.4,36.1c-0.2,0-0.4-0.1-0.5-0.3c-1.3-2.3-5.8-2.8-12.9-1.5c-0.3,0.1-0.7-0.2-0.7-0.5
				c-0.1-0.3,0.2-0.7,0.5-0.7c7.8-1.4,12.6-0.7,14.2,2.1c0.2,0.3,0.1,0.7-0.2,0.8C151.7,36.1,151.5,36.1,151.4,36.1z"/>
			<path class="st1" d="M143.8,124.5c-13.3,0-42.4-12.2-74.5-31.9C47,78.8,27.6,64,16,52c-0.2-0.2-0.2-0.6,0-0.9
				c0.2-0.2,0.6-0.2,0.9,0c11.5,12,30.8,26.7,53.1,40.4c34.3,21.1,74.6,38.1,79.7,29.7c5.1-8.4-28.2-36.6-62.5-57.7
				C68.1,51.8,49.2,42.3,34,36.7c-14.7-5.4-24.4-6.4-26.6-2.9c-0.6,0.9-0.6,2.2-0.1,3.8c0.1,0.3-0.1,0.7-0.4,0.8S6.2,38.3,6.1,38
				c-0.6-1.9-0.5-3.6,0.3-4.8c3.3-5.3,17.1-1.6,28,2.4c15.3,5.6,34.2,15.2,53.4,27c40.5,24.9,68.1,51,62.9,59.4
				C149.7,123.7,147.3,124.5,143.8,124.5z"/>
		</g>
		<g>
			<polygon points="35.5,65.5 15.8,83.3 6.9,72.8 25.9,55.2 			"/>
			<polygon class="st2" points="32.3,66.1 25.4,57.9 11.9,70.7 18.9,77.7 			"/>
			<circle class="st3" cx="12.9" cy="76.5" r="1"/>
		</g>
		<g>
			<polygon points="132.3,84.3 133,85.7 152.2,76.5 160.5,69.6 159.3,67.9 147.3,72.6 			"/>
			<polygon points="132.3,84.3 117.5,67.6 138.2,56.3 147.3,72.6 			"/>
			<g>
				<polygon class="st2" points="134,81.5 122.1,68.2 137.3,59.6 145.3,73.6 				"/>
				<path class="st3" d="M134,82.1l-12.6-14l16-9.1l8.5,14.8L134,82.1z M122.8,68.3l11.3,12.6l10.6-7.4l-7.6-13.3L122.8,68.3z"/>
			</g>
		</g>
		<path class="st4" d="M157.5,41.5l-5.3-3.4c-1.3-0.8-2.9-0.4-3.7,0.9l-3.4,5.3c-0.8,1.3-0.4,2.9,0.9,3.7l5.3,3.4
			c1.3,0.8,2.9,0.4,3.7-0.9l3.4-5.3C159.2,44,158.8,42.3,157.5,41.5z M148.1,46.9l-1.3-0.8l2.7-4.3l1.3,0.8L148.1,46.9z M150.5,41.7
			c-0.4-0.3-0.6-0.8-0.3-1.3c0.3-0.4,0.8-0.6,1.3-0.3c0.4,0.3,0.6,0.8,0.3,1.3S150.9,42,150.5,41.7z M153.1,50l-1.3-0.8
			c0,0,1-1.6,1.4-2.2c0.4-0.6,0.4-1.1-0.1-1.4c-0.5-0.3-1-0.1-1.4,0.4c-0.4,0.7-1.4,2.2-1.4,2.2l-1.3-0.8l2.7-4.3l1.3,0.8l-0.4,0.6
			c0,0,0.8-0.5,1.7,0.1s1.2,1.5,0.5,2.7C154,48.5,153.1,50,153.1,50z"/>
		<path class="st3" d="M122.5,23.5l-8.2,6.1c-2,1.4-2.4,4.2-0.9,6.2l6.1,8.2c1.4,2,4.2,2.4,6.2,0.9l2.1-1.5l-4.3-5.8l-1.2,0.9
			l-1.5-2l1.2-0.9c0,0-0.2-0.3-1.2-1.6c-1.1-1.5-0.9-2.9,0.9-4.2c0.3-0.2,1.6-1.2,1.6-1.2l1.5,2.1c0,0-0.9,0.7-1.3,1
			c-0.5,0.3-0.4,0.6-0.1,1.1c0.3,0.4,0.8,1.1,0.8,1.1l1.8-1.4l1.3,2.1l-1.7,1.2l4.4,5.9l3.7-2.8c2-1.4,2.4-4.2,0.9-6.2l-6.1-8.2
			C127.2,22.4,124.5,22,122.5,23.5z"/>
		<g>
			<path class="st4" d="M10.7,43.2c1.6,1,1.8,1.1,2.4,1.5s0.8,0.7,1,0.9c0.2,0.3,0.3,0.5,0.4,0.9c0.1,0.3,0.1,0.6,0,1
				c0,0.3-0.1,0.6-0.5,1.2c-0.4,0.6-0.5,0.8-1.5,2.4c-1,1.6-1.1,1.8-1.5,2.4c-0.4,0.6-0.7,0.8-0.9,1c-0.3,0.2-0.5,0.3-0.9,0.4
				c-0.3,0.1-0.6,0.1-1,0c-0.3,0-0.6-0.1-1.2-0.5C6.4,54.1,6.2,54,4.6,53s-1.8-1.1-2.4-1.5s-0.8-0.7-1-0.9C1,50.2,0.9,50,0.9,49.7
				c-0.1-0.3-0.1-0.6,0-1c0-0.3,0.1-0.6,0.5-1.2c0.4-0.6,0.5-0.8,1.5-2.4c1-1.6,1.1-1.8,1.5-2.4c0.4-0.6,0.7-0.8,0.9-1
				c0.3-0.2,0.5-0.3,0.9-0.4c0.3-0.1,0.6-0.1,1,0c0.3,0,0.6,0.1,1.2,0.5C8.9,42.1,9.1,42.2,10.7,43.2 M11.4,42.1
				c-1.6-1-1.8-1.1-2.5-1.5S7.7,40.1,7.3,40c-0.5-0.1-0.9-0.1-1.5,0c-0.5,0.1-1,0.3-1.3,0.6c-0.4,0.3-0.8,0.7-1.2,1.3
				s-0.6,0.8-1.6,2.4c-1,1.6-1.1,1.8-1.5,2.5s-0.5,1.2-0.6,1.6c-0.1,0.5-0.1,0.9,0,1.5c0.1,0.5,0.3,1,0.6,1.3
				c0.3,0.4,0.7,0.8,1.3,1.2C2.1,52.9,2.3,53,4,54c1.6,1,1.8,1.1,2.5,1.5s1.2,0.5,1.6,0.6c0.5,0.1,0.9,0.1,1.5,0
				c0.5-0.1,1-0.3,1.3-0.6c0.4-0.3,0.8-0.7,1.2-1.3s0.6-0.8,1.6-2.4c1-1.6,1.1-1.8,1.5-2.5s0.5-1.2,0.6-1.6c0.1-0.5,0.1-0.9,0-1.5
				c-0.1-0.5-0.3-1-0.6-1.3c-0.3-0.4-0.7-0.8-1.3-1.2C13.2,43.2,13,43.1,11.4,42.1"/>
			<path class="st4" d="M9.6,45c-1.7-1.1-3.9-0.5-5,1.2s-0.5,3.9,1.2,5s3.9,0.5,5-1.2C11.8,48.3,11.3,46.1,9.6,45 M6.4,50.1
				C5.3,49.4,5,48,5.6,46.9s2.1-1.4,3.2-0.8s1.4,2.1,0.8,3.2S7.5,50.7,6.4,50.1"/>
			<path class="st4" d="M13.6,47.3c-0.2,0.4-0.8,0.5-1.2,0.3s-0.5-0.8-0.3-1.2s0.8-0.5,1.2-0.3C13.7,46.4,13.8,46.9,13.6,47.3"/>
		</g>
	</g>
	<g>
		<path class="st3" d="M101.4,27.7c0,0-7.8,7.6-18.7,5.2S68.1,13.2,68.1,13.2s17.6,0,15.9,13.4c0,0,6.4-16.8,21.9-15.3
			C106,11.2,107.9,19,101.4,27.7z"/>
		<path class="st2" d="M86.8,32.4v-1.3c0,0,4.4-0.2,8.6-2.4c5.4-2.8,8.1-7.5,8.2-13.9c-1.9-0.3-9.3-0.4-15.8,10.3l-1.1-0.7
			c7.9-13.1,17.3-10.9,17.6-10.8l0.5,0.1v0.5c0.2,9-4.7,13.5-8.9,15.6C91.4,32.2,87,32.3,86.8,32.4z"/>
		<path class="st2" d="M75.2,25.8c-5.1-4-4.9-9.8-4.8-10.1v-0.6H71c9.5-0.4,12.6,8.9,12.6,9l-1.2,0.4c-0.1-0.3-2.6-8.1-10.7-8.1
			c0.1,1.5,0.7,5.5,4.3,8.4L75.2,25.8z"/>
		<path d="M77.6,22.6L75,28.1c0,0-27.6,9.6-31,39.9c-3.8,33.9,28.5,54.7,28.5,54.7l5.6,2.8l9.3-6.1c0,0,25.4-14.6,25.6-45.9
			S90.2,30.2,90.2,30.2l-1.8-6.1L77.6,22.6z"/>
		<path class="st2" d="M80.2,121.2C80.1,121.2,80.1,121.2,80.2,121.2l-5.5-0.2c-1,0-1.9-0.5-2.4-1.3l-1.8-2.7
			c-2-1.1-23-13.5-23.4-45.1c-0.3-31.4,26.4-41.9,29.3-43l1.2-2.5c0.3-0.7,0.9-1.2,1.7-1.4c0.7-0.2,1.5-0.1,2.2,0.3l1.5,0.9l2.6,0.3
			c1,0.1,1.8,0.7,2.3,1.6l2.3,4.6c1.6,1.4,20.9,18.6,20,44.8c-0.9,26.1-22.3,37.5-24.4,38.6l-1,1.5C84,118.9,81.6,121.2,80.2,121.2z
			 M80.1,26.3c-0.1,0-0.3,0-0.4,0.1c-0.4,0.1-0.7,0.4-0.9,0.7l-1.5,3L77,30.2c-0.3,0.1-29,9.7-28.7,41.8s22.6,43.9,22.8,44l0.1,0.1
			l2,2.9c0.3,0.5,0.8,0.7,1.4,0.8L80,120l0,0c0.7,0,2.7-1.6,3.6-3l0,0l1.2-1.8l0.2-0.1c0.2-0.1,22.9-11.1,23.8-37.6
			S89.3,33.8,89.1,33.7l-0.2-0.2l-2.3-4.8c-0.2-0.5-0.7-0.8-1.3-0.9l-3-0.4l-1.6-1C80.6,26.4,80.3,26.3,80.1,26.3z"/>
		<path class="st5" d="M93.1,44c2.5-1.6,8.6,10,9.7,14.7s-2.7,5.5-3.5,2.9c-0.8-2.6-7.4-14.1-7.3-15C92.1,45.7,92,44.7,93.1,44z"/>
		<path class="st5" d="M91.6,41.7c-0.5,1.1-6.2-1.2-6.6-5.3S92.7,39.3,91.6,41.7z"/>
		<g>
			<path class="st2" d="M76.3,80.3c-0.5,0-1-0.1-1.6-0.3c-0.3-0.1-0.5-0.5-0.4-0.8s0.5-0.5,0.8-0.4c1.1,0.4,1.9,0.3,2.4-0.2
				c1.4-1.4,0.6-6.1-0.2-8.7c-0.1-0.3,0.1-0.7,0.4-0.8c0.3-0.1,0.7,0.1,0.8,0.4c0.2,0.8,2.3,7.6-0.1,10
				C77.8,80.1,77.1,80.3,76.3,80.3z"/>
			<path class="st3" d="M97.1,77.2L97.1,77.2c-0.7,0-1.1-0.5-1.5-0.9c-0.1-0.2-0.3-0.3-0.5-0.5c-0.5-0.5-0.7-1.2-0.4-1.9
				c0.1-0.2,0.2-0.5,0.4-0.7c-0.2-0.1-0.3-0.4-0.2-0.6c0-0.2,0.2-0.6,0.9-0.7c0.4-0.1,0.9,0,1.5,0.1c0.1,0,0.2,0,0.3,0
				c0.6,0,0.9,0.3,1,0.5c0.5,0.3,0.9,0.6,1.2,1c0.2,0.4,0.5,1.2-0.5,2.2C98.5,76.8,97.8,77.2,97.1,77.2z M98.8,74.2
				c-0.1,0.2-0.1,0.4-0.2,0.6C98.8,74.4,98.8,74.3,98.8,74.2z M97.2,73.3c0.1,0.2,0.2,0.3,0.4,0.6c0.1-0.2,0.1-0.4,0.1-0.5
				C97.5,73.3,97.4,73.3,97.2,73.3L97.2,73.3z"/>
			<path class="st3" d="M58,76.9L58,76.9c-0.7,0-1.1-0.5-1.5-0.9c-0.1-0.2-0.3-0.3-0.5-0.5c-0.5-0.5-0.7-1.2-0.4-1.9
				c0.1-0.2,0.2-0.5,0.4-0.7c-0.2-0.1-0.3-0.4-0.2-0.6c0-0.2,0.2-0.6,0.9-0.7c0.4-0.1,0.9,0,1.5,0.1c0.1,0,0.2,0,0.3,0
				c0.6,0,0.9,0.3,1,0.5c0.5,0.3,0.9,0.6,1.2,1c0.2,0.4,0.5,1.2-0.5,2.2C59.3,76.5,58.7,76.9,58,76.9z M59.7,73.9
				c-0.1,0.2-0.1,0.4-0.2,0.6C59.7,74.1,59.7,74,59.7,73.9z M58.1,73c0.1,0.2,0.2,0.3,0.4,0.6c0.1-0.2,0.1-0.4,0.1-0.5
				C58.4,73.1,58.3,73,58.1,73L58.1,73z"/>
			<path class="st2" d="M80.7,85.9c-6.5,0-13.9-1.2-15.2-1.5c-0.3-0.1-0.6-0.4-0.5-0.7c0.1-0.3,0.4-0.6,0.7-0.5
				c8.7,1.5,23,2.6,24.3-0.9c0.1-0.3,0.5-0.5,0.8-0.4s0.5,0.5,0.4,0.8C90.3,85.1,85.8,85.9,80.7,85.9z"/>
			<path class="st2" d="M72.9,73.7c-0.1,0-0.3,0-0.4-0.1c-2.3-1.9-6-0.1-6.1,0c-0.3,0.2-0.7,0-0.9-0.3c-0.2-0.3,0-0.7,0.3-0.9
				c0.2-0.1,4.5-2.3,7.5,0.2c0.3,0.2,0.3,0.6,0.1,0.9C73.2,73.6,73.1,73.7,72.9,73.7z"/>
			<path class="st2" d="M89.6,74.2c-0.1,0-0.2,0-0.3-0.1C86.4,72.7,83,74,83,74c-0.3,0.1-0.7,0-0.8-0.4c-0.1-0.3,0-0.7,0.4-0.8
				c0.2-0.1,4-1.6,7.4,0.1c0.3,0.2,0.4,0.5,0.3,0.9C90.1,74,89.9,74.2,89.6,74.2z"/>
		</g>
		<path class="st3" d="M54.8,130.1c-4.8,0-9.1-0.8-11.5-3.3c-2.1-2.2-2.5-5.4-1.2-9.5c0.7-2.3,2.2-3.9,4.4-4.6
			c9.7-3.2,30.3,11.7,31.2,12.3l1,0.8l-1.2,0.4C76.8,126.4,64.8,130.1,54.8,130.1z M49.6,113.6c-1,0-1.9,0.1-2.7,0.4
			c-1.8,0.6-2.9,1.8-3.6,3.7c-1.2,3.6-0.9,6.4,0.9,8.2c6,6.1,26.3,0.9,31.6-0.5C71.9,122.6,58.1,113.6,49.6,113.6z"/>
		<path class="st3" d="M37.1,115.2c-5.1,0-10.8-2-17-6c-0.3-0.2-0.4-0.6-0.2-0.9c0.2-0.3,0.6-0.4,0.9-0.2c8.1,5.2,15.2,6.9,21.2,5
			c7.5-2.3,10.5-9.6,10.6-9.7c0.1-0.3,0.5-0.5,0.8-0.3c0.3,0.1,0.5,0.5,0.4,0.8s-3.3,7.9-11.4,10.4C40.8,115,39,115.2,37.1,115.2z"
			/>
		<path class="st3" d="M25.9,111.9c-1.5,0-2.8-1.2-2.8-2.8c0-1.5,1.2-2.8,2.8-2.8c1.5,0,2.8,1.2,2.8,2.8
			C28.6,110.7,27.4,111.9,25.9,111.9z M25.9,107.7c-0.8,0-1.5,0.7-1.5,1.5s0.7,1.5,1.5,1.5s1.5-0.7,1.5-1.5
			C27.4,108.4,26.7,107.7,25.9,107.7z"/>
		<path class="st3" d="M100.4,130.1c-10,0-21.9-3.6-22.7-3.8l-1.2-0.4l1-0.8c0.9-0.6,21.5-15.5,31.2-12.3c2.2,0.7,3.6,2.2,4.4,4.6
			c1.3,4.1,0.9,7.3-1.2,9.5C109.5,129.2,105.2,130.1,100.4,130.1z M79.4,125.4c5.3,1.5,25.6,6.6,31.6,0.5c1.8-1.8,2.1-4.6,0.9-8.2
			c-0.6-1.9-1.8-3.2-3.6-3.7C100.4,111.4,83.8,122.3,79.4,125.4z"/>
		<path class="st3" d="M119.4,115.8c-1.9,0-3.6-0.3-5.4-0.8c-8.1-2.5-11.2-10.1-11.4-10.4c-0.1-0.3,0-0.7,0.4-0.8
			c0.3-0.1,0.7,0,0.8,0.3c0,0.1,3.1,7.3,10.6,9.7c6,1.9,13.1,0.2,21.2-5c0.3-0.2,0.7-0.1,0.9,0.2c0.2,0.3,0.1,0.7-0.2,0.9
			C130.2,113.8,124.5,115.8,119.4,115.8z"/>
		<path class="st3" d="M130.7,112.5c-1.5,0-2.8-1.2-2.8-2.8c0-1.5,1.2-2.8,2.8-2.8c1.5,0,2.8,1.2,2.8,2.8
			C133.4,111.2,132.2,112.5,130.7,112.5z M130.7,108.2c-0.8,0-1.5,0.7-1.5,1.5s0.7,1.5,1.5,1.5s1.5-0.7,1.5-1.5
			C132.1,108.9,131.5,108.2,130.7,108.2z"/>
	</g>
</g>
</svg>
