<?xml version="1.0" encoding="utf-8"?>
<!-- Generator: Adobe Illustrator 27.1.1, SVG Export Plug-In . SVG Version: 6.00 Build 0)  -->
<svg version="1.1" id="Calque_1" xmlns="http://www.w3.org/2000/svg" xmlns:xlink="http://www.w3.org/1999/xlink" x="0px" y="0px"
	 viewBox="0 0 720 500" style="enable-background:new 0 0 720 500;" xml:space="preserve">
<style type="text/css">
	.st0{fill:#EDEDED;}
	.st1{fill:#5E5EF7;}
	.st2{fill:#FFFFFF;}
	.st3{fill:#151819;}
	.st4{fill:#ECECEC;}
	.st5{fill:#C6C6C5;}
	.st6{fill:#575756;}
</style>
<g>
	<path d="M35,275.4c-0.5,0-1-0.1-1.4-0.4c-1-0.8-1.3-2.2-0.5-3.2c25.6-35.1,57.1-58.4,86.4-63.9c6.2-1.2,16.8-32.2,22-47.2
		c9.9-28.8,22.1-64.7,47.3-95.6C211.7,37,240.5,18.8,277,9.4c36.6-9.5,83-2.5,138,20.7c1.2,0.5,1.7,1.9,1.2,3
		c-0.5,1.2-1.9,1.7-3,1.2c-53.2-22.5-99.9-29.6-135-20.5C242.7,23,214.7,40.7,192.5,68c-24.7,30.2-36.8,65.7-46.5,94.2
		c-9.1,26.6-17.3,48.7-25.5,50.2c-28.2,5.3-58.6,27.9-83.5,62.1C36.4,275.1,35.7,275.4,35,275.4z"/>
	<path d="M510.6,88.2c-0.4,0-0.9-0.1-1.3-0.4c-15.3-10.5-31-20.3-46.6-29c-1.1-0.6-1.5-2-0.9-3.2s2-1.5,3.2-0.9
		c15.7,8.8,31.5,18.7,47,29.2c1.1,0.7,1.3,2.2,0.6,3.2C512.1,87.8,511.3,88.2,510.6,88.2z"/>
	<path class="st0" d="M344.5,382.5C240.6,352.6,191.9,499,80.2,466.8s-20.5-208,46.5-220.6s35.4-166.8,160-199.1
		s449.7,217,376.2,365.8C625.1,489.5,506.4,429.1,344.5,382.5z"/>
	<path d="M605,488.2c-1.2,0-2.3-1-2.3-2.2c-0.1-1.3,0.9-2.4,2.2-2.4c41.9-2.2,71.8-20.9,88.8-55.4c21-42.6,18.5-94-7.3-148.7
		c-11.6-24.5-27.8-49.7-48.1-74.7c-0.8-1-0.7-2.5,0.3-3.3s2.4-0.7,3.3,0.3c20.6,25.3,37,50.8,48.7,75.7
		c26.4,56,28.9,108.8,7.2,152.7c-17.8,36.1-49,55.6-92.7,58C605.1,488.2,605.1,488.2,605,488.2z"/>
	<path d="M24,300.2c-5.1,0-9.2-4.1-9.2-9.2s4.1-9.2,9.2-9.2s9.2,4.1,9.2,9.2S29.1,300.2,24,300.2z M24,286.4c-2.5,0-4.6,2.1-4.6,4.6
		s2.1,4.6,4.6,4.6s4.6-2.1,4.6-4.6C28.6,288.4,26.5,286.4,24,286.4z"/>
	<circle cx="11.5" cy="310.3" r="4"/>
	<path class="st1" d="M438.5,25.4L438.5,25.4c0,9.5,7.7,17.2,17.2,17.2l0,0l0,0c-9.5,0-17.2,7.7-17.2,17.2l0,0l0,0
		c0-9.5-7.7-17.2-17.2-17.2l0,0l0,0C430.8,42.6,438.5,34.9,438.5,25.4L438.5,25.4z"/>
</g>
<g>
	<g>
		<g>
			<polygon points="90.5,119.7 110.1,436.5 389.6,428 399.3,114.5 			"/>
			<polygon class="st2" points="103.3,142.2 385.3,136.2 371.6,406.8 127.8,412.5 			"/>
		</g>
		<polygon points="281.2,467.9 272.2,424.2 228.4,424.2 220.9,469.5 		"/>
		<polygon points="321.9,471 186.2,474 187.7,492.1 340,486 		"/>
		<path class="st1" d="M125.9,414.6l-0.2-1.9L101,140.2l286.5-6.1l-0.1,2.2l-13.8,272.6h-1.9L125.9,414.6z M105.6,144.3l24.2,266.1
			l239.8-5.6l13.5-266.5L105.6,144.3z"/>
	</g>
	<g transform="matrix(1, 0, 0, 1, 27.009001, -39.238998)">
		<path class="st1" d="M211.4,261c-0.1-3.5-0.5-6.8-1.2-10.1l-50.2,1.6l0.6,20l28.8-0.9c-1.1,6.6-4.7,12.3-10.2,16.2l0.4,13.3
			l17.2-0.5C206.5,291.1,211.9,277.2,211.4,261z"/>
		<path class="st3" d="M161.9,314.7c14.4-0.4,26.3-5.6,34.8-14l-17.6-12.8c-4.7,3.3-10.7,5.5-17.9,5.7c-13.9,0.4-26-8.6-30.6-21.1
			l-17.7,0.6l0.4,13.7C122.7,304,141.1,315.4,161.9,314.7z"/>
		<path class="st1" d="M130.7,272.5c-1.2-3.2-1.9-6.6-2-10.1c-0.1-3.6,0.4-7,1.4-10.2l-0.4-13.7l-17.7,0.6c-3.4,7.3-5.3,15.5-5,24.1
			s2.6,16.6,6.5,23.7L130.7,272.5z"/>
		<path d="M159.3,229.2c7.9-0.2,15,2.2,20.7,7.4l14.7-15.7c-9.5-8.3-21.7-13.2-36.1-12.8c-20.8,0.6-38.5,13.2-46.7,30.9l18.1,13.2
			C133.9,239.4,145.4,229.6,159.3,229.2z"/>
	</g>
	<rect x="259.7" y="165.8" class="st4" width="23" height="209.1"/>
	<g>
		<path class="st1" d="M358.5,273.2v-62.8c0-10.6-8.6-19.2-19.2-19.2h-66.7v166h66.7c10.6,0,19.2-8.6,19.2-19.2v-25.3l-18.8-1.8
			l0.8-38L358.5,273.2z"/>
		<path class="st1" d="M339.4,360.3h-69.7v-172h69.7c12.2,0,22.2,10,22.2,22.2v65.8l-18.1-0.3l-0.7,32.2l18.8,1.8v28.1
			C361.6,350.3,351.6,360.3,339.4,360.3z M275.7,354.2h63.6c8.9,0,16.1-7.2,16.1-16.1v-22.6l-18.9-1.8l0.9-43.8l17.9,0.3v-59.7
			c0-8.9-7.2-16.1-16.1-16.1h-63.6v159.8H275.7z"/>
	</g>
	<g>
		<path d="M320,262.3c-6.4,0-12.6-2.6-18.5-7.8c-11.9-10.4-10.1-28-1.7-38.3c7.8-9.6,22.8-14.8,41.3-0.7c1,0.8,1.2,2.2,0.4,3.3
			c-0.8,1-2.2,1.2-3.3,0.4c-13.5-10.2-26.5-10.3-34.9-0.1c-7.1,8.6-8.6,23.3,1.1,31.9c5.5,4.8,11.2,7.1,16.9,6.6
			c9.8-0.8,16.7-9.1,16.7-9.2c0.8-1,2.3-1.1,3.3-0.3s1.1,2.3,0.3,3.3c-0.3,0.4-8.2,9.9-19.9,10.9C321.3,262.3,320.6,262.3,320,262.3
			z"/>
		<path d="M300,242.5c-7.5,0-14.7-0.8-18.2-3.5c-1-0.8-1.2-2.2-0.4-3.2c0.8-1,2.2-1.2,3.2-0.4c5.3,4,26.6,2.5,38.8,0.6
			c1.3-0.2,2.5,0.7,2.7,1.9c0.2,1.3-0.7,2.5-1.9,2.7C322.1,240.8,310.8,242.5,300,242.5z"/>
		<path d="M285.7,231.1c-1.3,0-2.3-1-2.3-2.3s1-2.3,2.3-2.4c13.2-0.3,33.3-1.7,36.3-3.6c1.1-0.7,2.5-0.3,3.2,0.8s0.3,2.5-0.8,3.2
			C319.1,230.1,291.2,230.9,285.7,231.1L285.7,231.1z"/>
	</g>
	<circle class="st5" cx="163" cy="319.8" r="18.9"/>
	<polygon class="st5" points="184.7,304.5 185.8,313.7 233.5,311.4 231.7,301.3 	"/>
	<polygon class="st5" points="186.7,319.8 212.5,318.6 211.5,324.8 187.7,325.9 	"/>
	<polygon class="st5" points="187.8,331 217.9,329.6 217.7,333.1 187.6,333.3 	"/>
	<circle class="st5" cx="165.3" cy="368" r="18.9"/>
	<polygon class="st5" points="188.2,354.9 244.6,351 244.5,356.9 187.8,360.1 	"/>
	<polygon class="st5" points="188.4,365.3 222.8,363.1 223,368.4 189.3,370.5 	"/>
	<polygon class="st5" points="189.6,376.3 231,375 231.2,378.5 190.2,380.4 	"/>
	<path class="st1" d="M73.6,86.2L73.6,86.2c0,9.5,7.7,17.2,17.2,17.2l0,0l0,0c-9.5,0-17.2,7.7-17.2,17.2l0,0l0,0
		c0-9.5-7.7-17.2-17.2-17.2l0,0l0,0C65.9,103.4,73.6,95.7,73.6,86.2L73.6,86.2z"/>
</g>
<g>
	<path class="st1" d="M612.9,153.5c0,0-29.8,11.3-56.2-8c-26.4-19.2-16-69.7-16-69.7s47.1,20.4,27,54.4c0,0,36.7-37.5,76.6-15.6
		C644.3,114.6,640.5,137.7,612.9,153.5z"/>
	<path class="st2" d="M591.3,152.8c-12.7,0-22.7-3.8-22.9-3.9c-1-0.4-1.4-1.5-1.1-2.4c0.4-1,1.5-1.4,2.4-1.1
		c1.9,0.7,45.6,17.1,63.7-24.3c-4.9-3-24.3-12-54.2,9.3c-0.8,0.6-2,0.4-2.6-0.4c-0.6-0.8-0.4-2,0.4-2.6c36.5-26,58.9-9.2,59.9-8.5
		l1.1,0.9l-0.5,1.3C627,147,607.1,152.8,591.3,152.8z"/>
	<path class="st2" d="M567.3,124.8c-0.1,0-0.1,0-0.2,0c-1-0.1-1.8-1-1.7-2.1c0.1-1,2.3-24.7-19.2-34.2c-1.5,4.1-4.7,15.6,1.9,27.6
		c0.5,0.9,0.2,2-0.8,2.5c-0.9,0.5-2,0.2-2.5-0.8c-9.1-16.8-1.6-32-1.2-32.7l0.8-1.5l1.6,0.6c26,10.1,23.3,38.5,23.2,38.8
		C569.1,124.1,568.2,124.8,567.3,124.8z"/>
	<path class="st1" d="M522,491.8h-39.6l0.1-2.2c0-0.4,0.6-10.9,7.5-14.8c4.3-2.4,9.8-1.7,16.3,2c1,0.6,1.4,1.9,0.8,2.9
		s-1.9,1.4-2.9,0.8c-5.2-2.9-9.3-3.6-12.2-2c-3.3,1.8-4.6,6.3-5.1,9h28.4l-31.7-72.2c-0.5-1.1,0-2.3,1.1-2.8s2.3,0,2.8,1.1
		L522,491.8z"/>
	<path d="M585.9,134l-4,15.7c0,0,74.7,61.5,54.7,154.4s-94.7,112.5-94.7,112.5l8,26.2l-53.4-2.6c0,0-89.9-89.8-72-172.7
		c24-111.2,116.1-126.9,116.1-126.9l6.7-11.8L585.9,134z"/>
	<path class="st2" d="M538.5,434.6l-32.1-2.9l-0.5-0.4c-1-0.7-99-75.3-70.1-172.4c27-90.7,98.2-109.1,107.9-111.2L552,131l14.7,8.8
		l11.6,1.4l2.7,16.5c6.5,5.3,55.9,48.7,48.6,136.1c-7.2,85.7-82.3,113.6-95.2,117.7L538.5,434.6z M507.9,427.5l25.4,2.3l-3.8-21.4
		l1.9-0.5c0.9-0.2,86.3-24.3,93.9-114.6c4-47.3-9.1-80.9-20.9-100.8c-12.7-21.5-26.6-32-26.7-32.1l-0.7-0.5l-2.5-15l-9.7-1.4
		l-11.1-6.7l-7.3,14.6l-1.1,0.2c-0.2,0-19.6,3.4-42.2,18.4c-20.8,13.8-48.7,40.7-63.4,90C412.8,351,500.7,421.9,507.9,427.5z"/>
	<path class="st1" d="M567.7,491.8h-38l-0.1-2c0-0.3-0.4-8.3,5.4-12.6c4.4-3.3,11-3.5,19.5-0.5c1.1,0.4,1.7,1.6,1.3,2.7
		s-1.6,1.7-2.7,1.3c-7.1-2.4-12.3-2.5-15.5-0.1c-2.5,1.9-3.3,5-3.6,7h27.9l-22.1-70.4c-0.4-1.1,0.3-2.3,1.4-2.7
		c1.1-0.4,2.3,0.3,2.7,1.4L567.7,491.8z"/>
	<path class="st1" d="M555.8,305c-0.6,0-1.2-0.1-1.7-0.3c-2.1-0.7-2.9-2.6-3.6-4.4c-0.3-0.6-0.6-1.3-1-2.1c-1.2-2.2-0.9-4.5,0.8-6.4
		c0.6-0.7,1.3-1.2,2.1-1.7c-0.4-0.6-0.4-1.4,0-2.1c0.3-0.5,1.2-1.8,3.5-1.4c1.2,0.2,2.9,0.9,4.7,1.9c0.4,0.1,0.7,0.2,1.1,0.3
		c1.8,0.7,2.4,1.8,2.7,2.6c1.3,1.3,2.3,2.9,2.5,4.5c0.3,1.5,0.1,4.3-3.8,6.5C559.8,304.2,557.6,305,555.8,305z M562.7,297
		c-0.4,0.5-0.8,1-1.3,1.5C562.4,297.9,562.7,297.4,562.7,297z M558.5,292.6c0.2,0.6,0.3,1.3,0.5,2.2c0.5-0.6,0.8-1,1-1.4
		c-0.4-0.3-0.8-0.6-1.1-0.8C558.8,292.6,558.6,292.6,558.5,292.6z"/>
	<path class="st1" d="M441.8,261.8c-0.6,0-1.2-0.1-1.7-0.3c-2.1-0.7-2.9-2.6-3.6-4.4c-0.3-0.6-0.6-1.3-1-2.1
		c-1.2-2.2-0.9-4.5,0.8-6.4c0.6-0.7,1.3-1.2,2.1-1.7c-0.4-0.6-0.4-1.4,0-2.1c0.3-0.5,1.2-1.8,3.5-1.4c1.2,0.2,2.9,0.9,4.7,1.9
		c0.4,0.1,0.7,0.2,1.1,0.3c1.8,0.7,2.4,1.8,2.7,2.6c1.3,1.3,2.3,2.9,2.5,4.5c0.3,1.5,0.1,4.3-3.8,6.5
		C445.8,261,443.5,261.8,441.8,261.8z M448.6,253.8c-0.4,0.5-0.8,1-1.3,1.5C448.4,254.7,448.6,254.2,448.6,253.8z M444.5,249.4
		c0.2,0.6,0.3,1.3,0.5,2.2c0.5-0.6,0.8-1,1-1.4c-0.4-0.3-0.8-0.6-1.1-0.8C444.7,249.4,444.6,249.4,444.5,249.4z"/>
	<path class="st6" d="M598,201.7c0,0,21.1,29.6,7.5,50c-13.7,20.4-19-28.3-17.8-33.3C588.8,213.4,591.8,200.8,598,201.7z"/>
	<path class="st6" d="M587.3,181.1c0,0-11.4-8.9-10.5,1.7c0.9,10.6,8.9,19.3,12.6,16.2C593,196,595.7,192.2,587.3,181.1z"/>
	<g>
		<path class="st2" d="M490.2,283.1c-2.4,0-4.9-1-7.5-3c-0.9-0.7-1.1-2-0.4-3c0.7-0.9,2-1.1,3-0.4c4,3,6,2.1,6.7,1.8
			c5.1-2.5,7.5-16.4,7.8-24.6c0-1.2,1-2.2,2.2-2.1c1.2,0,2.1,1,2.1,2.2c-0.1,2.4-1.1,23.9-10.2,28.3
			C492.6,282.8,491.4,283.1,490.2,283.1z"/>
		<path class="st2" d="M528.7,280.9c-0.7,0-1.4-0.3-1.8-1c-1.6-2.5-7.1-9.7-11.5-9.5c-1.7,0.1-3.3,1.6-4.7,4.5
			c-0.5,1.1-1.8,1.5-2.8,1c-1.1-0.5-1.5-1.8-1-2.8c2.1-4.4,4.9-6.7,8.3-6.9c0.2,0,0.3,0,0.5,0c7.4,0,14.1,10.3,14.8,11.5
			c0.6,1,0.3,2.3-0.7,2.9C529.5,280.8,529.1,280.9,528.7,280.9z"/>
		<path class="st2" d="M487.7,261.7c-0.8,0-1.6-0.5-1.9-1.3c0-0.1-2.5-5.6-6.6-6.4c-2.3-0.4-4.9,0.7-7.6,3.5c-0.8,0.8-2.2,0.8-3,0
			s-0.8-2.2,0-3c3.8-3.8,7.7-5.3,11.5-4.6c6.3,1.2,9.5,8.5,9.7,8.8c0.5,1.1,0,2.3-1.1,2.8C488.2,261.7,488,261.7,487.7,261.7z"/>
		<path class="st2" d="M515,312.3c-16.3,0-55.9-3.4-62.7-35.6c-0.2-1.2,0.5-2.3,1.6-2.5s2.3,0.5,2.5,1.6c7.7,36.8,64.5,32.1,65.1,32
			c1.2,0,2.2,0.8,2.3,1.9c0.1,1.2-0.8,2.2-1.9,2.3C521.9,312.1,519.2,312.3,515,312.3z"/>
		<path class="st2" d="M485.4,321.6c-5.9,0-12.1-2.7-18.6-8.1c-0.9-0.8-1-2.1-0.3-3c0.8-0.9,2.1-1,3-0.3c6.8,5.6,13,7.9,18.5,6.9
			c7.2-1.3,11-8.1,11-8.1c0.6-1,1.9-1.4,2.9-0.8s1.4,1.8,0.8,2.9c-0.2,0.3-4.7,8.5-13.9,10.2C487.7,321.5,486.5,321.6,485.4,321.6z"
			/>
	</g>
	<path class="st1" d="M615.6,431.2c-10.2,0-32.4-10.4-86.2-55.9c-0.9-0.8-1-2.1-0.3-3c0.8-0.9,2.1-1,3-0.3
		c65.6,55.4,82.8,57.5,87.2,53.8c6.7-5.6-5.6-33.4-15-49.6c-0.6-1-0.2-2.3,0.8-2.9s2.3-0.2,2.9,0.8c4.4,7.5,25.5,45.4,14.1,55
		C620.6,430.3,618.7,431.2,615.6,431.2z"/>
	<path class="st1" d="M543.2,377.2c-0.5,0-1.1-0.2-1.5-0.6l-8.3-8.3c-0.8-0.8-0.8-2.2,0-3s2.2-0.8,3,0l8.3,8.3c0.8,0.8,0.8,2.2,0,3
		C544.2,377,543.7,377.2,543.2,377.2z"/>
	<path class="st1" d="M534.4,387.3c-0.4,0-0.8-0.1-1.1-0.3l-9.2-5.7c-1-0.6-1.3-1.9-0.7-2.9s1.9-1.3,2.9-0.7l9.2,5.7
		c1,0.6,1.3,1.9,0.7,2.9C535.8,387,535.1,387.3,534.4,387.3z"/>
	<path class="st1" d="M434,353.7c-0.9,0-1.7-0.5-2-1.4c-0.2-0.6-21.6-55.5-81-59c-1.2-0.1-2.1-1.1-2-2.2c0.1-1.2,0.9-2.2,2.2-2
		c62.2,3.6,84.5,61.1,84.7,61.7c0.4,1.1-0.1,2.3-1.2,2.7C434.5,353.7,434.3,353.7,434,353.7z"/>
	<path class="st1" d="M366.6,287.6c-0.1,0-0.2,0-0.3,0l-16.8-2.2c-1.2-0.1-2-1.2-1.8-2.4c0.1-1.2,1.2-2,2.4-1.8l16.8,2.2
		c1.2,0.1,2,1.2,1.8,2.4C368.5,286.8,367.6,287.6,366.6,287.6z"/>
	<path class="st1" d="M366,303c-0.1,0-0.1,0-0.2,0l-16.3-1.6c-1.2-0.1-2-1.2-1.9-2.3c0.1-1.2,1.2-2,2.3-1.9l16.3,1.6
		c1.2,0.1,2,1.2,1.9,2.3C368,302.2,367.1,303,366,303z"/>
</g>
</svg>
