<?xml version="1.0" encoding="utf-8"?>
<!-- Generator: Adobe Illustrator 27.1.1, SVG Export Plug-In . SVG Version: 6.00 Build 0)  -->
<svg version="1.1" id="Calque_1" xmlns="http://www.w3.org/2000/svg" xmlns:xlink="http://www.w3.org/1999/xlink" x="0px" y="0px"
	 viewBox="0 0 720 509" style="enable-background:new 0 0 720 509;" xml:space="preserve">
<style type="text/css">
	.st0{fill:#EDEDED;}
	.st1{fill:#5E5EF7;}
	.st2{fill:#FFFFFF;}
	.st3{fill:#575756;}
	.st4{fill:#C6C6C5;}
</style>
<path class="st0" d="M365.6,350.9c-63.1,24.2-147,147.8-208.4,90.3s14.2-104.1,14.2-104.1S6.7,351.3,56.3,248.4
	s161.5-82.7,161.5-82.7s-36.9-57.2,29.6-89.3s291.4,143.5,291.4,143.5s26.3-43.2,92.8-19.3s66,165.7-98.1,151.3
	C369.3,337.5,365.6,350.9,365.6,350.9z"/>
<path class="st1" d="M432.8,66.3c0,0-24.6,27.1-61.6,21.3c-37-5.8-52.8-62.9-52.8-62.9s58.8-3.8,56.1,41.5c0,0,17.9-57.5,70.2-56
	C444.6,10.2,452.8,35.8,432.8,66.3z"/>
<path class="st2" d="M384.9,85l-0.4-4.3c0.1,0,14.5-1.6,28.1-9.8C430,60.3,438.2,44,436.9,22.5c-6.5-0.5-31.1,0.5-50.5,38l-3.8-2
	c23.7-45.7,55.4-40.3,56.8-40l1.6,0.3l0.1,1.6c2.5,30.1-12.9,46.1-26.4,54.2C400.3,83.3,385.5,84.9,384.9,85z"/>
<path class="st2" d="M344.6,65.7c-18-12.4-18.4-31.9-18.4-32.8v-2l1.9-0.2c31.9-3.3,44,27.2,44.1,27.5l-4,1.5
	c-0.4-1.1-10.6-26.4-37.5-24.9c0.6,5,3.4,18.4,16.4,27.3L344.6,65.7z"/>
<path d="M352,54.3l-7.7,19.1c0,0-90.4,38.2-95.3,140.3c-5.4,114.3,107.4,177,107.4,177h49.7l-1.5-23.3c0,0,82.9-45.1,76.9-149.9
	S395.9,77.1,395.9,77.1L388.6,57L352,54.3z"/>
<path class="st2" d="M363.1,384.5c-3.1,0-6.1-1.5-8-3.9l-6.7-8.6c-7-3.3-80.1-40.3-87.9-145.9c-7.8-105,79.3-146,89-150.2l3.6-8.5
	c1-2.3,2.9-4.2,5.3-5.1c2.4-0.9,5.1-0.7,7.3,0.4l5.3,2.7l8.8,0.3c3.3,0.1,6.3,1.9,8,4.8l8.6,15.1c5.8,4.4,74.1,57.9,76.7,145.7
	c2.5,84.9-67.8,126.1-78.8,131.9l1.6,11.1c0.3,2.3-0.3,4.6-1.8,6.3c-1.5,1.8-3.6,2.8-5.9,2.9l-24.7,1
	C363.3,384.5,363.2,384.5,363.1,384.5z M361.5,66.1c-0.6,0-1.1,0.1-1.7,0.3c-1.3,0.5-2.3,1.4-2.8,2.7l-4.3,10.2l-0.8,0.3
	c-0.9,0.4-95.1,38.9-87.1,146.2c8,107.6,85,142.1,85.8,142.5l0.5,0.2l7.3,9.4c1.2,1.5,3,2.3,4.9,2.3l24.7-1c1.1,0,2-0.5,2.7-1.3
	s1-1.9,0.8-2.9l-2-14.1l1.4-0.7c0.8-0.4,80.4-40,77.7-128.7c-2.7-89-74.6-142.1-75.3-142.6l-0.6-0.7L384,72.8
	c-0.9-1.6-2.6-2.6-4.4-2.7l-10.2-0.6l-5.7-2.9C363,66.3,362.2,66.1,361.5,66.1z"/>
<path class="st1" d="M450.5,449.3H410l-7.5-81.7c-0.1-1.2,0.8-2.2,1.9-2.3c1.2-0.1,2.2,0.8,2.3,1.9l7.2,77.8h31.4
	c-0.8-3.1-2.8-8.1-6.9-9.9c-3.6-1.6-8.4-0.4-14.1,3.5c-1,0.7-2.3,0.4-3-0.6s-0.4-2.3,0.6-3c7.1-4.8,13.3-6.1,18.3-3.9
	c8.2,3.6,9.9,15.2,9.9,15.7L450.5,449.3z"/>
<path class="st1" d="M330.7,449.4l0.1-2.3c0-0.4,0.5-10,7.2-14c4.2-2.5,9.8-2.2,16.5,1c1.1,0.5,1.5,1.8,1,2.9s-1.8,1.5-2.9,1
	c-5.3-2.5-9.5-3-12.4-1.2c-3.1,1.8-4.3,5.7-4.8,8.2l28.9-0.7c0.1-57.9-28-64.4-28.3-64.5c-1.2-0.2-1.9-1.4-1.7-2.5
	c0.2-1.2,1.3-1.9,2.5-1.7c1.3,0.3,32.7,7.1,31.8,70.8v2.1L330.7,449.4z M366.5,446.3L366.5,446.3L366.5,446.3z"/>
<path class="st2" d="M319.1,223.3c-1.9,0-4-0.5-6.4-1.4c-1.1-0.5-1.6-1.7-1.2-2.8c0.5-1.1,1.7-1.6,2.8-1.2c3.6,1.5,6.2,1.5,8,0
	c5-4.2,3.6-20.1,1.6-29.2c-0.3-1.2,0.5-2.3,1.6-2.6c1.1-0.2,2.3,0.5,2.6,1.6c0.6,2.7,5.6,26.1-3,33.4
	C323.5,222.6,321.5,223.3,319.1,223.3z"/>
<path class="st2" d="M339.4,210.2c-0.3,0-0.6-0.1-0.8-0.2c-1.1-0.5-1.6-1.7-1.1-2.8c3.5-8.2,7.8-12.5,12.6-12.6c0.1,0,0.1,0,0.2,0
	c7.9,0,13.4,10.9,14,12.1c0.5,1.1,0.1,2.4-1,2.9s-2.4,0.1-2.9-1c-1.3-2.6-5.8-9.7-10.3-9.7c-3,0.1-6,3.5-8.7,10
	C341.1,209.7,340.3,210.2,339.4,210.2z"/>
<path class="st2" d="M313.6,203.5c-0.7,0-1.4-0.3-1.8-1c-3.1-4.7-7.3-11.1-10.2-11.1h-0.1c-1.4,0.1-3.8,1.7-7.3,9.1
	c-0.5,1.1-1.8,1.5-2.9,1s-1.5-1.8-1-2.9c3.7-7.7,7.1-11.2,10.9-11.5c5-0.4,8.9,5,14.3,13.1c0.7,1,0.4,2.3-0.6,3
	C314.4,203.4,314,203.5,313.6,203.5z"/>
<path class="st1" d="M389.6,228.4c-0.1,0-0.3,0-0.4,0c-2.2-0.2-3.5-1.8-4.7-3.4c-0.4-0.6-0.9-1.2-1.5-1.8c-1.7-1.8-2-4.2-0.9-6.5
	c0.4-0.8,0.9-1.5,1.6-2.2c-0.5-0.5-0.7-1.3-0.6-2c0.1-0.6,0.7-2,3.1-2.2c1.3-0.1,3.1,0.1,5.1,0.7c0.4,0,0.8,0,1.1,0
	c1.9,0.2,2.8,1.2,3.3,1.9c1.6,1,3,2.2,3.6,3.8c0.6,1.4,1.2,4.2-2.1,7.3C394,227.1,391.7,228.4,389.6,228.4z M395.6,218.6
	c-0.2,0.6-0.5,1.2-0.8,1.8C395.6,219.6,395.7,219,395.6,218.6z M390.4,215.3c0.3,0.5,0.7,1.2,1,2.1c0.3-0.7,0.5-1.2,0.6-1.7
	c-0.4-0.2-0.9-0.4-1.3-0.5C390.6,215.3,390.5,215.3,390.4,215.3z"/>
<path class="st1" d="M266.9,215.1c-0.1,0-0.3,0-0.4,0c-2.2-0.2-3.5-1.8-4.7-3.4c-0.4-0.6-0.9-1.2-1.5-1.8c-1.7-1.8-2-4.2-0.9-6.5
	c0.4-0.8,0.9-1.5,1.6-2.2c-0.5-0.5-0.7-1.3-0.6-2c0.1-0.6,0.7-2,3.1-2.2c1.3-0.1,3.1,0.1,5.1,0.7c0.4,0,0.8,0,1.1,0
	c1.9,0.2,2.8,1.2,3.3,1.9c1.6,1,3,2.2,3.6,3.8c0.6,1.4,1.2,4.2-2.1,7.3C271.3,213.8,269,215.1,266.9,215.1z M272.9,205.4
	c-0.2,0.6-0.5,1.2-0.8,1.8C272.9,206.3,273,205.7,272.9,205.4z M267.7,202.1c0.3,0.5,0.7,1.2,1,2.1c0.3-0.7,0.5-1.2,0.6-1.7
	c-0.4-0.2-0.9-0.4-1.3-0.5C267.9,202,267.8,202.1,267.7,202.1z"/>
<path class="st3" d="M408.7,122.7c8-5.7,31,31.5,35.7,47.2s-7.9,18.9-11,10.5s-27.8-45.7-27.8-48.8
	C405.5,128.4,405,125.3,408.7,122.7z"/>
<path class="st3" d="M402.9,115.3c-1.5,4-21-2.6-23.1-16.3C377.7,85.4,406,106.9,402.9,115.3z"/>
<path class="st2" d="M339.2,253.6c-21.7,0-44.6-8-45.9-8.5c-1.1-0.4-1.7-1.6-1.3-2.7c0.4-1.1,1.6-1.7,2.7-1.3
	c0.4,0.2,43.4,15.2,65.7,4.2c5.9-2.9,9.7-7.2,11.6-13.2c0.4-1.1,1.6-1.7,2.7-1.4c1.1,0.4,1.7,1.6,1.4,2.7c-2.3,7-6.9,12.3-13.8,15.7
	C355.6,252.4,347.5,253.6,339.2,253.6z"/>
<g>
	<g>
		<polygon class="st2" points="431,268.6 433.7,376.2 486.8,395.2 488.1,290.4 		"/>
		<path d="M486.8,396.3c-0.1,0-0.2,0-0.3-0.1l-53.1-19.1c-0.4-0.1-0.7-0.5-0.7-0.9L430,268.7c0-0.3,0.2-0.7,0.4-0.9s0.6-0.2,1-0.1
			l57.2,21.8c0.4,0.2,0.7,0.5,0.7,1l-1.4,104.8c0,0.3-0.2,0.6-0.4,0.8C487.2,396.2,487,396.3,486.8,396.3z M434.7,375.4l51.1,18.3
			l1.3-102.7L432,270L434.7,375.4z"/>
	</g>
	<g>
		<polygon class="st2" points="580.7,280.9 488.1,290.4 486.8,395.2 576.6,370.7 		"/>
		<path d="M486.8,396.3c-0.2,0-0.4-0.1-0.6-0.2c-0.3-0.2-0.4-0.5-0.4-0.8l1.4-104.8c0-0.5,0.4-1,0.9-1l92.6-9.5
			c0.3,0,0.6,0.1,0.8,0.3c0.2,0.2,0.3,0.5,0.3,0.8l-4.1,89.8c0,0.4-0.3,0.8-0.8,0.9L487,396.2C486.9,396.2,486.9,396.3,486.8,396.3z
			 M489.1,291.3l-1.3,102.5l87.8-23.9l4-87.9L489.1,291.3z"/>
	</g>
	<g>
		<polygon class="st2" points="514,259.1 580.7,280.9 488.1,290.4 431,268.6 		"/>
		<path d="M488.1,291.4c-0.1,0-0.2,0-0.4-0.1l-57.2-21.8c-0.4-0.2-0.7-0.6-0.7-1.1c0.1-0.5,0.4-0.8,0.9-0.9l83-9.5
			c0.2,0,0.3,0,0.4,0l66.7,21.8c0.5,0.2,0.8,0.6,0.7,1.1s-0.4,0.9-0.9,0.9l-92.6,9.5C488.2,291.4,488.2,291.4,488.1,291.4z
			 M435.3,269.2l53,20.2l87.5-9l-61.9-20.2L435.3,269.2z"/>
	</g>
	<polygon class="st4" points="487.1,300.2 486.9,300.1 431.4,278.8 432.2,276.9 487.4,298.1 579.6,288.5 579.8,290.5 	"/>
	<polygon class="st4" points="487.7,312.8 431.2,288.8 432,286.9 488,310.6 579.3,297.2 579.6,299.2 	"/>
	<polygon class="st4" points="487.4,324.3 432.1,299.4 432.9,297.6 487.7,322.2 579.5,308.4 579.9,310.5 	"/>
	<polygon class="st4" points="486.3,334.4 432.4,312.1 433.2,310.2 486.6,332.3 579,318.8 579.3,320.9 	"/>
	<polygon class="st4" points="486.6,345.1 432.4,325 433.1,323.1 486.8,343 578.1,329.5 578.4,331.6 	"/>
	<polygon class="st4" points="486.3,356.6 432.4,336.8 433.1,334.9 486.5,354.5 577,341.6 577.3,343.6 	"/>
	<polygon class="st4" points="486.6,368.1 486.4,368 432.7,348.6 433.4,346.7 486.8,366 577,350.9 577.3,352.9 	"/>
	<polygon class="st4" points="486.4,379.4 433.3,360.4 434,358.5 486.5,377.2 577,359 577.4,361 	"/>
	<polygon class="st4" points="485.8,388.1 485.5,388 433,369.7 433.7,367.8 485.9,385.9 575.8,365.2 576.3,367.2 	"/>
	<path d="M486.8,396.3c-0.1,0-0.2,0-0.3-0.1l-53.1-19.1c-0.4-0.1-0.7-0.5-0.7-0.9L430,268.7c0-0.3,0.2-0.7,0.4-0.9s0.6-0.2,1-0.1
		l57.2,21.8c0.4,0.2,0.7,0.5,0.7,1l-1.4,104.8c0,0.3-0.2,0.6-0.4,0.8C487.2,396.2,487,396.3,486.8,396.3z M434.7,375.4l51.1,18.3
		l1.3-102.7L432,270L434.7,375.4z"/>
	<path d="M486.8,396.3c-0.2,0-0.4-0.1-0.6-0.2c-0.3-0.2-0.4-0.5-0.4-0.8l1.4-104.8c0-0.5,0.4-1,0.9-1l92.6-9.5
		c0.3,0,0.6,0.1,0.8,0.3c0.2,0.2,0.3,0.5,0.3,0.8l-4.1,89.8c0,0.4-0.3,0.8-0.8,0.9L487,396.2C486.9,396.2,486.9,396.3,486.8,396.3z
		 M489.1,291.3l-1.3,102.5l87.8-23.9l4-87.9L489.1,291.3z"/>
</g>
<path class="st1" d="M523.5,392.4c-0.9,0-1.8-0.6-2.1-1.5c-0.4-1.1,0.3-2.3,1.4-2.7c18.8-5.8,13.2-57.5,10.5-82.4
	c-0.5-4.2-0.9-7.8-1.1-10.7c-1.4-16.7-39.4-32.5-53.9-37.2c-1.1-0.4-1.8-1.6-1.4-2.7c0.4-1.1,1.6-1.8,2.7-1.4
	c2.2,0.7,54.9,17.9,56.8,40.9c0.2,2.8,0.6,6.4,1.1,10.6c3.3,30,8.7,80.1-13.5,86.9C523.9,392.4,523.7,392.4,523.5,392.4z"/>
<path class="st1" d="M234.9,326.3c-13.2,0-26.5-4-34.5-17.1c-0.6-1-0.3-2.3,0.7-3c1-0.6,2.3-0.3,3,0.7c17.8,29.3,68.9,6.2,69.4,6
	c1.1-0.5,2.4,0,2.9,1.1s0,2.4-1.1,2.9C274,317.5,254.5,326.3,234.9,326.3z"/>
<g>
	<polygon class="st2" points="109.1,271.8 189.9,286.4 183.6,397.2 101.5,401.1 	"/>
	<path d="M101.5,402.1c-0.3,0-0.5-0.1-0.7-0.3c-0.2-0.2-0.3-0.5-0.3-0.8l7.6-129.3c0-0.3,0.2-0.6,0.4-0.7c0.2-0.2,0.5-0.3,0.8-0.2
		l80.8,14.6c0.5,0.1,0.9,0.6,0.8,1.1l-6.3,110.8c0,0.5-0.5,0.9-1,1L101.5,402.1C101.6,402.1,101.6,402.1,101.5,402.1z M110.1,273
		l-7.4,127l79.9-3.8l6.2-109L110.1,273z"/>
</g>
<g>
	<polygon class="st2" points="234,265 189.9,286.4 183.6,397.2 223.9,415.7 	"/>
	<path d="M223.9,416.7c-0.1,0-0.3,0-0.4-0.1l-40.4-18.5c-0.4-0.2-0.6-0.6-0.6-1l6.3-110.8c0-0.4,0.2-0.7,0.6-0.9l44.2-21.4
		c0.3-0.2,0.7-0.1,1,0.1s0.5,0.6,0.5,0.9L225,415.7c0,0.3-0.2,0.6-0.5,0.8C224.3,416.6,224.1,416.7,223.9,416.7z M184.6,396.5
		l38.4,17.6l9.9-147.4l-42,20.3L184.6,396.5z"/>
</g>
<path class="st1" d="M171.1,293.7c-1.2,0-2.2-1-2.2-2.2v-13c0-1.2,1-2.2,2.2-2.2s2.2,1,2.2,2.2v13
	C173.2,292.8,172.2,293.7,171.1,293.7z"/>
<path class="st1" d="M176.5,294.7c-1.2,0-2.2-1-2.2-2.2V278c0-1.2,1-2.2,2.2-2.2s2.2,1,2.2,2.2v14.5
	C178.7,293.7,177.7,294.7,176.5,294.7z"/>
<path class="st1" d="M182.2,294.4c-1.2,0-2.2-1-2.2-2.2v-13.3c0-1.2,1-2.2,2.2-2.2s2.2,1,2.2,2.2v13.3
	C184.4,293.4,183.4,294.4,182.2,294.4z"/>
<path d="M193.1,495.8c-23.1,0-44.9-8.9-62.9-25.9c-0.9-0.9-1-2.4-0.1-3.3s2.4-1,3.3-0.1c28.6,26.8,64.9,31.9,104.9,14.1
	c28.1-12.5,54.6-34.3,80.3-55.4l3,3.6c-25.9,21.3-52.7,43.4-81.4,56.1C223.9,492.1,208.1,495.8,193.1,495.8z"/>
<path d="M51.7,355.8c-0.4,0-0.8-0.1-1.2-0.3c-12-7.1-21.8-15.9-29-26.4C8.6,310.4-2,278.3,20.7,231.2c13.2-27.4,31.4-50.2,54.1-67.6
	c1-0.8,2.5-0.6,3.3,0.4s0.6,2.5-0.4,3.3c-22.1,16.9-39.8,39.1-52.7,65.9c-21.7,45-11.7,75.5,0.4,93.1c6.8,9.9,16,18.3,27.5,25
	c1.1,0.7,1.5,2.1,0.8,3.2C53.3,355.4,52.5,355.8,51.7,355.8z"/>
<path d="M105,149.9c-0.9,0-1.7-0.5-2.1-1.3c-0.6-1.2-0.1-2.6,1.1-3.2c19.7-9.9,41.3-16.4,64.2-19.3c0.3-7.1,1.4-14.1,3.3-20.8
	c5.4-19,19.9-45.7,58.6-64.4c16.6-8,36.3-9.9,60.1-5.7c1.3,0.2,2.1,1.4,1.9,2.7s-1.4,2.1-2.7,1.9c-22.8-4-41.5-2.3-57.2,5.3
	c-37.2,18-51.1,43.4-56.2,61.5c-2,7-3,14.3-3.2,21.7v2l-2,0.2c-23.1,2.8-44.9,9.2-64.7,19.1C105.7,149.9,105.3,149.9,105,149.9z"/>
<path d="M632.6,378.7c-0.9,0-1.8-0.5-2.2-1.4c-0.5-1.2,0.1-2.6,1.3-3.1c38.4-15.9,65.2-46.7,73.4-84.3
	c11.6-52.8-15.1-105.2-61.9-122c-49.5-17.7-84.5-6.4-105.2,6.2l-1.3,0.8l-1.3-0.9c-16.5-12.2-33.4-24.1-50.3-35.6
	c-1.1-0.7-1.4-2.2-0.6-3.3c0.7-1.1,2.2-1.4,3.3-0.6c16.4,11.2,33,22.9,49.1,34.7c21.7-12.8,57.7-23.8,107.9-5.8
	c49.1,17.6,77,72.4,64.9,127.4c-8.6,39.2-36.4,71.1-76.2,87.6C633.2,378.6,632.9,378.7,632.6,378.7z"/>
<path class="st1" d="M81.1,117.1L81.1,117.1c0,9.6,7.8,17.4,17.4,17.4l0,0l0,0c-9.6,0-17.4,7.8-17.4,17.4l0,0l0,0
	c0-9.6-7.8-17.4-17.4-17.4l0,0l0,0C73.3,134.6,81.1,126.8,81.1,117.1L81.1,117.1z"/>
<path class="st1" d="M603.8,368.9L603.8,368.9c0,9.6,7.8,17.4,17.4,17.4l0,0l0,0c-9.6,0-17.4,7.8-17.4,17.4l0,0l0,0
	c0-9.6-7.8-17.4-17.4-17.4l0,0l0,0C596,386.4,603.8,378.6,603.8,368.9L603.8,368.9z"/>
<path d="M120.1,457.2c-1.5,0-3.1-0.4-4.6-1.2c-4.5-2.5-6.1-8.2-3.6-12.7l0,0c2.5-4.5,8.2-6.1,12.7-3.5c4.5,2.5,6.1,8.2,3.6,12.7
	C126.6,455.5,123.4,457.2,120.1,457.2z M116.1,445.6c-1.3,2.2-0.5,5.1,1.8,6.3c2.2,1.3,5.1,0.5,6.3-1.8c1.3-2.2,0.5-5.1-1.8-6.3
	C120.2,442.6,117.4,443.4,116.1,445.6L116.1,445.6z"/>
<circle cx="107" cy="424.7" r="4"/>
</svg>
