<?xml version="1.0" encoding="utf-8"?>
<!-- Generator: Adobe Illustrator 27.1.1, SVG Export Plug-In . SVG Version: 6.00 Build 0)  -->
<svg version="1.1" id="Calque_1" xmlns="http://www.w3.org/2000/svg" xmlns:xlink="http://www.w3.org/1999/xlink" x="0px" y="0px"
	 viewBox="0 0 720 553" style="enable-background:new 0 0 720 553;" xml:space="preserve">
<style type="text/css">
	.st0{fill:#EDEDED;}
	.st1{fill:#5E5EF7;}
	.st2{fill:#FFFFFF;}
	.st3{fill:#ECECEC;}
	.st4{fill:#C6C6C5;}
	.st5{fill:#05DBE9;}
	.st6{fill:#575756;}
</style>
<g>
	<path class="st0" d="M230.2,390.2c66.7,1.6,171.1,11.3,261.2,43.6s205.4,42,205.4-22.6s-34.2-116.3-104.5-122.7
		c0,0,37.8-43.6,14.4-92.1C583.3,147.9,473.4,62.3,320.3,47.8S113.1,254.5,113.1,254.5S3.2,332,44.7,385.3S230.2,390.2,230.2,390.2z
		"/>
	<path d="M25.8,292.2c-0.5,0-0.9-0.1-1.3-0.4c-1-0.7-1.2-2.2-0.5-3.2c7.3-10,16.2-20.2,26.4-30.3C61.7,247.1,72.6,238,80,232.1
		c3.6-11.9,9.7-30.4,18.9-51.6c0.5-1.1,1.8-1.7,3-1.2c1.1,0.5,1.7,1.8,1.2,3c-9.2,21.4-15.4,40-18.9,51.8l-0.2,0.7l-0.6,0.4
		c-7.3,5.8-18.4,15-29.8,26.3c-10.1,10-18.8,20-26,29.8C27.2,291.8,26.5,292.2,25.8,292.2z"/>
	<path d="M145.4,104.7c-0.5,0-0.9-0.1-1.3-0.4c-1-0.7-1.2-2.1-0.5-3.2C192.1,34.9,254.4,3.4,323.9,10c33.6,3.2,67,9.7,99.2,19.4
		c1.2,0.4,1.9,1.6,1.5,2.8s-1.6,1.9-2.8,1.5c-31.9-9.6-65-16.1-98.4-19.3c-67.8-6.5-128.7,24.4-176.3,89.2
		C146.7,104.4,146.1,104.7,145.4,104.7z"/>
	<path d="M710.2,325c-0.8,0-1.5-0.4-2-1.1c-14.9-25.5-37.3-45.2-64.6-56.8l-1.9-0.8l0.6-1.9c6.1-19.8,10-50.2-5.6-82.5
		c-9.5-19.6-28.9-42.3-54.6-63.9c-1-0.8-1.1-2.2-0.3-3.2s2.2-1.1,3.2-0.3c26.2,22,46.1,45.2,55.8,65.4c15.8,32.6,12.4,63.3,6.4,83.8
		c27.4,12.1,49.8,32.1,64.8,57.9c0.6,1.1,0.3,2.5-0.8,3.1C711,324.9,710.6,325,710.2,325z"/>
	<path d="M16.5,321c-4.9,0-9-4-9-9c0-4.9,4-9,9-9s9,4,9,9C25.4,317,21.4,321,16.5,321z M16.5,307.6c-2.5,0-4.5,2-4.5,4.5
		s2,4.5,4.5,4.5s4.5-2,4.5-4.5C20.9,309.6,18.9,307.6,16.5,307.6z"/>
	<circle cx="13.1" cy="335.9" r="3.9"/>
	<path class="st1" d="M444.2,26.2L444.2,26.2c0,9.3,7.5,16.8,16.8,16.8l0,0l0,0c-9.3,0-16.8,7.5-16.8,16.8l0,0l0,0
		c0-9.3-7.5-16.8-16.8-16.8l0,0l0,0C436.7,43,444.2,35.5,444.2,26.2L444.2,26.2z"/>
	<circle cx="573.3" cy="110.4" r="3.9"/>
</g>
<g>
	<g>
		<polygon points="263,88.1 264.3,397 513.8,405.5 538.4,101.5 		"/>
		<g>
			<polygon class="st2" points="274.8,105 525.1,110.5 498.8,383.8 281.3,374.7 			"/>
			<path class="st1" d="M500.6,385.8l-221.2-9.2v-1.8L272.8,103h2l252.4,5.5L500.6,385.8z M283.2,372.9l213.8,8.9l26-269.3
				L276.8,107L283.2,372.9z"/>
		</g>
	</g>
	<path d="M446.2,498.7c-0.9,0-1.8-0.6-2.1-1.5l-34-99.5c-0.4-1.2,0.2-2.5,1.4-2.9c1.2-0.4,2.5,0.2,2.9,1.4l34,99.5
		c0.4,1.2-0.2,2.5-1.4,2.9C446.7,498.7,446.5,498.7,446.2,498.7z"/>
	<path d="M324.5,492.2c-0.3,0-0.6-0.1-0.9-0.2c-1.2-0.5-1.7-1.8-1.2-3l40.6-96.9c0.5-1.1,1.8-1.7,3-1.2s1.7,1.8,1.2,3l-40.6,96.9
		C326.2,491.7,325.4,492.2,324.5,492.2z"/>
	<g>
		<polygon class="st3" points="380.3,122.8 378.9,162.7 414.1,164.4 416.2,123.7 		"/>
		<polygon class="st3" points="423.3,124.6 421.2,163.5 456.4,165.3 458.5,127.3 		"/>
		<polygon class="st4" points="467.1,129.1 464.5,165.9 499.8,169.2 503.3,131.3 		"/>
		<polygon class="st3" points="292.9,168 291.5,207.8 326.7,209.6 328.8,168.9 		"/>
		<polygon class="st3" points="335.8,169.8 333.7,208.7 368.9,210.5 371,172.4 		"/>
		<polygon class="st3" points="378.1,173.3 375.5,210.1 410.8,213.4 414.3,175.5 		"/>
		<polygon class="st3" points="421.1,174.8 420.4,215.5 457.1,216.4 458.5,175.7 		"/>
		<polygon class="st4" points="465.5,176.6 464.1,216.4 499.3,218.2 501.4,177.5 		"/>
		<polygon class="st3" points="290.6,217.9 289.9,258.6 326.5,259.5 327.9,218.8 		"/>
		<polygon class="st3" points="334.9,219.7 333.5,259.5 368.7,261.3 370.8,220.6 		"/>
		<polygon class="st3" points="377.9,221.5 375.8,260.4 411,262.2 413.1,224.1 		"/>
		<polygon class="st3" points="421.7,226 419.1,262.8 454.4,266 457.9,228.1 		"/>
		<polygon class="st4" points="463.7,226 462.3,265.8 497.5,267.6 499.6,226.9 		"/>
		<polygon class="st3" points="332.6,268.1 331.2,307.9 366.4,309.7 368.5,269 		"/>
		<polygon class="st3" points="375.6,269.9 373.5,308.8 408.7,310.6 410.8,272.5 		"/>
		<polygon class="st3" points="417.8,273.4 415.3,310.2 450.6,313.5 454,275.6 		"/>
		<polygon class="st4" points="460.9,274.9 460.2,315.6 496.8,316.5 498.2,275.8 		"/>
		<polygon class="st3" points="290.4,266.7 289,306.5 324.2,308.3 326.3,267.6 		"/>
		<polygon class="st3" points="290.8,316.6 289.4,356.4 324.6,358.1 326.7,317.4 		"/>
		<polygon class="st3" points="333.8,318.3 331.7,357.2 366.9,359 369,321 		"/>
	</g>
	<path class="st1" d="M347.1,205.2c-4.5,0-8.5-2.8-10.3-7.7c-2.4-6.2-0.7-14.2,7-17.5c5.4-2.4,9.7-2.7,12.9-1.1
		c3.1,1.6,3.8,4.6,3.9,4.9c0.2,1.1-0.5,2.2-1.6,2.4s-2.2-0.5-2.4-1.6c0-0.1-0.4-1.4-1.8-2.1c-1.4-0.7-4.1-1-9.2,1.2
		c-5.3,2.3-6.5,7.9-4.8,12.3c1.2,3.1,4.2,6.2,8.7,4.7c9.8-3.3,8.7-10.5,8.6-10.8c-0.2-1.1,0.6-2.2,1.7-2.4s2.2,0.6,2.4,1.7
		c0.6,3.8-0.9,11.9-11.4,15.4C349.5,205,348.3,205.2,347.1,205.2z"/>
	<path class="st1" d="M347.9,195.1l-9-21.7c-0.4-1.1,0.1-2.3,1.1-2.7c1.1-0.4,2.3,0.1,2.7,1.1l6.4,15.3l19.4-23.5
		c0.7-0.9,2-1,2.9-0.3s1,2,0.3,2.9L347.9,195.1z"/>
	<path class="st1" d="M435.3,259.6c-0.8,0-1.7-0.1-2.4-0.3c-3.4-1-4.6-3.7-4.7-4c-0.4-1.1,0.1-2.3,1.1-2.7c1.1-0.4,2.2,0.1,2.7,1.1
		c0,0.1,0.6,1.3,2.2,1.7c1.5,0.4,4.2,0.2,8.8-3c4.8-3.3,4.8-9.1,2.3-13c-1.8-2.8-5.3-5.3-9.5-2.9c-8.9,5.1-6.5,12-6.3,12.3
		c0.4,1.1-0.1,2.3-1.2,2.7s-2.3-0.1-2.7-1.2c-1.4-3.6-1.4-11.9,8.2-17.3c5.3-3.1,11.5-1.3,15,4.3s3.5,13.7-3.4,18.6
		C441.6,258.3,438.2,259.6,435.3,259.6z"/>
	<path class="st1" d="M349.4,302c-2.8,0-6-0.8-9.5-3c-5.2-3.2-6.6-9.5-3.4-15.2c3.2-5.8,10.4-9.6,18-5.9c5.3,2.6,8.3,5.7,9.1,9.2
		c0.8,3.4-1.1,5.8-1.3,6.1c-0.7,0.9-2,1-2.9,0.3s-1-2-0.3-2.9c0.1-0.1,0.8-1.2,0.5-2.7c-0.4-1.5-1.8-3.8-6.9-6.3
		c-5.2-2.6-10.2,0.1-12.5,4.2c-1.6,2.9-2.1,7.2,2,9.7c8.8,5.4,13.6-0.1,13.8-0.3c0.8-0.9,2.1-1,2.9-0.2c0.9,0.7,1,2.1,0.2,2.9
		C357.5,299.7,354,302,349.4,302z"/>
	<path class="st1" d="M436.7,250.2l-10.6-18.5c-0.6-1-0.2-2.3,0.8-2.8c1-0.6,2.2-0.2,2.8,0.8l7.2,12.4l15.4-25
		c0.6-1,1.9-1.3,2.8-0.7c1,0.6,1.3,1.9,0.7,2.8L436.7,250.2z"/>
	<path class="st1" d="M348.1,292.7l-1.6-2.6c-1.6-2.7-6.2-10.3-8-12.1c-0.8-0.8-0.8-2.1,0-2.9s2.1-0.8,2.9,0c1.8,1.8,5.1,7,7.1,10.3
		l10-13c0.7-0.9,2-1.1,2.9-0.4s1.1,2,0.4,2.9L348.1,292.7z"/>
	<g>
		<path class="st3" d="M655.8,500l-105.5,39.6L448.6,500c-6.2-14,0.6-22.6,0.6-22.6l100.6,37.9l106-35.5"/>
		<path class="st1" d="M550.3,542l-0.8-0.3L447,501.8l-0.4-0.9c-6.7-15.1,0.5-24.5,0.9-24.9l1-1.3l101.4,38.2l105.2-35.3
			c1.2-0.4,2.5,0.2,2.9,1.5c0.4,1.2-0.2,2.5-1.5,2.9l-106.8,35.8l-0.8-0.3l-98.8-37.2c-1.4,2.6-3.5,8.9,0.2,17.9l99.9,38.9
			L655,497.8c1.2-0.5,2.5,0.2,3,1.4c0.4,1.2-0.2,2.5-1.4,3L550.3,542z"/>
		<polygon class="st1" points="448.4,474.7 534.1,446.6 655.9,477.6 549.8,515.1 		"/>
		<path class="st4" d="M550.3,539.5L448.6,500c-6.2-14,0.6-22.6,0.6-22.6l100.6,37.9"/>
		<path class="st1" d="M550.3,542l-0.8-0.3L447,501.8l-0.4-0.9c-6.7-15.1,0.5-24.5,0.9-24.9l1-1.3l101.4,38.2l105.2-35.3
			c1.2-0.4,2.5,0.2,2.9,1.5c0.4,1.2-0.2,2.5-1.5,2.9l-106.8,35.8l-0.8-0.3l-98.8-37.2c-1.4,2.6-3.5,8.9,0.2,17.9l99.9,38.9
			L655,497.8c1.2-0.5,2.5,0.2,3,1.4c0.4,1.2-0.2,2.5-1.4,3L550.3,542z"/>
	</g>
	<g>
		<path d="M526.1,448c5.8,0.6,116,28.2,116,28.2L685,353.1l-140.4-16L526.1,448z"/>
		<g>
			<polygon class="st2" points="539.2,441 553.2,350.2 671.9,360.7 634.3,464.5 			"/>
			<path class="st1" d="M635.8,467.2l-99.1-24.6l14.6-94.9l123.7,11L635.8,467.2z M541.8,439.3l91.1,22.6l35.8-99.2l-113.6-10
				L541.8,439.3z"/>
		</g>
		<polygon class="st5" points="553,427.3 569.1,431.2 583.8,411.4 591.2,421.1 613.5,403.5 627.1,411.5 650.4,388.3 649.4,396.7 
			653.1,396.7 654.4,382.6 640.6,381.7 640.2,385.5 648.3,386.3 627.2,405.8 614.5,393.7 595,410.9 582.2,399.3 		"/>
		
			<rect x="567.9" y="408.3" transform="matrix(0.1799 -0.9837 0.9837 0.1799 42.1333 913.4812)" class="st5" width="2.1" height="46.3"/>
		
			<rect x="515.3" y="397.7" transform="matrix(0.1496 -0.9887 0.9887 0.1496 79.5513 889.9423)" class="st5" width="83.7" height="2.1"/>
		<polygon points="642.1,476.2 550.6,507.3 457.2,471.5 526,447.2 		"/>
	</g>
	<polygon class="st5" points="597.9,370.8 569.6,367.5 569.9,365 598.2,368.4 	"/>
	<polygon class="st5" points="612,378.8 570,373.4 570.3,370.9 612.3,376.3 	"/>
	
		<rect x="580.8" y="367.8" transform="matrix(0.1393 -0.9902 0.9902 0.1393 124.2746 903.7977)" class="st5" width="2.5" height="25.2"/>
</g>
<g>
	<path class="st1" d="M136,180.4c0,0,29.3,11,55.2-7.8s15.7-68.5,15.7-68.5s-46.2,20.1-26.5,53.4c0,0-36-36.8-75.2-15.3
		C105.1,142.2,108.8,164.9,136,180.4z"/>
	<path class="st2" d="M157.2,179.7c-15.5,0-35-5.7-45.4-31l-0.5-1.3l1.1-0.9c0.9-0.7,22.9-17.2,58.8,8.3c0.8,0.6,1,1.7,0.4,2.6
		c-0.6,0.8-1.7,1-2.6,0.4c-29.4-20.9-48.4-12.1-53.2-9.2c17.8,40.7,60.7,24.5,62.6,23.8c0.9-0.4,2,0.1,2.4,1s-0.1,2-1,2.4
		C179.4,176,169.6,179.7,157.2,179.7z"/>
	<path class="st2" d="M180.7,152.3c-0.9,0-1.7-0.7-1.8-1.6c0-0.3-2.7-28.2,22.8-38.1l1.6-0.6l0.8,1.5c0.3,0.6,7.7,15.6-1.2,32.1
		c-0.5,0.9-1.6,1.2-2.5,0.7s-1.2-1.6-0.7-2.5c6.4-11.8,3.3-23.1,1.8-27.1c-21.1,9.4-18.9,32.6-18.8,33.6c0.1,1-0.6,1.9-1.6,2
		C180.9,152.3,180.8,152.3,180.7,152.3z"/>
	<path d="M192.4,154l15.6,17.3c0,0,90,29,101.1,128.4s-58.2,151.8-58.2,151.8l-16,27.6l-54.9,1.5l10-20.8c0,0-84.5-35.9-95.6-122.8
		s69.3-158.7,69.3-158.7l1.4-23.9L192.4,154z"/>
	<path class="st2" d="M190.2,474.6l8.4-15.5c-11.8-4.5-64-27.9-91.9-101.2c-30.4-79.8,53.4-171.1,60.2-178.4
		c0.7-3.5,3.2-15,7.3-17.8c3.1-2.1,5.8,0.5,7.6,2.7c0.4-0.7,0.9-1.3,1.3-1.7c2.6-2.1,6.5-1.4,7-1.3l0.7,0.1l17.1,18.4
		c7.5,2,77.6,23.1,92.6,115.4c15.1,93.3-51,146.6-56.7,150.9L229,473.1L190.2,474.6z M176.6,165.2c-2,1.4-4.5,9.2-5.7,15.7l-0.1,0.6
		l-0.4,0.5c-0.9,0.9-90.3,94.3-59.8,174.5c30.7,80.5,91,99.4,91.6,99.5l2.4,0.7l-7.3,13.4l29.2-1.1l14.4-25.8
		c0.7-0.5,70.8-52.8,55.5-147.2c-15.3-94.3-89.3-112-90-112.2l-0.6-0.1l-17-18.3c-0.9-0.1-2.3,0-3,0.5c-0.1,0.1-0.5,0.4-0.5,1.4
		c0,0.8,0,2.7-1.7,3.3c-1.8,0.6-2.9-0.9-4-2.5C179,167.5,177.4,165.2,176.6,165.2z"/>
	<path class="st1" d="M252.3,519h-37l33.7-68.4c0.5-1,1.8-1.4,2.8-0.9s1.4,1.7,0.9,2.8l-30.8,62.4h25.7c-0.5-2.8-1.8-6.6-4.2-7.8
		c-1.7-0.9-3.9-0.5-6.7,1.2c-1,0.6-2.3,0.3-2.8-0.7c-0.6-1-0.3-2.3,0.7-2.8c4.1-2.5,7.7-2.9,10.8-1.3c5.9,3,6.7,12.4,6.8,13.4
		L252.3,519z"/>
	<path class="st1" d="M166.7,519.4h-31v-2.1c0-0.4,0.1-9.8,6.5-13.8c4.3-2.7,10.2-2.2,17.4,1.5c1,0.5,1.4,1.8,0.9,2.8
		s-1.7,1.4-2.8,0.9c-5.9-2.9-10.4-3.5-13.4-1.7s-4,5.8-4.4,8.2h23.8l21.8-55.8c0.4-1.1,1.6-1.6,2.7-1.2c1.1,0.4,1.6,1.6,1.2,2.7
		L166.7,519.4z"/>
	<g>
		<path class="st2" d="M246.2,327.3c-1.7,0-3.3-0.5-4.7-1.4c-9-5.9-7.1-28.9-6.8-31.5c0.1-1.1,1.2-2,2.3-1.9s2,1.1,1.9,2.3
			c-0.9,8.9-0.3,24.2,4.9,27.6c1.8,1.2,4.3,0.9,7.6-0.9c1-0.6,2.3-0.2,2.8,0.8c0.6,1,0.2,2.3-0.8,2.8
			C250.8,326.5,248.4,327.3,246.2,327.3z"/>
		<path class="st2" d="M270.4,303.4c-0.9,0-1.7-0.5-2-1.4c-0.9-2.6-2.2-4.1-4-4.6c-4.2-1.1-10.4,3.5-12.4,5.4
			c-0.8,0.8-2.1,0.7-2.9-0.1c-0.8-0.8-0.7-2.2,0.1-2.9c0.9-0.8,9.2-8.2,16.2-6.4c3.2,0.8,5.5,3.3,6.9,7.3c0.4,1.1-0.2,2.3-1.3,2.6
			C270.9,303.4,270.7,303.4,270.4,303.4z"/>
		<path class="st1" d="M180.2,340.4c-1.9,0-4.1-1-7.3-3.4c-3.5-2.5-3.3-5.3-2.9-6.7c0.5-1.5,1.6-2.9,3-4c0.3-0.7,1.1-1.8,2.9-2.2
			c0.3-0.1,0.7-0.1,1.1-0.2c1.8-0.8,3.5-1.2,4.7-1.3c2.3-0.2,3,1.2,3.2,1.8c0.3,0.7,0.1,1.5-0.3,2c0.7,0.6,1.3,1.2,1.8,1.9
			c1.4,2.1,1.4,4.4-0.1,6.3c-0.5,0.6-0.8,1.3-1.2,1.9c-1,1.6-1.9,3.3-4,3.8C180.9,340.4,180.6,340.4,180.2,340.4z M173.9,331.8
			c0,0.4,0.1,0.9,1,1.6C174.6,332.8,174.2,332.3,173.9,331.8z M177,328.6c0.1,0.4,0.4,0.9,0.8,1.5c0.2-0.8,0.5-1.5,0.7-2
			c-0.2,0-0.3,0-0.5,0C177.7,328.2,177.3,328.4,177,328.6z"/>
		<path class="st1" d="M295.8,313.3c-1.9,0-4.1-1-7.3-3.4c-3.5-2.5-3.3-5.3-2.9-6.7c0.5-1.5,1.6-2.9,3-4c0.3-0.7,1.1-1.8,2.9-2.2
			c0.3-0.1,0.7-0.1,1.1-0.2c1.8-0.8,3.5-1.2,4.7-1.3c2.2-0.1,3,1.2,3.2,1.8c0.3,0.7,0.1,1.5-0.3,2c0.7,0.6,1.3,1.2,1.8,1.9
			c1.4,2.1,1.4,4.4-0.1,6.3c-0.5,0.6-0.8,1.3-1.2,1.9c-1,1.6-1.9,3.3-4,3.8C296.4,313.3,296.1,313.3,295.8,313.3z M289.5,304.6
			c0,0.4,0.1,0.9,1,1.6C290.1,305.7,289.8,305.2,289.5,304.6z M292.5,301.5c0.1,0.4,0.4,0.9,0.8,1.5c0.2-0.8,0.5-1.5,0.7-2
			c-0.2,0-0.3,0-0.5,0C293.2,301.1,292.8,301.3,292.5,301.5z"/>
		<path class="st2" d="M197.6,313.3c-0.4,0-0.9-0.1-1.3-0.4c-0.9-0.7-1.1-2-0.4-2.9c5.7-7.5,11.6-11.1,17.4-11
			c7.5,0.3,11.9,6.9,12.1,7.2c0.6,1,0.3,2.2-0.6,2.9c-1,0.6-2.2,0.4-2.9-0.6c0-0.1-3.4-5.2-8.8-5.3c-4.4-0.2-9.1,3-14,9.3
			C198.8,313,198.2,313.3,197.6,313.3z"/>
		<path class="st2" d="M235,353.8c-6.6,0-13.3-2.2-19-8.5c-0.8-0.8-0.7-2.2,0.1-2.9c0.8-0.8,2.2-0.7,2.9,0.1
			c17,18.7,45.5-5.2,45.8-5.5c0.9-0.7,2.2-0.6,2.9,0.2c0.7,0.9,0.6,2.2-0.2,2.9C267.3,340.4,251.3,353.8,235,353.8z"/>
		<path class="st2" d="M214.1,352.1c-1,0-1.9-0.8-2.1-1.8c-1.1-9.1,5.2-13.9,5.5-14.1c0.9-0.7,2.2-0.5,2.9,0.4s0.5,2.2-0.4,2.9
			c-0.2,0.1-4.7,3.7-3.9,10.3c0.1,1.1-0.7,2.2-1.8,2.3C214.3,352.1,214.2,352.1,214.1,352.1z"/>
	</g>
	<path class="st6" d="M249.5,229.7c0,0-2.8,27.6,16.5,39.7c19.3,12.2,1.8-26.1-1.3-29.6C261.5,236.3,253.7,227.5,249.5,229.7z"/>
	<path class="st6" d="M234,216.7c0,0-6.5-9.6,2.7-5.9c9.2,3.7,15.8,11.1,12.7,12.5S242.7,225.1,234,216.7z"/>
	<path class="st1" d="M334,413.9c-0.3,0-0.6-0.1-0.9-0.2c-1-0.5-1.4-1.8-0.9-2.8l76.6-150.3c0.5-1,1.8-1.4,2.8-0.9s1.4,1.8,0.9,2.8
		l-76.6,150.3C335.5,413.5,334.8,413.9,334,413.9z"/>
	<path class="st1" d="M338.8,422.2c-0.2,0-0.5,0-0.7-0.1l-16.5-5.7c-1.1-0.4-1.7-1.6-1.3-2.6c0.4-1.1,1.5-1.7,2.6-1.3l16.5,5.7
		c1.1,0.4,1.7,1.6,1.3,2.6C340.5,421.7,339.7,422.2,338.8,422.2z"/>
	<path class="st1" d="M335.7,428.3c-0.2,0-0.5,0-0.7-0.1l-16.5-5.7c-1.1-0.4-1.7-1.6-1.3-2.6c0.4-1.1,1.5-1.7,2.6-1.3l16.5,5.7
		c1.1,0.4,1.7,1.6,1.3,2.6C337.4,427.8,336.6,428.3,335.7,428.3z"/>
	<path class="st1" d="M332.6,434.4c-0.2,0-0.4,0-0.5-0.1l-14-3.8c-1.1-0.3-1.8-1.4-1.5-2.5s1.4-1.8,2.5-1.5l14,3.8
		c1.1,0.3,1.8,1.4,1.5,2.5C334.3,433.8,333.5,434.4,332.6,434.4z"/>
	<path class="st1" d="M305,449.7c-0.5,0-1,0-1.5-0.1c-9.6-0.8-18.4-10-25.9-27.2c-0.5-1,0-2.3,1.1-2.7c1-0.4,2.3,0,2.7,1.1
		c6.8,15.5,14.6,24,22.5,24.7c9.8,0.9,17.5-10.4,17.6-10.5c0.6-1,1.9-1.2,2.9-0.6c0.9,0.6,1.2,1.9,0.6,2.9
		C324.6,437.8,316.5,449.7,305,449.7z"/>
	<path class="st1" d="M94.3,520.4L94.3,520.4c-11.3-0.1-14.9-3.4-15.9-6.2c-1-2.7,0.1-5.7,2.8-8c3.5-2.9,9.5-4.5,15-1.4
		c1,0.6,1.3,1.8,0.8,2.8c-0.6,1-1.8,1.3-2.8,0.8c-3.8-2.1-8-1-10.3,0.9c-1.1,0.9-2,2.3-1.6,3.5c0.6,1.7,4.1,3.5,11.9,3.5
		c3.9-0.2,7.3-1.5,10.4-4.8c20.3-20.9,17.6-99.6,17.6-100.4c0-1.1,0.9-2.1,2-2.1h0.1c1.1,0,2,0.9,2.1,2c0.1,3.3,2.7,81.3-18.8,103.5
		C103.8,518.4,99.3,520.4,94.3,520.4z"/>
</g>
</svg>
