<?xml version="1.0" encoding="utf-8"?>
<!-- Generator: Adobe Illustrator 27.1.1, SVG Export Plug-In . SVG Version: 6.00 Build 0)  -->
<svg version="1.1" id="Calque_1" xmlns="http://www.w3.org/2000/svg" xmlns:xlink="http://www.w3.org/1999/xlink" x="0px" y="0px"
	 viewBox="0 0 720 510" style="enable-background:new 0 0 720 510;" xml:space="preserve">
<style type="text/css">
	.st0{fill:#EDEDED;}
	.st1{fill:#5E5EF7;}
	.st2{fill:#FFFFFF;}
	.st3{opacity:0.61;}
	.st4{clip-path:url(#SVGID_00000172422395433410997850000010650427939882579892_);}
	.st5{fill:#575756;}
</style>
<g>
	<path class="st0" d="M401.3,390.2c-46.5-30.8-243.7,102.1-302.8,66.3S0,282.7,155.9,218.2c0,0,100.3-198.9,270.5-172
		s152.3,181,152.3,181s116.5,91.4,91.4,175.6S566.1,499.5,401.3,390.2z"/>
	<path d="M220.4,80.8c-0.6,0-1.3-0.3-1.7-0.8c-0.8-1-0.7-2.4,0.2-3.3c65.1-56.9,139-80.8,213.6-69c48.7,7.7,88.9,25.3,119.6,52.5
		c1,0.8,1,2.3,0.2,3.3c-0.9,1-2.3,1-3.3,0.2c-30-26.5-69.5-43.8-117.3-51.4C358.5,0.8,286,24.2,221.9,80.2
		C221.5,80.6,220.9,80.8,220.4,80.8z"/>
	<path d="M631.7,500.7c-0.9,0-1.8-0.6-2.2-1.5c-0.4-1.2,0.2-2.5,1.4-3c24.1-8.7,56.1-30.3,72-83.7c13.6-45.5-1-97.5-42.1-150.2
		c-0.8-1-0.6-2.5,0.4-3.3s2.5-0.6,3.3,0.4c42.1,54,56.9,107.4,42.9,154.4c-16.4,55.2-49.8,77.6-74.8,86.7
		C632.3,500.7,632,500.7,631.7,500.7z"/>
	<path d="M79.5,490.1c-0.4,0-0.8-0.1-1.2-0.3C32.4,461.9,3.4,401,8,341.6c1.4-18.6,7-46.8,25.6-75.8c0.7-1.1,2.1-1.4,3.2-0.7
		c1.1,0.7,1.4,2.1,0.7,3.2C19.4,296.5,14,323.9,12.6,342c-4.4,57.7,23.6,116.9,68.2,143.9c1.1,0.7,1.4,2.1,0.8,3.2
		C81.1,489.7,80.3,490.1,79.5,490.1z"/>
	<path class="st1" d="M568.8,62.1L568.8,62.1c0,9.5,7.7,17.2,17.2,17.2l0,0l0,0c-9.5,0-17.2,7.7-17.2,17.2l0,0l0,0
		c0-9.5-7.7-17.2-17.2-17.2l0,0l0,0C561.1,79.3,568.8,71.6,568.8,62.1L568.8,62.1z"/>
	<path d="M53.7,258.6c-1.2,0-2.4-0.2-3.5-0.7c-2.3-0.9-4-2.7-5-5c-0.9-2.3-0.9-4.8,0-7.1s2.7-4,5-5c2.3-0.9,4.8-0.9,7.1,0l0,0
		c4.7,1.9,6.9,7.3,5,12C60.8,256.5,57.3,258.6,53.7,258.6z M53.7,244.9c-1.8,0-3.5,1.1-4.2,2.8c-1,2.3,0.1,5,2.5,6
		c2.3,1,5-0.1,6-2.5c1-2.3-0.1-5-2.5-6l0,0C54.9,245,54.3,244.9,53.7,244.9z"/>
	<circle cx="74.8" cy="233.9" r="4"/>
</g>
<g>
	<g>
		<polygon points="643.3,116.3 623.7,432.8 344.4,424.3 334.8,111.2 		"/>
		<polygon class="st2" points="630.5,138.8 348.8,132.8 362.5,403.2 606,408.8 		"/>
		<g class="st3">
			<g>
				<defs>
					<polygon id="SVGID_1_" points="630.5,138.8 348.8,132.8 362.5,403.2 606,408.8 					"/>
				</defs>
				<clipPath id="SVGID_00000181056136119166119030000008914016399479469458_">
					<use xlink:href="#SVGID_1_"  style="overflow:visible;"/>
				</clipPath>
				<g style="clip-path:url(#SVGID_00000181056136119166119030000008914016399479469458_);">
					<path class="st1" d="M604.2,175.2c0,0-24.5,9.2-46.1-6.5c-21.6-15.8-13.1-57.2-13.1-57.2s38.6,16.7,22.1,44.6
						c0,0,30.1-30.7,62.8-12.7C630,143.4,626.9,162.3,604.2,175.2z"/>
					<path class="st2" d="M586.5,174.7c-10.4,0-18.6-3.1-18.8-3.2c-0.8-0.3-1.2-1.2-0.9-2s1.2-1.2,2-0.9
						c1.5,0.6,37.4,14.1,52.2-19.9c-4-2.4-19.9-9.8-44.4,7.7c-0.7,0.5-1.7,0.3-2.1-0.4c-0.5-0.7-0.3-1.6,0.4-2.1
						c29.9-21.3,48.3-7.5,49.1-6.9l0.9,0.7l-0.4,1.1C615.8,169.9,599.4,174.7,586.5,174.7z"/>
					<path class="st2" d="M566.8,151.8c-0.1,0-0.1,0-0.2,0c-0.8-0.1-1.5-0.8-1.4-1.7s1.9-20.2-15.7-28c-1.2,3.4-3.8,12.8,1.5,22.6
						c0.4,0.7,0.1,1.7-0.6,2.1c-0.7,0.4-1.7,0.1-2.1-0.6c-7.4-13.7-1.3-26.3-1-26.8l0.6-1.2l1.3,0.5c21.3,8.3,19.1,31.6,19,31.8
						C568.3,151.2,567.6,151.8,566.8,151.8z"/>
					<path class="st1" d="M529.7,452.6h-32.4l0.1-1.8c0-0.4,0.5-8.9,6.2-12.1c3.5-1.9,8-1.4,13.4,1.6c0.8,0.5,1.1,1.5,0.7,2.4
						c-0.5,0.8-1.5,1.1-2.4,0.7c-4.3-2.4-7.6-2.9-10-1.6c-2.7,1.5-3.8,5.2-4.2,7.4h23.3l-26-59.2c-0.4-0.9,0-1.9,0.9-2.3
						s1.9,0,2.3,0.9L529.7,452.6z"/>
					<path d="M582.1,159.2l-3.3,12.9c0,0,61.2,50.4,44.8,126.6c-16.4,76.1-77.7,92.2-77.7,92.2l6.6,21.4l-43.7-2.1
						c0,0-73.7-73.6-59.1-141.6c19.7-91.2,95.2-104,95.2-104l5.5-9.7L582.1,159.2z"/>
					<path class="st2" d="M543.2,405.7l-26.4-2.4l-0.4-0.3c-0.8-0.6-81.1-61.7-57.5-141.3c12.3-41.5,35.9-64.1,53.5-75.8
						c16.8-11.1,31.2-14.6,34.9-15.4l6.9-13.8l12,7.2l9.5,1.2l2.2,13.5c5.3,4.3,45.9,40,39.8,111.6c-5.9,70.2-67.5,93.1-78,96.5
						L543.2,405.7z M518.2,399.9l20.8,1.9l-3.1-17.6l1.5-0.4c0.7-0.2,70.8-19.9,77-93.9c6.3-74.3-38.5-108.6-39-108.9l-0.6-0.4
						l-2-12.3l-8-1.1l-9.1-5.5l-6,12l-0.9,0.1c-0.6,0.1-63.6,11.5-86.6,88.9C440.2,337.2,512.2,395.3,518.2,399.9z"/>
					<path class="st1" d="M567.2,452.6h-31.1L536,451c0-0.3-0.3-6.8,4.4-10.3c3.6-2.7,9-2.9,15.9-0.4c0.9,0.3,1.4,1.3,1.1,2.2
						c-0.3,0.9-1.3,1.4-2.2,1.1c-5.8-2-10.1-2-12.7-0.1c-2.1,1.5-2.7,4.1-3,5.7h22.9l-18.1-57.7c-0.3-0.9,0.2-1.9,1.1-2.2
						c0.9-0.3,1.9,0.2,2.2,1.1L567.2,452.6z"/>
					<path class="st1" d="M557.4,299.5c-0.5,0-1-0.1-1.4-0.2c-1.7-0.6-2.3-2.1-3-3.6c-0.2-0.5-0.5-1.1-0.8-1.7
						c-1-1.8-0.7-3.7,0.7-5.3c0.5-0.5,1-1,1.7-1.4c-0.3-0.5-0.3-1.1,0-1.7c0.2-0.4,1-1.4,2.9-1.1c1,0.2,2.4,0.7,3.8,1.6
						c0.3,0.1,0.6,0.2,0.9,0.3c1.4,0.5,2,1.5,2.2,2.1c1.1,1.1,1.9,2.4,2.1,3.7c0.2,1.2,0.1,3.6-3.1,5.3
						C560.7,298.8,558.9,299.5,557.4,299.5z M563,292.9c-0.3,0.4-0.7,0.8-1,1.3C562.8,293.6,563,293.2,563,292.9z M559.7,289.3
						c0.2,0.5,0.3,1.1,0.4,1.8c0.4-0.5,0.7-0.9,0.8-1.2c-0.3-0.2-0.6-0.5-0.9-0.7C559.8,289.3,559.7,289.3,559.7,289.3z"/>
					<path class="st1" d="M463.9,264.1c-0.5,0-1-0.1-1.4-0.2c-1.7-0.6-2.3-2.1-3-3.6c-0.2-0.5-0.5-1.1-0.8-1.7
						c-1-1.8-0.7-3.7,0.7-5.3c0.5-0.5,1-1,1.7-1.4c-0.3-0.5-0.3-1.1,0-1.7c0.2-0.4,1-1.4,2.9-1.1c1,0.2,2.4,0.7,3.8,1.6
						c0.3,0.1,0.6,0.2,0.9,0.3c1.4,0.5,2,1.5,2.2,2.1c1.1,1.1,1.9,2.4,2.1,3.7c0.2,1.2,0.1,3.6-3.1,5.3
						C467.2,263.4,465.4,264.1,463.9,264.1z M469.6,257.5c-0.3,0.4-0.7,0.8-1,1.3C469.4,258.2,469.5,257.8,469.6,257.5z
						 M466.2,253.9c0.2,0.5,0.3,1.1,0.4,1.8c0.4-0.5,0.7-0.9,0.8-1.2c-0.3-0.2-0.6-0.5-0.9-0.7C466.3,253.9,466.2,253.9,466.2,253.9
						z"/>
					<path class="st5" d="M533.5,199.8c0,0-11.4,27.5-31.5,26.8s11.4-25.5,15.4-26.8C521.4,198.4,531.5,195.1,533.5,199.8z"/>
					<path class="st5" d="M546.3,190.4c0,0,8.7-8.1,0-8.7c-8.7-0.7-16.8,4.7-14.8,8.1C533.5,193.1,536.2,195.7,546.3,190.4z"/>
					<g>
						<path class="st2" d="M503.7,281.5c-1.9,0-4-0.8-6.2-2.5c-0.8-0.6-0.9-1.7-0.3-2.4c0.6-0.8,1.7-0.9,2.4-0.3
							c3.3,2.5,4.9,1.7,5.5,1.4c4.2-2,6.2-13.4,6.4-20.2c0-1,0.8-1.7,1.8-1.7s1.7,0.8,1.7,1.8c-0.1,2-0.9,19.6-8.4,23.2
							C505.6,281.3,504.6,281.5,503.7,281.5z"/>
						<path class="st2" d="M535.2,279.7c-0.6,0-1.1-0.3-1.5-0.8c-1.3-2.1-5.7-8.1-9.4-7.8c-1.4,0.1-2.7,1.3-3.8,3.7
							c-0.4,0.9-1.5,1.2-2.3,0.8c-0.9-0.4-1.2-1.5-0.8-2.3c1.7-3.6,4-5.5,6.8-5.6c6.1-0.4,11.9,8.4,12.5,9.4
							c0.5,0.8,0.3,1.9-0.5,2.4C535.9,279.6,535.5,279.7,535.2,279.7z"/>
						<path class="st2" d="M501.6,264c-0.7,0-1.3-0.4-1.6-1c0,0-2-4.6-5.4-5.2c-1.9-0.4-4,0.6-6.3,2.8c-0.7,0.7-1.8,0.7-2.5,0
							s-0.7-1.8,0-2.5c3.2-3.1,6.3-4.4,9.4-3.8c5.2,1,7.8,7,7.9,7.3c0.4,0.9,0,1.9-0.9,2.3C502,263.9,501.8,264,501.6,264z"/>
						<path class="st2" d="M524,305.5c-13.3,0-45.8-2.8-51.4-29.2c-0.2-0.9,0.4-1.9,1.4-2.1c0.9-0.2,1.9,0.4,2.1,1.4
							c6.3,30.2,52.9,26.3,53.3,26.2c1-0.1,1.8,0.6,1.9,1.6c0.1,1-0.6,1.8-1.6,1.9C529.6,305.3,527.4,305.5,524,305.5z"/>
						<path class="st2" d="M499.7,313c-4.8,0-9.9-2.2-15.3-6.7c-0.7-0.6-0.8-1.7-0.2-2.5c0.6-0.7,1.7-0.8,2.5-0.2
							c5.5,4.6,10.6,6.5,15.2,5.7c5.9-1.1,9-6.6,9-6.7c0.5-0.8,1.5-1.2,2.4-0.7c0.8,0.5,1.2,1.5,0.7,2.4c-0.2,0.3-3.9,7-11.4,8.4
							C501.6,313,500.6,313,499.7,313z"/>
					</g>
					<path class="st1" d="M606.4,402.9c-8.4,0-26.5-8.5-70.7-45.9c-0.7-0.6-0.8-1.7-0.2-2.5c0.6-0.7,1.7-0.8,2.5-0.2
						c53.8,45.4,67.9,47.1,71.5,44.1c5.5-4.6-4.6-27.4-12.3-40.6c-0.5-0.8-0.2-1.9,0.6-2.4s1.9-0.2,2.4,0.6
						c3.6,6.2,20.9,37.2,11.5,45.1C610.6,402.2,608.9,402.9,606.4,402.9z"/>
					<path class="st1" d="M547,358.7c-0.4,0-0.9-0.2-1.2-0.5l-6.8-6.8c-0.7-0.7-0.7-1.8,0-2.5s1.8-0.7,2.5,0l6.8,6.8
						c0.7,0.7,0.7,1.8,0,2.5C547.9,358.5,547.5,358.7,547,358.7z"/>
					<path class="st1" d="M539.8,367c-0.3,0-0.6-0.1-0.9-0.3l-7.6-4.7c-0.8-0.5-1.1-1.6-0.6-2.4s1.6-1.1,2.4-0.6l7.6,4.7
						c0.8,0.5,1.1,1.6,0.6,2.4C541,366.7,540.4,367,539.8,367z"/>
					<path class="st1" d="M449.2,302.7h-0.1l-53.5-3.3c-1-0.1-1.7-0.9-1.6-1.8s0.9-1.8,1.8-1.6l53.5,3.3c1,0.1,1.7,0.9,1.6,1.8
						C450.9,302,450.2,302.7,449.2,302.7z"/>
					<path class="st1" d="M401,306.5c-0.8,0-1.5-0.5-1.7-1.3c-0.3-0.9,0.3-1.9,1.2-2.1l8.3-2.3c0.9-0.3,1.9,0.3,2.1,1.2
						c0.3,0.9-0.3,1.9-1.2,2.1l-8.3,2.3C401.3,306.5,401.2,306.5,401,306.5z"/>
				</g>
			</g>
		</g>
	</g>
	<polygon points="452.7,464.2 461.8,420.5 505.5,420.5 513,465.7 	"/>
	<polygon points="412.1,467.2 547.7,470.2 546.1,488.3 394,482.3 	"/>
	<path class="st1" d="M607.9,411h-2l-245.4-5.7l-0.1-1.9l-13.8-272.6l286.2,6.1L607.9,411z M364.4,401.1l239.6,5.6l24.2-265.8
		l-277.2-6L364.4,401.1z"/>
	<g>
		<circle class="st2" cx="485.9" cy="138.8" r="14.1"/>
		<path class="st1" d="M485.9,154.9c-8.9,0-16.1-7.2-16.1-16.1c0-8.9,7.2-16.1,16.1-16.1s16.1,7.2,16.1,16.1
			C502,147.7,494.8,154.9,485.9,154.9z M485.9,126.7c-6.7,0-12.1,5.4-12.1,12.1c0,6.7,5.4,12.1,12.1,12.1s12.1-5.4,12.1-12.1
			C498,132.1,492.6,126.7,485.9,126.7z"/>
	</g>
	<path class="st1" d="M301.2,135.8L301.2,135.8c0,9.5,7.7,17.2,17.2,17.2l0,0l0,0c-9.5,0-17.2,7.7-17.2,17.2l0,0l0,0
		c0-9.5-7.7-17.2-17.2-17.2l0,0l0,0C293.5,153,301.2,145.3,301.2,135.8L301.2,135.8z"/>
</g>
<g>
	<path class="st1" d="M126.5,148.3c0,0,29.8,11.2,56.1-8s15.9-69.7,15.9-69.7s-47,20.4-26.9,54.3c0,0-36.7-37.4-76.6-15.5
		C95,109.4,98.8,132.5,126.5,148.3z"/>
	<path class="st2" d="M148,147.5c-15.7,0-35.6-5.8-46.2-31.6l-0.5-1.3l1.1-0.9c0.9-0.7,23.3-17.5,59.8,8.5c0.8,0.6,1,1.8,0.4,2.6
		c-0.6,0.8-1.8,1-2.6,0.4c-29.6-21.1-49.3-12.2-54.2-9.3c18.1,41.3,61.8,24.9,63.7,24.2c1-0.4,2.1,0.1,2.4,1.1
		c0.4,1-0.1,2.1-1.1,2.4C170.7,143.8,160.7,147.5,148,147.5z"/>
	<path class="st2" d="M172,119.7c-0.9,0-1.8-0.7-1.9-1.7c0-0.3-2.7-28.7,23.2-38.7l1.6-0.6l0.8,1.5c0.3,0.6,7.8,15.9-1.2,32.6
		c-0.5,0.9-1.6,1.3-2.5,0.8s-1.2-1.6-0.8-2.5c6.5-12.1,3.4-23.5,1.9-27.6c-21.5,9.5-19.3,33.1-19.2,34.2c0.1,1-0.6,1.9-1.7,2.1
		C172.2,119.6,172.1,119.7,172,119.7z"/>
	<path class="st1" d="M256.8,486.3h-39.5l34.3-78c0.5-1.1,1.7-1.5,2.8-1.1c1.1,0.5,1.6,1.7,1.1,2.8l-31.7,72h28.4
		c-0.5-2.7-1.8-7.2-5.1-9c-2.9-1.6-7-0.9-12.2,2c-1,0.6-2.3,0.2-2.9-0.8c-0.6-1-0.2-2.3,0.8-2.9c6.6-3.7,12-4.3,16.3-2
		c6.9,3.9,7.5,14.3,7.5,14.7L256.8,486.3z"/>
	<path d="M153.5,128.8l4,15.7c0,0-74.6,61.4-54.6,154.2s94.6,112.4,94.6,112.4l-8,26.1l53.3-2.6c0,0,89.9-89.7,72-172.5
		c-24-111.1-116-126.8-116-126.8l-6.7-11.8L153.5,128.8z"/>
	<path class="st2" d="M200.8,429.1l4.1-23.1c-12.9-4.2-87.9-32-95.1-117.6c-7.4-87.3,42-130.7,48.5-136L161,136l11.6-1.5l14.7-8.8
		l8.4,16.8c9.7,2.1,80.8,20.4,107.8,111.1c28.8,97-69,171.5-70,172.2l-0.5,0.4L200.8,429.1z M164.7,139.8l-2.5,15l-0.7,0.5
		c-0.1,0.1-14,10.6-26.7,32.1C123.1,207.2,110,240.8,114,288c7.6,90.3,93,114.2,93.8,114.4l1.9,0.5l-3.8,21.4l25.4-2.3
		c7.2-5.6,95-76.5,68-167.2c-14.6-49.2-42.5-76.1-63.3-89.9c-22.6-15-42-18.4-42.2-18.4l-1.1-0.2l-7.3-14.6l-11.9,6.9L164.7,139.8z"
		/>
	<path class="st1" d="M209.5,486.3h-37.9l23.8-75.9c0.3-1.1,1.5-1.7,2.7-1.4c1.1,0.3,1.7,1.5,1.4,2.7L177.4,482h27.9
		c-0.3-2-1.1-5.1-3.6-7c-3.2-2.4-8.4-2.4-15.5,0.1c-1.1,0.4-2.3-0.2-2.7-1.3c-0.4-1.1,0.2-2.3,1.3-2.7c8.5-2.9,15-2.8,19.4,0.5
		c5.8,4.3,5.4,12.2,5.4,12.6L209.5,486.3z"/>
	<path class="st1" d="M183.5,299.6c-1.8,0-4-0.8-7.2-2.5c-3.9-2.1-4.1-4.9-3.8-6.4c0.3-1.6,1.2-3.2,2.5-4.5c0.3-0.8,0.9-2,2.7-2.6
		c0.3-0.1,0.7-0.2,1-0.3c1.7-1,3.4-1.7,4.7-1.9c2.3-0.4,3.2,0.8,3.5,1.4c0.4,0.7,0.3,1.5,0,2.1c0.8,0.5,1.5,1.1,2.1,1.7
		c1.7,1.9,2,4.3,0.8,6.4c-0.4,0.7-0.7,1.4-1,2.1c-0.8,1.8-1.5,3.6-3.6,4.4C184.7,299.6,184.1,299.6,183.5,299.6z M176.6,291.6
		c0,0.4,0.3,0.9,1.3,1.5C177.4,292.7,177,292.1,176.6,291.6z M179.3,288c0.2,0.3,0.5,0.8,1,1.4c0.1-0.9,0.3-1.6,0.4-2.2
		c-0.2,0-0.3,0-0.5,0C179.9,287.5,179.6,287.8,179.3,288z"/>
	<path class="st1" d="M297.4,256.5c-1.8,0-4-0.8-7.2-2.5c-3.9-2.1-4.1-4.9-3.8-6.4c0.3-1.6,1.2-3.2,2.5-4.5c0.3-0.8,0.9-2,2.7-2.6
		c0.3-0.1,0.7-0.2,1.1-0.3c1.7-1,3.4-1.7,4.7-1.9c2.3-0.4,3.2,0.8,3.5,1.4c0.4,0.7,0.3,1.5,0,2.1c0.8,0.5,1.5,1.1,2.1,1.7
		c1.7,1.9,2,4.3,0.8,6.4c-0.4,0.7-0.7,1.4-1,2.1c-0.8,1.8-1.5,3.6-3.6,4.4C298.6,256.4,298,256.5,297.4,256.5z M290.6,248.5
		c0,0.4,0.2,0.9,1.3,1.5C291.4,249.5,291,249,290.6,248.5z M293.2,244.9c0.2,0.3,0.5,0.8,1,1.4c0.1-0.9,0.3-1.6,0.4-2.1
		c-0.2,0-0.3,0-0.5,0C293.9,244.4,293.6,244.6,293.2,244.9z"/>
	<path class="st5" d="M212.6,178.2c0,0,13.9,33.5,38.4,32.7s-13.9-31.1-18.8-32.7C227.3,176.5,215.1,172.4,212.6,178.2z"/>
	<path class="st5" d="M197.1,166.7c0,0-10.6-9.8,0-10.6s20.4,5.7,18,9.8C212.6,170,209.3,173.2,197.1,166.7z"/>
	<g>
		<path class="st2" d="M249,277.7c-1.2,0-2.4-0.3-3.5-0.8c-9.1-4.4-10.1-25.8-10.2-28.3c0-1.2,0.9-2.2,2.1-2.2
			c1.1-0.1,2.2,0.9,2.2,2.1c0.3,8.2,2.6,22.1,7.8,24.6c0.6,0.3,2.6,1.3,6.7-1.8c0.9-0.7,2.3-0.5,3,0.4s0.5,2.3-0.4,3
			C253.9,276.7,251.4,277.7,249,277.7z"/>
		<path class="st2" d="M210.5,275.6c-0.4,0-0.8-0.1-1.1-0.3c-1-0.6-1.3-1.9-0.7-2.9c0.8-1.2,7.7-11.8,15.3-11.5
			c3.4,0.2,6.2,2.5,8.3,6.9c0.5,1.1,0.1,2.3-1,2.8c-1,0.5-2.3,0.1-2.8-1c-1.4-2.8-2.9-4.3-4.7-4.4c-0.1,0-0.1,0-0.2,0
			c-4.2,0-9.6,7-11.2,9.5C211.9,275.3,211.3,275.6,210.5,275.6z"/>
		<path class="st2" d="M251.6,256.4c-0.3,0-0.6-0.1-0.8-0.2c-1.1-0.5-1.6-1.7-1.1-2.8c0.1-0.3,3.4-7.6,9.6-8.8
			c3.8-0.7,7.6,0.8,11.4,4.6c0.8,0.8,0.8,2.2,0,3s-2.2,0.8-3,0c-2.8-2.7-5.4-3.9-7.6-3.5c-4.1,0.8-6.5,6.3-6.6,6.4
			C253.2,255.9,252.4,256.4,251.6,256.4z"/>
		<path class="st2" d="M224.2,307c-4.2,0-6.8-0.2-6.9-0.2c-1.2-0.1-2-1.1-1.9-2.3c0.1-1.2,1.1-2,2.3-1.9c0.6,0.1,57.3,4.8,65-32
			c0.2-1.2,1.4-1.9,2.5-1.6c1.1,0.2,1.9,1.4,1.6,2.5C280.1,303.6,240.5,307,224.2,307z"/>
		<path class="st2" d="M253.9,316.2c-1.2,0-2.3-0.1-3.5-0.3c-9.2-1.7-13.7-9.9-13.9-10.2c-0.6-1-0.2-2.3,0.8-2.9s2.3-0.2,2.9,0.8
			c0,0.1,3.8,6.8,11,8.1c5.5,1.1,11.8-1.3,18.5-6.9c0.9-0.8,2.2-0.6,3,0.3s0.6,2.2-0.3,3C266,313.5,259.7,316.2,253.9,316.2z"/>
	</g>
	<path class="st1" d="M123.8,425.7c-3.1,0-5-0.9-6.5-2.1c-11.4-9.5,9.7-47.4,14.1-54.9c0.6-1,1.9-1.4,2.9-0.8s1.4,1.9,0.8,2.9
		c-9.4,16.2-21.7,43.9-15,49.5c4.4,3.7,21.6,1.7,87.1-53.7c0.9-0.8,2.2-0.6,3,0.3s0.6,2.2-0.3,3C156.1,415.3,134,425.7,123.8,425.7z
		"/>
	<path class="st1" d="M196.1,371.8c-0.5,0-1.1-0.2-1.5-0.6c-0.8-0.8-0.8-2.2,0-3l8.3-8.3c0.8-0.8,2.2-0.8,3,0s0.8,2.2,0,3l-8.3,8.3
		C197.2,371.6,196.7,371.8,196.1,371.8z"/>
	<path class="st1" d="M204.9,381.9c-0.7,0-1.4-0.4-1.8-1c-0.6-1-0.3-2.3,0.7-2.9l9.2-5.7c1-0.6,2.3-0.3,2.9,0.7
		c0.6,1,0.3,2.3-0.7,2.9l-9.2,5.7C205.7,381.8,205.3,381.9,204.9,381.9z"/>
	<path class="st1" d="M315.3,303.6c-1.1,0-2.1-0.9-2.1-2c-0.1-1.2,0.8-2.2,2-2.2l73-4h0.1c1.1,0,2.1,0.9,2.1,2
		c0.1,1.2-0.8,2.2-2,2.2l-73,4C315.4,303.6,315.4,303.6,315.3,303.6z"/>
	<path class="st1" d="M381.9,308.2c-0.2,0-0.4,0-0.6-0.1l-10.2-2.8c-1.1-0.3-1.8-1.5-1.5-2.6s1.5-1.8,2.6-1.5l10.2,2.8
		c1.1,0.3,1.8,1.5,1.5,2.6C383.7,307.6,382.8,308.2,381.9,308.2z"/>
</g>
</svg>
