<?xml version="1.0" encoding="utf-8"?>
<!-- Generator: Adobe Illustrator 25.2.1, SVG Export Plug-In . SVG Version: 6.00 Build 0)  -->
<svg version="1.1" id="Calque_1" xmlns="http://www.w3.org/2000/svg" xmlns:xlink="http://www.w3.org/1999/xlink" x="0px" y="0px"
	 viewBox="0 0 1080 473" style="enable-background:new 0 0 1080 473;" xml:space="preserve">
<style type="text/css">
	.st0{fill:none;}
	.st1{fill:#0F9C19;}
	.st2{fill:#0D6804;}
</style>
<g>
	<g>
		<g>
			<path d="M96.9,465.3c-6.2,3.7-14,5.6-22.3,5.6c-24.1,0-40.8-17.5-40.8-40.2c0-22.3,16.1-40.4,40.7-40.4c7.9,0,14.9,1.9,21,5v7.3
				c-5.7-3.8-13.1-6.2-21-6.2c-20.4,0-34.1,15-34.1,34.1c0,19.1,13.7,34.1,34.6,34.1c8.2,0,15.8-2.5,21.9-6.8
				C96.9,457.8,96.9,465.3,96.9,465.3z"/>
			<path d="M139.3,391.5h6.6v78.2h-6.6V391.5z"/>
			<path d="M212.7,397.6h-26.9v-6h60.4v6h-26.9v72.2h-6.6L212.7,397.6L212.7,397.6z"/>
			<path d="M286.2,391.5h21c9.1,0,16.1,1.1,21.6,4.6c5.3,3.5,9.1,9.1,9.1,16.9c0,7.1-3.2,13-8.2,16.5c-3.6,2.6-7.8,3.9-12.6,4.6
				l26.1,35.5h-8l-25.5-35h-16.9v35h-6.6V391.5z M309.2,429.1c8.1,0,13.3-1.4,17.1-4.5c3.3-2.8,5-6.6,5-11.2c0-5.7-2.5-9.6-6.4-12.2
				c-4.2-2.8-9.4-3.6-18.1-3.6h-13.9v31.5L309.2,429.1L309.2,429.1z"/>
			<path d="M417,390.3c22.5,0,39.4,17.7,39.4,40.3c0,22.6-17,40.3-39.4,40.3s-39.4-17.7-39.4-40.3
				C377.6,408.1,394.6,390.3,417,390.3z M417,464.8c19,0,32.8-15.1,32.8-34.1S436,396.6,417,396.6s-32.8,15.1-32.8,34.1
				S398,464.8,417,464.8z"/>
			<path d="M498.3,469.8v-78.2h6.3l35.8,47.6c5.2,6.9,9.7,13.1,14.7,19.9l0.2-0.1c-0.1-7.6-0.1-15.6-0.1-23.4v-44h6.4v78.2h-6.3
				l-35.8-47.6c-5.2-6.9-9.7-13.1-14.7-19.9l-0.2,0.1c0.1,7.6,0.1,15.6,0.1,23.4v44H498.3z"/>
		</g>
		<g>
			<g>
				<path d="M659.9,392.1h29.3l23,33.4l0.2-0.1v-33.3h29v78.2h-29.3l-23-33.4l-0.2,0.1v33.3h-29V392.1z"/>
				<path d="M819.8,390.9c24.5,0,43.6,17.6,43.6,40.3s-19.1,40.3-43.6,40.3s-43.6-17.6-43.6-40.3
					C776.2,408.5,795.3,390.9,819.8,390.9z M819.8,443.8c6.7,0,12.1-5.4,12.1-12.1s-5.4-12.1-12.1-12.1s-12.1,5.4-12.1,12.1
					S813.1,443.8,819.8,443.8z"/>
				<path d="M898.2,392.1h32.2v78.2h-32.2V392.1z"/>
				<path d="M966.9,392.1H999c16.1,0,38,4,38,24.8c0,8.4-4,14.5-9.8,18.6l17.8,34.8h-33.8l-11.7-25.7h-0.4v25.7h-32.2L966.9,392.1
					L966.9,392.1z M1001.5,426.7c5.1,0,7.3-2.7,7.3-6s-2.4-5.9-7.3-5.9h-2.4v12h2.4V426.7z"/>
			</g>
		</g>
	</g>
	<g>
		<g>
			<g id="lamon_5_">
				<g>
					<path d="M600.2,198.1c-26.4,0-82.5-23.7-113.5-37.8c-41.5-18.8-80.8-39.8-85.6-44.6c-1.9-1.9-2.8-4.2-2.7-6.9
						c0.7-10.9,19.6-26.7,40-42.2c22.2-16.9,33.7-21,39.9-23.2c0.8-0.3,1.5-0.5,2.2-0.8c5.4-2.1,12.6-4.3,18.9-5.6
						c9.2-2.1,18.5-3.2,27.6-3.2c18,0,34.9,4.1,50.2,12.2c0.6,0.3,1.2,0.7,1.9,1c3.8,2.1,7.7,4.2,11.9,4.7c0.8,0.1,1.8,0.1,2.8,0.1
						c1.1,0,2.3-0.1,3.4-0.1c1.1-0.1,2.3-0.1,3.4-0.1c1.1,0,2.1,0.1,3,0.2c4.9,0.6,9.6,3.4,12.8,7.7s4.6,9.6,3.8,14.5
						c-0.2,1.4-0.6,2.7-1,4c-0.5,1.9-1,3.7-1,5.5c-0.1,3.4,1.5,6.7,2.9,9.9c0.3,0.6,0.5,1.1,0.8,1.7c0.8,1.7,1.5,3.6,2.2,5.3
						l0.1,0.2v0.1l0.3,0.8c1.7,4.5,2.6,7,3.8,15.1c0.1,0.5,0.2,1.3,0.4,2.1c7.1,42.1,0.9,68.1-18.3,77.4
						C607.7,197.5,604.4,198.1,600.2,198.1z"/>
				</g>
				<g>
					<path d="M461.6,301c-21.3,0-41.8-5-59.3-14.5c-1-0.5-2-1.1-3-1.7c-4.6-2.6-9.3-5.2-14.5-6.4c-1.3-0.3-2.6-0.4-4-0.6
						c-2-0.2-4-0.5-6-1.1c-9-2.8-15-12.8-13.1-22c0.3-1.3,0.7-2.6,1.1-3.9c0.5-1.6,1-3.1,1.2-4.6c0.5-3.9-1-8-2.4-11.9
						c-0.2-0.5-0.4-1-0.5-1.5c-1.1-3.2-2.1-6.7-2.8-10.5c-0.8-5.8-1.4-15.6,0.8-29.3c0.1-0.4,0.1-0.6,0.1-0.7
						c1.1-11.9,6.9-27.3,9.7-34.7c0.5-1.2,0.8-2.2,1.1-3c5.3-12.7,17.6-20.8,31.4-20.8c6.1,0,12.1,1.7,17.4,4.8v0.1
						c6.1,2.8,67.7,34.5,101.7,52.3c102.2,53.5,102.2,57.1,102.2,58.6c0,0.5-0.3,1-0.8,1.2c-0.3,0.1-0.6,0.2-1.1,0.2
						c-0.7,0-1.7-0.2-3.1-0.5c-7.9-2-15.4-3-22.4-3c-19,0-28.6,7.5-31.7,10l-0.3,0.2c-0.1,0.1-0.2,0.2-0.3,0.2
						c-0.1,0.1-0.3,0.3-0.5,0.4c-0.1,0.1-0.3,0.2-0.5,0.4c-0.1,0.1-0.1,0.1-0.2,0.2c-0.2,0.1-0.4,0.3-0.7,0.5s-0.5,0.4-0.7,0.5
						c-0.1,0-0.2,0.2-0.2,0.2l-0.1,0.1l-0.2,0.1c0,0-0.1,0-0.2,0.2l-0.1,0.1h-0.1c-1.8,1.3-4.1,3.1-6.7,5.3
						c-10.5,8.5-26.3,21.4-44.7,27.4C493,298.3,477.4,301,461.6,301z"/>
				</g>
				<path d="M561.8,257.5c-0.5,0.3-1.1,0.9-2,1.5C560.5,258.5,561.2,258,561.8,257.5z"/>
				<polyline class="st0" points="585.4,179.5 585.4,179.5 585.4,179.5 585.4,179.5 				"/>
				<path class="st1" d="M585.4,179.5L585.4,179.5L585.4,179.5L585.4,179.5L585.4,179.5z"/>
				<path class="st2" d="M585.4,179.5L585.4,179.5L585.4,179.5z"/>
			</g>
		</g>
	</g>
</g>
</svg>
