<?xml version="1.0" encoding="utf-8"?>
<!-- Generator: Adobe Illustrator 27.1.1, SVG Export Plug-In . SVG Version: 6.00 Build 0)  -->
<svg version="1.1" id="Calque_1" xmlns="http://www.w3.org/2000/svg" xmlns:xlink="http://www.w3.org/1999/xlink" x="0px" y="0px"
	 viewBox="0 0 720 541.5" style="enable-background:new 0 0 720 541.5;" xml:space="preserve">
<style type="text/css">
	.st0{fill:#EDEDED;}
	.st1{fill:#5E5EF7;}
	.st2{fill:#FFFFFF;}
	.st3{fill:#575756;}
</style>
<g>
	<path class="st0" d="M205.7,394.8c-40.1,5.6-41.7,58.3-95.9,70.9C55.6,478.2,16.7,399,58.4,307.3S237.6,55.8,333.5,140.6
		c0,0,41.7-87.5,123.6-82s119.5,147.3,119.5,147.3s111.1,83.4,94.5,175s-84.7,102.8-127.8,94.5S255.7,387.9,205.7,394.8z"/>
	<path d="M26.5,295c-0.3,0-0.6-0.1-0.9-0.2c-1.1-0.5-1.6-1.8-1.1-2.9c12.5-27.5,31.7-58.6,54.1-87.3c0.8-1,2.1-1.1,3.1-0.4
		c1,0.8,1.1,2.1,0.4,3.1c-22.1,28.5-41.2,59.2-53.5,86.4C28.2,294.5,27.4,295,26.5,295z"/>
	<path d="M323.6,95l-1.6-0.7c-24.1-10.8-50.3-13.3-78-7.4c-1.2,0.3-2.4-0.5-2.6-1.7c-0.3-1.2,0.5-2.4,1.7-2.6c28-6,54.6-3.6,79.1,7
		c5-6.4,10.2-12.4,15.7-18c34.9-35.8,77-53.1,121.7-50.1c1.2,0.1,2.1,1.1,2.1,2.4c-0.1,1.2-1.2,2.1-2.4,2.1
		C415.9,23.1,375,39.9,341,74.7c-5.7,5.9-11.3,12.3-16.4,19L323.6,95z"/>
	<path d="M566.7,514.9c-10.2,0-20.4-1-30.5-2.9c-1.2-0.2-2-1.4-1.8-2.6s1.4-2,2.6-1.8c9.8,1.9,19.8,2.9,29.7,2.9
		c28.7,0,55.4-7.9,77.1-22.7c31.2-21.3,51.2-55.3,59.5-101c17.2-94.3-70.5-176.7-97.7-199.7c-0.9-0.8-1.1-2.2-0.3-3.1
		c0.8-0.9,2.2-1.1,3.1-0.3c27.7,23.4,116.8,107.2,99.2,203.8c-8.5,46.9-29.2,81.8-61.4,103.8C623.8,506.8,596.3,514.9,566.7,514.9z"
		/>
	<path d="M19.6,325.2c-1.3,0-2.6-0.3-3.8-0.9c-2.1-1-3.7-2.8-4.5-5s-0.6-4.6,0.4-6.7s2.8-3.7,5-4.5s4.6-0.6,6.7,0.4s3.7,2.8,4.5,5
		c1.6,4.6-0.8,9.6-5.4,11.2l0,0C21.5,325,20.6,325.2,19.6,325.2z M21.8,322.6L21.8,322.6L21.8,322.6z M19.6,312
		c-0.5,0-1,0.1-1.5,0.2c-1.1,0.4-2,1.2-2.5,2.2c-0.5,1.1-0.6,2.2-0.2,3.3c0.8,2.3,3.3,3.5,5.6,2.7l0,0c2.3-0.8,3.5-3.3,2.7-5.6
		c-0.4-1.1-1.2-2-2.2-2.5C20.9,312.1,20.2,312,19.6,312z"/>
	<ellipse transform="matrix(0.9999 -1.020247e-02 1.020247e-02 0.9999 -3.4783 0.1657)" cx="14.5" cy="341" rx="3.8" ry="3.8"/>
	<path class="st1" d="M221,61.5L221,61.5c0,9.1,7.4,16.5,16.5,16.5l0,0l0,0c-9.1,0-16.5,7.4-16.5,16.5l0,0l0,0
		c0-9.1-7.4-16.5-16.5-16.5l0,0l0,0C213.6,78,221,70.6,221,61.5L221,61.5z"/>
	<circle cx="471.7" cy="28.2" r="3.8"/>
</g>
<g>
	<g>
		<polygon points="296.8,130.9 327.4,481.6 144.6,491.5 111.5,149.4 		"/>
		<g>
			<polygon class="st2" points="286.8,150.6 124.5,158.2 154.9,440.7 305.4,420.1 			"/>
			<path class="st1" d="M153.2,442.9l-30.8-286.5l166.2-7.9l18.8,273.2L153.2,442.9z M126.7,160l29.9,278.5l146.8-20.1l-18.3-265.9
				L126.7,160z"/>
		</g>
		<g>
			<circle class="st2" cx="232.3" cy="456.8" r="13.5"/>
			<path class="st1" d="M232.3,472.2c-8.5,0-15.4-6.9-15.4-15.4s6.9-15.4,15.4-15.4s15.4,6.9,15.4,15.4S240.8,472.2,232.3,472.2z
				 M232.3,445.2c-6.4,0-11.6,5.2-11.6,11.6s5.2,11.6,11.6,11.6s11.6-5.2,11.6-11.6S238.7,445.2,232.3,445.2z"/>
		</g>
	</g>
	<g>
		<path d="M305.5,444.7l-8.7,63.6c0,0,57.2,16.3,90.1,5.9l-6.9-66.5C380,447.6,361,474.2,305.5,444.7z"/>
		<path class="st2" d="M359.8,519.6c-29.8,0-61.8-9-63.6-9.5l-1.6-0.5l9.3-68l2.5,1.3c53.1,28.3,71.9,3.8,72,3.5l3-4.1l7.6,73.1
			l-1.5,0.5C379.3,518.6,369.7,519.6,359.8,519.6z M299,506.8c9.4,2.5,56.8,14.2,85.9,5.9l-6.3-60.8c-7.3,6.3-28.4,17.8-71.5-4.3
			L299,506.8z"/>
	</g>
	<path class="st1" d="M303.6,442.3c0,0,31.2,16.2,49.9,14.2c18.7-2,22.4-7.9,22.4-7.9S366.4,422.2,303.6,442.3z"/>
	<path class="st1" d="M390.4,512.2c-30.8,0-79.2-45.6-81.5-47.8c-0.8-0.8-0.8-2.1-0.1-2.9c0.8-0.8,2.1-0.8,2.9-0.1
		c0.6,0.6,60.1,56.7,86.6,45.2c4.9-2.1,7.5-4.9,7.9-8.5c1.2-10.9-18.2-27.4-25.7-32.8c-0.9-0.7-1.1-1.9-0.5-2.8
		c0.7-0.9,1.9-1.1,2.8-0.5c1.2,0.8,29.1,21,27.4,36.5c-0.5,5.1-4,9.1-10.3,11.8C397,511.6,393.8,512.2,390.4,512.2z"/>
	<path class="st1" d="M267.7,498.6c0,0-18,0-19.3,5.1s12.9,12.9,12.9,12.9S293.4,503.7,267.7,498.6z"/>
	<path class="st1" d="M227.8,498.6c0,0,18,1.3,10.3,5.1C230.4,507.6,233,505,227.8,498.6z"/>
	<path class="st1" d="M239.4,514c0,0,6.4,6.4-2.6,6.4S230.4,516.6,239.4,514z"/>
	<polygon class="st1" points="161,192.5 163.6,215.7 267.7,193.8 267.7,180.9 	"/>
	<polygon class="st1" points="167.4,235 238.1,223.4 234.3,237.5 170,250.4 	"/>
	<polygon class="st1" points="167.4,276.1 233,258.1 235.6,272.2 168.7,289 	"/>
	<polygon class="st1" points="172.6,317.3 239.4,300.5 244.6,312.1 170,334 	"/>
</g>
<g>
	<path class="st1" d="M511.7,111.4c0,0,0.3,34.6,30,53.8c29.8,19.2,76.8-11.1,76.8-11.1s-39.1-39.6-65.6-6c0,0,23.6-51.8-14.2-83.7
		C538.7,64.4,516.8,77.3,511.7,111.4z"/>
	<path class="st2" d="M535.2,155.4c-0.6,0-1.1-0.2-1.5-0.7c-0.4-0.4-38.7-43.3,1-80.9l1.1-1.1l1.3,0.8c1.1,0.7,26.9,16.8,14.9,63.9
		c-0.3,1.1-1.4,1.7-2.5,1.5c-1.1-0.3-1.7-1.4-1.5-2.5c9.8-38.3-6.9-54.7-11.8-58.5c-34.8,34.5-1.1,72.4,0.4,74
		c0.8,0.8,0.7,2.1-0.1,2.9C536.2,155.2,535.7,155.4,535.2,155.4z"/>
	<path class="st2" d="M579.5,166.8c-1.7,0-3.4-0.1-5.2-0.3c-1.1-0.1-1.9-1.2-1.8-2.3c0.1-1.1,1.1-1.9,2.3-1.8
		c14.7,1.9,25.1-5.8,28.7-8.9c-18.1-18-41.1-6.5-42.1-6s-2.2,0.1-2.7-0.9s-0.1-2.2,0.9-2.7c0.3-0.1,28-14,48.4,8.3l1.2,1.4L608,155
		C607.4,155.5,596.9,166.8,579.5,166.8z"/>
	<path d="M487.6,120.5l41.1-2.6l3.9,24.4c0,0,102.9,61.7,73.3,173.6S491.5,440.7,491.5,440.7l-9,21.9l-30.9-3.9l-10.3-27
		c0,0-74.6-41.1-65.6-129.9c9-88.7,63-136.3,102.9-158.2L487.6,120.5z"/>
	<path class="st2" d="M476.9,456.7h-3.5l-17-2.6l-7.9-28.8c-8.1-5.7-88.7-65.3-55.5-161.4c32.5-93.8,85.5-109.7,94.3-111.7
		l10.3-27.1l16.9-1.5l10.6,23.9c8.7,5.3,109.4,68.9,67.2,173.2c-40.4,99.8-95.5,111.6-105.6,113
		C481.9,456.7,478.2,456.7,476.9,456.7z M459.6,450.5l14.1,2.2h2.8c1.7-1.8,4.7-12.3,6.6-21.3l0.3-1.5l1.6-0.1
		c0.6,0,61-5.2,103.7-110.6c42.5-105.1-64.9-167.9-66-168.5l-0.6-0.3l-10-22.4l-11.4,1l-10.2,26.9l-1.1,0.2
		c-0.6,0.1-58.4,11.4-92.3,109.3c-33.8,97.6,53.6,156.5,54.5,157.1l0.6,0.4L459.6,450.5z M476.9,452.6L476.9,452.6L476.9,452.6z"/>
	<path class="st1" d="M325,323.2c0,0,18.2,33,33.3,40.3c15.1,7.3,219.6,68.2,219.6,68.2l2.2-9.2c0,0-185-98.1-196-100.6
		c-11.1-2.4-54.2-6.7-54.2-6.7L325,323.2z"/>
	<path d="M332.5,312.9c-8,25.4-46.9,35.1-70.6-9.2c-15.7-29.5-2-73.1-2-73.1s15.3,28.4,37.8,39.6
		C320.1,281.5,339.2,291.6,332.5,312.9z"/>
	<polygon points="343.1,305.2 324,337.8 342.8,354.4 365.2,315.1 	"/>
	<path class="st1" d="M456.2,513.5h-40.4l0.3-2.3c0.1-0.5,1.6-12.2,10-16.1c5.4-2.5,12.3-1.1,20.3,4.3c0.9,0.6,1.2,1.9,0.6,2.8
		s-1.9,1.2-2.8,0.6c-6.8-4.5-12.2-5.8-16.3-4c-4.4,2-6.4,7.5-7.2,10.6h32.7c7.9-25-13.7-76.5-14-77c-0.4-1,0-2.2,1.1-2.7
		c1-0.4,2.2,0,2.7,1.1c1,2.2,23.3,55.4,13.6,81.3L456.2,513.5z"/>
	<path class="st1" d="M516.7,513.9h-37.9l-0.4-1.5c-9.5-33.8,10.5-71.1,11.3-72.7c0.5-1,1.8-1.3,2.8-0.8s1.3,1.8,0.8,2.8
		c-0.2,0.4-19.5,36.3-11.4,68.1h30.5c-0.5-2.9-1.9-8.2-5.9-10.4c-4-2.2-9.8-1.2-17.4,3.1c-1,0.6-2.2,0.2-2.8-0.8
		c-0.6-1-0.2-2.2,0.8-2.8c8.9-5,16.1-6.1,21.4-3.1c7.8,4.3,8.2,15.4,8.2,15.9V513.9z"/>
	<path class="st1" d="M372.4,396c-13.9,0-30.2-2.6-38.6-13.1c-8-10-7.4-25.1,1.7-45c0.5-1,1.7-1.5,2.7-1s1.5,1.7,1,2.7
		c-8.4,18.4-9.1,32.1-2.2,40.7c14.6,18.3,58.7,9.4,59.2,9.3c1.1-0.3,2.2,0.5,2.4,1.6c0.2,1.1-0.5,2.2-1.6,2.4
		C396.1,393.8,385.2,396,372.4,396z"/>
	<path class="st1" d="M338.3,356.3c-0.2,0-0.5,0-0.7-0.1c-1-0.4-1.6-1.6-1.2-2.6l4.7-12.3c0.4-1,1.6-1.6,2.6-1.2s1.6,1.6,1.2,2.6
		l-4.7,12.3C339.9,355.8,339.1,356.3,338.3,356.3z"/>
	<path class="st1" d="M327.3,351.1c-0.2,0-0.4,0-0.6-0.1c-1.1-0.3-1.7-1.5-1.4-2.5l4-13.4c0.3-1.1,1.4-1.7,2.5-1.4
		c1.1,0.3,1.7,1.5,1.4,2.5l-4,13.4C329,350.5,328.2,351.1,327.3,351.1z"/>
	<path class="st1" d="M560.9,417c-1.1,0-2-0.9-2-1.9c0-1.1,0.8-2.1,1.9-2.1c17.9-0.8,28.5-4.9,31.5-12.2
		c4.7-11.5-10.5-27.9-10.6-28.1c-0.8-0.8-0.7-2.1,0.1-2.9s2.1-0.7,2.9,0.1c0.7,0.7,17.1,18.5,11.4,32.4
		C592.4,411.2,580.6,416.2,560.9,417C561,417,560.9,417,560.9,417z"/>
	<path class="st3" d="M560.3,206.9c3.5-7.7,28.9,19.3,29.5,48.8s-9.1,51.6-15.3,51.1s9.1-25,5.7-46.5
		C576.7,238.7,554.6,219.4,560.3,206.9z"/>
	<path class="st3" d="M558,193.8c0,0,0.6,7.4-5.7,5.1c-6.2-2.3-9.6-13.1-4.5-13.1S558,193.8,558,193.8z"/>
	<g>
		<path class="st2" d="M445,289.2c-2.4,0-5.1-1-7.9-3.1c-0.9-0.7-1.1-1.9-0.4-2.8s1.9-1.1,2.8-0.4c2.9,2.2,5.3,2.8,7.3,1.9
			c5.5-2.7,8.1-17.5,8.4-26.3c0-1.1,1.1-1.9,2.1-2c1.1,0,2,1,2,2.1c-0.1,2.6-1.1,25.2-10.7,29.8C447.4,288.9,446.2,289.2,445,289.2z
			"/>
		<path class="st2" d="M485.8,286.9c-0.7,0-1.3-0.3-1.7-0.9c-1.7-2.7-7.6-10.5-12.3-10.2c-1.9,0.1-3.7,1.7-5.1,4.8
			c-0.5,1-1.7,1.4-2.7,1c-1-0.5-1.4-1.7-1-2.7c2.2-4.5,5.1-6.9,8.6-7.2c7.8-0.5,15.2,10.8,16,12.1c0.6,0.9,0.3,2.2-0.6,2.8
			C486.5,286.8,486.2,286.9,485.8,286.9z"/>
		<path class="st2" d="M442.8,265.3c-0.6,0-1.2-0.2-1.6-0.7c-1.7-2.1-7.2-7.4-11.4-6.9c-1.8,0.2-3.3,1.5-4.5,4
			c-0.5,1-1.7,1.4-2.7,0.9s-1.4-1.7-0.9-2.7c1.9-3.7,4.4-5.8,7.7-6.2c7.1-0.9,14.2,7.3,15,8.3c0.7,0.9,0.6,2.1-0.3,2.9
			C443.7,265.1,443.3,265.3,442.8,265.3z"/>
		<path class="st1" d="M507,310.5c-0.6,0-1.1-0.1-1.6-0.3c-2-0.7-2.7-2.5-3.5-4.2c-0.3-0.6-0.5-1.3-0.9-2c-1.1-2.1-0.8-4.3,0.8-6.1
			c0.5-0.6,1.2-1.2,2-1.6c-0.3-0.6-0.4-1.3,0-2c0.3-0.5,1.1-1.7,3.4-1.3c1.2,0.2,2.8,0.8,4.5,1.8c0.3,0.1,0.7,0.2,1,0.3
			c1.7,0.6,2.3,1.7,2.6,2.5c1.2,1.3,2.2,2.8,2.4,4.3c0.2,1.4,0.1,4.2-3.7,6.2C510.9,309.7,508.7,310.5,507,310.5z M513.6,302.8
			c-0.4,0.5-0.8,1-1.2,1.5C513.4,303.7,513.6,303.2,513.6,302.8z M509.6,298.6c0.2,0.6,0.3,1.3,0.5,2.1c0.4-0.5,0.8-1,1-1.4
			c-0.4-0.3-0.7-0.5-1.1-0.8C509.9,298.6,509.8,298.6,509.6,298.6z"/>
		<path class="st1" d="M398,269.2c-0.6,0-1.1-0.1-1.6-0.3c-2-0.7-2.7-2.5-3.5-4.2c-0.3-0.6-0.5-1.3-0.9-2c-1.1-2.1-0.8-4.3,0.8-6.1
			c0.5-0.6,1.2-1.2,2-1.7c-0.3-0.6-0.4-1.3,0-2c0.3-0.5,1.2-1.7,3.4-1.3c1.2,0.2,2.8,0.8,4.5,1.8c0.3,0.1,0.7,0.2,1,0.3
			c1.7,0.6,2.3,1.7,2.6,2.5c1.2,1.3,2.2,2.8,2.4,4.3c0.2,1.4,0.1,4.2-3.7,6.2C401.9,268.4,399.7,269.2,398,269.2z M404.6,261.5
			c-0.4,0.5-0.8,1-1.2,1.5C404.3,262.4,404.6,261.9,404.6,261.5z M400.6,257.3c0.2,0.6,0.3,1.3,0.5,2.1c0.4-0.5,0.8-1,1-1.4
			c-0.4-0.3-0.7-0.5-1.1-0.8C400.8,257.3,400.7,257.3,400.6,257.3z"/>
		<path class="st2" d="M460.4,322.3c-24,0-47-16.9-47.3-17.1c-0.9-0.6-1-1.9-0.4-2.7c0.6-0.9,1.9-1,2.7-0.4
			c0.4,0.3,43.5,31.9,71,6.5c0.8-0.7,2-0.7,2.7,0.1c0.7,0.8,0.7,2-0.1,2.7C480.3,319.5,470.3,322.3,460.4,322.3z"/>
		<path class="st2" d="M490.5,324c-0.2,0-0.3,0-0.5-0.1c-1-0.3-1.7-1.3-1.4-2.3c3-12.1-6.7-15.2-7.1-15.3c-1-0.3-1.6-1.4-1.3-2.4
			c0.3-1,1.4-1.6,2.4-1.3c0.1,0,13.7,4.2,9.8,20C492.2,323.4,491.4,324,490.5,324z"/>
	</g>
	<path class="st1" d="M259.3,219.6c0,0-15.1,34.1-9.2,54.7s15.4-0.3,15.4-0.3s7.3,21.3,16.2,14.6c8.9-6.7-6.4-20.7-6.4-20.7
		s7.3,8,10.5,2.2s-0.2-12.3-0.2-12.3S266.5,251.5,259.3,219.6z"/>
</g>
</svg>
