<?xml version="1.0" encoding="utf-8"?>
<!-- Generator: Adobe Illustrator 27.1.1, SVG Export Plug-In . SVG Version: 6.00 Build 0)  -->
<svg version="1.1" id="Calque_1" xmlns="http://www.w3.org/2000/svg" xmlns:xlink="http://www.w3.org/1999/xlink" x="0px" y="0px"
	 viewBox="0 0 720 530" style="enable-background:new 0 0 720 530;" xml:space="preserve">
<style type="text/css">
	.st0{fill:#EDEDED;}
	.st1{fill:#C6C6C5;}
	.st2{fill:#FFFFFF;}
	.st3{fill:#5E5EF7;}
	.st4{fill:#575756;}
	.st5{fill:#ECECEC;}
	.st6{fill:#57DBE9;}
</style>
<path class="st0" d="M293.3,365.7c-50.5,23.2-107.9,90.2-184.4,76.5s-112-196.7,76.5-245.9c0,0,23.2-142.1,148.9-144.8
	C460,48.8,532.4,193.6,532.4,193.6S700.4,245.5,669,363C621.1,542.1,293.3,365.7,293.3,365.7z"/>
<g>
	<polygon class="st1" points="376.1,101.9 366.6,131.5 601.9,135.1 600.1,104.7 	"/>
	<polygon class="st1" points="379.2,146.9 377.4,167.6 559.9,171.1 559,147.8 	"/>
	<polygon class="st1" points="377.4,181.9 559.9,183.6 559,207.8 374.9,200.9 	"/>
	<polygon class="st1" points="374.9,216.7 374.9,234.8 556.4,237.4 556.4,221 	"/>
	<path class="st1" d="M593.9,175.3l-7.7-3.8c-0.4-0.2-0.9-0.2-1.3,0l-7.5,4.2c-1,0.6-2.2-0.3-2.1-1.4l1.2-8.5
		c0.1-0.5-0.1-0.9-0.4-1.2l-6.3-5.8c-0.9-0.8-0.4-2.2,0.7-2.4l8.4-1.4c0.5-0.1,0.8-0.4,1-0.8l3.6-7.8c0.5-1.1,2-1.1,2.5-0.1l4,7.6
		c0.2,0.4,0.6,0.7,1.1,0.7l8.5,1c1.2,0.1,1.6,1.5,0.8,2.4l-6,6.1c-0.3,0.3-0.5,0.8-0.4,1.2l1.7,8.4
		C596.1,174.9,594.9,175.8,593.9,175.3z"/>
	<path class="st1" d="M593.9,208.9l-7.7-3.8c-0.4-0.2-0.9-0.2-1.3,0l-7.5,4.2c-1,0.6-2.2-0.3-2.1-1.4l1.2-8.5
		c0.1-0.5-0.1-0.9-0.4-1.2l-6.3-5.8c-0.9-0.8-0.4-2.2,0.7-2.4l8.4-1.4c0.5-0.1,0.8-0.4,1-0.8l3.6-7.8c0.5-1.1,2-1.1,2.5-0.1l4,7.6
		c0.2,0.4,0.6,0.7,1.1,0.7l8.5,1c1.2,0.1,1.6,1.5,0.8,2.4l-6,6.1c-0.3,0.3-0.5,0.8-0.4,1.2l1.7,8.4
		C596.1,208.5,594.9,209.4,593.9,208.9z"/>
	<path class="st1" d="M593.9,243.7l-7.7-3.8c-0.4-0.2-0.9-0.2-1.3,0l-7.5,4.2c-1,0.6-2.2-0.3-2.1-1.4l1.2-8.5
		c0.1-0.5-0.1-0.9-0.4-1.2l-6.3-5.8c-0.9-0.8-0.4-2.2,0.7-2.4l8.4-1.4c0.5-0.1,0.8-0.4,1-0.8l3.6-7.8c0.5-1.1,2-1.1,2.5-0.1l4,7.6
		c0.2,0.4,0.6,0.7,1.1,0.7l8.5,1c1.2,0.1,1.6,1.5,0.8,2.4l-6,6.1c-0.3,0.3-0.5,0.8-0.4,1.2l1.7,8.4
		C596.1,243.3,594.9,244.2,593.9,243.7z"/>
	<polygon class="st1" points="366.6,251.6 370.9,322.2 439.9,323.1 445,249 	"/>
	<polygon class="st1" points="457.6,248.1 450.7,323.1 598,321.4 601.5,253.3 	"/>
</g>
<path d="M249.7,418.5c0,0-120.6-6.9-146.3-136.4s64.2-167,64.2-167l-1-18.8l46.5-2L219,116c0,0,184.8,52.4,105.8,271.8l-10.9,44.5
	l-69.2,4.9L249.7,418.5z"/>
<path class="st2" d="M278,426.7c-8.4,0-14.9-12.8-16.9-17.1c-12.8-1.2-114.1-14.6-143-118c-28.5-102.2,50.5-156,62.7-163.6
	c-2.6-7.9-2.5-13.3,0.4-16.3c2.8-2.9,7-2.3,8.9-1.9c2.3-1.1,8.7-3.7,12.6-2.8c4.2,1,14.1,12.9,17.6,17.1
	c7.5,3.3,93.4,42.2,111.5,126.9c14.2,66.6-2.6,106.2-11.6,127.4c-2.9,6.7-5.1,12.1-5.1,15.4c0,15.6-9.2,24-9.6,24.3l-0.6,0.5h-13.3
	c-1.3,2.2-4.5,6.2-11.8,7.9C279.2,426.7,278.6,426.7,278,426.7z M187.2,113.8c-1,0-2.1,0.2-2.8,0.9c-0.8,0.9-2.4,3.9,1.1,13.4
	l0.6,1.7l-1.6,0.9c-0.9,0.5-92,52.9-62.2,159.6c29.9,106.9,139.3,115,140.4,115.1l1.3,0.1l0.5,1.2c1.9,4.4,8.5,16.8,14.3,15.5
	c7.5-1.7,9.2-6.3,9.3-6.5l0.5-1.4h1.5H303c1.8-2,7.6-9.1,7.6-20.6c0-4.2,2.3-9.6,5.5-17c8.8-20.8,25.3-59.6,11.4-124.8
	C309.2,166,219,128.3,218.1,127.9l-0.5-0.2l-0.3-0.4c-6-7.3-13.7-15.5-15.7-16.1c-2.2-0.5-7.4,1.3-10.4,2.8l-0.8,0.4l-0.8-0.3
	C189.7,114.1,188.5,113.8,187.2,113.8z"/>
<path class="st2" d="M273.5,261.5c-1.3,0-2.6-0.3-3.8-0.9c-10.2-4.9-11.3-28.9-11.4-31.7c0-1.2,0.9-2.2,2.1-2.2
	c1.1,0,2.2,0.9,2.2,2.1c0.3,9.3,3,25.1,8.9,27.9c2.1,1,4.6,0.3,7.7-2c0.9-0.7,2.3-0.5,3,0.4c0.7,1,0.5,2.3-0.4,3
	C278.9,260.4,276.1,261.5,273.5,261.5z"/>
<path class="st2" d="M230.1,259.1c-0.4,0-0.8-0.1-1.2-0.3c-1-0.6-1.3-2-0.7-3c0.8-1.3,8.3-12.8,16.5-12.8c0.2,0,0.3,0,0.5,0
	c3.7,0.2,6.8,2.8,9.1,7.6c0.5,1.1,0.1,2.4-1,2.9s-2.4,0.1-2.9-1c-1.6-3.3-3.4-5-5.5-5.2c-0.1,0-0.2,0-0.3,0c-4.9,0-11,8-12.8,10.8
	C231.5,258.8,230.8,259.1,230.1,259.1z"/>
<path class="st2" d="M275.8,236.1c-0.5,0-1-0.2-1.4-0.5c-0.9-0.8-1-2.1-0.3-3c0.8-1,8.3-9.7,15.9-8.8c3.4,0.4,6.2,2.6,8.1,6.6
	c0.5,1.1,0.1,2.4-1,2.9s-2.4,0.1-2.9-1c-1.3-2.6-2.9-4-4.8-4.2c-4.4-0.5-10.3,5.1-12.1,7.3C277,235.9,276.4,236.1,275.8,236.1z"/>
<path class="st3" d="M207.5,284.1c-1.8,0-4.1-0.8-7.3-2.5c-4-2.1-4.2-5-3.9-6.6s1.3-3.2,2.6-4.6c0.3-0.8,0.9-2,2.7-2.7
	c0.3-0.1,0.7-0.2,1.1-0.3c1.7-1,3.5-1.7,4.7-1.9c2.4-0.4,3.3,0.9,3.6,1.4c0.4,0.7,0.3,1.5,0,2.1c0.8,0.5,1.5,1.1,2.1,1.8
	c1.7,2,2,4.3,0.8,6.5c-0.4,0.7-0.7,1.4-1,2.1c-0.8,1.8-1.6,3.7-3.7,4.4C208.7,284,208.1,284.1,207.5,284.1z M200.5,276
	c0,0.4,0.3,0.9,1.3,1.6C201.4,277,200.9,276.5,200.5,276z M203.3,272.3c0.2,0.4,0.5,0.8,1,1.5c0.1-0.9,0.3-1.6,0.5-2.2
	c-0.1,0-0.3,0-0.5,0C203.9,271.8,203.6,272,203.3,272.3z"/>
<path class="st3" d="M323.4,240.2c-1.8,0-4.1-0.8-7.3-2.5c-4-2.1-4.2-5-3.9-6.6c0.3-1.6,1.3-3.2,2.6-4.6c0.3-0.8,0.9-2,2.7-2.7
	c0.3-0.1,0.7-0.2,1.1-0.3c1.7-1,3.5-1.7,4.7-1.9c2.3-0.4,3.3,0.9,3.6,1.4c0.4,0.7,0.3,1.5,0,2.1c0.8,0.5,1.5,1.1,2.1,1.8
	c1.7,2,2,4.3,0.8,6.5c-0.4,0.7-0.7,1.4-1,2.1c-0.8,1.8-1.6,3.7-3.7,4.4C324.5,240.1,324,240.2,323.4,240.2z M316.4,232.1
	c0,0.4,0.3,0.9,1.3,1.6C317.2,233.1,316.8,232.6,316.4,232.1z M319.1,228.4c0.2,0.4,0.5,0.8,1,1.5c0.1-0.9,0.3-1.6,0.5-2.2
	c-0.2,0-0.3,0-0.5,0C319.8,227.9,319.4,228.2,319.1,228.4z"/>
<path class="st3" d="M253,509.2h-31.2l25.8-91.3c0.3-1.1,1.5-1.8,2.7-1.5c1.1,0.3,1.8,1.5,1.5,2.7L227.6,505H249
	c-0.1-2.4-0.7-5.7-2.8-7.4c-1.9-1.5-4.9-1.6-9-0.2c-1.1,0.4-2.4-0.2-2.7-1.4c-0.4-1.1,0.2-2.4,1.4-2.7c5.5-1.9,9.9-1.5,13.1,1
	c5.2,4.2,4.4,12.8,4.3,13.1L253,509.2z"/>
<path class="st3" d="M301.2,508.3h-33.8l17-74.5c0.3-1.2,1.4-1.9,2.6-1.6s1.9,1.4,1.6,2.6L272.9,504h24.2c-0.1-1.9-0.7-4.9-2.9-6.7
	c-2.5-2.2-6.8-2.4-12.5-0.9c-1.2,0.3-2.3-0.4-2.7-1.5c-0.3-1.2,0.4-2.3,1.5-2.7c7.3-2,12.8-1.4,16.5,1.8c5.2,4.4,4.4,12.1,4.4,12.4
	L301.2,508.3z"/>
<path class="st4" d="M237.8,159.2c0,0,14.1,34.1,39.1,33.3c24.9-0.8-14.1-31.6-19.1-33.3C252.8,157.6,240.3,153.4,237.8,159.2z"/>
<g>
	<path class="st5" d="M602.5,477.8l-110.2,41.3l-106.1-41.3c-6.5-14.6,0.6-23.5,0.6-23.5l105,39.6l110.7-37.1"/>
	<path class="st3" d="M492.3,521.6l-0.9-0.3l-107-41.7l-0.4-0.9c-7-15.7,0.6-25.6,0.9-26l1.1-1.4l105.9,39.9l109.8-36.8
		c1.2-0.4,2.6,0.3,3,1.5c0.4,1.3-0.3,2.6-1.5,3l-111.5,37.4L491,496l-103.2-38.9c-1.4,2.8-3.6,9.3,0.2,18.7l104.3,40.6l109.3-41
		c1.2-0.5,2.6,0.2,3.1,1.4c0.5,1.2-0.2,2.6-1.4,3.1L492.3,521.6z"/>
	<polygon points="386.1,451.4 475.4,422 602.6,454.4 491.8,493.5 	"/>
	<path class="st1" d="M492.4,519.1l-106.1-41.3c-6.5-14.6,0.6-23.5,0.6-23.5l105,39.6"/>
	<path d="M492.3,521.6l-0.9-0.3l-107-41.7l-0.4-0.9c-7-15.7,0.6-25.6,0.9-26l1.1-1.4l105.9,39.9l109.8-36.8c1.2-0.4,2.6,0.3,3,1.5
		c0.4,1.3-0.3,2.6-1.5,3l-111.5,37.4L491,496l-103.2-38.9c-1.4,2.8-3.6,9.3,0.2,18.7l104.3,40.6l109.3-41c1.2-0.5,2.6,0.2,3.1,1.4
		c0.5,1.2-0.2,2.6-1.4,3.1L492.3,521.6z"/>
</g>
<g>
	<path class="st5" d="M599.8,444.5l-110.2,41.3l-106.1-41.3c-6.5-14.6,0.6-23.5,0.6-23.5l105,39.6l110.7-37.1"/>
	<path class="st3" d="M489.6,488.4l-0.9-0.3l-107-41.7l-0.4-0.9c-7-15.7,0.6-25.6,0.9-26l1.1-1.4L489.2,458L599,421.2
		c1.2-0.4,2.6,0.3,3,1.5c0.4,1.3-0.3,2.6-1.5,3L489,463.1l-104-39.2c-1.4,2.8-3.6,9.3,0.2,18.7l104.3,40.6l109.3-41
		c1.2-0.5,2.6,0.2,3.1,1.4c0.5,1.2-0.2,2.6-1.4,3.1L489.6,488.4z"/>
	<polygon class="st3" points="383.3,418.1 472.7,388.7 599.8,421.1 489.1,460.3 	"/>
	<path class="st1" d="M489.6,485.8l-106.1-41.3c-6.5-14.6,0.6-23.5,0.6-23.5l105,39.6"/>
	<path class="st3" d="M489.6,488.4l-0.9-0.3l-107-41.7l-0.4-0.9c-7-15.7,0.6-25.6,0.9-26l1.1-1.4L489.2,458L599,421.2
		c1.2-0.4,2.6,0.3,3,1.5c0.4,1.3-0.3,2.6-1.5,3L489,463.1l-104-39.2c-1.4,2.8-3.6,9.3,0.2,18.7l104.3,40.6l109.3-41
		c1.2-0.5,2.6,0.2,3.1,1.4c0.5,1.2-0.2,2.6-1.4,3.1L489.6,488.4z"/>
</g>
<g>
	<path d="M464.4,390.2c6,0.7,121.1,29.4,121.1,29.4l44.8-128.5l-146.5-16.7L464.4,390.2z"/>
	<g>
		<polygon class="st2" points="478.1,382.9 492.6,288.2 616.5,299.1 577.3,407.5 		"/>
		<path class="st3" d="M578.8,410.3l-103.4-25.6l15.2-99L619.8,297L578.8,410.3z M480.7,381.1l95.1,23.6l37.4-103.5l-118.6-10.5
			L480.7,381.1z"/>
	</g>
	<polygon class="st6" points="492.4,368.6 509.2,372.8 524.6,352.1 532.3,362.1 555.6,343.8 569.8,352.2 594.1,328 593,336.7 
		596.9,336.7 598.3,322 583.9,321 583.5,325 591.9,325.8 569.9,346.2 556.6,333.6 536.3,351.6 522.9,339.4 	"/>
	
		<rect x="508" y="348.8" transform="matrix(0.1798 -0.9837 0.9837 0.1798 50.6419 806.7166)" class="st6" width="2.2" height="48.3"/>
	
		<rect x="453.1" y="337.7" transform="matrix(0.1478 -0.989 0.989 0.1478 88.3327 780.0843)" class="st6" width="87.4" height="2.2"/>
	<polygon points="585.5,419.7 489.9,452.1 392.5,414.8 464.3,389.4 	"/>
</g>
<polygon class="st3" points="158.9,89.8 36.8,187.2 204.6,170.2 330.4,85.2 "/>
<path class="st3" d="M69.8,243c-1.2,0-2.2-1-2.2-2.2v-72.4c0-1.2,1-2.2,2.2-2.2s2.2,1,2.2,2.2v72.4C71.9,242,70.9,243,69.8,243z"/>
<path class="st3" d="M69.9,246.6c0,0-29.9,10.4-14.6,47.3C55.3,293.9,89.3,280,69.9,246.6z"/>
<path class="st2" d="M59.4,285c-0.7,0-1.4-0.3-1.8-0.9c-0.7-1-0.4-2.3,0.6-3c11.6-7.9,7-20.6,6.8-21.1c-0.4-1.1,0.1-2.4,1.3-2.8
	c1.1-0.4,2.4,0.1,2.8,1.2c0.1,0.2,6,16.3-8.4,26.2C60.3,284.8,59.9,285,59.4,285z"/>
<path class="st2" d="M71.7,174.1c-1.1,0-2-0.8-2.1-1.9c-0.1-1.2,0.7-2.3,1.9-2.4l127.3-14L289.5,95c1-0.7,2.3-0.4,3,0.6
	s0.4,2.3-0.6,3L200.3,160l-0.5,0.1L71.9,174C71.9,174.1,71.8,174.1,71.7,174.1z"/>
<path class="st3" d="M394.3,413.9c-108,0-194.5-84-195.4-84.9c-0.8-0.8-0.9-2.2,0-3.1c0.8-0.9,2.2-0.9,3.1,0
	c1.1,1,107.2,104.1,230.3,80c1.2-0.2,2.3,0.5,2.5,1.7s-0.5,2.3-1.7,2.5C419.9,412.8,406.9,413.9,394.3,413.9z"/>
<path class="st3" d="M455.8,399.3h-0.1c-97.2-5.5-119.8-49.9-120.7-51.8c-0.5-1.1-0.1-2.4,1-2.9s2.4-0.1,2.9,1
	c0.2,0.4,22.7,44,117,49.3c1.2,0.1,2.1,1.1,2,2.3C457.9,398.4,457,399.3,455.8,399.3z"/>
<path class="st2" d="M246.1,287.4c-8.3,0-15.5-1.6-20-5.9c-0.9-0.8-0.9-2.2-0.1-3.1c0.8-0.9,2.2-0.9,3.1-0.1
	c13.1,12.6,61.2-3.4,78.7-10.7c1.1-0.4,2.4,0.1,2.8,1.2c0.5,1.1-0.1,2.4-1.2,2.8C307.5,272.6,271.5,287.4,246.1,287.4z"/>
<path class="st2" d="M252,300c-12.7,0-21.2-7.1-21.6-7.4c-0.9-0.8-1-2.1-0.2-3.1c0.8-0.9,2.1-1,3.1-0.3c0.5,0.4,12.9,10.7,29.8,4.4
	c1.1-0.4,2.4,0.2,2.8,1.3c0.4,1.1-0.2,2.4-1.3,2.8C260,299.3,255.8,300,252,300z"/>
<path d="M210.6,69.4c-0.6,0-1.2-0.2-1.7-0.7c-0.9-0.9-0.9-2.4,0-3.3C242.7,31,284.6,13,333.4,11.9c0,0,0,0,0.1,0
	c1.3,0,2.3,1,2.4,2.3c0,1.3-1,2.4-2.3,2.4c-47.5,1-88.3,18.5-121.2,52C211.8,69.1,211.2,69.4,210.6,69.4z"/>
<path d="M426.4,37.3c-0.3,0-0.7-0.1-1-0.2c-22.9-11-46.9-17.7-71.1-19.7c-1.3-0.1-2.3-1.3-2.1-2.5c0.1-1.3,1.3-2.2,2.5-2.2
	c24.8,2.1,49.3,8.9,72.7,20.2c1.2,0.6,1.7,2,1.1,3.1C428.2,36.8,427.3,37.3,426.4,37.3z"/>
<path d="M626.5,468.5c-0.9,0-1.8-0.5-2.2-1.4c-0.5-1.2,0-2.6,1.2-3.1c23.3-10.1,42.2-25.5,56.2-45.8c9.2-13.4,16.3-28.9,20.9-46.1
	c24-89.5-41.8-148.3-83.2-175.3c-1.1-0.7-1.4-2.2-0.7-3.3s2.2-1.4,3.3-0.7c42.4,27.7,109.8,88,85.1,180.5
	c-4.7,17.7-12,33.7-21.5,47.6c-14.5,21.1-34.1,37-58.2,47.5C627.1,468.4,626.8,468.5,626.5,468.5z"/>
<path d="M102.3,481.2c-0.1,0-0.3,0-0.4,0c-52-9.3-91.7-63.6-94.2-129.2c-0.6-15.4,0.9-31,4.5-46.2c0.3-1.3,1.6-2.1,2.8-1.8
	c1.3,0.3,2.1,1.6,1.8,2.8c-3.5,14.8-4.9,29.9-4.3,45C15,415.2,53,467.6,102.9,476.5c1.3,0.2,2.1,1.5,1.9,2.7
	C104.4,480.4,103.4,481.2,102.3,481.2z"/>
<path d="M123.6,487.9c-1.3,0-2.6-0.3-3.9-0.9c-4.7-2.2-6.7-7.7-4.6-12.4c1-2.3,2.9-4,5.3-4.9c2.3-0.9,4.9-0.8,7.2,0.3
	c4.7,2.2,6.7,7.7,4.6,12.4l0,0C130.6,485.9,127.2,487.9,123.6,487.9z M123.7,473.9c-0.5,0-1.1,0.1-1.6,0.3c-1.2,0.4-2.1,1.3-2.6,2.4
	c-1.1,2.3-0.1,5.1,2.3,6.2c2.3,1.1,5.1,0.1,6.2-2.3c1.1-2.3,0.1-5.1-2.3-6.2C125,474,124.3,473.9,123.7,473.9z M130,481.5L130,481.5
	L130,481.5z"/>
<circle cx="146.2" cy="476.3" r="4"/>
<circle cx="438.7" cy="44.2" r="4"/>
<path class="st3" d="M617.6,70L617.6,70c0,9.7,7.8,17.5,17.5,17.5l0,0l0,0c-9.7,0-17.5,7.8-17.5,17.5l0,0l0,0
	c0-9.7-7.8-17.5-17.5-17.5l0,0l0,0C609.8,87.5,617.6,79.7,617.6,70L617.6,70z"/>
<circle cx="20.1" cy="292.9" r="4"/>
</svg>
