<?xml version="1.0" encoding="utf-8"?>
<!-- Generator: Adobe Illustrator 27.1.1, SVG Export Plug-In . SVG Version: 6.00 Build 0)  -->
<svg version="1.1" id="Calque_1" xmlns="http://www.w3.org/2000/svg" xmlns:xlink="http://www.w3.org/1999/xlink" x="0px" y="0px"
	 viewBox="0 0 720 549.2" style="enable-background:new 0 0 720 549.2;" xml:space="preserve">
<style type="text/css">
	.st0{fill:#EDEDED;}
	.st1{fill:#5E5EF7;}
	.st2{fill:#FFFFFF;}
	.st3{fill:#ECECEC;}
	.st4{fill:none;}
	.st5{fill:#575756;}
</style>
<g>
	<path class="st0" d="M209.1,358.6c0,0-77.5,41.7-123.7-6S25.9,170.9,103.3,156c77.5-14.9,178.8-1.5,178.8-1.5s-1.5-67,49.2-70
		s87.9,61.1,87.9,61.1s84.9-93.9,155-90.9c70,3,138.6,163.9,52.1,223.5s38.7,113.2,11.9,180.3s-104.3,119.2-222,0
		S209.1,358.6,209.1,358.6z"/>
	<path d="M671.7,474.1c-0.3,0-0.6-0.1-0.8-0.2c-1.2-0.5-1.7-1.8-1.3-2.9c17.8-44.5-5.8-82.6-23.1-110.4c-21.7-35-24-38.7-1-54.6
		c48.9-33.7,66.9-97.3,47.1-166.1c-0.3-1.2,0.3-2.4,1.5-2.8c1.2-0.4,2.4,0.3,2.8,1.5c20.4,70.6,1.6,136.2-48.9,171
		c-19.5,13.4-19.5,13.4,2.3,48.5c17.8,28.6,42.1,67.9,23.5,114.5C673.5,473.5,672.6,474.1,671.7,474.1z M59.5,380
		c-0.6,0-1.2-0.2-1.6-0.7C16.4,336.5-1.9,252.6,17.1,192.4c12.8-40.4,40.8-66.8,79-74.1c1.2-0.2,2.4,0.6,2.6,1.8
		c0.2,1.2-0.6,2.4-1.8,2.6c-36.5,7-63.3,32.2-75.5,71c-18.6,58.8-0.7,140.6,39.7,182.4c0.9,0.9,0.8,2.3-0.1,3.2
		C60.7,379.8,60.1,380,59.5,380z M422.9,93.7c-0.6,0-1.2-0.2-1.6-0.7c-19.7-20.6-51.7-44.7-91.9-42.3c-1.3,0-2.3-0.9-2.4-2.1
		c-0.1-1.2,0.9-2.3,2.1-2.4c42-2.5,75.1,22.4,95.5,43.7c0.9,0.9,0.8,2.3-0.1,3.2C424,93.5,423.5,93.7,422.9,93.7z M264.3,88.8
		c-0.4,0-0.8-0.1-1.2-0.4c-1-0.7-1.4-2.1-0.7-3.1c9.7-15.1,22.6-26.1,38.2-32.7c1.2-0.5,2.5,0.1,3,1.2c0.5,1.1-0.1,2.5-1.2,3
		c-14.8,6.2-27,16.6-36.2,31C265.8,88.4,265.1,88.8,264.3,88.8z"/>
	<path d="M81.7,399.6c-4.9,0-9-4-9-9c0-4.9,4-9,9-9s9,4,9,9S86.7,399.6,81.7,399.6z M81.7,386.2c-2.5,0-4.4,2-4.4,4.4
		c0,2.5,2,4.4,4.4,4.4c2.5,0,4.4-2,4.4-4.4C86.2,388.2,84.2,386.2,81.7,386.2z"/>
	<path class="st1" d="M311.2,10.3L311.2,10.3c0,9.2,7.5,16.7,16.7,16.7l0,0l0,0c-9.2,0-16.7,7.5-16.7,16.7l0,0l0,0
		c0-9.2-7.5-16.7-16.7-16.7l0,0l0,0C303.7,27.1,311.2,19.6,311.2,10.3L311.2,10.3z"/>
	<circle cx="103.6" cy="403.8" r="3.9"/>
</g>
<g>
	<polygon points="418.7,69.7 373,481.8 587.9,498.5 613.5,109.8 	"/>
	<g>
		<polygon class="st2" points="429.8,93.1 598,119.9 576.8,456.2 399.7,446.1 		"/>
		<path class="st1" d="M578.9,458.5l-181.6-10.3l30.5-357.7l172.6,27.4L578.9,458.5z M402.2,444l172.5,9.8l20.9-332l-163.7-26
			L402.2,444z"/>
	</g>
	<rect x="524.6" y="144.9" class="st3" width="22.4" height="203.2"/>
	<g>
		<path class="st1" d="M450.9,247.5v-59.3c0-10.3,8.3-18.6,18.6-18.6h64.8v161.3h-64.8c-10.3,0-18.6-8.3-18.6-18.6v-24.6l18.3-0.2
			l-0.6-41.7L450.9,247.5z"/>
		<path class="st1" d="M537.3,333.9h-67.7c-11.9,0-21.6-9.7-21.6-21.6v-27.5l18.3-0.2l-0.5-35.5l-17.8,1.7v-62.5
			c0-11.9,9.7-21.6,21.6-21.6h67.7V333.9z M453.9,290.6v21.7c0,8.7,7,15.7,15.7,15.7h61.9V172.5h-61.9c-8.7,0-15.7,7-15.7,15.7v56
			l17.7-1.7l0.7,47.8L453.9,290.6z"/>
	</g>
	<rect x="425.5" y="409.2" class="st3" width="136.6" height="15"/>
	<g>
		<path class="st2" d="M550,415.3c0,0-44.4,21.8-47.9,60.1s-30.5,48.8-54.9,48.8s-81.9,0-81.9,0s34.9-14.8,40.1-32.2
			c5.2-17.4,2.6-47.1,29.6-76.7"/>
		<path d="M447.2,525.3h-86.8l4.5-1.9c0.3-0.1,34.5-14.8,39.5-31.6c1.3-4.3,2.1-9.2,3-14.9c2.7-16.7,6.4-39.7,26.9-62.1l1.5,1.3
			c-20.1,22-23.6,43.7-26.4,61.1c-0.9,5.8-1.7,10.8-3.1,15.2c-4.3,14.2-27,26.4-36.5,31h77.4c18.5,0,50.1-6.2,53.9-47.9
			c3.5-38.5,48-60.7,48.5-60.9l0.9,1.8c-0.4,0.2-44,22-47.4,59.3C499.1,518.8,466.4,525.3,447.2,525.3z"/>
	</g>
	<path class="st1" d="M363.6,527.3c0,0-18.3-1.7-9.6-34h87.2c0,0-7.5,31.9,15.2,31.9L363.6,527.3z"/>
	<g>
		<path class="st2" d="M436.1,429.5c2.1,0,72.9,0.4,72.9,0.4"/>
		<path d="M509,430.8c-0.7,0-70.8-0.4-72.9-0.4v-2c2.1,0,72.2,0.4,72.9,0.4V430.8z"/>
	</g>
	<g>
		<line class="st4" x1="433.6" y1="438.8" x2="497.6" y2="442"/>
		<rect x="464.5" y="408.4" transform="matrix(5.022100e-02 -0.9987 0.9987 5.022100e-02 2.3225 883.2093)" width="2" height="64"/>
	</g>
	<g>
		<line class="st4" x1="491.9" y1="454.1" x2="431.8" y2="451.3"/>
		
			<rect x="460.8" y="422.6" transform="matrix(4.756211e-02 -0.9989 0.9989 4.756211e-02 -12.2475 892.4108)" width="2" height="60.1"/>
	</g>
	<g>
		<line class="st4" x1="424.7" y1="462" x2="486.2" y2="465.2"/>
		
			<rect x="454.4" y="432.9" transform="matrix(5.225895e-02 -0.9986 0.9986 5.225895e-02 -31.4154 894.1454)" width="2" height="61.5"/>
	</g>
	<g>
		<path d="M495.5,234.3c-6.7,0-12.4-2.8-16.7-6.9c-9.4-8.9-13.2-25.6-3-37.2c5.6-6.3,11.9-9.6,18.8-9.9c11.5-0.5,20.2,7.8,20.5,8.1
			c0.9,0.9,0.9,2.3,0.1,3.2c-0.9,0.9-2.3,0.9-3.2,0.1c-0.1-0.1-7.8-7.3-17.3-6.9c-5.6,0.2-10.8,3.1-15.5,8.4
			c-8.4,9.5-5.1,23.4,2.8,30.9c9.3,8.8,21.9,7.2,33.6-4.3c0.9-0.9,2.3-0.9,3.2,0s0.9,2.3,0,3.2C510.4,231.2,502.5,234.3,495.5,234.3
			z"/>
		<path d="M460.3,211.5c-0.6,0-1.2-0.2-1.6-0.7c-0.9-0.9-0.9-2.3,0-3.2c7.5-7.3,37.2-6.7,40.6-6.6c1.2,0,2.2,1.1,2.2,2.3
			s-1.1,2.2-2.3,2.2c-12-0.3-32.7,0.8-37.3,5.3C461.4,211.2,460.8,211.5,460.3,211.5z"/>
		<path d="M463.6,219.2c-1.1,0-2.1-0.9-2.2-2c-0.1-1.2,0.8-2.3,2-2.5c5.4-0.5,32.3-3,37.8-0.6c1.1,0.5,1.6,1.9,1.1,3s-1.8,1.6-3,1.1
			c-3.2-1.4-22.7-0.3-35.5,1C463.7,219.2,463.6,219.2,463.6,219.2z"/>
	</g>
</g>
<g>
	<path class="st1" d="M148.6,141.5c0,0,23.6,26.1,59.2,20.5s50.7-60.4,50.7-60.4S202,98,204.7,141.4c0,0-17.2-55.3-67.4-53.8
		C137.2,87.6,129.3,112.1,148.6,141.5z"/>
	<path class="st2" d="M194.6,159.4c-0.6-0.1-58.6-6.7-53.9-62l0.1-1.6l1.5-0.3c1.3-0.2,31.8-5.5,54.5,38.4l-3.7,1.9
		c-18.7-36-42.2-36.9-48.5-36.4c-3.1,49.7,48.2,55.7,50.4,55.9L194.6,159.4z"/>
	<path class="st2" d="M233.3,140.9l-2.3-3.4c12.5-8.5,15.1-21.4,15.7-26.2c-25.8-1.4-35.6,22.9-36,23.9l-3.9-1.5
		c0.1-0.3,11.7-29.6,42.3-26.4l1.9,0.2v1.9C250.9,110.2,250.6,129,233.3,140.9z"/>
	<path d="M269,443.8c0,0-115.4-6.6-140-130.5s61.5-159.8,61.5-159.8l-0.9-18l44.4-1.9l5.7,20.8c0,0,176.9,50.1,101.2,260.1
		l-10.4,42.6l-66.2,4.7L269,443.8z"/>
	<path class="st2" d="M296,451.7c-8,0-14.3-12.2-16.2-16.3c-12.3-1.2-109.1-14-136.8-113c-27.3-97.8,48.3-149.3,60-156.6
		c-2.5-7.6-2.4-12.7,0.4-15.6c2.7-2.7,6.7-2.2,8.5-1.8c2.2-1,8.3-3.6,12.1-2.6c4,1,13.5,12.3,16.9,16.4
		c7.2,3.1,89.4,40.4,106.7,121.4c13.6,63.7-2.5,101.6-11.1,121.9c-2.7,6.5-4.9,11.6-4.9,14.7c0,14.9-8.8,23-9.2,23.3l-0.6,0.5H309
		c-1.2,2.1-4.3,6-11.2,7.5C297.2,451.6,296.6,451.7,296,451.7z M209.1,152.2c-1,0-2,0.2-2.7,0.9c-0.8,0.8-2.3,3.7,1.1,12.9l0.6,1.7
		l-1.5,0.9c-0.9,0.5-88.1,50.6-59.5,152.7c28.6,102.4,133.3,110,134.3,110.1l1.3,0.1l0.5,1.2c1.8,4.2,8.1,16.1,13.7,14.9
		c7.1-1.6,8.8-6,8.9-6.2l0.5-1.4h1.5h12.4c1.8-1.9,7.3-8.7,7.3-19.7c0-4,2.2-9.2,5.2-16.3c8.5-19.9,24.2-57,10.9-119.4
		C326,202.3,239.7,166.1,238.9,165.8l-0.5-0.2l-0.3-0.4c-5.7-7-13.1-14.9-15-15.4c-2.1-0.5-7.1,1.3-9.9,2.7l-0.8,0.4l-0.8-0.3
		C211.5,152.6,210.4,152.2,209.1,152.2z"/>
	<path class="st2" d="M291.7,293.6c-1.3,0-2.5-0.3-3.7-0.8c-9.7-4.7-10.8-27.7-10.9-30.3c0-1.1,0.9-2.1,2-2.1c1,0,2.1,0.9,2.1,2
		c0.3,8.9,2.9,24,8.5,26.7c2,1,4.4,0.3,7.4-1.9c0.9-0.7,2.2-0.5,2.9,0.4c0.7,0.9,0.5,2.2-0.4,2.9
		C296.9,292.6,294.2,293.6,291.7,293.6z"/>
	<path class="st2" d="M250.2,291.3c-0.4,0-0.8-0.1-1.1-0.3c-1-0.6-1.3-1.9-0.6-2.9c0.8-1.3,8.2-12.7,16.3-12.3
		c3.6,0.2,6.5,2.7,8.7,7.3c0.5,1,0.1,2.3-1,2.8c-1,0.5-2.3,0.1-2.8-1c-1.5-3.2-3.3-4.8-5.2-4.9c-4.7-0.2-10.8,7.6-12.5,10.4
		C251.6,291,250.9,291.3,250.2,291.3z"/>
	<path class="st2" d="M293.9,269.3c-0.5,0-0.9-0.2-1.3-0.5c-0.9-0.7-1-2-0.3-2.9c0.8-1,8-9.3,15.2-8.4c3.3,0.4,5.9,2.5,7.8,6.3
		c0.5,1,0.1,2.3-0.9,2.8s-2.3,0.1-2.8-0.9c-1.2-2.5-2.7-3.8-4.6-4c-4.3-0.5-9.8,4.9-11.6,7C295.1,269.1,294.5,269.3,293.9,269.3z"/>
	<path class="st1" d="M228.6,315.2c-1.7,0-3.9-0.8-7-2.4c-3.8-2.1-4-4.8-3.7-6.3c0.3-1.6,1.2-3.1,2.5-4.4c0.2-0.8,0.9-1.9,2.6-2.5
		c0.3-0.1,0.7-0.2,1-0.3c1.7-1,3.3-1.7,4.5-1.9c2.3-0.4,3.1,0.8,3.4,1.3c0.3,0.7,0.3,1.4,0,2c0.8,0.5,1.5,1,2,1.7
		c1.6,1.9,1.9,4.2,0.8,6.2c-0.4,0.7-0.7,1.4-0.9,2c-0.7,1.7-1.5,3.5-3.5,4.3C229.7,315.1,229.2,315.2,228.6,315.2z M221.9,307.4
		c0,0.4,0.2,0.9,1.2,1.5C222.7,308.4,222.3,307.9,221.9,307.4z M224.5,303.9c0.2,0.3,0.5,0.8,1,1.4c0.1-0.8,0.3-1.5,0.4-2.1
		c-0.2,0-0.3,0-0.5,0C225.2,303.5,224.8,303.7,224.5,303.9z"/>
	<path class="st2" d="M290,341.3c-0.4,0-0.9,0-1.3,0c-21-1-35.5-24.8-36.1-25.8l-1.7-2.8l3.3-0.3c38.7-3.5,65.8-23.2,66.1-23.4
		c0.9-0.7,2.2-0.5,2.9,0.4c0.7,0.9,0.5,2.2-0.4,2.9c-1.1,0.8-26.8,19.5-64.7,23.8c4.4,6.1,16.1,20.3,30.9,21
		c10.6,0.5,20.9-6,30.6-19.3c0.7-0.9,2-1.1,2.9-0.4s1.1,2,0.4,2.9C312.6,334.2,301.5,341.3,290,341.3z"/>
	<path class="st1" d="M339.4,273.3c-1.7,0-3.9-0.8-7-2.4c-3.8-2-4-4.8-3.7-6.3c0.3-1.6,1.2-3.1,2.5-4.4c0.2-0.8,0.9-1.9,2.6-2.5
		c0.3-0.1,0.7-0.2,1-0.3c1.7-1,3.3-1.7,4.5-1.9c2.2-0.4,3.1,0.8,3.4,1.3c0.4,0.7,0.3,1.4,0,2c0.8,0.5,1.5,1,2,1.7
		c1.6,1.9,1.9,4.2,0.8,6.2c-0.4,0.7-0.7,1.4-0.9,2c-0.7,1.7-1.5,3.5-3.5,4.3C340.6,273.2,340,273.3,339.4,273.3z M332.8,265.5
		c0,0.4,0.2,0.9,1.2,1.5C333.6,266.5,333.1,266,332.8,265.5z M335.4,262c0.2,0.3,0.5,0.8,1,1.4c0.1-0.8,0.3-1.5,0.4-2.1
		c-0.2,0-0.3,0-0.5,0C336,261.5,335.7,261.7,335.4,262z"/>
	<path class="st1" d="M272.1,530.7h-29.8l24.7-87.4c0.3-1.1,1.5-1.7,2.6-1.4s1.7,1.5,1.4,2.6l-23.2,82.1h20.5
		c-0.1-2.2-0.7-5.5-2.7-7.1c-1.8-1.4-4.7-1.5-8.6-0.2c-1.1,0.4-2.3-0.2-2.6-1.3c-0.4-1.1,0.2-2.3,1.3-2.6c5.3-1.8,9.5-1.5,12.5,0.9
		c5,4,4.2,12.2,4.1,12.6L272.1,530.7z"/>
	<path class="st1" d="M318.3,529.8H286l16.2-71.3c0.3-1.1,1.4-1.8,2.5-1.6c1.1,0.3,1.8,1.4,1.6,2.5l-15.1,66.2h23.2
		c-0.1-1.8-0.7-4.7-2.8-6.4c-2.4-2.1-6.5-2.3-12-0.8c-1.1,0.3-2.2-0.3-2.5-1.5c-0.3-1.1,0.3-2.2,1.5-2.5c6.9-1.9,12.2-1.3,15.8,1.7
		c5,4.2,4.3,11.5,4.2,11.8L318.3,529.8z"/>
	<path class="st1" d="M173.7,528c-8,0-9.9-4.4-10.3-6.3c-0.9-3.9,1.4-8.6,5.1-10.4c3.5-1.7,7.3-0.7,10.3,2.8
		c0.7,0.9,0.6,2.2-0.3,2.9c-0.9,0.7-2.2,0.6-2.9-0.3c-1.2-1.4-3.1-2.9-5.3-1.8c-2,1-3.4,3.7-2.9,5.8c0.6,2.7,4.2,3.1,6.3,3.1
		c14,0,14.5-11.4,14.5-12.7V408.5c0-1.1,0.9-2.1,2.1-2.1s2.1,0.9,2.1,2.1v102.7C192.3,511.4,192.1,528,173.7,528z"/>
	<path class="st1" d="M448,263.5c-1,0-1.9-0.8-2-1.8c-0.1-1.1,0.7-2.2,1.8-2.3l11.5-1.5c1.1-0.1,2.2,0.7,2.3,1.8
		c0.1,1.1-0.7,2.2-1.8,2.3l-11.5,1.5C448.2,263.5,448.1,263.5,448,263.5z"/>
	<path class="st1" d="M446.9,274.8c-1.1,0-2-0.8-2.1-1.9s0.8-2.1,1.9-2.2l13-0.9c1.1-0.1,2.1,0.8,2.2,1.9s-0.8,2.1-1.9,2.2l-13,0.9
		H446.9z"/>
	<path class="st1" d="M356.3,305.8c-0.5,0-1.1-0.2-1.5-0.6c-0.8-0.8-0.7-2.1,0.1-2.9c0.4-0.3,37.3-34.5,104.6-38.3
		c1.2,0,2.1,0.8,2.2,1.9s-0.8,2.1-1.9,2.2c-65.7,3.7-101.7,36.8-102,37.2C357.3,305.6,356.8,305.8,356.3,305.8z"/>
	<path class="st5" d="M256.9,197c0,0,13.5,32.6,37.4,31.8S280.8,198.6,276,197C271.2,195.5,259.3,191.5,256.9,197z"/>
	<path class="st5" d="M241.8,185.9c0,0-10.3-9.5,0-10.3s19.9,5.6,17.5,9.5C256.9,189.1,253.7,192.3,241.8,185.9z"/>
</g>
</svg>
