<?xml version="1.0" encoding="utf-8"?>
<!-- Generator: Adobe Illustrator 27.1.1, SVG Export Plug-In . SVG Version: 6.00 Build 0)  -->
<svg version="1.1" id="Calque_1" xmlns="http://www.w3.org/2000/svg" xmlns:xlink="http://www.w3.org/1999/xlink" x="0px" y="0px"
	 viewBox="0 0 720 565" style="enable-background:new 0 0 720 565;" xml:space="preserve">
<style type="text/css">
	.st0{fill:#EDEDED;}
	.st1{fill:#5E5EF7;}
	.st2{fill:#C6C6C5;}
	.st3{fill:#FFFFFF;}
	.st4{clip-path:url(#SVGID_00000078008909990700895970000004144895687371794330_);fill:#5E5EF7;}
	.st5{clip-path:url(#SVGID_00000160886492746394616010000010239930942905948348_);fill:#5E5EF7;}
	.st6{fill:#575756;}
</style>
<g>
	<path class="st0" d="M313.7,504.7c-80.3,11.5-242.3,53-262.3-48.7s106.1-121.9,126.2-153.4s-90.3-54.5-83.1-150.5
		C101.5,56,290.7-4.2,412.6,17.3S644.8,142,667.8,225.2c22.9,83.1-87.4,153.4-84.6,184.9s53,55.9,35.8,104.7
		C601.8,563.5,313.7,504.7,313.7,504.7z"/>
	<path d="M13,466c-1.2,0-2.2-0.8-2.4-2c-20-101.3,62.8-146.1,107.3-170.2c1.6-0.9,3.4-1.8,5.1-2.8c-28-23.8-75.7-66.7-70-142.1
		c2.8-38.1,24.3-73.8,62.1-103.1c1.1-0.8,2.6-0.6,3.5,0.4c0.8,1.1,0.6,2.6-0.4,3.5C81.6,78.2,60.8,112.6,58,149.3
		c-5.6,75.4,42.4,116,71,140.3l2.7,2.3l-3.1,1.7c-2.9,1.6-5.7,3.1-8.3,4.5C77,321.6-3.7,365.3,15.5,463c0.3,1.3-0.6,2.6-1.9,2.9
		C13.3,466,13.1,466,13,466z"/>
	<path d="M666.4,360c-0.5,0-1-0.2-1.5-0.5c-1.1-0.8-1.3-2.4-0.5-3.5c24.3-32.4,54.7-82.2,38.6-140.6c-9.7-35.3-31.8-72.7-63.8-108.1
		c-0.9-1-0.8-2.6,0.2-3.5s2.6-0.8,3.5,0.2c32.5,36,54.9,74.1,64.9,110.1c16.7,60.4-14.5,111.6-39.4,144.9
		C667.9,359.7,667.2,360,666.4,360z"/>
	<path d="M655.9,530.2c-0.3,0-0.6,0-0.8-0.1c-1.3-0.5-2-1.9-1.5-3.2c9.2-26,7.4-50.9-5.5-76.1c-0.6-1.2-0.1-2.7,1.1-3.3
		c1.2-0.6,2.7-0.1,3.3,1.1c13.5,26.5,15.4,52.7,5.8,80C657.8,529.6,656.9,530.2,655.9,530.2z"/>
	<path d="M24.2,500.3c-0.9,0-1.8-0.1-2.7-0.4c-5.2-1.5-8.2-7-6.7-12.2c0.7-2.5,2.4-4.6,4.7-5.9s5-1.6,7.5-0.8
		c2.5,0.7,4.6,2.4,5.9,4.7c1.3,2.3,1.6,5,0.8,7.5C32.4,497.5,28.4,500.3,24.2,500.3z M24.2,485.6c-0.8,0-1.6,0.2-2.3,0.6
		c-1.1,0.6-2,1.7-2.3,2.9c-0.7,2.6,0.8,5.3,3.3,6c2.6,0.8,5.3-0.8,6-3.3l0,0c0.4-1.3,0.2-2.6-0.4-3.7s-1.7-2-2.9-2.3
		C25.1,485.6,24.6,485.6,24.2,485.6z"/>
	<circle cx="43.2" cy="511" r="4.2"/>
	<path class="st1" d="M682.8,386.7L682.8,386.7c0,10.1,8.2,18.4,18.4,18.4l0,0l0,0c-10.1,0-18.4,8.2-18.4,18.4l0,0l0,0
		c0-10.1-8.2-18.4-18.4-18.4l0,0l0,0C674.6,405.1,682.8,396.9,682.8,386.7L682.8,386.7z"/>
	<circle cx="130.8" cy="39.5" r="4.2"/>
</g>
<g>
	<polygon class="st2" points="146.8,265.1 146.1,245.7 263.8,245.7 264.6,262.7 	"/>
	<polygon class="st2" points="144.5,227.5 243.4,227.5 242.6,214.2 149.2,211.8 	"/>
	<polygon class="st2" points="146.8,199.6 228.5,198.4 228.5,185.1 146.1,186.3 	"/>
	<polygon class="st2" points="148.4,175.4 236.3,173 237.1,164.5 148.4,163.3 	"/>
	<g>
		<polygon class="st3" points="160.1,32.4 144.9,128.3 609.1,132.8 603,34.6 		"/>
		<path d="M610.3,134h-1.2l-465.5-4.5l15.6-98.2h1l443.9,2.2l0.1,1.1L610.3,134z M146.2,127.2l461.7,4.4L602,35.7l-440.8-2.2
			L146.2,127.2z"/>
	</g>
	<path class="st1" d="M213.5,109.2l-12-9.4c-0.6-0.5-1.5-0.7-2.3-0.4l-14.5,4.5c-2,0.6-3.8-1.3-3.1-3.2l5.3-14.3
		c0.3-0.8,0.2-1.6-0.3-2.3l-8.8-12.4c-1.2-1.7,0.1-4,2.1-3.9l15.2,0.6c0.8,0,1.6-0.3,2.1-1l9.1-12.2c1.2-1.7,3.8-1.2,4.4,0.8
		l4.2,14.7c0.2,0.8,0.8,1.4,1.6,1.7l14.4,4.9c2,0.7,2.3,3.3,0.6,4.4L218.8,90c-0.7,0.5-1.1,1.2-1.1,2l-0.2,15.2
		C217.5,109.4,215.1,110.5,213.5,109.2z"/>
	<path class="st1" d="M312.8,95.4l-15.2,0.7c-0.8,0-1.6,0.5-2,1.2l-8.1,12.9c-1.1,1.8-3.7,1.5-4.5-0.4l-5.3-14.3
		c-0.3-0.8-0.9-1.3-1.7-1.5l-14.8-3.7c-2-0.5-2.6-3.1-1-4.4l11.9-9.5c0.6-0.5,1-1.3,0.9-2.1L272,59c-0.1-2.1,2.1-3.4,3.9-2.3
		l12.7,8.4c0.7,0.5,1.5,0.5,2.3,0.2l14.1-5.7c1.9-0.8,3.9,1,3.3,3l-4.1,14.7c-0.2,0.8,0,1.6,0.5,2.3l9.8,11.7
		C315.9,92.9,314.9,95.3,312.8,95.4z"/>
	<path class="st2" d="M383.3,107.6l-13.7-6.7c-0.7-0.4-1.6-0.3-2.3,0.1l-13.3,7.4c-1.8,1-4-0.5-3.7-2.5l2.2-15.1
		c0.1-0.8-0.2-1.6-0.8-2.2l-11.2-10.3c-1.5-1.4-0.8-3.9,1.3-4.3l15-2.6c0.8-0.1,1.5-0.7,1.8-1.4l6.4-13.8c0.9-1.9,3.5-1.9,4.5-0.1
		l7.1,13.5c0.4,0.7,1.1,1.2,1.9,1.3l15.1,1.8c2.1,0.2,2.9,2.7,1.5,4.2l-10.6,10.9c-0.6,0.6-0.8,1.4-0.7,2.2l3,14.9
		C387.2,106.9,385.1,108.5,383.3,107.6z"/>
	<path class="st2" d="M436.3,104.3l3.4-14.8c0.2-0.8,0-1.6-0.6-2.2L428.8,76c-1.4-1.5-0.4-4,1.6-4.2l15.2-1.3c0.8-0.1,1.5-0.5,2-1.3
		l7.5-13.3c1-1.8,3.7-1.6,4.5,0.3l6,14c0.3,0.8,1,1.3,1.8,1.5l14.9,3c2,0.4,2.7,3,1.1,4.3l-11.5,10c-0.6,0.5-0.9,1.3-0.8,2.2
		l1.7,15.1c0.2,2.1-2,3.5-3.8,2.4l-13.1-7.8c-0.7-0.4-1.6-0.5-2.3-0.1l-13.9,6.3C437.9,108,435.8,106.4,436.3,104.3z"/>
	<path class="st2" d="M567.7,101l-14.6-4.3c-0.8-0.2-1.6-0.1-2.3,0.5l-11.8,9.6c-1.6,1.3-4,0.2-4.1-1.9l-0.4-15.2
		c0-0.8-0.4-1.6-1.1-2l-12.8-8.3c-1.7-1.1-1.4-3.8,0.5-4.4l14.4-5.1c0.8-0.3,1.4-0.9,1.6-1.7l3.9-14.7c0.5-2,3.1-2.5,4.4-0.9
		l9.3,12.1c0.5,0.7,1.3,1,2.1,1l15.2-0.8c2.1-0.1,3.4,2.2,2.2,3.9l-8.6,12.6c-0.5,0.7-0.6,1.5-0.3,2.3l5.5,14.2
		C571.5,99.7,569.7,101.6,567.7,101z"/>
	<polygon points="169.9,537.7 273.8,556.3 349.8,537.7 359.5,439.4 154.7,453.3 	"/>
	<polygon points="156.1,456.1 282,431.1 360.9,438.1 342.9,463 	"/>
	<polygon points="156.1,456.1 107.7,330.2 244.7,319.1 282,431.1 	"/>
	<g>
		<polygon class="st3" points="128.4,342.6 164.4,435.3 266.8,424.2 240.5,334.3 		"/>
		<path class="st1" d="M162.9,437.9l-37.8-97.4l117.2-8.7l27.6,94.5L162.9,437.9z M131.8,344.7l34.1,88l97.7-10.6l-24.9-85.3
			L131.8,344.7z"/>
	</g>
	<path class="st0" d="M275.6,435.3l-105.8,15c0,0,120.2,13.2,125,12.6s57.4-18.5,57.4-18.5L275.6,435.3z"/>
	<g>
		<g>
			<defs>
				<path id="SVGID_1_" d="M275.6,435.3l-105.8,15c0,0,120.2,13.2,125,12.6s57.4-18.5,57.4-18.5L275.6,435.3z"/>
			</defs>
			<clipPath id="SVGID_00000073715735692150935340000007084852801335286669_">
				<use xlink:href="#SVGID_1_"  style="overflow:visible;"/>
			</clipPath>
			<path style="clip-path:url(#SVGID_00000073715735692150935340000007084852801335286669_);fill:#5E5EF7;" d="M306.2,477.7
				l-14.7,0.9c-0.8,0.1-1.5,0.5-1.9,1.2l-7.6,12.6c-1,1.7-3.6,1.5-4.3-0.4l-5.4-13.7c-0.3-0.7-0.9-1.3-1.7-1.5l-14.3-3.3
				c-1.9-0.4-2.5-2.9-1-4.2l11.3-9.4c0.6-0.5,0.9-1.3,0.9-2.1l-1.3-14.6c-0.2-2,2-3.3,3.7-2.2l12.4,7.9c0.7,0.4,1.5,0.5,2.2,0.2
				l13.5-5.8c1.8-0.8,3.8,0.9,3.3,2.8l-3.7,14.2c-0.2,0.8,0,1.6,0.5,2.2l9.7,11.1C309.1,475.2,308.1,477.5,306.2,477.7z"/>
		</g>
		<g>
			<defs>
				<path id="SVGID_00000051379392945659885300000003646888507392406940_" d="M275.6,435.3l-105.8,15c0,0,120.2,13.2,125,12.6
					s57.4-18.5,57.4-18.5L275.6,435.3z"/>
			</defs>
			<clipPath id="SVGID_00000118397252082254401980000000473144779434614199_">
				<use xlink:href="#SVGID_00000051379392945659885300000003646888507392406940_"  style="overflow:visible;"/>
			</clipPath>
			<path style="clip-path:url(#SVGID_00000118397252082254401980000000473144779434614199_);fill:#5E5EF7;" d="M238.5,496l-6.9-13
				c-0.4-0.7-1.1-1.2-1.9-1.3l-14.6-1.7c-2-0.2-2.8-2.6-1.5-4.1l10.2-10.6c0.5-0.6,0.8-1.4,0.6-2.2l-2.9-14.4
				c-0.4-2,1.6-3.5,3.4-2.6l13.2,6.4c0.7,0.3,1.6,0.3,2.2-0.1l12.8-7.3c1.7-1,3.8,0.4,3.6,2.4l-2,14.6c-0.1,0.8,0.2,1.6,0.8,2.1
				l10.8,9.9c1.5,1.3,0.8,3.8-1.2,4.1l-14.5,2.6c-0.8,0.1-1.4,0.7-1.8,1.4l-6.1,13.4C242,497.7,239.5,497.8,238.5,496z"/>
		</g>
	</g>
	<path class="st1" d="M316.6,451.3l-1.4-14.6c-0.1-0.8-0.5-1.5-1.2-1.9l-12.8-7.2c-1.7-1-1.6-3.5,0.2-4.3l13.5-5.8
		c0.7-0.3,1.3-1,1.4-1.7l2.8-14.4c0.4-2,2.8-2.6,4.2-1.1l9.7,11c0.5,0.6,1.3,0.9,2.1,0.8l14.6-1.8c2-0.2,3.4,1.9,2.4,3.6l-7.5,12.7
		c-0.4,0.7-0.4,1.5-0.1,2.2l6.2,13.3c0.8,1.8-0.8,3.8-2.7,3.4l-14.3-3.2c-0.8-0.2-1.6,0-2.2,0.6l-10.8,10
		C319.1,454.2,316.7,453.2,316.6,451.3z"/>
	<path class="st1" d="M123.1,518.9l10-10.8c0.5-0.6,0.8-1.4,0.6-2.2l-3.2-14.3c-0.4-1.9,1.5-3.6,3.4-2.7l13.3,6.2
		c0.7,0.3,1.6,0.3,2.2-0.1l12.6-7.5c1.7-1,3.9,0.4,3.6,2.4l-1.7,14.6c-0.1,0.8,0.2,1.6,0.8,2.1l11,9.7c1.5,1.3,0.8,3.8-1.1,4.2
		l-14.4,2.9c-0.8,0.2-1.4,0.7-1.7,1.4l-5.8,13.5c-0.8,1.8-3.3,2-4.3,0.2l-7.2-12.8c-0.4-0.7-1.1-1.1-1.9-1.2l-14.6-1.4
		C122.7,522.8,121.8,520.4,123.1,518.9z"/>
</g>
<g>
	<path class="st1" d="M543,140.2c0,0-25.9,28.6-64.9,22.4c-39-6.2-55.7-66.3-55.7-66.3s61.9-4,59.1,43.7c0,0,18.8-60.6,73.9-59
		C555.5,81,564.1,108,543,140.2z"/>
	<path class="st3" d="M492.6,159.8l-0.5-4.5c0.2,0,15.3-1.7,29.6-10.3c18.4-11.2,27-28.3,25.6-50.9c-6.9-0.5-32.8,0.5-53.2,40
		l-4-2.1c25-48.1,58.4-42.4,59.8-42.1l1.7,0.3l0.1,1.7c2.7,31.7-13.6,48.6-27.8,57.1C508.8,158.1,493.2,159.8,492.6,159.8z"/>
	<path class="st3" d="M450.1,139.5c-19-13-19.4-33.6-19.4-34.5v-2.1l2-0.2c33.6-3.5,46.3,28.6,46.4,28.9l-4.2,1.6
		c-0.4-1.2-11.1-27.7-39.5-26.2c0.6,5.3,3.6,19.3,17.2,28.7L450.1,139.5z"/>
	<path d="M457.9,127.5l-8.1,20.2c0,0-95.2,40.2-100.4,147.8c-5.7,120.4,113.1,186.4,113.1,186.4h52.4l-1.6-24.5
		c0,0,87.3-47.5,81-157.9c-6.3-110.5-90.1-148-90.1-148l-7.6-21.2L457.9,127.5z"/>
	<path class="st3" d="M469.6,475.3c-3.3,0-6.4-1.5-8.5-4.1l-7-9c-7.3-3.5-84.3-42.5-92.6-153.6C353.3,198,445,154.9,455.2,150.4
		l3.8-9c1-2.5,3.1-4.4,5.6-5.3c2.5-0.9,5.3-0.8,7.7,0.5l5.5,2.8l9.3,0.3c3.5,0.1,6.7,2,8.4,5.1l9.1,15.9c6.1,4.6,78.1,61,80.8,153.4
		c2.7,89.4-71.4,132.8-82.9,139l1.7,11.6c0.3,2.4-0.3,4.8-1.9,6.6c-1.5,1.8-3.8,3-6.2,3l-26,1C469.9,475.3,469.8,475.3,469.6,475.3z
		 M467.9,139.9c-0.6,0-1.2,0.1-1.8,0.3c-1.3,0.5-2.4,1.5-2.9,2.8l-4.5,10.7l-0.9,0.4c-1,0.4-100.1,40.9-91.8,154
		c8.4,113.3,89.6,149.7,90.4,150l0.5,0.2l7.7,9.9c1.2,1.6,3.1,2.3,5.1,2.4l26-1c1.1,0,2.2-0.5,2.9-1.4c0.7-0.9,1-2,0.9-3.1
		l-2.1-14.9l1.5-0.7c0.8-0.4,84.7-42.1,81.9-135.5c-2.8-93.9-78.6-149.6-79.3-150.2l-0.6-0.7l-9.3-16.3c-1-1.7-2.7-2.7-4.6-2.8
		l-10.7-0.6l-6-3.1C469.5,140.1,468.7,139.9,467.9,139.9z"/>
	<path class="st1" d="M561.7,543.6H519l-7.9-86.1c-0.1-1.2,0.8-2.3,2.1-2.5c1.2-0.1,2.4,0.8,2.5,2.1l7.6,82h33.1
		c-0.9-3.2-2.9-8.5-7.2-10.4c-3.8-1.7-8.8-0.4-14.9,3.7c-1,0.7-2.4,0.4-3.1-0.6s-0.4-2.4,0.6-3.1c7.5-5.1,14-6.5,19.3-4.1
		c8.6,3.8,10.4,16,10.5,16.5L561.7,543.6z"/>
	<path class="st1" d="M435.6,543.6l0.1-2.4c0-0.4,0.5-10.5,7.5-14.8c4.5-2.7,10.3-2.3,17.4,1.1c1.1,0.5,1.6,1.9,1.1,3
		s-1.9,1.6-3,1.1c-5.6-2.7-10-3.1-13.1-1.3c-3.2,1.9-4.5,6-5,8.6l30.4-0.8c0.1-61-29.5-67.8-29.8-67.9c-1.2-0.3-2-1.4-1.8-2.7
		c0.2-1.2,1.4-2,2.6-1.8c1.4,0.3,34.4,7.5,33.5,74.6v2.2L435.6,543.6z M473.2,540.4L473.2,540.4L473.2,540.4z"/>
	<path class="st1" d="M359.7,368.3c-0.3,0-0.6-0.1-0.8-0.2c-0.9-0.4-93.8-38.6-58-156c0.4-1.2,1.6-1.9,2.8-1.5
		c1.2,0.4,1.9,1.6,1.5,2.8c-34.5,113.4,51.7,149,55.4,150.5c1.2,0.5,1.7,1.8,1.3,2.9C361.5,367.7,360.6,368.3,359.7,368.3z"/>
	<path class="st1" d="M293.1,226c-0.1,0-0.3,0-0.4,0c-1.2-0.2-2-1.4-1.8-2.6l2.7-14.4c0.2-1.2,1.4-2,2.6-1.8s2,1.4,1.8,2.6
		l-2.7,14.4C295.2,225.2,294.2,226,293.1,226z"/>
	<path class="st1" d="M305.4,230.2c-0.3,0-0.5,0-0.8-0.1c-1.2-0.4-1.8-1.7-1.4-2.9l4.8-13.5c0.4-1.2,1.7-1.8,2.9-1.4
		c1.2,0.4,1.8,1.7,1.4,2.9l-4.8,13.5C307.2,229.6,306.4,230.2,305.4,230.2z"/>
	<path class="st1" d="M353.3,196.8l-18.6-11.9c-1-0.6-1.6-1.7-1.7-2.9l-0.7-22.1c-0.1-3-3.6-4.6-5.9-2.7l-17.1,14
		c-0.9,0.8-2.2,1-3.3,0.7l-21.2-6.2c-2.9-0.8-5.5,2-4.4,4.8l8,20.6c0.4,1.1,0.3,2.4-0.4,3.3l-12.4,18.3c-1.7,2.5,0.2,5.8,3.2,5.6
		l7.3-0.4l4-16.7l27.8,10L313,230l4.5,5.8c1.8,2.4,5.6,1.6,6.4-1.3l5.6-21.4c0.3-1.2,1.2-2.1,2.3-2.5l20.8-7.5
		C355.4,202.2,355.8,198.4,353.3,196.8z"/>
	<path class="st1" d="M557.1,437.4c-9.1,0-14.7-0.5-14.9-0.5c-1.3-0.1-2.2-1.2-2.1-2.5c0.1-1.3,1.3-2.2,2.5-2.1
		c0.5,0,47.1,3.8,91.1-10.9c6.8-2.3,10.5-5.5,10.9-9.5c1.5-15.8-41.1-43.6-57.7-52.9c-1.1-0.6-1.5-2-0.9-3.1s2-1.5,3.1-0.9
		c6.4,3.6,62.1,35.7,60,57.3c-0.6,6-5.3,10.5-13.9,13.4C605.5,435.7,574.8,437.4,557.1,437.4z"/>
	<path class="st3" d="M423.4,305.5c-2,0-4.2-0.5-6.7-1.5c-1.2-0.5-1.7-1.8-1.2-3s1.8-1.7,3-1.2c3.8,1.6,6.5,1.6,8.4,0
		c5.2-4.4,3.8-21.2,1.7-30.7c-0.3-1.2,0.5-2.4,1.7-2.7c1.2-0.3,2.4,0.5,2.7,1.7c0.6,2.8,5.9,27.5-3.2,35.2
		C427.9,304.8,425.8,305.5,423.4,305.5z"/>
	<path class="st3" d="M444.7,291.7c-0.3,0-0.6-0.1-0.9-0.2c-1.2-0.5-1.7-1.8-1.2-3c3.7-8.7,8.2-13.1,13.3-13.3c0.1,0,0.1,0,0.2,0
		c8.3,0,14.1,11.5,14.8,12.8c0.5,1.1,0.1,2.5-1,3c-1.1,0.6-2.5,0.1-3-1c-1.3-2.7-6.1-10.2-10.7-10.2h-0.1c-3.1,0.1-6.3,3.7-9.2,10.5
		C446.4,291.2,445.6,291.7,444.7,291.7z"/>
	<path class="st3" d="M417.5,284.7c-0.7,0-1.5-0.4-1.9-1c-3.3-5-7.7-11.7-10.8-11.7h-0.1c-1.5,0.1-4,1.8-7.7,9.6
		c-0.5,1.1-1.9,1.6-3,1.1s-1.6-1.9-1.1-3c3.9-8.1,7.5-11.8,11.5-12.1c5.3-0.5,9.4,5.2,15,13.8c0.7,1,0.4,2.5-0.6,3.1
		C418.4,284.6,417.9,284.7,417.5,284.7z"/>
	<path class="st1" d="M497.6,310.9c-0.1,0-0.3,0-0.4,0c-2.3-0.2-3.6-1.9-4.9-3.5c-0.5-0.6-0.9-1.2-1.5-1.9c-1.8-1.9-2.1-4.4-0.9-6.8
		c0.4-0.8,1-1.6,1.7-2.3c-0.5-0.5-0.8-1.3-0.6-2.1c0.2-0.6,0.8-2.1,3.3-2.4c1.3-0.1,3.3,0.1,5.3,0.7c0.4,0,0.8,0,1.2,0
		c2,0.2,3,1.2,3.5,2c1.7,1,3.1,2.4,3.8,4c0.7,1.5,1.3,4.5-2.2,7.7C502.2,309.5,499.8,310.9,497.6,310.9z M503.9,300.6
		c-0.3,0.6-0.6,1.3-0.9,1.9C503.9,301.6,504,301,503.9,300.6z M498.4,297.1c0.4,0.6,0.7,1.3,1.1,2.2c0.3-0.7,0.5-1.3,0.7-1.7
		c-0.5-0.2-0.9-0.4-1.4-0.5C498.7,297.1,498.6,297.1,498.4,297.1z"/>
	<path class="st1" d="M368.3,296.9c-0.1,0-0.3,0-0.4,0c-2.3-0.2-3.6-1.9-4.9-3.5c-0.4-0.6-0.9-1.2-1.5-1.9c-1.8-1.9-2.1-4.4-0.9-6.8
		c0.4-0.8,1-1.6,1.7-2.3c-0.5-0.5-0.8-1.3-0.6-2.1c0.2-0.6,0.8-2.1,3.3-2.4c1.3-0.1,3.3,0.1,5.3,0.7c0.4,0,0.8,0,1.2,0
		c2,0.2,3,1.2,3.5,2c1.7,1,3.1,2.4,3.8,4c0.7,1.5,1.3,4.5-2.2,7.7C372.9,295.5,370.5,296.9,368.3,296.9z M374.7,286.6
		c-0.3,0.6-0.6,1.3-0.9,1.9C374.7,287.6,374.7,287,374.7,286.6z M369.2,283.2c0.4,0.6,0.7,1.3,1.1,2.2c0.3-0.7,0.5-1.3,0.7-1.7
		c-0.5-0.2-0.9-0.4-1.4-0.5C369.4,283.1,369.3,283.1,369.2,283.2z"/>
	<path class="st6" d="M517.6,199.5c8.5-6,32.6,33.2,37.6,49.7c5,16.6-8.3,19.9-11.6,11.1s-29.3-48.1-29.3-51.4
		S513.8,202.3,517.6,199.5z"/>
	<path class="st6" d="M511.6,191.8c-1.6,4.2-22.1-2.8-24.3-17.1C485,160.3,514.9,182.9,511.6,191.8z"/>
	<path class="st3" d="M444.4,337.4c-22.8,0-46.9-8.5-48.3-9c-1.2-0.4-1.8-1.7-1.4-2.9c0.4-1.2,1.7-1.8,2.9-1.4
		c0.5,0.2,45.7,16,69.2,4.5c6.2-3,10.2-7.6,12.2-13.9c0.4-1.2,1.7-1.8,2.9-1.5c1.2,0.4,1.8,1.7,1.5,2.9c-2.4,7.4-7.3,13-14.5,16.5
		C461.8,336.2,453.2,337.4,444.4,337.4z"/>
	<path class="st3" d="M447.7,353.9c-3,0-6.3-0.2-9.9-0.7c-20.9-2.7-33.1-6.7-36.2-11.9c-1.1-1.9-0.8-3.4-0.6-3.8
		c0.4-1.2,1.7-1.8,2.9-1.4c1,0.4,1.6,1.4,1.5,2.5c0.2,0.6,3,6.1,33,10c16,2.1,21.9-1,23.9-3.9c2.9-4.2-0.2-10.4-0.2-10.4
		c-0.6-1.1-0.1-2.5,1-3.1s2.5-0.1,3.1,1c0.2,0.4,4.4,8.6-0.1,15.1C462.9,351.7,456.8,353.9,447.7,353.9z M405.2,339.1L405.2,339.1
		L405.2,339.1z M405.2,339.1L405.2,339.1L405.2,339.1z"/>
</g>
</svg>
