<?xml version="1.0" encoding="utf-8"?>
<!-- Generator: Adobe Illustrator 27.1.1, SVG Export Plug-In . SVG Version: 6.00 Build 0)  -->
<svg version="1.1" id="Calque_1" xmlns="http://www.w3.org/2000/svg" xmlns:xlink="http://www.w3.org/1999/xlink" x="0px" y="0px"
	 viewBox="0 0 720 459" style="enable-background:new 0 0 720 459;" xml:space="preserve">
<style type="text/css">
	.st0{fill:#EDEDED;}
	.st1{fill:#57BDE9;}
	.st2{fill:#C6C6C5;}
	.st3{fill:#FFFFFF;}
	.st4{fill:#5E5EF7;}
	.st5{fill:#575756;}
</style>
<path class="st0" d="M471.1,345.2C434.8,287.5,166,482.4,73.9,377.7S104.6,142.9,249,162.8c0,0,32.5-88.5,111.9-83
	c79.4,5.4,131.8,104.7,131.8,104.7s180.5,45.1,180.5,135.4S541.5,457.1,471.1,345.2z"/>
<polygon class="st1" points="183.6,405.6 578.2,405.6 601.9,436.5 163.2,438.1 "/>
<g>
	<polygon class="st2" points="80.2,295.8 94.9,425.4 162.1,415.5 148.8,288.8 	"/>
	<polygon class="st3" points="90.1,308.4 141.7,300.5 150.3,391.4 101.5,394.6 	"/>
	<circle class="st3" cx="127.6" cy="409.4" r="5"/>
</g>
<g>
	<polygon class="st2" points="161.2,256.9 157.9,387.3 225.7,386.8 230.2,259.5 	"/>
	<polygon class="st3" points="169.3,270.8 221.5,270 217.4,361.3 168.7,357.7 	"/>
	<circle class="st3" cx="192.5" cy="376" r="5"/>
</g>
<g>
	<polygon class="st2" points="214.8,305.3 183.2,412.7 239.6,427.2 271.4,322.7 	"/>
	<polygon class="st3" points="218.4,318.6 261.9,329.5 238.3,404.3 198.7,390.5 	"/>
	<circle class="st3" cx="214.4" cy="410.9" r="4.3"/>
</g>
<g>
	<polygon points="135.3,310.9 150,440.5 217.1,430.6 203.9,303.9 	"/>
	<polygon class="st3" points="145.2,323.5 196.8,315.6 205.4,406.5 156.6,409.7 	"/>
	<circle class="st4" cx="182.7" cy="424.5" r="5"/>
</g>
<path class="st4" d="M586.9,88c0,0-30,11.3-56.6-8c-26.5-19.3-16.1-70.2-16.1-70.2s47.4,20.6,27.1,54.8c0,0,36.9-37.7,77.1-15.7
	C618.6,48.9,614.8,72.2,586.9,88z"/>
<path class="st3" d="M565.2,87.3c-12.8,0-22.8-3.8-23.1-3.9c-1-0.4-1.4-1.5-1.1-2.4c0.4-1,1.5-1.5,2.4-1.1
	c1.9,0.7,45.9,17.3,64.2-24.4c-4.9-3-24.4-12-54.6,9.4c-0.8,0.6-2,0.4-2.6-0.4c-0.6-0.8-0.4-2,0.4-2.6c36.7-26.2,59.3-9.3,60.3-8.5
	l1.1,0.9l-0.5,1.3C601.1,81.5,581,87.3,565.2,87.3z"/>
<path class="st3" d="M541,59.2c-0.1,0-0.1,0-0.2,0c-1-0.1-1.8-1-1.7-2.1c0.1-1,2.3-24.8-19.3-34.4c-1.5,4.1-4.7,15.7,1.9,27.8
	c0.5,0.9,0.2,2.1-0.8,2.6c-0.9,0.5-2.1,0.2-2.6-0.8c-9.1-16.9-1.6-32.3-1.3-32.9l0.8-1.5l1.6,0.6c26.2,10.1,23.4,38.8,23.4,39
	C542.8,58.5,542,59.2,541,59.2z"/>
<path class="st4" d="M495.4,428.6h-39.8l0.1-2.2c0-0.4,0.6-11,7.6-14.8c4.3-2.4,9.8-1.7,16.4,2c1,0.6,1.4,1.9,0.8,2.9
	s-1.9,1.4-2.9,0.8c-5.2-2.9-9.3-3.6-12.2-2c-3.3,1.8-4.6,6.3-5.1,9.1h28.6l-32-72.6c-0.5-1.1,0-2.3,1.1-2.8s2.3,0,2.8,1.1
	L495.4,428.6z"/>
<path d="M559.7,68.4l-4,15.8c0,0,75.2,61.9,55.1,155.4s-95.4,113.3-95.4,113.3l8.1,26.3l-53.7-2.6c0,0-90.5-90.4-72.5-173.8
	C421.4,90.7,514.1,74.9,514.1,74.9l6.7-11.9L559.7,68.4z"/>
<path class="st3" d="M512,371l-32.4-2.9l-0.5-0.4c-1-0.7-99.6-75.8-70.6-173.5c27.2-91.3,98.9-109.8,108.6-111.9l8.5-16.9l14.8,8.9
	l11.7,1.5l2.8,16.6c6.5,5.3,56.3,49.1,48.9,137c-7.3,86.3-82.9,114.3-95.8,118.5L512,371z M481.3,363.9l25.6,2.3l-3.8-21.6l1.9-0.5
	c0.9-0.2,86.9-24.5,94.6-115.3c4-47.7-9.3-81.6-21.1-101.6c-12.8-21.6-26.6-32-26.8-32.1l-0.7-0.5l-2.5-15.1l-9.8-1.4l-11.2-6.7
	l-7.4,14.7l-1.1,0.2c-0.2,0-19.7,3.4-42.5,18.6c-21,13.9-49.1,40.9-63.8,90.6C385.5,286.8,474,358.2,481.3,363.9z"/>
<path class="st4" d="M541.4,428.6h-38.2l-0.1-2c0-0.3-0.4-8.3,5.4-12.7c4.4-3.3,11-3.5,19.6-0.5c1.1,0.4,1.7,1.6,1.3,2.7
	s-1.6,1.7-2.7,1.3c-7.1-2.5-12.3-2.5-15.6-0.1c-2.5,1.9-3.4,5-3.6,7h28.1l-22.2-70.9c-0.4-1.1,0.3-2.3,1.4-2.7
	c1.1-0.4,2.3,0.3,2.7,1.4L541.4,428.6z"/>
<path class="st4" d="M529.5,240.6c-0.6,0-1.2-0.1-1.7-0.3c-2.1-0.7-2.9-2.6-3.6-4.4c-0.3-0.6-0.6-1.4-1-2.1
	c-1.2-2.2-0.9-4.5,0.8-6.5c0.6-0.7,1.3-1.2,2.1-1.7c-0.4-0.6-0.4-1.4,0-2.1c0.3-0.5,1.2-1.8,3.5-1.4c1.2,0.2,3,0.9,4.7,1.9
	c0.4,0.1,0.7,0.2,1.1,0.3c1.8,0.7,2.5,1.8,2.7,2.6c1.3,1.4,2.3,2.9,2.6,4.5c0.3,1.5,0.1,4.4-3.9,6.5
	C533.5,239.8,531.3,240.6,529.5,240.6z M536.4,232.5c-0.4,0.5-0.8,1-1.3,1.5C536.1,233.4,536.4,232.9,536.4,232.5z M532.2,228
	c0.2,0.6,0.3,1.3,0.5,2.2c0.5-0.6,0.8-1.1,1-1.4c-0.4-0.3-0.8-0.6-1.2-0.8C532.4,228,532.3,228,532.2,228z"/>
<path class="st5" d="M500.1,118.1c0,0-14,33.8-38.7,33c-24.7-0.8,14-31.3,19-33C485.3,116.5,497.6,112.4,500.1,118.1z"/>
<path class="st5" d="M515.8,106.6c0,0,10.7-9.9,0-10.7c-10.7-0.8-20.6,5.8-18.1,9.9C500.1,109.9,503.4,113.2,515.8,106.6z"/>
<path class="st4" d="M498.9,229.5c-1.7,0-3.6-0.2-5.4-0.7c-27.3-6.4-20-48.2-19.7-50l0.4-2.3l51.5,13.1l-0.2,1.8
	c-0.1,1-2.4,25-15.3,34.3C506.8,228.3,503,229.5,498.9,229.5z M477.6,181.9c-1.1,8.5-3.2,38,16.8,42.7c5.1,1.2,9.4,0.4,13.2-2.3
	c9.5-6.8,12.6-23.9,13.4-29.4L477.6,181.9z"/>
<path class="st4" d="M441.9,207.4c-2.6,0-5.3-0.6-8.1-1.7c-5.9-2.4-10-6.4-12-11.9c-5.1-13.7,4-31.9,4.4-32.7l0.9-1.7l42.5,15.6
	l-0.5,1.9c-0.2,0.9-5.7,21.9-18.8,28.5C447.5,206.7,444.8,207.4,441.9,207.4z M429.2,164.8c-2,4.7-7,17.8-3.4,27.5
	c1.6,4.4,4.8,7.5,9.6,9.5c4.7,1.9,8.8,1.8,12.8-0.2c9.3-4.7,14.5-18.8,16.1-23.9L429.2,164.8z"/>
<path class="st4" d="M521.8,202.6c-0.2,0-0.3,0-0.5-0.1l-46.7-11.4c-1.1-0.3-1.9-1.4-1.6-2.6c0.3-1.1,1.4-1.9,2.6-1.6l46.7,11.4
	c1.1,0.3,1.9,1.4,1.6,2.6C523.6,202,522.7,202.6,521.8,202.6z"/>
<path class="st4" d="M518.5,213.6c-0.2,0-0.4,0-0.5-0.1L474.6,202c-1.1-0.3-1.8-1.5-1.5-2.6s1.5-1.8,2.6-1.5l43.3,11.5
	c1.1,0.3,1.8,1.5,1.5,2.6C520.3,212.9,519.4,213.6,518.5,213.6z"/>
<path class="st4" d="M511.9,223.4c-0.2,0-0.4,0-0.6-0.1l-32.9-8.8c-1.1-0.3-1.8-1.5-1.5-2.6s1.5-1.8,2.6-1.5l32.9,8.8
	c1.1,0.3,1.8,1.5,1.5,2.6C513.7,222.8,512.8,223.4,511.9,223.4z"/>
<path class="st4" d="M463.1,185.6c-0.2,0-0.4,0-0.6-0.1L424.1,174c-1.1-0.3-1.8-1.5-1.4-2.7c0.3-1.1,1.5-1.8,2.7-1.4l38.4,11.5
	c1.1,0.3,1.8,1.5,1.4,2.7C464.9,185,464,185.6,463.1,185.6z"/>
<path class="st4" d="M460.4,194.4c-0.2,0-0.4,0-0.6-0.1l-37.3-11.5c-1.1-0.3-1.8-1.5-1.4-2.7c0.3-1.1,1.5-1.8,2.7-1.4l37.3,11.5
	c1.1,0.3,1.8,1.5,1.4,2.7C462.1,193.8,461.3,194.4,460.4,194.4z"/>
<path class="st4" d="M453.2,203.2c-0.2,0-0.5,0-0.7-0.1l-29.6-10.4c-1.1-0.4-1.7-1.6-1.3-2.7c0.4-1.1,1.6-1.7,2.7-1.3L454,199
	c1.1,0.4,1.7,1.6,1.3,2.7C455,202.6,454.1,203.2,453.2,203.2z"/>
<path class="st4" d="M619.8,202.1c-0.1,0-0.1,0-0.2,0l-96.5-8.6c-1.2-0.1-2-1.1-1.9-2.3s1.1-2.1,2.3-1.9l96.5,8.6
	c1.2,0.1,2,1.1,1.9,2.3C621.9,201.2,620.9,202.1,619.8,202.1z"/>
<path class="st4" d="M475.9,181.4c-0.2,0-0.4,0-0.7-0.1l-8.9-2.9c-1.1-0.4-1.7-1.6-1.4-2.7c0.4-1.1,1.6-1.7,2.7-1.4l8.9,2.9
	c1.1,0.4,1.7,1.6,1.4,2.7C477.6,180.8,476.8,181.4,475.9,181.4z"/>
<path class="st4" d="M403.6,210.5c-0.6,0-1.2-0.1-1.7-0.3c-2.1-0.7-2.9-2.6-3.6-4.4c-0.3-0.6-0.6-1.4-1-2.1
	c-1.2-2.2-0.9-4.5,0.8-6.5c0.6-0.7,1.3-1.2,2.1-1.7c-0.4-0.6-0.4-1.4,0-2.1c0.3-0.5,1.2-1.8,3.5-1.4c1.2,0.2,3,0.9,4.7,1.9
	c0.4,0.1,0.7,0.2,1.1,0.3c1.8,0.7,2.5,1.8,2.7,2.6c1.3,1.4,2.3,2.9,2.6,4.5c0.3,1.5,0.1,4.4-3.9,6.5
	C407.7,209.7,405.4,210.5,403.6,210.5z M410.5,202.4c-0.4,0.5-0.8,1-1.3,1.5C410.3,203.3,410.5,202.8,410.5,202.4z M406.4,197.9
	c0.2,0.6,0.3,1.3,0.5,2.2c0.5-0.6,0.8-1,1-1.4c-0.4-0.3-0.8-0.6-1.2-0.8C406.6,197.9,406.5,197.9,406.4,197.9z"/>
<path class="st3" d="M455,222.7c-0.9,0-1.9-0.2-2.8-0.5c-1.1-0.4-1.7-1.6-1.3-2.7c0.4-1.1,1.6-1.7,2.7-1.3c1.2,0.4,2.2,0.3,3.2-0.2
	c3.5-1.9,5.6-8.8,6.2-11.3c0.3-1.2,1.4-1.9,2.5-1.6c1.2,0.3,1.9,1.4,1.6,2.5c-0.2,1.1-2.5,10.9-8.3,14.1
	C457.7,222.3,456.4,222.7,455,222.7z"/>
<g>
	<polygon points="274.8,265.8 296.4,263.1 300.7,276.8 323.7,274.3 323.3,258 350.6,253.7 353.3,287.5 272,284.8 	"/>
	<polygon points="269.8,271.8 268.7,280.6 254,280 254,274.7 	"/>
	<path class="st4" d="M356.2,253.6l2.3,32.3c0,0,18.2,11.2,24.1-11.7C388.5,251.2,367.9,241.3,356.2,253.6z"/>
	<path class="st4" d="M311.3,272.8c-1.1,0-2-0.8-2.1-1.9l-1.8-13.9c-0.2-1.2,0.7-2.2,1.8-2.4c1.1-0.2,2.3,0.7,2.4,1.8l1.8,13.9
		c0.2,1.2-0.7,2.2-1.8,2.4C311.5,272.8,311.4,272.8,311.3,272.8z"/>
	<path class="st4" d="M304.7,273.9c-1,0-1.8-0.7-2.1-1.6l-3.3-13.2c-0.3-1.1,0.4-2.3,1.6-2.6c1.2-0.3,2.3,0.4,2.6,1.6l3.3,13.2
		c0.3,1.1-0.4,2.3-1.6,2.6C305,273.9,304.9,273.9,304.7,273.9z"/>
	<path class="st4" d="M318.3,271.7c-1.1,0-2.1-0.9-2.1-2l-0.7-15c-0.1-1.2,0.9-2.2,2-2.2c1.3,0,2.2,0.9,2.2,2l0.7,15
		c0.1,1.2-0.9,2.2-2,2.2C318.3,271.7,318.3,271.7,318.3,271.7z"/>
	<path class="st4" d="M386,319.9c-18.5,0-42.2-6-64.9-28.7c-0.8-0.8-0.8-2.2,0-3s2.2-0.8,3,0c45.2,45.2,92.6,21.7,94.6,20.6
		c1-0.5,2.3-0.1,2.9,0.9c0.5,1.1,0.1,2.3-0.9,2.9C420.4,312.8,406.2,319.9,386,319.9z"/>
</g>
<path class="st4" d="M586,350.8c-10.4,0-24.8-2.7-43.2-8.2c-1.1-0.3-1.8-1.5-1.4-2.7c0.3-1.1,1.5-1.8,2.7-1.4
	c43.5,12.8,54.5,7.3,57.3,2.9c5.8-9.4-11.6-31.4-18.8-39.1c-0.8-0.9-0.8-2.2,0.1-3c0.9-0.8,2.2-0.8,3,0.1
	c2.9,3.1,27.9,30.4,19.3,44.3C601.9,348.4,595.7,350.8,586,350.8z"/>
<g>
	<polygon class="st4" points="115.4,174.8 176.2,185.1 159.5,251.4 142.8,250.9 146.9,279.1 126.3,249.9 108.9,247.7 	"/>
	<path class="st3" d="M136.5,230.8l-12-15.7c-1.9-2.5-2.8-5.6-2.2-8.6c0.6-3.1,3.1-7,9.4-6.8c12.6,0.4,9.3,11.3,9.3,11.3
		s5.6-12.1,14.5-6.7c9.9,6.1,2.4,14.1-2.6,17S136.5,230.8,136.5,230.8z"/>
</g>
<path class="st2" d="M79.6,284.5c-0.9,0-1.7-0.5-1.9-1.4l-5.1-15.3c-0.4-1.1,0.2-2.2,1.3-2.6c1.1-0.4,2.2,0.2,2.6,1.3l5.1,15.3
	c0.4,1.1-0.2,2.2-1.3,2.6C80,284.5,79.8,284.5,79.6,284.5z"/>
<path class="st2" d="M71.9,288.7c-0.5,0-1-0.2-1.4-0.5l-11.9-11.1c-0.8-0.8-0.9-2.1-0.1-2.9c0.8-0.8,2.1-0.9,2.9-0.1l11.9,11.1
	c0.8,0.8,0.9,2.1,0.1,2.9C73,288.5,72.5,288.7,71.9,288.7z"/>
<path class="st2" d="M68.6,296c-0.1,0-0.2,0-0.4,0l-14.5-2.6c-1.1-0.2-1.9-1.3-1.7-2.4s1.3-1.9,2.4-1.7l14.5,2.6
	c1.1,0.2,1.9,1.3,1.7,2.4C70.4,295.3,69.6,296,68.6,296z"/>
<path class="st2" d="M226.7,246.7c-0.1,0-0.2,0-0.2,0c-1.1-0.1-1.9-1.1-1.8-2.3l1.5-13.6c0.1-1.1,1.2-1.9,2.3-1.8
	c1.1,0.1,1.9,1.1,1.8,2.3l-1.5,13.6C228.6,246,227.8,246.7,226.7,246.7z"/>
<path class="st2" d="M234.4,248.5c-0.4,0-0.8-0.1-1.1-0.3c-0.9-0.6-1.2-1.9-0.6-2.8l10.3-15.6c0.6-0.9,1.9-1.2,2.8-0.6
	c0.9,0.6,1.2,1.9,0.6,2.8l-10.3,15.6C235.7,248.2,235.1,248.5,234.4,248.5z"/>
<path class="st2" d="M239.3,256.4c-0.7,0-1.3-0.3-1.7-0.9c-0.6-0.9-0.4-2.2,0.5-2.8l10.5-7.1c0.9-0.6,2.2-0.4,2.8,0.5
	s0.4,2.2-0.5,2.8l-10.5,7.1C240.1,256.3,239.7,256.4,239.3,256.4z"/>
<path class="st2" d="M62,363.8l-19.7-1c-3.1-0.2-6.1-1.5-8-3.9c-2-2.4-3.4-6.9,0.8-11.6c8.4-9.4,14.6,0.2,14.6,0.2
	s-5.7-12.1,4.2-15.4c11-3.7,12.3,7.3,11.3,13C64.1,350.8,62,363.8,62,363.8z"/>
<path class="st3" d="M487.5,247.8c-20.5,0-50.3-10.4-54.7-12c-1.1-0.4-1.7-1.6-1.3-2.7c0.4-1.1,1.6-1.7,2.7-1.3
	c16.1,5.8,59.5,18.4,67.5,7.7c0.7-1,2-1.1,3-0.4c0.9,0.7,1.1,2,0.4,3C501.9,246.3,495.4,247.8,487.5,247.8z"/>
<path class="st3" d="M476.2,262c-4.3,0-9.4-1.1-15.2-3.4c-1.1-0.4-1.6-1.7-1.2-2.8c0.4-1.1,1.7-1.6,2.8-1.2
	c9.4,3.7,16.6,4.1,20.7,1.2c4.5-3.2,4.3-9.7,4.3-9.7c-0.1-1.2,0.9-2.2,2-2.2s2.2,0.8,2.2,2c0,0.4,0.4,8.8-6,13.4
	C483.3,261.1,480,262,476.2,262z"/>
<path d="M23.1,233.1c-0.4,0-0.7-0.1-1.1-0.3c-1.1-0.6-1.6-2-1-3.2c36.5-67.9,116.7-110.2,204.6-108c5.8-9.9,12.4-19.2,19.5-27.7
	c32-38,73-56.5,118.4-53.4c1.3,0.1,2.3,1.2,2.2,2.5c-0.1,1.3-1.2,2.2-2.5,2.2c-43.9-3-83.5,14.9-114.5,51.7
	c-7.2,8.6-13.8,18.1-19.7,28.2l-0.7,1.2h-1.4C140.3,123.8,61,165.2,25.2,231.8C24.8,232.6,24,233.1,23.1,233.1z"/>
<path d="M669.7,414.2c-0.6,0-1.3-0.3-1.7-0.8c-0.9-0.9-0.8-2.4,0.1-3.3c25.6-23.6,39.7-55.7,39.7-90.2c0-41.2-23.7-78.2-70.3-109.8
	c-1.1-0.7-1.3-2.2-0.6-3.2c0.7-1.1,2.2-1.3,3.2-0.6c48,32.6,72.3,70.8,72.3,113.7c0,35.9-14.6,69.1-41.2,93.7
	C670.8,414,670.3,414.2,669.7,414.2z"/>
<path d="M16.8,261.7c-1.3,0-2.6-0.3-3.9-0.9c-2.3-1-4-2.9-4.8-5.2c-0.9-2.3-0.8-4.8,0.3-7.1c2.2-4.6,7.7-6.7,12.3-4.5
	c2.3,1,4,2.9,4.8,5.2c0.9,2.3,0.8,4.8-0.3,7.1C23.6,259.7,20.3,261.7,16.8,261.7z M16.8,247.8c-1.7,0-3.4,1-4.2,2.7
	c-0.5,1.1-0.6,2.4-0.1,3.5c0.4,1.2,1.3,2.1,2.4,2.6c2.3,1.1,5,0.1,6.1-2.3c0.5-1.1,0.6-2.4,0.1-3.5c-0.4-1.2-1.3-2.1-2.4-2.6
	C18.1,248,17.4,247.8,16.8,247.8z"/>
<circle cx="13.9" cy="275.3" r="4"/>
<circle cx="659.8" cy="420.6" r="4"/>
<path class="st4" d="M393.4,30.1L393.4,30.1c0,9.6,7.8,17.3,17.3,17.3l0,0l0,0c-9.6,0-17.3,7.8-17.3,17.3l0,0l0,0
	c0-9.6-7.8-17.3-17.3-17.3l0,0l0,0C385.7,47.5,393.4,39.7,393.4,30.1L393.4,30.1z"/>
</svg>
