<?xml version="1.0" encoding="utf-8"?>
<!-- Generator: Adobe Illustrator 27.1.1, SVG Export Plug-In . SVG Version: 6.00 Build 0)  -->
<svg version="1.1" id="Calque_1" xmlns="http://www.w3.org/2000/svg" xmlns:xlink="http://www.w3.org/1999/xlink" x="0px" y="0px"
	 viewBox="0 0 720 524" style="enable-background:new 0 0 720 524;" xml:space="preserve">
<style type="text/css">
	.st0{fill:#EDEDED;}
	.st1{fill:#5E5EF7;}
	.st2{fill:#C6C6C5;}
	.st3{fill:#FFFFFF;}
	.st4{fill:#151819;}
	.st5{fill:#575756;}
</style>
<g>
	<path class="st0" d="M312.9,477.5c66.7,0.7,311.3,19,246-156.3c0,0,116.9-6.8,114.2-112.8s-161.8-218.8-295-69.3
		s-151.4,124.3-240.6,91.1C79.1,208.4-104.4,473.5,312.9,477.5z"/>
	<path d="M667.1,316.9c-0.6,0-1.3-0.3-1.7-0.8c-0.9-1-0.8-2.4,0.1-3.3c28.7-26.4,43.3-62.9,42.3-105.3
		c-1.1-44.3-22.4-88.9-58.5-122.5c-0.9-0.9-1-2.4-0.1-3.3s2.4-1,3.3-0.1c36.9,34.4,58.8,80.3,60,125.8c1.1,43.9-14,81.5-43.8,108.9
		C668.2,316.7,667.7,316.9,667.1,316.9z"/>
	<path d="M466.8,510.2c-1.1,0-2.1-0.8-2.3-1.9c-0.2-1.3,0.6-2.5,1.9-2.7c55.4-10.2,94.8-31.3,117.3-62.8c0.8-1.1,2.2-1.3,3.3-0.5
		s1.3,2.2,0.5,3.3c-23.2,32.5-63.6,54.3-120.2,64.6C467.1,510.2,466.9,510.2,466.8,510.2z"/>
	<path d="M19.9,399.1c-0.9,0-1.8-0.5-2.2-1.4c-26.1-62,1.4-130.6,40.2-171.1c14-14.6,28.7-25.1,43.7-31.2c1.2-0.5,2.6,0.1,3.1,1.3
		s-0.1,2.6-1.3,3.1c-14.3,5.8-28.5,16-42.1,30.1c-37.7,39.4-64.5,106-39.3,166c0.5,1.2-0.1,2.6-1.3,3.1
		C20.5,399,20.2,399.1,19.9,399.1z"/>
	<path d="M34.7,424.9c-0.5,0-1.1,0-1.6-0.1c-2.5-0.4-4.6-1.8-6-3.8s-2-4.5-1.6-7s1.8-4.6,3.8-6s4.5-2,7-1.6
		c5.1,0.9,8.5,5.7,7.6,10.8l0,0C43.1,421.7,39.2,424.9,34.7,424.9z M34.7,410.9c-0.9,0-1.9,0.3-2.6,0.8c-1,0.7-1.7,1.8-1.9,3
		c-0.2,1.2,0.1,2.4,0.8,3.5c0.7,1,1.8,1.7,3,1.9c2.5,0.5,4.9-1.2,5.4-3.8c0.4-2.5-1.2-4.9-3.8-5.4C35.3,411,35,410.9,34.7,410.9z
		 M41.6,416.8L41.6,416.8L41.6,416.8z"/>
	<circle cx="54.8" cy="433" r="4"/>
	<path class="st1" d="M599,410.5L599,410.5c0,9.6,7.8,17.4,17.4,17.4l0,0l0,0c-9.6,0-17.4,7.8-17.4,17.4l0,0l0,0
		c0-9.6-7.8-17.4-17.4-17.4l0,0l0,0C591.2,427.9,599,420.1,599,410.5L599,410.5z"/>
	<circle cx="634.7" cy="74.2" r="4"/>
</g>
<g>
	<polygon class="st1" points="466.1,61.6 467.8,73.1 612,74.7 608.7,60 	"/>
	<polygon class="st1" points="467.8,81.3 546.4,81.3 544.8,91.1 467.8,89.5 	"/>
	<circle class="st2" cx="453.2" cy="179.5" r="30.3"/>
	<polygon class="st2" points="489.1,156.7 490.7,171.4 612,171.4 608.7,155.1 	"/>
	<polygon class="st2" points="492.4,181.3 557.9,181.3 554.6,191.1 494,191.1 	"/>
	<polygon class="st2" points="493.8,199.2 570.2,199.2 569.3,204.8 492.9,203 	"/>
	<circle class="st2" cx="453.2" cy="256.8" r="30.3"/>
	<polygon class="st2" points="492,237.4 635.4,235.6 634.5,244.9 490.1,245.8 	"/>
	<polygon class="st2" points="491,254.2 578.6,253.3 578.6,261.7 492.9,262.6 	"/>
	<polygon class="st2" points="492.9,271.9 598.2,272.8 598.2,278.4 493.8,278.4 	"/>
	<circle class="st2" cx="453.2" cy="403" r="30.3"/>
	<polygon class="st2" points="489.2,381.8 603.8,380.9 603.8,394.9 490.1,393 	"/>
	<polygon class="st2" points="490.1,403.3 592.6,403.3 591.6,409.8 493.8,409.8 	"/>
	<polygon class="st2" points="490.1,418.2 531.1,418.2 530.2,423.7 489.2,423.7 	"/>
	<g>
		<polygon class="st3" points="419.6,299.6 422.8,361.6 634.9,359.2 641.3,302.8 		"/>
		<path class="st1" d="M420.8,363.7l-3.4-66.3l226.3,3.2l-6.8,60.6L420.8,363.7z M421.9,301.8l3,57.6L633,357l5.9-52.1L421.9,301.8z
			"/>
	</g>
	<path class="st1" d="M531.4,334c-0.7,0-1.4-0.4-1.8-1c-0.6-1-0.3-2.3,0.7-3c0.6-0.3,55.4-35.5,63.8-93.3
		c5.3-36.8-9.1-74.9-42.8-113.2c-0.8-0.9-0.7-2.2,0.2-3s2.2-0.7,3,0.2c34.6,39.3,49.3,78.5,43.8,116.7
		c-8.6,59.7-65.2,95.9-65.7,96.3C532.2,333.9,531.8,334,531.4,334z"/>
	<path class="st1" d="M555.8,143.8c-0.9,0-1.8-0.6-2.1-1.5l-7.3-24.6l27.1,3.6c1.2,0.2,2,1.2,1.8,2.4c-0.2,1.2-1.3,2-2.4,1.8
		l-20.5-2.7l5.4,18.3c0.3,1.1-0.3,2.3-1.5,2.7C556.2,143.8,556,143.8,555.8,143.8z"/>
</g>
<g>
	<g transform="matrix(1, 0, 0, 1, 27.009001, -39.238998)">
		<path class="st1" d="M144.9,502.2c1.6-3.2,2.8-6.3,3.8-9.5L103.3,470l-9.1,18.1l26,13c-4.1,5.4-10.1,8.7-16.8,9.6l-6,12.1
			l15.5,7.8C126.2,526.6,137.6,516.8,144.9,502.2z"/>
		<path class="st4" d="M75.2,526.2c13,6.5,26.1,7.6,37.7,4.2l-9.5-19.8c-5.8,0.7-12.2-0.3-18.7-3.5c-12.6-6.3-19-20.1-17.1-33.5
			l-16-8L45.4,478C45.5,497.8,56.3,516.8,75.2,526.2z"/>
		<path class="st1" d="M67.6,473.7c0.4-3.4,1.5-6.8,3.1-10s3.7-6,6.1-8.4l6.2-12.4l-16-8c-6.6,4.9-12.1,11.2-16,19
			s-5.7,16.1-5.6,24.2L67.6,473.7z"/>
		<path d="M113.9,448.9c7.1,3.6,12.2,9.2,14.9,16.5l20.6-6.9c-4.4-12-12.9-22.2-25.9-28.7c-18.8-9.4-40.6-6.7-56.3,5.1l9.8,20.4
			C86.4,445.7,101.3,442.6,113.9,448.9z"/>
	</g>
	<path class="st1" d="M156.8,62.7c0,0,24.6,27.1,61.5,21.3c37-5.8,52.8-62.8,52.8-62.8s-58.7-3.8-56,41.4c0,0-17.9-57.5-70.1-56
		C145,6.6,136.8,32.1,156.8,62.7z"/>
	<path class="st3" d="M204.6,81.3c-0.6-0.1-15.4-1.7-29.8-10.3c-13.4-8.1-28.9-24.1-26.3-54.2l0.1-1.6l1.6-0.3
		c1.3-0.2,33-5.7,56.7,40l-3.8,2c-19.4-37.4-43.9-38.4-50.5-37.9c-1.3,21.5,6.8,37.7,24.3,48.3c13.6,8.2,27.9,9.8,28.1,9.8
		L204.6,81.3z"/>
	<path class="st3" d="M244.9,62.1l-2.4-3.5c12.9-8.9,15.7-22.2,16.3-27.2c-27.1-1.5-37.4,24.6-37.5,24.9l-4-1.5
		c0.1-0.3,12.2-30.7,44-27.4l1.9,0.2v2C263.2,30.2,262.9,49.7,244.9,62.1z"/>
	<path d="M281.9,377c0,0-120-6.9-145.5-135.7s63.9-166.2,63.9-166.2l-1-18.7l46.2-2l5.9,21.6c0,0,183.9,52.1,105.2,270.4l-10.8,44.2
		l-68.8,4.9L281.9,377z"/>
	<path class="st3" d="M310.1,385.2c-8.3,0-14.9-12.7-16.8-17c-12.7-1.3-113.5-14.6-142.2-117.5C122.7,149,201.3,95.5,213.5,87.9
		c-2.6-7.9-2.5-13.2,0.4-16.2c2.8-2.8,7-2.3,8.8-1.9c2.3-1,8.6-3.7,12.5-2.8c4.2,1,14.1,12.8,17.5,17c7.5,3.2,92.9,42,110.9,126.2
		C377.7,276.4,361,315.8,352,337c-2.8,6.7-5.1,12-5.1,15.3c0,15.5-9.2,23.9-9.6,24.2l-0.6,0.5h-13.2c-1.3,2.2-4.5,6.2-11.7,7.8
		C311.3,385.1,310.7,385.2,310.1,385.2z M219.7,73.8c-1,0-2.1,0.2-2.8,0.9c-0.8,0.8-2.3,3.8,1.1,13.4l0.6,1.7l-1.6,0.9
		c-0.9,0.5-91.6,52.6-61.9,158.8C184.9,355.9,293.8,364,294.8,364l1.3,0.1l0.5,1.2c1.9,4.4,8.4,16.8,14.3,15.5
		c7.4-1.7,9.2-6.3,9.3-6.5l0.5-1.4h1.5h12.9c1.8-1.9,7.6-9,7.6-20.5c0-4.1,2.3-9.5,5.4-17c8.8-20.7,25.2-59.3,11.3-124.2
		c-18.2-85.4-107.9-123-108.8-123.3l-0.5-0.2l-0.3-0.4c-5.9-7.3-13.6-15.5-15.6-16c-2.2-0.6-7.3,1.3-10.3,2.8l-0.8,0.4l-0.8-0.3
		C222.2,74.2,221,73.8,219.7,73.8z"/>
	<path class="st3" d="M305.6,220.8c-1.3,0-2.6-0.3-3.8-0.9c-10.1-4.8-11.2-28.8-11.3-31.5c0-1.2,0.9-2.2,2.1-2.2
		c1.3-0.2,2.2,0.9,2.2,2.1c0.3,9.3,3,25,8.8,27.8c2.1,1,4.6,0.3,7.7-2c0.9-0.7,2.3-0.5,3,0.4s0.5,2.3-0.4,3
		C311,219.7,308.2,220.8,305.6,220.8z"/>
	<path class="st3" d="M262.4,218.4c-0.4,0-0.8-0.1-1.1-0.3c-1-0.6-1.3-2-0.7-3c0.9-1.4,8.8-13.2,16.9-12.8c3.7,0.2,6.8,2.8,9.1,7.6
		c0.5,1.1,0.1,2.4-1,2.9s-2.4,0.1-2.9-1c-1.6-3.3-3.4-5-5.4-5.1c-4.9-0.2-11.2,7.9-13,10.8C263.9,218.1,263.2,218.4,262.4,218.4z"/>
	<path class="st3" d="M307.9,195.6c-0.5,0-1-0.2-1.4-0.5c-0.9-0.8-1-2.1-0.3-3c0.8-1,8.3-9.6,15.9-8.8c3.4,0.4,6.1,2.6,8.1,6.5
		c0.5,1.1,0.1,2.4-1,2.9s-2.4,0.1-2.9-1c-1.3-2.6-2.8-4-4.7-4.2c-4.3-0.5-10.2,5.1-12.1,7.3C309.1,195.3,308.5,195.6,307.9,195.6z"
		/>
	<path class="st1" d="M240,243.3c-1.8,0-4.1-0.8-7.3-2.5c-4-2.1-4.1-5-3.9-6.5c0.3-1.6,1.3-3.2,2.6-4.6c0.3-0.8,0.9-2,2.7-2.7
		c0.3-0.1,0.7-0.2,1.1-0.3c1.7-1,3.5-1.7,4.7-1.9c2.4-0.4,3.3,0.8,3.6,1.4c0.4,0.7,0.3,1.5,0,2.1c0.8,0.5,1.5,1.1,2.1,1.7
		c1.7,2,2,4.3,0.8,6.5c-0.4,0.7-0.7,1.4-1,2.1c-0.8,1.8-1.6,3.7-3.7,4.4C241.2,243.2,240.6,243.3,240,243.3z M233,235.2
		c0,0.4,0.2,0.9,1.3,1.5C233.9,236.2,233.4,235.7,233,235.2z M235.7,231.5c0.2,0.4,0.5,0.8,1,1.4c0.1-0.9,0.3-1.6,0.5-2.2
		c-0.1,0-0.3,0-0.5,0C236.4,231.1,236.1,231.3,235.7,231.5z"/>
	<path class="st3" d="M303.8,270.4c-0.5,0-0.9,0-1.4,0c-21.8-1-36.9-25.8-37.5-26.8l-1.8-2.9l3.4-0.3c40.2-3.6,68.5-24.1,68.8-24.3
		c0.9-0.7,2.3-0.5,3,0.5s0.5,2.3-0.5,3c-1.1,0.9-27.9,20.3-67.3,24.8c4.6,6.4,16.8,21.1,32.1,21.9c10.9,0.5,21.7-6.2,31.9-20.1
		c0.7-1,2.1-1.2,3-0.5c1,0.7,1.2,2,0.5,3C327.3,263.1,315.8,270.4,303.8,270.4z"/>
	<path class="st1" d="M355.2,199.7c-1.8,0-4.1-0.8-7.3-2.5c-4-2.1-4.1-5-3.9-6.5c0.3-1.6,1.3-3.2,2.6-4.6c0.3-0.8,0.9-2,2.7-2.7
		c0.3-0.1,0.7-0.2,1.1-0.3c1.7-1,3.5-1.7,4.7-1.9c2.4-0.4,3.3,0.8,3.6,1.4c0.4,0.7,0.3,1.5,0,2.1c0.8,0.5,1.5,1.1,2.1,1.7
		c1.7,2,2,4.3,0.8,6.5c-0.4,0.7-0.7,1.4-1,2.1c-0.8,1.8-1.6,3.7-3.7,4.4C356.4,199.6,355.8,199.7,355.2,199.7z M348.3,191.6
		c0,0.4,0.2,0.9,1.3,1.6C349.1,192.6,348.7,192.1,348.3,191.6z M351,187.9c0.2,0.4,0.5,0.8,1,1.4c0.1-0.9,0.3-1.6,0.5-2.2
		c-0.2,0-0.3,0-0.5,0C351.6,187.4,351.3,187.7,351,187.9z"/>
	<path class="st1" d="M285.2,455.6h-31.1l25.8-79.3c0.4-1.1,1.6-1.8,2.7-1.4s1.7,1.6,1.4,2.7l-24,73.7h21.2
		c-0.1-2.3-0.7-5.7-2.8-7.3c-1.9-1.5-4.9-1.6-8.9-0.2c-1.1,0.4-2.3-0.2-2.7-1.4c-0.4-1.1,0.2-2.3,1.4-2.7c5.5-1.8,9.9-1.5,13,1
		c5.2,4.2,4.3,12.7,4.3,13L285.2,455.6z"/>
	<path class="st1" d="M333.2,454.7h-33.7l17-62.5c0.3-1.1,1.5-1.8,2.6-1.5s1.8,1.5,1.5,2.6l-15.5,57.1h24c-0.1-1.9-0.7-4.8-2.9-6.7
		c-2.5-2.1-6.7-2.4-12.5-0.9c-1.2,0.3-2.3-0.4-2.6-1.5c-0.3-1.1,0.4-2.3,1.5-2.6c7.2-2,12.7-1.4,16.4,1.7c5.2,4.4,4.4,12,4.4,12.3
		L333.2,454.7z"/>
	<path class="st5" d="M269.4,120.4c0,0,14.1,33.9,38.9,33.1s-14.1-31.4-19-33.1C284.3,118.8,271.9,114.6,269.4,120.4z"/>
	<path class="st5" d="M253.7,108.8c0,0-10.8-9.9,0-10.8c10.8-0.8,20.7,5.8,18.2,9.9C269.4,112.1,266.1,115.5,253.7,108.8z"/>
	<path d="M235.7,454.9h114.6v40.3h59.6v20.2H180.4v-34.3h55.3C235.7,481.1,235.7,448.9,235.7,454.9z"/>
	<path class="st1" d="M415.1,38.7c-13.1,0-24.7,6.2-32.1,15.7l13.6,5.6l-10.1,19.5l-12-2.7c-0.1,0.9-0.1,1.7-0.1,2.6
		c0,22.5,18.2,40.7,40.7,40.7s40.7-18.2,40.7-40.7S437.6,38.7,415.1,38.7z"/>
	<path class="st1" d="M328.3,124.9c-1.1,0-2-0.8-2.1-2c-0.1-1.5-2.9-38.1,17.2-53.9c10.3-8.1,24.6-9.2,42.5-3.4
		c1.1,0.4,1.7,1.6,1.4,2.7c-0.4,1.1-1.6,1.7-2.7,1.4c-16.5-5.4-29.4-4.5-38.5,2.6c-18.3,14.4-15.6,49.9-15.5,50.2
		c0.1,1.2-0.8,2.2-2,2.3C328.4,124.9,328.4,124.9,328.3,124.9z"/>
	<path class="st1" d="M383.5,76c-0.2,0-0.4,0-0.6-0.1l-10.3-3.2c-1.1-0.3-1.8-1.5-1.4-2.7c0.3-1.1,1.5-1.8,2.7-1.4l10.3,3.2
		c1.1,0.3,1.8,1.5,1.4,2.7C385.3,75.5,384.4,76,383.5,76z"/>
	<path class="st1" d="M388.5,64.9c-0.2,0-0.4,0-0.6-0.1l-12.2-3.6c-1.1-0.3-1.8-1.5-1.5-2.7c0.3-1.1,1.5-1.8,2.7-1.5l12.2,3.6
		c1.1,0.3,1.8,1.5,1.5,2.7C390.3,64.3,389.5,64.9,388.5,64.9z"/>
	<polygon class="st3" points="394.7,83.1 403.9,86.9 410.8,73.4 419.7,97.1 429.2,93.5 415.6,57.1 405.6,60.9 	"/>
	<path class="st1" d="M163.1,412.6c-0.8,0-1.6-0.5-1.9-1.2c-0.5-1.1,0-2.4,1-2.9c38.9-18,40.8-60.1,40.8-60.5c0-1.2,0.9-2.2,2.2-2.1
		c1.2,0,2.1,1,2.1,2.2c0,0.5-2,45.1-43.3,64.2C163.7,412.6,163.4,412.6,163.1,412.6z"/>
	<path class="st1" d="M159.2,406.6c-0.9,0-1.7-0.6-2-1.5c-0.4-1.1,0.2-2.3,1.4-2.7c1.8-0.6,6.8-2.5,8.6-4.5c0.8-0.9,2.2-0.9,3-0.1
		c0.9,0.8,0.9,2.2,0.1,3c-2.9,3.2-9.7,5.5-10.5,5.7C159.6,406.6,159.4,406.6,159.2,406.6z"/>
	<path class="st1" d="M165.4,418.2c-0.9,0-1.7-0.5-2-1.4c-0.4-1.1,0.1-2.4,1.3-2.8c4.4-1.6,9.6-4,10.4-5c0.6-1,1.8-1.4,2.9-0.8
		c1,0.6,1.4,1.9,0.8,3c-1.3,2.3-7.5,5-12.6,6.9C166,418.2,165.7,418.2,165.4,418.2z"/>
</g>
</svg>
