<?xml version="1.0" encoding="utf-8"?>
<!-- Generator: Adobe Illustrator 27.1.1, SVG Export Plug-In . SVG Version: 6.00 Build 0)  -->
<svg version="1.1" id="Calque_1" xmlns="http://www.w3.org/2000/svg" xmlns:xlink="http://www.w3.org/1999/xlink" x="0px" y="0px"
	 viewBox="0 0 720 489" style="enable-background:new 0 0 720 489;" xml:space="preserve">
<style type="text/css">
	.st0{fill:#EDEDED;}
	.st1{fill:#5E5EF7;}
	.st2{fill:#FFFFFF;}
	.st3{fill:#575756;}
	.st4{fill:#ECECEC;}
</style>
<path class="st0" d="M237.6,371.7c-57.2,23.7-166.5,53.6-189.9-62.4s114.5-128.5,114.5-128.5s42.9-98.6,95-84.8s44.2,56.1,44.2,56.1
	s13-111,134-97.3s147,182.1,147,182.1s136.6,43.7,78.1,109.8C601.8,412.8,237.6,371.7,237.6,371.7z"/>
<path class="st1" d="M131.2,156.7c0,0,28.7,10.8,54.1-7.7s15.4-67.1,15.4-67.1s-45.3,19.7-26,52.4c0,0-35.3-36.1-73.8-15
	C101,119.3,104.6,141.5,131.2,156.7z"/>
<path class="st2" d="M152,156c-15.2,0-34.3-5.6-44.5-30.4l-0.5-1.3l1.1-0.8c0.9-0.7,22.5-16.9,57.6,8.1c0.8,0.6,1,1.7,0.4,2.5
	s-1.7,1-2.5,0.4c-28.5-20.3-47.5-11.7-52.2-9c17.4,39.9,59.5,24,61.3,23.3c0.9-0.4,2,0.1,2.3,1c0.4,0.9-0.1,2-1,2.3
	C173.9,152.4,164.2,156,152,156z"/>
<path class="st2" d="M175.1,129.1c-0.9,0-1.7-0.7-1.8-1.6c0-0.3-2.6-27.6,22.4-37.3l1.5-0.6L198,91c0.3,0.6,7.5,15.3-1.2,31.5
	c-0.5,0.9-1.6,1.2-2.4,0.7c-0.9-0.5-1.2-1.6-0.7-2.4c6.3-11.6,3.3-22.6,1.8-26.6c-20.7,9.2-18.6,31.9-18.5,32.9c0.1,1-0.6,1.9-1.6,2
	C175.3,129.1,175.2,129.1,175.1,129.1z"/>
<path class="st1" d="M264.1,472.8H226l33.1-75.2c0.5-1,1.7-1.5,2.7-1s1.5,1.7,1.1,2.7l-30.6,69.5h27.3c-0.5-2.6-1.7-6.9-4.9-8.7
	c-2.8-1.5-6.7-0.9-11.7,1.9c-1,0.5-2.2,0.2-2.8-0.8s-0.2-2.2,0.8-2.8c6.3-3.5,11.6-4.2,15.7-1.9c6.7,3.7,7.2,13.8,7.2,14.2
	L264.1,472.8z"/>
<path d="M164.5,128.3l3.9,15.1c0,0-71.9,59.2-52.7,148.6s91.2,108.3,91.2,108.3l-7.7,25.2l51.4-2.5c0,0,86.6-86.4,69.3-166.2
	c-23.1-107-111.7-122.1-111.7-122.1l-6.4-11.3L164.5,128.3z"/>
<path class="st2" d="M210.1,417.7l3.9-22.3c-12.4-4-84.7-30.9-91.6-113.3c-7.1-84.1,40.5-125.9,46.7-131l2.6-15.8l11.2-1.4l14.1-8.5
	l8.1,16.2c9.3,2,77.9,19.7,103.8,107c27.8,93.5-66.5,165.2-67.5,165.9l-0.5,0.3L210.1,417.7z M175.4,138.9l-2.4,14.4l-0.7,0.5
	c-0.1,0.1-13.5,10.2-25.7,30.9c-11.3,19.1-23.9,51.4-20.1,97c7.3,86.9,89.6,110,90.4,110.3l1.8,0.5l-3.6,20.6l24.4-2.2
	c7-5.4,91.5-73.7,65.6-161.1c-14.1-47.5-41.1-73.4-61.2-86.7c-21.7-14.4-40.3-17.6-40.4-17.6l-1-0.2l-7-14.1l-11.5,6.7L175.4,138.9z
	"/>
<path class="st1" d="M218.6,472.8H182l22.9-73.1c0.3-1.1,1.5-1.7,2.6-1.3c1.1,0.3,1.7,1.5,1.3,2.6l-21.3,67.8h26.9
	c-0.3-1.9-1.1-4.9-3.5-6.7c-3.1-2.3-8.1-2.3-14.9,0.1c-1.1,0.4-2.2-0.2-2.6-1.3c-0.4-1.1,0.2-2.2,1.3-2.6c8.2-2.8,14.5-2.7,18.7,0.5
	c5.6,4.2,5.2,11.8,5.2,12.1L218.6,472.8z"/>
<path class="st1" d="M193.5,292.9c-1.7,0-3.9-0.8-6.9-2.4c-3.8-2-3.9-4.8-3.7-6.2c0.3-1.6,1.2-3,2.5-4.3c0.2-0.8,0.9-1.9,2.6-2.5
	c0.3-0.1,0.7-0.2,1-0.3c1.6-1,3.3-1.7,4.5-1.8c2.2-0.4,3.1,0.8,3.4,1.3c0.3,0.7,0.3,1.4,0,2c0.8,0.5,1.4,1,2,1.7
	c1.6,1.9,1.9,4.1,0.8,6.2c-0.4,0.7-0.7,1.4-0.9,2c-0.7,1.7-1.5,3.5-3.5,4.2C194.6,292.9,194.1,292.9,193.5,292.9z M186.9,285.2
	c0,0.4,0.2,0.9,1.2,1.5C187.6,286.2,187.2,285.7,186.9,285.2z M189.4,281.7c0.2,0.3,0.5,0.8,1,1.4c0.1-0.8,0.3-1.5,0.4-2.1
	c-0.2,0-0.3,0-0.5,0C190.1,281.3,189.7,281.5,189.4,281.7z"/>
<path class="st1" d="M303.2,251.4c-1.7,0-3.9-0.8-6.9-2.4c-3.8-2-3.9-4.8-3.7-6.2c0.3-1.6,1.2-3,2.5-4.3c0.2-0.8,0.9-1.9,2.6-2.5
	c0.3-0.1,0.7-0.2,1-0.3c1.6-1,3.3-1.7,4.5-1.8c2.2-0.4,3.1,0.8,3.4,1.3c0.3,0.7,0.3,1.4,0,2c0.8,0.5,1.4,1,2,1.7
	c1.6,1.9,1.9,4.1,0.8,6.2c-0.4,0.7-0.7,1.4-0.9,2c-0.7,1.7-1.5,3.5-3.5,4.2C304.4,251.3,303.8,251.4,303.2,251.4z M296.6,243.7
	c0,0.4,0.2,0.9,1.2,1.5C297.4,244.6,297,244.1,296.6,243.7z M299.2,240.2c0.2,0.3,0.5,0.8,1,1.4c0.1-0.8,0.3-1.5,0.4-2.1
	c-0.3,0-0.3,0-0.5,0C299.8,239.7,299.5,239.9,299.2,240.2z"/>
<path class="st3" d="M221.5,175.9c0,0,13.4,32.3,37,31.5s-13.4-29.9-18.1-31.5C235.7,174.3,223.9,170.4,221.5,175.9z"/>
<path class="st3" d="M206.6,164.9c0,0-10.2-9.5,0-10.2c10.2-0.8,19.7,5.5,17.3,9.5S218.4,171.2,206.6,164.9z"/>
<g>
	<path class="st2" d="M260,272.5c-1.2,0-2.3-0.3-3.4-0.8c-8.8-4.2-9.7-24.9-9.8-27.2c0-1.1,0.8-2.1,2-2.1s2.1,0.8,2.1,2
		c0.3,7.9,2.5,21.3,7.5,23.7c0.6,0.3,2.5,1.2,6.4-1.7c0.9-0.7,2.2-0.5,2.9,0.4c0.7,0.9,0.5,2.2-0.4,2.9
		C264.7,271.5,262.2,272.5,260,272.5z"/>
	<path class="st2" d="M219.5,269.8c-0.2,0-0.3,0-0.5-0.1c-1.1-0.3-1.8-1.4-1.5-2.5s2.8-10.8,9.6-12.4c4.1-0.9,8.5,1.4,13.1,6.9
		c0.7,0.9,0.6,2.2-0.3,2.9c-0.9,0.7-2.2,0.6-2.9-0.3c-2.4-2.9-6-6.2-9-5.5c-3.7,0.8-6,7-6.5,9.4
		C221.3,269.2,220.5,269.8,219.5,269.8z"/>
	<path class="st2" d="M261,253.2c-0.2,0-0.3,0-0.5-0.1c-1.1-0.3-1.7-1.4-1.5-2.5c0.2-0.9,2.4-8.7,8.1-10.3c3.2-0.9,6.7,0.4,10.4,4
		c0.8,0.8,0.8,2.1,0,2.9c-0.8,0.8-2.1,0.8-2.9,0c-1.7-1.7-4.2-3.6-6.4-3c-2.9,0.8-4.8,5.6-5.2,7.4
		C262.8,252.6,261.9,253.2,261,253.2z"/>
	<path class="st2" d="M232.7,300c-4,0-6.6-0.2-6.7-0.2c-1.1-0.1-2-1.1-1.9-2.2s1-2,2.2-1.9c0.5,0,55.2,4.6,62.6-30.8
		c0.2-1.1,1.3-1.8,2.4-1.6c1.1,0.2,1.8,1.3,1.6,2.4C286.5,296.8,248.4,300,232.7,300z"/>
	<path class="st2" d="M265.5,306.5c-11.3,0-20.1-6.9-20.5-7.2c-0.9-0.7-1-2-0.3-2.9s2-1,2.9-0.3c0.1,0.1,9.8,7.6,21,6.1
		c6.9-0.9,13.1-5.1,18.4-12.4c0.7-0.9,2-1.1,2.9-0.5c0.9,0.7,1.1,1.9,0.5,2.9c-6,8.2-13.1,12.9-21.2,14
		C267.9,306.5,266.7,306.5,265.5,306.5z"/>
</g>
<path class="st1" d="M124.5,471.7c-7.2,0-9.8-2.1-10.8-3.9c-0.8-1.4-0.7-3.1,0.3-4.6c1.9-3,6.8-4.6,12.4-4.2c1.1,0.1,2,1.1,1.9,2.2
	c-0.1,1.1-1.1,2-2.2,1.9c-5-0.4-8,1.3-8.7,2.4c-0.2,0.3-0.1,0.4-0.1,0.4c0.3,0.6,2.3,1.7,7.2,1.7c3.6,0,6.4-1,8.4-3.1
	c3.7-3.9,3.4-10.2,3.4-10.3V349.7c0-1.1,0.9-2,2-2s2,0.9,2,2v104.4c0,0.2,0.4,8-4.5,13.2C133.1,470.2,129.3,471.7,124.5,471.7z"/>
<polygon points="608.7,348.8 637.1,363.5 648.5,415.5 608.6,423 595.5,374.8 "/>
<circle class="st2" cx="613.8" cy="364.1" r="5.8"/>
<g>
	<path class="st2" d="M624,407.1c-3.2,0-6-1.4-8-3.2c-4.5-4.2-6.4-12.2-1.6-17.8c2.6-3,5.6-4.6,9-4.8c5.4-0.3,9.7,3.6,9.8,3.8
		l-2.8,3c0,0-3.2-2.9-6.9-2.7c-2.2,0.1-4.2,1.3-6,3.4c-3.1,3.6-1.9,9.2,1.3,12.1c3.7,3.4,8.6,2.7,13.3-2l2.9,2.9
		C631.1,405.7,627.3,407.1,624,407.1z"/>
	<path class="st2" d="M609.7,394.7l-0.9-4c3.7-0.8,15.5-0.4,16.9-0.3l-0.2,4.1C622,394.4,612.4,394.1,609.7,394.7z"/>
	<path class="st2" d="M610.2,400.7l-0.4-4.1c4-0.4,13.6-1.3,16.2-0.2l-1.7,3.7C623,399.7,615.9,400.1,610.2,400.7z"/>
</g>
<circle cx="216.6" cy="65.6" r="3.8"/>
<path d="M21.1,347c-4.9,0-8.9-4-8.9-8.9s4-8.9,8.9-8.9s8.9,4,8.9,8.9C29.9,343,26,347,21.1,347z M21.1,333.7c-2.4,0-4.4,2-4.4,4.4
	s2,4.4,4.4,4.4s4.4-2,4.4-4.4S23.5,333.7,21.1,333.7z"/>
<circle cx="33.2" cy="356.7" r="3.8"/>
<path class="st1" d="M467.4,6.9L467.4,6.9c0,9.2,7.4,16.6,16.6,16.6l0,0l0,0c-9.2,0-16.6,7.4-16.6,16.6l0,0l0,0
	c0-9.2-7.4-16.6-16.6-16.6l0,0l0,0C460,23.4,467.4,16,467.4,6.9L467.4,6.9z"/>
<path d="M349.9,345c0,0,147.1,34.3,266.9-14.5c0,0-29.7,42.6-79.3,57.2l-109.1,4.4C428.4,392.1,365.7,362,349.9,345z"/>
<path class="st1" d="M349.9,345c0,0,111.7-63.5,266.9-14.5C616.8,330.5,514.7,382.3,349.9,345z"/>
<path class="st2" d="M411,333.8c0,0-26-115.8,66.8-119.5s79.9,112.3,79.9,112.3S486,355.9,411,333.8z"/>
<path d="M411.6,413.8c-0.5,0-1.1-0.2-1.5-0.6c-0.9-0.8-1-2.3-0.1-3.2l26.5-28.7c0.8-0.9,2.2-1,3.2-0.1c0.9,0.8,1,2.3,0.1,3.2
	l-26.5,28.7C412.8,413.6,412.2,413.8,411.6,413.8z"/>
<path d="M556.9,403c-0.5,0-1.1-0.2-1.5-0.6l-26.1-24.1c-0.9-0.8-1-2.3-0.1-3.2c0.8-0.9,2.2-1,3.2-0.1l26.1,24.1
	c0.9,0.8,1,2.3,0.1,3.2C558.1,402.7,557.5,403,556.9,403z"/>
<g>
	<polygon points="501.2,241 508.5,342 455.9,344.1 447.8,245.5 	"/>
	<polygon class="st2" points="495.5,252 454.9,253.4 461.4,324 499.1,319.4 	"/>
	<circle class="st1" cx="481.3" cy="334.4" r="3.9"/>
</g>
<ellipse class="st4" cx="484.4" cy="461.4" rx="95.8" ry="16.2"/>
<path class="st1" d="M321.1,262.7c-0.4,0-0.8-0.1-1.2-0.4c-0.9-0.7-1.1-1.9-0.5-2.9c0.4-0.6,43.1-58.9,91.9-26.9
	c0.9,0.6,1.2,1.9,0.6,2.8c-0.6,0.9-1.9,1.2-2.8,0.6c-19-12.5-39.2-12-60.1,1.4c-15.8,10.2-26.1,24.3-26.2,24.5
	C322.3,262.4,321.7,262.7,321.1,262.7z"/>
<polygon class="st1" points="352.6,87 284.8,98.5 303.4,172.4 322,171.9 317.5,203.3 340.4,170.7 359.8,168.3 "/>
<path class="st2" d="M329.1,149.5l13.3-17.5c2.1-2.7,3.1-6.3,2.5-9.6c-0.7-3.4-3.5-7.8-10.5-7.6c-14,0.4-10.3,12.6-10.3,12.6
	s-6.2-13.5-16.1-7.4c-11,6.8-2.6,15.7,2.9,18.9C316.5,142,329.1,149.5,329.1,149.5z"/>
<polygon class="st1" points="421.3,117.1 489.1,128.6 470.5,202.5 451.9,202 456.4,233.4 433.5,200.8 414.1,198.4 "/>
<path class="st2" d="M444.8,179.6L431.5,162c-2.1-2.7-3.1-6.3-2.5-9.6c0.7-3.4,3.5-7.8,10.5-7.6c14,0.4,10.3,12.6,10.3,12.6
	s6.2-13.5,16.1-7.4c11,6.8,2.6,15.7-2.9,18.9S444.8,179.6,444.8,179.6z"/>
<path d="M686.8,372.3c-0.5,0-1.1-0.2-1.5-0.6c-0.9-0.8-1-2.2-0.2-3.2c25.6-28.9,25.2-55.8,20.3-73.4c-11.9-43.4-63.7-70.4-93.5-82.6
	l-1.1-0.4l-0.3-1.1c-4.5-18.3-12.7-46.2-26.8-74.7c-0.5-1.1-0.1-2.4,1-3c1.1-0.5,2.4-0.1,3,1c14,28.4,22.3,56,26.9,74.6
	c30.7,12.8,82.8,40.4,95,85.1c5.1,18.6,5.6,47.1-21.3,77.5C688,372.1,687.4,372.3,686.8,372.3z"/>
<path d="M13.1,318.5c-1,0-2-0.7-2.2-1.8c-10.6-52.3,5.6-88,21-108.7c14.2-19.1,34.2-34.6,59.3-46.1c1.1-0.5,2.4,0,3,1.1
	c0.5,1.1,0,2.4-1.1,3c-24.4,11.2-43.7,26.2-57.5,44.7c-14.9,20-30.5,54.4-20.2,105.1c0.2,1.2-0.5,2.4-1.7,2.6
	C13.4,318.5,13.2,318.5,13.1,318.5z"/>
<path d="M297.1,77.6l-1.7-1.1c-8.7-5.4-18.7-9.6-29.8-12.5c-12-3.1-24-3.3-35.8-0.4c-1.2,0.3-2.4-0.4-2.7-1.6
	c-0.3-1.2,0.4-2.4,1.6-2.7c12.5-3,25.3-2.9,38,0.4c10.8,2.8,20.6,6.9,29.3,12c23-30,66.4-62.9,143.6-54.2c1.2,0.1,2.1,1.2,2,2.5
	c-0.1,1.2-1.2,2.1-2.5,2c-76.5-8.7-118.7,24.6-140.7,54L297.1,77.6z"/>
<path class="st1" d="M670.4,374.1L670.4,374.1c0,9.2,7.4,16.6,16.6,16.6l0,0l0,0c-9.2,0-16.6,7.4-16.6,16.6l0,0l0,0
	c0-9.2-7.4-16.6-16.6-16.6l0,0l0,0C662.9,390.7,670.4,383.2,670.4,374.1L670.4,374.1z"/>
</svg>
