<?xml version="1.0" encoding="utf-8"?>
<!-- Generator: Adobe Illustrator 27.1.1, SVG Export Plug-In . SVG Version: 6.00 Build 0)  -->
<svg version="1.1" id="Calque_1" xmlns="http://www.w3.org/2000/svg" xmlns:xlink="http://www.w3.org/1999/xlink" x="0px" y="0px"
	 viewBox="0 0 720 492" style="enable-background:new 0 0 720 492;" xml:space="preserve">
<style type="text/css">
	.st0{fill:#EDEDED;}
	.st1{fill:#5E5EF7;}
	.st2{fill:#C6C6C5;}
	.st3{fill:#131313;}
	.st4{fill:#575756;}
	.st5{fill:#1D1D1B;}
	.st6{fill:#FFFFFF;}
	.st7{fill:#151819;}
</style>
<g>
	<path class="st0" d="M319.9,349.4c166.2,54.4,208.8,124.1,312.5,88.6s-11.7-184.8-11.7-184.8S603.6,88.6,460,68.4
		S225,200.9,225,200.9s-72.7-14.8-145.8,47.3S50,424.1,193.6,414C337.2,403.8,319.9,349.4,319.9,349.4z"/>
	<path d="M527.6,55.3c-0.3,0-0.7-0.1-1-0.2c-19-9.3-39.9-15.5-62-18.6c-1.2-0.2-2-1.3-1.9-2.5c0.2-1.2,1.3-2,2.5-1.9
		c22.5,3.2,43.8,9.6,63.3,19.1c1.1,0.5,1.5,1.8,1,2.9C529.2,54.8,528.4,55.3,527.6,55.3z"/>
	<path d="M643.7,472.8c-0.9,0-1.8-0.6-2.1-1.5c-0.4-1.1,0.2-2.4,1.4-2.8c39.7-13.6,55.1-39.8,61.1-59.3
		c12.8-42.3-6.9-92.3-25.7-126.8c-0.6-1.1-0.2-2.4,0.9-3c1.1-0.6,2.4-0.2,3,0.9c19.2,35.2,39.3,86.4,26,130.1
		c-6.2,20.5-22.4,48-63.8,62.2C644.1,472.8,643.9,472.8,643.7,472.8z"/>
	<path d="M41.4,400.3c-0.6,0-1.2-0.2-1.6-0.7c-9.9-10.8-17.7-23.2-23.4-37c-20.3-49.2-5.1-105.1,38.9-142.4
		c22.9-19.4,48-34.2,74.7-43.9c1.1-0.4,2.4,0.2,2.8,1.3c0.4,1.1-0.2,2.4-1.3,2.8c-26.1,9.5-50.8,24.1-73.3,43.2
		c-42.5,36-57.2,90-37.6,137.4c5.5,13.3,13.1,25.3,22.6,35.7c0.8,0.9,0.7,2.3-0.2,3.1C42.5,400.2,41.9,400.3,41.4,400.3z"/>
	<path d="M444.1,42.9L444.1,42.9c-2.4,0-4.6-0.9-6.2-2.6c-1.6-1.6-2.5-3.8-2.5-6.1s0.9-4.5,2.6-6.1c1.6-1.6,3.8-2.5,6.2-2.5l0,0
		c2.3,0,4.5,0.9,6.2,2.6c1.6,1.6,2.5,3.8,2.5,6.1s-0.9,4.5-2.6,6.1S446.4,42.9,444.1,42.9z M444.1,29.9c-1.2,0-2.2,0.4-3.1,1.3
		c-0.8,0.8-1.3,1.9-1.3,3c0,1.2,0.4,2.2,1.3,3.1l0,0c0.8,0.8,1.8,1.3,3.1,1.3c1.2,0,2.2-0.4,3.1-1.3c0.8-0.8,1.3-1.9,1.3-3
		c0-1.2-0.4-2.2-1.3-3.1C446.3,30.4,445.3,29.9,444.1,29.9L444.1,29.9z"/>
	<ellipse cx="423.5" cy="37.9" rx="3.8" ry="3.7"/>
	<ellipse cx="631" cy="473.6" rx="3.8" ry="3.7"/>
	<path class="st1" d="M152,153.1L152,153.1c0,9,7.3,16.2,16.3,16.2l0,0l0,0c-9,0-16.3,7.3-16.3,16.2l0,0l0,0c0-9-7.3-16.2-16.3-16.2
		l0,0l0,0C144.7,169.4,152,162.1,152,153.1L152,153.1z"/>
	<path class="st1" d="M385.7,6.6L385.7,6.6c0,9,7.3,16.2,16.3,16.2l0,0l0,0c-9,0-16.3,7.3-16.3,16.2l0,0l0,0c0-9-7.3-16.2-16.3-16.2
		l0,0l0,0C378.4,22.8,385.7,15.6,385.7,6.6L385.7,6.6z"/>
</g>
<g>
	<polygon class="st2" points="76.4,379.8 51.2,422.5 201.5,422.5 177,381.1 	"/>
	<path class="st3" d="M159.3,400.5c0.1-8.5-15.5-15.6-34.9-15.8c-19.4-0.3-35.2,6.4-35.4,14.8c-0.1,8.5,15.5,15.6,34.9,15.8
		C143.3,415.6,159.2,408.9,159.3,400.5z M106.6,395.8v-3.3l24.8,0.3v3.3L106.6,395.8z M134.6,394.5c0-1.1,2.1-1.9,4.6-1.9
		s4.6,0.9,4.5,2c0,1.1-2.1,1.9-4.6,1.9C136.7,396.5,134.6,395.6,134.6,394.5z M106.4,408.3V405c0,0,9.4,0.1,13,0.2
		c3.6,0,5.6-0.5,5.6-1.7c0-1.3-2-2.1-5.5-2.1c-3.8-0.1-13-0.2-13-0.2V398l24.8,0.3v3.2H128c0,0,4.1,1,4,3.3c0,2.3-3.3,3.9-9.9,3.8
		C115.5,408.5,106.4,408.3,106.4,408.3z"/>
	<polygon class="st4" points="381.5,63.3 392.7,421.2 272.1,424 288.8,49 	"/>
	<polygon class="st5" points="282.2,159.2 292.4,429.7 181.8,431.9 197.2,148.3 	"/>
	<polygon class="st1" points="133.2,453.6 250.7,453.6 233.7,398.6 239.4,385.2 229.2,372.8 238.3,361.6 232.6,345.9 243.9,332.5 
		153.6,304.4 157,321.3 145.7,330.2 157,345.9 147.9,349.3 	"/>
	<path d="M291.3,472.6c-15,0-31.4-3.4-33.8-9.2c-0.9-2.2-0.6-5.4,5.9-8.4c7.1-3.4,18.3-7.1,31-10.8c-15.8-4.8-36.3-6.6-46.6-6.8
		c-1.2,0-2.2-1-2.1-2.2c0-1.2,1-2.1,2.3-2.1c1.9,0,33,0.9,53.8,9.1c32.5-9,70.6-17.1,72.9-17.6c1.2-0.3,2.4,0.5,2.6,1.7
		s-0.5,2.3-1.7,2.6c-0.5,0.1-35.9,7.6-67.6,16.2c6,3.2,10.3,7.3,11.7,12.5c0.9,3.3,0.8,9.3-9.5,12.7
		C305.2,471.8,298.4,472.6,291.3,472.6z M301.5,446.7c-14.9,4.1-28.3,8.4-36.2,12.2c-3.3,1.6-3.8,2.7-3.7,2.9
		c1.9,4.7,31.9,9.3,47.1,4.3c7.9-2.6,7-6.3,6.6-7.5C314,453.6,308.7,449.7,301.5,446.7z"/>
	<path class="st6" d="M188.4,359.1c-18.9,0-34.3,15.3-34.3,34.1c0,18.8,15.4,34.1,34.3,34.1s34.3-15.3,34.3-34.1
		C222.7,374.3,207.4,359.1,188.4,359.1z M198.5,379.7c0,0-3.4,0-4.8,0c-1.7,0-2,0.7-2,2.4c0,1.4,0,4.2,0,4.2h6.8l-0.7,7.3h-6.1v21.9
		h-8.8v-21.8h-4.6v-7.4h4.6c0,0,0-1.1,0-5.8c0-5.5,3-8.4,9.5-8.4c1.1,0,6.1,0,6.1,0V379.7z"/>
	<polygon class="st5" points="287.9,397.6 297.5,400 297.5,406.9 287.9,410 	"/>
	<polygon class="st5" points="298.9,397 299.3,410.3 301.7,409.3 302,397.3 	"/>
	<polygon class="st1" points="240.7,428.8 250.4,431.2 250.4,438 240.7,441.1 	"/>
	<polygon class="st1" points="250.5,431.9 260.7,423.1 258.4,421.9 248.8,429.3 	"/>
	<path class="st1" d="M142.6,307.3c-0.2,0-0.4,0-0.5-0.1l-14.2-4.9c-0.9-0.3-1.3-1.2-1-2.1s1.3-1.3,2.1-1l14.2,4.9
		c0.9,0.3,1.3,1.2,1,2.1C143.9,306.9,143.3,307.3,142.6,307.3z"/>
	<path class="st1" d="M148.8,299.4c-0.5,0-0.9-0.2-1.3-0.6l-12.4-14.4c-0.6-0.7-0.5-1.7,0.2-2.3c0.7-0.6,1.7-0.5,2.3,0.2l12.4,14.4
		c0.6,0.7,0.5,1.7-0.2,2.3C149.6,299.3,149.2,299.4,148.8,299.4z"/>
	<path class="st1" d="M157.2,295.1c-0.7,0-1.4-0.5-1.6-1.2l-5.3-18.4c-0.3-0.9,0.3-1.8,1.1-2c0.9-0.2,1.8,0.3,2.1,1.1l5.3,18.4
		c0.3,0.9-0.3,1.8-1.1,2C157.5,295.1,157.4,295.1,157.2,295.1z"/>
	<circle class="st6" cx="239" cy="202" r="26"/>
	<circle class="st6" cx="580.6" cy="303.1" r="26"/>
	<circle class="st6" cx="336.5" cy="107.5" r="28.5"/>
	<path class="st1" d="M334.1,70.5c-20.7,0-37.4,16.6-37.4,37.1s16.8,37.1,37.4,37.1c20.7,0,37.4-16.6,37.4-37.1
		S354.8,70.5,334.1,70.5z M353.6,100.9c0.5,12-8.5,25.5-24.5,25.5c-4.9,0-9.4-1.4-13.2-3.8c4.6,0.5,9.1-0.7,12.8-3.5
		c-3.8-0.1-7-2.5-8.1-5.9c1.3,0.3,2.7,0.2,3.9-0.1c-4.1-0.8-7-4.5-6.9-8.5c1.2,0.6,2.5,1,3.9,1.1c-3.8-2.5-4.9-7.6-2.7-11.4
		c4.3,5.2,10.6,8.6,17.8,8.9c-1.3-5.4,2.8-10.5,8.4-10.5c2.5,0,4.7,1,6.3,2.7c2-0.4,3.8-1.1,5.5-2.1c-0.6,2-2,3.7-3.8,4.7
		c1.7-0.2,3.4-0.7,5-1.3C356.8,98.2,355.3,99.7,353.6,100.9z"/>
	<g>
		<path class="st1" d="M254.7,190.5c-0.4-0.9-0.8-1.6-1.5-2.3s-1.4-1.1-2.3-1.5c-0.7-0.3-1.7-0.6-3.7-0.7c-2.1-0.1-2.7-0.1-8-0.1
			s-5.9,0-8,0.1c-1.9,0.1-3,0.4-3.7,0.7c-0.9,0.4-1.6,0.8-2.3,1.5s-1.1,1.3-1.5,2.3c-0.3,0.7-0.6,1.7-0.7,3.7
			c-0.1,2.1-0.1,2.7-0.1,8s0,5.9,0.1,8c0.1,1.9,0.4,3,0.7,3.7c0.4,0.9,0.8,1.6,1.5,2.3s1.4,1.1,2.3,1.5c0.7,0.3,1.7,0.6,3.7,0.7
			c2.1,0.1,2.7,0.1,8,0.1s5.9,0,8-0.1c1.9-0.1,3-0.4,3.7-0.7c0.9-0.4,1.6-0.8,2.3-1.5s1.1-1.3,1.5-2.3c0.3-0.7,0.6-1.7,0.7-3.7
			c0.1-2.1,0.1-2.7,0.1-8s0-5.9-0.1-8C255.3,192.3,255,191.2,254.7,190.5z M239.3,212.3c-5.6,0-10.2-4.5-10.2-10.1
			s4.6-10.1,10.2-10.1c5.6,0,10.2,4.5,10.2,10.1C249.5,207.7,244.9,212.3,239.3,212.3z M249.9,194c-1.3,0-2.4-1.1-2.4-2.4
			c0-1.3,1.1-2.4,2.4-2.4c1.3,0,2.4,1.1,2.4,2.4C252.2,192.9,251.2,194,249.9,194z"/>
		<ellipse class="st1" cx="239.3" cy="202.1" rx="6.6" ry="6.6"/>
		<path class="st1" d="M239.2,167.4c-18.9,0-34.3,15.3-34.3,34.1s15.4,34.1,34.3,34.1s34.3-15.3,34.3-34.1
			C273.5,182.6,258.2,167.4,239.2,167.4z M259,210.3c-0.1,2.1-0.4,3.5-0.9,4.8s-1.2,2.4-2.3,3.5c-1.1,1.1-2.2,1.8-3.5,2.3
			s-2.7,0.8-4.8,0.9c-2.1,0.1-2.8,0.1-8.2,0.1s-6.1,0-8.2-0.1c-2.1-0.1-3.6-0.4-4.8-0.9c-1.3-0.5-2.4-1.2-3.5-2.3s-1.8-2.2-2.3-3.5
			s-0.8-2.7-0.9-4.8c-0.1-2.1-0.1-2.8-0.1-8.1s0-6,0.1-8.1s0.4-3.5,0.9-4.8s1.2-2.4,2.3-3.5s2.2-1.8,3.5-2.3s2.7-0.8,4.8-0.9
			c2.1-0.1,2.8-0.1,8.2-0.1s6.1,0,8.2,0.1c2.1,0.1,3.6,0.4,4.8,0.9c1.3,0.5,2.4,1.2,3.5,2.3c1.1,1.1,1.8,2.2,2.3,3.5
			s0.8,2.7,0.9,4.8s0.1,2.8,0.1,8.1S259.1,208.2,259,210.3z"/>
	</g>
</g>
<g>
	<path class="st1" d="M638.9,120.9c0,0-29.8,16.9-61.1,1S549.1,51,549.1,51s53.5,13.7,37.8,52.9c0,0,32.7-45.7,78.8-29.3
		C665.8,74.6,665.6,99.6,638.9,120.9z"/>
	<path class="st6" d="M604.3,124.7c-7.7,0-13.1-1.1-13.5-1.2l0.9-3.9c0.1,0,13.4,2.8,27.9-0.6c18.6-4.3,30.6-16.3,35.7-35.7
		c-5.7-2.3-27.8-8.6-56,18.9l-2.8-2.9c34.4-33.6,61.1-19.6,62.2-19L660,81l-0.4,1.5c-6.5,27.4-24.9,37-39.3,40.3
		C614.6,124.3,609,124.7,604.3,124.7z"/>
	<path class="st6" d="M583.3,96.5c-0.1-1.1-1.7-26.4-26.2-32.9c-0.9,4.6-2.3,17.2,6.6,28.8l-3.2,2.4c-12.5-16.2-7.1-33.5-6.8-34.3
		l0.6-1.7l1.8,0.4c29.3,6.3,31.2,36.7,31.2,37L583.3,96.5z"/>
	<path d="M527.8,393.7c0,0,112.5-6.4,136.5-126.4s-60-154.8-60-154.8l0.9-17.4l-43.4-1.8l-5.5,20.1c0,0-172.5,48.5-98.7,251.8
		l10.1,41.2l64.6,4.6L527.8,393.7z"/>
	<path class="st6" d="M501.4,401.3c-0.6,0-1.1-0.1-1.7-0.2c-6.8-1.5-9.8-5.2-11-7.3h-12.4l-0.6-0.5c-0.4-0.3-9-8.1-9-22.6
		c0-3-2.1-8-4.8-14.2c-8.4-19.7-24.1-56.4-10.9-118.1c16.9-78.4,97-114.5,104-117.5c3.2-3.9,12.5-14.9,16.4-15.9
		c3.7-0.9,9.6,1.6,11.8,2.6c1.7-0.4,5.7-0.9,8.3,1.8c2.7,2.8,2.9,7.7,0.4,15.1c11.4,7.1,85.2,56.9,58.5,151.6
		C623.4,371.9,529,384.3,517,385.5C515.3,389.5,509.2,401.3,501.4,401.3z M477.9,389.8h13.5l0.5,1.4c0.1,0.2,1.7,4.5,8.7,6
		c5.4,1.2,11.6-10.3,13.4-14.4l0.5-1.1l1.2-0.1c1-0.1,103.1-7.5,131-106.6c27.8-99-57.2-147.4-58.1-147.9l-1.5-0.8l0.6-1.6
		c3.3-8.9,1.8-11.7,1.1-12.5c-1.5-1.6-5-0.5-5-0.5L583,112l-0.7-0.4c-2.8-1.4-7.6-3.1-9.7-2.6c-1.8,0.5-9,8.1-14.6,14.9l-0.3,0.4
		l-0.5,0.2c-0.8,0.3-85,35.4-102.1,114.9c-13,60.4,2.4,96.4,10.6,115.7c3,6.9,5.1,11.9,5.1,15.8C470.8,381.4,476.2,388,477.9,389.8z
		"/>
	<path class="st6" d="M505.6,248.2c-2.4,0-5-1-7.8-3.1c-0.9-0.7-1.1-1.9-0.4-2.8c0.7-0.9,1.9-1.1,2.8-0.4c2.9,2.2,5.3,2.8,7.2,1.9
		c5.5-2.6,8-17.3,8.3-25.9c0-1.1,1-2,2.1-1.9c1.1,0,2,1,1.9,2.1c-0.1,2.5-1.1,24.8-10.6,29.3C508.1,247.9,506.9,248.2,505.6,248.2z"
		/>
	<path class="st6" d="M549.1,246c-0.8,0-1.6-0.5-1.9-1.4c-0.9-2.6-4.1-9.4-8.4-10.1c-2.7-0.4-5.7,1.5-8.9,5.7
		c-0.7,0.9-1.9,1-2.8,0.4c-0.9-0.7-1-1.9-0.4-2.8c4.3-5.5,8.6-7.9,12.8-7.2c7.6,1.3,11.4,12.3,11.6,12.8c0.4,1-0.2,2.2-1.3,2.5
		C549.5,246,549.3,246,549.1,246z"/>
	<path class="st6" d="M503.5,224.7c-0.8,0-1.6-0.5-1.9-1.3c-0.6-1.7-2.9-6.3-6.4-7c-3.3-0.6-6.9,2.5-9.3,5.2c-0.7,0.8-2,0.9-2.8,0.2
		s-0.9-2-0.2-2.8c4.6-5.1,9-7.3,13.2-6.5c6.4,1.3,9.3,9.3,9.4,9.6c0.4,1-0.2,2.2-1.2,2.5C503.9,224.6,503.7,224.7,503.5,224.7z"/>
	<path class="st1" d="M567.2,269.1c-0.6,0-1.1-0.1-1.6-0.3c-2-0.7-2.7-2.4-3.4-4.1c-0.3-0.6-0.5-1.3-0.9-1.9c-1.1-2-0.8-4.2,0.8-6.1
		c0.5-0.6,1.2-1.2,2-1.6c-0.3-0.6-0.4-1.3,0-2c0.3-0.5,1.2-1.7,3.3-1.3c1.2,0.2,2.8,0.8,4.4,1.8c0.3,0.1,0.7,0.2,1,0.3
		c1.7,0.6,2.3,1.7,2.6,2.5c1.2,1.3,2.2,2.7,2.4,4.2c0.2,1.4,0.1,4.1-3.6,6.1C571,268.4,568.8,269.1,567.2,269.1z M573.7,261.6
		c-0.4,0.5-0.8,1-1.2,1.4C573.4,262.4,573.7,261.9,573.7,261.6z M569.7,257.4c0.2,0.6,0.3,1.3,0.4,2.1c0.4-0.5,0.8-1,1-1.3
		c-0.4-0.3-0.7-0.5-1.1-0.8C569.9,257.4,569.8,257.4,569.7,257.4z"/>
	<path class="st6" d="M542.1,270.3c-0.1,0-0.1,0-0.2,0c-38.8-3.4-65.4-22.6-66.5-23.4c-0.9-0.7-1.1-1.9-0.4-2.8
		c0.7-0.9,1.9-1.1,2.8-0.4c0.3,0.2,26.8,19.3,64.5,22.7c1.1,0.1,1.9,1.1,1.8,2.2C544,269.6,543.1,270.3,542.1,270.3z"/>
	<path class="st1" d="M459.1,228.5c-0.6,0-1.1-0.1-1.6-0.3c-2-0.7-2.7-2.4-3.4-4.1c-0.3-0.6-0.5-1.3-0.9-1.9c-1.1-2-0.8-4.2,0.8-6.1
		c0.5-0.6,1.2-1.2,2-1.6c-0.3-0.6-0.4-1.3,0-2c0.3-0.5,1.1-1.7,3.3-1.3c1.2,0.2,2.8,0.8,4.4,1.8c0.3,0.1,0.7,0.2,1,0.3
		c1.7,0.6,2.3,1.7,2.6,2.5c1.2,1.3,2.2,2.7,2.4,4.2c0.2,1.4,0.1,4.1-3.6,6.1C462.9,227.7,460.7,228.5,459.1,228.5z M465.6,221
		c-0.4,0.5-0.8,1-1.2,1.4C465.3,221.8,465.5,221.3,465.6,221z M461.6,216.8c0.2,0.6,0.3,1.3,0.4,2.1c0.4-0.5,0.8-1,1-1.3
		c-0.4-0.3-0.7-0.5-1.1-0.8C461.8,216.8,461.7,216.8,461.6,216.8z"/>
	<path class="st1" d="M553.9,466.9h-29.2l-0.2-1.8c0-0.3-0.8-8.3,4-12.2c2.9-2.3,7-2.6,12.2-0.9c1.1,0.3,1.6,1.5,1.3,2.5
		c-0.4,1-1.5,1.6-2.6,1.3c-3.8-1.3-6.6-1.2-8.4,0.2c-2,1.5-2.5,4.7-2.6,6.8h19.9l-22.5-68.6c-0.3-1.1,0.2-2.2,1.3-2.5
		c1.1-0.4,2.2,0.2,2.5,1.3L553.9,466.9z"/>
	<path class="st1" d="M511.3,466h-31.6l-0.2-1.8c0-0.3-0.7-7.4,4.1-11.5c3.4-2.9,8.6-3.5,15.4-1.6c1.1,0.3,1.7,1.4,1.4,2.5
		c-0.3,1.1-1.4,1.7-2.5,1.4c-5.4-1.5-9.3-1.2-11.7,0.8c-2,1.7-2.6,4.4-2.7,6.2H506l-14.6-53.2c-0.3-1.1,0.3-2.2,1.4-2.5
		s2.2,0.3,2.5,1.4L511.3,466z"/>
	<path class="st4" d="M634.3,224.6c0,0-26.3-22.1-18.5-43.9s24.1,21.4,24.1,26.3C640.1,211.9,640.2,224,634.3,224.6z"/>
	<path class="st4" d="M605.3,171.5c0,0,5.8,12.4,9.6,3c3.8-9.3,0.7-20-3.7-19C606.9,156.6,603,158.6,605.3,171.5z"/>
	<path class="st6" d="M495.3,278.8c-3.5,0-6.9-0.3-10.1-1.1c-5.4-1.3-8.5-3.8-9.3-7.3c-1.6-7.8,10.1-17,11.5-18
		c0.9-0.7,2.1-0.5,2.8,0.4c0.7,0.9,0.5,2.1-0.4,2.8c-4.3,3.3-10.8,10-10,14c0.5,2.3,3.7,3.6,6.3,4.2c18.5,4.6,47.6-8.2,47.9-8.3
		c1-0.4,2.2,0,2.7,1s0,2.2-1,2.6C534.7,269.6,513.7,278.8,495.3,278.8z"/>
	<polygon points="367.1,349.4 396.1,349.4 396.3,450.2 391.6,461.4 363.3,463.7 362.3,359.1 	"/>
	<polygon class="st7" points="391.6,461.4 391.7,361.2 396.1,349.4 396.3,450.2 	"/>
	<g>
		<path class="st6" d="M374.3,315.8v45.4h12.8v-48.1C387.1,313.1,372.9,317.2,374.3,315.8z"/>
		<path d="M388,362.2h-14.7v-45.7l-0.3-0.6l0.6-0.7l1.6-1.6v1.6c2-0.3,7-1.6,11.6-2.9l1.2-0.4L388,362.2L388,362.2z M375.2,360.3
			h10.9v-45.9c-6.2,1.8-9.3,2.5-10.9,2.6V360.3z"/>
	</g>
	<g>
		<polygon class="st6" points="340.2,309.5 342.4,319.5 418.8,317.7 417.7,304.9 		"/>
		<path d="M341.7,320.4l-2.6-11.9l79.5-4.7l1.3,14.7L341.7,320.4z M341.4,310.4l1.8,8.1l74.5-1.8l-0.9-10.8L341.4,310.4z"/>
	</g>
	<polygon points="341.3,450.5 429.6,450.5 423.6,467.9 328.7,467.9 	"/>
	<g>
		<ellipse class="st6" cx="360.6" cy="389.9" rx="14.3" ry="14.2"/>
		<path class="st1" d="M360.6,406.1c-9,0-16.3-7.3-16.3-16.2s7.3-16.2,16.3-16.2s16.3,7.3,16.3,16.2S369.6,406.1,360.6,406.1z
			 M360.6,377.7c-6.8,0-12.3,5.5-12.3,12.2s5.5,12.2,12.3,12.2s12.3-5.5,12.3-12.2S367.4,377.7,360.6,377.7z"/>
	</g>
	<path class="st1" d="M526.4,361.4c-48.5,0-102.4-11.4-132.7-54.7c-0.6-0.9-0.4-2.2,0.5-2.8c0.9-0.6,2.2-0.4,2.8,0.5
		c62.2,88.9,228.1,39.4,229.8,38.9c1.1-0.3,2.2,0.3,2.5,1.3c0.3,1.1-0.3,2.2-1.3,2.5C627.1,347.4,580.1,361.4,526.4,361.4z"/>
	<path class="st1" d="M454,363.2c-0.2,0-0.4,0-0.6-0.1c-46.2-15.3-60.1-42.1-60.7-43.2c-0.5-1-0.1-2.2,0.9-2.7s2.2-0.1,2.7,0.9
		c0.1,0.3,13.9,26.5,58.3,41.2c1.1,0.3,1.6,1.5,1.3,2.5C455.6,362.7,454.9,363.2,454,363.2z"/>
	<g>
		<path class="st6" d="M351.5,389.9c0-5,4.1-9,9-9"/>
		<path class="st1" d="M351.5,391.2c-0.7,0-1.3-0.6-1.3-1.3c0-5.7,4.6-10.3,10.3-10.3c0.7,0,1.3,0.6,1.3,1.3c0,0.7-0.6,1.3-1.3,1.3
			c-4.3,0-7.8,3.5-7.8,7.7C352.8,390.6,352.2,391.2,351.5,391.2z"/>
	</g>
	<polygon points="359.1,393.3 363.7,389.1 354.2,382.4 	"/>
</g>
</svg>
