<?xml version="1.0" encoding="utf-8"?>
<!-- Generator: Adobe Illustrator 27.1.1, SVG Export Plug-In . SVG Version: 6.00 Build 0)  -->
<svg version="1.1" id="Calque_1" xmlns="http://www.w3.org/2000/svg" xmlns:xlink="http://www.w3.org/1999/xlink" x="0px" y="0px"
	 viewBox="0 0 160 160" style="enable-background:new 0 0 160 160;" xml:space="preserve">
<style type="text/css">
	.st0{fill:#FFFFFF;}
	.st1{fill:#5E5EF7;}
	.st2{fill:none;}
	.st3{fill:#575756;}
</style>
<g>
	<g>
		<polygon points="10.1,143.8 10.1,146.5 47.3,146.9 65.6,142.4 65.2,138.9 42.7,136.9 		"/>
		<polygon points="10.1,143.8 -0.1,106.2 41,104.4 42.7,136.9 		"/>
		<g>
			<polygon class="st0" points="15.1,140.6 6.6,110.7 37,108.9 38.8,137.1 			"/>
			<path class="st1" d="M14.6,141.4l-9-31.4l32-1.9l1.9,29.6L14.6,141.4z M7.5,111.3l8.1,28.5l22.4-3.4l-1.7-26.8L7.5,111.3z"/>
		</g>
		<polygon class="st1" points="53.8,71 25.6,68.3 25.1,99.7 32.5,101.5 27.4,113.5 40,103 48,104.1 		"/>
		<polygon class="st0" points="42.6,76.4 35.9,75.9 36.8,87.1 40.4,87.1 		"/>
		<ellipse class="st0" cx="37.7" cy="92.7" rx="2.7" ry="2.5"/>
		<g>
			<line class="st2" x1="13.1" y1="117.2" x2="23.7" y2="116.1"/>
			<polygon points="13.1,117.5 13,116.8 23.6,115.8 23.7,116.4 			"/>
		</g>
		<g>
			<line class="st2" x1="13.4" y1="119.3" x2="28.3" y2="117.6"/>
			<polygon points="13.4,119.6 13.3,118.9 28.3,117.3 28.4,118 			"/>
		</g>
		<g>
			<line class="st2" x1="13.8" y1="121.6" x2="21.5" y2="120.5"/>
			<polygon points="13.9,121.9 13.8,121.2 21.5,120.2 21.6,120.8 			"/>
		</g>
	</g>
	<g>
		<path class="st1" d="M136.8,30.2c0,0-7.5,8.3-18.8,6.5s-16.1-19.2-16.1-19.2s17.9-1.1,17.1,12.7c0,0,5.5-17.5,21.4-17.1
			C140.4,13,142.9,20.8,136.8,30.2z"/>
		<path class="st0" d="M122.2,35.9l-0.1-1.3c0,0,4.4-0.5,8.6-3c5.3-3.2,7.8-8.2,7.4-14.7c-2-0.1-9.5,0.1-15.4,11.6l-1.2-0.6
			c7.2-13.9,16.9-12.3,17.3-12.2l0.5,0.1v0.5c0.8,9.2-3.9,14.1-8,16.5C126.9,35.3,122.4,35.8,122.2,35.9z"/>
		<path class="st0" d="M109.9,30c-5.5-3.8-5.6-9.7-5.6-10v-0.6l0.6-0.1c9.7-1,13.4,8.3,13.4,8.4l-1.2,0.5c-0.1-0.3-3.2-8-11.4-7.6
			c0.2,1.5,1,5.6,5,8.3L109.9,30z"/>
		<path d="M112.2,26.5l-2.3,5.8c0,0-27.6,11.6-29.1,42.8c-1.7,34.9,32.7,54,32.7,54h15.2l-0.5-7.1c0,0,25.3-13.8,23.4-45.7
			c-1.8-32-26.1-42.8-26.1-42.8l-2.2-6.1L112.2,26.5z"/>
		<path class="st0" d="M115.5,127.2c-1,0-1.9-0.4-2.4-1.2l-2-2.6c-2.1-1-24.4-12.3-26.8-44.5c-2.4-32,24.2-44.5,27.1-45.8l1.1-2.6
			c0.3-0.7,0.9-1.3,1.6-1.5c0.7-0.3,1.5-0.2,2.2,0.1l1.6,0.8l2.7,0.1c1,0,1.9,0.6,2.4,1.5l2.6,4.6c1.8,1.3,22.6,17.7,23.4,44.4
			c0.8,25.9-20.7,38.4-24,40.2l0.5,3.4c0.1,0.7-0.1,1.4-0.5,1.9s-1.1,0.9-1.8,0.9l-7.5,0.3C115.6,127.2,115.6,127.2,115.5,127.2z
			 M115,30.1c-0.2,0-0.3,0-0.5,0.1c-0.4,0.1-0.7,0.4-0.9,0.8l-1.3,3.1l-0.3,0.1c-0.3,0.1-29,11.9-26.6,44.6
			c2.4,32.8,25.9,43.3,26.2,43.4l0.2,0.1l2.2,2.9c0.4,0.5,0.9,0.7,1.5,0.7l7.5-0.3c0.3,0,0.6-0.2,0.8-0.4c0.2-0.3,0.3-0.6,0.3-0.9
			l-0.6-4.3l0.4-0.2c0.2-0.1,24.5-12.2,23.7-39.2c-0.8-27.2-22.8-43.3-23-43.5l-0.2-0.2l-2.7-4.7c-0.3-0.5-0.8-0.8-1.3-0.8l-3.1-0.2
			l-1.7-0.9C115.5,30.1,115.3,30.1,115,30.1z"/>
		<path class="st1" d="M142.2,147h-12.3l-2.3-24.9c0-0.4,0.2-0.7,0.6-0.7c0.4,0,0.7,0.2,0.7,0.6l2.2,23.7h9.6
			c-0.3-0.9-0.9-2.5-2.1-3c-1.1-0.5-2.5-0.1-4.3,1.1c-0.3,0.2-0.7,0.1-0.9-0.2s-0.1-0.7,0.2-0.9c2.2-1.5,4-1.9,5.6-1.2
			c2.5,1.1,3,4.6,3,4.8V147z"/>
		<path class="st1" d="M105.7,147v-0.7c0-0.1,0.1-3,2.2-4.3c1.3-0.8,3-0.7,5,0.3c0.3,0.2,0.5,0.5,0.3,0.9c-0.2,0.3-0.5,0.5-0.9,0.3
			c-1.6-0.8-2.9-0.9-3.8-0.4c-0.9,0.6-1.3,1.7-1.5,2.5l8.8-0.2c0-17.7-8.6-19.6-8.6-19.7c-0.4-0.1-0.6-0.4-0.5-0.8s0.4-0.6,0.8-0.5
			s10,2.2,9.7,21.6v0.6L105.7,147z M116.6,146L116.6,146L116.6,146z"/>
		<path class="st0" d="M102.1,78c-0.6,0-1.2-0.1-1.9-0.4c-0.3-0.1-0.5-0.5-0.4-0.9c0.1-0.3,0.5-0.5,0.9-0.4c1.1,0.4,1.9,0.5,2.4,0
			c1.5-1.3,1.1-6.1,0.5-8.9c-0.1-0.4,0.1-0.7,0.5-0.8c0.3-0.1,0.7,0.1,0.8,0.5c0.2,0.8,1.7,8-0.9,10.2C103.5,77.8,102.9,78,102.1,78
			z"/>
		<path class="st0" d="M108.3,74c-0.1,0-0.2,0-0.3-0.1c-0.3-0.1-0.5-0.5-0.3-0.9c1.1-2.5,2.4-3.8,3.8-3.8c0,0,0,0,0.1,0
			c2.4,0,4.1,3.3,4.3,3.7c0.2,0.3,0,0.7-0.3,0.9c-0.3,0.2-0.7,0-0.9-0.3c-0.4-0.8-1.8-3-3.1-3l0,0c-0.9,0-1.8,1.1-2.7,3
			C108.8,73.9,108.6,74,108.3,74z"/>
		<path class="st0" d="M100.4,72c-0.2,0-0.4-0.1-0.5-0.3c-0.9-1.4-2.2-3.4-3.1-3.4l0,0c-0.4,0-1.2,0.5-2.2,2.8
			c-0.2,0.3-0.5,0.5-0.9,0.3c-0.3-0.2-0.5-0.5-0.3-0.9c1.1-2.3,2.2-3.4,3.3-3.5c1.6-0.1,2.7,1.5,4.3,4c0.2,0.3,0.1,0.7-0.2,0.9
			C100.7,72,100.6,72,100.4,72z"/>
		<path class="st1" d="M123.6,79.6L123.6,79.6c-0.8-0.1-1.2-0.5-1.5-1c-0.1-0.2-0.3-0.4-0.4-0.5c-0.5-0.6-0.6-1.3-0.3-2
			c0.1-0.2,0.3-0.5,0.5-0.7c-0.2-0.2-0.2-0.4-0.2-0.6s0.2-0.6,0.9-0.7c0.4,0,1,0,1.5,0.2c0.1,0,0.2,0,0.3,0c0.6,0.1,0.9,0.4,1,0.6
			c0.5,0.3,0.9,0.7,1.1,1.2c0.2,0.4,0.4,1.3-0.6,2.2C125,79.2,124.3,79.6,123.6,79.6z M125.5,76.6c-0.1,0.2-0.2,0.4-0.3,0.6
			C125.5,76.9,125.5,76.7,125.5,76.6z M123.9,75.6c0.1,0.2,0.2,0.4,0.3,0.6c0.1-0.2,0.2-0.4,0.2-0.5
			C124.2,75.7,124.1,75.6,123.9,75.6L123.9,75.6z"/>
		<path class="st1" d="M86.2,75.5L86.2,75.5c-0.8-0.1-1.2-0.6-1.5-1c-0.1-0.2-0.3-0.4-0.4-0.5c-0.5-0.6-0.6-1.3-0.3-2
			c0.1-0.2,0.3-0.5,0.5-0.7c-0.2-0.2-0.2-0.4-0.2-0.6s0.2-0.6,0.9-0.7c0.4,0,0.9,0,1.5,0.2c0.1,0,0.2,0,0.3,0c0.6,0.1,0.9,0.4,1,0.6
			c0.5,0.3,0.9,0.7,1.1,1.1s0.4,1.3-0.6,2.2C87.5,75.1,86.8,75.5,86.2,75.5z M88,72.6c-0.1,0.2-0.2,0.4-0.3,0.6
			C88,72.8,88.1,72.7,88,72.6z M86.5,71.6c0.1,0.2,0.2,0.4,0.3,0.6c0.1-0.2,0.2-0.4,0.2-0.5C86.8,71.6,86.7,71.6,86.5,71.6
			C86.5,71.5,86.5,71.6,86.5,71.6z"/>
		<path class="st3" d="M129.4,47.3c2.4-1.7,9.4,9.6,10.9,14.4s-2.4,5.8-3.4,3.2c-1-2.6-8.5-13.9-8.5-14.9S128.3,48.1,129.4,47.3z"/>
		<path class="st3" d="M127.7,45.1c-0.5,1.2-6.4-0.8-7-5S128.6,42.5,127.7,45.1z"/>
		<path class="st0" d="M108.2,87.3c-6.6,0-13.6-2.4-14-2.6c-0.3-0.1-0.5-0.5-0.4-0.8s0.5-0.5,0.8-0.4c0.1,0,13.2,4.6,20,1.3
			c1.8-0.9,2.9-2.2,3.5-4c0.1-0.3,0.5-0.5,0.8-0.4s0.5,0.5,0.4,0.8c-0.7,2.1-2.1,3.8-4.2,4.8C113.3,86.9,110.8,87.3,108.2,87.3z"/>
		<path class="st0" d="M109.2,92c-0.9,0-1.8-0.1-2.9-0.2c-6-0.8-9.6-1.9-10.5-3.4c-0.3-0.5-0.2-1-0.2-1.1c0.1-0.3,0.5-0.5,0.8-0.4
			s0.5,0.4,0.4,0.7c0.1,0.2,0.9,1.8,9.6,2.9c4.7,0.6,6.3-0.3,6.9-1.1c0.8-1.2-0.1-3-0.1-3c-0.2-0.3,0-0.7,0.3-0.9
			c0.3-0.2,0.7,0,0.9,0.3c0.1,0.1,1.3,2.5,0,4.4C113.6,91.4,111.8,92,109.2,92z M96.9,87.8L96.9,87.8L96.9,87.8z M96.9,87.8
			L96.9,87.8L96.9,87.8z"/>
		<path class="st1" d="M87.7,124.8c-0.3,0-0.7,0-1-0.1c-2.6-0.6-4.4-3.5-5.3-8.7c-0.1-0.4,0.2-0.7,0.5-0.8c0.4-0.1,0.7,0.2,0.8,0.5
			c0.8,4.6,2.3,7.2,4.3,7.7c3.5,0.8,8.6-4.9,10.2-7.2c0.2-0.3,0.6-0.4,0.9-0.2c0.3,0.2,0.4,0.6,0.2,0.9
			C98,117.4,92.6,124.8,87.7,124.8z"/>
		<polygon class="st1" points="71.3,109.5 62.5,102.6 53.7,104.1 49.1,111.6 58.8,110.1 64.6,115.9 60.5,123 51.2,124.8 58,130.4 
			66.4,128.8 72.7,119.1 79.5,118 78.9,115.1 84.9,114.2 85.3,117 129.6,109.3 130.1,107 127.2,107.3 127.2,101.8 131.6,101.1 
			132.4,97.4 		"/>
		<path class="st1" d="M84.3,119.2c-0.3,0-0.6-0.2-0.6-0.5l-0.7-3.1c-0.1-0.4,0.1-0.7,0.5-0.8c0.4-0.1,0.7,0.1,0.8,0.5l0.7,3.1
			c0.1,0.4-0.1,0.7-0.5,0.8C84.4,119.2,84.4,119.2,84.3,119.2z"/>
		<path class="st1" d="M81,120.2c-0.3,0-0.6-0.2-0.6-0.5l-0.9-3.8c-0.1-0.4,0.1-0.7,0.5-0.8c0.4-0.1,0.7,0.1,0.8,0.5l0.9,3.8
			c0.1,0.4-0.1,0.7-0.5,0.8C81.1,120.2,81,120.2,81,120.2z"/>
		<path class="st1" d="M128.8,105c-0.3,0-0.6-0.2-0.6-0.5c-0.1-0.4,0.2-0.7,0.5-0.8c25.8-4.7,30-9.4,30.2-11.9
			c0.3-3-5.4-5.7-7.5-6.5c-0.3-0.1-0.5-0.5-0.4-0.8s0.5-0.5,0.8-0.4c0.4,0.1,8.8,3.2,8.4,7.9c-0.4,5-10.6,9.3-31.2,13
			C128.9,105,128.8,105,128.8,105z"/>
		<path class="st1" d="M128.5,103.3c-0.3,0-0.6-0.2-0.6-0.6c-0.1-0.4,0.2-0.7,0.5-0.8l3.7-0.6c0.4-0.1,0.7,0.2,0.8,0.5
			c0.1,0.4-0.2,0.7-0.5,0.8l-3.7,0.6C128.6,103.3,128.6,103.3,128.5,103.3z"/>
		<path class="st1" d="M128.2,106.8c-0.3,0-0.6-0.3-0.7-0.6c0-0.4,0.2-0.7,0.6-0.7l4-0.4c0.4,0,0.7,0.2,0.7,0.6s-0.2,0.7-0.6,0.7
			L128.2,106.8C128.3,106.8,128.2,106.8,128.2,106.8z"/>
	</g>
</g>
</svg>
