<?xml version="1.0" encoding="utf-8"?>
<!-- Generator: Adobe Illustrator 27.1.1, SVG Export Plug-In . SVG Version: 6.00 Build 0)  -->
<svg version="1.1" id="Calque_1" xmlns="http://www.w3.org/2000/svg" xmlns:xlink="http://www.w3.org/1999/xlink" x="0px" y="0px"
	 viewBox="0 0 720 508" style="enable-background:new 0 0 720 508;" xml:space="preserve">
<style type="text/css">
	.st0{fill:#EDEDED;}
	.st1{fill:#FFFFFF;}
	.st2{fill:#5E5EF7;}
	.st3{fill:#575756;}
	.st4{fill:#57DBE9;}
</style>
<g>
	<path class="st0" d="M342.6,388.5c-32.2-13.4-169.7,100.8-269.1,92.8S39,303.7,199.4,327.6c0,0-108.7-96.8,53-209.5
		s382.7,22.1,437.5,140.5C738.9,364.7,741.6,554.2,342.6,388.5z"/>
	<path d="M17.7,361.9c-0.5,0-1-0.2-1.4-0.5c-1-0.8-1.2-2.2-0.4-3.2c27.3-36,68.5-60.1,116.2-68.3c-5.4-16.6-7.6-33.7-6.6-50.7
		c2.6-44.5,26.4-86.9,70.7-125.9c0.9-0.8,2.4-0.7,3.2,0.2c0.8,0.9,0.7,2.4-0.2,3.2c-43.3,38.2-66.6,79.5-69.2,122.7
		c-1,17.3,1.4,34.7,7.2,51.6l0.9,2.6l-2.7,0.4c-47.7,7.5-88.9,31.3-115.9,66.9C19,361.6,18.4,361.9,17.7,361.9z M669.7,169.8
		c-0.6,0-1.2-0.2-1.7-0.7c-50.9-53.9-120.9-95.9-192.1-115.2c-50.6-13.7-99.4-15.7-145-6.1c-1.2,0.3-2.4-0.5-2.7-1.8
		s0.5-2.4,1.8-2.7c46.4-9.8,95.9-7.8,147.2,6.1c72,19.5,142.8,62,194.2,116.5c0.9,0.9,0.8,2.4-0.1,3.2
		C670.9,169.6,670.3,169.8,669.7,169.8z"/>
	<path d="M684.4,198.6c-1.3,0-2.6-0.3-3.8-0.8c-2.2-1-3.9-2.8-4.7-5.1s-0.7-4.7,0.3-6.9s2.8-3.9,5.1-4.7s4.7-0.7,6.9,0.3
		c4.5,2.1,6.5,7.5,4.4,12.1c-1,2.2-2.8,3.9-5.1,4.7C686.5,198.4,685.4,198.6,684.4,198.6z M684.4,185c-0.5,0-1.1,0.1-1.6,0.3
		c-1.1,0.4-2,1.3-2.5,2.3c-0.5,1.1-0.6,2.3-0.1,3.4c0.4,1.1,1.3,2,2.3,2.5c1.1,0.5,2.3,0.6,3.4,0.1c1.1-0.4,2-1.3,2.5-2.3
		c1-2.3,0.1-4.9-2.2-6C685.7,185.1,685,185,684.4,185z"/>
	<circle cx="698.9" cy="210.9" r="3.9"/>
	<circle cx="11.4" cy="373.5" r="3.9"/>
</g>
<g>
	<g>
		<path class="st1" d="M511.7,400.5c-54,0.6-98.1-7-101.5-17.2h-0.3l0.2,14.2c0.1,10.8,45.7,19,101.8,18.4s101.5-10,101.3-20.8
			l-0.9-13.1C606.5,391.8,563.8,399.9,511.7,400.5z"/>
		<path d="M505.6,416.9c-24.8,0-48-1.7-65.7-4.9c-14-2.5-30.6-7.1-30.7-14.5l-0.2-15.2h2.1l0.2,0.7c2.8,8.5,42,17.1,100.5,16.5l0,0
			c50.3-0.6,94.1-8.5,99.7-18l1.6-2.8l1.1,16.3c0.2,12.9-51.9,21.3-102.3,21.8C509.8,416.9,507.7,416.9,505.6,416.9z M411,386.2
			l0.1,11.3c0.1,4.6,10.9,9.2,29.1,12.5c19.2,3.5,44.6,5.2,71.7,4.9c60.1-0.7,100.4-10.8,100.3-19.8l-0.7-10.6
			c-10.1,9.4-50.6,16.4-99.8,16.9l0,0C461.5,402.1,420.2,395.7,411,386.2z"/>
	</g>
	<g>
		
			<ellipse transform="matrix(0.9999 -1.171597e-02 1.171597e-02 0.9999 -4.4273 6.0245)" class="st1" cx="512" cy="380.9" rx="101.6" ry="19.6"/>
		<path d="M506.4,401.6c-48.5,0-96.8-7-96.9-19.4c-0.1-12.9,51.9-21.2,102.3-21.8c27.2-0.3,52.8,1.4,72.1,4.9
			c14,2.5,30.6,7.1,30.7,14.5l0,0c0.1,12.9-51.9,21.2-102.3,21.8C510.3,401.5,508.3,401.6,506.4,401.6z M518.1,362.3
			c-2.1,0-4.2,0-6.3,0c-60.1,0.7-100.4,10.8-100.3,19.8s40.6,18.1,100.8,17.4c60.1-0.7,100.4-10.8,100.3-19.8l0,0
			c-0.1-4.6-10.9-9.2-29.1-12.5C565.8,364.1,542.8,362.3,518.1,362.3z"/>
	</g>
	<path d="M480.8,351.9c5.8,0.6,117.5,28.6,117.5,28.6l43.5-124.6l-142.2-16.2L480.8,351.9z"/>
	<polygon points="598.3,380.4 505.6,412 411.1,375.7 480.8,351.1 	"/>
	<g>
		<polygon class="st1" points="494.1,344.8 508.3,252.9 628.5,263.5 590.5,368.7 		"/>
		<path class="st2" d="M591.9,371.4l-100.4-24.9l14.8-96.1l125.3,11.1L591.9,371.4z M496.7,343.1L589,366l36.3-100.4l-115.1-10.2
			L496.7,343.1z"/>
	</g>
	<g>
		<polygon points="80.3,389.4 208,385.3 207.9,451.7 83.3,456.9 		"/>
		<polygon class="st1" points="94,397.2 93.6,448.4 182.9,443.7 179.1,396.1 		"/>
		<circle class="st2" cx="197.1" cy="419.3" r="4.9"/>
	</g>
	<path d="M380.5,498.7c-101.3,0-112.6-20.2-121.5-36c-1.1-1.9-2-3.6-3.1-5.3c-0.8-1.2-1.7-2.6-2.5-3.9c-2.7-4.3-5.4-8.7-9.4-11.6
		c-5.1-3.7-11.3-5.7-17.8-5.7H202c-1.3,0-2.3-1-2.3-2.3s1-2.3,2.3-2.3h24.1c7.4,0,14.5,2.3,20.4,6.5c4.7,3.4,7.9,8.5,10.6,12.9
		c0.8,1.3,1.6,2.6,2.4,3.8c1.2,1.8,2.2,3.6,3.3,5.6c10.5,18.7,26.4,47,246.4,26.6c68.6-6.4,84.2-10.9,87.4-13
		c-7.4-4.8-59.9-9.5-98.5-13c-45-4-83.9-7.5-91.9-12.2c-4.7-2.7-5.6-6.4-5.6-8.9c0.1-17.5,47.9-45,53.3-48.1
		c1.1-0.6,2.5-0.2,3.1,0.9s0.2,2.5-0.9,3.1c-14.2,8-50.9,31.6-51,44.1c0,1.3,0.3,3.1,3.3,4.9c7.1,4.2,49.2,8,90,11.6
		c79.9,7.2,103.2,10.4,103.2,17.5c0,3.8,0,9-92.1,17.5C455.3,496.6,413.2,498.7,380.5,498.7z"/>
	<polygon class="st2" points="192.5,302.7 132.9,312.8 149.2,377.7 165.6,377.2 161.6,404.8 181.7,376.2 198.8,374.1 	"/>
	<path class="st1" d="M171.8,357.5l11.7-15.4c1.8-2.4,2.8-5.5,2.2-8.5s-3-6.9-9.2-6.7c-12.3,0.4-9.1,11.1-9.1,11.1
		s-5.5-11.9-14.2-6.5c-9.7,6-2.3,13.8,2.6,16.6C160.7,351,171.8,357.5,171.8,357.5z"/>
	<path d="M658.1,458.4c-0.3,0-0.6-0.1-0.9-0.2c-39.1-17.1-102.7-16-176.3-14.7l-16.3,0.3c-23,0.5-34.4-2.7-36.1-9.8
		c-3.2-13.4,35.3-33.1,43-37c1.1-0.6,2.5-0.1,3.1,1s0.1,2.5-1,3.1c-17.9,8.8-42.3,24.5-40.6,31.8c0.5,2,4.6,6.8,31.6,6.3l16.3-0.3
		c74.2-1.3,138.2-2.4,178.2,15.1c1.2,0.5,1.7,1.9,1.2,3C659.8,457.9,659,458.4,658.1,458.4z"/>
	<path d="M133.4,488.8c-1.2,0-2.2-0.9-2.3-2.1c-0.1-1.3,0.9-2.3,2.1-2.4c75.4-4.8,105.8-16,107.2-21.9c0.8-3.3,0.4-6.1-1.3-8.4
		c-4.7-6.5-17.4-7.7-17.5-7.7h-18c-1.3,0-2.3-1-2.3-2.3s1-2.3,2.3-2.3h18.2c0.8,0.1,15.1,1.3,21,9.5c2.5,3.4,3.2,7.5,2.1,12.2
		c-4.2,17.6-93.5,24.2-111.3,25.4C133.5,488.8,133.5,488.8,133.4,488.8z"/>
	<polygon class="st2" points="411.5,21.6 551.2,8.3 553.8,163.9 516.8,172.8 542.3,232.3 479.9,180.2 440.3,185.7 	"/>
	<path class="st1" d="M491,132.3l-35.6-27.5c-5.6-4.3-9.5-10.7-10-17.7c-0.5-7.1,2.7-17.2,16.6-20.6c27.8-6.6,27,19.4,27,19.4
		s5.1-30,27.9-23.2c25.4,7.5,13.5,29.6,4.2,38.9C511.9,110.9,491,132.3,491,132.3z"/>
	<path class="st2" d="M113.9,344.4L113.9,344.4c0,9.4,7.6,17,17,17l0,0l0,0c-9.4,0-17,7.6-17,17l0,0l0,0c0-9.4-7.6-17-17-17l0,0l0,0
		C106.3,361.4,113.9,353.8,113.9,344.4L113.9,344.4z"/>
</g>
<g>
	<path class="st2" d="M236.1,116.6c0,0,29.4,11.1,55.4-7.8s15.7-68.7,15.7-68.7s-46.4,20.1-26.6,53.6c0,0-36.2-36.9-75.5-15.3
		C205.1,78.3,208.9,101.1,236.1,116.6z"/>
	<path class="st1" d="M257.4,115.9c-15.5,0-35.1-5.7-45.6-31.1l-0.5-1.3l1.1-0.9c0.9-0.7,23-17.3,59,8.3c0.8,0.6,1,1.7,0.4,2.6
		c-0.6,0.8-1.7,1-2.6,0.4c-29.2-20.8-48.6-12-53.4-9.2c17.8,40.8,61,24.6,62.8,23.9c0.9-0.4,2,0.1,2.4,1.1s-0.1,2-1.1,2.4
		C279.8,112.2,269.9,115.9,257.4,115.9z"/>
	<path class="st1" d="M281.1,88.4c-0.9,0-1.7-0.7-1.8-1.7c0-0.3-2.7-28.3,22.9-38.2l1.6-0.6l0.8,1.5c0.3,0.6,7.7,15.7-1.2,32.2
		c-0.5,0.9-1.6,1.2-2.5,0.7s-1.2-1.6-0.7-2.5c6.4-11.9,3.3-23.2,1.8-27.2c-21.2,9.5-18.9,33.5-18.9,33.7c0.1,1-0.6,1.9-1.6,2
		C281.2,88.4,281.1,88.4,281.1,88.4z"/>
	<path class="st2" d="M364.7,450.1h-39l33.9-77c0.5-1.1,1.7-1.5,2.8-1.1c1.1,0.5,1.5,1.7,1.1,2.8l-31.3,71.1h28
		c-0.5-2.7-1.7-7.1-5-8.9c-2.8-1.6-6.9-0.9-12,1.9c-1,0.6-2.3,0.2-2.9-0.8s-0.2-2.3,0.8-2.9c6.5-3.6,11.9-4.3,16.1-1.9
		c6.9,3.8,7.4,14.1,7.4,14.5L364.7,450.1z"/>
	<path d="M262.8,97.4l3.9,15.5c0,0-73.6,60.6-53.9,152.1s93.4,110.9,93.4,110.9l-7.9,25.8l52.6-2.6c0,0,88.6-88.5,71-170.2
		c-23.7-109.6-114.4-125.1-114.4-125.1l-6.6-11.6L262.8,97.4z"/>
	<path class="st1" d="M309.5,393.7l4-22.8c-12.7-4.1-86.7-31.6-93.8-116c-7.3-86.1,41.5-128.9,47.9-134.1l2.7-16.2l11.4-1.4
		l14.5-8.7l8.3,16.6c9.5,2.1,79.7,20.1,106.3,109.6c28.5,95.7-68.1,169.2-69.1,169.9l-0.5,0.4L309.5,393.7z M273.8,108.3l-2.5,14.8
		l-0.7,0.5c-0.1,0.1-13.8,10.4-26.3,31.6c-11.6,19.6-24.5,52.7-20.6,99.3c7.5,89,91.7,112.7,92.6,112.9l1.9,0.5l-3.7,21.1l25-2.3
		c7.1-5.6,93.7-75.5,67.1-165c-14.4-48.6-41.9-75-62.5-88.7c-22.3-14.8-41.4-18.1-41.6-18.2l-1.1-0.2l-7.2-14.4l-11.8,6.9
		L273.8,108.3z"/>
	<path class="st2" d="M318.1,450.1h-37.4l23.5-74.8c0.3-1.1,1.5-1.7,2.6-1.4c1.1,0.3,1.7,1.5,1.4,2.6l-21.8,69.4h27.5
		c-0.3-2-1.1-5-3.6-6.9c-3.2-2.4-8.3-2.3-15.3,0.1c-1.1,0.4-2.3-0.2-2.7-1.3c-0.4-1.1,0.2-2.3,1.3-2.7c8.4-2.9,14.8-2.7,19.2,0.5
		c5.7,4.3,5.3,12.1,5.3,12.4V450.1z"/>
	<path class="st2" d="M292.4,266c-1.8,0-4-0.8-7.1-2.5c-3.9-2.1-4-4.9-3.8-6.4c0.3-1.6,1.2-3.1,2.5-4.4c0.3-0.8,0.9-1.9,2.6-2.6
		c0.3-0.1,0.7-0.2,1-0.3c1.7-1,3.4-1.7,4.6-1.9c2.3-0.4,3.2,0.8,3.5,1.4c0.4,0.7,0.3,1.4,0,2c0.8,0.5,1.5,1.1,2,1.7
		c1.7,1.9,1.9,4.2,0.8,6.3c-0.4,0.7-0.7,1.4-0.9,2c-0.7,1.8-1.5,3.6-3.6,4.3C293.5,265.9,293,266,292.4,266z M285.6,258.1
		c0,0.4,0.2,0.9,1.3,1.5C286.4,259.1,286,258.6,285.6,258.1z M288.3,254.5c0.2,0.3,0.5,0.8,1,1.4c0.1-0.8,0.3-1.5,0.4-2.1
		c-0.2,0-0.3,0-0.5,0C288.9,254,288.6,254.3,288.3,254.5z"/>
	<path class="st3" d="M321.1,146.1c0,0,13.7,33.1,37.9,32.3c24.2-0.8-13.7-30.7-18.6-32.3C335.6,144.5,323.5,140.5,321.1,146.1z"/>
	<path class="st3" d="M305.8,134.8c0,0-10.5-9.7,0-10.5s20.2,5.6,17.8,9.7C321.1,138.1,317.9,141.3,305.8,134.8z"/>
	<path class="st4" d="M322.3,255.1c-4,0-7.7-1.2-11-3.6c-12.7-9.1-14.9-32.6-15-33.6l-0.2-1.8l50.4-12.8l0.4,2.2
		c0.3,1.7,7.4,42.6-19.3,48.9C325.8,254.9,324,255.1,322.3,255.1z M300.7,219.3c0.8,5.5,3.8,22.2,13.1,28.8
		c3.7,2.7,7.9,3.4,12.9,2.2c19.7-4.6,17.5-33.5,16.5-41.8L300.7,219.3z"/>
	<path class="st4" d="M378.1,233.5c-2.8,0-5.5-0.7-8.1-2c-12.9-6.5-18.2-27-18.4-27.9l-0.5-1.8l41.6-15.2l0.8,1.7
		c0.4,0.7,9.3,18.5,4.3,32c-2,5.4-6,9.3-11.8,11.7C383.3,233,380.7,233.5,378.1,233.5z M356.1,204.4c1.6,5,6.6,18.8,15.7,23.4
		c3.9,2,8,2,12.6,0.2c4.7-1.9,7.8-4.9,9.4-9.3c3.6-9.5-1.3-22.4-3.3-26.9L356.1,204.4z"/>
	<path class="st4" d="M299.9,228.8c-0.9,0-1.8-0.6-2-1.6c-0.3-1.1,0.4-2.3,1.5-2.5l45.7-11.1c1.2-0.3,2.3,0.4,2.5,1.5
		c0.3,1.1-0.4,2.3-1.5,2.5l-45.7,11.1C300.3,228.8,300.1,228.8,299.9,228.8z"/>
	<path class="st4" d="M303.1,239.6c-0.9,0-1.8-0.6-2-1.6c-0.3-1.1,0.4-2.3,1.5-2.6l42.4-11.3c1.1-0.3,2.3,0.4,2.6,1.5
		c0.3,1.1-0.4,2.3-1.5,2.6l-42.4,11.3C303.5,239.5,303.3,239.6,303.1,239.6z"/>
	<path class="st4" d="M309.6,249.2c-0.9,0-1.8-0.6-2-1.6c-0.3-1.1,0.4-2.3,1.5-2.6l32.2-8.6c1.1-0.3,2.3,0.4,2.6,1.5
		c0.3,1.1-0.4,2.3-1.5,2.6l-32.2,8.6C309.9,249.2,309.8,249.2,309.6,249.2z"/>
	<path class="st4" d="M357.3,212.2c-0.9,0-1.7-0.6-2-1.5c-0.3-1.1,0.3-2.3,1.4-2.6l37.6-11.3c1.1-0.3,2.3,0.3,2.6,1.4
		c0.3,1.1-0.3,2.3-1.4,2.6l-37.6,11.3C357.7,212.2,357.5,212.2,357.3,212.2z"/>
	<path class="st4" d="M360,220.8c-0.9,0-1.7-0.6-2-1.5c-0.3-1.1,0.3-2.3,1.4-2.6l36.5-11.3c1.1-0.3,2.3,0.3,2.6,1.4
		c0.3,1.1-0.3,2.3-1.4,2.6l-36.5,11.3C360.4,220.8,360.2,220.8,360,220.8z"/>
	<path class="st4" d="M367,229.4c-0.9,0-1.7-0.5-2-1.4c-0.4-1.1,0.2-2.3,1.3-2.7l29-10.2c1.1-0.4,2.3,0.2,2.7,1.3
		c0.4,1.1-0.2,2.3-1.3,2.7l-29,10.2C367.5,229.3,367.2,229.4,367,229.4z"/>
	<path class="st4" d="M203.9,228.3c-1.1,0-2-0.8-2.1-1.9c-0.1-1.2,0.7-2.2,1.9-2.3l94.5-8.4c1.2,0,2.2,0.7,2.3,1.9
		c0.1,1.2-0.7,2.2-1.9,2.3l-94.5,8.4C204,228.3,203.9,228.3,203.9,228.3z"/>
	<path class="st2" d="M344.9,208c-0.9,0-1.7-0.6-2-1.5c-0.4-1.1,0.3-2.3,1.4-2.6l8.7-2.8c1.1-0.4,2.3,0.3,2.6,1.4
		c0.4,1.1-0.3,2.3-1.4,2.6l-8.7,2.8C345.3,208,345.1,208,344.9,208z"/>
	<path class="st2" d="M415.6,236.5c-1.8,0-4-0.8-7.1-2.5c-3.9-2.1-4-4.9-3.8-6.4c0.3-1.6,1.2-3.1,2.5-4.4c0.3-0.8,0.9-1.9,2.6-2.6
		c0.3-0.1,0.7-0.2,1-0.3c1.7-1,3.4-1.7,4.6-1.9c2.3-0.4,3.2,0.8,3.5,1.4c0.4,0.7,0.3,1.4,0,2c0.8,0.5,1.5,1.1,2,1.7
		c1.7,1.9,1.9,4.2,0.8,6.3c-0.4,0.7-0.7,1.4-0.9,2c-0.7,1.8-1.5,3.6-3.6,4.3C416.7,236.4,416.2,236.5,415.6,236.5z M408.8,228.6
		c0,0.4,0.2,0.9,1.3,1.5C409.6,229.6,409.2,229.1,408.8,228.6z M411.4,225c0.2,0.3,0.5,0.8,1,1.4c0.1-0.8,0.3-1.5,0.4-2.1
		c-0.2,0-0.3,0-0.5,0C412.1,224.6,411.7,224.8,411.4,225z"/>
	<path class="st1" d="M312.3,274.9c-1,0-1.9-0.8-2.1-1.8c-0.1-1.2,0.7-2.2,1.8-2.3c19.8-2.4,73.2-11.5,82.9-24.1
		c0.7-0.9,2-1.1,2.9-0.4c0.9,0.7,1.1,2,0.4,2.9c-12.8,16.5-82.7,25.3-85.7,25.6C312.5,274.9,312.4,274.9,312.3,274.9z"/>
	<path class="st1" d="M329.8,281.4c-1.1,0-2-0.8-2.1-1.9c-0.1-1.2,0.7-2.2,1.9-2.3c15.3-1.4,32.3-3.8,34.5-5.2
		c1-0.6,2.3-0.4,2.9,0.6s0.4,2.3-0.6,2.9c-4.1,2.7-31,5.4-36.4,5.9C329.9,281.4,329.8,281.4,329.8,281.4z"/>
	<path class="st1" d="M365.2,248.5c-1.3,0-2.6-0.3-3.8-1c-5.6-3.2-7.9-12.7-8.1-13.8s0.5-2.2,1.6-2.5s2.2,0.5,2.5,1.6
		c0.5,2.4,2.6,9.2,6.1,11.1c1,0.6,2,0.6,3.2,0.2c1.1-0.4,2.3,0.2,2.7,1.3c0.4,1.1-0.2,2.3-1.3,2.7
		C367.1,248.3,366.2,248.5,365.2,248.5z"/>
	<path class="st2" d="M461.6,373.1c-0.6,0-1.1-0.2-1.5-0.7c-9.5-10-38.2-6.7-38.5-6.6c-59.6,2-92.9-16.9-110.4-33.1
		c-19.1-17.7-24-35.8-24.2-36.6c-0.3-1.1,0.4-2.3,1.5-2.6c1.1-0.3,2.3,0.4,2.6,1.5c0.2,0.7,19.9,70.5,130.2,66.6
		c1.1-0.1,30.9-3.6,41.8,7.9c0.8,0.8,0.8,2.2-0.1,3C462.7,372.9,462.2,373.1,461.6,373.1z"/>
	<path class="st2" d="M456.8,377.5c-0.7,0-1.4-0.4-1.8-1c-1.5-2.4-7.5-4.4-11-5.1c-1.1-0.2-1.9-1.3-1.6-2.5c0.2-1.1,1.4-1.9,2.5-1.6
		c1.1,0.2,10.9,2.3,13.8,7.1c0.6,1,0.3,2.3-0.7,2.9C457.5,377.4,457.2,377.5,456.8,377.5z"/>
	<path class="st2" d="M467.6,369.8c-0.7,0-1.3-0.3-1.7-0.9c-1.7-2.5-8.1-5.2-11.7-6.4c-1.1-0.3-1.7-1.5-1.4-2.6
		c0.3-1.1,1.5-1.7,2.6-1.4c1.1,0.3,10.9,3.5,14,8.1c0.6,1,0.4,2.3-0.6,2.9C468.4,369.7,468,369.8,467.6,369.8z"/>
	<path class="st2" d="M484.4,361.4c-0.7,0-1.3-0.3-1.7-0.9c-0.1-0.1-8.1-10.4-38.5-9.3c-32.4,1.1-49.6-6.7-50.3-7
		c-1.1-0.5-1.5-1.7-1-2.8c0.5-1,1.7-1.5,2.8-1c0.2,0.1,17.1,7.7,48.4,6.6c33.1-1.1,41.7,10.6,42.1,11.1c0.7,0.9,0.4,2.3-0.5,2.9
		C485.3,361.3,484.9,361.4,484.4,361.4z"/>
	<path class="st2" d="M479.3,366c-1.2,0-2.1-0.9-2.1-2.1c-0.4-0.8-4.4-2.9-8.2-4.3c-1.1-0.4-1.7-1.6-1.3-2.7
		c0.4-1.1,1.6-1.7,2.7-1.3c5,1.8,11,4.6,11,8.2C481.4,365,480.5,366,479.3,366z"/>
	<path class="st2" d="M491.9,358.5c-0.9,0-1.8-0.6-2-1.5c-0.5-1.7-4.9-3.7-7.9-4.5c-1.1-0.3-1.8-1.4-1.5-2.5s1.4-1.8,2.5-1.5
		c1.6,0.4,9.7,2.6,11,7.4c0.3,1.1-0.4,2.3-1.5,2.6C492.2,358.4,492,358.5,491.9,358.5z"/>
</g>
</svg>
