<?xml version="1.0" encoding="utf-8"?>
<!-- Generator: Adobe Illustrator 27.1.1, SVG Export Plug-In . SVG Version: 6.00 Build 0)  -->
<svg version="1.1" id="Calque_1" xmlns="http://www.w3.org/2000/svg" xmlns:xlink="http://www.w3.org/1999/xlink" x="0px" y="0px"
	 viewBox="0 0 720 578" style="enable-background:new 0 0 720 578;" xml:space="preserve">
<style type="text/css">
	.st0{fill:#EDEDED;}
	.st1{fill:#5E5EF7;}
	.st2{fill:#FFFFFF;}
	.st3{fill:#575756;}
	.st4{fill:none;stroke:#000000;stroke-width:1.1397;stroke-linecap:round;stroke-miterlimit:10;}
</style>
<g>
	<path class="st0" d="M185.3,300.7c-47.2,19.9-146.5,93.1-129.1,166.4S171.7,525.4,230,523c58.4-2.5,139.1,27.3,198.7,29.8
		s224.8-7.5,222.3-114.2S550.4,252.2,550.4,252.2s126.7-41,119.2-120.5S416.3,1.4,330.6,143S185.3,300.7,185.3,300.7z"/>
	<path d="M710,130.6c-1.3,0-2.4-1-2.6-2.3c-3.4-36-32.5-68.6-79.9-89.3c-14.2-6.2-29.8-11.3-46.5-15.1
		c-97.3-22.3-222.5-0.2-282.8,99.5c-0.7,1.2-2.3,1.6-3.5,0.9s-1.6-2.3-0.9-3.5C355.4,18.8,483-3.9,582.1,18.8
		c17,3.9,33,9.1,47.4,15.4c49.2,21.5,79.4,55.6,83,93.5c0.1,1.4-0.9,2.7-2.3,2.8C710.1,130.6,710,130.6,710,130.6z"/>
	<path d="M653.8,533.5c-0.7,0-1.3-0.3-1.8-0.8c-1-1-1-2.6,0-3.6c25-24.5,37.8-56.2,37-91.5c-0.6-26.7-6.3-53.9-16.8-80.8
		c-0.5-1.3,0.1-2.8,1.5-3.3c1.3-0.5,2.8,0.1,3.3,1.5c10.8,27.5,16.6,55.2,17.2,82.6c0.9,36.8-12.5,69.7-38.5,95.3
		C655.1,533.3,654.4,533.5,653.8,533.5z"/>
	<path d="M16.8,479c-1.2,0-2.2-0.8-2.5-2c-15.1-63.5,24.8-118.1,61-152.7c1-1,2.6-0.9,3.6,0.1s0.9,2.6-0.1,3.6
		c-35.2,33.7-74,86.7-59.5,147.9c0.3,1.4-0.5,2.8-1.9,3.1C17.2,479,17,479,16.8,479z"/>
	<path d="M33.3,509.7c-5.6,0-10.2-4.6-10.2-10.2s4.6-10.2,10.2-10.2s10.2,4.6,10.2,10.2C43.5,505.2,38.9,509.7,33.3,509.7z
		 M33.3,494.5c-2.8,0-5.1,2.3-5.1,5.1c0,2.8,2.3,5.1,5.1,5.1s5.1-2.3,5.1-5.1C38.4,496.8,36.1,494.5,33.3,494.5z"/>
	<circle cx="58.2" cy="514.5" r="4.4"/>
	<path class="st1" d="M701,138L701,138c0,10.5,8.5,19,19,19l0,0l0,0c-10.5,0-19,8.5-19,19l0,0l0,0c0-10.5-8.5-19-19-19l0,0l0,0
		C692.4,157,700.9,148.5,701,138L701,138z"/>
	<circle cx="665.3" cy="340.9" r="4.4"/>
</g>
<g>
	<polygon points="375.4,93.5 365.1,162.9 621.1,171.3 619.2,100.1 	"/>
	<polygon points="365.1,192 369.7,268.9 444.8,269.8 450.4,189.2 	"/>
	<polygon points="464,188.2 456.5,269.8 616.9,267.9 620.6,193.8 	"/>
	<polygon points="498.1,289.5 496.2,312.1 620,315.8 619,290.5 	"/>
	<polygon points="496.2,321.4 620,323.3 619,349.6 493.4,342.1 	"/>
	<polygon points="493.4,352.4 493.4,372.1 616.2,374.9 616.2,357.1 	"/>
	<g>
		<ellipse transform="matrix(0.1602 -0.9871 0.9871 0.1602 -41.7113 867.5743)" cx="489" cy="458.3" rx="24.4" ry="24.4"/>
		<path class="st1" d="M496.8,473H480v-14.6c0-1.3,1.1-2.4,2.4-2.4s2.4,1.1,2.4,2.4v9.9h7.8l0.8-10.1c0.1-1.3,1.3-2.3,2.5-2.1
			c1.3,0.1,2.3,1.2,2.1,2.5L496.8,473z"/>
		<path class="st1" d="M476.3,456.1c-0.7,0-1.4-0.3-1.9-0.9c-0.8-1-0.6-2.5,0.5-3.3l15-11.3l12,10.9c1,0.9,1,2.4,0.2,3.3
			c-0.9,1-2.4,1-3.3,0.2l-9.1-8.3l-11.9,8.9C477.3,455.9,476.8,456.1,476.3,456.1z"/>
	</g>
	<polygon points="334.2,563.5 558.7,563.5 561.7,530.8 349,526.3 	"/>
	<path class="st1" d="M342.5,406.8c-1.4,0-2.3-0.1-2.6-0.1c-1.3-0.1-2.3-1.2-2.2-2.5c0.1-1.3,1.2-2.3,2.5-2.2
		c0.4,0,40.8,2.4,70.9-34.8c0.8-1,2.3-1.2,3.3-0.4c1,0.8,1.2,2.3,0.4,3.3C387.3,404.3,352.2,406.8,342.5,406.8z"/>
	<path class="st1" d="M398.3,374.9c-0.7,0-1.4-0.3-1.9-0.9c-0.8-1-0.6-2.5,0.5-3.3c0.1,0,5.3-4.1,6.6-10.6c0.3-1.3,1.5-2.1,2.8-1.8
		c1.3,0.3,2.1,1.5,1.8,2.8c-1.7,8.3-8.1,13.2-8.4,13.4C399.3,374.7,398.8,374.9,398.3,374.9z"/>
	<path class="st1" d="M406.6,387.6c-0.9,0-1.8-0.5-2.2-1.4c-0.5-1.2,0-2.6,1.2-3.1c6.3-2.8,12.4-6.6,12.9-8.1
		c0.3-1.3,1.5-2.1,2.8-1.8c1.3,0.3,2.1,1.5,1.8,2.8c-0.9,4.3-10.1,9-15.6,11.4C407.2,387.6,406.9,387.6,406.6,387.6z"/>
	<g>
		<circle cx="546.3" cy="458.3" r="24.4"/>
		<path class="st1" d="M541.2,470.4c-0.7,0-1.4-0.3-1.8-0.9c-0.8-1-0.7-2.5,0.4-3.3l9.6-7.7l-12.7-6c-1.2-0.6-1.7-2-1.1-3.1
			c0.6-1.2,2-1.7,3.1-1.1l19.5,9.3L542.8,470C542.2,470.3,541.7,470.4,541.2,470.4z"/>
	</g>
	<g>
		<circle cx="431.8" cy="458.3" r="24.4"/>
		<path class="st1" d="M440.5,468.6c-0.3,0-0.7-0.1-1-0.2l-19.5-9.3l15.4-12.4c1-0.8,2.5-0.6,3.3,0.4s0.6,2.5-0.4,3.3l-9.6,7.7
			l12.7,6c1.2,0.6,1.7,2,1.1,3.1C442.2,468.1,441.4,468.6,440.5,468.6z"/>
	</g>
	<path class="st1" d="M409.5,228.3c-1,0-1.9-0.6-2.2-1.5c-25.8-69.8,23.2-89.1,23.7-89.3c1.2-0.5,2.6,0.2,3,1.4
		c0.5,1.2-0.2,2.6-1.4,3c-1.9,0.7-45.1,18-20.9,83.2c0.5,1.2-0.2,2.6-1.4,3C410,228.2,409.8,228.3,409.5,228.3z"/>
	<path class="st1" d="M414.9,246.1l-23.6-23.6c-0.9-0.9-0.9-2.4,0-3.3c0.9-0.9,2.4-0.9,3.3,0l17.8,17.8l6.4-24.2
		c0.3-1.3,1.6-2,2.9-1.7s2,1.6,1.7,2.9L414.9,246.1z"/>
	<path class="st1" d="M585.8,422.3c-0.3,0-0.5,0-0.8-0.1c-1.2-0.4-1.8-1.8-1.4-3c24.1-65.3-19.1-82.5-20.9-83.2
		c-1.2-0.5-1.8-1.8-1.4-3c0.5-1.2,1.8-1.8,3-1.4c0.5,0.2,49.5,19.5,23.7,89.3C587.7,421.7,586.8,422.3,585.8,422.3z"/>
	<path class="st1" d="M580.4,440.1l-8.5-32.1c-0.3-1.3,0.4-2.5,1.7-2.9c1.3-0.3,2.5,0.4,2.9,1.7l6.4,24.2l17.8-17.8
		c0.9-0.9,2.4-0.9,3.3,0c0.9,0.9,0.9,2.4,0,3.3L580.4,440.1z"/>
</g>
<g>
	<path class="st1" d="M263.2,139.1c0,0-13.5,37.7-53.3,47.3S130.3,145,130.3,145s57.8-28.4,73.9,18.4c0,0-6-65.5,47.4-85.9
		C251.6,77.5,270.6,99.9,263.2,139.1z"/>
	<path class="st2" d="M221.6,178.3c-0.8,0-1.6-0.4-2.1-1.2c-0.6-1.1-0.2-2.6,0.9-3.2c2.2-1.2,53.5-29.7,28.6-80.7
		c-6.8,2.3-31.2,13.5-35.1,59.4c-0.1,1.3-1.2,2.2-2.5,2.1c-1.3-0.1-2.3-1.3-2.1-2.5c4.8-56,39.1-63.8,40.5-64.1l1.7-0.4l0.8,1.6
		c29,56.1-29.1,88.4-29.6,88.7C222.4,178.2,222,178.3,221.6,178.3z"/>
	<path class="st2" d="M173.5,174.2c-0.2,0-0.4,0-0.7-0.1c-19.9-6.7-25.2-24.5-25.5-25.3l-0.5-1.8l1.7-0.7
		c28.7-11.2,47.7,13.6,47.9,13.8c0.7,0.9,0.5,2.2-0.4,2.9s-2.2,0.5-2.9-0.4s-16.6-21.5-41.2-13.2c1.8,4.4,7.9,15.9,22.1,20.7
		c1.1,0.4,1.7,1.5,1.3,2.6C175.2,173.6,174.4,174.2,173.5,174.2z"/>
	<path d="M209.8,147.1l-4.5,22.3c0,0-96.7,29.7-81.8,160.6S244,474.2,244,474.2l1.5,22.3l49.1-1.5l3-25.3c0,0,84.8-81.8,43.1-190.3
		s-95.2-111.5-95.2-111.5l-13.4-23.8L209.8,147.1z"/>
	<path class="st2" d="M278.7,483.8h-21.5l-2.8-20.7C239.6,462,148.6,450.7,131,334.7C113.1,217,198.6,178.8,211,174l1.7-18.2
		c0.1-1.3,1.2-2.3,2.6-2.1c1.3,0.1,2.2,1.3,2.1,2.6l-2,21.2l-1.5,0.5c-4,1.3-96.8,33.9-78.3,156c18.5,121.8,119.8,124.5,120.8,124.5
		h2l2.8,20.6h14.2l8.1-20.7l0.5-0.4c0.7-0.5,66.4-51.7,50.9-149.4c-15.6-97.7-99.2-128.5-100.1-128.8l-1.1-0.4l-6.9-20.8
		c-0.4-1.2,0.3-2.6,1.5-3s2.6,0.3,3,1.5l6.2,18.6c10.1,4,87,37.7,102.1,132.1c15.3,95.8-45.7,148.2-52.1,153.5L278.7,483.8z"/>
	<path class="st1" d="M279.7,567.2h-38.1v-93c0-1.3,1.1-2.4,2.4-2.4c1.3,0,2.4,1.1,2.4,2.4v88.3h28.3c-0.5-2.8-1.9-7.4-5.3-9.5
		c-3-1.8-7.3-1.5-12.6,0.9c-1.2,0.5-2.6,0-3.1-1.2s0-2.6,1.2-3.1c6.9-3.1,12.6-3.3,17-0.6c7.3,4.5,7.9,15.3,7.9,15.8L279.7,567.2z"
		/>
	<path class="st1" d="M405.9,528.7h-45l0.1-2.5c0-0.5,2.9-52,0-69.4c-0.2-1.2-0.8-2-1.9-2.6c-10.1-5.1-47.2,11-60.6,17.7
		c-1.2,0.6-2.6,0.1-3.2-1.1s-0.1-2.6,1.1-3.2c5.2-2.6,50.8-24.8,64.8-17.6c2.4,1.3,4,3.3,4.4,6c2.6,15.9,0.7,57.2,0.2,67.9H401
		c-0.4-4.6-2.1-12.1-6.7-14.6c-3.8-2-9.2-0.7-16.3,4c-1.1,0.7-2.5,0.4-3.3-0.7c-0.7-1.1-0.4-2.5,0.7-3.3c8.6-5.7,15.7-7.2,21.1-4.3
		c9.2,4.9,9.3,20.4,9.3,21.1L405.9,528.7L405.9,528.7z"/>
	<path class="st1" d="M124.4,479.7c-1.2,0-2.2-0.9-2.3-2.1c-4.4-45.4,24.7-66.4,26-67.3c1.1-0.7,2.5-0.5,3.3,0.6
		c0.7,1.1,0.5,2.5-0.6,3.3c-0.3,0.2-28.1,20.5-24,63c0.1,1.3-0.8,2.4-2.1,2.6C124.6,479.7,124.5,479.7,124.4,479.7z"/>
	<path class="st1" d="M115.7,483c-1.1,0-2.1-0.8-2.3-2l-2.2-14.1c-0.2-1.3,0.7-2.5,2-2.7s2.5,0.7,2.7,2l2.2,14.1
		c0.2,1.3-0.7,2.5-2,2.7C116,483,115.8,483,115.7,483z"/>
	<path class="st1" d="M132,481.9c-1.2,0-2.3-0.9-2.3-2.2l-1.1-15.2c-0.1-1.3,0.9-2.4,2.2-2.5s2.4,0.9,2.5,2.2l1.1,15.2
		c0.1,1.3-0.9,2.4-2.2,2.5C132.1,481.9,132.1,481.9,132,481.9z"/>
	<polygon class="st1" points="394.4,357.8 403.1,346.9 431.4,375.2 420.5,388.2 444.4,408.8 540,321.9 485.7,250.3 384.7,345.8 	"/>
	<polygon points="105.2,474.9 108.8,488.1 137.4,485.9 138.2,471.2 162.4,469 173.4,539.4 89,551.2 80.2,477.1 	"/>
	<path class="st3" d="M244.2,213.4c0,0,15.4,37.1,42.5,36.2s-15.4-34.4-20.8-36.2C260.4,211.6,246.9,207,244.2,213.4z"/>
	<path class="st3" d="M227,200.7c0,0-11.8-10.9,0-11.8s22.6,6.3,19.9,10.9C244.2,204.3,240.5,207.9,227,200.7z"/>
	<path class="st2" d="M280.7,323.3c-1.3,0-2.6-0.3-3.8-0.9c-10-4.8-11.1-28.6-11.2-31.3c0-1.2,0.9-2.2,2.1-2.2s2.2,0.9,2.2,2.1
		c0.3,9.2,3,24.8,8.8,27.6c2.1,1,4.6,0.3,7.6-2c0.9-0.7,2.3-0.5,3,0.4s0.5,2.3-0.4,3C286.1,322.2,283.3,323.3,280.7,323.3z"/>
	<path class="st2" d="M237.9,320.9c-0.4,0-0.8-0.1-1.1-0.3c-1-0.6-1.3-1.9-0.7-2.9c0.9-1.3,8.6-13.1,16.8-12.7
		c3.7,0.2,6.7,2.7,9,7.5c0.5,1.1,0.1,2.3-1,2.8s-2.3,0.1-2.8-1c-1.6-3.3-3.4-5-5.4-5.1c-4.9-0.2-11.1,7.8-13,10.7
		C239.3,320.6,238.6,320.9,237.9,320.9z"/>
	<path class="st2" d="M283,298.2c-0.5,0-1-0.2-1.4-0.5c-0.9-0.8-1-2.1-0.3-3c0.8-1,8.3-9.5,15.7-8.7c3.4,0.4,6.1,2.6,8,6.5
		c0.5,1.1,0.1,2.3-1,2.9c-1,0.5-2.3,0.1-2.9-1c-1.3-2.6-2.8-3.9-4.7-4.2c-4.4-0.5-10.1,5-12,7.2C284.2,297.9,283.6,298.2,283,298.2z
		"/>
	<path class="st1" d="M215.6,345.6c-1.8,0-4-0.8-7.2-2.5c-3.9-2.1-4.1-5-3.8-6.5c0.3-1.6,1.3-3.2,2.6-4.5c0.3-0.8,0.9-2,2.7-2.6
		c0.3-0.1,0.7-0.2,1.1-0.3c1.7-1,3.4-1.7,4.7-1.9c2.3-0.4,3.2,0.8,3.5,1.4c0.4,0.7,0.3,1.5,0,2.1c0.8,0.5,1.5,1.1,2.1,1.7
		c1.7,1.9,2,4.3,0.8,6.5c-0.4,0.7-0.7,1.4-1,2.1c-0.8,1.8-1.5,3.7-3.6,4.4C216.7,345.5,216.2,345.6,215.6,345.6z M208.7,337.6
		c0,0.4,0.3,0.9,1.3,1.5C209.5,338.6,209.1,338.1,208.7,337.6z M211.4,333.9c0.2,0.4,0.5,0.8,1,1.4c0.1-0.9,0.3-1.6,0.4-2.2
		c-0.1,0-0.3,0-0.5,0C212,333.5,211.7,333.7,211.4,333.9z"/>
	<path class="st2" d="M258.7,350.1c-5.6,0-11.4-1-17.4-3.3c-1.1-0.4-1.6-1.7-1.2-2.8c0.4-1.1,1.7-1.6,2.8-1.2
		c34.1,13.5,66.6-23.6,67-24c0.8-0.9,2.1-1,3-0.2s1,2.1,0.2,3C311.9,323,288.1,350.1,258.7,350.1z"/>
	<path class="st1" d="M330,302.3c-1.8,0-4-0.8-7.2-2.5c-3.9-2.1-4.1-5-3.8-6.5c0.3-1.6,1.3-3.2,2.6-4.5c0.3-0.8,0.9-2,2.7-2.6
		c0.3-0.1,0.7-0.2,1.1-0.3c1.7-1,3.4-1.7,4.7-1.9c2.3-0.4,3.2,0.8,3.5,1.4c0.4,0.7,0.3,1.5,0,2.1c0.8,0.5,1.5,1.1,2.1,1.7
		c1.7,1.9,2,4.3,0.8,6.5c-0.4,0.7-0.7,1.4-1,2.1c-0.8,1.8-1.5,3.7-3.6,4.4C331.2,302.2,330.6,302.3,330,302.3z M323.1,294.2
		c0,0.4,0.3,0.9,1.3,1.5C324,295.2,323.5,294.7,323.1,294.2z M325.8,290.6c0.2,0.4,0.5,0.8,1,1.4c0.1-0.9,0.3-1.6,0.4-2.2
		c-0.2,0-0.3,0-0.5,0C326.5,290.1,326.1,290.3,325.8,290.6z"/>
	<path class="st2" d="M255.5,373.6c-0.6,0-1.2-0.1-1.8-0.2c-3.3-0.6-4.7-2.6-5.3-4.1c-2.7-7,6.4-19.8,8.3-22.3c0.7-0.9,2-1.1,3-0.4
		c0.9,0.7,1.1,2,0.4,3c-4,5.4-9.1,14.7-7.7,18.2c0.2,0.5,0.6,1.1,2.1,1.4c7.6,1.4,14.5-15.9,16.3-22c0.3-1.1,1.5-1.8,2.6-1.5
		s1.8,1.5,1.5,2.6C274.1,351.1,267.2,373.6,255.5,373.6z"/>
	<path class="st4" d="M173.8,261.5"/>
</g>
</svg>
