<svg xmlns="http://www.w3.org/2000/svg" width="40" height="40" viewBox="0 0 40 40" fill="none"><g clip-path="url(#clip0_401_561)"><path d="M7.49983 4.49999C13.1998 0.699989 28.2998 1.09999 36.5998 10.2C44.8998 19.3 35.7998 33.1 29.2998 36.1C22.7998 39.1 6.29983 38.9 1.79983 28.8C-2.70017 18.7 1.79983 8.19999 7.49983 4.49999Z" fill="#5E5EF7"></path><path d="M20 11C23.5 11 25.7 11.5 27.1 12.8C28.5 14.1 29 16.4 29 20C29 23.4 28.5 25.6 27.3 27C26.1 28.4 23.7 29 20 29C16.3 29 14 28.4 12.7 26.9C11.4 25.5 11 23.3 11 20C11 16.5 11.5 14.2 12.9 12.9C14.3 11.6 16.5 11 20 11Z" stroke="white" stroke-width="1.5" stroke-linecap="round" stroke-linejoin="round"></path><path d="M15 20L17 22L15 24" stroke="white" stroke-width="1.5" stroke-linecap="round" stroke-linejoin="round"></path><path d="M20.7998 23.2H25.1998" stroke="white" stroke-width="1.5" stroke-linecap="round" stroke-linejoin="round"></path></g><defs><clipPath id="clip0_401_561"><rect width="40" height="40" fill="white"></rect></clipPath></defs></svg>