<svg xmlns="http://www.w3.org/2000/svg" width="40" height="40" viewBox="0 0 40 40" fill="none"><g clip-path="url(#clip0_401_576)"><path d="M7.49983 4.49999C13.1998 0.699989 28.2998 1.09999 36.5998 10.2C44.8998 19.3 35.7998 33.1 29.2998 36.1C22.7998 39.1 6.29983 38.9 1.79983 28.8C-2.70017 18.7 1.79983 8.19999 7.49983 4.49999Z" fill="#5E5EF7"></path><path d="M26.5654 27.094C21.7534 32.0694 20.97 31.2595 12.2412 22.1185C9.89113 19.6887 11.4578 13.0933 12.2412 12.2833C13.0245 11.4734 19.4033 9.85347 21.7534 12.2833C30.4822 21.3086 31.2655 22.1185 26.5654 27.094Z" stroke="white" stroke-width="1.5" stroke-linecap="round" stroke-linejoin="round"></path><path d="M15.8752 16.625C16.1743 16.625 16.4168 16.3732 16.4168 16.0625C16.4168 15.7518 16.1743 15.5 15.8752 15.5C15.576 15.5 15.3335 15.7518 15.3335 16.0625C15.3335 16.3732 15.576 16.625 15.8752 16.625Z" fill="white" stroke="white" stroke-linecap="round" stroke-linejoin="round"></path></g><defs><clipPath id="clip0_401_576"><rect width="40" height="40" fill="white"></rect></clipPath></defs></svg>