<svg xmlns="http://www.w3.org/2000/svg" width="40" height="40" viewBox="0 0 40 40" fill="none"><g clip-path="url(#clip0_404_1041)"><path d="M7.49983 4.49999C13.1998 0.699989 28.2998 1.09999 36.5998 10.2C44.8998 19.3 35.7998 33.1 29.2998 36.1C22.7998 39.1 6.29983 38.9 1.79983 28.8C-2.70017 18.7 1.79983 8.19999 7.49983 4.49999Z" fill="#5E5EF7"></path><path d="M17.4165 14.2917C17.4165 16.3751 17.0693 17.4167 14.2915 17.4167C11.5137 17.4167 11.1665 16.3751 11.1665 14.2917C11.1665 12.2084 11.5571 11.1667 14.2915 11.1667C17.0259 11.1667 17.4165 12.2084 17.4165 14.2917Z" stroke="white" stroke-width="1.5" stroke-linecap="round" stroke-linejoin="round"></path><path d="M17.4165 24.7083C17.4165 26.7916 17.0693 27.8333 14.2915 27.8333C11.5137 27.8333 11.1665 26.7916 11.1665 24.7083C11.1665 22.6249 11.5571 21.5833 14.2915 21.5833C17.0259 21.5833 17.4165 22.6249 17.4165 24.7083Z" stroke="white" stroke-width="1.5" stroke-linecap="round" stroke-linejoin="round"></path><path d="M27.8335 14.2917C27.8335 16.3751 27.4863 17.4167 24.7085 17.4167C21.9307 17.4167 21.5835 16.3751 21.5835 14.2917C21.5835 12.2084 21.9741 11.1667 24.7085 11.1667C27.4429 11.1667 27.8335 12.2084 27.8335 14.2917Z" stroke="white" stroke-width="1.5" stroke-linecap="round" stroke-linejoin="round"></path><path d="M27.8335 24.7083C27.8335 26.7916 27.4863 27.8333 24.7085 27.8333C21.9307 27.8333 21.5835 26.7916 21.5835 24.7083C21.5835 22.6249 21.9741 21.5833 24.7085 21.5833C27.4429 21.5833 27.8335 22.6249 27.8335 24.7083Z" stroke="white" stroke-width="1.5" stroke-linecap="round" stroke-linejoin="round"></path></g><defs><clipPath id="clip0_404_1041"><rect width="40" height="40" fill="white"></rect></clipPath></defs></svg>