<svg xmlns="http://www.w3.org/2000/svg" width="40" height="40" viewBox="0 0 40 40" fill="none"><g clip-path="url(#clip0_404_1073)"><path d="M7.49983 4.49999C13.1998 0.699989 28.2998 1.09999 36.5998 10.2C44.8998 19.3 35.7998 33.1 29.2998 36.1C22.7998 39.1 6.29983 38.9 1.79983 28.8C-2.70017 18.7 1.79983 8.19999 7.49983 4.49999Z" fill="#5E5EF7"></path><path d="M27.9844 16.7592C26.6719 14.9842 24.8125 14.7754 24.1563 14.7754C22.5156 14.5666 20.9844 15.7151 20.1094 15.7151C19.2344 15.7151 18.0313 14.7754 16.6094 14.8798C14.0938 14.8798 11.25 16.8636 11.25 20.8312C11.25 25.1121 14.75 30.0194 16.9375 29.915C18.3594 29.915 18.6875 29.0797 20.3281 29.0797C21.9688 29.0797 22.2969 29.915 23.8281 29.915C25.9062 29.915 27.9844 26.5739 28.75 24.6945C25.25 22.9195 24.8125 18.743 27.9844 16.7592Z" stroke="white" stroke-width="1.5" stroke-linecap="round" stroke-linejoin="round"></path><path d="M24.6394 7.75C21.5459 7.84905 19.1154 10.3254 19.4468 12.4055C22.2088 12.6036 24.9708 10.1273 24.6394 7.75Z" stroke="white" stroke-width="1.5" stroke-linecap="round" stroke-linejoin="round"></path></g><defs><clipPath id="clip0_404_1073"><rect width="40" height="40" fill="white"></rect></clipPath></defs></svg>