<svg xmlns="http://www.w3.org/2000/svg" width="40" height="40" viewBox="0 0 40 40" fill="none"><g clip-path="url(#clip0_401_607)"><path d="M7.49983 4.49999C13.1998 0.699989 28.2998 1.09999 36.5998 10.2C44.8998 19.3 35.7998 33.1 29.2998 36.1C22.7998 39.1 6.29983 38.9 1.79983 28.8C-2.70017 18.7 1.79983 8.19999 7.49983 4.49999Z" fill="#5E5EF7"></path><path d="M21.0048 11.9011L22.6978 15.0051C22.9094 15.5057 23.4384 15.8061 23.9675 15.9062L27.565 16.4068C28.9405 16.6071 29.4695 18.2091 28.5172 19.1103L25.872 21.4132C25.4488 21.8137 25.2372 22.3143 25.343 22.815L25.9778 26.1191C26.1894 27.4208 24.8139 28.4221 23.5442 27.8213L20.2641 26.2193C19.7351 26.019 19.2061 26.019 18.677 26.2193L15.3969 27.8213C14.1272 28.4221 12.7517 27.4208 12.9633 26.1191L13.5982 22.815C13.704 22.3143 13.4924 21.7136 13.0691 21.4132L10.5297 19.0101C9.47164 18.109 10.1065 16.507 11.482 16.3067L15.0795 15.8061C15.6086 15.706 16.1376 15.4056 16.3492 15.0051L17.9364 11.9011C18.677 10.6996 20.37 10.6996 21.0048 11.9011Z" stroke="white" stroke-width="1.5" stroke-linecap="round" stroke-linejoin="round"></path></g><defs><clipPath id="clip0_401_607"><rect width="40" height="40" fill="white"></rect></clipPath></defs></svg>