<svg xmlns="http://www.w3.org/2000/svg" width="40" height="40" viewBox="0 0 40 40" fill="none"><g clip-path="url(#clip0_404_860)"><path d="M7.49983 4.49999C13.1998 0.699989 28.2998 1.09999 36.5998 10.2C44.8998 19.3 35.7998 33.1 29.2998 36.1C22.7998 39.1 6.29983 38.9 1.79983 28.8C-2.70017 18.7 1.79983 8.19999 7.49983 4.49999Z" fill="#5E5EF7"></path><path d="M12.4084 18.7533C11.9679 18.5234 11.4711 18.4239 10.9762 18.4663C10.4812 18.5088 10.0085 18.6914 9.61355 18.9928V15.7072C9.60059 15.3838 9.65429 15.0612 9.77133 14.7595C9.88837 14.4578 10.0662 14.1834 10.2938 13.9534C10.5215 13.7234 10.7939 13.5428 11.0943 13.4228C11.3948 13.3027 11.7166 13.2458 12.04 13.2556H15.0681C14.9218 12.9134 14.8464 12.5451 14.8464 12.1728C14.8464 11.8006 14.9218 11.4322 15.0681 11.09C15.2759 10.5717 15.6683 10.1489 16.1694 9.90304C16.5679 9.6944 17.0133 9.59191 17.4628 9.60543C17.9123 9.61896 18.3507 9.74805 18.7359 9.98028C19.121 10.2125 19.44 10.54 19.6619 10.9314C19.8839 11.3227 20.0014 11.7646 20.0032 12.2145C20.0052 12.5733 19.9307 12.9285 19.7846 13.2562H22.7212C23.0529 13.2302 23.3862 13.2763 23.6983 13.3915C24.0104 13.5067 24.2938 13.6881 24.5292 13.9233C24.7645 14.1586 24.9461 14.442 25.0615 14.7542C25.1769 15.0663 25.2233 15.3998 25.1976 15.7316V18.681C25.539 18.5343 25.9066 18.4586 26.2782 18.4586C26.6497 18.4586 27.0173 18.5343 27.3587 18.681C27.8955 18.8932 28.3305 19.3033 28.5743 19.8268C28.7847 20.2278 28.8878 20.6765 28.8735 21.1292C28.8592 21.5819 28.728 22.0231 28.4926 22.41C28.2572 22.7969 27.9257 23.1162 27.5303 23.3368C27.135 23.5574 26.6892 23.6718 26.2366 23.6689C25.8786 23.6709 25.5244 23.5963 25.1976 23.4501V26.2473C25.2258 26.5909 25.1806 26.9366 25.0649 27.2614C24.9493 27.5862 24.766 27.8826 24.527 28.131C24.2881 28.3795 23.9991 28.5742 23.6792 28.7023C23.3592 28.8303 23.0157 28.8888 22.6715 28.8739H19.7852C19.9438 28.5062 20.0178 28.1076 20.0016 27.7075C19.9853 27.3074 19.8794 26.916 19.6915 26.5624C19.4455 26.0948 19.0454 25.7268 18.559 25.5208C18.1637 25.3313 17.7272 25.2442 17.2895 25.2673C16.8518 25.2905 16.4269 25.4231 16.0538 25.6531C15.6806 25.8831 15.3711 26.2031 15.1535 26.5838C14.936 26.9645 14.8174 27.3938 14.8087 27.8322C14.8241 28.1935 14.9126 28.5479 15.069 28.8739H12.0644C11.7281 28.8872 11.3928 28.8287 11.0809 28.7021C10.769 28.5754 10.4877 28.3837 10.2557 28.1397C10.0237 27.8957 9.84647 27.6049 9.73573 27.2869C9.625 26.9689 9.58335 26.6309 9.61355 26.2954V23.1368C10.0598 23.4819 10.608 23.6688 11.172 23.668C11.6139 23.665 12.0478 23.5503 12.4336 23.3347C12.8194 23.119 13.1444 22.8093 13.3786 22.4344C13.6129 22.0595 13.7486 21.6315 13.7734 21.19C13.7981 20.7486 13.711 20.3081 13.5201 19.9093C13.2964 19.4054 12.903 18.9962 12.4084 18.753V18.7533Z" stroke="white" stroke-width="1.5" stroke-linecap="round" stroke-linejoin="round"></path></g><defs><clipPath id="clip0_404_860"><rect width="40" height="40" fill="white"></rect></clipPath></defs></svg>