<svg xmlns="http://www.w3.org/2000/svg" width="40" height="40" viewBox="0 0 40 40" fill="none"><g clip-path="url(#clip0_441_749)"><path d="M7.49983 4.49999C13.1998 0.699989 28.2998 1.09999 36.5998 10.2C44.8998 19.3 35.7998 33.1 29.2998 36.1C22.7998 39.1 6.29983 38.9 1.79983 28.8C-2.70017 18.7 1.79983 8.19999 7.49983 4.49999Z" fill="#5E5EF7"></path><path d="M11.1668 15.3334C12.3174 15.3334 13.2502 14.4007 13.2502 13.2501C13.2502 12.0995 12.3174 11.1667 11.1668 11.1667C10.0162 11.1667 9.0835 12.0995 9.0835 13.2501C9.0835 14.4007 10.0162 15.3334 11.1668 15.3334Z" stroke="white" stroke-width="1.5" stroke-linecap="round" stroke-linejoin="round"></path><path d="M27.8333 27.8334C28.9839 27.8334 29.9167 26.9007 29.9167 25.7501C29.9167 24.5995 28.9839 23.6667 27.8333 23.6667C26.6827 23.6667 25.75 24.5995 25.75 25.7501C25.75 26.9007 26.6827 27.8334 27.8333 27.8334Z" stroke="white" stroke-width="1.5" stroke-linecap="round" stroke-linejoin="round"></path><path d="M26.3554 27.3438C24.8489 28.6605 22.9951 29.5155 21.0156 29.8066C19.0361 30.0976 17.0147 29.8125 15.1929 28.9852C13.3712 28.1579 11.8263 26.8234 10.7429 25.1413C9.65944 23.4593 9.08336 21.5008 9.0835 19.5" stroke="white" stroke-width="1.5" stroke-linecap="round" stroke-linejoin="round"></path><path d="M12.582 11.7123C14.0831 10.3788 15.9376 9.50758 17.9223 9.20345C19.907 8.89932 21.9374 9.17527 23.7689 9.99809C25.6004 10.8209 27.1551 12.1555 28.2458 13.8413C29.3366 15.5271 29.9168 17.4922 29.9168 19.5" stroke="white" stroke-width="1.5" stroke-linecap="round" stroke-linejoin="round"></path><path d="M22 18L24 20L22 22" stroke="white" stroke-width="1.5" stroke-linecap="round" stroke-linejoin="round"></path><path d="M17 22L15 20L17 18" stroke="white" stroke-width="1.5" stroke-linecap="round" stroke-linejoin="round"></path></g><defs><clipPath id="clip0_441_749"><rect width="40" height="40" fill="white"></rect></clipPath></defs></svg>