<svg xmlns="http://www.w3.org/2000/svg" width="40" height="40" viewBox="0 0 40 40" fill="none"><g clip-path="url(#clip0_404_778)"><path d="M7.49983 4.49999C13.1998 0.699989 28.2998 1.09999 36.5998 10.2C44.8998 19.3 35.7998 33.1 29.2998 36.1C22.7998 39.1 6.29983 38.9 1.79983 28.8C-2.70017 18.7 1.79983 8.19999 7.49983 4.49999Z" fill="#5E5EF7"></path><path d="M19.5 29.75C27.6562 29.75 29.625 27.3125 29.625 19.4583C29.625 12.6875 27.6562 10.25 19.5 10.25C10.7812 10.25 9.375 12.6875 9.375 20C9.375 27.8542 11.9062 29.75 19.5 29.75Z" stroke="white" stroke-width="1.5" stroke-linecap="round" stroke-linejoin="round"></path><path d="M15 28.6666C15 26.4999 14.991 24.3333 18.3796 24.3333H20.5889C24.0413 24.3333 24 26.4999 24 28.6666" stroke="white" stroke-width="1.5" stroke-linecap="round" stroke-linejoin="round"></path><path d="M14.3729 11.1736V16.4615C14.3731 17.0006 14.1902 17.5247 13.8523 17.9529C13.5145 18.3811 13.0405 18.6896 12.5037 18.8306C11.9669 18.9716 11.3972 18.9373 10.8825 18.733C10.3678 18.5287 9.93686 18.1658 9.65625 17.7004" stroke="white" stroke-width="1.5" stroke-linecap="round" stroke-linejoin="round"></path><path d="M19.4355 10.3525V16.4614C19.4355 17.1121 19.1689 17.7362 18.6942 18.1963C18.2195 18.6564 17.5756 18.9149 16.9043 18.9149C16.233 18.9149 15.5891 18.6564 15.1144 18.1963C14.6397 17.7362 14.373 17.1121 14.373 16.4614V11.0199" stroke="white" stroke-width="1.5" stroke-linecap="round" stroke-linejoin="round"></path><path d="M24.498 10.8659V16.4617C24.498 17.1124 24.2314 17.7365 23.7567 18.1966C23.282 18.6567 22.6381 18.9152 21.9668 18.9152C21.2955 18.9152 20.6516 18.6567 20.1769 18.1966C19.7022 17.7365 19.4355 17.1124 19.4355 16.4617V10.25" stroke="white" stroke-width="1.5" stroke-linecap="round" stroke-linejoin="round"></path><path d="M29.3475 17.4484C29.114 17.9644 28.7045 18.3868 28.1876 18.6447C27.6707 18.9025 27.078 18.9801 26.5092 18.8643C25.9403 18.7485 25.4298 18.4464 25.0636 18.0089C24.6973 17.5713 24.4977 17.0249 24.498 16.4614V10.9683" stroke="white" stroke-width="1.5" stroke-linecap="round" stroke-linejoin="round"></path></g><defs><clipPath id="clip0_404_778"><rect width="40" height="40" fill="white"></rect></clipPath></defs></svg>