<svg xmlns="http://www.w3.org/2000/svg" width="40" height="40" viewBox="0 0 40 40" fill="none"><g clip-path="url(#clip0_434_712)"><path d="M7.49983 4.49999C13.1998 0.699989 28.2998 1.09999 36.5998 10.2C44.8998 19.3 35.7998 33.1 29.2998 36.1C22.7998 39.1 6.29983 38.9 1.79983 28.8C-2.70017 18.7 1.79983 8.19999 7.49983 4.49999Z" fill="#5E5EF7"></path><path d="M13.1922 19.283C12.7694 19.0624 12.2924 18.9669 11.8173 19.0076C11.3421 19.0483 10.8884 19.2237 10.5092 19.513V16.3588C10.4967 16.0484 10.5483 15.7387 10.6606 15.449C10.773 15.1594 10.9437 14.896 11.1622 14.6752C11.3808 14.4544 11.6423 14.281 11.9307 14.1658C12.2191 14.0505 12.5281 13.9959 12.8385 14.0053H15.7456C15.6051 13.6768 15.5327 13.3232 15.5327 12.9658C15.5327 12.6085 15.6051 12.2549 15.7456 11.9263C15.945 11.4288 16.3217 11.0228 16.8028 10.7868C17.1853 10.5865 17.6129 10.4882 18.0444 10.5011C18.4759 10.5141 18.8968 10.6381 19.2666 10.861C19.6364 11.0839 19.9425 11.3984 20.1556 11.774C20.3687 12.1497 20.4815 12.5739 20.4832 13.0058C20.4852 13.3503 20.4136 13.6912 20.2734 14.0058H23.0926C23.4109 13.9809 23.7309 14.0252 24.0305 14.1358C24.3301 14.2463 24.6022 14.4205 24.8281 14.6463C25.0541 14.8721 25.2284 15.1442 25.3392 15.4439C25.45 15.7436 25.4945 16.0637 25.4699 16.3822V19.2136C25.7976 19.0728 26.1505 19.0002 26.5072 19.0002C26.8638 19.0002 27.2168 19.0728 27.5445 19.2136C28.0598 19.4174 28.4774 19.8111 28.7115 20.3136C28.9135 20.6986 29.0125 21.1293 28.9987 21.5639C28.985 21.9985 28.859 22.4221 28.633 22.7935C28.407 23.1649 28.0888 23.4715 27.7092 23.6832C27.3297 23.895 26.9018 24.0049 26.4673 24.002C26.1236 24.004 25.7836 23.9324 25.4699 23.792V26.4773C25.4969 26.8072 25.4535 27.1391 25.3425 27.4508C25.2315 27.7626 25.0555 28.0472 24.8261 28.2857C24.5967 28.5242 24.3193 28.7111 24.0121 28.8341C23.705 28.957 23.3753 29.0132 23.0448 28.9988H20.274C20.4262 28.6459 20.4972 28.2632 20.4816 27.8791C20.4661 27.495 20.3644 27.1193 20.184 26.7798C19.9478 26.3309 19.5637 25.9776 19.0968 25.7798C18.7173 25.598 18.2983 25.5144 17.8781 25.5366C17.4579 25.5588 17.05 25.6861 16.6918 25.9069C16.3335 26.1277 16.0364 26.4349 15.8275 26.8004C15.6187 27.1659 15.5049 27.5779 15.4965 27.9988C15.5112 28.3457 15.5963 28.6859 15.7464 28.9988H12.862C12.5391 29.0117 12.2172 28.9554 11.9178 28.8339C11.6184 28.7124 11.3483 28.5283 11.1256 28.294C10.9029 28.0598 10.7328 27.7806 10.6265 27.4753C10.5202 27.17 10.4802 26.8455 10.5092 26.5235V23.4912C10.9375 23.8226 11.4638 24.002 12.0053 24.0012C12.4295 23.9983 12.8461 23.8882 13.2164 23.6812C13.5867 23.4742 13.8988 23.1769 14.1236 22.817C14.3485 22.457 14.4788 22.0461 14.5026 21.6223C14.5263 21.1986 14.4427 20.7757 14.2595 20.3928C14.0447 19.9091 13.667 19.5163 13.1922 19.2828V19.283Z" stroke="white" stroke-width="1.5" stroke-linecap="round" stroke-linejoin="round"></path></g><defs><clipPath id="clip0_434_712"><rect width="40" height="40" fill="white"></rect></clipPath></defs></svg>