<svg xmlns="http://www.w3.org/2000/svg" width="40" height="40" viewBox="0 0 40 40" fill="none"><g clip-path="url(#clip0_401_602)"><path d="M7.49983 4.49999C13.1998 0.699989 28.2998 1.09999 36.5998 10.2C44.8998 19.3 35.7998 33.1 29.2998 36.1C22.7998 39.1 6.29983 38.9 1.79983 28.8C-2.70017 18.7 1.79983 8.19999 7.49983 4.49999Z" fill="#5E5EF7"></path><path d="M27 18C27 21 25.4 23.6 23 24.9C23 24.9 22.75 27.5 22.5 28.5C22 30.5 16 30.5 15.5 28.5C15.2492 27.497 15 24.9 15 24.9C12.6 23.6 11 21 11 18C11 13.6 14.6 10 19 10C23.4 10 27 13.6 27 18Z" stroke="white" stroke-width="1.5" stroke-miterlimit="10" stroke-linecap="round" stroke-linejoin="round"></path><path d="M22 26.5C19.75 26.5 19 26.5 16 26.5" stroke="white" stroke-width="1.5" stroke-miterlimit="10" stroke-linecap="round" stroke-linejoin="round"></path></g><defs><clipPath id="clip0_401_602"><rect width="40" height="40" fill="white"></rect></clipPath></defs></svg>