<svg xmlns="http://www.w3.org/2000/svg" width="40" height="40" viewBox="0 0 40 40" fill="none"><g clip-path="url(#clip0_426_949)"><path d="M7.49983 4.50023C13.1998 0.700233 28.2998 1.10023 36.5998 10.2002C44.8998 19.3002 35.7998 33.1002 29.2998 36.1002C22.7998 39.1002 6.29983 38.9002 1.79983 28.8002C-2.70017 18.7002 1.79983 8.20023 7.49983 4.50023Z" fill="#5E5EF7"></path><ellipse cx="20" cy="19.5" rx="3.25" ry="3.125" stroke="white" stroke-width="1.5" stroke-linecap="round" stroke-linejoin="round"></ellipse><path d="M20 11.1668C27.5833 11.1668 29.75 12.2085 29.75 19.5002C29.75 26.7918 27.5833 27.8335 20 27.8335C12.4167 27.8335 10.25 27.1825 10.25 19.5002C10.25 11.8179 12.4167 11.1668 20 11.1668Z" stroke="white" stroke-width="1.5" stroke-linecap="round" stroke-linejoin="round"></path></g><defs><clipPath id="clip0_426_949"><rect width="40" height="40" fill="white"></rect></clipPath></defs></svg>