<svg xmlns="http://www.w3.org/2000/svg" width="40" height="40" viewBox="0 0 40 40" fill="none"><g clip-path="url(#clip0_426_920)"><path d="M7.49983 4.49999C13.1998 0.699989 28.2998 1.09999 36.5998 10.2C44.8998 19.3 35.7998 33.1 29.2998 36.1C22.7998 39.1 6.29983 38.9 1.79983 28.8C-2.70017 18.7 1.79983 8.19999 7.49983 4.49999Z" fill="#5E5EF7"></path><path d="M28.2234 21.9167C27.5532 28.4167 26.4878 29.5 19.6467 29.5C12.2794 29.5 11.472 27.875 11.07 21.9167C10.7777 17.5833 11.016 16.5 19.6467 16.5C28.3192 16.5 28.6331 17.9426 28.2234 21.9167Z" stroke="white" stroke-width="1.5" stroke-linecap="round" stroke-linejoin="round"></path><path d="M14.25 13.25H25.0833" stroke="white" stroke-width="1.5" stroke-linecap="round" stroke-linejoin="round"></path><path d="M17.5 10H21.8333" stroke="white" stroke-width="1.5" stroke-linecap="round" stroke-linejoin="round"></path></g><defs><clipPath id="clip0_426_920"><rect width="40" height="40" fill="white"></rect></clipPath></defs></svg>