<svg xmlns="http://www.w3.org/2000/svg" width="40" height="40" viewBox="0 0 40 40" fill="none"><g clip-path="url(#clip0_441_755)"><path d="M7.49983 4.50023C13.1998 0.700233 28.2998 1.10023 36.5998 10.2002C44.8998 19.3002 35.7998 33.1002 29.2998 36.1002C22.7998 39.1002 6.29983 38.9002 1.79983 28.8002C-2.70017 18.7002 1.79983 8.20023 7.49983 4.50023Z" fill="#5E5EF7"></path><path d="M18 13C23 13 25 13.625 25 20C25 26.375 23.5 27 18 27C12.5 27 11 26 11 20C11 14 12.5 13 18 13Z" stroke="white" stroke-width="1.5" stroke-linecap="round" stroke-linejoin="round"></path><path d="M25 16.7661C28 14.0135 29 14.0135 29 20.1383C29 25.8981 28 25.8981 25 23.4455" stroke="white" stroke-width="1.5" stroke-linecap="round" stroke-linejoin="round"></path></g><defs><clipPath id="clip0_441_755"><rect width="40" height="40" fill="white"></rect></clipPath></defs></svg>