<svg xmlns="http://www.w3.org/2000/svg" width="40" height="40" viewBox="0 0 40 40" fill="none"><g clip-path="url(#clip0_401_712)"><path d="M7.49983 4.49999C13.1998 0.699989 28.2998 1.09999 36.5998 10.2C44.8998 19.3 35.7998 33.1 29.2998 36.1C22.7998 39.1 6.29983 38.9 1.79983 28.8C-2.70017 18.7 1.79983 8.19999 7.49983 4.49999Z" fill="#5E5EF7"></path><path d="M17.9989 26.5701C16.5214 28.0779 11.5207 28.213 11.1618 27.7954C10.8029 27.3778 10.9648 22.5057 12.4308 21.0017C13.8967 19.4977 17.1831 16.2413 20.0236 13.4084C24.0731 9.3586 29.6412 14.927 25.5917 18.9768C22.7512 21.8097 19.4763 25.0623 17.9989 26.5701Z" stroke="white" stroke-width="1.5" stroke-linecap="round" stroke-linejoin="round"></path><path d="M19.5 14.5L24 19" stroke="white" stroke-width="1.5" stroke-linecap="round" stroke-linejoin="round"></path><path d="M21 28H26" stroke="white" stroke-width="1.5" stroke-linecap="round" stroke-linejoin="round"></path></g><defs><clipPath id="clip0_401_712"><rect width="40" height="40" fill="white"></rect></clipPath></defs></svg>