<svg xmlns="http://www.w3.org/2000/svg" width="40" height="40" viewBox="0 0 40 40" fill="none"><g clip-path="url(#clip0_404_864)"><path d="M7.49983 4.49999C13.1998 0.699989 28.2998 1.09999 36.5998 10.2C44.8998 19.3 35.7998 33.1 29.2998 36.1C22.7998 39.1 6.29983 38.9 1.79983 28.8C-2.70017 18.7 1.79983 8.19999 7.49983 4.49999Z" fill="#5E5EF7"></path><path d="M10.125 17.55C10.125 12 12.2083 11 19.5 11C26.7917 11 28.875 12 28.875 20C28.875 27 27.8333 29 21.9167 29" stroke="white" stroke-width="1.5" stroke-linecap="round" stroke-linejoin="round"></path><path d="M10.125 25.5C10.125 24.1 10.3032 23.2289 10.8542 22.7C11.4051 22.1711 12.3125 22 13.7708 22C15.2292 22 16.1366 22.1789 16.6875 22.7C17.2384 23.2211 17.4167 24.1 17.4167 25.5C17.4167 26.9 17.2303 27.7711 16.6875 28.3C16.1447 28.8289 15.2292 29 13.7708 29C12.3125 29 11.4618 28.8367 10.9352 28.3467C10.4086 27.8567 10.125 26.9467 10.125 25.5Z" stroke="white" stroke-width="1.5" stroke-linecap="round" stroke-linejoin="round"></path></g><defs><clipPath id="clip0_404_864"><rect width="40" height="40" fill="white"></rect></clipPath></defs></svg>