<svg xmlns="http://www.w3.org/2000/svg" width="40" height="40" viewBox="0 0 40 40" fill="none"><g clip-path="url(#clip0_404_858)"><path d="M7.49983 4.50023C13.1998 0.700233 28.2998 1.10023 36.5998 10.2002C44.8998 19.3002 35.7998 33.1002 29.2998 36.1002C22.7998 39.1002 6.29983 38.9002 1.79983 28.8002C-2.70017 18.7002 1.79983 8.20023 7.49983 4.50023Z" fill="#5E5EF7"></path><path d="M15 29H25" stroke="white" stroke-width="1.5" stroke-linecap="round" stroke-linejoin="round"></path><path d="M20 25C29 25 29 25 29 18C29 11 29 11 20 11C11 11 11 11 11 18C11 25 11 25 20 25Z" stroke="white" stroke-width="1.5" stroke-linecap="round" stroke-linejoin="round"></path><line x1="17.75" y1="25.75" x2="17.75" y2="28.25" stroke="white" stroke-width="1.5" stroke-linecap="round" stroke-linejoin="round"></line><line x1="22.25" y1="25.75" x2="22.25" y2="28.25" stroke="white" stroke-width="1.5" stroke-linecap="round" stroke-linejoin="round"></line></g><defs><clipPath id="clip0_404_858"><rect width="40" height="40" fill="white"></rect></clipPath></defs></svg>