<svg xmlns="http://www.w3.org/2000/svg" xmlns:xlink="http://www.w3.org/1999/xlink" version="1.1" id="Calque_1" x="0px" y="0px" viewBox="0 0 879 793" style="enable-background:new 0 0 879 793;" xml:space="preserve"> <style type="text/css"> .st0{clip-path:url(#SVGID_00000017503785598592693560000007767545695789572752_);} .st1{clip-path:url(#SVGID_00000137835938424538080260000016444091094353549705_);} .st2{fill:none;stroke:#FFFFFF;stroke-width:2;} .st3{fill:#FFFFFF;stroke:#FFFFFF;} .st4{clip-path:url(#SVGID_00000044861332785257595890000016102459746244420481_);} .st5{opacity:0.5;fill:#FFFFFF;enable-background:new ;} .st6{clip-path:url(#SVGID_00000097471540753909418570000001600198883774141600_);} .st7{clip-path:url(#SVGID_00000112611746104567344190000008306478754268549295_);} .st8{clip-path:url(#SVGID_00000176010907993117018280000006340561965259247541_);} .st9{fill:#9CABC2;} .st10{fill:#9CABC2;fill-opacity:0.35;stroke:#FFFFFF;stroke-width:2;} .st11{fill-rule:evenodd;clip-rule:evenodd;fill:#FFFFFF;} .st12{clip-path:url(#SVGID_00000129194419061520876210000015248760488814904475_);} .st13{fill:#FFFFFF;} .st14{fill:#9CABC2;fill-opacity:0.35;} .st15{fill:none;stroke:#9CABC2;stroke-width:2;stroke-opacity:0.35;} .st16{clip-path:url(#SVGID_00000155125994053692707060000008182504721874811066_);} .st17{fill:#FFFFFF;stroke:#FFFFFF;stroke-width:2;} .st18{clip-path:url(#SVGID_00000137115847021504561610000002056086019020272771_);} .st19{clip-path:url(#SVGID_00000134249443252532126480000000832975317101667227_);} .st20{clip-path:url(#SVGID_00000005231152281665506330000013025404488448392621_);} .st21{clip-path:url(#SVGID_00000109752656435732937530000001425718667136265148_);} .st22{clip-path:url(#SVGID_00000044168506518344483460000007044611912932089234_);} </style> <g> <defs> <rect id="SVGID_1_" width="879" height="793"></rect> </defs> <clipPath id="SVGID_00000085943323267961859170000006674541826757520307_"> <use xlink:href="#SVGID_1_" style="overflow:visible;"></use> </clipPath> <g style="clip-path:url(#SVGID_00000085943323267961859170000006674541826757520307_);"> <g> <defs> <rect id="SVGID_00000015315375880923116920000015198187479945252771_" x="525" y="738" width="294" height="30"></rect> </defs> <clipPath id="SVGID_00000043435284413128947990000002868882606476853655_"> <use xlink:href="#SVGID_00000015315375880923116920000015198187479945252771_" style="overflow:visible;"></use> </clipPath> <g style="clip-path:url(#SVGID_00000043435284413128947990000002868882606476853655_);"> <circle class="st2" cx="540" cy="753" r="14"></circle> <circle class="st2" cx="606" cy="753" r="14"></circle> <circle class="st2" cx="672" cy="753" r="14"></circle> <circle class="st3" cx="738" cy="753" r="14.5"></circle> <circle class="st2" cx="804" cy="753" r="14"></circle> </g> </g> <g> <defs> <rect id="SVGID_00000123401675270790518640000010819214827118409406_" x="525" y="93" width="295" height="600"></rect> </defs> <clipPath id="SVGID_00000036968336340688320250000004954346632941890725_"> <use xlink:href="#SVGID_00000123401675270790518640000010819214827118409406_" style="overflow:visible;"></use> </clipPath> <g style="clip-path:url(#SVGID_00000036968336340688320250000004954346632941890725_);"> <rect x="525" y="93" class="st5" width="135" height="5"></rect> <rect x="525" y="108" class="st5" width="105" height="5"></rect> <g> <defs> <rect id="SVGID_00000141431341741450279320000017177537462648247741_" x="525" y="143" width="295" height="135"></rect> </defs> <clipPath id="SVGID_00000000182861923517426090000003151927692764899258_"> <use xlink:href="#SVGID_00000141431341741450279320000017177537462648247741_" style="overflow:visible;"></use> </clipPath> <g style="clip-path:url(#SVGID_00000000182861923517426090000003151927692764899258_);"> <path class="st2" d="M545,144h95c10.5,0,19,8.5,19,19v95c0,10.5-8.5,19-19,19h-95c-10.5,0-19-8.5-19-19v-95 C526,152.5,534.5,144,545,144z"></path> <path class="st2" d="M705,144h95c10.5,0,19,8.5,19,19v95c0,10.5-8.5,19-19,19h-95c-10.5,0-19-8.5-19-19v-95 C686,152.5,694.5,144,705,144z"></path> </g> </g> <g> <defs> <rect id="SVGID_00000098900427601027262810000004309330188954128042_" x="527.5" y="308" width="290" height="40"></rect> </defs> <clipPath id="SVGID_00000054974018828501420960000016981771570897491856_"> <use xlink:href="#SVGID_00000098900427601027262810000004309330188954128042_" style="overflow:visible;"></use> </clipPath> <g style="clip-path:url(#SVGID_00000054974018828501420960000016981771570897491856_);"> <path class="st2" d="M547.5,309h190c10.5,0,19,8.5,19,19l0,0c0,10.5-8.5,19-19,19h-190c-10.5,0-19-8.5-19-19l0,0 C528.5,317.5,537,309,547.5,309z"></path> <circle class="st2" cx="797.5" cy="328" r="19"></circle> </g> </g> <g> <defs> <rect id="SVGID_00000029040809549288063290000008229084733723793852_" x="525" y="378" width="295" height="315"></rect> </defs> <clipPath id="SVGID_00000006700038567439798390000017655035458398965656_"> <use xlink:href="#SVGID_00000029040809549288063290000008229084733723793852_" style="overflow:visible;"></use> </clipPath> <g style="clip-path:url(#SVGID_00000006700038567439798390000017655035458398965656_);"> <path class="st2" d="M555,379h235c16,0,29,13,29,29v35c0,16-13,29-29,29H555c-16,0-29-13-29-29v-35C526,392,539,379,555,379z"></path> <rect x="620" y="398" class="st9" width="135" height="3"></rect> <rect x="620" y="411" class="st9" width="105" height="3"></rect> <path class="st10" d="M558,392h30c10.5,0,19,8.5,19,19v30c0,10.5-8.5,19-19,19h-30c-10.5,0-19-8.5-19-19v-30 C539,400.5,547.5,392,558,392z"></path> <path class="st11" d="M781,432c0,0.6,0.4,1,1,1s1-0.4,1-1v-5h6c0.6,0,1-0.4,1-1s-0.4-1-1-1h-6v-6c0-0.6-0.4-1-1-1s-1,0.4-1,1 v6h-5c-0.6,0-1,0.4-1,1s0.4,1,1,1h5V432z"></path> <path class="st2" d="M555,489h235c16,0,29,13,29,29v35c0,16-13,29-29,29H555c-16,0-29-13-29-29v-35C526,502,539,489,555,489z"></path> <rect x="620" y="508" class="st9" width="135" height="3"></rect> <rect x="620" y="521" class="st9" width="105" height="3"></rect> <path class="st10" d="M558,502h30c10.5,0,19,8.5,19,19v30c0,10.5-8.5,19-19,19h-30c-10.5,0-19-8.5-19-19v-30 C539,510.5,547.5,502,558,502z"></path> <path class="st11" d="M781,542c0,0.6,0.4,1,1,1s1-0.4,1-1v-5h6c0.6,0,1-0.4,1-1s-0.4-1-1-1h-6v-6c0-0.6-0.4-1-1-1s-1,0.4-1,1 v6h-5c-0.6,0-1,0.4-1,1s0.4,1,1,1h5V542z"></path> <path class="st2" d="M555,599h235c16,0,29,13,29,29v35c0,16-13,29-29,29H555c-16,0-29-13-29-29v-35C526,612,539,599,555,599z"></path> <rect x="620" y="618" class="st9" width="135" height="3"></rect> <rect x="620" y="631" class="st9" width="105" height="3"></rect> <path class="st10" d="M558,612h30c10.5,0,19,8.5,19,19v30c0,10.5-8.5,19-19,19h-30c-10.5,0-19-8.5-19-19v-30 C539,620.5,547.5,612,558,612z"></path> <path class="st11" d="M781,652c0,0.6,0.4,1,1,1s1-0.4,1-1v-5h6c0.6,0,1-0.4,1-1s-0.4-1-1-1h-6v-6c0-0.6-0.4-1-1-1s-1,0.4-1,1 v6h-5c-0.6,0-1,0.4-1,1s0.4,1,1,1h5V652z"></path> </g> </g> </g> </g> <path class="st2" d="M535,13h275c27.1,0,49,21.9,49,49v726c0,27.1-21.9,49-49,49H535c-27.1,0-49-21.9-49-49V62 C486,34.9,507.9,13,535,13z"></path> <g> <defs> <path id="SVGID_00000180339534991454357250000011413306384219419039_" d="M60,12h275c27.6,0,50,22.4,50,50v726 c0,27.6-22.4,50-50,50H60c-27.6,0-50-22.4-50-50V62C10,34.4,32.4,12,60,12z"></path> </defs> <clipPath id="SVGID_00000064342537220901524850000002872315238570383787_"> <use xlink:href="#SVGID_00000180339534991454357250000011413306384219419039_" style="overflow:visible;"></use> </clipPath> <g style="clip-path:url(#SVGID_00000064342537220901524850000002872315238570383787_);"> <path class="st13" d="M100,720h195c16.6,0,30,13.4,30,30v1c0,16.6-13.4,30-30,30H100c-16.6,0-30-13.4-30-30v-1 C70,733.4,83.4,720,100,720z"></path> <path class="st2" d="M80,264h235c16,0,29,13,29,29v350c0,16-13,29-29,29H80c-16,0-29-13-29-29V293C51,277,64,264,80,264z"></path> <path class="st2" d="M100,604h195c13.3,0,24,10.7,24,24l0,0c0,13.3-10.7,24-24,24H100c-13.3,0-24-10.7-24-24l0,0 C76,614.7,86.7,604,100,604z"></path> <circle class="st2" cx="295" cy="628" r="24"></circle> <path class="st14" d="M105,343h185c16.6,0,30,13.4,30,30v185c0,16.6-13.4,30-30,30H105c-16.6,0-30-13.4-30-30V373 C75,356.4,88.4,343,105,343z"></path> <path class="st15" d="M105,344h185c16,0,29,13,29,29v185c0,16-13,29-29,29H105c-16,0-29-13-29-29V373C76,357,89,344,105,344z"></path> <rect x="135" y="293" class="st5" width="135" height="5"></rect> <rect x="135" y="308" class="st5" width="105" height="5"></rect> <circle class="st2" cx="97.5" cy="305.5" r="21.5"></circle> <g> <defs> <rect id="SVGID_00000078763182459636305740000006516319120416754854_" x="50" y="137" width="384" height="90"></rect> </defs> <clipPath id="SVGID_00000059284842398207180180000009315026227350484113_"> <use xlink:href="#SVGID_00000078763182459636305740000006516319120416754854_" style="overflow:visible;"></use> </clipPath> <g style="clip-path:url(#SVGID_00000059284842398207180180000009315026227350484113_);"> <circle class="st17" cx="87.5" cy="162" r="24"></circle> <g> <defs> <rect id="SVGID_00000054264098603604959550000008353844606984255417_" x="50" y="207" width="75" height="20"></rect> </defs> <clipPath id="SVGID_00000142855687994283034610000000332864042217010878_"> <use xlink:href="#SVGID_00000054264098603604959550000008353844606984255417_" style="overflow:visible;"></use> </clipPath> <g style="clip-path:url(#SVGID_00000142855687994283034610000000332864042217010878_);"> <rect x="50" y="207" class="st5" width="75" height="5"></rect> <rect x="58" y="222" class="st5" width="59" height="5"></rect> </g> </g> <circle class="st17" cx="190.5" cy="162" r="24"></circle> <g> <defs> <rect id="SVGID_00000073703125141867274700000008689743162884001976_" x="153" y="207" width="75" height="20"></rect> </defs> <clipPath id="SVGID_00000169536979777436704080000001841248512725021351_"> <use xlink:href="#SVGID_00000073703125141867274700000008689743162884001976_" style="overflow:visible;"></use> </clipPath> <g style="clip-path:url(#SVGID_00000169536979777436704080000001841248512725021351_);"> <rect x="153" y="207" class="st5" width="75" height="5"></rect> <rect x="161" y="222" class="st5" width="59" height="5"></rect> </g> </g> <circle class="st17" cx="293.5" cy="162" r="24"></circle> <g> <defs> <rect id="SVGID_00000141414276141392221230000011937028787051672742_" x="256" y="207" width="75" height="20"></rect> </defs> <clipPath id="SVGID_00000159444083393693973740000003397569635009746343_"> <use xlink:href="#SVGID_00000141414276141392221230000011937028787051672742_" style="overflow:visible;"></use> </clipPath> <g style="clip-path:url(#SVGID_00000159444083393693973740000003397569635009746343_);"> <rect x="256" y="207" class="st5" width="75" height="5"></rect> <rect x="264" y="222" class="st5" width="59" height="5"></rect> </g> </g> <circle class="st17" cx="396.5" cy="162" r="24"></circle> <g> <defs> <rect id="SVGID_00000073683909648415628900000002260701738738955392_" x="359" y="207" width="75" height="20"></rect> </defs> <clipPath id="SVGID_00000029727645558686209160000012709343457552740276_"> <use xlink:href="#SVGID_00000073683909648415628900000002260701738738955392_" style="overflow:visible;"></use> </clipPath> <g style="clip-path:url(#SVGID_00000029727645558686209160000012709343457552740276_);"> <rect x="359" y="207" class="st5" width="75" height="5"></rect> <rect x="367" y="222" class="st5" width="59" height="5"></rect> </g> </g> </g> </g> <g> <defs> <rect id="SVGID_00000019650192770304585670000000491213949720514438_" x="55" y="63" width="290" height="40"></rect> </defs> <clipPath id="SVGID_00000030489001040721896240000004694233817359025829_"> <use xlink:href="#SVGID_00000019650192770304585670000000491213949720514438_" style="overflow:visible;"></use> </clipPath> <g style="clip-path:url(#SVGID_00000030489001040721896240000004694233817359025829_);"> <path class="st2" d="M75,64h190c10.5,0,19,8.5,19,19l0,0c0,10.5-8.5,19-19,19H75c-10.5,0-19-8.5-19-19l0,0 C56,72.5,64.5,64,75,64z"></path> <circle class="st2" cx="325" cy="83" r="19"></circle> </g> </g> </g> </g> <path class="st2" d="M60,13h275c27.1,0,49,21.9,49,49v726c0,27.1-21.9,49-49,49H60c-27.1,0-49-21.9-49-49V62 C11,34.9,32.9,13,60,13z"></path> <circle class="st13" cx="345" cy="625" r="3"></circle> <path class="st13" d="M485,777l-10-5.8v11.5L485,777z M345,626h50v-2h-50V626z M414,645v112h2V645H414z M435,778h41v-2h-41V778z M414,757c0,11.6,9.4,21,21,21v-2c-10.5,0-19-8.5-19-19H414z M395,626c10.5,0,19,8.5,19,19h2c0-11.6-9.4-21-21-21V626z"></path> </g> </g> </svg>