<svg xmlns="http://www.w3.org/2000/svg" width="40" height="40" viewBox="0 0 40 40" fill="none"><g clip-path="url(#clip0_404_883)"><path d="M7.49983 4.49999C13.1998 0.699989 28.2998 1.09999 36.5998 10.2C44.8998 19.3 35.7998 33.1 29.2998 36.1C22.7998 39.1 6.29983 38.9 1.79983 28.8C-2.70017 18.7 1.79983 8.19999 7.49983 4.49999Z" fill="#5E5EF7"></path><path d="M22.425 28.05C21.525 28.3875 20.5125 28.5 19.5 28.5C14.55 28.5 10.5 24.45 10.5 19.5C10.5 14.55 14.55 10.5 19.5 10.5C24.45 10.5 28.5 14.55 28.5 19.5C28.5 20.0625 28.5 19.725 28.5 20.0625C27.9375 24.5625 24.7186 24.7237 23.4375 23.1C22.4417 21.8379 22.9875 20.0625 24.225 16.4625M20.6856 15.373C22.6355 16.1857 23.4217 18.7506 22.4417 21.1018C21.4617 23.4531 19.0866 24.7004 17.1368 23.8877C15.187 23.075 14.4008 20.5101 15.3807 18.1589C16.3607 15.8076 18.7358 14.5603 20.6856 15.373Z" stroke="white" stroke-width="1.5" stroke-miterlimit="10" stroke-linecap="round" stroke-linejoin="round"></path></g><defs><clipPath id="clip0_404_883"><rect width="40" height="40" fill="white"></rect></clipPath></defs></svg>