<svg xmlns="http://www.w3.org/2000/svg" width="40" height="40" viewBox="0 0 40 40" fill="none"><g clip-path="url(#clip0_404_1070)"><path d="M7.49983 4.49999C13.1998 0.699989 28.2998 1.09999 36.5998 10.2C44.8998 19.3 35.7998 33.1 29.2998 36.1C22.7998 39.1 6.29983 38.9 1.79983 28.8C-2.70017 18.7 1.79983 8.19999 7.49983 4.49999Z" fill="#5E5EF7"></path><path d="M19 23.1042C20.7949 23.1042 22.25 21.7051 22.25 19.9792C22.25 18.2534 20.7949 16.8542 19 16.8542C17.2051 16.8542 15.75 18.2534 15.75 19.9792C15.75 21.7051 17.2051 23.1042 19 23.1042Z" stroke="white" stroke-width="1.5" stroke-linecap="round" stroke-linejoin="round"></path><path d="M28.2157 24.927C27.3653 26.3124 26.4086 26.7083 24.6015 26.1145C23.4321 25.7187 22.0502 26.4114 21.8376 27.5989C21.5187 29.3801 20.6683 29.8749 18.9674 29.8749C17.2666 29.8749 16.4162 29.2812 16.0973 27.5989C15.8847 26.4114 14.5027 25.7187 13.3334 26.1145C11.5263 26.7083 10.5695 26.3124 9.71911 24.927C8.86869 23.6405 9.1876 22.552 10.5695 21.4635C11.5263 20.6718 11.4199 19.2864 10.4632 18.5937C9.08129 17.3072 8.97499 16.4166 9.82541 15.0312C10.6758 13.7447 11.7389 13.4478 13.4397 13.9426C14.609 14.3385 15.8847 13.5468 16.0973 12.4583C16.5225 10.677 17.2666 10.0833 19.0737 10.0833C20.6683 10.0833 21.5187 10.8749 21.8376 12.5572C22.0502 13.6458 23.4321 14.3385 24.6015 13.9426C26.4086 13.2499 27.3653 13.6458 28.2157 15.0312C29.0662 16.4166 28.9599 17.3072 27.4716 18.4947C26.5149 19.2864 26.5149 20.6718 27.4716 21.4635C28.9599 22.651 29.0662 23.5416 28.2157 24.927Z" stroke="white" stroke-width="1.5" stroke-linecap="round" stroke-linejoin="round"></path></g><defs><clipPath id="clip0_404_1070"><rect width="40" height="40" fill="white"></rect></clipPath></defs></svg>