<svg xmlns="http://www.w3.org/2000/svg" width="40" height="40" viewBox="0 0 40 40" fill="none"><g clip-path="url(#clip0_404_1118)"><path d="M7.49983 4.50023C13.1998 0.700233 28.2998 1.10023 36.5998 10.2002C44.8998 19.3002 35.7998 33.1002 29.2998 36.1002C22.7998 39.1002 6.29983 38.9002 1.79983 28.8002C-2.70017 18.7002 1.79983 8.20023 7.49983 4.50023Z" fill="#5E5EF7"></path><path d="M14 26C10.5 25.5 10.0001 24.7308 10 21.6154C10 18.5 10 17 19 17C28 17 28 18.5 28 21.6154C28 24.5 28 25.5 24 26" stroke="white" stroke-width="1.5" stroke-linecap="round" stroke-linejoin="round"></path><path d="M13 17C13 16.615 13 16.5187 13 16.1337C13 12.0909 13.5 11 19 11C24.5 11 25 12.0909 25 16.1337C25 16.6471 25 16.615 25 17" stroke="white" stroke-width="1.5" stroke-linecap="round" stroke-linejoin="round"></path><path d="M19 29C23.375 29 24 27.8333 24 25.5C24 23.1667 23.5 22 19 22C14.5 22 14 23.1667 14 25.5C14 27.8333 14.625 29 19 29Z" stroke="white" stroke-width="1.5" stroke-linecap="round" stroke-linejoin="round"></path></g><defs><clipPath id="clip0_404_1118"><rect width="40" height="40" fill="white"></rect></clipPath></defs></svg>