<svg xmlns="http://www.w3.org/2000/svg" width="40" height="40" viewBox="0 0 40 40" fill="none"><g clip-path="url(#clip0_404_875)"><path d="M7.49983 4.49999C13.1998 0.699989 28.2998 1.09999 36.5998 10.2C44.8998 19.3 35.7998 33.1 29.2998 36.1C22.7998 39.1 6.29983 38.9 1.79983 28.8C-2.70017 18.7 1.79983 8.19999 7.49983 4.49999Z" fill="#5E5EF7"></path><path d="M20 11C13 11 11 13 11 20C11 27 13 29 20 29C25.2937 29 27.7279 27.8562 28.6001 24.5" stroke="white" stroke-width="1.5" stroke-linecap="round" stroke-linejoin="round"></path><path d="M16 22C16 20 17 17 21.5 17C27.3726 17 27.9952 17 27.9952 17" stroke="white" stroke-width="1.5" stroke-linecap="round" stroke-linejoin="round"></path><path d="M25 13L29 17L25 21" stroke="white" stroke-width="1.5" stroke-miterlimit="10" stroke-linecap="round" stroke-linejoin="round"></path></g><defs><clipPath id="clip0_404_875"><rect width="40" height="40" fill="white"></rect></clipPath></defs></svg>