<svg xmlns="http://www.w3.org/2000/svg" xmlns:xlink="http://www.w3.org/1999/xlink" version="1.1" id="Calque_1" x="0px" y="0px" viewBox="0 0 100 100" style="enable-background:new 0 0 100 100;" xml:space="preserve"> <style type="text/css"> .st0{fill:#EDEDED;} .st1{fill:#FFFFFF;} .st2{fill:#5E5EF7;} .st3{fill:#57DBE9;} .st4{fill:#151819;} .st5{fill:#575756;} </style> <path class="st0" d="M66.5,68.5C59.1,57.4,42.4,83.4,29.2,80C19,77.4,16.4,64.6,16.4,64.6S2.2,57.9,6.4,43s32.9-25.2,49.4-19.5 c0,0,10-11.8,20.8-2.6S83,54.8,83,54.8s15.2,8,10.5,17.7C88.9,82.3,68.1,70.8,66.5,68.5z"></path> <polygon points="18.4,20.5 12.5,71.7 48.1,73.7 52.4,25.8 "></polygon> <g> <polygon class="st1" points="21,23.8 49.8,27.2 46.2,69.9 15.9,68.6 "></polygon> <path class="st2" d="M46.5,70.2l-31-1.3v-0.4l5.2-45.2l29.4,3.5L46.5,70.2z M16.2,68.3l29.6,1.2l3.6-42.1l-28.1-3.3L16.2,68.3z"></path> </g> <g> <path class="st3" d="M44.6,37.5c0,0,2.1-2.4,1.3-4.1c-0.8-1.7-2.5-5.8-7.3-3.5c0,0-4.2-2.9-9.2-0.8s-8.3,9.1-7.4,16.8 c0.9,7.6,0.2,13.3-1.2,13.2c-1.4-0.1-0.6-2.2-0.6-2.2s-2.7,0.5-2.3,2c0.4,1.5,3.5,6.7,7,3.8s6.1-8.9,6.1-8.9L44.6,37.5z"></path> <path class="st4" d="M37,58.1c0,0-0.2,7.7,6.1,8.5s-8.8,2.3-11.8,0.8S26,61.9,26,61.9s6.2-3.5,6-6.9S37,58.1,37,58.1z"></path> <path d="M36.1,31.1c4.8,0,8.6,2.8,8.5,7.7s1,6.4,1.2,7.7s-2.3,1-2.8,1.7s0.6,1.1,0.5,1.6s-0.6,0.5-0.5,1s1,1.3,0.5,1.8 s-1.2,1.2-1.1,1.8c0.2,0.6,0.6,1.2,0.2,2.5c-0.6,1.2-7,4-12.6-4.9S26.7,31,36.1,31.1z"></path> <path class="st1" d="M41.7,47.4c0,0-1.6-1-1.6-0.3C40.1,47.8,41.7,47.4,41.7,47.4z"></path> <path class="st1" d="M42.6,47c0,0,1.5-0.5,1.4-0.2C43.9,47.2,42.6,47,42.6,47z"></path> <path class="st2" d="M38.7,51.8c0,0,2.8-2,3.3-1.5C42.6,50.8,42.9,51.6,38.7,51.8z"></path> <path class="st2" d="M38.9,52.2c0,0,3-0.6,3.2-0.3C42.3,52.2,43.1,53,38.9,52.2z"></path> <path class="st2" d="M44.1,40.1c0,0-3.5-2.3-3.5-0.9c0,1.3,0.8,2,0.8,2s-1,2,0.1,2.1C42.7,43.4,44.1,40.1,44.1,40.1z"></path> <path class="st2" d="M38.3,31.6c0,0-0.4,4.6-3.4,4.9c0,0,0.8-1.3,0.9-2.5c0.1-1.3-0.2,2.6-7,1.7s-2-0.2-0.3-1.4 S34.3,28.1,38.3,31.6z"></path> <path class="st2" d="M37.6,31.2c0,0,2.9,2.4,3,3.3C40.6,34.5,41.9,31.2,37.6,31.2z"></path> <path class="st2" d="M29.4,42.7L29,42.4c0.1-0.1,2.3-3.5,5.4-4c1.2-0.2,2.4,0,3.5,0.8l-0.3,0.4c-1-0.7-2-0.9-3.1-0.7 C31.6,39.4,29.4,42.7,29.4,42.7z"></path> <path class="st2" d="M43.9,38.8c-0.4-0.6-0.8-1-1.4-1.1c-1.4-0.3-3,0.7-3,0.7L39.2,38c0.1,0,1.8-1.1,3.4-0.8 c0.7,0.2,1.3,0.6,1.8,1.3L43.9,38.8z"></path> <path class="st1" d="M44.1,40.2c0,0-3.9-0.8-3.8,1C40.5,43.7,44.1,40.2,44.1,40.2z"></path> <path class="st2" d="M31.2,43.1c0,0,3-4.2,6.1-0.8C37.3,42.3,36.5,46.1,31.2,43.1z"></path> <path class="st1" d="M31.2,43.1c0,0,2.5-2.5,6-0.8C37.2,42.3,36.8,44.4,31.2,43.1z"></path> <g> <circle class="st3" cx="34.2" cy="42.7" r="0.5"></circle> <path d="M34.2,42.2c0.3,0,0.5,0.2,0.5,0.5s-0.2,0.5-0.5,0.5s-0.5-0.2-0.5-0.5C33.7,42.5,33.9,42.2,34.2,42.2 M34.2,42 c-0.4,0-0.7,0.3-0.7,0.7s0.3,0.7,0.7,0.7s0.7-0.3,0.7-0.7S34.6,42,34.2,42L34.2,42z"></path> </g> <g> <circle class="st3" cx="41.3" cy="41.1" r="0.4"></circle> <path d="M41.3,40.7c0.2,0,0.4,0.2,0.4,0.4s-0.2,0.4-0.4,0.4s-0.4-0.2-0.4-0.4C40.9,40.9,41.1,40.7,41.3,40.7 M41.3,40.4 c-0.4,0-0.7,0.3-0.7,0.7s0.3,0.7,0.7,0.7s0.7-0.3,0.7-0.7S41.7,40.4,41.3,40.4L41.3,40.4z"></path> </g> </g> <path d="M41.3,24.7c-0.1,0-0.3-0.1-0.3-0.2l-3.2-7.3l-8.1,6.2c-0.1,0.1-0.4,0.1-0.5-0.1c-0.1-0.1-0.1-0.4,0.1-0.5l8.8-6.7l3.5,8.1 C41.7,24.4,41.6,24.6,41.3,24.7C41.4,24.7,41.4,24.7,41.3,24.7z"></path> <circle class="st2" cx="38.2" cy="15.9" r="1.5"></circle> <g> <path class="st2" d="M84.4,33.4c0,0-4.8,2.1-9.2-0.8S72,21.4,72,21.4s7.8,2.9,4.9,8.6c0,0,5.6-6.4,12.3-3.2 C89.2,26.8,88.8,30.6,84.4,33.4z"></path> <path class="st1" d="M80.3,33.5c-1.8,0-3.1-0.4-3.2-0.5l0.2-0.6c0,0,2,0.6,4.2,0.4c2.9-0.4,4.9-2,5.9-4.9c-0.8-0.4-4.1-1.7-8.7,2 l-0.4-0.5c5.7-4.5,9.5-2,9.7-1.9l0.2,0.1L88.1,28c-1.4,4-4.3,5.2-6.5,5.5C81.1,33.5,80.7,33.5,80.3,33.5z"></path> <path class="st1" d="M76.8,29.7C76.7,29.7,76.7,29.7,76.8,29.7c-0.2,0-0.3-0.2-0.3-0.3c0-0.2,0.5-4-3-5.6c-0.3,0.7-0.8,2.5,0.2,4.5 c0.1,0.1,0,0.3-0.1,0.4s-0.3,0-0.4-0.1c-1.4-2.8-0.1-5.2-0.1-5.3l0.1-0.2l0.3,0.1c4.2,1.7,3.7,6.3,3.7,6.4 C77,29.6,76.9,29.7,76.8,29.7z"></path> <path d="M69.6,73.9c0,0,17-1,20.7-19.3S81.2,31,81.2,31l0.1-2.7L74.7,28L74,31.2c0,0-26.1,7.4-14.9,38.4l1.5,6.3l9.8,0.7L69.6,73.9 z"></path> <path class="st1" d="M65.6,75c-0.1,0-0.2,0-0.3,0c-1-0.2-1.5-0.8-1.7-1.1h-1.9l-0.1-0.1c-0.1,0-1.4-1.2-1.4-3.4 c0-0.5-0.3-1.2-0.7-2.2c-1.3-3-3.6-8.6-1.6-18c2.6-11.9,14.7-17.4,15.7-17.9c0.5-0.6,1.9-2.3,2.5-2.4s1.5,0.2,1.8,0.4 c0.3-0.1,0.9-0.1,1.3,0.3s0.4,1.2,0.1,2.3C81,34,92.2,41.6,88.2,56C84.1,70.6,69.8,72.4,68,72.6C67.8,73.2,66.8,75,65.6,75z M62.1,73.3h2l0.1,0.2c0,0,0.3,0.7,1.3,0.9c0.8,0.2,1.8-1.6,2-2.2l0.1-0.2h0.2c0.2,0,15.6-1.2,19.8-16.2 c4.2-15.1-8.7-22.5-8.8-22.5l-0.2-0.1l0.1-0.2c0.5-1.4,0.3-1.8,0.2-1.9c-0.2-0.2-0.7-0.1-0.8-0.1H78l-0.1-0.1 c-0.4-0.2-1.2-0.5-1.5-0.4s-1.4,1.2-2.2,2.3v0.1h-0.1C74,33,61.2,38.3,58.7,50.4C56.7,59.6,59,65,60.2,68c0.4,1.1,0.8,1.8,0.8,2.4 C61,72,61.8,73,62.1,73.3z"></path> <path class="st1" d="M66.3,51.7c-0.4,0-0.8-0.2-1.2-0.5c-0.1-0.1-0.2-0.3-0.1-0.4c0.1-0.1,0.3-0.2,0.4-0.1c0.4,0.3,0.8,0.4,1.1,0.3 c0.8-0.4,1.2-2.6,1.3-3.9c0-0.2,0.1-0.3,0.3-0.3c0.2,0,0.3,0.1,0.3,0.3c0,0.4-0.2,3.8-1.6,4.5C66.7,51.7,66.5,51.7,66.3,51.7z"></path> <path class="st1" d="M72.9,51.4c-0.1,0-0.2-0.1-0.3-0.2c-0.1-0.4-0.6-1.4-1.3-1.5c-0.4-0.1-0.9,0.2-1.4,0.9 c-0.1,0.1-0.3,0.2-0.4,0.1c-0.1-0.1-0.2-0.3-0.1-0.4c0.6-0.8,1.3-1.2,1.9-1.1c1.1,0.2,1.7,1.9,1.7,1.9 C73.2,51.1,73.1,51.3,72.9,51.4L72.9,51.4z"></path> <path class="st1" d="M66,48.1c-0.1,0-0.2-0.1-0.3-0.2c-0.1-0.3-0.4-1-1-1.1c-0.5-0.1-1,0.4-1.4,0.8c-0.1,0.1-0.3,0.1-0.4,0 c-0.1-0.1-0.1-0.3,0-0.4c0.7-0.8,1.4-1.1,2-1c1,0.2,1.4,1.4,1.4,1.5C66.3,47.9,66.2,48.1,66,48.1L66,48.1z"></path> <path class="st2" d="M75.6,54.9c-0.1,0-0.2,0-0.2,0c-0.3-0.1-0.4-0.4-0.5-0.6c0-0.1-0.1-0.2-0.1-0.3c-0.2-0.3-0.1-0.6,0.1-0.9 c0.1-0.1,0.2-0.2,0.3-0.2c-0.1-0.1-0.1-0.2,0-0.3c0-0.1,0.2-0.3,0.5-0.2c0.2,0,0.4,0.1,0.7,0.3c0.1,0,0.1,0,0.2,0 c0.3,0.1,0.3,0.3,0.4,0.4c0.2,0.2,0.3,0.4,0.4,0.6c0,0.2,0,0.6-0.6,0.9C76.2,54.8,75.8,54.9,75.6,54.9z M76.6,53.7 c-0.1,0.1-0.1,0.1-0.2,0.2C76.5,53.9,76.6,53.8,76.6,53.7z M76,53.1c0,0.1,0.1,0.2,0.1,0.3c0.1-0.1,0.1-0.1,0.1-0.2 C76.1,53.2,76.1,53.1,76,53.1L76,53.1z"></path> <path class="st1" d="M71.8,55.1L71.8,55.1c-5.9-0.5-9.9-3.4-10.1-3.6c-0.1-0.1-0.2-0.3-0.1-0.4c0.1-0.1,0.3-0.2,0.4-0.1 c0,0,4.1,2.9,9.8,3.5c0.2,0,0.3,0.2,0.3,0.3C72.1,55,72,55.1,71.8,55.1z"></path> <path class="st2" d="M59.2,48.7c-0.1,0-0.2,0-0.2,0c-0.3-0.1-0.4-0.4-0.5-0.6c0-0.1-0.1-0.2-0.1-0.3c-0.2-0.3-0.1-0.6,0.1-0.9 c0.1-0.1,0.2-0.2,0.3-0.2c-0.1-0.1-0.1-0.2,0-0.3c0-0.1,0.2-0.3,0.5-0.2c0.2,0,0.4,0.1,0.7,0.3c0.1,0,0.1,0,0.2,0 c0.3,0.1,0.3,0.3,0.4,0.4c0.2,0.2,0.3,0.4,0.4,0.6c0,0.2,0,0.6-0.5,0.9C59.8,48.6,59.5,48.7,59.2,48.7z M60.2,47.6 c-0.1,0.1-0.1,0.1-0.2,0.2C60.2,47.7,60.2,47.6,60.2,47.6z M59.6,46.9c0,0.1,0,0.2,0.1,0.3c0.1-0.1,0.1-0.1,0.1-0.2 C59.8,47,59.7,47,59.6,46.9C59.7,46.9,59.6,46.9,59.6,46.9z"></path> <path class="st2" d="M73.6,85h-4.4v-0.3c0-0.1-0.1-1.3,0.6-1.9c0.4-0.4,1.1-0.4,1.8-0.1c0.2,0.1,0.2,0.2,0.2,0.4 c-0.1,0.2-0.2,0.2-0.4,0.2c-0.6-0.2-1-0.2-1.3,0s-0.4,0.7-0.4,1h3L69.3,74c-0.1-0.2,0-0.3,0.2-0.4s0.3,0,0.4,0.2L73.6,85z"></path> <path class="st2" d="M67.1,84.9h-4.8v-0.3c0,0-0.1-1.1,0.6-1.7c0.5-0.4,1.3-0.5,2.3-0.2c0.2,0,0.3,0.2,0.2,0.4 c0,0.2-0.2,0.3-0.4,0.2c-0.8-0.2-1.4-0.2-1.8,0.1C63,83.6,63,84,62.9,84.3h3.4l-2.2-8.1c0-0.2,0.1-0.3,0.2-0.4 c0.2,0,0.3,0.1,0.4,0.2L67.1,84.9z"></path> <path class="st5" d="M85.8,48.1c0,0-4-3.4-2.8-6.7s3.6,3.3,3.7,4C86.6,46.2,86.6,48,85.8,48.1z"></path> <path class="st5" d="M81.4,40c0,0,0.9,1.9,1.5,0.5s0.1-3-0.6-2.9S81,38.1,81.4,40z"></path> <path class="st1" d="M67.7,55.1c-1.4,0-3.1-0.1-4.5-0.4c-0.7-0.2-1.4-0.4-1.4-1c0-0.7,1.3-1.2,1.8-1.3c0.2,0,0.3,0,0.4,0.2 c0,0.2,0,0.3-0.2,0.4c-0.7,0.2-1.3,0.6-1.4,0.7l0,0c0,0,0.1,0.2,1,0.4c2.8,0.7,7.2,0.3,7.3,0.3c0.2,0,0.3,0.1,0.3,0.3 S70.9,55,70.7,55C70.6,54.9,69.4,55.1,67.7,55.1z"></path> <path class="st2" d="M58,67.5L58,67.5c-0.4-0.2-7.4-4.1-6.7-7.6c0.5-2.3,3.9-3.7,10.6-4.4c0.2,0,0.3,0.1,0.3,0.3s-0.1,0.3-0.3,0.3 c-7.8,0.8-9.8,2.6-10.1,3.9c-0.6,3.1,6.2,6.9,6.3,7s0.2,0.3,0.1,0.4C58.3,67.4,58.1,67.5,58,67.5z"></path> <path class="st2" d="M87,85c-0.3,0-0.8-0.1-1.3-0.2c-3.2-1.1-3.1-15.2-3-16.8c0-0.2,0.1-0.3,0.3-0.3c0.2,0,0.3,0.1,0.3,0.3 c0,0-0.1,3.9,0.3,7.8c0.5,6.8,1.7,8.1,2.4,8.3c1,0.3,1.6,0.2,1.8,0c0.2-0.2,0.1-0.4,0-0.5c-0.1-0.3-0.6-0.7-1.4-0.7 c-0.2,0-0.3-0.1-0.3-0.3c0-0.2,0.1-0.3,0.3-0.3c1.1,0,1.8,0.6,2,1.1c0.2,0.4,0.1,0.8-0.2,1.2C88,84.7,87.6,85,87,85z"></path> </g> <path d="M8.5,65.9c-0.1,0-0.2,0-0.2-0.1C4.1,62.1-2.5,54,1,41.5c0-0.2,0.2-0.3,0.4-0.2c0.2,0,0.3,0.2,0.2,0.4 c-3.3,12.1,3,20,7.1,23.6c0.1,0.1,0.2,0.3,0,0.5C8.7,65.9,8.6,65.9,8.5,65.9z"></path> <path d="M84.1,22.1c-0.1,0-0.2-0.1-0.3-0.2c-1.2-1.8-2.5-3.5-4.1-4.8c-4-3.4-8.6-5-13.3-4.7c-5.2,0.4-9.4,3.1-12,5.4l-0.1,0.1h-0.2 c-2.3-0.5-4.8-0.8-7.4-0.9c-0.2,0-0.3-0.2-0.3-0.3c0-0.2,0.1-0.3,0.3-0.3c2.6,0.1,5.1,0.4,7.4,0.9c2.7-2.3,7-5,12.3-5.4 c4.9-0.4,9.6,1.3,13.8,4.8c1.6,1.4,3,3,4.2,4.9c0.1,0.2,0.1,0.4-0.1,0.5C84.2,22.1,84.2,22.1,84.1,22.1z"></path> <path d="M94.1,79.9c-0.1,0-0.2-0.1-0.3-0.2c-0.1-0.2-0.1-0.4,0.1-0.5c1.8-1.1,3.1-2.7,4.1-4.7c1.6-3.5,3.2-10.4-4.5-18.1 c-0.1-0.1-0.1-0.3,0-0.5c0.1-0.1,0.3-0.1,0.5,0c8,8,6.3,15.3,4.6,18.9c-1,2.1-2.4,3.7-4.3,4.9C94.2,79.9,94.2,79.9,94.1,79.9z"></path> <path class="st2" d="M3.5,35.8L3.5,35.8c0,1.4,1.1,2.5,2.5,2.5l0,0l0,0c-1.4,0-2.5,1.1-2.5,2.5l0,0l0,0c0-1.4-1.1-2.5-2.5-2.5l0,0 l0,0C2.4,38.2,3.5,37.1,3.5,35.8L3.5,35.8z"></path> <circle cx="44.1" cy="16.4" r="0.6"></circle> <path class="st2" d="M95,47.6L95,47.6c0,1.4,1.1,2.5,2.5,2.5l0,0l0,0c-1.4,0-2.5,1.1-2.5,2.5l0,0l0,0c0-1.4-1.1-2.5-2.5-2.5l0,0l0,0 C93.9,50.1,95,49,95,47.6L95,47.6z"></path> <path d="M6.4,35.8c-0.2,0-0.5-0.1-0.7-0.2c-0.3-0.2-0.5-0.5-0.6-0.8s0-0.7,0.2-1s0.5-0.5,0.8-0.6s0.7,0,1,0.2l0,0 c0.3,0.2,0.5,0.5,0.6,0.8s0,0.7-0.2,1C7.3,35.6,6.9,35.8,6.4,35.8z M6.4,33.8L6.4,33.8c-0.3,0-0.4,0.1-0.5,0.3 c-0.1,0.1-0.1,0.3-0.1,0.5s0.1,0.3,0.3,0.4c0.3,0.2,0.7,0.1,0.9-0.2c0.1-0.1,0.1-0.3,0.1-0.5S7,34,6.8,33.9l0,0 C6.7,33.9,6.6,33.8,6.4,33.8z"></path> <circle cx="9.3" cy="32.3" r="0.6"></circle> </svg>