<svg xmlns="http://www.w3.org/2000/svg" xmlns:xlink="http://www.w3.org/1999/xlink" version="1.1" id="Calque_1" x="0px" y="0px" viewBox="0 0 100 100" style="enable-background:new 0 0 100 100;" xml:space="preserve"> <style type="text/css"> .st0{fill:#FFFFFF;} .st1{fill:#005A45;} </style> <circle class="st0" cx="50" cy="50" r="50"></circle> <g> <path class="st1" d="M58.9,33.7l5.1-12.8c2.3,1.1,4.5,2.5,6.4,4.1L61,35C60.3,34.5,59.6,34.1,58.9,33.7z"></path> <path class="st1" d="M52.3,31.6V17.7c2.6,0.2,5.1,0.7,7.5,1.4L54.6,32C53.9,31.9,53.1,31.7,52.3,31.6z"></path> <path class="st1" d="M64.4,38.1l9.5-9.9c1.7,1.9,3.2,4,4.5,6.2l-12.5,5.7C65.4,39.4,64.9,38.7,64.4,38.1z"></path> <path class="st1" d="M39.2,35.1L29.5,25c2-1.6,4.1-3,6.4-4.1l5.2,13C40.5,34.2,39.8,34.7,39.2,35.1z"></path> <path class="st1" d="M63.2,45.1c-10,1.4-17.2,4.6-18.7,5.3c-2.6-0.5-5.4-1-8.3-1.2c0.5-7.3,6.5-13.1,13.9-13.1 C56.1,36.1,61.2,39.8,63.2,45.1z"></path> <path class="st1" d="M67.9,44.6c-0.1-0.2,0-0.2-0.1-0.4l12.5-5.7c0.8,2.1,1.4,4.2,1.7,6.5C77,44.3,72.2,44.2,67.9,44.6z"></path> <path class="st1" d="M40.2,19.2c2.4-0.8,4.9-1.2,7.5-1.4v13.9c-0.8,0.1-1.6,0.3-2.3,0.5L40.2,19.2z"></path> <path class="st1" d="M34.5,40.2l-12.8-5.8c1.3-2.3,2.8-4.3,4.5-6.2l9.7,10.1C35.3,38.9,34.9,39.5,34.5,40.2z"></path> <path class="st1" d="M75.9,69.4c-2.4,3.2-5.4,6-8.8,8.1C63.4,74,44.8,58.4,19.6,61.3c-0.8-2.2-1.4-4.5-1.7-6.8 C46.5,49.1,70.5,65.3,75.9,69.4z"></path> <path class="st1" d="M65.1,57.5c-1.2-0.6-2.5-1.2-3.8-1.8c-2.7-1.2-5.7-2.3-9.1-3.4c6.6-2.1,17.8-4.6,30.2-2.7c0,0,0,0,0,0 c0,1.7-0.1,3.3-0.3,4.9C78.3,54.4,71.5,54.5,65.1,57.5z"></path> <path class="st1" d="M10,50c0,22.1,17.9,40,40,40s40-17.9,40-40S72.1,10,50,10S10,27.9,10,50z M13.1,47.6 c1.2-18.4,16.1-33.3,34.5-34.5c22.3-1.4,40.7,17,39.3,39.3c-1.2,18.4-16.1,33.3-34.5,34.5C30.1,88.4,11.7,69.9,13.1,47.6z"></path> <path class="st1" d="M32.5,44.3c-0.5,1.4-0.8,2.9-0.9,4.5c-4.5-0.1-9.2,0.1-14.1,1c0-4,0.8-7.8,2.1-11.3L32.5,44.3z"></path> <path class="st1" d="M62.7,79.8c-3.9,1.7-8.2,2.6-12.7,2.6c-12.2,0-22.8-6.7-28.3-16.7C41.9,64,57.6,75.5,62.7,79.8z"></path> <path class="st1" d="M81.1,59.2c-0.7,2.2-1.5,4.4-2.6,6.4c-1.6-1.2-4.3-3.1-8-5.2C74.5,59.2,78.4,59.1,81.1,59.2z"></path> </g> </svg>