<svg xmlns="http://www.w3.org/2000/svg" width="40" height="40" viewBox="0 0 40 40" fill="none"><g clip-path="url(#clip0_404_915)"><path d="M7.49983 4.49999C13.1998 0.699989 28.2998 1.09999 36.5998 10.2C44.8998 19.3 35.7998 33.1 29.2998 36.1C22.7998 39.1 6.29983 38.9 1.79983 28.8C-2.70017 18.7 1.79983 8.19999 7.49983 4.49999Z" fill="#5E5EF7"></path><path d="M19 14.188C20.8032 12.3848 23.7083 10.6818 26.5133 13.4867C29.3182 16.2917 27.6152 19.1968 25.812 21" stroke="white" stroke-width="1.5" stroke-linecap="round" stroke-linejoin="round"></path><path d="M21 25.812C19.1968 27.6152 16.2917 29.3182 13.4867 26.5133C10.6818 23.7083 12.3848 20.8032 14.188 19" stroke="white" stroke-width="1.5" stroke-linecap="round" stroke-linejoin="round"></path><path d="M17 23L23 17" stroke="white" stroke-width="1.5" stroke-linecap="round" stroke-linejoin="round"></path></g><defs><clipPath id="clip0_404_915"><rect width="40" height="40" fill="white"></rect></clipPath></defs></svg>