<svg xmlns="http://www.w3.org/2000/svg" width="40" height="40" viewBox="0 0 40 40" fill="none"><g clip-path="url(#clip0_404_1019)"><path d="M7.49983 4.49999C13.1998 0.699989 28.2998 1.09999 36.5998 10.2C44.8998 19.3 35.7998 33.1 29.2998 36.1C22.7998 39.1 6.29983 38.9 1.79983 28.8C-2.70017 18.7 1.79983 8.19999 7.49983 4.49999Z" fill="#5E5EF7"></path><path d="M19.5 20.5417C21.2259 20.5417 22.625 19.1426 22.625 17.4167C22.625 15.6909 21.2259 14.2917 19.5 14.2917C17.7741 14.2917 16.375 15.6909 16.375 17.4167C16.375 19.1426 17.7741 20.5417 19.5 20.5417Z" stroke="white" stroke-width="1.5" stroke-linecap="round" stroke-linejoin="round"></path><path d="M19.4998 28.8749C21.5832 28.8749 27.8332 24.4768 27.8332 17.8795C27.8332 11.2823 22.6248 9.08325 19.4998 9.08325C16.3748 9.08325 11.1665 11.2823 11.1665 17.8795C11.1665 24.4768 17.4165 28.8749 19.4998 28.8749Z" stroke="white" stroke-width="1.5" stroke-linecap="round" stroke-linejoin="round"></path></g><defs><clipPath id="clip0_404_1019"><rect width="40" height="40" fill="white"></rect></clipPath></defs></svg>