<svg xmlns="http://www.w3.org/2000/svg" width="40" height="40" viewBox="0 0 40 40" fill="none"><g clip-path="url(#clip0_404_852)"><path d="M7.49983 4.49999C13.1998 0.699989 28.2998 1.09999 36.5998 10.2C44.8998 19.3 35.7998 33.1 29.2998 36.1C22.7998 39.1 6.29983 38.9 1.79983 28.8C-2.70017 18.7 1.79983 8.19999 7.49983 4.49999Z" fill="#5E5EF7"></path><path d="M16.9989 25.5701C15.5214 27.0779 10.5207 27.213 10.1618 26.7954C9.80294 26.3778 9.96478 21.5057 11.4308 20.0017C12.8967 18.4977 16.1831 15.2413 19.0236 12.4084C23.0731 8.3586 28.6412 13.927 24.5917 17.9768C21.7512 20.8097 18.4763 24.0623 16.9989 25.5701Z" stroke="white" stroke-width="1.5" stroke-linecap="round" stroke-linejoin="round"></path><path d="M18.5 13.5L23 18" stroke="white" stroke-width="1.5" stroke-linecap="round" stroke-linejoin="round"></path><path d="M20 27H25" stroke="white" stroke-width="1.5" stroke-linecap="round" stroke-linejoin="round"></path></g><defs><clipPath id="clip0_404_852"><rect width="40" height="40" fill="white"></rect></clipPath></defs></svg>