<svg xmlns="http://www.w3.org/2000/svg" width="40" height="40" viewBox="0 0 40 40" fill="none"><g clip-path="url(#clip0_404_1013)"><path d="M7.49983 4.49999C13.1998 0.699989 28.2998 1.09999 36.5998 10.2C44.8998 19.3 35.7998 33.1 29.2998 36.1C22.7998 39.1 6.29983 38.9 1.79983 28.8C-2.70017 18.7 1.79983 8.19999 7.49983 4.49999Z" fill="#5E5EF7"></path><path d="M17.4165 28.6667C17.4165 28.6667 18.1109 29.7501 19.4998 29.7501C20.8887 29.7501 21.5832 28.6667 21.5832 28.6667" stroke="white" stroke-width="1.5" stroke-linecap="round" stroke-linejoin="round"></path><path d="M25.7498 16.75C25.7498 18.9167 27.8332 20 27.8332 22.1667C27.8332 25.4167 23.2035 26.5 19.4998 26.5C15.7961 26.5 11.1665 25.4167 11.1665 22.1667C11.1665 20 13.2498 19.1782 13.2498 16.75C13.2498 13.5 15.3332 10.25 19.4998 10.25C23.6665 10.25 25.7498 13.5 25.7498 16.75Z" stroke="white" stroke-width="1.5" stroke-linecap="round" stroke-linejoin="round"></path></g><defs><clipPath id="clip0_404_1013"><rect width="40" height="40" fill="white"></rect></clipPath></defs></svg>