<svg xmlns="http://www.w3.org/2000/svg" width="40" height="40" viewBox="0 0 40 40" fill="none"><g clip-path="url(#clip0_404_787)"><path d="M7.49983 4.50023C13.1998 0.700233 28.2998 1.10023 36.5998 10.2002C44.8998 19.3002 35.7998 33.1002 29.2998 36.1002C22.7998 39.1002 6.29983 38.9002 1.79983 28.8002C-2.70017 18.7002 1.79983 8.20023 7.49983 4.50023Z" fill="#5E5EF7"></path><path d="M21.5624 21.7641C20.4146 22.9355 16.5295 23.0405 16.2507 22.716C15.9719 22.3916 16.0976 18.6064 17.2366 17.4379C18.3755 16.2694 21.998 12.6701 24.2048 10.4692C27.3509 7.32291 31.677 11.6488 28.531 14.7951C26.3241 16.996 22.7103 20.5927 21.5624 21.7641Z" stroke="white" stroke-width="1.5" stroke-linecap="round" stroke-linejoin="round"></path><path d="M29.625 20.0956C29.625 27.375 27.375 29.625 19.5 29.625C11.625 29.625 9.375 27.375 9.375 19.5C9.375 11.625 11.625 9.375 19.5 9.375" stroke="white" stroke-width="1.5" stroke-linecap="round" stroke-linejoin="round"></path><path d="M24 11.625L27.375 15" stroke="white" stroke-width="1.5" stroke-linecap="round" stroke-linejoin="round"></path></g><defs><clipPath id="clip0_404_787"><rect width="40" height="40" fill="white"></rect></clipPath></defs></svg>