<svg xmlns="http://www.w3.org/2000/svg" width="40" height="40" viewBox="0 0 40 40" fill="none"><g clip-path="url(#clip0_404_1049)"><path d="M7.49983 4.49999C13.1998 0.699989 28.2998 1.09999 36.5998 10.2C44.8998 19.3 35.7998 33.1 29.2998 36.1C22.7998 39.1 6.29983 38.9 1.79983 28.8C-2.70017 18.7 1.79983 8.19999 7.49983 4.49999Z" fill="#5E5EF7"></path><ellipse cx="20" cy="19.5" rx="3.25" ry="3.125" stroke="white" stroke-width="1.5" stroke-linecap="round" stroke-linejoin="round"></ellipse><path d="M20 11.1666C27.5833 11.1666 29.75 12.2082 29.75 19.4999C29.75 26.7916 27.5833 27.8333 20 27.8333C12.4167 27.8333 10.25 27.1822 10.25 19.4999C10.25 11.8176 12.4167 11.1666 20 11.1666Z" stroke="white" stroke-width="1.5" stroke-linecap="round" stroke-linejoin="round"></path></g><defs><clipPath id="clip0_404_1049"><rect width="40" height="40" fill="white"></rect></clipPath></defs></svg>