<svg xmlns="http://www.w3.org/2000/svg" width="40" height="40" viewBox="0 0 40 40" fill="none"><g clip-path="url(#clip0_404_1041)"><path d="M7.49983 4.49999C13.1998 0.699989 28.2998 1.09999 36.5998 10.2C44.8998 19.3 35.7998 33.1 29.2998 36.1C22.7998 39.1 6.29983 38.9 1.79983 28.8C-2.70017 18.7 1.79983 8.19999 7.49983 4.49999Z" fill="#5E5EF7"></path><path d="M29 21C29 27.1111 27 29 20 29C13 29 11 27.1111 11 20.5C11 13.8889 13 12 20 12C27 12 29 13.8889 29 21Z" stroke="white" stroke-width="1.5" stroke-linecap="round" stroke-linejoin="round"></path><path d="M24 14L24 11" stroke="white" stroke-width="1.5" stroke-linecap="round" stroke-linejoin="round"></path><path d="M16 14L16 11" stroke="white" stroke-width="1.5" stroke-linecap="round" stroke-linejoin="round"></path><line x1="15.75" y1="18.25" x2="24.25" y2="18.25" stroke="white" stroke-width="1.5" stroke-linecap="round" stroke-linejoin="round"></line></g><defs><clipPath id="clip0_404_1041"><rect width="40" height="40" fill="white"></rect></clipPath></defs></svg>