<svg xmlns="http://www.w3.org/2000/svg" width="40" height="40" viewBox="0 0 40 40" fill="none"><g clip-path="url(#clip0_404_1047)"><path d="M7.49983 4.49999C13.1998 0.699989 28.2998 1.09999 36.5998 10.2C44.8998 19.3 35.7998 33.1 29.2998 36.1C22.7998 39.1 6.29983 38.9 1.79983 28.8C-2.70017 18.7 1.79983 8.19999 7.49983 4.49999Z" fill="#5E5EF7"></path><path d="M21.5835 9.08325C21.5835 11.2934 22.4615 13.413 24.0243 14.9758C25.5871 16.5386 27.7067 17.4166 29.9168 17.4166" stroke="white" stroke-width="1.5" stroke-linecap="round" stroke-linejoin="round"></path><path d="M13.25 17.4166C15.4601 17.4166 17.5798 16.5386 19.1426 14.9758C20.7054 13.413 21.5833 11.2934 21.5833 9.08325" stroke="white" stroke-width="1.5" stroke-linecap="round" stroke-linejoin="round"></path><path d="M21.5833 25.7501C21.5833 23.5399 20.7054 21.4203 19.1426 19.8575C17.5798 18.2947 15.4601 17.4167 13.25 17.4167" stroke="white" stroke-width="1.5" stroke-linecap="round" stroke-linejoin="round"></path><path d="M29.9168 17.4167C27.7067 17.4167 25.5871 18.2947 24.0243 19.8575C22.4615 21.4203 21.5835 23.5399 21.5835 25.7501" stroke="white" stroke-width="1.5" stroke-linecap="round" stroke-linejoin="round"></path><path d="M12.2085 23.6667C12.2085 24.4955 12.5377 25.2904 13.1238 25.8765C13.7098 26.4625 14.5047 26.7917 15.3335 26.7917" stroke="white" stroke-width="1.5" stroke-linecap="round" stroke-linejoin="round"></path><path d="M9.0835 26.7917C9.9123 26.7917 10.7072 26.4625 11.2932 25.8765C11.8793 25.2904 12.2085 24.4955 12.2085 23.6667" stroke="white" stroke-width="1.5" stroke-linecap="round" stroke-linejoin="round"></path><path d="M12.2085 29.9167C12.2085 29.0879 11.8793 28.2931 11.2932 27.707C10.7072 27.121 9.9123 26.7917 9.0835 26.7917" stroke="white" stroke-width="1.5" stroke-linecap="round" stroke-linejoin="round"></path><path d="M15.3335 26.7917C14.5047 26.7917 13.7098 27.121 13.1238 27.707C12.5377 28.2931 12.2085 29.0879 12.2085 29.9167" stroke="white" stroke-width="1.5" stroke-linecap="round" stroke-linejoin="round"></path></g><defs><clipPath id="clip0_404_1047"><rect width="40" height="40" fill="white"></rect></clipPath></defs></svg>