<svg xmlns="http://www.w3.org/2000/svg" width="40" height="40" viewBox="0 0 40 40" fill="none"><g clip-path="url(#clip0_404_886)"><path d="M7.49983 4.50023C13.1998 0.700233 28.2998 1.10023 36.5998 10.2002C44.8998 19.3002 35.7998 33.1002 29.2998 36.1002C22.7998 39.1002 6.29983 38.9002 1.79983 28.8002C-2.70017 18.7002 1.79983 8.20023 7.49983 4.50023Z" fill="#5E5EF7"></path><path d="M17.5833 24.2917C21.2882 24.2917 24.2917 21.2882 24.2917 17.5833C24.2917 13.8784 21.2882 10.875 17.5833 10.875C13.8784 10.875 10.875 13.8784 10.875 17.5833C10.875 21.2882 13.8784 24.2917 17.5833 24.2917Z" stroke="white" stroke-width="1.5" stroke-linecap="round" stroke-linejoin="round"></path><path d="M22.375 22.375L28.125 28.125" stroke="white" stroke-width="1.5" stroke-linecap="round" stroke-linejoin="round"></path></g><defs><clipPath id="clip0_404_886"><rect width="40" height="40" fill="white"></rect></clipPath></defs></svg>