<svg xmlns="http://www.w3.org/2000/svg" width="40" height="40" viewBox="0 0 40 40" fill="none"><g clip-path="url(#clip0_404_1043)"><path d="M7.49983 4.49999C13.1998 0.699989 28.2998 1.09999 36.5998 10.2C44.8998 19.3 35.7998 33.1 29.2998 36.1C22.7998 39.1 6.29983 38.9 1.79983 28.8C-2.70017 18.7 1.79983 8.19999 7.49983 4.49999Z" fill="#5E5EF7"></path><path d="M27.4345 11.4284C29.131 13.0596 23.552 29.875 21.0396 29.875C19.18 29.875 16.7764 23.7261 16.7764 21.6765C16.7764 21.6765 8.25 19.3654 8.25 17.5773C8.25 15.1616 25.7379 9.7972 27.4345 11.4284Z" stroke="white" stroke-width="1.5" stroke-linejoin="round"></path><path d="M16.9165 21.5416L22.3332 16.3333" stroke="white" stroke-width="1.5" stroke-linecap="round" stroke-linejoin="round"></path></g><defs><clipPath id="clip0_404_1043"><rect width="40" height="40" fill="white"></rect></clipPath></defs></svg>