<svg xmlns="http://www.w3.org/2000/svg" width="40" height="40" viewBox="0 0 40 40" fill="none"><g clip-path="url(#clip0_404_1045)"><path d="M7.49983 4.49999C13.1998 0.699989 28.2998 1.09999 36.5998 10.2C44.8998 19.3 35.7998 33.1 29.2998 36.1C22.7998 39.1 6.29983 38.9 1.79983 28.8C-2.70017 18.7 1.79983 8.19999 7.49983 4.49999Z" fill="#5E5EF7"></path><path d="M9.0835 19.5H29.9168" stroke="white" stroke-width="1.5" stroke-linecap="round" stroke-linejoin="round"></path><path d="M28.875 20.0595C28.875 25.8292 27.404 28.2492 22.6079 28.875M10.125 19.4977C10.125 25.732 11.5925 28.2289 16.375 28.8704M16.375 10.125C12.8747 10.5945 11.1502 12.058 10.477 15.2531M22.6079 10.125C26.0285 10.5885 27.7578 12.0292 28.4683 15.2531" stroke="white" stroke-width="1.5" stroke-linecap="round" stroke-linejoin="round"></path></g><defs><clipPath id="clip0_404_1045"><rect width="40" height="40" fill="white"></rect></clipPath></defs></svg>