<svg xmlns="http://www.w3.org/2000/svg" width="40" height="40" viewBox="0 0 40 40" fill="none"><g clip-path="url(#clip0_401_612)"><path d="M7.49983 4.49999C13.1998 0.699989 28.2998 1.09999 36.5998 10.2C44.8998 19.3 35.7998 33.1 29.2998 36.1C22.7998 39.1 6.29983 38.9 1.79983 28.8C-2.70017 18.7 1.79983 8.19999 7.49983 4.49999Z" fill="#5E5EF7"></path><path d="M21 11.067C20.3838 11.0211 19.7182 11 19 11C12 11 10 13 10 20C10 27 12 29 19 29C26 29 28 27 28 20.5294C28 19.6051 27.9699 18.7642 27.904 18" stroke="white" stroke-width="1.5" stroke-linecap="round" stroke-linejoin="round"></path><path d="M26 15C27.1046 15 28 14.1046 28 13C28 11.8954 27.1046 11 26 11C24.8954 11 24 11.8954 24 13C24 14.1046 24.8954 15 26 15Z" stroke="white" stroke-width="1.5" stroke-linecap="round" stroke-linejoin="round"></path><path d="M14 23C15.8 20.4286 16.4351 18.9947 17.6818 19.3333C18.6023 19.5833 18.6805 20.7868 19.7273 21C21.1299 21.2857 21.65 19.1429 23 17" stroke="white" stroke-width="1.5" stroke-linecap="round" stroke-linejoin="round"></path></g><defs><clipPath id="clip0_401_612"><rect width="40" height="40" fill="white"></rect></clipPath></defs></svg>