<svg xmlns="http://www.w3.org/2000/svg" width="40" height="40" viewBox="0 0 40 40" fill="none"><g clip-path="url(#clip0_404_1022)"><path d="M7.49983 4.49999C13.1998 0.699989 28.2998 1.09999 36.5998 10.2C44.8998 19.3 35.7998 33.1 29.2998 36.1C22.7998 39.1 6.29983 38.9 1.79983 28.8C-2.70017 18.7 1.79983 8.19999 7.49983 4.49999Z" fill="#5E5EF7"></path><path d="M26.7919 23.7917C25.577 27.5833 21.0647 29.75 19.5027 29.75C17.9407 29.75 13.4284 27.5833 12.2136 23.7917C11.5194 21.625 11.1722 18.9167 11.1723 16.75C11.1723 15.5742 11.0741 14.1942 11.6873 13.0089C11.9937 12.4167 16.9014 10.25 19.5027 10.25C22.104 10.25 26.7919 12.3836 27.1515 13.0089C27.8332 14.1942 27.8332 15.5742 27.8332 16.75C27.8332 19.4583 27.4861 21.625 26.7919 23.7917Z" stroke="white" stroke-width="1.5" stroke-linecap="round" stroke-linejoin="round"></path><path d="M16.375 19.5666L19.0536 22.1666L22.625 17.8333" stroke="white" stroke-width="1.5" stroke-linecap="round" stroke-linejoin="round"></path></g><defs><clipPath id="clip0_404_1022"><rect width="40" height="40" fill="white"></rect></clipPath></defs></svg>