<svg xmlns="http://www.w3.org/2000/svg" width="40" height="40" viewBox="0 0 40 40" fill="none"><g clip-path="url(#clip0_401_597)"><path d="M7.49983 4.49999C13.1998 0.699989 28.2998 1.09999 36.5998 10.2C44.8998 19.3 35.7998 33.1 29.2998 36.1C22.7998 39.1 6.29983 38.9 1.79983 28.8C-2.70017 18.7 1.79983 8.19999 7.49983 4.49999Z" fill="#5E5EF7"></path><path d="M22.75 28C24.9591 28 26.75 26.2091 26.75 24C26.75 21.7909 24.9591 20 22.75 20C20.5409 20 18.75 21.7909 18.75 24C18.75 26.2091 20.5409 28 22.75 28Z" stroke="white" stroke-width="1.5" stroke-linecap="round" stroke-linejoin="round"></path><path d="M27.5 18.1C27.5 13.35 26.4062 10.5 18.75 10.5C11.0937 10.5 10 13.35 10 20C10 26.65 10.9722 29.5 17.6562 29.5" stroke="white" stroke-width="1.5" stroke-linecap="round" stroke-linejoin="round"></path><path d="M14.75 15H22.75" stroke="white" stroke-width="1.5" stroke-linecap="round" stroke-linejoin="round"></path><path d="M25.75 27L28.75 30" stroke="white" stroke-width="1.5" stroke-linecap="round" stroke-linejoin="round"></path></g><defs><clipPath id="clip0_401_597"><rect width="40" height="40" fill="white"></rect></clipPath></defs></svg>