<svg xmlns="http://www.w3.org/2000/svg" width="40" height="40" viewBox="0 0 40 40" fill="none"><g clip-path="url(#clip0_401_566)"><path d="M7.49983 4.49999C13.1998 0.699989 28.2998 1.09999 36.5998 10.2C44.8998 19.3 35.7998 33.1 29.2998 36.1C22.7998 39.1 6.29983 38.9 1.79983 28.8C-2.70017 18.7 1.79983 8.19999 7.49983 4.49999Z" fill="#5E5EF7"></path><path d="M20.25 29.5C27.7014 29.5 29.5 27.1875 29.5 19.7361C29.5 13.3125 27.7014 11 20.25 11C12.2847 11 11 13.3125 11 20.25C11 27.7014 13.3125 29.5 20.25 29.5Z" stroke="white" stroke-width="1.5" stroke-linecap="round" stroke-linejoin="round"></path><path d="M16.1387 28.4722C16.1387 26.4166 16.1304 24.3611 19.2262 24.3611H21.2446C24.3986 24.3611 24.3609 26.4166 24.3609 28.4722" stroke="white" stroke-width="1.5" stroke-linecap="round" stroke-linejoin="round"></path><path d="M15.5664 11.8762V16.893C15.5666 17.4044 15.3994 17.9017 15.0908 18.3079C14.7821 18.7142 14.3491 19.0068 13.8587 19.1405C13.3683 19.2743 12.8478 19.2418 12.3776 19.048C11.9074 18.8542 11.5137 18.5099 11.2573 18.0683" stroke="white" stroke-width="1.5" stroke-linecap="round" stroke-linejoin="round"></path><path d="M20.1914 11.0972V16.8927C20.1914 17.5101 19.9478 18.1021 19.5141 18.5387C19.0804 18.9752 18.4922 19.2205 17.8789 19.2205C17.2656 19.2205 16.6774 18.9752 16.2437 18.5387C15.81 18.1021 15.5664 17.5101 15.5664 16.8927V11.7303" stroke="white" stroke-width="1.5" stroke-linecap="round" stroke-linejoin="round"></path><path d="M24.8164 11.5843V16.8931C24.8164 17.5105 24.5728 18.1025 24.1391 18.5391C23.7054 18.9756 23.1172 19.2208 22.5039 19.2208C21.8906 19.2208 21.3024 18.9756 20.8687 18.5391C20.435 18.1025 20.1914 17.5105 20.1914 16.8931V11" stroke="white" stroke-width="1.5" stroke-linecap="round" stroke-linejoin="round"></path><path d="M29.2467 17.8292C29.0335 18.3188 28.6593 18.7195 28.1871 18.9642C27.7149 19.2088 27.1734 19.2823 26.6537 19.1725C26.134 19.0626 25.6676 18.7761 25.3331 18.3609C24.9985 17.9458 24.816 17.4274 24.8164 16.8928V11.6814" stroke="white" stroke-width="1.5" stroke-linecap="round" stroke-linejoin="round"></path></g><defs><clipPath id="clip0_401_566"><rect width="40" height="40" fill="white"></rect></clipPath></defs></svg>