<svg xmlns="http://www.w3.org/2000/svg" width="40" height="40" viewBox="0 0 40 40" fill="none"><g clip-path="url(#clip0_404_866)"><path d="M7.49983 4.49999C13.1998 0.699989 28.2998 1.09999 36.5998 10.2C44.8998 19.3 35.7998 33.1 29.2998 36.1C22.7998 39.1 6.29983 38.9 1.79983 28.8C-2.70017 18.7 1.79983 8.19999 7.49983 4.49999Z" fill="#5E5EF7"></path><path d="M16.375 22.625H10.125V28.875" stroke="white" stroke-width="1.5" stroke-linecap="round" stroke-linejoin="round"></path><path d="M28.875 20.5417C28.6177 22.8435 27.5175 24.9685 25.7864 26.5072C24.0554 28.0459 21.816 28.8894 19.5 28.8751" stroke="white" stroke-width="1.5" stroke-linecap="round" stroke-linejoin="round"></path><path d="M10.6562 22.625C11.3028 24.4536 12.5005 26.0367 14.0844 27.1561C15.6684 28.2755 17.5605 28.876 19.5 28.875" stroke="white" stroke-width="1.5" stroke-linecap="round" stroke-linejoin="round"></path><path d="M22.625 16.375H28.875V10.125" stroke="white" stroke-width="1.5" stroke-linecap="round" stroke-linejoin="round"></path><path d="M10.1772 18.5417C10.4144 16.2338 11.4988 14.0959 13.2209 12.5413C14.9429 10.9867 17.1802 10.1257 19.5002 10.125" stroke="white" stroke-width="1.5" stroke-linecap="round" stroke-linejoin="round"></path><path d="M28.3438 16.375C27.6972 14.5464 26.4995 12.9633 24.9156 11.8439C23.3316 10.7245 21.4395 10.124 19.5 10.125" stroke="white" stroke-width="1.5" stroke-linecap="round" stroke-linejoin="round"></path></g><defs><clipPath id="clip0_404_866"><rect width="40" height="40" fill="white"></rect></clipPath></defs></svg>