<svg xmlns="http://www.w3.org/2000/svg" width="40" height="40" viewBox="0 0 40 40" fill="none"><g clip-path="url(#clip0_404_1047)"><path d="M7.49983 4.50023C13.1998 0.700233 28.2998 1.10023 36.5998 10.2002C44.8998 19.3002 35.7998 33.1002 29.2998 36.1002C22.7998 39.1002 6.29983 38.9002 1.79983 28.8002C-2.70017 18.7002 1.79983 8.20023 7.49983 4.50023Z" fill="#5E5EF7"></path><path d="M19.3335 10C19.3335 12.7406 20.4222 15.3689 22.3601 17.3068C24.2979 19.2446 26.9263 20.3333 29.6668 20.3333" stroke="white" stroke-width="1.5" stroke-linecap="round" stroke-linejoin="round"></path><path d="M9 20.3333C11.7406 20.3333 14.3689 19.2446 16.3068 17.3068C18.2446 15.3689 19.3333 12.7406 19.3333 10" stroke="white" stroke-width="1.5" stroke-linecap="round" stroke-linejoin="round"></path><path d="M19.3333 30.6663C19.3333 27.9258 18.2446 25.2974 16.3068 23.3596C14.3689 21.4217 11.7406 20.333 9 20.333" stroke="white" stroke-width="1.5" stroke-linecap="round" stroke-linejoin="round"></path><path d="M29.6668 20.333C26.9263 20.333 24.2979 21.4217 22.3601 23.3596C20.4222 25.2974 19.3335 27.9258 19.3335 30.6663" stroke="white" stroke-width="1.5" stroke-linecap="round" stroke-linejoin="round"></path></g><defs><clipPath id="clip0_404_1047"><rect width="40" height="40" fill="white"></rect></clipPath></defs></svg>