<svg xmlns="http://www.w3.org/2000/svg" width="40" height="40" viewBox="0 0 40 40" fill="none"><g clip-path="url(#clip0_404_1127)"><path d="M7.49983 4.50023C13.1998 0.700233 28.2998 1.10023 36.5998 10.2002C44.8998 19.3002 35.7998 33.1002 29.2998 36.1002C22.7998 39.1002 6.29983 38.9002 1.79983 28.8002C-2.70017 18.7002 1.79983 8.20023 7.49983 4.50023Z" fill="#5E5EF7"></path><path d="M13.9758 15.6402L11.6558 21.0322C12.7918 20.4562 14.6638 21.9122 16.2798 21.4162L13.9758 15.6402ZM17.6878 25.0002L16.3438 21.5602C15.4638 21.8322 14.5518 21.5762 13.7038 21.3362C12.8398 21.0962 12.0558 20.8722 11.5438 21.3042L9.9758 25.0002H9.7998L13.8958 15.4322L13.2398 13.8002H14.8238L19.2398 25.0002H17.6878Z" fill="white"></path><path d="M20.8467 18.0882V12.1362H22.2707V17.9762C23.1507 17.4482 24.0467 17.0002 25.1187 17.0002C27.4387 17.0002 29.4867 18.7122 29.4867 21.0002C29.4867 23.2882 27.4387 25.0002 25.1187 25.0002C24.0787 25.0002 23.0547 24.2962 22.2707 23.4962V25.0002H20.8467V20.3122L21.1667 21.0002C21.8707 22.3762 23.2787 24.8402 25.1187 24.8402C26.7827 24.8402 28.0147 24.1682 28.2227 22.4082C28.4307 20.5042 27.2467 18.3922 25.4707 17.6402C24.8147 17.3682 24.1267 17.3042 23.5347 17.4962C23.0067 17.7202 22.5267 18.0242 22.1267 18.2642C21.4707 18.6802 20.8467 19.1602 20.8467 18.0882Z" fill="white"></path></g><defs><clipPath id="clip0_404_1127"><rect width="40" height="40" fill="white"></rect></clipPath></defs></svg>