<svg xmlns="http://www.w3.org/2000/svg" xmlns:xlink="http://www.w3.org/1999/xlink" version="1.1" id="Calque_1" x="0px" y="0px" viewBox="0 0 160 160" style="enable-background:new 0 0 160 160;" xml:space="preserve"> <style type="text/css"> .st0{fill:#C6C6C5;} .st1{fill:#FFFFFF;} .st2{fill:#151819;} .st3{fill:#EDEDED;} .st4{fill:#5E5EF7;} .st5{fill:#575756;} .st6{fill:none;stroke:#000000;stroke-width:4.6795;stroke-linecap:round;stroke-miterlimit:10;} </style> <g> <g> <polygon class="st0" points="88.4,13.6 85.6,32.8 156.3,35.1 155.8,15.4 "></polygon> <polygon class="st0" points="85.6,39.3 86.9,60.5 107.6,60.8 109.1,38.5 "></polygon> <polygon class="st0" points="112.9,38.2 110.8,60.8 155.1,60.2 156.1,39.8 "></polygon> <polygon class="st0" points="110,65.6 109.5,71.9 143.7,72.9 143.4,65.9 "></polygon> <polygon class="st0" points="109.5,76.2 143.7,76.7 143.4,83.9 108.7,81.9 "></polygon> <polygon class="st0" points="108.7,86.6 108.7,92 142.6,92.8 142.6,87.9 "></polygon> <polygon points="74.9,142.7 143.5,146.4 145.2,114.8 79.5,111 "></polygon> <g> <polygon class="st1" points="79.5,111 101.2,104.4 154,105.2 145.2,114.8 "></polygon> <path d="M101.3,105.1l51.3,0.8l-7.6,8.3l-61.8-3.6L101.3,105.1 M101.2,104.4L79.5,111l65.8,3.8l8.8-9.6L101.2,104.4L101.2,104.4z "></path> </g> <polygon class="st2" points="143.5,146.4 157.6,134.9 154,105.2 145.2,114.8 "></polygon> <path class="st3" d="M119.2,117.2c-0.8,0.3-2.4,1.9-0.3,4.7c2.1,2.9,0.9,6.1,0.9,6.1l-1.8,6l-4.6-13.6c0,0,1.3-0.1,1.5-0.1 s0.5-0.2,0.4-0.6s-0.3-0.4-0.6-0.4c-0.1,0-1.7,0.1-3.3,0.1c-1.6,0-3.1-0.1-3.3-0.1c-0.2,0-0.5,0-0.6,0.4c-0.1,0.3,0.1,0.6,0.4,0.7 c0.3,0,0.1,0,1.4,0.1c0,0,0.9,2.4,2,5.4l-2.8,8.3l-4.6-13.7c0,0,1.3-0.1,1.5-0.1s0.5-0.2,0.4-0.6s-0.3-0.4-0.6-0.4 c-0.1,0-1.7,0.1-3.3,0.1c-1.6,0-3.1-0.1-3.3-0.1c-0.2,0-0.5,0-0.6,0.4c-0.1,0.3,0.1,0.6,0.4,0.7c0.3,0,0.1,0,1.4,0.1 c0,0,6.1,16.7,6.4,17.6s1.7,1.1,2,0c0.3-0.9,2.5-7.2,3.6-10.5c1.7,4.7,3.7,10.1,3.8,10.6c0.3,0.9,1.7,1.1,2,0 c0.4-1.2,2.5-7.2,4.4-12.7C123.8,120.5,122.3,116.2,119.2,117.2z"></path> <polygon class="st4" points="123.8,112.9 145,114.1 151,107.5 140,96.2 "></polygon> <g> <polygon class="st1" points="132.2,114.2 139.5,107.5 129.9,98 114.2,112.9 "></polygon> <path d="M129.9,98.9l8.6,8.5l-6.6,6.1l-16.3-1.2L129.9,98.9 M129.9,98l-15.8,14.9l18,1.3l7.3-6.8L129.9,98L129.9,98z"></path> </g> <polygon class="st4" points="114.8,112.3 117.5,109.7 108.6,101.1 96.7,111.4 "></polygon> <path class="st0" d="M153.9,74.2l-2.3-1.1c-0.1-0.1-0.3-0.1-0.4,0l-2.2,1.3c-0.3,0.2-0.7-0.1-0.6-0.4l0.4-2.5c0-0.1,0-0.3-0.1-0.4 l-1.9-1.7c-0.3-0.2-0.1-0.7,0.2-0.7l2.5-0.4c0.1,0,0.3-0.1,0.3-0.2l1.1-2.3c0.1-0.3,0.6-0.3,0.8,0l1.2,2.3 c0.1,0.1,0.2,0.2,0.3,0.2l2.6,0.3c0.3,0,0.5,0.5,0.3,0.7l-1.8,1.8c-0.1,0.1-0.1,0.2-0.1,0.4l0.5,2.5 C154.5,74.1,154.2,74.3,153.9,74.2z"></path> <path class="st0" d="M153.9,84.3l-2.3-1.1c-0.1-0.1-0.3-0.1-0.4,0l-2.2,1.3c-0.3,0.2-0.7-0.1-0.6-0.4l0.4-2.5c0-0.1,0-0.3-0.1-0.4 l-1.9-1.7c-0.3-0.2-0.1-0.7,0.2-0.7l2.5-0.4c0.1,0,0.3-0.1,0.3-0.2l1.1-2.3c0.1-0.3,0.6-0.3,0.8,0l1.2,2.3 c0.1,0.1,0.2,0.2,0.3,0.2l2.6,0.3c0.3,0,0.5,0.5,0.3,0.7l-1.8,1.8c-0.1,0.1-0.1,0.2-0.1,0.4l0.5,2.5 C154.5,84.1,154.2,84.4,153.9,84.3z"></path> <path class="st0" d="M153.9,94.7l-2.3-1.1c-0.1-0.1-0.3-0.1-0.4,0l-2.2,1.3c-0.3,0.2-0.7-0.1-0.6-0.4l0.4-2.5c0-0.1,0-0.3-0.1-0.4 l-1.9-1.7c-0.3-0.2-0.1-0.7,0.2-0.7l2.5-0.4c0.1,0,0.3-0.1,0.3-0.2l1.1-2.3c0.1-0.3,0.6-0.3,0.8,0l1.2,2.3 c0.1,0.1,0.2,0.2,0.3,0.2l2.6,0.3c0.3,0,0.5,0.5,0.3,0.7l-1.8,1.8c-0.1,0.1-0.1,0.2-0.1,0.4l0.5,2.5 C154.5,94.6,154.2,94.9,153.9,94.7z"></path> </g> <g> <path class="st4" d="M13.5,41.1c0,0,10,4.8,19.6-1.1s7.5-23.6,7.5-23.6s-16.8,5.7-10.9,18c0,0-11.6-14-26-7.6 C3.7,26.8,4.4,34.8,13.5,41.1z"></path> <path class="st1" d="M22.8,41.6c-1.1,0-2.2-0.1-3.4-0.3c-4.7-0.7-10.8-3.4-13.6-12.1l-0.1-0.5l0.4-0.3c0.3-0.2,8.6-5.4,20.4,4.7 c0.3,0.2,0.3,0.6,0.1,0.9c-0.2,0.3-0.6,0.3-0.9,0.1C16,25.9,9.1,28.4,7.3,29.3c2.1,6.2,6.2,9.8,12.3,10.7c4.7,0.7,8.9-0.5,9-0.5 c0.3-0.1,0.7,0.1,0.8,0.4c0.1,0.3-0.1,0.7-0.4,0.8C28.8,40.8,26.3,41.6,22.8,41.6z"></path> <path class="st1" d="M31.2,32.7c-0.3,0-0.5-0.2-0.6-0.5c0-0.1-1.1-8.6,6.7-12l0.5-0.2l0.2,0.5c0.1,0.2,2.5,4.7-0.1,9.9 c-0.1,0.3-0.5,0.4-0.8,0.3s-0.4-0.5-0.3-0.8c1.9-3.7,0.8-7.1,0.3-8.4c-6.4,3.2-5.5,10.3-5.5,10.6C31.8,32.4,31.6,32.6,31.2,32.7 L31.2,32.7z"></path> <path d="M26.7,28.2l-1.2,6.2c0,0-27.2,8.3-22.6,44.3c4.3,33.2,32,39.6,32,39.6l-2.5,7.6l13.5-0.2l5.1-8.3c0,0,23.4-22.6,11.9-52.6 S36.6,33.9,36.6,33.9l-3.7-6.6L26.7,28.2z"></path> <path class="st1" d="M45.8,121.1h-5.9l-0.8-5.8c-3.4-1.1-25.7-9.1-32.2-36.1C0.2,51.7,24,37.4,27.1,35.6l0.5-5.1 c0-0.4,0.4-0.6,0.7-0.6c0.4,0,0.6,0.4,0.6,0.7l-0.6,5.8L28,36.6C27.7,36.8,1.3,50.7,8.1,78.9c6.8,28.3,31.5,35.2,31.7,35.3 l0.4,0.1l0.8,5.6h3.9l2.2-5.7l0.1-0.1c0.2-0.1,17.3-14.6,13-41.6S33.8,37.4,33.6,37.3l-0.3-0.1l-1.9-5.7c-0.1-0.3,0.1-0.7,0.4-0.8 c0.3-0.1,0.7,0.1,0.8,0.4l1.7,5.1c2.7,1.1,23,10.1,27.1,36.1c2.3,14.5-1.5,25.3-5,31.9c-3.6,6.5-7.5,10.1-8.3,10.8L45.8,121.1z"></path> <path class="st4" d="M63.4,99.9c-0.4,0-0.6,0-0.7,0c-0.4,0-0.6-0.3-0.6-0.7s0.3-0.6,0.7-0.6c0.1,0,11.3,0.7,19.6-9.6 c0.2-0.3,0.6-0.3,0.9-0.1c0.3,0.2,0.3,0.6,0.1,0.9C75.7,99.2,66.1,99.9,63.4,99.9z"></path> <path class="st4" d="M78.8,91.1c-0.2,0-0.4-0.1-0.5-0.3c-0.2-0.3-0.2-0.7,0.1-0.9c0,0,1.5-1.1,1.8-2.9c0.1-0.4,0.4-0.6,0.8-0.5 s0.6,0.4,0.5,0.8c-0.5,2.3-2.2,3.6-2.3,3.7C79.1,91,78.9,91.1,78.8,91.1z"></path> <path class="st4" d="M81.1,94.6c-0.2,0-0.5-0.1-0.6-0.4s0-0.7,0.3-0.9c1.7-0.8,3.4-1.8,3.6-2.2c0.1-0.4,0.4-0.6,0.8-0.5 s0.6,0.4,0.5,0.8c-0.2,1.2-2.8,2.5-4.3,3.2C81.3,94.5,81.2,94.6,81.1,94.6z"></path> <path class="st4" d="M5.8,127.1c-0.3,0-0.6-0.3-0.6-0.6c-1.2-12.3,4-26.9,4-27c0.1-0.3,0.5-0.5,0.8-0.4s0.5,0.5,0.4,0.8 c-0.1,0.1-5.1,14.5-4,26.5C6.5,126.7,6.2,127,5.8,127.1C5.9,127.1,5.8,127.1,5.8,127.1z"></path> <path class="st4" d="M3.7,126.8c-0.4,0-0.6-0.3-0.6-0.6l-0.1-4c0-0.4,0.3-0.7,0.6-0.7c0.4,0,0.7,0.3,0.7,0.6l0.1,3.9 C4.4,126.5,4.1,126.8,3.7,126.8L3.7,126.8z"></path> <path class="st4" d="M8,127.2c-0.3,0-0.6-0.3-0.6-0.6l-0.3-4.2c0-0.4,0.2-0.7,0.6-0.7c0.4,0,0.7,0.2,0.7,0.6l0.3,4.2 C8.7,126.9,8.4,127.2,8,127.2C8.1,127.2,8,127.2,8,127.2z"></path> <polygon class="st4" points="77.7,86.3 80.1,83.3 87.9,91.1 84.9,94.7 91.5,100.4 113.6,80.8 94.1,63.3 75,83 "></polygon> <path class="st5" d="M36.2,46.5c0,0,4.2,10.2,11.7,10s-4.2-9.5-5.7-10S37,44.7,36.2,46.5z"></path> <path class="st5" d="M31.5,43c0,0-3.2-3,0-3.2s6.2,1.7,5.5,3C36.2,44,35.2,45,31.5,43z"></path> <path class="st1" d="M46.3,76.8c-0.4,0-0.7-0.1-1.1-0.2c-2.8-1.3-3.1-7.9-3.1-8.6c0-0.3,0.2-0.6,0.6-0.6c0.3,0,0.6,0.2,0.6,0.6 c0.1,2.5,0.8,6.8,2.4,7.6c0.6,0.3,1.3,0.1,2.1-0.5c0.3-0.2,0.6-0.1,0.8,0.1c0.2,0.3,0.1,0.6-0.1,0.8C47.8,76.5,47,76.8,46.3,76.8z "></path> <path class="st1" d="M34.5,76.2c-0.1,0-0.2,0-0.3-0.1c-0.3-0.2-0.4-0.5-0.2-0.8c0.2-0.4,2.3-3.6,4.6-3.5c1,0.1,1.9,0.8,2.5,2.1 c0.1,0.3,0,0.6-0.3,0.8c-0.3,0.1-0.6,0-0.8-0.3c-0.4-0.9-0.9-1.4-1.5-1.4c0,0,0,0-0.1,0c-1.3,0-3,2.2-3.5,3 C34.9,76.1,34.7,76.2,34.5,76.2z"></path> <path class="st1" d="M47,69.9c-0.1,0-0.3,0-0.4-0.1c-0.2-0.2-0.3-0.6-0.1-0.8c0.2-0.3,2.3-2.6,4.3-2.4c0.9,0.1,1.7,0.7,2.2,1.8 c0.1,0.3,0,0.6-0.3,0.8c-0.3,0.1-0.6,0-0.8-0.3c-0.4-0.7-0.8-1.1-1.3-1.1c-1.2-0.1-2.8,1.4-3.3,2C47.3,69.8,47.1,69.9,47,69.9z"></path> <path class="st4" d="M28.3,83c-0.5,0-1.1-0.2-2-0.7c-1.1-0.6-1.1-1.4-1.1-1.8c0.1-0.4,0.3-0.9,0.7-1.3c0.1-0.2,0.3-0.5,0.7-0.7 c0.1,0,0.2-0.1,0.3-0.1c0.5-0.3,1-0.5,1.3-0.5c0.6-0.1,0.9,0.2,1,0.4c0.1,0.2,0.1,0.4,0,0.6c0.2,0.1,0.4,0.3,0.6,0.5 c0.5,0.5,0.5,1.2,0.2,1.8c-0.1,0.2-0.2,0.4-0.3,0.6c-0.2,0.5-0.4,1-1,1.2C28.7,82.9,28.5,83,28.3,83z M26.4,80.8 c0,0.1,0.1,0.2,0.4,0.4C26.7,81,26.5,80.9,26.4,80.8z M27.2,79.7c0,0.1,0.1,0.2,0.3,0.4c0-0.2,0.1-0.4,0.1-0.6h-0.1 C27.4,79.6,27.3,79.7,27.2,79.7z"></path> <path class="st1" d="M40.2,84.2c-1.6,0-3.2-0.3-4.8-0.9c-0.3-0.1-0.5-0.5-0.3-0.8c0.1-0.3,0.5-0.5,0.8-0.3 c9.4,3.7,18.4-6.5,18.5-6.6c0.2-0.2,0.6-0.3,0.8-0.1c0.2,0.2,0.3,0.6,0.1,0.8C54.9,76.7,48.4,84.2,40.2,84.2z"></path> <path class="st4" d="M59.9,71c-0.5,0-1.1-0.2-2-0.7c-1.1-0.6-1.1-1.4-1.1-1.8c0.1-0.4,0.3-0.9,0.7-1.2c0.1-0.2,0.3-0.5,0.7-0.7 c0.1,0,0.2-0.1,0.3-0.1c0.5-0.3,0.9-0.5,1.3-0.5c0.6-0.1,0.9,0.2,1,0.4c0.1,0.2,0.1,0.4,0,0.6c0.2,0.1,0.4,0.3,0.6,0.5 c0.5,0.5,0.5,1.2,0.2,1.8c-0.1,0.2-0.2,0.4-0.3,0.6c-0.2,0.5-0.4,1-1,1.2C60.3,71,60.1,71,59.9,71z M58,68.8 c0,0.1,0.1,0.2,0.3,0.4C58.3,69.1,58.1,68.9,58,68.8z M58.8,67.8c0,0.1,0.1,0.2,0.3,0.4c0-0.2,0.1-0.4,0.1-0.6h-0.1 C59,67.6,58.9,67.7,58.8,67.8z"></path> <path class="st6" d="M16.8,59.8"></path> <path class="st4" d="M35.1,142.8H24.7l9.5-24.9c0.1-0.3,0.5-0.5,0.8-0.4s0.5,0.5,0.4,0.8l-8.9,23.1h7.6c0.3-0.8,0.5-2,0-2.5 c-0.4-0.5-1.5-0.4-3.1,0.1c-0.3,0.1-0.7-0.1-0.8-0.4c-0.1-0.3,0.1-0.7,0.4-0.8c2.2-0.7,3.6-0.6,4.4,0.3c1.3,1.4,0.2,4,0.1,4.3 L35.1,142.8z"></path> <path class="st4" d="M49.6,142.6H38.8l11.3-26.3c0.1-0.3,0.5-0.5,0.9-0.3c0.3,0.1,0.5,0.5,0.3,0.9l-10.5,24.5h8.1 c0.3-0.5,0.7-1.5,0.3-2C49,139,48,138.3,44,139c-0.4,0.1-0.7-0.2-0.8-0.5c-0.1-0.4,0.2-0.7,0.5-0.8c3.5-0.6,5.7-0.3,6.5,1 c1,1.5-0.4,3.5-0.5,3.7L49.6,142.6z"></path> <path class="st1" d="M44.3,87.5c-0.8,0-1.4-0.1-2-0.5c-1.6-0.8-1.9-2.4-1.9-2.4c-0.1-0.3,0.1-0.6,0.5-0.7c0.3-0.1,0.6,0.1,0.7,0.5 l0,0c0,0,0.3,1.1,1.3,1.6c1.1,0.6,2.9,0.4,5-0.6c0.3-0.1,0.6,0,0.8,0.3c0.1,0.3,0,0.6-0.3,0.8C46.8,87.2,45.5,87.5,44.3,87.5z"></path> </g> </g> </svg>