<svg xmlns="http://www.w3.org/2000/svg" xmlns:xlink="http://www.w3.org/1999/xlink" version="1.1" id="Calque_1" x="0px" y="0px" viewBox="0 0 100 100" style="enable-background:new 0 0 100 100;" xml:space="preserve"> <g> <path d="M76.2,63.6c-2,3.9-4.1,7.8-6,11.7c-2.6,5.1-5.1,10.2-7.7,15.4c-1.2,2.3-2.4,4.5-3.7,7c-1.6-2.5-3-4.8-4.5-7.1 c-2.1-3.4-4.2-6.9-6.3-10.3c-1.7-2.8-3.5-5.7-5.2-8.5c-3.3-5.4-6.7-10.7-10-16.1c-2.5-4-4.9-8.1-7.3-12.1 c-2.5-4.1-5.1-8.2-7.6-12.3c-2.1-3.4-4.1-6.8-6.2-10.2c-1.7-2.7-3.4-5.4-5.1-8.1c-1.4-2.2-2.7-4.5-4.1-6.7C1.7,5,0.9,3.8,0.3,2.6 C-0.3,1.7,0,1.3,1,1.2c0.3,0,0.6,0,0.9,0c11.8,0,23.6,0,35.4,0c1.2,0,1.8,0.4,2.4,1.4c2,3.4,4.1,6.7,6.2,10.1 c1.9,3.1,3.8,6.2,5.8,9.4c2.3,3.8,4.7,7.6,7,11.4c2.1,3.4,4.1,6.7,6.2,10.1c2.2,3.6,4.5,7.3,6.8,10.9c1.5,2.5,3,5,4.5,7.5 C76.6,62.5,76.5,63,76.2,63.6z"></path> <path d="M100,14c-0.1,3.1-1.3,5.8-3.4,8.1C94,25,90.8,26.7,87,26.5c-3-0.1-5.6-1.3-7.9-3.3c-2.2-2-3.6-4.3-4.3-7.2 c-0.5-2.2-0.1-4.2,0.7-6.2c1.7-4,4.5-6.8,8.7-8c4-1.1,7.6-0.2,10.7,2.5c1.1,1,2.2,2.2,3.1,3.4C99.4,9.6,100.1,11.7,100,14z"></path> </g> </svg>