<svg xmlns="http://www.w3.org/2000/svg" xmlns:xlink="http://www.w3.org/1999/xlink" version="1.1" id="Calque_1" x="0px" y="0px" viewBox="0 0 489.6 458.3" style="enable-background:new 0 0 489.6 458.3;" xml:space="preserve"> <style type="text/css"> .st0{fill:#FFFFFF;} </style> <g> <path class="st0" d="M489.6,458.1c-2.8,0-4.2,0-5.7,0c-45,0-90,0-135,0.1c-3.8,0-6-1.2-8.2-4.2c-42.2-56.6-84.5-113.2-126.8-169.7 c-1.4-1.9-2.8-3.7-4.5-5.9c-9.5,10.2-18.7,20.2-28,30.2C136.6,357,91.7,405.4,47,453.9c-2.8,3-5.6,4.5-9.8,4.4 c-11.8-0.3-23.6-0.1-37.1-0.1c63.9-69,126.9-137.1,190.2-205.5C127.4,168.8,64.8,85,1.6,0.5c2-0.2,3.3-0.4,4.7-0.4 c45.5,0,91,0,136.5-0.1c3.2,0,5.1,1.1,7,3.6c39,52.3,78.2,104.6,117.3,156.9c1.1,1.5,2.2,2.9,4.6,6c1.1-1.9,1.7-3.7,2.9-5 C323,109.2,371.5,56.9,419.8,4.4c3-3.2,6-4.5,10.3-4.4c10.2,0.3,20.3,0.1,30.5,0.1c1.6,0,3.2,0.1,6,0.3 c-59.2,64-117.8,127.3-176.6,190.8C356.4,280,422.6,368.5,489.6,458.1z M426.1,426.4c-1.6-2.3-2.5-3.8-3.6-5.2 c-32.9-44-65.8-88-98.7-132c-63.2-84.5-126.5-169.1-189.7-253.7c-2.1-2.8-4.2-4.1-7.8-4.1c-19,0.2-38,0.1-57,0.1 c-1.3,0-2.7,0.2-4.6,0.4c1.5,2,2.4,3.4,3.4,4.7c67.9,90.8,135.8,181.6,203.8,272.5c28.4,38,56.8,76,85.3,114c1.1,1.5,3.3,3.2,5,3.3 C383.1,426.5,404.1,426.4,426.1,426.4z"></path> </g> </svg>