<svg xmlns="http://www.w3.org/2000/svg" xmlns:xlink="http://www.w3.org/1999/xlink" version="1.1" id="Calque_1" x="0px" y="0px" viewBox="0 0 40 40" style="enable-background:new 0 0 40 40;" xml:space="preserve"> <style type="text/css"> .st0{fill:#5E5EF7;} .st1{fill:none;stroke:#FFFFFF;stroke-width:1.5;stroke-linecap:round;stroke-linejoin:round;} </style> <path class="st0" d="M7.5,4.5c5.7-3.8,20.8-3.4,29.1,5.7s-0.8,22.9-7.3,25.9c-6.5,3-23,2.8-27.5-7.3S1.8,8.2,7.5,4.5z"></path> <path class="st1" d="M22,11.1c-0.6,0-1.3-0.1-2-0.1c-7,0-9,2-9,9s2,9,9,9s9-2,9-8.5c0-0.9,0-1.8-0.1-2.5"></path> <path class="st1" d="M27,15c1.1,0,2-0.9,2-2s-0.9-2-2-2s-2,0.9-2,2S25.9,15,27,15z"></path> <path class="st1" d="M15,23c1.8-2.6,2.4-4,3.7-3.7c0.9,0.2,1,1.5,2,1.7c1.4,0.3,1.9-1.9,3.3-4"></path> </svg>