<svg xmlns="http://www.w3.org/2000/svg" xmlns:xlink="http://www.w3.org/1999/xlink" version="1.1" id="Calque_1" x="0px" y="0px" viewBox="0 0 177.4 75" style="enable-background:new 0 0 177.4 75;" xml:space="preserve"> <style type="text/css"> .st0{fill:#898989;} .st1{fill:url(#SVGID_1_);} </style> <g> <g> <path class="st0" d="M101.4,30.5c1.8,0.7,2.7,1.5,2.7,2.6c0,0.4-0.1,1-0.5,2.1l-7.9,22.9c0,0.1-0.1,0.4-0.3,0.7 c-0.1,0.3-0.5,0.7-1,1c-0.7,0.5-1.3,0.7-2.1,0.7c-0.7,0-1.5-0.3-2.1-0.7c-0.7-0.5-1-0.9-1.2-1.3l-0.3-0.7l-4.4-13.6l-4.6,13.6 c0,0.1,0,0.1-0.1,0.3c0,0.1-0.1,0.4-0.4,0.7c-0.1,0.3-0.4,0.5-0.7,0.8c-0.3,0.3-0.7,0.5-1,0.7c-0.4,0.1-0.9,0.3-1.4,0.3 c-0.8,0-1.4-0.3-1.9-0.7s-0.9-0.8-1.2-1.3l-0.3-0.7L64.8,35c-0.3-0.9-0.5-1.5-0.5-2.1c0-1.2,0.9-1.9,2.7-2.6 c0.8-0.3,1.4-0.4,2.1-0.4c0.8,0,1.3,0.3,1.7,0.7s0.7,1.2,0.9,2.1l4.6,13.8l4.6-13.6c0-0.1,0-0.1,0.1-0.3c0-0.1,0.1-0.3,0.4-0.7 c0.1-0.3,0.4-0.7,0.7-0.8c0.3-0.3,0.5-0.4,1-0.7c0.4-0.1,0.9-0.3,1.4-0.3c0.9,0,1.7,0.3,2.4,0.7c0.7,0.5,1,0.9,1.2,1.3l0.3,0.7 L93,46.5l4.6-13.8c0.3-0.7,0.4-1.2,0.5-1.4c0.1-0.3,0.4-0.7,0.8-0.9c0.4-0.3,0.8-0.4,1.3-0.4C100,30.1,100.6,30.2,101.4,30.5z"></path> <path class="st0" d="M114.2,38.5c2.9,0,5.7,1,8,3.2c2.4,2.1,3.4,4.8,3.4,8.2c0,2.4-0.7,4.3-1.8,6.1c-1.2,1.8-2.6,3.1-4.3,3.9 c-1.7,0.8-3.5,1.3-5.1,1.3c-1.8,0-3.6-0.4-5.3-1.3c-1.7-0.9-3.1-2.2-4.3-4c-1.2-1.7-1.8-3.8-1.8-6c0-3.4,1.2-6.1,3.5-8.2 C108.7,39.5,111.2,38.5,114.2,38.5z M111.5,52.8c0.9,0.7,1.8,1,2.7,1c0.9,0,1.8-0.4,2.7-1c0.9-0.7,1.4-1.7,1.4-3.1 c0-1.3-0.4-2.4-1.3-2.9c-0.9-0.7-1.8-1-2.9-1c-0.9,0-1.8,0.4-2.7,1c-0.9,0.7-1.3,1.7-1.3,2.9C110.2,51.2,110.6,52.2,111.5,52.8z"></path> <path class="st0" d="M138.9,38.5c2.9,0,5.7,1,8,3.2c2.4,2.1,3.4,4.8,3.4,8.2c0,2.4-0.7,4.3-1.8,6.1c-1.2,1.8-2.6,3.1-4.3,3.9 c-1.7,0.8-3.5,1.3-5.1,1.3c-1.8,0-3.6-0.4-5.3-1.3c-1.7-0.9-3.1-2.2-4.3-4c-1.2-1.7-1.8-3.8-1.8-6c0-3.4,1.2-6.1,3.5-8.2 C133.4,39.5,136,38.5,138.9,38.5z M136.3,52.8c0.9,0.7,1.8,1,2.7,1s1.8-0.4,2.7-1c0.9-0.7,1.4-1.7,1.4-3.1c0-1.3-0.4-2.4-1.3-2.9 c-1-0.6-1.8-1-2.9-1c-0.9,0-1.8,0.4-2.7,1c-0.9,0.7-1.3,1.7-1.3,2.9C134.9,51.2,135.4,52.2,136.3,52.8z"></path> <path class="st0" d="M170.3,38.8c0.8,0,1.4,0.1,1.9,0.3c0.5,0.1,0.9,0.4,1,0.9c0.3,0.4,0.4,0.8,0.4,1s0,0.8,0,1.4v17.1 c0,3.1-1.2,5.7-3.4,7.6s-4.6,2.9-7.4,2.9c-2.1,0-4.1-0.5-6-1.5s-2.9-1.9-2.9-2.7c0-1,0.4-1.9,1.2-2.7l0.1-0.1 c0.5-0.5,0.9-1,1.2-1.2c0.3-0.3,0.7-0.4,1-0.4s0.8,0.1,1.2,0.5s1,0.7,1.7,1c0.7,0.4,1.5,0.5,2.6,0.5c1,0,1.9-0.4,2.6-1.3 c0.7-0.8,1-1.8,1-2.9V58l-0.1,0.1c0,0-0.1,0.1-0.1,0.3c-0.1,0.1-0.1,0.1-0.3,0.3c-0.1,0.1-0.3,0.3-0.4,0.4 c-0.1,0.1-0.3,0.3-0.5,0.4c-0.1,0.1-0.4,0.3-0.7,0.3c-0.3,0.1-0.5,0.1-0.8,0.3c-0.3,0.1-0.7,0.1-0.9,0.1c-0.4,0-0.7,0-1,0 c-2.4,0-4.6-1-6.6-3.1c-1.9-2.1-2.9-4.6-2.9-7.5c0-2.7,1-5.1,2.9-7.2c2.1-2.1,4.3-3.2,6.6-3.2c0.9,0,1.8,0.1,2.6,0.5 s1.3,0.7,1.5,0.9c0.3,0.3,0.5,0.5,0.7,0.8c0.1-0.8,0.4-1.3,0.9-1.8C168.1,39.2,169,38.8,170.3,38.8z M163.1,53c1,0,1.8-0.4,2.4-1 c0.7-0.8,1-1.5,1-2.4s-0.3-1.7-0.9-2.4c-0.7-0.8-1.5-1.2-2.6-1.2s-1.9,0.4-2.6,1.2s-1,1.5-1,2.4s0.4,1.7,1,2.4 C161.2,52.7,162,53,163.1,53z"></path> </g> <linearGradient id="SVGID_1_" gradientUnits="userSpaceOnUse" x1="3.8986" y1="-632.9" x2="67.1986" y2="-632.9" gradientTransform="matrix(1 0 0 -1 0 -599.5)"> <stop offset="0" style="stop-color:#5DE5B4"></stop> <stop offset="1" style="stop-color:#23B3F3"></stop> </linearGradient> <path class="st1" d="M63.5,60.7c-2.9,0-5.4-0.5-7.9-1.2c-0.7-0.1-1.2-0.3-1.8-0.3c-0.4,0-0.5-0.1-0.5-0.5c0-0.1,0-0.3,0-0.3 c0-0.9-0.3-1.2,0.9-1.2c0.3,0,0.5-0.1,0.8-0.3c2.4-0.9,4.6-1.7,7.2-1.9c0.9-0.1,1.8-0.1,2.7,0.1c1.4,0.3,2.2,1.2,2.2,2.4 c0,1.3-0.7,2.4-1.9,2.7C64.7,60.5,64.2,60.7,63.5,60.7z M58.1,58c1.9,0.5,3.9,0.9,6,0.7c0.9-0.1,1.3-0.4,1.3-0.9S65,57,64.1,56.9 C62,56.8,60.1,57.5,58.1,58z M50.1,59.2c0,1.3,0.1,1.4,1.4,1.2c0.1,0,0.4-0.3,0.4-0.4c0-1,0-1.9-0.1-2.9c0-0.1-0.1-0.4-0.3-0.4 c-1.2-0.3-1.5,0.1-1.5,1.2c0,0.3,0,0.5,0,0.7C50.1,58.7,50.1,59,50.1,59.2z M46.8,57.8c-2.4,0.1-5.1,0.5-7.9,0.8l0,0 c-2.6,0.4-4.9,0.7-6.7,0.7c-0.1,0-0.3,0-0.4,0c-0.8,0-1.3-0.1-1.8-0.1c-0.5-0.1-0.9-0.4-1.2-0.8l0,0c-0.1-0.1-0.1-0.3-0.1-0.4 c-0.3-0.9,1.2-2.1,1.2-2.1s2.4-2.2,3.5-3.2C40.2,46,43.8,40,45.7,35.7c0.7-1.4,1.2-2.9,1.4-4.3c0.1-0.4,0.1-0.7,0.1-0.8 c0.1-1,0.3-1.9,0.4-2.9c0.1-0.9,0.3-1.9,0.3-2.9c0-8.9-5.6-16.2-14.5-18.7c-2.4-0.7-4.9-1-7.5-1c-2.4,0-4.6,0.3-6.6,0.8 c-4.7,1.1-8.5,3.4-11.2,6.7C5.2,16,3.8,20.1,3.8,24.7c0,1.5,0.1,3.1,0.5,4.6c0,0.4,0.1,0.8,0.1,1.2c0.1,0.1,0.2,0.4,0.2,0.8 C5,32.7,5.4,34.2,6,35.5C8.4,41,13.4,49.2,24.4,58c0.1,0.1,0.3,0.1,0.4,0.3c-0.1-0.1-0.3-0.3-0.4-0.4c-0.7-0.8-1.8-4.6-1.8-7.5 c0.1-4,2.9-7,4.3-9.7c1.2-2.4,1.7-2.9,2.1-7.2c0.1-0.8,0.1-1.5,0.3-2.6c0-0.3,0-0.4,0-0.5c0.1-1.2,0.3-1.4,0.8-2.7 c0.7-1.3,1.5-2.2,2.4-2.9c0.8-0.7,1.4-0.9,1.8-1c0.8-0.1,2.9-0.7,3.4-0.9c0.7-0.3,1.9-3.8,1.9-4.4s-1-0.8-1-0.8s-5.4,0.5-7.1-0.8 c-2.2-2.4-5.1-1.8-5.1-1.8s-0.3-1.5-0.3-2.1c-0.3-1-0.5-2.1-0.9-2.9c-0.5,0.5-1,1.4-1.5,2.4c-0.3,0.7-0.5,1.3-0.7,1.9 c-0.3,0.7-0.4,1.5-0.4,2.4l0,0l0,0c0,0.3,0,0.7,0,0.8c0.1,1.3,0.8,1.9,0.8,2.1c0,0-0.9-0.4-1.3-1.3v-0.2C22,18,22,17.5,22,17.4l0,0 v0.5c-0.8,0.9-2.2,2.6-2.4,3.5c-0.1,0.7-0.4,1.4-0.5,2.1c-0.5,1.4-1.2,2.9-1.9,4.3c-0.3,0.4-0.4,0.7-0.7,1l0,0 c-0.1,0.3-0.4,0.4-0.5,0.7c-0.1,0.1-0.3,0.3-0.4,0.4l0,0c-2.6,2.7-6.1,2.6-8.7-0.1c0-0.1,0-0.4-0.1-0.5v-0.1 c-0.5-1.3-0.7-2.7-0.7-4.1c0-8.5,5.4-15.1,14.2-17.4c0.9-0.3,1.9-0.4,2.9-0.5C24.3,7,25.3,7,26.4,7c2.4,0,4.8,0.3,7,0.9 c8.2,2.4,13.3,8.9,13.3,17.1c0,0.9,0,1.8-0.1,2.7v0.1c0,0.9-0.1,1.9-0.4,2.9l0,0c0,0,0,0.3-0.1,0.7c-0.3,1.3-0.8,2.7-1.3,4l0,0 c-2.1,4.8-6.3,12.1-15.4,19.8l0,0l0,0c-1.3,1.2-2.1,2.4-1.7,3.7c0,0.3,0.1,0.4,0.3,0.7c0.8,1.3,2.7,2.1,5.1,2.1l0,0 c0.1,0,0.3,0,0.4,0c1.9,0,4.1-0.4,6.6-0.7c2.6-0.4,5.1-0.7,7.6-0.8c0.5,0,0.9-0.4,0.9-0.9C47.8,58.2,47.3,57.8,46.8,57.8z"></path> </g> </svg>