<svg xmlns="http://www.w3.org/2000/svg" xmlns:xlink="http://www.w3.org/1999/xlink" version="1.1" id="Calque_1" x="0px" y="0px" viewBox="0 0 73.3 75" style="enable-background:new 0 0 73.3 75;" xml:space="preserve"> <style type="text/css"> .st0{fill:#FFFFFF;} .st1{fill:#FF565F;} </style> <g> <circle class="st0" cx="37.2" cy="37.5" r="32.9"></circle> <g> <path class="st1" d="M4.4,21.2c0.9-0.5,1.7-0.9,2.6-1.4c0.3-0.1,0.4-0.3,0.4-0.6c0-0.8,0-1.6,0-2.5c0-0.3,0.1-0.5,0.4-0.5 c0.8-0.3,1.5-0.5,2.4-0.7c0.3-0.1,0.4-0.2,0.5-0.5c0.1-0.9,0.3-1.7,0.5-2.6c0-0.1,0.2-0.3,0.3-0.4c0.9-0.2,1.7-0.4,2.6-0.5 c0.3,0,0.5-0.2,0.5-0.5c0.3-0.8,0.5-1.5,0.7-2.4c0.1-0.4,0.3-0.5,0.6-0.5c0.7,0,1.5,0,2.3,0c0.4,0,0.5-0.1,0.7-0.5 C19.3,7,19.6,6.2,20,5.5c0.1-0.3,0.3-0.4,0.5-0.3c0.8,0.2,1.7,0.3,2.5,0.4c0.2,0,0.5-0.1,0.5-0.3c0.5-0.6,1-1.4,1.5-2.1 c0.2,0.1,0.3,0,0.5,0.1c0.8,0.3,1.6,0.5,2.5,0.8c0.3,0.1,0.5,0.1,0.7-0.2c0.5-0.5,1.2-1.1,1.7-1.7c0.3-0.3,0.5-0.3,0.8-0.1 c0.7,0.4,1.5,0.7,2.2,1.1c0.3,0.2,0.5,0.1,0.8-0.1c0.7-0.5,1.5-1.1,2.4-1.7c0.8,0.5,1.5,1.1,2.4,1.6c0.3,0.2,0.5,0.2,0.8,0.1 c0.7-0.4,1.5-0.7,2.2-1.2c0.3-0.2,0.4-0.1,0.5,0.1c0.6,0.6,1.2,1.3,1.8,1.8c0.1,0.1,0.5,0.2,0.5,0.2c0.8-0.3,1.6-0.5,2.5-0.8 C47.6,3,47.8,3,47.9,3.3c0.5,0.7,1,1.4,1.5,2.1c0.2,0.2,0.3,0.3,0.5,0.3c1-0.2,1.9-0.3,2.9-0.5c0.5,0.8,0.9,1.6,1.3,2.5 c0.3,0.4,0.4,0.5,0.8,0.5c0.8,0,1.6,0,2.4,0c0.4,0,0.5,0.1,0.5,0.5c0.3,0.8,0.5,1.5,0.7,2.4c0.1,0.3,0.2,0.4,0.5,0.5 c0.9,0.1,1.7,0.3,2.5,0.5c0.3,0,0.4,0.2,0.5,0.5c0.1,0.8,0.3,1.6,0.4,2.5c0,0.3,0.2,0.5,0.5,0.6c0.7,0.2,1.5,0.5,2.3,0.7 c0.4,0.1,0.5,0.3,0.5,0.7c0,0.8,0,1.5,0,2.4c0,0.4,0.1,0.5,0.4,0.6c0.8,0.5,1.7,0.8,2.5,1.3c-0.2,1-0.3,2-0.5,2.9 c-0.1,0.3,0,0.5,0.3,0.5c0.6,0.5,1.3,1,2,1.5c0.4,0.3,0.4,0.5,0.3,0.8c-0.3,0.7-0.5,1.5-0.7,2.3c-0.1,0.4,0,0.5,0.2,0.7 c0.6,0.5,1.2,1.2,1.7,1.7c0.2,0.2,0.2,0.4,0.1,0.6c-0.4,0.7-0.7,1.5-1.2,2.3c-0.1,0.3-0.1,0.5,0.1,0.6c0.5,0.6,1,1.4,1.5,2.1 c0.2,0.3,0.2,0.5,0,0.6c-0.5,0.6-1,1.4-1.5,2c-0.2,0.3-0.2,0.5-0.1,0.7c0.4,0.7,0.7,1.5,1.2,2.2c0.2,0.3,0.1,0.5-0.1,0.7 c-0.6,0.5-1.2,1.2-1.7,1.7c-0.2,0.2-0.3,0.4-0.2,0.6c0.3,0.8,0.5,1.6,0.8,2.4c0.1,0.3,0.1,0.5-0.2,0.6c-0.7,0.5-1.4,1-2.1,1.5 c-0.3,0.2-0.4,0.4-0.3,0.7c0.2,0.8,0.3,1.6,0.4,2.5c0,0.2-0.1,0.4-0.3,0.5c-0.7,0.4-1.5,0.8-2.2,1.2c-0.3,0.2-0.5,0.3-0.5,0.6 c0,0.8-0.1,1.7-0.1,2.5c0,0.3-0.1,0.4-0.4,0.5c-0.8,0.3-1.6,0.5-2.5,0.8c-0.3,0.1-0.5,0.3-0.5,0.5c-0.1,0.8-0.3,1.6-0.4,2.5 c0,0.3-0.2,0.5-0.5,0.5c-0.8,0.1-1.6,0.3-2.5,0.4c-0.3,0-0.5,0.2-0.5,0.5c-0.3,0.8-0.5,1.5-0.7,2.4c-0.1,0.4-0.3,0.5-0.6,0.5 c-0.8,0-1.5,0-2.4,0c-0.4,0-0.5,0.1-0.6,0.4c-0.4,0.7-0.7,1.5-1.2,2.3c-0.1,0.3-0.3,0.3-0.5,0.3c-0.9-0.2-1.7-0.3-2.6-0.4 c-0.3-0.1-0.5,0-0.5,0.3c-0.5,0.7-1,1.4-1.5,2.1c-0.2,0.3-0.4,0.4-0.6,0.2c-0.8-0.3-1.5-0.5-2.4-0.8c-0.4-0.1-0.5,0-0.7,0.2 c-0.5,0.5-1.2,1.1-1.7,1.7c0-0.1-0.2-0.1-0.5-0.3c-0.7-0.4-1.5-0.7-2.2-1.1c-0.3-0.2-0.5-0.1-0.7,0.1c-0.6,0.5-1.4,0.9-2,1.5 c-0.3,0.2-0.5,0.2-0.7,0c-0.6-0.5-1.4-0.9-2-1.5c-0.3-0.2-0.5-0.2-0.7-0.1c-0.7,0.4-1.5,0.7-2.3,1.2c-0.3,0.1-0.5,0.1-0.6-0.1 c-0.5-0.6-1.2-1.2-1.7-1.7c-0.3-0.3-0.5-0.3-0.7-0.2c-0.7,0.3-1.5,0.5-2.3,0.8c-0.4,0.1-0.5,0-0.7-0.3c-0.5-0.6-1-1.3-1.5-2 c-0.2-0.3-0.5-0.4-0.7-0.3c-0.8,0.2-1.6,0.3-2.5,0.4c-0.2,0-0.4-0.2-0.5-0.3c-0.4-0.7-0.8-1.5-1.2-2.2c-0.2-0.3-0.3-0.4-0.6-0.4 c-0.8,0-1.7,0-2.5-0.1c-0.3,0-0.4-0.1-0.5-0.4c-0.3-0.8-0.5-1.5-0.7-2.4c-0.1-0.3-0.3-0.5-0.6-0.5c-0.8-0.1-1.6-0.3-2.5-0.4 c-0.3,0-0.4-0.2-0.5-0.5c-0.1-0.8-0.3-1.7-0.5-2.5c0-0.3-0.2-0.4-0.4-0.5c-0.7,0-1.4-0.3-2.3-0.5c-0.4-0.1-0.5-0.3-0.4-0.7 c0-0.7,0-1.5,0-2.3c0-0.4-0.1-0.5-0.5-0.7c-0.7-0.4-1.5-0.7-2.2-1.1c-0.3-0.1-0.4-0.3-0.3-0.5C4.4,53,4.5,52,4.6,51.2 c0-0.2-0.1-0.5-0.3-0.5c-0.6-0.5-1.4-1-2.1-1.5C2,49,1.9,49,2,48.8c0.3-0.7,0.5-1.5,0.7-2.3c0.2-0.4,0.1-0.6-0.3-0.9 c-0.5-0.5-1.1-1.2-1.7-1.7c-0.2-0.2-0.2-0.4-0.1-0.5C1,42.6,1.4,41.8,1.8,41c0.1-0.3,0.1-0.5-0.1-0.6c-0.5-0.6-0.9-1.4-1.5-2 c-0.3-0.3-0.2-0.5,0-0.8c0.5-0.6,0.9-1.4,1.5-2c0.2-0.2,0.2-0.5,0.1-0.6c-0.2-1.1-0.6-1.8-1.1-2.5c-0.2-0.3-0.1-0.5,0.1-0.7 c0.5-0.5,1.2-1.2,1.7-1.7c0.2-0.2,0.3-0.4,0.2-0.7c-0.3-0.8-0.5-1.6-0.8-2.4c-0.1-0.3-0.1-0.5,0.2-0.6c0.7-0.5,1.4-1,2.1-1.5 c0.2-0.2,0.4-0.3,0.3-0.5C4.6,23.2,4.5,22.2,4.4,21.2z M4.6,37.7c-0.1,17.2,13.8,32,32,32.1c17.7,0,32-14.3,32-32 c0-18.2-14.7-31.9-31.8-32C19.1,5.6,4.6,20,4.6,37.7z"></path> <path class="st1" d="M67.9,37.8c0,17.3-14.1,31.3-31.4,31.3c-17,0-31.4-14-31.3-31.7c0.3-17,14.2-31.2,31.9-31 C54.3,6.7,68,20.6,67.9,37.8z M14.3,37.7c-0.1,12,9.6,22.4,22.3,22.4c12.5,0.1,22.5-10,22.5-22.4C59.1,25,48.7,15.4,37,15.3 C24.5,15.1,14.2,25.4,14.3,37.7z M11,45.5c0.8-0.5,1.5-0.8,2.2-1.2c0.5-0.3,0.5-0.5,0.3-1c-0.1-0.4-0.3-0.4-0.6-0.3 c-1.4,0.5-2.8,0.8-4.2,1.3c-0.3,0.1-0.5,0.2-0.4,0.5s0.2,0.5,0.5,0.5c0.4-0.1,0.7-0.2,1.1-0.3c-0.3,0.3-0.6,0.5-1,0.5 c-0.3,0.1-0.4,0.3-0.3,0.5c0.1,0.3,0.2,0.5,0.5,0.5c0.4-0.1,0.7-0.1,1-0.1c-0.4,0.2-0.7,0.3-1,0.4c-0.3,0.1-0.4,0.3-0.2,0.5 C9,47.6,9,47.9,9.4,47.9c1.5-0.5,3-0.9,4.5-1.3c0.3-0.1,0.4-0.2,0.3-0.5c-0.1-0.2-0.1-0.3-0.1-0.5c-0.1-0.3-0.2-0.4-0.5-0.3 C12.8,45.3,12,45.5,11,45.5z M13.7,22.8L13.7,22.8c-0.6-0.1-1.2-0.2-1.7-0.4c-0.5-0.2-0.5,0.4-0.8,0.6c-0.2,0.3,0.1,0.4,0.3,0.5 c1.3,0.7,2.5,1.5,3.7,2.3c0.4,0.3,0.5,0,0.6-0.2c0.2-0.3,0.2-0.5-0.1-0.6c-0.6-0.4-1.2-0.7-1.7-1.1c0.7,0.1,1.5,0.3,2.2,0.5 c0.5,0.1,0.5-0.3,0.6-0.5c0-0.1-0.1-0.4-0.3-0.5c-1.3-0.8-2.5-1.5-3.8-2.4c-0.4-0.3-0.5,0-0.6,0.3c-0.2,0.3-0.2,0.5,0.1,0.5 C12.8,22,13.3,22.4,13.7,22.8z M18.6,57.8C18.7,57.8,18.7,57.8,18.6,57.8c-0.3,0.7-0.5,1.4-0.8,2.1c-0.2,0.5,0.2,0.5,0.5,0.7 c0.1,0.1,0.4,0,0.5-0.2c1-1.1,1.9-2.2,2.9-3.3c0.3-0.3,0.3-0.5,0-0.7c-0.3-0.3-0.5-0.2-0.7,0.1c-0.3,0.4-0.6,0.7-1,1.1 c0.2-0.5,0.5-1.1,0.6-1.6c0.1-0.2,0.1-0.4,0-0.5c-0.2-0.2-0.4-0.4-0.6-0.5c-0.1,0.2-0.2,0.3-0.3,0.4c-1,1.1-1.9,2.2-2.9,3.3 c-0.3,0.3-0.2,0.4,0,0.6c0.3,0.2,0.5,0.4,0.7,0C17.8,58.8,18.3,58.2,18.6,57.8z M65.1,43.5c-0.4-0.1-0.7-0.2-1.2-0.2 c-0.5,0-0.8,0-1.3-0.1c-0.1,0-0.2,0-0.3-0.1c-0.5-0.2-0.8-0.4-1.3-0.5c-0.6-0.2-1.2,0.1-1.5,0.8c-0.1,0.4-0.2,0.8-0.3,1.2 c0,0.1,0.1,0.3,0.2,0.4c1.5,0.4,3,0.7,4.5,1.1c0.4,0.1,0.4-0.1,0.5-0.4c0-0.3,0.2-0.5-0.2-0.6c-0.5-0.1-0.8-0.2-1.2-0.3 c-0.2-0.1-0.4-0.2-0.4-0.3c0-0.3,0.3-0.4,0.5-0.3c0.3,0.1,0.5,0.1,0.7,0.2C64.9,44.7,65.2,44.5,65.1,43.5z M41.5,13.9 c0-0.4,0-0.6,0-0.9c0.1-0.5,0.2-1.1,0-1.6c0-0.1,0-0.2,0.1-0.3c0.4-0.5,0.4-1,0.5-1.5c0-0.6-0.3-1-0.9-1.2c-0.4-0.1-0.7-0.1-1-0.2 c-0.4-0.1-0.5,0.1-0.5,0.4c-0.2,1.5-0.5,2.8-0.6,4.3c-0.1,0.3-0.1,0.5,0.4,0.6s0.6,0,0.6-0.5s0.2-1,0.2-1.5 c0.5,0.1,0.6,0.3,0.5,0.7c-0.1,0.3-0.1,0.6-0.2,0.9c0,0.4,0.1,0.5,0.5,0.5C41.2,13.9,41.4,13.9,41.5,13.9z M13.4,54.5 c0.2-0.1,0.5-0.1,0.6-0.3c0.7-0.5,1.5-0.9,2.2-1.5c0.7-0.5,0.9-1.2,0.5-1.9c-0.5-0.6-1.2-0.8-1.9-0.4c-0.7,0.5-1.5,0.9-2.1,1.4 c-0.2,0.1-0.3,0.3-0.5,0.4c-0.4,0.4-0.4,0.8-0.2,1.3C12.4,54,12.6,54.5,13.4,54.5z M13.6,31.1c0-0.6-0.4-1.1-1-1.2 c-1.2-0.3-2.4-0.5-3.5-0.9c-0.4-0.1-0.5,0.1-0.5,0.4c-0.1,0.3-0.1,0.5,0.3,0.5c0.5,0.1,1,0.3,1.5,0.4c0.6,0.2,1.3,0.3,1.9,0.5 c0.2,0,0.3,0.3,0.4,0.5c-0.2,0.1-0.4,0.2-0.5,0.2s-0.1,0-0.2-0.1c-1.1-0.3-2.2-0.5-3.3-0.8c-0.4-0.1-0.5,0.1-0.5,0.4 c-0.1,0.3-0.2,0.5,0.2,0.5c1.3,0.3,2.5,0.6,3.7,0.9C13,32.8,13.6,32,13.6,31.1z M62.5,29.8c1.1-0.5,1.1-0.5,1.5,0.6 c0,0.1,0,0.2,0.1,0.2c0.1,0.1,0.1,0.2,0.2,0.2c0.5,0.1,0.7-0.3,0.6-0.7c0-0.1,0-0.2,0-0.3c0.4,0.2,0.6,0.3,1,0.5 c0-0.8-0.1-1-0.8-1.3c-0.2-0.1-0.4-0.4-0.6-0.5c-0.1-0.1-0.3-0.2-0.5-0.2c-1.5,0.4-2.9,0.8-4.5,1.2c-0.3,0.1-0.3,0.2-0.3,0.5 c0.2,0.5,0.4,1.1,0.5,1.6c0.1,0.4,0.3,0.4,0.5,0.3c0.3-0.1,0.5-0.2,0.4-0.5c-0.1-0.4-0.2-0.6-0.3-1c0.5-0.1,0.8-0.2,1.2-0.4 c0.1,0.3,0.2,0.5,0.3,0.8c0,0.1,0.1,0.2,0.2,0.3c0.5,0.1,0.7-0.3,0.6-0.7C62.6,30.1,62.5,30,62.5,29.8z M48.9,12.8 c0.2,0.1,0.4,0.3,0.5,0.3s0.3,0,0.4-0.1c0.5-0.6,0.3-1.5-0.4-1.8c-0.7-0.5-1.4-0.3-1.8,0.4c-0.3,0.5-0.5,0.9-0.3,1.5 c0.1,0.3,0.3,0.6,0.4,0.9c0.1,0.3,0.1,0.6,0,0.9c0,0.1-0.3,0.2-0.4,0.2c-0.1,0-0.2-0.3-0.2-0.4c0-0.1,0.1-0.3,0.1-0.4 c0-0.1-0.1-0.4-0.2-0.4c-0.2-0.1-0.5-0.2-0.6-0.1c-0.5,0.5-0.5,1.5,0.2,2c0.4,0.3,0.8,0.5,1.4,0.2c0.5-0.3,0.9-0.7,0.9-1.4 c0-0.5-0.2-1-0.4-1.5c-0.1-0.4-0.3-0.7,0-1.1c0.1-0.1,0.3-0.2,0.4-0.2c0.1,0,0.2,0.3,0.2,0.4C49.1,12.4,49,12.6,48.9,12.8z M25,13.8C25,13.8,24.9,13.8,25,13.8c-0.5-0.5-1-1.2-1.5-1.8c-0.4-0.5-0.5-0.5-1-0.2c-0.1,0.1-0.1,0.3-0.1,0.4 c0.9,1.3,1.9,2.5,2.9,3.8c0.1,0.1,0.3,0.1,0.5,0.1s0.4-0.1,0.5-0.3c0.1-0.1,0.3-0.3,0.2-0.5c-0.5-1.5-0.9-3.1-1.4-4.5 c0-0.1-0.2-0.2-0.2-0.2c-0.4,0-0.7,0.4-0.6,0.7C24.5,12.1,24.7,12.9,25,13.8z M31.8,64.8c0.7,0,1.1-0.3,1.4-0.9 c0.1-0.4,0.2-0.7,0.3-1.1c0.1-0.6-0.3-1.2-0.9-1.4c-0.4-0.1-0.6-0.1-1-0.2s-0.5,0-0.5,0.4c-0.3,1.5-0.5,2.9-0.8,4.4 c-0.1,0.4,0.1,0.5,0.4,0.5s0.5,0.1,0.6-0.3s0.2-0.6,0.2-1C31.3,64.8,31.4,64.7,31.8,64.8z M38.4,62.8c0.4,0,0.7-0.1,1.2-0.1 c0.4-0.1,0.3-0.4,0.3-0.6c0-0.3-0.1-0.4-0.5-0.4c-0.5,0.1-1,0.1-1.5,0.1c-0.6,0.1-0.6,0.1-0.6,0.7c0.1,1.4,0.3,2.8,0.4,4.2 c0,0.4,0.2,0.5,0.5,0.5c0.5,0,1-0.1,1.5-0.1c0.4,0,0.5-0.1,0.5-0.5c-0.1-0.5-0.3-0.5-0.6-0.4c-0.2,0-0.5,0-0.6,0s-0.2-0.1-0.2-0.2 c-0.3-0.7-0.1-1,0.6-1.1l0,0c0.4,0,0.4-0.3,0.4-0.5c0-0.3-0.2-0.5-0.5-0.5S38.8,64,38.6,64C38.5,63.5,38.5,63,38.4,62.8z M32.5,12.8c-0.1-0.5-0.1-0.8-0.2-1.2c0.3-0.1,0.5-0.1,0.8-0.2c0.1,0,0.3-0.1,0.3-0.2c0.1-0.5-0.1-0.7-0.6-0.7c-0.1,0-0.2,0-0.3,0 c-0.3,0.1-0.4,0-0.4-0.3c0-0.1-0.1-0.3-0.1-0.4c-0.1-0.3,0-0.5,0.4-0.5c0.2,0,0.5-0.1,0.6-0.1c0.3-0.1,0.4-0.2,0.3-0.5 s0-0.5-0.5-0.5c-0.5,0.1-1.1,0.2-1.6,0.3c-0.4,0-0.5,0.3-0.4,0.5c0.3,1.5,0.5,2.8,0.6,4.3c0.1,0.5,0.3,0.5,0.6,0.5 c0.5-0.1,1-0.2,1.5-0.3c0.4,0,0.4-0.3,0.3-0.5c0-0.3-0.1-0.5-0.5-0.5C33.4,12.6,33,12.8,32.5,12.8z M57.9,48.5 c-0.3,0.5-0.6,1.1-0.9,1.6c-0.2,0.3-0.1,0.5,0.2,0.6c1.3,0.7,2.6,1.5,3.9,2.2c0.3,0.2,0.4,0.1,0.5-0.1c0.3-0.5,0.5-1,0.8-1.5 c0.2-0.4,0-0.5-0.3-0.5s-0.5-0.3-0.6,0.1c-0.2,0.3-0.4,0.6-0.5,0.9c-0.4-0.2-0.7-0.5-1.1-0.6c0.2-0.4,0.5-0.6,0.5-0.9 c0-0.2-0.4-0.4-0.6-0.6c-0.3,0.5-0.5,0.7-0.6,1.1c-0.4-0.2-0.6-0.4-1-0.5c0.1-0.3,0.2-0.5,0.4-0.6c0.4-0.7,0.4-0.7-0.4-1 C58.1,48.5,58.1,48.5,57.9,48.5z M26.3,60.5c0.2,0.1,0.4,0.2,0.5,0.3c0.4,0.2,0.4-0.2,0.5-0.4s0.1-0.4-0.1-0.5 c-0.6-0.3-1.3-0.6-1.9-0.9c-0.3-0.1-0.5-0.1-0.5,0.2c-0.1,0.3-0.4,0.5,0.1,0.6c0.5,0.2,0.4,0.4,0.2,0.7c-0.5,1-1,2-1.5,3.1 c-0.1,0.1-0.1,0.4,0,0.5c0.5,0.4,0.7,0.4,0.9-0.2C25.2,62.8,25.7,61.7,26.3,60.5z M59.9,21.5c-0.2,0.1-0.4,0.3-0.5,0.4 c-0.9,0.6-1.8,1.2-2.8,1.8c-0.4,0.3-0.3,0.5-0.1,0.7c0.2,0.3,0.4,0.4,0.6,0.2c0.4-0.3,0.8-0.5,1.2-0.7c0.7-0.5,1.4-0.9,2.1-1.4 c0.1,0.2,0.2,0.3,0.3,0.5c0.2,0.3,0.4,0.3,0.5,0.1c0.2-0.2,0.5-0.3,0.3-0.5c-0.4-0.5-0.7-1.2-1.1-1.7c-0.2-0.2-0.3-0.3-0.5-0.1 c-0.5,0.3-0.5,0.3-0.2,0.8C59.8,21.2,59.9,21.4,59.9,21.5z M45.9,64.7c-0.1-0.2-0.1-0.3-0.2-0.4c-0.4-1.1-0.8-2.2-1.2-3.4 c-0.1-0.4-0.4-0.3-0.6-0.2c-0.3,0.1-0.5,0.1-0.4,0.5c0.5,1.5,1,2.9,1.5,4.4c0,0.1,0.3,0.3,0.4,0.2c0.5-0.2,1.1-0.4,1.6-0.5 c0.4-0.1,0.3-0.4,0.2-0.6c-0.1-0.3-0.3-0.4-0.5-0.3C46.5,64.3,46.2,64.4,45.9,64.7z M52.3,61.3c-0.1-0.2-0.3-0.4-0.4-0.5 c-0.6-0.9-1.3-1.9-1.9-2.8c-0.2-0.3-0.4-0.3-0.5-0.1c-0.2,0.2-0.5,0.2-0.3,0.5c0.9,1.3,1.7,2.6,2.6,3.9c0.1,0.1,0.3,0.2,0.4,0.1 c0.5-0.4,1-0.6,1.5-1c0.3-0.2,0-0.4-0.1-0.5s-0.2-0.4-0.5-0.2C52.9,61,52.6,61.2,52.3,61.3z M54.4,53.8c-0.7,0.5-0.8,0.6-0.2,1.2 c1,0.9,2,1.8,3,2.8c0.3,0.3,0.5,0.2,0.6-0.1c0.2-0.2,0.5-0.4,0.1-0.7c-0.8-0.7-1.5-1.5-2.4-2.2C55.3,54.5,54.9,54.2,54.4,53.8z M56.3,15.8c-0.2-0.2-0.4-0.4-0.5-0.5c-0.1,0-0.3,0.1-0.4,0.2c-1,1.1-2,2.2-3,3.3c-0.3,0.3-0.2,0.5,0.1,0.7s0.4,0.3,0.6,0 c1-1.1,2-2.3,3-3.4C56.1,15.9,56.2,15.9,56.3,15.8z M20.2,20c0.3-0.3,0.5-0.5,0.6-0.6c-0.1-0.1-0.1-0.2-0.2-0.3 c-1-1.1-2.1-2.2-3.1-3.4c-0.3-0.3-0.4-0.3-0.6,0c-0.2,0.2-0.5,0.4-0.1,0.7c0.9,0.9,1.8,1.9,2.7,2.9C19.7,19.5,19.9,19.8,20.2,20z M9.8,38.5c0.5,0,0.7-0.4,0.7-0.8c0-0.5-0.4-0.7-0.8-0.7c-0.5,0-0.8,0.4-0.7,0.8C9.1,38,9.5,38.5,9.8,38.5z M63.4,38.5 c0.5,0,0.8-0.4,0.7-0.8c0-0.5-0.4-0.7-0.7-0.7c-0.5,0-0.7,0.4-0.7,0.8C62.7,38,63.1,38.5,63.4,38.5z"></path> <path class="st1" d="M58.3,37.8c0.1,11.9-9.8,21.7-21.7,21.7C25,59.5,14.8,50,15,37.3c0.2-11.7,9.8-21.6,22.2-21.4 C48.9,16.1,58.4,26,58.3,37.8z M30.7,31.9c0.8,2.2,1.5,4.3,2.5,6.4c0.1-0.2,0.2-0.2,0.2-0.2c0.8-2.2,1.6-4.3,2.5-6.5 c0.1-0.2,0.1-0.4,0-0.5c-0.9-2.4-1.8-4.7-2.7-7.1c-0.5-1.1-1.4-1.7-2.4-1.7c-1.1,0-2,0.6-2.5,1.7c-0.2,0.5-0.5,1.1-0.6,1.7 c-2.3,6-4.5,12-6.8,18c-0.7,2-0.6,4.1,0.6,5.9c1.6,2.5,4.8,3.7,8,3.1c3.5-0.7,6-2.9,7.3-6.3c1.8-4.6,3.5-9.4,5.4-14.1 c0-0.1,0.1-0.2,0.2-0.4c0.7,1.8,1.4,3.5,2,5.3c1.5,4.1,3.1,8.3,4.6,12.4c0.5,1.4,1.9,2,3.3,1.5c1.4-0.5,2-1.9,1.5-3.4 c-2.9-8-5.9-15.9-8.9-23.7c-0.5-1.2-1.4-1.8-2.5-1.8s-2,0.6-2.5,1.8c-2.5,6.7-5.1,13.5-7.5,20.1c-0.4,0.8-0.7,1.6-1.4,2.3 c-1.2,1.2-2.7,1.5-4.2,1c-0.9-0.4-1.3-0.9-1.1-1.8c0-0.3,0.2-0.5,0.3-0.7c1.2-3.1,2.4-6.1,3.5-9.2C29.7,34.3,30.2,33,30.7,31.9z M36.4,30.1c0.1,0,0.2,0,0.3,0c0.1-0.5,0.3-0.9,0.3-1.5c0-2.4-0.1-4.7-0.1-7.1c0-1.5,0-2.8,0-4.3c0-0.2,0-0.4-0.1-0.5 c0-0.1-0.2-0.2-0.3-0.2c-0.1,0.1-0.2,0.2-0.2,0.3c0,0.4-0.1,0.7-0.1,1c0.1,2.4,0,4.7,0,7.1c0,1.3-0.1,2.5-0.1,3.7 C36.1,29.2,36.3,29.8,36.4,30.1z M49.4,33.5c0.2-0.1,0.3-0.1,0.4-0.1c1.4-0.5,2.6-1,4-1.5c0.8-0.3,1.5-0.5,2.4-0.9 c0.2-0.1,0.3-0.3,0.4-0.4c-0.2,0-0.4-0.1-0.5-0.1c-1.6,0.5-3.2,1.1-4.8,1.6c-0.5,0.2-1.2,0.4-1.7,0.6c-0.1,0-0.2,0.3-0.2,0.4 C49.1,33.2,49.3,33.3,49.4,33.5z M49.9,35c0.1,0.6,0.2,0.7,0.7,0.6c1.6-0.4,3.4-0.6,5-1c0.5-0.1,0.9-0.2,1.4-0.3 c0.1,0,0.2-0.2,0.4-0.3c-0.1-0.1-0.3-0.1-0.4-0.2h-0.1c-1.8,0.3-3.5,0.5-5.4,0.8C50.9,34.8,50.4,34.8,49.9,35z M17.1,30.4 c-0.1,0.1-0.2,0.1-0.2,0.2s0.1,0.3,0.1,0.3c0.3,0.1,0.5,0.2,0.8,0.4c1.8,0.7,3.7,1.5,5.5,2.2c0.2,0.1,0.5,0.2,0.5-0.2 c0.2-0.4,0-0.5-0.3-0.5c-2.1-0.7-4.2-1.5-6.3-2.2C17.3,30.5,17.2,30.5,17.1,30.4z M48.5,31.2c0.2-0.1,0.3-0.2,0.4-0.2 c1-0.5,1.9-1.2,2.9-1.7s1.9-1.2,2.9-1.7c0.1-0.1,0.1-0.2,0.2-0.4c-0.2,0-0.3-0.1-0.5-0.1c-0.1,0-0.2,0.1-0.3,0.2 c-1.8,1-3.6,2-5.5,3.1C48.1,30.6,48.1,30.8,48.5,31.2z M23.2,35c-0.5-0.1-0.9-0.2-1.3-0.2c-1.8-0.3-3.6-0.5-5.5-0.8 c-0.2,0-0.4,0.1-0.5,0.2c0.1,0.1,0.3,0.3,0.4,0.3c2,0.5,4.1,0.8,6.1,1.2C23,35.8,23,35.8,23.2,35z M24.6,31.1 c0.4-0.6,0.4-0.6-0.2-0.9c-1.8-1-3.6-2-5.5-3c-0.2-0.1-0.4,0-0.5,0c0.1,0.2,0.2,0.4,0.4,0.5c1.8,1.1,3.5,2.2,5.4,3.3 C24.3,31,24.5,31,24.6,31.1z M40.5,17.2c0-0.1-0.1-0.2-0.2-0.3c-0.1,0.1-0.2,0.2-0.3,0.3v0.1c-0.4,2.1-0.8,4.2-1.2,6.3 c0,0.2,0.1,0.4,0.2,0.5c0.1-0.1,0.3-0.2,0.4-0.4c0.5-0.8,0.5-1.7,0.6-2.6C40.1,20,40.3,18.8,40.5,17.2z M34.5,24 c0-0.2,0-0.3,0-0.3c-0.5-2.1-0.8-4.3-1.3-6.4c0-0.1-0.2-0.3-0.3-0.4c-0.1,0.2-0.2,0.3-0.2,0.5c0.2,1.5,0.5,3,0.7,4.5 c0.1,0.7,0.4,1.4,0.5,2.1c0,0.1,0.2,0.2,0.3,0.2C34.5,24.1,34.5,24,34.5,24z M50.7,37.3c0.1,0.7,0.2,0.7,0.8,0.7 c1.3,0,2.5,0,3.7-0.1c0.7,0,1.4,0,2.1-0.1c0.1,0,0.2-0.1,0.3-0.2c-0.1-0.1-0.2-0.2-0.3-0.3c-0.1,0-0.2,0-0.3,0 c-1.5,0-2.9-0.1-4.4-0.1C52.1,37.3,51.5,37.3,50.7,37.3z M47.6,29c0.2-0.1,0.3-0.2,0.4-0.3c0.5-0.5,1.2-1,1.7-1.5 c1-0.8,1.9-1.6,2.8-2.5c0.1-0.1,0.1-0.3,0.1-0.4c-0.1,0-0.3,0-0.4,0.1c-0.1,0-0.1,0.1-0.2,0.2c-1.5,1.2-3,2.4-4.5,3.5 C47.3,28.2,47.3,28.5,47.6,29z M22.3,37.5c-0.1,0-0.2-0.1-0.4-0.1c-2,0-3.9,0.1-5.9,0.1c-0.1,0-0.3,0.2-0.4,0.3 c0.2,0.1,0.3,0.2,0.5,0.2c1.8,0.1,3.6,0.1,5.5,0.2C22,38,22.2,38,22.3,37.5z M25.5,28.9c0.3-0.5,0.4-0.6-0.1-1 c-1.5-1.2-2.9-2.4-4.5-3.5c-0.1-0.1-0.4-0.1-0.5-0.1c0.1,0.2,0.1,0.4,0.2,0.5c1.1,1,2.2,2,3.4,2.9C24.5,28,25,28.4,25.5,28.9z M46.5,26.2c0.1-0.1,0.1-0.1,0.2-0.1c1.1-1.4,2.3-2.8,3.4-4.2c0.1-0.1,0-0.3,0-0.4c-0.2,0-0.4,0-0.4,0.1c-1.1,1.2-2.1,2.4-3.2,3.5 C46.3,25.6,46.3,25.9,46.5,26.2z M51.8,40c0,0.5,0.3,0.7,0.6,0.8c1.5,0.2,2.9,0.5,4.5,0.6c0.2,0,0.3-0.1,0.5-0.2 c-0.1-0.1-0.2-0.3-0.4-0.3c-1.2-0.3-2.5-0.5-3.6-0.7C52.8,40.2,52.4,40.2,51.8,40z M26.5,26.1c0.3-0.4,0.3-0.6,0-1 c-1-1.1-1.9-2.2-2.9-3.4c-0.1-0.1-0.4-0.3-0.5-0.2c-0.3,0.2,0,0.4,0.1,0.5c1,1.2,1.9,2.5,2.9,3.6C26.3,25.9,26.4,26,26.5,26.1z M21.2,40.2c-0.1,0-0.2,0-0.2,0c-1.6,0.3-3.3,0.6-4.8,0.9c-0.1,0-0.2,0.2-0.3,0.3c0.2,0.1,0.3,0.2,0.5,0.2 c1.5-0.2,2.8-0.5,4.3-0.6C21.1,40.8,21.2,40.5,21.2,40.2z M45.4,23c0.1-0.1,0.2-0.2,0.2-0.3c0.5-0.9,1.1-1.9,1.5-2.8 c0.1-0.1,0-0.3,0-0.5c-0.1,0.1-0.3,0.2-0.4,0.3c-0.5,0.8-1,1.7-1.5,2.5C45,22.6,45.1,22.9,45.4,23z M27.8,22.9 c0.3-0.3,0.5-0.5,0.3-0.7c-0.5-0.8-1-1.6-1.5-2.5c-0.1-0.1-0.3-0.2-0.4-0.2c0,0.2-0.1,0.4,0,0.5c0.5,0.8,0.9,1.6,1.4,2.5 C27.5,22.6,27.6,22.8,27.8,22.9z M44,18.2c0.1-0.1,0.1-0.1,0.2-0.2c-0.1,0-0.3-0.1-0.4-0.1s-0.3,0.2-0.3,0.3 c-0.4,0.8-0.6,1.7-1,2.5c-0.1,0.2-0.3,0.4,0.1,0.5c0.4,0.1,0.5-0.1,0.5-0.4c0.3-0.8,0.5-1.6,0.8-2.5C43.9,18.4,43.9,18.4,44,18.2z M30.9,21.1c-0.4-1-0.8-2-1.2-3c0-0.1-0.2-0.1-0.3-0.2c0,0.1-0.2,0.3-0.1,0.4c0.3,0.9,0.6,1.8,0.9,2.7 C30.4,21.4,30.5,21.4,30.9,21.1z M53.1,43.5c-0.1,0.1-0.1,0.1-0.2,0.2c0.2,0.2,0.3,0.5,0.5,0.5c0.9,0.4,1.7,0.6,2.6,0.9 c0.1,0,0.2-0.1,0.4-0.1c-0.1-0.1-0.1-0.3-0.2-0.4c-0.7-0.3-1.4-0.5-2.1-0.8C53.7,43.7,53.4,43.5,53.1,43.5z M19.9,43.5 c-0.2,0-0.3,0.1-0.4,0.1c-0.7,0.3-1.5,0.5-2.3,0.9c-0.1,0.1-0.2,0.2-0.4,0.4c0.2,0,0.4,0.2,0.5,0.1c0.7-0.2,1.5-0.5,2.2-0.7 C19.8,44.2,20,44,19.9,43.5z"></path> <path class="st1" d="M60.4,44.2c0.1-0.2,0.3-0.5,0.3-0.5c0.4,0,0.7,0.1,1,0.3c0.1,0,0,0.3,0.1,0.5C61.4,44.5,61,44.3,60.4,44.2z"></path> <path class="st1" d="M40.5,9.2c0.1,0.1,0.4,0.3,0.4,0.4c0,0.4-0.1,0.6-0.2,1c0,0-0.3,0-0.4,0c-0.1,0-0.1-0.2-0.1-0.3 C40.3,9.9,40.4,9.8,40.5,9.2L40.5,9.2z"></path> <path class="st1" d="M13.3,53.5c-0.1-0.1-0.3-0.2-0.3-0.3s0-0.3,0.2-0.4c0.3-0.3,0.6-0.5,0.9-0.6c0.5-0.3,0.9-0.5,1.4-0.8 c0.1-0.1,0.4,0,0.5,0c-0.1,0.2,0,0.5-0.2,0.5c-0.7,0.5-1.5,1-2.3,1.5C13.5,53.5,13.4,53.5,13.3,53.5z"></path> <path class="st1" d="M31.5,63.8c0.1-0.5,0.2-0.9,0.3-1.3c0-0.1,0.2-0.2,0.3-0.2s0.4,0.2,0.3,0.3c0,0.4-0.1,0.7-0.2,1.1 C32.1,63.8,31.8,63.8,31.5,63.8z"></path> </g> </g> </svg>