<svg xmlns="http://www.w3.org/2000/svg" xmlns:xlink="http://www.w3.org/1999/xlink" version="1.1" id="Calque_1" x="0px" y="0px" viewBox="0 0 92.6 75" style="enable-background:new 0 0 92.6 75;" xml:space="preserve"> <style type="text/css"> .st0{fill:#FDFDFD;} .st1{fill:#008199;} .st2{fill:#005B2E;} .st3{fill:#005B2F;} .st4{fill:#015A2E;} .st5{fill:#CD000C;} .st6{fill:#025A2E;} .st7{fill:#02592E;} .st8{fill:#01592E;} .st9{fill:#03592E;} .st10{fill:#04582D;} </style> <g> <path class="st0" d="M8.7,72.2c-1.6,0-3.2,0-4.8,0c-0.6,0-0.6-0.4-0.6-0.7v-3.2c0-0.8,0.1-1.8,0-2.6c-0.2-1.1,0.4-1.2,1.3-1.2 c1.1,0,0.7,0.6,0.7,1.2s0.1,1.2,0,1.9c-0.6,2.9,0.5,4.1,3.4,3.4c0.3-0.1,0.6,0.1,0.8,0.2C9.3,71.3,9.4,72.2,8.7,72.2z"></path> <path class="st0" d="M17.2,71.2c-0.3-0.9-0.7-1.9-1.2-2.7c-0.4-0.7-0.7-1.6-1-2.3c-0.4,0.7-0.9,1.5-1.1,2.3 c-0.3,1.5,0.9,0.3,1.4,0.6c0.2,0.2,0.6,0.1,0.8,0.2c-0.1,0.3-0.3,0.7-0.4,0.7c-2-0.1-3.2,1.9-5,2.2c-0.6,0.1-0.6-0.1-0.4-0.6 c0.9-1.9,1.9-3.9,2.8-5.9c0.4-0.9,0.8-1.5,1.9-1.1c1.1-0.4,1.5,0.2,1.9,1.1c0.6,1.7,1.5,3.3,2.2,5c0.2,0.5,0.4,1,0.5,1.5 C18.8,72.1,17.7,72.7,17.2,71.2z"></path> <path class="st0" d="M26,71.8c-1.1-1.5-2.1-3.1-3.2-4.6c-0.1-0.1-0.2-0.2-0.3-0.3c0,0.1-0.1,0.3-0.1,0.4c0,1.3,0,2.5,0,3.8 c0,0.6,0.2,1.1-0.8,1.1s-0.8-0.6-0.8-1.2c0-0.9,0-1.9,0-2.8c0-0.7,0-1.4,0-2.1c0-0.6,0.2-1.1,0.2-1.7c1,0.2,2.2-0.6,2.8,0.9 c0,0.1,0.1,0.1,0.1,0.2c0.8,1.3,1.8,2.6,2.7,3.9c0-1.5,0.1-3,0.1-4.5c0-0.9,0.7-0.4,1.1-0.5s0.6-0.1,0.6,0.5c0,2,0,4.1,0,6.1 c0,0.4-0.2,1-0.2,1C27.5,72.1,26.6,72.6,26,71.8z"></path> <path class="st0" d="M31.7,68.8c0.3,2.1,1.9,2.2,3.6,2.1c1,0,1-0.6,0.9-1.3c-0.1-1.2-1-0.4-1.5-0.6c-0.3-0.1-0.6-0.2-0.8-0.2 c0.2-0.4,0.5-1,0.6-0.9c1.4,0.2,3.9-1.6,3.3,1.9c0.7,3.1-1.8,2.3-3.2,2.4c-2.6,0.2-4.9-0.5-5.2-3.5c-0.3-2.6,1.4-4.1,3.8-4.2 c1.4-0.1,3.4-1.1,4.3,1.1c0.2,0.6-0.1,0.7-0.6,0.6C33.5,65.2,31.3,66.2,31.7,68.8z"></path> <path class="st0" d="M46.8,65.8c0.1,0.7,0,1.6,0,2.3c0.3,2.9-0.9,4.4-3.9,4.4s-4-1.6-3.8-4.4c0-0.3,0-0.6,0-0.9c0-0.7,0-1.4,0-2.1 c0-1.1,0.8-0.5,1.3-0.6c0.5-0.2,0.7,0,0.7,0.6c-0.1,1.3,0,2.7,0,4c0,1.2,0.6,1.9,1.9,1.9c1.2,0,1.9-0.6,1.9-1.9 c0-1.1,0.1-2.3,0-3.4c-0.1-0.8,0-1.3,1.1-1.3C47.2,64.4,46.7,65.2,46.8,65.8z"></path> <path class="st0" d="M52,67.7c0.8,0.1,1.6,0.2,2.4,0.2c-0.5,1.2-1.5,1.1-2.5,1.1c-0.6-0.1-1.1-0.2-1.7-0.2 C50.6,67.9,51,67.4,52,67.7z"></path> <path class="st0" d="M55.7,71.2c-0.3,0.5-0.2,1.2-1.1,1.1c-0.8-0.1-1.8-0.1-2.6,0c-3.1,0.5-5-0.2-3.7-3.9c-1.2-3.6,0.6-4.4,3.6-3.8 c1.2,0.2,2.7-1,3.4,0.8c0.2,0.5,0.1,0.6-0.4,0.6c-0.3,0-0.6,0.1-0.8,0c-4-0.9-4.7,1.2-4.2,4.5c0.1,0.5,0.2,0.5,0.6,0.5 c1.4,0,2.8,0,4.2,0C55,70.8,55.3,71.1,55.7,71.2z"></path> <path class="st0" d="M57.9,64.8c-2.3,0.4-0.6,4.1-0.8,6.3c-0.3,2.4,1.9,0.4,2.4,1.1c4.2,0,5.8-1.1,5.8-3.6 C65.2,65.7,63,63.8,57.9,64.8z M59.8,70.9c-2-0.1-0.2-1.8-1.1-2.4c0.8-0.7-0.7-2.2,0.9-2.4c1.7-0.1,3.5,0.1,3.5,2.3 C63.2,70.8,61.5,71.1,59.8,70.9z"></path> <path class="st0" d="M70.9,64.4c-2.7,0.2-4.7,1-4.7,4.1c0.1,3,2.1,3.9,4.7,3.9s4.5-1.1,4.5-4C75.4,65.4,73.4,64.7,70.9,64.4z M71,71.2c-1.8-0.1-2.6-1-2.6-2.7s0.8-2.7,2.5-2.7s2.5,1.1,2.5,2.6C73.3,69.9,72.6,70.9,71,71.2z"></path> <path class="st0" d="M84.3,66.2c-0.3,0-0.6,0.1-0.7,0c-1.8-0.4-3.6-0.8-4.6,1.2c-0.5,0.8-0.3,1.7,0.4,2.4c1,1.1,2.3,1,3.7,0.8 c0.4-0.1,0.9-0.6,1.2,0c0.3,0.8-0.1,1.3-1,1.4c-2.7,0.4-5.4,0.4-6.5-2.7c-0.9-2.7,1.3-5,5.1-5c0.4,0.1,1.2,0.2,2,0.4 C84.7,65.1,84.1,65.8,84.3,66.2z"></path> <path class="st0" d="M43.9,60.8c-13.2,0-26.4,0-39.6,0c-0.7,0-0.8-0.2-0.8-0.8c0-5.9,0-5.9,5.9-5.9c24.7,0,49.4,0,74.1,0 c0.6,0,0.8,0.2,0.8,0.8c0,5.9,0,5.9-5.9,5.9H43.9z"></path> <path class="st0" d="M89.9,5.9c0.9,2.5-0.7,3.9-3.2,5.1c-3.6,1.8-7.1,3.8-10.7,5.8c-4.1,2.2-5.2,1.8-7.1-2.6 c-0.6-1.6-0.5-1.9,1.3-2.8c6-2.7,11.8-5.8,17.5-9c1.9-1,2.3-0.8,2,1.3C89.8,4.2,89.9,4.8,89.9,5.9z"></path> <path class="st0" d="M90.1,18c0.3,3.6-0.8,5.7-4.2,7.2c-4.3,2-8.3,4.7-12.3,7.1c2.6,5.6,5.2,11.1,7.9,16.7c0.3,0.6-0.2,0.4-0.4,0.4 c-3.5,0-7.1,0-10.6,0c-1.4,0-2.2-0.9-2.8-2.1c-1.3-3.2-2.6-6.5-4-9.7c-6.3,3.1-12.6,6.3-19.2,8.5c-8.7,3-17.5,5.2-26.7,3.3 C3.8,46.8-1.8,32,7.2,20.8C13.9,12.4,23,7.6,33.5,5.9c4.4-0.7,8.5,3.8,7.7,8.2c0,0.1-0.2,0.2-0.4,0.2C31,14.1,23.3,19,16.2,25 c-2.3,1.9-4.2,4-5.7,6.6c-2.9,5-1.1,9,4.6,9.9c11,1.9,21.2-1.2,31.1-5.4c4.5-1.9,9-4.2,13.6-6.3c0.2-0.1,0.4-0.4,0.6-0.5 c-1.8-4.3-3.5-8.5-5.3-12.8c-0.1-0.2-0.2-0.4-0.3-0.5c-0.1,0.2-0.3,0.4-0.4,0.6c-2,4.4-4.4,8.7-6.1,13.3c-2.2,5.5-7.2,6-11.9,7.3 c-1.3,0.4-2.6,0.4-3.9,0.6c0.6-1.1,1.1-2.3,1.8-3.4C39,25.1,43.9,16,48.8,6.9c0.3-0.6,0.5-0.7,1-0.7c2.9,0,5.8,0.2,8.7-0.1 c2.2-0.2,3.2,0.6,4.1,2.6c2.2,5.2,4.7,10.3,7.1,15.5c4.7-2.6,9.4-5.2,14.1-7.8c0.6-0.4,1.2-0.6,1.9-1C90,13.1,89.6,13.1,90.1,18z"></path> <path class="st1" d="M85.9,25.2c-4.3,2-8.3,4.7-12.3,7.1c-0.3,0.4-0.6,0.5-0.9,0.6c-2.7,1.5-5.3,3-8,4.4c-0.3,0.1-0.5,0.3-0.8,0.3 c-6.3,3.1-12.6,6.3-19.2,8.5c-8.7,3-17.5,5.2-26.7,3.3C3.9,46.8-1.7,32,7.3,20.8C14,12.4,23.1,7.6,33.6,5.9 c4.4-0.7,8.5,3.8,7.7,8.2c0,0.1-0.2,0.2-0.4,0.2C31.1,14.1,23.4,19,16.3,25c-2.3,1.9-4.2,4-5.7,6.6c-2.9,5-1.1,9,4.6,9.9 c11,1.9,21.2-1.2,31.1-5.4c4.5-1.9,9-4.2,13.6-6.3c0.2-0.1,0.4-0.4,0.6-0.5c2-1.1,4.2-2.2,6.3-3.3c0.8-0.5,1.7-0.9,2.6-1.4 c0.2-0.1,0.4-0.3,0.6-0.2c4.7-2.6,9.4-5.2,14.1-7.8c0.6-0.4,1.2-0.6,1.9-1c4.3-2.3,4-2.3,4.4,2.5C90.4,21.8,89.2,23.6,85.9,25.2z"></path> <path class="st2" d="M84.4,54.8c0,5.9,0,5.9-5.9,5.9H43.9c-13.2,0-26.4,0-39.6,0c-0.7,0-0.8-0.2-0.8-0.8c0-5.9,0-5.9,5.9-5.9 c24.7,0,49.4,0,74.1,0C84.2,54,84.4,54.2,84.4,54.8z"></path> <path class="st3" d="M69.8,24.4c-3.2,1.7-6.3,3.3-9.5,4.9c-1.8-4.3-3.5-8.5-5.3-12.8c-0.1-0.2-0.2-0.4-0.3-0.5 c-0.1,0.2-0.3,0.4-0.4,0.6c-2,4.4-4.4,8.7-6.1,13.3c-2.2,5.5-7.2,6-11.9,7.3c-1.3,0.4-2.6,0.4-3.9,0.6c0.6-1.1,1.1-2.3,1.8-3.4 C39,25.1,43.9,16,48.8,6.9c0.3-0.6,0.5-0.7,1-0.7c2.9,0,5.8,0.2,8.7-0.1c2.2-0.2,3.2,0.6,4.1,2.6C64.9,14.1,67.4,19.1,69.8,24.4z"></path> <path class="st4" d="M81,49.5c-3.5,0-7.1,0-10.6,0c-1.4,0-2.2-0.9-2.8-2.1c-1.3-3.2-2.6-6.5-4-9.7c3.2-1.8,6.5-3.5,9.7-5.3 c2.6,5.6,5.2,11.1,7.9,16.7C81.7,49.7,81.2,49.5,81,49.5z"></path> <path class="st5" d="M86.7,11.1c-3.6,1.8-7.1,3.8-10.7,5.8c-4.1,2.2-5.2,1.8-7.1-2.6c-0.6-1.6-0.5-1.9,1.3-2.8 c6-2.7,11.8-5.8,17.5-9c1.9-1,2.3-0.8,2,1.3c-0.1,0.6,0,1.2,0,2.2C90.9,8.4,89.2,9.9,86.7,11.1z"></path> <path class="st6" d="M28.5,64.9c0,2,0,4.1,0,6.1c0,0.4-0.2,1-0.2,1c-0.7-0.1-1.7,0.5-2.2-0.3c-1.1-1.5-2.1-3.1-3.2-4.6 c-0.1-0.1-0.2-0.2-0.3-0.3c0,0.1-0.1,0.3-0.1,0.4c0,1.3,0,2.5,0,3.8c0,0.6,0.2,1.1-0.8,1.1s-0.8-0.6-0.8-1.2c0-0.9,0-1.9,0-2.8 c0-0.7,0-1.4,0-2.1c0-0.6,0.2-1.1,0.2-1.7c1,0.2,2.2-0.6,2.8,0.9c0,0.1,0.1,0.1,0.1,0.2c0.8,1.3,1.8,2.6,2.7,3.9 c0-1.5,0.1-3,0.1-4.5c0-0.9,0.7-0.4,1.1-0.5C28.2,64.4,28.5,64.4,28.5,64.9z"></path> <path class="st7" d="M57.9,64.8c-2.3,0.4-0.6,4.1-0.8,6.3c-0.3,2.4,1.9,0.4,2.4,1.1c4.2,0,5.8-1.1,5.8-3.6 C65.2,65.7,63,63.8,57.9,64.8z M59.8,70.9c-2-0.1-0.2-1.8-1.1-2.4c0.8-0.7-0.7-2.2,0.9-2.4c1.7-0.1,3.5,0.1,3.5,2.3 C63.2,70.8,61.5,71.1,59.8,70.9z"></path> <path class="st8" d="M70.9,64.4c-2.7,0.2-4.7,1-4.7,4.1c0.1,3,2.1,3.9,4.7,3.9s4.5-1.1,4.5-4C75.4,65.4,73.4,64.7,70.9,64.4z M71,71.2c-1.8-0.1-2.6-1-2.6-2.7s0.8-2.7,2.5-2.7s2.5,1.1,2.5,2.6C73.3,69.9,72.6,70.9,71,71.2z"></path> <path class="st7" d="M34.8,72.3c-2.6,0.2-4.9-0.5-5.2-3.5c-0.3-2.6,1.4-4.1,3.8-4.2c1.4-0.1,3.4-1.1,4.3,1.1 c0.2,0.6-0.1,0.7-0.6,0.6c-3.4-0.9-5.6,0.1-5.3,2.5c0.3,2.1,1.9,2.2,3.6,2.1c1,0,1-0.6,0.9-1.3c-0.1-1.2-1-0.4-1.5-0.6 c-0.3-0.1-0.6-0.2-0.8-0.2c0.2-0.4,0.5-1,0.6-0.9c1.4,0.2,3.9-1.6,3.3,1.9C38.7,72.8,36.3,72.2,34.8,72.3z"></path> <path class="st7" d="M19.6,72.2c-0.8-0.1-2,0.6-2.4-0.9c-0.3-0.9-0.7-1.9-1.2-2.7c-0.4-0.7-0.7-1.6-1-2.3c-0.4,0.7-0.9,1.5-1.1,2.3 c-0.3,1.5,0.9,0.3,1.4,0.6c0.2,0.2,0.6,0.1,0.8,0.2C16,69.7,15.8,70,15.7,70c-2-0.1-3.2,1.9-5,2.2c-0.6,0.1-0.6-0.1-0.4-0.6 c0.9-1.9,1.9-3.9,2.8-5.9c0.4-0.9,0.8-1.5,1.9-1.1c1.1-0.4,1.5,0.2,1.9,1.1c0.6,1.7,1.5,3.3,2.2,5C19.4,71.2,19.5,71.7,19.6,72.2z"></path> <path class="st7" d="M46.8,68.2c0.3,2.9-0.9,4.4-3.9,4.4s-4-1.6-3.8-4.4c0-0.3,0-0.6,0-0.9c0-0.7,0-1.4,0-2.1 c0-1.1,0.8-0.5,1.3-0.6c0.5-0.2,0.7,0,0.7,0.6c-0.1,1.3,0,2.7,0,4c0,1.2,0.6,1.9,1.9,1.9c1.2,0,1.9-0.6,1.9-1.9 c0-1.1,0.1-2.3,0-3.4c-0.1-0.8,0-1.3,1.1-1.3c1.2,0,0.7,0.8,0.7,1.3C46.8,66.6,46.7,67.2,46.8,68.2z"></path> <path class="st9" d="M55.7,71.2c-0.3,0.5-0.2,1.2-1.1,1.1c-0.8-0.1-1.8-0.1-2.6,0c-3.1,0.5-5-0.2-3.7-3.9c-1.2-3.6,0.6-4.4,3.6-3.8 c1.2,0.2,2.7-1,3.4,0.8c0.2,0.5,0.1,0.6-0.4,0.6c-0.3,0-0.6,0.1-0.8,0c-4-0.9-4.7,1.2-4.2,4.5c0.1,0.5,0.2,0.5,0.6,0.5 c1.4,0,2.8,0,4.2,0C55,70.8,55.3,71.1,55.7,71.2z"></path> <path class="st8" d="M78.9,67.6c-0.5,0.8-0.3,1.7,0.4,2.4c1,1.1,2.3,1,3.7,0.8c0.4-0.1,0.9-0.6,1.2,0c0.3,0.8-0.1,1.3-1,1.4 c-2.7,0.4-5.4,0.4-6.5-2.7c-0.9-2.7,1.3-5,5.1-5c0.4,0.1,1.2,0.2,2,0.4c0.8,0.2,0.3,1,0.5,1.5c-0.3,0-0.6,0.1-0.7,0 C81.8,65.9,79.9,65.4,78.9,67.6z"></path> <path class="st6" d="M9.6,71.1c-0.3,0.4-0.2,1.1-0.9,1.1c-1.6,0-3.2,0-4.8,0c-0.6,0-0.6-0.4-0.6-0.7v-3.2c0-0.8,0.1-1.8,0-2.6 c-0.2-1.1,0.4-1.2,1.3-1.2c1.1,0,0.7,0.6,0.7,1.2s0.1,1.2,0,1.9c-0.6,2.9,0.5,4.1,3.4,3.4C9.1,70.8,9.3,71.1,9.6,71.1z"></path> <path class="st10" d="M54.4,67.8c-0.5,1.2-1.5,1.1-2.5,1.1c-0.6-0.1-1.1-0.2-1.7-0.2c0.4-0.7,0.8-1.2,1.8-1.1 C52.8,67.8,53.6,67.8,54.4,67.8z"></path> </g> </svg>