<svg xmlns="http://www.w3.org/2000/svg" xmlns:xlink="http://www.w3.org/1999/xlink" version="1.1" id="Calque_1" x="0px" y="0px" viewBox="0 0 185.3 75" style="enable-background:new 0 0 185.3 75;" xml:space="preserve"> <style type="text/css"> .st0{fill:#0E7370;} .st1{fill:#7BC2E7;} .st2{fill:#FFFFFF;stroke:#41ACE2;stroke-width:29.6456;stroke-miterlimit:10;} .st3{fill:#175080;} .st4{fill:#036A76;} .st5{fill:#898989;} </style> <g> <g> <path class="st0" d="M52.1,39.5c0-4.3,0-8.6,0-12.9c-0.1-6-5.5-10.7-11.5-10.3c-4.1,0.3-8.2,0.1-12.4,0.2c-3.8,0.1-5.9,2-5.9,5.3 c0,3.2,2.3,5.3,5.9,5.4c2.4,0.1,4.8,0,7.2,0c3.8,0.1,5.9,2.2,5.9,5.9c0.1,6.4,0,12.9,0.1,19.3c0,3.5,1.8,5.6,4.8,6 c3.1,0.4,5.7-1.8,5.8-5.1C52.1,48.8,52,44.2,52.1,39.5C52,39.5,52.1,39.5,52.1,39.5z"></path> <path class="st1" d="M67.1,21.8c0-3-2.4-5.4-5.4-5.4c-2.9,0-5.4,2.5-5.4,5.4c0,3.1,2.5,5.6,5.6,5.5C64.9,27.1,67.1,24.8,67.1,21.8 z"></path> <path class="st2" d="M27.4,22.5"></path> <path class="st3" d="M29.4,42.8c0,8.6-7.7,15.6-17.2,15.6c-2.5,0-5-0.5-7.2-1.5c-2.2-0.9-3.3-3.5-2.3-5.8c0.9-2.2,3.5-3.3,5.8-2.3 c1.2,0.5,2.5,0.8,3.8,0.8c4.6,0,8.4-3.1,8.4-6.8c0-3.8-3.8-6.8-8.4-6.8H5c-2.4,0-4.4-2-4.4-4.4s2-4.4,4.4-4.4h7.2 c0.5,0,1,0,1.5,0.1C22.4,27.9,29.4,34.5,29.4,42.8z"></path> <path class="st4" d="M13.7,27.1c-0.5,0-1-0.1-1.5-0.1h0.7C13.2,27,13.4,27,13.7,27.1z"></path> </g> <g> <path class="st5" d="M81.2,26.4c-0.4-0.2-0.6-0.4-0.8-0.7c-0.2-0.3-0.3-0.6-0.3-1H81c0,0.3,0.2,0.6,0.4,0.8c0.2,0.2,0.6,0.3,1,0.3 s0.7-0.1,1-0.3c0.2-0.2,0.4-0.5,0.4-0.8s-0.1-0.5-0.2-0.6c-0.1-0.2-0.3-0.3-0.5-0.4s-0.5-0.2-0.9-0.3c-0.4-0.1-0.8-0.2-1.1-0.3 c-0.3-0.1-0.5-0.3-0.7-0.5s-0.3-0.6-0.3-1s0.1-0.7,0.3-1c0.2-0.3,0.5-0.5,0.8-0.7s0.7-0.2,1.2-0.2c0.6,0,1.2,0.2,1.6,0.5 s0.6,0.7,0.7,1.3h-1c0-0.3-0.2-0.5-0.4-0.7c-0.2-0.2-0.6-0.3-1-0.3s-0.7,0.1-0.9,0.3c-0.2,0.2-0.3,0.5-0.3,0.8 c0,0.2,0.1,0.4,0.2,0.6s0.3,0.3,0.5,0.4s0.5,0.2,0.9,0.3c0.4,0.1,0.8,0.2,1.1,0.4s0.5,0.3,0.7,0.6c0.2,0.2,0.3,0.6,0.3,1 c0,0.3-0.1,0.6-0.3,0.9c-0.2,0.3-0.4,0.5-0.8,0.7c-0.3,0.2-0.7,0.3-1.2,0.3C82,26.5,81.6,26.5,81.2,26.4z"></path> <path class="st5" d="M93.6,19.8L91.4,24v2.5h-0.9V24l-2.2-4.2h1l1.7,3.4l1.7-3.4H93.6z"></path> <path class="st5" d="M102.8,26.5h-0.9l-3.5-5.4v5.4h-0.9v-6.8h0.9l3.5,5.4v-5.4h0.9V26.5z"></path> <path class="st5" d="M111.2,20.1c0.5,0.3,1,0.7,1.2,1.2c0.3,0.5,0.4,1.1,0.4,1.8c0,0.7-0.1,1.3-0.4,1.8s-0.7,0.9-1.2,1.2 c-0.5,0.3-1.2,0.4-1.9,0.4h-2.1v-6.8h2.1C110,19.8,110.7,19.9,111.2,20.1z M111.3,25c0.5-0.5,0.7-1.1,0.7-1.9s-0.2-1.5-0.7-2 s-1.1-0.7-2-0.7h-1.2v5.3h1.2C110.1,25.8,110.8,25.5,111.3,25z"></path> <path class="st5" d="M117.8,19.8v6.8h-0.9v-6.8H117.8z"></path> <path class="st5" d="M122.3,21.4c0.3-0.5,0.7-0.9,1.2-1.2c0.5-0.3,1.1-0.4,1.7-0.4c0.7,0,1.4,0.2,1.9,0.5c0.6,0.4,1,0.9,1.2,1.5 h-1.1c-0.2-0.4-0.5-0.7-0.8-0.9c-0.4-0.2-0.8-0.3-1.3-0.3s-0.9,0.1-1.3,0.3c-0.4,0.2-0.7,0.5-0.9,0.9s-0.3,0.9-0.3,1.4 s0.1,1,0.3,1.4s0.5,0.7,0.9,0.9c0.4,0.2,0.8,0.3,1.3,0.3s0.9-0.1,1.3-0.3c0.4-0.2,0.6-0.5,0.8-0.9h1.1c-0.3,0.6-0.7,1.1-1.2,1.5 s-1.2,0.5-1.9,0.5c-0.6,0-1.2-0.1-1.7-0.4s-0.9-0.7-1.2-1.2s-0.4-1.1-0.4-1.8C121.9,22.5,122,21.9,122.3,21.4z"></path> <path class="st5" d="M139,20.5v2.3h2.5v0.7H139v2.3h2.8v0.7h-3.6v-6.8h3.6v0.7L139,20.5L139,20.5z"></path> <path class="st5" d="M150.1,19.8v0.7h-1.8v6h-0.9v-6h-1.8v-0.7H150.1z"></path> <path class="st5" d="M84.7,34v0.7h-1.8v6H82v-6h-1.9V34H84.7z"></path> <path class="st5" d="M92.2,40.8L90.6,38h-1v2.8h-0.9V34h2.2c0.5,0,0.9,0.1,1.3,0.3s0.6,0.4,0.8,0.7c0.2,0.3,0.3,0.6,0.3,1 c0,0.5-0.1,0.9-0.4,1.2c-0.3,0.4-0.7,0.6-1.2,0.7l1.7,2.8L92.2,40.8L92.2,40.8z M89.6,37.3h1.3c0.5,0,0.8-0.1,1.1-0.4 c0.2-0.2,0.4-0.6,0.4-0.9c0-0.4-0.1-0.7-0.4-0.9c-0.2-0.2-0.6-0.3-1.1-0.3h-1.3V37.3z"></path> <path class="st5" d="M101.5,39.3h-2.9l-0.5,1.5h-0.9l2.4-6.7h1l2.4,6.7h-0.9L101.5,39.3z M101.2,38.5l-1.2-3.4l-1.2,3.4H101.2z"></path> <path class="st5" d="M112.2,40.8h-0.9l-3.5-5.4v5.4h-0.9V34h0.9l3.5,5.4V34h0.9V40.8z"></path> <path class="st5" d="M117.6,40.7c-0.4-0.2-0.6-0.4-0.8-0.7c-0.2-0.3-0.3-0.6-0.3-1h0.9c0,0.3,0.2,0.6,0.4,0.8 c0.2,0.2,0.6,0.3,1,0.3s0.7-0.1,1-0.3c0.2-0.2,0.4-0.5,0.4-0.8s-0.1-0.5-0.2-0.6c-0.1-0.2-0.3-0.3-0.5-0.4 c-0.2-0.1-0.5-0.2-0.9-0.3s-0.8-0.2-1.1-0.3c-0.3-0.1-0.5-0.3-0.7-0.5s-0.3-0.6-0.3-1s0.1-0.7,0.3-1c0.2-0.3,0.5-0.5,0.8-0.7 s0.7-0.2,1.2-0.2c0.6,0,1.2,0.2,1.6,0.5s0.6,0.7,0.7,1.3h-1c0-0.3-0.2-0.5-0.4-0.7c-0.2-0.2-0.6-0.3-1-0.3s-0.7,0.1-0.9,0.3 c-0.2,0.2-0.3,0.5-0.3,0.8c0,0.2,0.1,0.4,0.2,0.6s0.3,0.3,0.5,0.4c0.2,0.1,0.5,0.2,0.9,0.3s0.8,0.2,1.1,0.4 c0.3,0.1,0.5,0.3,0.7,0.6c0.2,0.2,0.3,0.6,0.3,1c0,0.3-0.1,0.6-0.3,0.9c-0.2,0.3-0.4,0.5-0.8,0.7c-0.3,0.2-0.7,0.3-1.2,0.3 C118.3,40.8,117.9,40.8,117.6,40.7z"></path> <path class="st5" d="M129.2,39.3h-2.9l-0.5,1.5h-0.9l2.4-6.7h1l2.4,6.7h-0.9L129.2,39.3z M129,38.5l-1.2-3.4l-1.2,3.4H129z"></path> <path class="st5" d="M134.8,35.7c0.3-0.5,0.7-0.9,1.2-1.2s1.1-0.4,1.7-0.4c0.7,0,1.4,0.2,1.9,0.5c0.6,0.4,1,0.9,1.2,1.5h-1.1 c-0.2-0.4-0.5-0.7-0.8-0.9c-0.4-0.2-0.8-0.3-1.3-0.3s-0.9,0.1-1.3,0.3c-0.4,0.2-0.7,0.5-0.9,0.9s-0.3,0.9-0.3,1.4s0.1,1,0.3,1.4 s0.5,0.7,0.9,0.9s0.8,0.3,1.3,0.3s0.9-0.1,1.3-0.3c0.4-0.2,0.6-0.5,0.8-0.9h1.1c-0.3,0.6-0.7,1.1-1.2,1.5s-1.2,0.5-1.9,0.5 c-0.6,0-1.2-0.1-1.7-0.4c-0.5-0.3-0.9-0.7-1.2-1.2s-0.4-1.1-0.4-1.8C134.3,36.8,134.5,36.2,134.8,35.7z"></path> <path class="st5" d="M149.2,34v0.7h-1.8v6h-0.9v-6h-1.9V34H149.2z"></path> <path class="st5" d="M154.1,34v6.8h-0.9V34H154.1z"></path> <path class="st5" d="M159.8,40.5c-0.5-0.3-0.9-0.7-1.2-1.2s-0.5-1.1-0.5-1.8s0.2-1.3,0.5-1.8s0.7-0.9,1.2-1.2s1.1-0.4,1.7-0.4 c0.6,0,1.2,0.1,1.7,0.4c0.5,0.3,0.9,0.7,1.2,1.2s0.4,1.1,0.4,1.8s-0.1,1.3-0.4,1.8c-0.3,0.5-0.7,0.9-1.2,1.2s-1.1,0.4-1.7,0.4 C160.9,40.8,160.3,40.8,159.8,40.5z M162.8,39.8c0.4-0.2,0.7-0.5,0.9-0.9s0.3-0.9,0.3-1.4s-0.1-1-0.3-1.4s-0.5-0.7-0.9-0.9 s-0.8-0.3-1.3-0.3s-0.9,0.1-1.3,0.3c-0.4,0.2-0.7,0.5-0.9,0.9s-0.3,0.9-0.3,1.4s0.1,1,0.3,1.4s0.5,0.7,0.9,0.9s0.8,0.3,1.3,0.3 C162,40.2,162.4,40,162.8,39.8z"></path> <path class="st5" d="M174.3,40.8h-0.9l-3.5-5.4v5.4H169V34h0.9l3.5,5.4V34h0.9V40.8z"></path> <path class="st5" d="M179.7,40.7c-0.4-0.2-0.6-0.4-0.8-0.7s-0.3-0.6-0.3-1h0.9c0,0.3,0.2,0.6,0.4,0.8s0.6,0.3,1,0.3s0.7-0.1,1-0.3 c0.2-0.2,0.4-0.5,0.4-0.8s-0.1-0.5-0.2-0.6c-0.1-0.2-0.3-0.3-0.5-0.4c-0.2-0.1-0.5-0.2-0.9-0.3s-0.8-0.2-1.1-0.3s-0.5-0.3-0.7-0.5 s-0.3-0.6-0.3-1s0.1-0.7,0.3-1s0.5-0.5,0.8-0.7s0.7-0.2,1.2-0.2c0.6,0,1.2,0.2,1.6,0.5c0.4,0.3,0.6,0.7,0.7,1.3h-1 c0-0.3-0.2-0.5-0.4-0.7s-0.6-0.3-1-0.3s-0.7,0.1-0.9,0.3s-0.3,0.5-0.3,0.8c0,0.2,0.1,0.4,0.2,0.6c0.1,0.2,0.3,0.3,0.5,0.4 c0.2,0.1,0.5,0.2,0.9,0.3s0.8,0.2,1.1,0.4c0.3,0.1,0.5,0.3,0.7,0.6c0.2,0.2,0.3,0.6,0.3,1c0,0.3-0.1,0.6-0.3,0.9 c-0.2,0.3-0.4,0.5-0.8,0.7c-0.3,0.2-0.7,0.3-1.2,0.3C180.4,40.8,180,40.8,179.7,40.7z"></path> <path class="st5" d="M82,48.2V55h-0.9v-6.8H82z"></path> <path class="st5" d="M93.3,48.2v6.7h-0.9v-5l-2.2,5h-0.6l-2.2-5v5h-0.9v-6.7h1l2.5,5.5l2.5-5.5H93.3z"></path> <path class="st5" d="M104.5,48.2v6.7h-0.9v-5l-2.2,5h-0.6l-2.2-5v5h-0.9v-6.7h1l2.5,5.5l2.5-5.5H104.5z"></path> <path class="st5" d="M110.3,54.5c-0.5-0.3-0.9-0.7-1.2-1.2c-0.3-0.5-0.5-1.1-0.5-1.8s0.2-1.3,0.5-1.8s0.7-0.9,1.2-1.2 s1.1-0.4,1.7-0.4s1.2,0.1,1.7,0.4c0.5,0.3,0.9,0.7,1.2,1.2c0.3,0.5,0.4,1.1,0.4,1.8s-0.1,1.3-0.4,1.8s-0.7,0.9-1.2,1.2 s-1.1,0.4-1.7,0.4C111.4,55,110.8,54.8,110.3,54.5z M113.3,53.8c0.4-0.2,0.7-0.5,0.9-0.9c0.2-0.4,0.3-0.9,0.3-1.4s-0.1-1-0.3-1.4 c-0.2-0.4-0.5-0.7-0.9-0.9s-0.8-0.3-1.3-0.3s-0.9,0.1-1.3,0.3s-0.7,0.5-0.9,0.9c-0.2,0.4-0.3,0.9-0.3,1.4s0.1,1,0.3,1.4 c0.2,0.4,0.5,0.7,0.9,0.9s0.8,0.3,1.3,0.3C112.5,54.2,112.9,54,113.3,53.8z"></path> <path class="st5" d="M123.5,51.7c0.2,0.2,0.4,0.4,0.5,0.6c0.1,0.2,0.2,0.5,0.2,0.8s-0.1,0.6-0.3,0.9c-0.2,0.3-0.4,0.5-0.8,0.6 c-0.3,0.2-0.7,0.2-1.2,0.2h-2.5V48h2.4c0.5,0,0.9,0.1,1.2,0.2c0.3,0.2,0.6,0.4,0.7,0.6c0.2,0.3,0.2,0.6,0.2,0.9 c0,0.4-0.1,0.7-0.3,1c-0.2,0.3-0.5,0.5-0.9,0.6C123.1,51.5,123.3,51.5,123.5,51.7z M120.3,51h1.5c0.4,0,0.7-0.1,1-0.3 c0.2-0.2,0.3-0.5,0.3-0.8s-0.1-0.6-0.3-0.8c-0.2-0.2-0.6-0.3-1-0.3h-1.5V51z M122.9,53.8c0.2-0.2,0.4-0.5,0.4-0.9 s-0.1-0.7-0.4-0.9s-0.6-0.3-1-0.3h-1.5v2.4h1.6C122.3,54.2,122.7,54,122.9,53.8z"></path> <path class="st5" d="M129.2,48.2V55h-0.9v-6.8H129.2z"></path> <path class="st5" d="M134.5,54.2h2.4v0.7h-3.3v-6.8h0.9V54.2z"></path> <path class="st5" d="M141.6,48.2V55h-0.9v-6.8H141.6z"></path> <path class="st5" d="M146.8,48.8v2.3h2.5v0.7h-2.5v2.3h2.8v0.7H146V48h3.6v0.7L146.8,48.8L146.8,48.8z M148.6,47v0.7l-2.1-1.1 v-0.8L148.6,47z"></path> <path class="st5" d="M157.4,54.8l-1.6-2.8h-1.1v2.8h-0.9V48h2.2c0.5,0,0.9,0.1,1.3,0.3c0.4,0.2,0.6,0.4,0.8,0.7s0.3,0.6,0.3,1 c0,0.5-0.1,0.9-0.4,1.2c-0.3,0.4-0.7,0.6-1.2,0.7l1.7,2.8L157.4,54.8L157.4,54.8z M154.7,51.3h1.3c0.5,0,0.8-0.1,1.1-0.4 c0.2-0.2,0.4-0.6,0.4-0.9c0-0.4-0.1-0.7-0.4-0.9c-0.2-0.2-0.6-0.3-1.1-0.3h-1.3V51.3z"></path> <path class="st5" d="M163.5,48.8v2.3h2.5v0.7h-2.5v2.3h2.8v0.7h-3.7V48h3.6v0.7L163.5,48.8L163.5,48.8z"></path> <path class="st5" d="M171.5,54.7c-0.4-0.2-0.6-0.4-0.8-0.7s-0.3-0.6-0.3-1h0.9c0,0.3,0.2,0.6,0.4,0.8s0.6,0.3,1,0.3s0.7-0.1,1-0.3 c0.2-0.2,0.4-0.5,0.4-0.8s-0.1-0.5-0.2-0.6c-0.1-0.2-0.3-0.3-0.5-0.4c-0.2-0.1-0.5-0.2-0.9-0.3s-0.8-0.2-1.1-0.3s-0.5-0.3-0.7-0.5 s-0.3-0.6-0.3-1s0.1-0.7,0.3-1s0.5-0.5,0.8-0.7s0.7-0.2,1.2-0.2c0.6,0,1.2,0.2,1.6,0.5c0.4,0.3,0.6,0.7,0.7,1.3h-1 c0-0.3-0.2-0.5-0.4-0.7s-0.6-0.3-1-0.3s-0.7,0.1-0.9,0.3s-0.3,0.5-0.3,0.8c0,0.2,0.1,0.4,0.2,0.6c0.1,0.2,0.3,0.3,0.5,0.4 c0.2,0.1,0.5,0.2,0.9,0.3s0.8,0.2,1.1,0.4c0.3,0.1,0.5,0.3,0.7,0.6c0.2,0.2,0.3,0.6,0.3,1c0,0.3-0.1,0.6-0.3,0.9 c-0.2,0.3-0.4,0.5-0.8,0.7c-0.3,0.2-0.7,0.3-1.2,0.3C172.2,55,171.8,54.8,171.5,54.7z"></path> </g> </g> </svg>