<svg xmlns="http://www.w3.org/2000/svg" xmlns:xlink="http://www.w3.org/1999/xlink" version="1.1" id="Calque_1" x="0px" y="0px" viewBox="0 0 506.1 338" style="enable-background:new 0 0 506.1 338;" xml:space="preserve"> <style type="text/css"> .st0{opacity:0.25;fill:#FFFFFF;} </style> <path class="st0" d="M506.1,0v120.5c-18.8,3.3-39.6,0.5-56.9,8.9c-19.7,9.6-30,31.2-37.3,51.8c-7.3,20.6-13.6,42.8-29.4,57.8 c-30.4,28.9-82.1,19.7-116.2,44c-10.8,7.7-19.6,18.7-32,23.4c-11,4.2-23.3,2.9-35,1.5c-11.7-1.4-24-2.8-35.1,1.1 c-11.1,4-20.6,15.3-18.3,26.9l0.3,1H93.8l-93.7-0.6c0,0-6.1-143.7,74.5-129c10.9,5.3,18.7,15.1,27.1,23.8c8.4,8.7,18.6,17,30.7,17.5 c22.5,1.1,38.5-24.3,60.8-27.2c15.7-2,30.2,7.5,45.3,12.1c22.5,7,48.1,2.8,67.2-10.8c19.1-13.7,31.4-36.5,32.1-60 c0.9-29.1-14.6-58.9-5.2-86.5c7.9-23.2,31.5-37.6,55.1-44c23.6-6.4,48.5-6.9,72.3-12.7C476.4,15.6,491.9,8.9,506.1,0z"></path> <path class="st0" d="M452.5,89.5c21-8,36.8-25.5,53.6-41v72.1c-18.8,3.3-39.6,0.5-56.9,8.9c-19.7,9.6-30,31.2-37.3,51.8 c-7.3,20.6-13.6,42.8-29.4,57.8c-30.4,28.9-82.1,19.7-116.2,44c-10.8,7.7-19.6,18.7-32,23.4c-11,4.2-23.3,2.9-35,1.5 c-11.7-1.4-24-2.8-35.1,1.1c-11.1,4-20.6,15.3-18.3,26.9l0.3,1H112l-96.1-0.8c0,0,64.4-80.8,87.3-67.4c23,13.3,34.2,24.4,53.1,19.9 c18.9-4.5,35.4-16.1,53.9-21.8c36.7-11.3,81.5-0.1,111.3-24.7c19.8-16.3,27.4-44.3,34.9-70.2c7.5-26,17.4-53.6,39.4-66.4 C412.8,95.7,434.1,96.5,452.5,89.5z"></path> <path class="st0" d="M506.1,120.5V337H146.2l-0.3-1c-2.2-11.6,7.2-22.9,18.3-26.9c11.1-4,23.4-2.6,35.1-1.1c11.7,1.4,24,2.7,35-1.5 c12.4-4.8,21.2-15.7,32-23.4c34.1-24.3,85.8-15.1,116.2-44c15.8-15,22.1-37.2,29.4-57.8c7.3-20.6,17.6-42.3,37.3-51.8 C466.5,121,487.3,123.8,506.1,120.5z"></path> </svg>