<svg xmlns="http://www.w3.org/2000/svg" xmlns:xlink="http://www.w3.org/1999/xlink" version="1.1" id="Calque_1" x="0px" y="0px" viewBox="0 0 40 40" style="enable-background:new 0 0 40 40;" xml:space="preserve"> <style type="text/css"> .st0{fill:#5E5EF7;} .st1{fill:none;stroke:#FFFFFF;stroke-width:1.5;stroke-linecap:round;stroke-linejoin:round;} </style> <path class="st0" d="M7.5,4.5c5.7-3.8,20.8-3.4,29.1,5.7s-0.8,22.9-7.3,25.9c-6.5,3-23,2.8-27.5-7.3S1.8,8.2,7.5,4.5z"></path> <path class="st1" d="M20,11c3.5,0,5.7,0.5,7.1,1.8c1.4,1.3,1.9,3.6,1.9,7.2c0,3.4-0.5,5.6-1.7,7s-3.6,2-7.3,2s-6-0.6-7.3-2.1 C11.4,25.5,11,23.3,11,20c0-3.5,0.5-5.8,1.9-7.1S16.5,11,20,11z"></path> <path class="st1" d="M15,20l2,2l-2,2"></path> <line class="st1" x1="20.8" y1="23.2" x2="25.2" y2="23.2"></line> </svg>