<svg xmlns="http://www.w3.org/2000/svg" xmlns:xlink="http://www.w3.org/1999/xlink" version="1.1" id="Calque_1" x="0px" y="0px" viewBox="0 0 40 40" style="enable-background:new 0 0 40 40;" xml:space="preserve"> <style type="text/css"> .st0{fill:#5E5EF7;} .st1{fill:none;stroke:#FFFFFF;stroke-width:1.5;stroke-linecap:round;stroke-linejoin:round;} </style> <path class="st0" d="M7.5,4.5c5.7-3.8,20.8-3.4,29.1,5.7s-0.8,22.9-7.3,25.9c-6.5,3-23,2.8-27.5-7.3S1.8,8.2,7.5,4.5z"></path> <path class="st1" d="M21.8,22c-1,1-4.5,1.1-4.7,0.8c-0.2-0.3-0.1-3.7,0.9-4.7c1-1,4.2-4.2,6.2-6.2c2.8-2.8,6.6,1,3.8,3.8 C26.1,17.8,22.9,21,21.8,22z"></path> <path class="st1" d="M29,20.5c0,6.5-2,8.5-9,8.5s-9-2-9-9s2-9,9-9"></path> <path class="st1" d="M24,13l3,3"></path> </svg>