<svg xmlns="http://www.w3.org/2000/svg" xmlns:xlink="http://www.w3.org/1999/xlink" version="1.1" id="Calque_1" x="0px" y="0px" viewBox="0 0 40 40" style="enable-background:new 0 0 40 40;" xml:space="preserve"> <style type="text/css"> .st0{fill:#5E5EF7;} .st1{fill:none;stroke:#FFFFFF;stroke-width:1.5;stroke-linecap:round;stroke-linejoin:round;} </style> <path class="st0" d="M7.5,4.5c5.7-3.8,20.8-3.4,29.1,5.7s-0.8,22.9-7.3,25.9c-6.5,3-23,2.8-27.5-7.3S1.8,8.2,7.5,4.5z"></path> <path class="st1" d="M29.5,15.5c0,0.2-0.4,0.6-1.1,1.1c-2,1.4-4.1,2.5-6.3,3.4c-0.7,0.3-1.4,0.4-2.1,0.5c-0.7-0.1-1.4-0.2-2.1-0.5 c-2.2-0.9-4.4-2-6.3-3.4c-0.6-0.5-1.1-0.9-1.1-1.1s0.4-0.6,1.1-1.1c2-1.4,4.1-2.5,6.3-3.4c0.7-0.3,1.4-0.4,2.1-0.5 c0.7,0.1,1.4,0.2,2.1,0.5c2.2,0.9,4.4,2,6.3,3.4C29.1,14.9,29.5,15.3,29.5,15.5z"></path> <path class="st1" d="M29.5,25.5c-1.1,1-7.4,4-9.5,4s-8.4-3-9.5-4"></path> <path class="st1" d="M29.5,21c-1.1,1-7.4,4-9.5,4s-8.4-3-9.5-4"></path> </svg>