<svg xmlns="http://www.w3.org/2000/svg" xmlns:xlink="http://www.w3.org/1999/xlink" version="1.1" id="Calque_1" x="0px" y="0px" viewBox="0 0 40 40" style="enable-background:new 0 0 40 40;" xml:space="preserve"> <style type="text/css"> .st0{fill:#5E5EF7;} .st1{fill:none;stroke:#FFFFFF;stroke-width:1.5;stroke-linecap:round;stroke-linejoin:round;} </style> <path class="st0" d="M7.5,4.5c5.7-3.8,20.8-3.4,29.1,5.7s-0.8,22.9-7.3,25.9c-6.5,3-23,2.8-27.5-7.3S1.8,8.2,7.5,4.5z"></path> <path class="st1" d="M17,26.7c-0.7-0.2-1.4-0.4-2.2-0.7C12,24.8,10,22,10,18.7c0-4.2,3.4-7.7,7.5-7.7c3.3,0,6,2.2,7.1,5.2H25 c2.8,0,5,2.3,5,5.2c0,1.4-0.6,2.7-1.5,3.6c-0.4,0.4-3.5,1.4-5.6,1.9"></path> </svg>