<svg xmlns="http://www.w3.org/2000/svg" xmlns:xlink="http://www.w3.org/1999/xlink" version="1.1" id="Calque_1" x="0px" y="0px" viewBox="0 0 100 50" style="enable-background:new 0 0 100 50;" xml:space="preserve"> <style type="text/css"> .st0{fill:#1F55FF;} .st1{fill:#FFD228;} .st2{fill:#A484F8;} .st3{fill:#00C689;} </style> <g> <g> <path class="st0" d="M13.2,16.6L13.2,16.6c-0.5,0-0.9-0.4-0.9-0.9l0-1.5c0-0.5,0.4-0.9,0.9-0.9h0c0.5,0,0.9,0.4,0.9,0.9v1.5 C14.2,16.2,13.7,16.6,13.2,16.6z"></path> </g> <g> <path class="st1" d="M10.4,13.9L10.4,13.9c-0.5,0.2-1,0-1.2-0.5l-1.3-3.2c-0.2-0.5,0-1,0.5-1.2l0,0c0.5-0.2,1,0,1.2,0.5l1.3,3.2 C11.1,13.1,10.9,13.7,10.4,13.9z"></path> </g> <g> <path class="st0" d="M13.2,11.4L13.2,11.4c-0.5,0-0.9-0.4-0.9-0.9V8.9c0-0.5,0.4-0.9,0.9-0.9h0c0.5,0,0.9,0.4,0.9,0.9v1.5 C14.2,11,13.7,11.4,13.2,11.4z"></path> </g> <g> <path class="st2" d="M9.3,20.4L9.3,20.4c0,0.5-0.4,0.9-0.9,0.9H6.8c-0.5,0-0.9-0.4-0.9-0.9v0c0-0.5,0.4-0.9,0.9-0.9l1.5,0 C8.9,19.5,9.3,19.9,9.3,20.4z"></path> </g> <g> <path class="st1" d="M10.5,17.6L10.5,17.6c-0.4,0.4-1,0.4-1.3,0l-1.1-1.1c-0.4-0.4-0.4-1,0-1.3l0,0c0.4-0.4,1-0.4,1.3,0l1.1,1.1 C10.9,16.7,10.9,17.3,10.5,17.6z"></path> </g> <g> <path class="st1" d="M6.7,17.7L6.7,17.7c-0.2,0.5-0.8,0.7-1.2,0.5l-3.2-1.3c-0.5-0.2-0.7-0.8-0.5-1.2l0,0c0.2-0.5,0.8-0.7,1.2-0.5 l3.2,1.3C6.6,16.7,6.9,17.2,6.7,17.7z"></path> </g> <g> <path class="st1" d="M6.9,14.1L6.9,14.1c-0.4,0.4-1,0.4-1.3,0L4.5,13c-0.4-0.4-0.4-1,0-1.3l0,0c0.4-0.4,1-0.4,1.3,0l1.1,1.1 C7.2,13.1,7.2,13.7,6.9,14.1z"></path> </g> <g> <path class="st2" d="M4.4,20.4L4.4,20.4c0,0.5-0.4,0.9-0.9,0.9H1.9C1.4,21.4,1,21,1,20.4v0c0-0.5,0.4-0.9,0.9-0.9h1.5 C3.9,19.5,4.4,19.9,4.4,20.4z"></path> </g> <g> <path class="st3" d="M13.2,24.3L13.2,24.3c-0.5,0-0.9,0.4-0.9,0.9v1.5c0,0.5,0.4,0.9,0.9,0.9h0c0.5,0,0.9-0.4,0.9-0.9v-1.5 C14.1,24.7,13.7,24.3,13.2,24.3z"></path> </g> <g> <path class="st3" d="M10.4,27L10.4,27c-0.5-0.2-1,0-1.2,0.5l-1.3,3.2c-0.2,0.5,0,1,0.5,1.2h0c0.5,0.2,1,0,1.2-0.5l1.3-3.2 C11.1,27.7,10.9,27.2,10.4,27z"></path> </g> <g> <path class="st3" d="M13.2,29.5L13.2,29.5c-0.5,0-0.9,0.4-0.9,0.9v1.5c0,0.5,0.4,0.9,0.9,0.9h0c0.5,0,0.9-0.4,0.9-0.9v-1.5 C14.1,29.9,13.7,29.5,13.2,29.5z"></path> </g> <g> <path class="st2" d="M10.5,23.2L10.5,23.2c-0.4-0.4-1-0.4-1.3,0l-1.1,1.1c-0.4,0.4-0.4,1,0,1.3l0,0c0.4,0.4,1,0.4,1.3,0l1.1-1.1 C10.9,24.2,10.9,23.6,10.5,23.2z"></path> </g> <g> <path class="st2" d="M6.7,23.2L6.7,23.2c-0.2-0.5-0.8-0.7-1.2-0.5L2.2,24c-0.5,0.2-0.7,0.8-0.5,1.2l0,0c0.2,0.5,0.8,0.7,1.2,0.5 l3.2-1.3C6.6,24.2,6.9,23.6,6.7,23.2z"></path> </g> <g> <path class="st2" d="M6.9,26.8L6.9,26.8c-0.4-0.4-1-0.4-1.3,0l-1.1,1.1c-0.4,0.4-0.4,1,0,1.3h0c0.4,0.4,1,0.4,1.3,0l1.1-1.1 C7.2,27.7,7.2,27.1,6.9,26.8z"></path> </g> <g> <path class="st0" d="M16,13.8L16,13.8c0.5,0.2,1,0,1.2-0.5l1.3-3.2c0.2-0.5,0-1-0.5-1.2h0c-0.5-0.2-1,0-1.2,0.5l-1.3,3.2 C15.3,13.1,15.5,13.7,16,13.8z"></path> </g> <g> <path class="st0" d="M15.9,17.6L15.9,17.6c0.4,0.4,1,0.4,1.3,0l1.1-1.1c0.4-0.4,0.4-1,0-1.3l0,0c-0.4-0.4-1-0.4-1.3,0l-1.1,1.1 C15.5,16.6,15.5,17.2,15.9,17.6z"></path> </g> <g> <path class="st0" d="M19.5,14.1L19.5,14.1c0.4,0.4,1,0.4,1.3,0L22,13c0.4-0.4,0.4-1,0-1.3v0c-0.4-0.4-1-0.4-1.3,0l-1.1,1.1 C19.2,13.1,19.2,13.7,19.5,14.1z"></path> </g> <g> <g> <path d="M21.2,30.5h5.1v2.8H18V19.4h3.2V30.5z"></path> <path d="M34.1,23.9h3v9.4h-3v-1.6c-0.3,1.3-1.8,1.9-2.7,1.9c-2.5,0-3.7-1.7-3.7-4.6v-5.1h3v4.9c0,1.5,0.9,2,1.6,2 c0.8,0,1.8-0.4,1.8-2V23.9z"></path> <path d="M49,28.2v5.1h-3v-4.9c0-1.5-0.9-2-1.6-2c-0.8,0-1.8,0.4-1.8,2v4.9h-3v-9.4h3v1.6c0.4-1.3,1.8-1.9,2.7-1.9 C47.8,23.6,49,25.3,49,28.2z"></path> <path d="M51,20.7c0-1,0.8-1.7,1.9-1.7s1.8,0.7,1.8,1.7c0,0.9-0.8,1.7-1.8,1.7S51,21.7,51,20.7z M51.4,33.3v-9.4h3v9.4H51.4z"></path> <path d="M62.8,21.5c-1.5,0-2,0.8-2,1.9v0.5h2v2.3h-2v7.2h-3v-7.2h-1.8v-2.3h1.8v-0.6c0-3,1.6-4.5,4.4-4.5h1.2v2.8H62.8z"></path> <path d="M63.7,28.6c0-3,2.4-5,5.1-5c2.7,0,5.1,2,5.1,5c0,3-2.4,4.9-5.1,4.9C66.1,33.5,63.7,31.6,63.7,28.6z M70.9,28.6 c0-1.3-0.9-2.2-2.1-2.2c-1.1,0-2.1,0.9-2.1,2.2c0,1.3,0.9,2.2,2.1,2.2C70,30.8,70.9,29.9,70.9,28.6z"></path> <path d="M83,23.9l-0.7,2.8c-0.6-0.3-1-0.4-1.4-0.4c-1.2,0-2.1,1-2.1,3.8v3.1h-3v-9.4h2.9v2c0.5-1.6,1.7-2.2,2.8-2.2 C82.1,23.6,82.6,23.7,83,23.9z"></path> <path d="M99.5,28.2v5.1h-3v-5c0-1.5-0.7-1.9-1.5-1.9c-0.9,0-1.6,0.6-1.6,2.3v4.6h-3v-4.9c0-1.5-0.7-2-1.5-2c-0.8,0-1.6,0.4-1.6,2 v4.9h-3v-9.4h3v1.5c0.4-1.2,1.7-1.7,2.5-1.7c1.4,0,2.4,0.7,3,1.8c0.6-1.2,2.1-1.8,3.1-1.8C98.3,23.6,99.5,25.3,99.5,28.2z"></path> </g> </g> <g> <path d="M18.1,35.6h1.4v0.2h-1.2v0.8h1.1v0.2h-1.1V38h-0.3V35.6z"></path> <path d="M21.1,37.8c-0.2-0.1-0.3-0.2-0.4-0.4c-0.1-0.2-0.1-0.4-0.1-0.6c0-0.2,0-0.5,0.1-0.6c0.1-0.2,0.2-0.3,0.4-0.4 c0.2-0.1,0.3-0.1,0.6-0.1c0.2,0,0.4,0,0.6,0.1c0.2,0.1,0.3,0.2,0.4,0.4c0.1,0.2,0.1,0.4,0.1,0.6c0,0.2,0,0.5-0.1,0.6 c-0.1,0.2-0.2,0.3-0.4,0.4c-0.2,0.1-0.3,0.1-0.6,0.1C21.5,38,21.3,37.9,21.1,37.8z M22.2,37.5c0.1-0.2,0.2-0.4,0.2-0.7 s-0.1-0.5-0.2-0.7c-0.1-0.2-0.3-0.2-0.6-0.2c-0.2,0-0.4,0.1-0.6,0.2c-0.1,0.2-0.2,0.4-0.2,0.7c0,0.3,0.1,0.5,0.2,0.7 c0.1,0.2,0.3,0.3,0.6,0.3C21.9,37.8,22.1,37.7,22.2,37.5z"></path> <path d="M25.8,38h-0.3l-0.3-0.8c0-0.1-0.1-0.2-0.1-0.2c-0.1,0-0.1,0-0.3,0h-0.6v1H24v-2.3h0.9c0.2,0,0.4,0.1,0.6,0.2 c0.1,0.1,0.2,0.3,0.2,0.5c0,0.2,0,0.3-0.1,0.4c-0.1,0.1-0.2,0.2-0.3,0.2c0.1,0,0.1,0,0.2,0.1c0,0,0.1,0.1,0.1,0.2L25.8,38z M24.9,36.7c0.4,0,0.5-0.1,0.5-0.4c0-0.1,0-0.2-0.1-0.3c-0.1-0.1-0.2-0.1-0.4-0.1h-0.6v0.9H24.9z"></path> <path d="M29.3,35.6V38H29v-1.7L28.3,38h-0.2l-0.8-1.7l0,1.7h-0.2v-2.3h0.2l0.9,2l0.9-2H29.3z"></path> <path d="M32.2,37.4H31L30.7,38h-0.3l1-2.3h0.2l1,2.3h-0.3L32.2,37.4z M32.1,37.1L31.6,36l-0.5,1.2H32.1z"></path> <path d="M34.2,35.9h-0.8v-0.2h1.9v0.2h-0.8V38h-0.3V35.9z"></path> <path d="M36.4,35.6h0.3V38h-0.3V35.6z"></path> <path d="M38.4,37.8c-0.2-0.1-0.3-0.2-0.4-0.4c-0.1-0.2-0.1-0.4-0.1-0.6c0-0.2,0-0.5,0.1-0.6c0.1-0.2,0.2-0.3,0.4-0.4 c0.2-0.1,0.3-0.1,0.6-0.1c0.2,0,0.4,0,0.6,0.1c0.2,0.1,0.3,0.2,0.4,0.4c0.1,0.2,0.1,0.4,0.1,0.6c0,0.2,0,0.5-0.1,0.6 c-0.1,0.2-0.2,0.3-0.4,0.4C39.4,37.9,39.2,38,39,38S38.6,37.9,38.4,37.8z M39.6,37.5c0.1-0.2,0.2-0.4,0.2-0.7s-0.1-0.5-0.2-0.7 c-0.1-0.2-0.3-0.2-0.6-0.2s-0.4,0.1-0.6,0.2c-0.1,0.2-0.2,0.4-0.2,0.7c0,0.3,0.1,0.5,0.2,0.7c0.1,0.2,0.3,0.3,0.6,0.3 C39.2,37.8,39.4,37.7,39.6,37.5z"></path> <path d="M43.2,35.6V38H43l-1.4-1.9V38h-0.3v-2.3h0.2l1.4,1.9v-1.9H43.2z"></path> <path d="M44.5,37.7l0.1-0.2c0.1,0.1,0.2,0.2,0.4,0.2c0.1,0,0.3,0.1,0.4,0.1c0.2,0,0.3,0,0.4-0.1c0.1-0.1,0.2-0.2,0.2-0.3 c0-0.1,0-0.1-0.1-0.2c0,0-0.1-0.1-0.2-0.1c-0.1,0-0.2-0.1-0.3-0.1c-0.2,0-0.3-0.1-0.4-0.1s-0.2-0.1-0.3-0.2 c-0.1-0.1-0.1-0.2-0.1-0.3c0-0.1,0-0.2,0.1-0.3c0.1-0.1,0.2-0.2,0.3-0.2s0.3-0.1,0.4-0.1c0.2,0,0.3,0,0.4,0.1 c0.1,0,0.3,0.1,0.4,0.2L46,36.1c-0.1-0.1-0.2-0.2-0.3-0.2c-0.1,0-0.2-0.1-0.4-0.1c-0.2,0-0.3,0-0.4,0.1c-0.1,0.1-0.2,0.2-0.2,0.3 c0,0.1,0,0.2,0.1,0.3c0.1,0.1,0.2,0.1,0.4,0.2c0.2,0,0.4,0.1,0.5,0.1c0.1,0,0.2,0.1,0.3,0.2c0.1,0.1,0.1,0.2,0.1,0.3 c0,0.1,0,0.2-0.1,0.3c-0.1,0.1-0.2,0.2-0.3,0.2S45.5,38,45.3,38C45,38,44.7,37.9,44.5,37.7z"></path> <path d="M49,37.7l0.1-0.2c0.1,0.1,0.2,0.2,0.4,0.2c0.1,0,0.3,0.1,0.4,0.1c0.2,0,0.3,0,0.4-0.1c0.1-0.1,0.2-0.2,0.2-0.3 c0-0.1,0-0.1-0.1-0.2c0,0-0.1-0.1-0.2-0.1c-0.1,0-0.2-0.1-0.3-0.1c-0.2,0-0.3-0.1-0.4-0.1s-0.2-0.1-0.3-0.2 C49,36.5,49,36.4,49,36.3c0-0.1,0-0.2,0.1-0.3c0.1-0.1,0.2-0.2,0.3-0.2s0.3-0.1,0.4-0.1c0.2,0,0.3,0,0.4,0.1 c0.1,0,0.3,0.1,0.4,0.2l-0.1,0.2c-0.1-0.1-0.2-0.2-0.3-0.2c-0.1,0-0.2-0.1-0.4-0.1c-0.2,0-0.3,0-0.4,0.1c-0.1,0.1-0.2,0.2-0.2,0.3 c0,0.1,0,0.2,0.1,0.3c0.1,0.1,0.2,0.1,0.4,0.2c0.2,0,0.4,0.1,0.5,0.1c0.1,0,0.2,0.1,0.3,0.2c0.1,0.1,0.1,0.2,0.1,0.3 c0,0.1,0,0.2-0.1,0.3c-0.1,0.1-0.2,0.2-0.3,0.2S50,38,49.8,38C49.5,38,49.2,37.9,49,37.7z"></path> <path d="M53.4,37.4h-1.2L52,38h-0.3l1-2.3h0.2l1,2.3h-0.3L53.4,37.4z M53.3,37.1L52.8,36l-0.5,1.2H53.3z"></path> <path d="M55.1,35.6H56c0.2,0,0.4,0.1,0.6,0.2c0.1,0.1,0.2,0.3,0.2,0.5c0,0.2-0.1,0.4-0.2,0.5c-0.1,0.1-0.3,0.2-0.6,0.2h-0.7v1 h-0.3V35.6z M56,36.7c0.2,0,0.3,0,0.4-0.1c0.1-0.1,0.1-0.2,0.1-0.3c0-0.1,0-0.2-0.1-0.3c-0.1-0.1-0.2-0.1-0.4-0.1h-0.6v0.9H56z"></path> <path d="M61.6,37.8L61.5,38c-0.2-0.1-0.3-0.2-0.5-0.3c-0.1,0.1-0.2,0.2-0.3,0.2C60.6,38,60.5,38,60.3,38c-0.1,0-0.3,0-0.4-0.1 c-0.1-0.1-0.2-0.1-0.3-0.2c-0.1-0.1-0.1-0.2-0.1-0.3c0-0.1,0-0.3,0.1-0.4c0.1-0.1,0.2-0.2,0.4-0.3c-0.1-0.1-0.2-0.2-0.2-0.3 c0-0.1-0.1-0.2-0.1-0.2c0-0.2,0.1-0.3,0.2-0.4c0.1-0.1,0.2-0.1,0.4-0.1c0.2,0,0.3,0,0.4,0.1s0.1,0.2,0.1,0.3c0,0.1,0,0.2-0.1,0.3 c-0.1,0.1-0.2,0.2-0.4,0.3l0.5,0.6c0.1-0.2,0.2-0.4,0.2-0.7h0.2c0,0.2,0,0.3-0.1,0.5c0,0.2-0.1,0.3-0.2,0.4 C61.3,37.6,61.4,37.7,61.6,37.8z M60.9,37.5l-0.6-0.7c-0.2,0.1-0.3,0.2-0.3,0.3c-0.1,0.1-0.1,0.2-0.1,0.3c0,0.1,0,0.2,0.1,0.3 c0.1,0.1,0.2,0.1,0.4,0.1C60.6,37.8,60.7,37.7,60.9,37.5z M60.2,35.9c-0.1,0.1-0.1,0.1-0.1,0.2c0,0.1,0,0.1,0,0.2 c0,0.1,0.1,0.1,0.2,0.2c0.1-0.1,0.2-0.2,0.3-0.2c0.1-0.1,0.1-0.1,0.1-0.2c0-0.1,0-0.1-0.1-0.2c-0.1-0.1-0.1-0.1-0.2-0.1 C60.3,35.8,60.3,35.9,60.2,35.9z"></path> <path d="M66.5,35.6V38h-0.2v-1.7L65.6,38h-0.2l-0.8-1.7l0,1.7h-0.2v-2.3h0.2l0.9,2l0.9-2H66.5z"></path> <path d="M67.9,35.6h1.5v0.2h-1.2v0.8h1.1v0.2h-1.1v0.8h1.2V38h-1.5V35.6z M68.6,35.4l0.3-0.5h0.3l-0.4,0.5H68.6z"></path> <path d="M70.7,35.6h0.8c0.4,0,0.7,0.1,0.9,0.3c0.2,0.2,0.3,0.5,0.3,0.9c0,0.4-0.1,0.7-0.3,0.9c-0.2,0.2-0.5,0.3-0.9,0.3h-0.8V35.6 z M71.4,37.7c0.3,0,0.5-0.1,0.7-0.2c0.2-0.2,0.2-0.4,0.2-0.7c0-0.6-0.3-0.9-0.9-0.9h-0.5v1.9H71.4z"></path> <path d="M73.9,35.6h0.3V38h-0.3V35.6z"></path> <path d="M76,37.8c-0.2-0.1-0.3-0.2-0.4-0.4c-0.1-0.2-0.1-0.4-0.1-0.6c0-0.2,0-0.5,0.1-0.6c0.1-0.2,0.2-0.3,0.4-0.4 s0.4-0.1,0.6-0.1c0.2,0,0.3,0,0.4,0.1c0.1,0,0.2,0.1,0.3,0.2l-0.1,0.2C77.1,36,77,36,76.9,35.9c-0.1,0-0.2-0.1-0.4-0.1 c-0.3,0-0.5,0.1-0.6,0.2c-0.1,0.2-0.2,0.4-0.2,0.7c0,0.3,0.1,0.5,0.2,0.7c0.1,0.2,0.3,0.2,0.6,0.2c0.1,0,0.2,0,0.4-0.1 c0.1,0,0.2-0.1,0.3-0.2l0.1,0.2c-0.1,0.1-0.2,0.2-0.3,0.2c-0.1,0-0.3,0.1-0.4,0.1C76.3,38,76.1,37.9,76,37.8z"></path> <path d="M79,37.8c-0.2-0.1-0.3-0.2-0.4-0.4c-0.1-0.2-0.1-0.4-0.1-0.6c0-0.2,0-0.5,0.1-0.6c0.1-0.2,0.2-0.3,0.4-0.4 c0.2-0.1,0.3-0.1,0.6-0.1c0.2,0,0.4,0,0.6,0.1c0.2,0.1,0.3,0.2,0.4,0.4c0.1,0.2,0.1,0.4,0.1,0.6c0,0.2,0,0.5-0.1,0.6 c-0.1,0.2-0.2,0.3-0.4,0.4c-0.2,0.1-0.3,0.1-0.6,0.1C79.3,38,79.1,37.9,79,37.8z M80.1,37.5c0.1-0.2,0.2-0.4,0.2-0.7 s-0.1-0.5-0.2-0.7c-0.1-0.2-0.3-0.2-0.6-0.2c-0.2,0-0.4,0.1-0.6,0.2c-0.1,0.2-0.2,0.4-0.2,0.7c0,0.3,0.1,0.5,0.2,0.7 c0.1,0.2,0.3,0.3,0.6,0.3C79.8,37.8,80,37.7,80.1,37.5z"></path> <path d="M81.8,37h0.9v0.2h-0.9V37z"></path> <path d="M83.9,37.7l0.1-0.2c0.1,0.1,0.2,0.2,0.4,0.2c0.1,0,0.3,0.1,0.4,0.1c0.2,0,0.3,0,0.4-0.1c0.1-0.1,0.2-0.2,0.2-0.3 c0-0.1,0-0.1-0.1-0.2c0,0-0.1-0.1-0.2-0.1c-0.1,0-0.2-0.1-0.3-0.1c-0.2,0-0.3-0.1-0.4-0.1c-0.1,0-0.2-0.1-0.3-0.2 s-0.1-0.2-0.1-0.3c0-0.1,0-0.2,0.1-0.3c0.1-0.1,0.2-0.2,0.3-0.2c0.1-0.1,0.3-0.1,0.4-0.1c0.2,0,0.3,0,0.4,0.1 c0.1,0,0.3,0.1,0.4,0.2l-0.1,0.2c-0.1-0.1-0.2-0.2-0.3-0.2c-0.1,0-0.2-0.1-0.4-0.1c-0.2,0-0.3,0-0.4,0.1c-0.1,0.1-0.2,0.2-0.2,0.3 c0,0.1,0,0.2,0.1,0.3c0.1,0.1,0.2,0.1,0.4,0.2c0.2,0,0.4,0.1,0.5,0.1c0.1,0,0.2,0.1,0.3,0.2c0.1,0.1,0.1,0.2,0.1,0.3 c0,0.1,0,0.2-0.1,0.3c-0.1,0.1-0.2,0.2-0.3,0.2S84.9,38,84.8,38C84.4,38,84.1,37.9,83.9,37.7z"></path> <path d="M87.3,37.8c-0.2-0.1-0.3-0.2-0.4-0.4c-0.1-0.2-0.1-0.4-0.1-0.6c0-0.2,0-0.5,0.1-0.6c0.1-0.2,0.2-0.3,0.4-0.4 c0.2-0.1,0.3-0.1,0.6-0.1c0.2,0,0.4,0,0.6,0.1c0.2,0.1,0.3,0.2,0.4,0.4c0.1,0.2,0.1,0.4,0.1,0.6c0,0.2,0,0.5-0.1,0.6 c-0.1,0.2-0.2,0.3-0.4,0.4C88.2,37.9,88,38,87.8,38C87.6,38,87.4,37.9,87.3,37.8z M88.4,37.5c0.1-0.2,0.2-0.4,0.2-0.7 s-0.1-0.5-0.2-0.7c-0.1-0.2-0.3-0.2-0.6-0.2c-0.2,0-0.4,0.1-0.6,0.2S87,36.5,87,36.8c0,0.3,0.1,0.5,0.2,0.7s0.3,0.3,0.6,0.3 C88.1,37.8,88.3,37.7,88.4,37.5z"></path> <path d="M90.6,37.8c-0.2-0.1-0.3-0.2-0.4-0.4c-0.1-0.2-0.1-0.4-0.1-0.6c0-0.2,0-0.5,0.1-0.6c0.1-0.2,0.2-0.3,0.4-0.4 c0.2-0.1,0.4-0.1,0.6-0.1c0.2,0,0.3,0,0.4,0.1c0.1,0,0.2,0.1,0.3,0.2l-0.1,0.2c-0.1-0.1-0.2-0.2-0.3-0.2c-0.1,0-0.2-0.1-0.4-0.1 c-0.3,0-0.5,0.1-0.6,0.2c-0.1,0.2-0.2,0.4-0.2,0.7c0,0.3,0.1,0.5,0.2,0.7c0.1,0.2,0.3,0.2,0.6,0.2c0.1,0,0.2,0,0.4-0.1 c0.1,0,0.2-0.1,0.3-0.2l0.1,0.2c-0.1,0.1-0.2,0.2-0.3,0.2c-0.1,0-0.3,0.1-0.4,0.1C90.9,38,90.8,37.9,90.6,37.8z"></path> <path d="M93.2,35.6h0.3V38h-0.3V35.6z"></path> <path d="M96.4,37.4h-1.2L94.9,38h-0.3l1-2.3h0.2l1,2.3h-0.3L96.4,37.4z M96.3,37.1L95.8,36l-0.5,1.2H96.3z"></path> <path d="M98.1,35.6h0.3v2.1h1.2V38h-1.4V35.6z"></path> </g> </g> </svg>