<svg xmlns="http://www.w3.org/2000/svg" xmlns:xlink="http://www.w3.org/1999/xlink" version="1.1" id="Calque_1" x="0px" y="0px" viewBox="0 0 40 40" style="enable-background:new 0 0 40 40;" xml:space="preserve"> <style type="text/css"> .st0{fill:#5E5EF7;} .st1{fill:none;stroke:#FFFFFF;stroke-width:1.5;stroke-linecap:round;stroke-linejoin:round;} </style> <path class="st0" d="M7.5,4.5c5.7-3.8,20.8-3.4,29.1,5.7s-0.8,22.9-7.3,25.9c-6.5,3-23,2.8-27.5-7.3S1.8,8.2,7.5,4.5z"></path> <path class="st1" d="M24,28c2.2,0,4-1.8,4-4s-1.8-4-4-4s-4,1.8-4,4S21.8,28,24,28z"></path> <path class="st1" d="M28.8,18.1c0-4.8-1.1-7.6-8.8-7.6c-7.7,0-8.8,2.9-8.8,9.5s1,9.5,7.7,9.5"></path> <path class="st1" d="M16,15h8"></path> <path class="st1" d="M27,27l3,3"></path> </svg>