<svg xmlns="http://www.w3.org/2000/svg" xmlns:xlink="http://www.w3.org/1999/xlink" version="1.1" id="Calque_1" x="0px" y="0px" viewBox="0 0 217.3 75" style="enable-background:new 0 0 217.3 75;" xml:space="preserve"> <style type="text/css"> .st0{fill:#1F55FF;} .st1{fill:#FFD228;} .st2{fill:#A484F8;} .st3{fill:#00C689;} .st4{fill:#898989;} .st5{fill:#666666;} </style> <g> <g> <path class="st0" d="M30.7,23.7L30.7,23.7c-1.1,0-2.1-1-2.1-2.1v-3.1c0-1.1,1-2.1,2.1-2.1l0,0c1.1,0,2.1,1,2.1,2.1v3.1 C32.8,22.8,31.8,23.7,30.7,23.7z"></path> </g> <g> <path class="st1" d="M24.8,18.1L24.8,18.1c-1,0.5-2.3,0-2.5-1.1l-2.9-6.9c-0.5-1,0-2.3,1.1-2.5l0,0c1-0.5,2.3,0,2.5,1.1l2.9,6.9 C26.2,16.4,25.8,17.5,24.8,18.1z"></path> </g> <g> <path class="st0" d="M30.7,12.7L30.7,12.7c-1.1,0-2.1-1-2.1-2.1V7.5c0-1.1,1-2.1,2.1-2.1l0,0c1.1,0,2.1,1,2.1,2.1v3.1 C32.8,11.7,31.8,12.7,30.7,12.7z"></path> </g> <g> <path class="st2" d="M22.4,32L22.4,32c0,1.1-1,2.1-2.1,2.1h-3.1c-1.1,0-2.1-1-2.1-2.1l0,0c0-1.1,1-2.1,2.1-2.1h3.1 C21.4,30.1,22.4,30.8,22.4,32z"></path> </g> <g> <path class="st1" d="M24.9,26L24.9,26c-0.8,0.8-2.1,0.8-2.9,0l-2.3-2.3c-0.8-0.8-0.8-2.1,0-2.9l0,0c0.8-0.8,2.1-0.8,2.9,0l2.3,2.3 C25.8,24,25.8,25.2,24.9,26z"></path> </g> <g> <path class="st1" d="M16.6,26.1L16.6,26.1c-0.5,1-1.6,1.4-2.5,1.1l-6.9-2.9c-1-0.5-1.4-1.6-1.1-2.5l0,0c0.5-1,1.6-1.4,2.5-1.1 l6.9,2.9C16.6,24,17.1,25,16.6,26.1z"></path> </g> <g> <path class="st1" d="M17.1,18.6L17.1,18.6c-0.8,0.8-2.1,0.8-2.9,0l-2.3-2.4c-0.8-0.8-0.8-2.1,0-2.9l0,0c0.8-0.8,2.1-0.8,2.9,0 l2.3,2.3C17.9,16.4,17.9,17.6,17.1,18.6z"></path> </g> <g> <path class="st2" d="M11.9,32L11.9,32c0,1.1-1,2.1-2.1,2.1H6.6c-1.1,0-2.1-1-2.1-2.1l0,0c0-1.1,1-2.1,2.1-2.1h3.1 C10.9,30.1,11.9,30.8,11.9,32z"></path> </g> <g> <path class="st3" d="M30.7,40.1L30.7,40.1c-1.1,0-2.1,1-2.1,2.1v3.1c0,1.1,1,2.1,2.1,2.1l0,0c1.1,0,2.1-1,2.1-2.1v-3.1 C32.8,41.1,31.8,40.1,30.7,40.1z"></path> </g> <g> <path class="st3" d="M24.8,45.9L24.8,45.9c-1-0.5-2.3,0-2.5,1.1l-2.9,7c-0.5,1,0,2.3,1.1,2.5l0,0c1,0.5,2.3,0,2.5-1.1l2.9-6.9 C26.2,47.7,25.8,46.5,24.8,45.9z"></path> </g> <g> <path class="st3" d="M30.7,51.3L30.7,51.3c-1.1,0-2.1,1-2.1,2.1v3.1c0,1.1,1,2.1,2.1,2.1l0,0c1.1,0,2.1-1,2.1-2.1v-3.1 C32.8,52.2,31.8,51.3,30.7,51.3z"></path> </g> <g> <path class="st2" d="M24.9,38L24.9,38c-0.8-0.8-2.1-0.8-2.9,0l-2.3,2.3c-0.8,0.8-0.8,2.1,0,2.9l0,0c0.8,0.8,2.1,0.8,2.9,0l2.3-2.3 C25.8,40.1,25.8,38.9,24.9,38z"></path> </g> <g> <path class="st2" d="M16.6,37.8L16.6,37.8c-0.5-1-1.6-1.4-2.5-1.1l-6.9,2.8c-1,0.5-1.4,1.6-1.1,2.5l0,0c0.5,1,1.6,1.4,2.5,1.1 l6.9-2.9C16.6,40.1,17.1,38.9,16.6,37.8z"></path> </g> <g> <path class="st2" d="M17.1,45.5L17.1,45.5c-0.8-0.8-2.1-0.8-2.9,0l-2.3,2.3c-0.8,0.8-0.8,2.1,0,2.9l0,0c0.8,0.8,2.1,0.8,2.9,0 l2.3-2.3C17.9,47.7,17.9,46.3,17.1,45.5z"></path> </g> <g> <path class="st0" d="M36.6,17.8L36.6,17.8c1,0.5,2.3,0,2.5-1.1L42,9.8c0.5-1,0-2.3-1.1-2.5l0,0c-1-0.5-2.3,0-2.5,1.1l-2.9,6.9 C35.2,16.3,35.7,17.5,36.6,17.8z"></path> </g> <g> <path class="st0" d="M36.5,26L36.5,26c0.8,0.8,2.1,0.8,2.9,0l2.3-2.3c0.8-0.8,0.8-2.1,0-2.9l0,0c-0.8-0.8-2.1-0.8-2.9,0l-2.3,2.3 C35.7,24,35.7,25.2,36.5,26z"></path> </g> <g> <path class="st0" d="M44.2,18.2L44.2,18.2c0.8,0.8,2.1,0.8,2.9,0l2.3-2.3c0.8-0.8,0.8-2.1,0-2.9l0,0c-0.8-0.8-2.1-0.8-2.9,0 l-2.3,2.3C43.5,16.3,43.5,17.5,44.2,18.2z"></path> </g> <g> <g> <path class="st4" d="M47.8,53.5h10.9v5.9H41.1V29.6h6.8C47.8,29.6,47.8,53.5,47.8,53.5z"></path> <path class="st4" d="M75.2,39.3h6.4v20.2h-6.4v-3.5c-0.6,2.9-4,4-5.8,4c-5.3,0-8-3.6-8-9.8V39.3h6.4v10.4c0,3,1.9,4.3,3.5,4.3 c1.8,0,3.9-1,3.9-4.3C75.2,49.8,75.2,39.3,75.2,39.3z"></path> <path class="st4" d="M107,48.7v10.9h-6.4V49.1c0-3-1.9-4.3-3.5-4.3c-1.8,0-3.9,1-3.9,4.3v10.4h-6.4V39.3h6.4v3.6 c0.8-2.7,4-4,5.8-4C104.5,38.9,107,42.5,107,48.7z"></path> <path class="st4" d="M111.3,32.6c0-2.1,1.8-3.6,4-3.6c2.2,0,3.9,1.6,3.9,3.6c0,2.1-1.8,3.6-3.9,3.6S111.3,34.7,111.3,32.6z M112.2,59.4V39.3h6.4v20.2H112.2z"></path> <path class="st4" d="M136.6,34.4c-3.1,0-4.1,1.6-4.3,4v1.1h4.3v4.8h-4.3v15.3h-6.4V44.3h-3.6v-4.8h3.6v-1.3 c0-6.4,3.5-9.8,9.3-9.8h2.5v5.9C137.7,34.4,136.6,34.4,136.6,34.4z"></path> <path class="st4" d="M138.5,49.3c0-6.4,5.1-10.5,10.9-10.5s10.9,4.1,10.9,10.5s-5.3,10.5-10.9,10.5S138.5,55.8,138.5,49.3z M153.8,49.3c0-2.7-1.9-4.6-4.5-4.6c-2.4,0-4.5,1.9-4.5,4.6c0,2.7,1.9,4.6,4.5,4.6C151.8,54,153.8,52.2,153.8,49.3z"></path> <path class="st4" d="M179.7,39.5l-1.4,6c-1.3-0.8-2.3-0.8-2.9-0.8c-2.5,0-4.6,2.1-4.6,8v6.8h-6.4V39.3h6.3v4.3 c1.1-3.4,3.5-4.8,6-4.8C177.6,38.9,178.8,38.9,179.7,39.5z"></path> <path class="st4" d="M214.9,48.7v10.9h-6.4V48.8c0-3-1.6-4.1-3.1-4.1c-1.9,0-3.5,1.4-3.5,4.9v9.8h-6.4V48.9c0-3-1.6-4.1-3.1-4.1 c-1.8,0-3.5,0.8-3.5,4.1v10.5h-6.4V39.3h6.4v3.1c0.8-2.5,3.5-3.6,5.4-3.6c3,0,5.1,1.4,6.4,3.9c1.4-2.7,4.5-3.9,6.5-3.9 C212.3,38.9,214.9,42.5,214.9,48.7z"></path> </g> </g> <g> <path class="st5" d="M41.2,64.4h3v0.5h-2.5v1.8h2.4v0.5h-2.4v2.3h-0.6v-4.8h0.1V64.4z"></path> <path class="st4" d="M47.6,69.2c-0.4-0.1-0.6-0.5-0.8-0.8c-0.1-0.4-0.4-0.8-0.4-1.3c0-0.5,0.1-1,0.4-1.3c0.1-0.4,0.5-0.6,0.8-0.8 c0.4-0.1,0.8-0.4,1.3-0.4s0.8,0.1,1.3,0.4c0.4,0.1,0.6,0.5,0.8,0.8c0.1,0.4,0.4,0.8,0.4,1.3c0,0.5-0.1,1-0.4,1.3 c-0.1,0.4-0.5,0.6-0.8,0.8c-0.4,0.1-0.8,0.4-1.1,0.4C48.2,69.6,48,69.4,47.6,69.2z M50,68.5c0.4-0.4,0.4-0.8,0.4-1.4 c0-0.6-0.1-1.1-0.5-1.4s-0.6-0.5-1.3-0.5c-0.5,0-1,0.1-1.3,0.5c0,0.4-0.1,0.8-0.1,1.4c0,0.6,0.1,1.1,0.5,1.4 c0.4,0.4,0.6,0.5,1.3,0.5C49.2,69.1,49.7,68.8,50,68.5z"></path> <path class="st4" d="M57.7,69.4h-0.6l-0.6-1.6c0-0.1-0.1-0.4-0.4-0.5c-0.1,0-0.4-0.1-0.5-0.1h-1.3v2.3h-0.6v-4.9h1.9 c0.5,0,1,0.1,1.3,0.4c0.4,0.1,0.5,0.6,0.5,1c0,0.4-0.1,0.6-0.4,0.8c-0.1,0.1-0.5,0.4-0.8,0.5c0.1,0,0.4,0.1,0.4,0.1 c0.1,0.1,0.1,0.4,0.4,0.5L57.7,69.4z M55.8,66.8c0.8,0,1.1-0.4,1.1-1c0-0.4-0.1-0.5-0.4-0.6s-0.5-0.1-0.8-0.1h-1.3V67h1.3 L55.8,66.8L55.8,66.8z"></path> <path class="st4" d="M65,64.4v4.9h-0.5v-3.6l-1.6,3.6h-0.5l-1.6-3.6v3.6h-0.5v-4.9h0.5l1.9,4.3l1.9-4.3H65z"></path> <path class="st4" d="M71.3,68h-2.5l-0.5,1.4h-0.6l2.3-4.9h0.5l2.3,4.9h-0.8L71.3,68z M70.9,67.6l-1.1-2.5l-1.1,2.5H70.9z"></path> <path class="st4" d="M75.4,65h-1.8v-0.5h4V65h-1.8v4.5h-0.6V65H75.4z"></path> <path class="st4" d="M80.1,64.4h0.6v4.9h-0.6C80.1,69.3,80.1,64.4,80.1,64.4z"></path> <path class="st4" d="M84.5,69.2c-0.4-0.1-0.6-0.5-0.8-0.8c-0.2-0.4-0.4-0.8-0.4-1.3c0-0.5,0.1-1,0.4-1.3c0.1-0.4,0.5-0.6,0.8-0.8 c0.4-0.1,0.8-0.4,1.3-0.4s0.8,0.1,1.3,0.4c0.4,0.1,0.6,0.5,0.8,0.8c0.2,0.4,0.4,0.8,0.4,1.3c0,0.5-0.1,1-0.4,1.2 c-0.1,0.4-0.5,0.6-0.8,0.8c-0.4,0.1-0.8,0.4-1.1,0.4C85.3,69.6,84.8,69.4,84.5,69.2z M87,68.5c0.4-0.4,0.5-0.8,0.5-1.4 c0-0.6-0.1-1.1-0.5-1.4s-0.6-0.5-1.3-0.5c-0.6,0-1,0.1-1.3,0.5c-0.4,0.4-0.4,0.7-0.4,1.4s0.1,1.1,0.5,1.4s0.6,0.5,1.3,0.5 C86.2,69.1,86.6,68.8,87,68.5z"></path> <path class="st4" d="M94.8,64.4v4.9h-0.5l-3.1-4.1v4h-0.5v-4.9h0.5l3,4v-4L94.8,64.4L94.8,64.4z"></path> <path class="st4" d="M97.5,68.8l0.1-0.5c0.4,0.1,0.5,0.4,0.8,0.5c0.4,0.1,0.5,0.1,1,0.1c0.4,0,0.6,0,1-0.1 c0.1-0.1,0.4-0.4,0.4-0.6c0-0.1,0-0.4-0.1-0.5c-0.1-0.1-0.4-0.1-0.5-0.4c-0.1,0-0.4-0.1-0.6-0.1c-0.4-0.1-0.6-0.1-1-0.4 c-0.4-0.1-0.5-0.1-0.6-0.5c-0.1-0.1-0.1-0.5-0.1-0.6c0-0.4,0-0.5,0.1-0.8c0.1-0.1,0.4-0.4,0.6-0.5s0.6-0.1,1-0.1s0.6,0,1,0.1 s0.5,0.4,0.8,0.5l-0.1,0.5c-0.1-0.1-0.5-0.4-0.6-0.5c-0.1-0.1-0.5-0.1-0.8-0.1c-0.4,0-0.6,0.1-1,0.4c-0.1,0.1-0.4,0.4-0.4,0.6 s0.1,0.5,0.4,0.6c0.1,0.1,0.5,0.1,0.8,0.4c0.5,0.1,0.8,0.1,1,0.4c0.4,0.1,0.5,0.1,0.6,0.4c0.1,0.1,0.4,0.5,0.4,0.6 c0,0.4,0,0.5-0.1,0.8c-0.1,0.1-0.4,0.4-0.6,0.5c-0.4,0.1-0.6,0.1-1,0.1C98.4,69.6,97.8,69.2,97.5,68.8z"></path> <path class="st4" d="M107,68.8l0.1-0.5c0.4,0.1,0.5,0.4,0.8,0.5c0.4,0.1,0.5,0.1,1,0.1c0.4,0,0.6,0,1-0.1c0.1-0.1,0.4-0.4,0.4-0.6 c0-0.1,0-0.4-0.1-0.5c-0.1-0.1-0.4-0.1-0.5-0.4c-0.1,0-0.4-0.1-0.6-0.1c-0.4-0.1-0.6-0.1-1-0.4c-0.4-0.1-0.5-0.1-0.6-0.5 c-0.1,0-0.1-0.5-0.1-0.6c0-0.4,0-0.5,0.1-0.8c0.1-0.1,0.4-0.4,0.6-0.5c0.2-0.1,0.6-0.1,1-0.1s0.6,0,1,0.1s0.5,0.4,0.8,0.5 l-0.1,0.5c-0.1-0.1-0.5-0.4-0.6-0.5s-0.5-0.1-0.8-0.1s-0.6,0.1-1,0.4c-0.1,0.1-0.4,0.4-0.4,0.6s0.1,0.5,0.4,0.6 c0.1,0.1,0.5,0.1,0.8,0.4c0.5,0.1,0.8,0.1,1,0.4c0.4,0.1,0.5,0.1,0.6,0.4c0.1,0.1,0.4,0.5,0.4,0.6c0,0.4,0,0.5-0.1,0.8 c-0.1,0.1-0.4,0.4-0.6,0.5c-0.4,0.1-0.6,0.1-1,0.1C108,69.6,107.5,69.2,107,68.8z"></path> <path class="st4" d="M116.4,68h-2.5l-0.5,1.3h-0.6l2.3-4.9h0.5l2.3,4.9h-0.6L116.4,68z M116.3,67.6l-1.1-2.5l-1,2.5H116.3z"></path> <path class="st4" d="M120.2,64.4h1.9c0.5,0,1,0.1,1.1,0.4c0.4,0.4,0.5,0.6,0.5,1c0,0.5-0.1,0.8-0.5,1c-0.4,0.4-0.6,0.4-1.1,0.4 h-1.4v2.3H120L120.2,64.4L120.2,64.4L120.2,64.4z M122.1,66.8c0.4,0,0.6,0,0.8-0.1c0.1-0.1,0.4-0.4,0.4-0.6s-0.1-0.5-0.4-0.6 c-0.1-0.1-0.5-0.1-0.8-0.1h-1.4v1.8h1.4V66.8z"></path> <path class="st4" d="M134,69.1l-0.4,0.4c-0.4-0.1-0.6-0.4-1-0.6c-0.1,0.1-0.5,0.4-0.6,0.5c-0.4,0.1-0.5,0.1-0.8,0.1 c-0.4,0-0.6,0-0.8-0.1c-0.4-0.1-0.5-0.4-0.5-0.5c-0.1-0.1-0.1-0.5-0.1-0.6c0-0.4,0.1-0.6,0.4-0.8c0.1-0.1,0.5-0.5,0.8-0.6 c-0.1-0.4-0.4-0.5-0.5-0.6c-0.1-0.1-0.1-0.4-0.1-0.5c0-0.4,0.1-0.6,0.4-0.8s0.5-0.4,1-0.4c0.4,0,0.6,0.1,0.8,0.4s0.4,0.5,0.4,0.8 c0,0.4,0,0.5-0.1,0.6c-0.1,0.1-0.5,0.5-0.8,0.6l1.1,1.3c0.1-0.5,0.4-1,0.4-1.6h0.5c0,0.4,0,0.8-0.1,1.1c-0.1,0.4-0.1,0.6-0.4,0.8 C133.2,68.6,133.6,68.8,134,69.1z M132.5,68.5l-1.3-1.4c-0.4,0.1-0.5,0.4-0.6,0.6c-0.1,0.1-0.1,0.4-0.1,0.6s0.1,0.5,0.4,0.6 c0.1,0.1,0.5,0.1,0.8,0.1C131.9,69.1,132.1,68.8,132.5,68.5z M131,65c-0.1,0.1-0.1,0.4-0.1,0.5c0,0.1,0,0.4,0.1,0.4 c0,0.1,0.1,0.4,0.4,0.5c0.4-0.1,0.5-0.4,0.6-0.5c0.1-0.1,0.1-0.4,0.1-0.5s0-0.4-0.1-0.5s-0.4-0.1-0.5-0.1 C131.4,64.8,131.1,64.8,131,65z"></path> <path class="st4" d="M144.5,64.4v4.9h-0.5v-3.6l-1.6,3.6H142l-1.6-3.6v3.6h-0.6v-4.9h0.5l1.9,4.3l1.9-4.3H144.5z"></path> <path class="st4" d="M147.4,64.4h3.1v0.5H148v1.8h2.4v0.5H148v1.8h2.5v0.5h-3.1V64.4z M148.9,64l0.6-1.1h0.6l-0.8,1.1H148.9z"></path> <path class="st4" d="M153.3,64.4h1.6c0.8,0,1.4,0.1,1.8,0.6c0.5,0.5,0.6,1,0.6,1.8c0,0.8-0.1,1.4-0.6,1.8 c-0.5,0.5-1.1,0.6-1.8,0.6h-1.6C153.3,69.2,153.3,64.4,153.3,64.4z M154.9,68.8c0.6,0,1.1-0.1,1.4-0.5c0.4-0.4,0.5-0.8,0.5-1.4 c0-1.3-0.6-1.9-1.9-1.9h-1.1v4L154.9,68.8L154.9,68.8z"></path> <path class="st4" d="M160.2,64.4h0.6v4.9h-0.6V64.4z"></path> <path class="st4" d="M164.7,69.2c-0.4-0.1-0.6-0.5-0.8-0.8c-0.1-0.4-0.4-0.8-0.4-1.3c0-0.5,0.1-1,0.4-1.3c0.1-0.4,0.5-0.6,0.8-0.8 c0.4-0.1,0.8-0.4,1.3-0.4c0.4,0,0.6,0,1,0.1c0.4,0.1,0.5,0.4,0.8,0.5l-0.1,0.5c-0.1-0.1-0.5-0.4-0.6-0.5c-0.1-0.1-0.5-0.1-0.8-0.1 c-0.5,0-1,0.1-1.3,0.5c-0.4,0.4-0.5,0.8-0.5,1.4s0.1,1.1,0.5,1.4c0.4,0.4,0.6,0.5,1.3,0.5c0.4,0,0.5,0,0.8-0.1 c0.1-0.1,0.5-0.1,0.6-0.5l0.1,0.5c-0.1,0.1-0.5,0.4-0.8,0.5c-0.4,0.1-0.6,0.1-1,0.1C165.3,69.6,165.1,69.4,164.7,69.2z"></path> <path class="st4" d="M171.1,69.2c-0.4-0.1-0.6-0.5-0.8-0.8s-0.4-0.8-0.4-1.3c0-0.5,0.1-1,0.4-1.3s0.5-0.6,0.8-0.8 c0.4-0.1,0.8-0.4,1.3-0.4s0.8,0.1,1.3,0.4c0.4,0.1,0.6,0.5,0.8,0.8c0.1,0.4,0.4,0.8,0.4,1.3c0,0.5-0.1,1-0.4,1.3 c-0.1,0.4-0.5,0.6-0.8,0.8c-0.4,0.1-0.8,0.4-1.1,0.4S171.5,69.4,171.1,69.2z M173.5,68.5c0.4-0.4,0.5-0.8,0.5-1.4 c0-0.6-0.1-1.1-0.5-1.4c-0.4-0.4-0.6-0.5-1.3-0.5c-0.5,0-1,0.1-1.3,0.5c-0.4,0.4-0.5,0.8-0.5,1.4c0,0.6,0.1,1.1,0.5,1.4 c0.4,0.4,0.6,0.5,1.3,0.5C172.7,69.1,173.1,68.8,173.5,68.5z"></path> <path class="st4" d="M177.1,67.3h1.9v0.5h-1.9V67.3z"></path> <path class="st4" d="M181.5,68.8l0.1-0.5c0.4,0.1,0.5,0.4,0.8,0.5c0.4,0.1,0.5,0.1,1,0.1c0.4,0,0.6,0,1-0.1 c0.1-0.1,0.4-0.4,0.4-0.6c0-0.1,0-0.4-0.1-0.5c-0.1-0.1-0.4-0.1-0.5-0.4c-0.1,0-0.4-0.1-0.6-0.1c-0.4-0.1-0.6-0.1-1-0.4 c-0.4-0.1-0.5-0.1-0.6-0.5c-0.1-0.1-0.1-0.5-0.1-0.6c0-0.4,0-0.5,0.1-0.8c0.1-0.1,0.4-0.4,0.6-0.5c0.4-0.1,0.6-0.1,1-0.1 s0.6,0,1,0.1s0.5,0.4,0.8,0.5l-0.1,0.5c-0.1-0.1-0.5-0.4-0.6-0.5c-0.1-0.1-0.5-0.1-0.8-0.1c-0.4,0-0.6,0.1-1,0.4 c-0.1,0.1-0.4,0.4-0.4,0.6s0.1,0.5,0.4,0.6c0.1,0.1,0.5,0.1,0.8,0.4c0.5,0.1,0.8,0.1,1,0.4c0.4,0.1,0.5,0.1,0.6,0.4 c0.1,0.1,0.4,0.5,0.4,0.6c0,0.4,0,0.5-0.1,0.8c-0.1,0.1-0.4,0.4-0.6,0.5c-0.4,0.1-0.6,0.1-1,0.1C182.6,69.6,182,69.2,181.5,68.8z"></path> <path class="st4" d="M188.8,69.2c-0.4-0.1-0.6-0.5-0.8-0.8c-0.1-0.4-0.4-0.8-0.4-1.3c0-0.5,0.1-1,0.4-1.3c0.1-0.4,0.5-0.6,0.8-0.8 c0.4-0.1,0.8-0.4,1.3-0.4s0.8,0.1,1.3,0.4c0.4,0.1,0.6,0.5,0.8,0.8c0.1,0.4,0.4,0.8,0.4,1.3c0,0.5-0.1,1-0.4,1.3 c-0.1,0.4-0.5,0.6-0.8,0.8c-0.4,0.1-0.8,0.4-1.1,0.4S189.2,69.4,188.8,69.2z M191.3,68.5c0.4-0.4,0.5-0.8,0.5-1.4 c0-0.6-0.1-1.1-0.5-1.4c-0.4-0.4-0.6-0.5-1.3-0.5c-0.5,0-1,0.1-1.3,0.5c-0.4,0.4-0.5,0.8-0.5,1.4c0,0.6,0.1,1.1,0.5,1.4 c0.4,0.4,0.6,0.5,1.3,0.5C190.4,69.1,190.9,68.8,191.3,68.5z"></path> <path class="st4" d="M195.8,69.2c-0.4-0.1-0.6-0.5-0.8-0.8c-0.1-0.4-0.4-0.8-0.4-1.3c0-0.5,0.1-1,0.4-1.3c0.1-0.4,0.5-0.6,0.8-0.8 c0.4-0.1,0.8-0.4,1.3-0.4c0.4,0,0.6,0,1,0.1s0.5,0.4,0.8,0.5l-0.1,0.5c-0.1-0.1-0.5-0.4-0.6-0.5c-0.1-0.1-0.5-0.1-0.8-0.1 c-0.5,0-1,0.1-1.3,0.5c-0.4,0.4-0.5,0.8-0.5,1.4s0.1,1.1,0.5,1.4c0.4,0.4,0.6,0.5,1.3,0.5c0.4,0,0.5,0,0.8-0.1 c0.1-0.1,0.5-0.1,0.6-0.5l0.1,0.5c-0.1,0.1-0.5,0.4-0.8,0.5s-0.6,0.1-1,0.1C196.7,69.6,196.2,69.4,195.8,69.2z"></path> <path class="st4" d="M201.4,64.4h0.6v4.9h-0.6V64.4z"></path> <path class="st4" d="M208.2,68h-2.5l-0.5,1.3h-0.6l2.3-4.9h0.5l2.3,4.9H209L208.2,68z M208,67.6l-1.1-2.5l-1.1,2.5H208z"></path> <path class="st4" d="M211.8,64.4h0.6v4.5h2.5v0.6h-3v-4.9C211.9,64.5,211.8,64.5,211.8,64.4z"></path> </g> </g> </svg>