<svg xmlns="http://www.w3.org/2000/svg" xmlns:xlink="http://www.w3.org/1999/xlink" version="1.1" id="Calque_1" x="0px" y="0px" viewBox="0 0 75 75" style="enable-background:new 0 0 75 75;" xml:space="preserve"> <style type="text/css"> .st0{fill:#E43423;} .st1{fill:#FFFFFF;} </style> <g> <g> <g> <path class="st0" d="M4.3,63.3c0,0,0.7,0.7,1.5,0.7c0.3,0,0.7-0.1,0.7-0.5c0-0.7-2.8-0.7-2.8-2.6c0-1.2,1-1.9,2.2-1.9 c1.3,0,2,0.7,2,0.7L7.2,61c0,0-0.7-0.6-1.4-0.6c-0.3,0-0.7,0.2-0.7,0.5c0,0.7,2.8,0.7,2.8,2.6c0,1.1-0.8,1.9-2.2,1.9 c-1.5,0-2.3-0.9-2.3-0.9L4.3,63.3z"></path> <path class="st0" d="M9.8,59h3.9v1.3h-2.4v1.2h1.9v1.3h-1.9V64h2.5v1.3H9.6L9.8,59L9.8,59z"></path> <path class="st0" d="M15.6,59h1.6l1.7,2.9c0.2,0.4,0.5,1.1,0.5,1.1l0,0c0,0-0.1-0.7-0.1-1.1V59h1.5v6.3h-1.5l-1.7-2.9 c-0.3-0.5-0.6-1.1-0.6-1.1l0,0c0,0,0.1,0.7,0.1,1.1v2.9h-1.5C15.6,65.2,15.6,59,15.6,59z"></path> <path class="st0" d="M24.2,60.3h-1.9V59h5.3v1.3h-1.9v5h-1.5V60.3z"></path> <path class="st0" d="M29.1,59h1.5v6.3h-1.5V59z"></path> <path class="st0" d="M32.8,59h3.9v1.3h-2.3v1.2h1.9v1.3h-1.9V64h2.5v1.3h-4.1V59z"></path> <path class="st0" d="M38.7,59h1.5l1.7,2.9c0.2,0.4,0.5,1.1,0.5,1.1l0,0c0,0-0.1-0.7-0.1-1.1V59h1.5v6.3h-1.5l-1.7-2.9 c-0.3-0.5-0.6-1.1-0.6-1.1l0,0c0,0,0.1,0.7,0.1,1.1v2.9h-1.5L38.7,59L38.7,59z"></path> <path class="st0" d="M47.2,60.3h-1.9V59h5.3v1.3h-1.9v5h-1.5V60.3z"></path> <path class="st0" d="M58,63.8h-2l-0.4,1.4H54l2.2-6.2h1.6l2.2,6.2h-1.5L58,63.8z M57,60.5c0,0-0.2,0.7-0.2,1.1l-0.3,1.2h1.2 l-0.3-1.2C57.2,61,57,60.5,57,60.5L57,60.5z"></path> <path class="st0" d="M61.3,59h2.2c0.7,0,0.9,0.1,1.2,0.2c0.7,0.2,1.2,0.9,1.2,1.8c0,0.7-0.3,1.4-0.9,1.7l0,0c0,0,0.1,0.1,0.2,0.4 l1.2,2.2h-1.7l-1.1-2H63v2h-1.5L61.3,59L61.3,59z M63.5,61.8c0.5,0,0.8-0.2,0.8-0.7s-0.2-0.7-0.9-0.7h-0.5v1.5L63.5,61.8 L63.5,61.8z"></path> <path class="st0" d="M69.2,60.3h-1.9V59h5.3v1.3h-1.8v5h-1.5L69.2,60.3L69.2,60.3z"></path> </g> <g> <path class="st0" d="M4.4,72.8c0,0,0.7,0.7,1.6,0.7c0.7,0,1.2-0.4,1.2-1.1c0-1.6-3-1.2-3-3.1c0-0.9,0.7-1.7,1.9-1.7 c1.1,0,1.6,0.6,1.6,0.6l-0.3,0.5c0,0-0.6-0.5-1.3-0.5s-1.3,0.5-1.3,1.1c0,1.5,3.1,1.1,3.1,3.1c0,0.9-0.7,1.7-1.8,1.7 c-1.2,0-2-0.7-2-0.7L4.4,72.8z"></path> <path class="st0" d="M18,68.3h-2.2v-0.6h5v0.6h-2.2v5.6h-0.6C18,73.9,18,68.3,18,68.3z"></path> <path class="st0" d="M29,67.8h0.6v4c0,1.1,0.7,1.7,1.7,1.7c1.1,0,1.7-0.7,1.7-1.7v-4h0.6v4c0,1.3-0.9,2.2-2.3,2.2 c-1.4,0-2.3-0.9-2.3-2.2V67.8L29,67.8z"></path> <path class="st0" d="M42.8,67.8h2c1.8,0,3.1,1.2,3.1,3.1c0,2-1.2,3.1-3.1,3.1h-2V67.8z M44.7,73.3c1.5,0,2.5-0.9,2.5-2.6 s-1-2.5-2.5-2.5h-1.4v5L44.7,73.3L44.7,73.3z"></path> <path class="st0" d="M56.5,67.8h0.6v6.1h-0.6V67.8z"></path> <path class="st0" d="M68.9,67.7c1.7,0,3.1,1.4,3.1,3.1c0,1.8-1.4,3.2-3.1,3.2s-3.1-1.4-3.1-3.2C65.8,69.1,67.2,67.7,68.9,67.7z M68.9,73.4c1.4,0,2.5-1.2,2.5-2.6c0-1.5-1.1-2.6-2.5-2.6s-2.5,1.1-2.5,2.6S67.6,73.4,68.9,73.4z"></path> </g> </g> <g> <rect x="11.4" y="0.2" class="st0" width="53.4" height="53.4"></rect> <path class="st1" d="M46.8,25v-7.4H33v-3.7h13.9v-3.8H29.4v11.2h13.9V25H29.4v3.7v14.8l0,0H33v-7.4h10.2v7.4H47L46.8,25L46.8,25z M33,32.5v-3.7h10.2v3.7H33z"></path> </g> </g> </svg>