<svg xmlns="http://www.w3.org/2000/svg" xmlns:xlink="http://www.w3.org/1999/xlink" version="1.1" id="Calque_1" x="0px" y="0px" viewBox="0 0 153.3 75" style="enable-background:new 0 0 153.3 75;" xml:space="preserve"> <style type="text/css"> .st0{fill:url(#SVGID_1_);} .st1{fill:url(#SVGID_00000061456997401189709390000016233720213705343632_);} .st2{fill:url(#SVGID_00000155862881727304819130000016339871097799331229_);} .st3{fill:url(#SVGID_00000157989799284799395520000009606321580070941593_);} .st4{fill:#898989;} </style> <g> <linearGradient id="SVGID_1_" gradientUnits="userSpaceOnUse" x1="14.6086" y1="2039.9192" x2="45.8089" y2="2084.1292" gradientTransform="matrix(1 0 0 1 0 -2023.4634)"> <stop offset="0" style="stop-color:#006633"></stop> <stop offset="9.124147e-02" style="stop-color:#217A2F"></stop> <stop offset="0.2087" style="stop-color:#448F2A"></stop> <stop offset="0.3337" style="stop-color:#61A126"></stop> <stop offset="0.4664" style="stop-color:#77AF23"></stop> <stop offset="0.6105" style="stop-color:#87B821"></stop> <stop offset="0.7741" style="stop-color:#90BE1F"></stop> <stop offset="1" style="stop-color:#93C01F"></stop> </linearGradient> <path class="st0" d="M32.4,69.1c-3.6,0-7.1-2.5-9.9-6.9c-3.4-5.4-5.4-12.8-5.9-21.2C15.8,23.6,22.1,8,30.8,6c1-0.2,2,1.2,2.1,3.3 s-0.6,4-1.7,4.2C24.6,15.1,19.8,26.9,20.5,40c0.4,6.3,1.9,12.2,4.5,16.1c2.5,4,5.7,5.8,8.8,5.2c1-0.2,2,1.2,2.1,3.3s-0.6,4-1.7,4.2 C33.5,68.9,33,69.1,32.4,69.1z"></path> <linearGradient id="SVGID_00000086677767937745156790000016376031857623925663_" gradientUnits="userSpaceOnUse" x1="-174.4574" y1="-1191.7391" x2="-143.04" y2="-1147.2213" gradientTransform="matrix(0 1 -1 0 -1135.4249 198.9022)"> <stop offset="0" style="stop-color:#312782"></stop> <stop offset="1" style="stop-color:#009EE2"></stop> </linearGradient> <path style="fill:url(#SVGID_00000086677767937745156790000016376031857623925663_);" d="M32.8,54c-7.2,0-14.1-1.2-19.8-3.6 C6.3,47.8,2.1,43.8,1.3,39.5c-0.1-0.7,1-1.5,2.5-1.6s2.9,0.5,3.1,1.2c0.7,3.6,4.2,6.8,9.5,9.1s12.3,3.2,19.2,2.9 c6.9-0.4,13.1-2.1,17.5-5c4.3-2.9,6.3-6.3,5.6-9.9c-0.1-0.7,1-1.5,2.5-1.6s2.9,0.5,3.1,1.2c0.9,4.3-1.5,8.6-6.8,12 c-5.3,3.3-12.9,5.6-21.3,6C35,54,33.9,54,32.8,54z"></path> <linearGradient id="SVGID_00000125602309717301803490000007579693104905817992_" gradientUnits="userSpaceOnUse" x1="19.9875" y1="2038.8855" x2="49.2992" y2="2080.4194" gradientTransform="matrix(1 0 0 1 0 -2023.4634)"> <stop offset="0" style="stop-color:#A2195B"></stop> <stop offset="1" style="stop-color:#E5007E"></stop> </linearGradient> <path style="fill:url(#SVGID_00000125602309717301803490000007579693104905817992_);" d="M33.9,66.9c-0.5,0-0.9-0.7-1-1.7 c0-1,0.4-2,0.9-2.1c3.5-0.7,6.6-4.1,8.7-9.5c2.2-5.5,3.1-12.2,2.7-19.1c-0.6-14-7.1-24.3-14.1-22.8c-0.5,0.1-1-0.6-1-1.7 c0-1,0.4-2,0.9-2.1c8.2-1.7,15.5,10,16.4,26.3c0.4,7.9-0.7,15.6-3.2,21.8C41.6,62.2,38,66.1,33.9,66.9C34,66.9,34,66.9,33.9,66.9z"></path> <linearGradient id="SVGID_00000166670799916728299240000010167630565893076641_" gradientUnits="userSpaceOnUse" x1="-178.5742" y1="-1188.2195" x2="-148.5987" y2="-1145.7451" gradientTransform="matrix(0 1 -1 0 -1135.4249 198.9022)"> <stop offset="0" style="stop-color:#E5332A"></stop> <stop offset="3.645194e-02" style="stop-color:#E73F2B"></stop> <stop offset="0.1611" style="stop-color:#EC622D"></stop> <stop offset="0.2936" style="stop-color:#F07F2F"></stop> <stop offset="0.4343" style="stop-color:#F49531"></stop> <stop offset="0.587" style="stop-color:#F6A532"></stop> <stop offset="0.7605" style="stop-color:#F8AE33"></stop> <stop offset="1" style="stop-color:#F8B133"></stop> </linearGradient> <path style="fill:url(#SVGID_00000166670799916728299240000010167630565893076641_);" d="M4,40c-0.7,0-1.4-0.2-1.4-0.6 c-1.7-8.6,10.3-16.2,26.9-17.2c8.1-0.5,16,0.7,22.3,3.3S62.1,31.8,63,35.9c0.1,0.4-0.5,0.7-1.2,0.7s-1.5-0.2-1.5-0.6 c-0.7-3.7-4.3-7.2-10.2-9.5c-5.8-2.2-13-3.3-20.3-2.9c-15.1,0.9-26,7.8-24.4,15.6C5.5,39.7,4.9,40,4,40C4.1,40,4.1,40,4,40z"></path> <g> <path class="st4" d="M76.8,19.2h3.6v25.9h-3.6V19.2z"></path> <path class="st4" d="M89.3,19.2h11.8c2,0,3.5,0.2,4.8,0.9c2.4,1.1,3.6,3.1,3.6,6.1c0,1.5-0.4,2.9-1,3.8c-0.6,1-1.5,1.7-2.7,2.4 c1,0.4,1.7,1,2.2,1.6s0.7,1.7,0.9,3.2l0.1,3.5c0,1,0.1,1.7,0.2,2.2c0.2,0.9,0.6,1.4,1.1,1.6v0.6h-4.2c-0.1-0.2-0.2-0.5-0.2-0.9 c-0.1-0.4-0.1-1-0.1-2l-0.2-4.3c-0.1-1.7-0.7-2.9-1.9-3.3c-0.6-0.4-1.6-0.5-3.1-0.5h-7.7v11h-3.5C89.3,45.2,89.3,19.2,89.3,19.2z M100.7,31c1.6,0,2.9-0.4,3.8-1c1-0.6,1.4-1.9,1.4-3.6c0-1.9-0.6-3.1-2-3.7c-0.7-0.4-1.6-0.5-2.9-0.5h-8.3V31 C92.8,31,100.7,31,100.7,31z"></path> <path class="st4" d="M118.7,19.2h3.6v25.9h-3.6V19.2z"></path> <path class="st4" d="M133.1,36.7c0.1,1.5,0.4,2.6,1,3.6c1.1,1.7,3.1,2.6,6,2.6c1.2,0,2.5-0.2,3.5-0.6c2-0.7,3-2,3-4 c0-1.4-0.4-2.4-1.2-3s-2.2-1.1-4.1-1.5L138,33c-2.2-0.5-3.8-1.1-4.7-1.7c-1.6-1.1-2.4-2.7-2.4-4.8c0-2.4,0.7-4.2,2.4-5.7 c1.6-1.5,3.7-2.2,6.7-2.2c2.6,0,4.8,0.6,6.7,2s2.7,3.3,2.7,6.3h-3.3c-0.1-1.4-0.5-2.5-1.1-3.2c-1-1.4-2.7-2-5.2-2 c-2,0-3.3,0.5-4.2,1.4s-1.2,1.9-1.2,3c0,1.2,0.5,2.2,1.5,2.7c0.6,0.4,2.2,0.9,4.6,1.4l3.5,0.9c1.7,0.4,3,1,4,1.6 c1.6,1.2,2.4,3,2.4,5.2c0,2.9-1,5-3.1,6.2S143,46,140.2,46c-3.1,0-5.6-0.9-7.3-2.5s-2.6-3.8-2.6-6.7h2.8L133.1,36.7L133.1,36.7z"></path> </g> <g> <path class="st4" d="M83.9,57h-6.6c0,0.6,0.1,1.2,0.5,1.7c0.2,0.5,0.7,0.9,1.2,1.1s1.1,0.4,1.7,0.4c0.5,0,1-0.1,1.4-0.2 c0.5-0.2,0.7-0.5,1.1-0.9l0.2,0.4c-0.4,0.4-0.7,0.7-1.2,0.9s-1,0.4-1.6,0.4c-0.7,0-1.4-0.1-2-0.5s-1-0.7-1.4-1.4 c-0.4-0.6-0.5-1.2-0.5-2s0.1-1.4,0.5-2c0.2-0.6,0.7-1,1.2-1.4s1.1-0.5,1.9-0.5c0.6,0,1.2,0.1,1.7,0.5s1,0.7,1.2,1.4 c0.2,0.6,0.5,1.2,0.5,2V57H83.9z M78.8,53.8c-0.5,0.2-0.9,0.6-1.1,1.1s-0.4,1-0.5,1.6h6.2c0-0.6-0.2-1.1-0.5-1.6 c-0.2-0.5-0.6-0.9-1.1-1.1s-1-0.4-1.5-0.4S79.3,53.5,78.8,53.8z"></path> <path class="st4" d="M94.4,60.5L91.7,57l-2.8,3.6h-0.6l3.1-3.8l-2.9-3.6h0.6l2.6,3.3l2.6-3.3h0.5l-3,3.6l3.1,3.8H94.4z"></path> <path class="st4" d="M106.2,53.5c0.6,0.4,1,0.7,1.4,1.4c0.4,0.6,0.5,1.2,0.5,2c0,0.7-0.1,1.4-0.5,2s-0.7,1-1.4,1.4 c-0.6,0.4-1.2,0.5-1.9,0.5c-0.7,0-1.4-0.1-2-0.5s-1-0.9-1.2-1.5v4.8h-0.5V53.2h0.5v2.1c0.2-0.6,0.7-1.1,1.2-1.6 c0.6-0.4,1.2-0.6,2-0.6C105.1,53,105.7,53,106.2,53.5z M105.9,59.8c0.5-0.2,0.9-0.7,1.1-1.2s0.4-1.1,0.4-1.7s-0.1-1.2-0.4-1.7 c-0.2-0.5-0.6-0.9-1.1-1.2c-0.5-0.2-1-0.4-1.6-0.4s-1.1,0.1-1.6,0.4c-0.5,0.2-0.9,0.7-1.1,1.2s-0.4,1.1-0.4,1.7s0.1,1.2,0.4,1.7 c0.2,0.5,0.6,0.9,1.1,1.2c0.5,0.2,1,0.4,1.6,0.4S105.4,60,105.9,59.8z"></path> <path class="st4" d="M120.2,57h-6.6c0,0.6,0.1,1.2,0.5,1.7s0.7,0.9,1.2,1.1s1.1,0.4,1.7,0.4c0.5,0,1-0.1,1.4-0.2 c0.5-0.2,0.7-0.5,1.1-0.9l0.2,0.4c-0.4,0.4-0.7,0.7-1.2,0.9s-1,0.4-1.6,0.4c-0.7,0-1.4-0.1-2-0.5s-1-0.7-1.4-1.4 c-0.4-0.6-0.5-1.2-0.5-2s0.1-1.4,0.5-2c0.2-0.6,0.7-1,1.2-1.4s1.1-0.5,1.9-0.5c0.6,0,1.2,0.1,1.7,0.5s1,0.7,1.2,1.4 c0.2,0.6,0.5,1.2,0.5,2V57H120.2z M115.2,53.8c-0.5,0.2-0.9,0.6-1.1,1.1s-0.4,1-0.5,1.6h6.2c0-0.6-0.2-1.1-0.5-1.6 c-0.2-0.5-0.6-0.9-1.1-1.1s-1-0.4-1.5-0.4S115.6,53.5,115.2,53.8z"></path> <path class="st4" d="M127.8,53.5c0.5-0.4,1.1-0.5,1.9-0.5v0.5h-0.1c-0.9,0-1.6,0.2-2.1,0.9c-0.5,0.6-0.7,1.4-0.7,2.2v4h-0.7V53 h0.5v1.9C126.9,54.2,127.3,53.8,127.8,53.5z"></path> <path class="st4" d="M139.3,60c-0.1,0.1-0.4,0.2-0.6,0.4s-0.5,0.1-0.9,0.1c-0.6,0-1.1-0.1-1.4-0.5c-0.4-0.4-0.5-0.9-0.5-1.4v-5.2 h-1.4V53h1.4v-1.6h0.5V53h2.5v0.4h-2.5v5.2c0,0.5,0.1,0.9,0.4,1.1c0.2,0.2,0.6,0.4,1.1,0.4s0.9-0.1,1.2-0.5L139.3,60z"></path> <path class="st4" d="M145.1,60.2c-0.5-0.1-1-0.4-1.2-0.7l0.2-0.4c0.2,0.2,0.7,0.5,1.2,0.6s1,0.2,1.6,0.2c0.9,0,1.4-0.1,1.9-0.4 c0.4-0.2,0.6-0.6,0.6-1.1c0-0.4-0.1-0.6-0.4-0.9c-0.2-0.2-0.5-0.4-0.7-0.5s-0.7-0.2-1.2-0.2c-0.6-0.1-1.1-0.2-1.5-0.4 s-0.6-0.4-0.9-0.6c-0.2-0.2-0.4-0.6-0.4-1.1c0-0.6,0.2-1,0.7-1.5c0.5-0.4,1.1-0.6,2.1-0.6c0.5,0,0.9,0.1,1.4,0.2s0.9,0.4,1.1,0.6 l-0.2,0.4c-0.2-0.2-0.6-0.4-1-0.5s-0.9-0.1-1.2-0.1c-0.7,0-1.4,0.1-1.7,0.4c-0.4,0.2-0.6,0.6-0.6,1.1c0,0.4,0.1,0.6,0.4,0.9 c0.2,0.2,0.5,0.4,0.7,0.5c0.4,0.1,0.7,0.2,1.2,0.4c0.6,0.1,1,0.2,1.4,0.4s0.6,0.4,0.9,0.6c0.2,0.2,0.4,0.6,0.4,1.1 c0,0.6-0.2,1.1-0.7,1.5s-1.2,0.5-2.1,0.5C146.2,60.7,145.6,60.5,145.1,60.2z"></path> </g> </g> </svg>