<svg xmlns="http://www.w3.org/2000/svg" xmlns:xlink="http://www.w3.org/1999/xlink" version="1.1" id="Calque_1" x="0px" y="0px" viewBox="0 0 178.7 75" style="enable-background:new 0 0 178.7 75;" xml:space="preserve"> <style type="text/css"> .st0{fill:#15DB2F;} .st1{fill:#898989;} </style> <g> <path class="st0" d="M66.5,35.7c1,1,1.7,2,2.3,3.5c0.6,1.3,0.9,2.8,0.9,4.1V54h-3.9V43.1c0-1-0.2-1.9-0.6-2.6 c-0.3-0.9-0.9-1.5-1.5-2.2s-1.4-1.1-2.2-1.5c-0.9-0.3-1.7-0.6-2.6-0.6c-0.6,0-1,0-1.4,0.1c-0.4,0.1-0.9,0.2-1.3,0.4 c0.6,0.9,1.1,1.9,1.5,2.9c0.3,1.1,0.6,2.2,0.6,3.3v10.7h-3.9V43c0-1-0.2-1.9-0.6-2.6c-0.3-0.9-0.9-1.5-1.5-2.2 c-0.6-0.6-1.3-1.1-2.2-1.5c-0.9-0.3-1.7-0.6-2.8-0.6c-1,0-1.9,0.2-2.6,0.6c-0.9,0.3-1.5,0.9-2.2,1.5c-0.6,0.6-1.1,1.3-1.5,2.2 c-0.3,0.9-0.6,1.7-0.6,2.6v10.7h-3.9V43c0-1.5,0.3-2.8,0.9-4.1c0.6-1.3,1.3-2.5,2.3-3.5c1-1,2-1.7,3.5-2.3c1.3-0.6,2.8-0.9,4.1-0.9 c1.1,0,2,0.1,3,0.4c1,0.3,1.9,0.6,2.8,1.1c0.9-0.6,1.7-1,2.8-1.1c1-0.3,1.9-0.4,3-0.4c1.5,0,2.9,0.3,4.1,0.9 C64.4,33.9,65.6,34.6,66.5,35.7"></path> <path class="st0" d="M74.9,53.9V36.3h-2.8v-3.9h6.6v21.4L74.9,53.9L74.9,53.9z M74.9,26h3.9v3h-3.9V26z"></path> <path class="st0" d="M99.1,53.9V43.3c0-1-0.2-1.9-0.6-2.6c-0.3-0.9-0.9-1.5-1.5-2.2s-1.4-1.1-2.2-1.5c-0.9-0.3-1.7-0.6-2.6-0.6 c-1,0-1.9,0.2-2.6,0.6c-0.9,0.3-1.5,0.9-2.2,1.5c-0.6,0.6-1.1,1.3-1.5,2.2c-0.3,0.9-0.6,1.7-0.6,2.6V54h-4V43.3 c0-1.5,0.3-2.8,0.9-4.1c0.6-1.3,1.3-2.5,2.3-3.5c1-1,2-1.7,3.3-2.3c1.3-0.6,2.8-0.9,4.1-0.9c1.4,0,2.9,0.3,4.2,0.9 c1.3,0.6,2.5,1.3,3.5,2.3c1,1,1.7,2,2.3,3.5c0.6,1.4,0.9,2.8,0.9,4.1V54C102.9,53.9,99.1,53.9,99.1,53.9z"></path> <path class="st0" d="M116.2,53.9c-1.5,0-2.9-0.3-4.2-0.9c-1.3-0.6-2.5-1.3-3.5-2.3c-1-1-1.7-2-2.3-3.5c-0.6-1.3-0.9-2.8-0.9-4.2 c0-1.5,0.3-2.8,0.9-4.1c0.6-1.3,1.3-2.5,2.3-3.5c1-1,2-1.7,3.5-2.3c1.3-0.6,2.8-0.9,4.2-0.9v3.9c-1,0-1.9,0.2-2.6,0.6 c-0.9,0.3-1.5,0.9-2.2,1.5s-1.1,1.3-1.5,2.2c-0.3,0.9-0.6,1.7-0.6,2.6c0,1,0.2,1.9,0.6,2.8c0.3,0.9,0.9,1.5,1.5,2.2 c0.6,0.6,1.4,1.1,2.2,1.5c0.9,0.3,1.7,0.6,2.6,0.6c1,0,1.9-0.2,2.6-0.6c0.9-0.3,1.5-0.9,2.2-1.5c0.6-0.6,1.1-1.3,1.5-2.2 c0.3-0.9,0.6-1.7,0.6-2.8V25.8h3.9V43c0,1.5-0.3,2.9-0.9,4.2c-0.6,1.3-1.3,2.5-2.3,3.5s-2,1.7-3.3,2.3 C119.2,53.6,117.7,53.9,116.2,53.9"></path> <path class="st1" d="M131.3,56.3V35.8c0-0.9,0.1-1.6,0.6-2.3c0.3-0.7,0.7-1.4,1.3-1.9c0.6-0.6,1.1-1.1,1.9-1.3 c0.7-0.3,1.5-0.6,2.3-0.6s1.6,0.1,2.3,0.6c0.7,0.3,1.4,0.7,1.9,1.3c0.6,0.6,1.1,1.1,1.3,1.9c0.3,0.7,0.6,1.5,0.6,2.3 c0,0.8-0.1,1.6-0.6,2.3c-0.3,0.7-0.7,1.4-1.3,1.9c-0.6,0.6-1.1,1-1.9,1.3c-0.7,0.3-1.5,0.6-2.3,0.6v-2.3c0.6,0,1.1-0.1,1.5-0.3 c0.6-0.2,0.9-0.6,1.1-0.9c0.4-0.3,0.6-0.7,0.9-1.3s0.3-1,0.3-1.5c0-0.6-0.1-1.1-0.3-1.5c-0.2-0.6-0.6-0.9-0.9-1.3 c-0.3-0.3-0.7-0.6-1.1-0.9c-0.6-0.2-1-0.3-1.5-0.3c-0.6,0-1.1,0.1-1.5,0.3c-0.6,0.2-0.9,0.6-1.1,0.9c-0.3,0.4-0.6,0.7-0.9,1.3 s-0.3,1-0.3,1.5v20.5L131.3,56.3L131.3,56.3z"></path> <path class="st1" d="M145.1,42.1v-6.1c0-0.9,0.1-1.6,0.6-2.3c0.3-0.7,0.7-1.4,1.3-1.9c0.6-0.6,1.1-1.1,1.9-1.3 c0.7-0.3,1.5-0.6,2.3-0.6v2.2c-0.6,0-1.1,0.1-1.5,0.3c-0.6,0.2-0.9,0.6-1.3,0.9c-0.3,0.4-0.6,0.7-0.9,1.3c-0.2,0.6-0.3,1-0.3,1.5 v6.1L145.1,42.1L145.1,42.1z"></path> <path class="st1" d="M158.9,42.1c-0.9,0-1.6-0.1-2.3-0.6c-0.7-0.3-1.4-0.7-1.9-1.3s-1-1.1-1.3-1.9c-0.3-0.7-0.6-1.5-0.6-2.3 s0.1-1.6,0.6-2.3c0.3-0.7,0.7-1.4,1.3-1.9c0.6-0.6,1.1-1.1,1.9-1.3c0.7-0.3,1.5-0.6,2.3-0.6s1.6,0.1,2.3,0.6 c0.7,0.3,1.4,0.7,1.9,1.3c0.6,0.6,1.1,1.1,1.3,1.9c0.3,0.7,0.6,1.5,0.6,2.3s-0.1,1.6-0.6,2.3c-0.3,0.7-0.7,1.4-1.3,1.9 c-0.6,0.6-1.1,1-1.9,1.3C160.5,41.7,159.7,42.1,158.9,42.1 M156.1,33c-0.3,0.4-0.6,0.7-0.9,1.3c-0.2,0.6-0.3,1-0.3,1.5 c0,0.6,0.1,1.1,0.3,1.5c0.2,0.6,0.6,0.9,0.9,1.3c0.3,0.3,0.7,0.6,1.1,0.9c0.6,0.2,1,0.3,1.5,0.3c0.6,0,1.1-0.1,1.5-0.3 c0.6-0.2,0.9-0.6,1.1-0.9c0.4-0.3,0.6-0.7,0.9-1.3c0.2-0.6,0.3-1,0.3-1.5s-0.1-1.1-0.3-1.5c-0.2-0.6-0.6-0.9-0.9-1.3 c-0.3-0.3-0.7-0.6-1.1-0.9c-0.6-0.2-1-0.3-1.5-0.3c-0.6,0-1.1,0.1-1.5,0.3C156.9,32.4,156.5,32.7,156.1,33"></path> <path class="st1" d="M172.4,42.1c-0.9,0-1.6-0.1-2.3-0.6c-0.7-0.3-1.4-0.7-1.9-1.3s-1-1.1-1.3-1.9c-0.3-0.7-0.6-1.5-0.6-2.3 s0.1-1.6,0.6-2.3c0.3-0.7,0.7-1.4,1.3-1.9c0.6-0.6,1.1-1.1,1.9-1.3c0.7-0.3,1.5-0.6,2.3-0.6v2.2c-0.6,0-1.1,0.1-1.5,0.3 c-0.6,0.2-0.9,0.6-1.3,0.9c-0.3,0.3-0.6,0.7-0.9,1.1c-0.2,0.6-0.3,1-0.3,1.5c0,0.6,0.1,1.1,0.3,1.5c0.2,0.4,0.6,0.9,0.9,1.1 c0.4,0.3,0.7,0.6,1.3,0.9c0.6,0.2,1,0.3,1.5,0.3c0.6,0,1.1-0.1,1.5-0.3c0.6-0.2,0.9-0.6,1.3-0.9c0.3-0.3,0.6-0.7,0.9-1.1 c0.2-0.6,0.3-1,0.3-1.5V26h2.2v9.9c0,0.9-0.1,1.6-0.6,2.3c-0.3,0.7-0.7,1.4-1.3,1.9c-0.6,0.6-1.1,1-1.9,1.3 C174.2,41.7,173.4,42.1,172.4,42.1"></path> <path class="st0" d="M16.9,45.8c0-4.5-3.6-8.3-8.3-8.3s-8.1,3.6-8.1,8.3S4.2,54,8.8,54S16.9,50.2,16.9,45.8"></path> <path class="st0" d="M33.7,34.1c0-4.5-3.6-8.3-8.3-8.3s-8.2,3.7-8.2,8.3s3.6,8.2,8.3,8.2C30,42.3,33.7,38.5,33.7,34.1"></path> </g> </svg>