<svg xmlns="http://www.w3.org/2000/svg" xmlns:xlink="http://www.w3.org/1999/xlink" version="1.1" id="Calque_1" x="0px" y="0px" viewBox="0 0 128 75" style="enable-background:new 0 0 128 75;" xml:space="preserve"> <style type="text/css"> .st0{fill:#5C59F3;} </style> <g> <g> <g> <g> <path class="st0" d="M47.6,45.2c0.5,0.9,0.9,1.7,1.4,2.6c0.1,0.2,0.1,0.3-0.1,0.5c-2.6,2.6-5.2,5.2-7.8,7.9 c-0.2,0.2-0.3,0.1-0.4,0c-1.2-1.2-2.4-2.4-3.7-3.5c-2.4-2.2-5.2-3.8-8.3-4.9c-2.7-1-5.4-1.5-8.3-1.5c-0.1,0-0.2,0-0.4,0 c0-0.1,0-0.3,0-0.4c0-3.8,0-7.7,0-11.5c0-0.4,0.1-0.5,0.4-0.6c0.9-0.2,1.7-0.5,2.6-0.7c0.4-0.1,0.4-0.1,0.5,0.4 c0.2,1.3,0.3,2.6,0.5,3.9c0.2,1.2,0.3,2.5,0.5,3.7c0,0.3,0.1,0.5,0.1,0.8c0,0.2,0.1,0.3,0.3,0.3c2,0.3,3.9,0.8,5.7,1.5 c2.9,1.1,5.7,2.6,8.1,4.6c0.6,0.5,1.2,1,1.8,1.5c0,0,0.1,0.1,0.2,0.1c0.4-0.4,0.8-0.8,1.2-1.3c0.4-0.4,0.8-0.9,1.3-1.3 c0.1-0.1,0.2-0.2,0.1-0.4c-1.5-2.7-1.7-3-4.5-8.1C36,33.5,46.4,42.8,47.6,45.2z"></path> </g> </g> <g> <path class="st0" d="M41.5,65.8c0.2,0,0.5-0.1,0.7-0.1c-9.1,6.6-22.2,6.6-31.3-1.1c-9.6-8-11.7-22.5-4.8-33 c6.1-9.6,18.3-13.8,28.9-10.4c-1.2,1-1.9,2.4-1.9,4c0,0.2,0,0.3,0,0.5c-5.4-0.7-11,0.5-15.8,4c-11.7,8.5-11.9,26-0.5,34.8 C24.2,70.2,34,70.3,41.5,65.8z"></path> </g> <g> <path class="st0" d="M39.7,24.5c-0.1-0.4-0.1-0.9-0.2-1.4C39.5,23.6,39.6,24,39.7,24.5z"></path> </g> <g> <path class="st0" d="M52.4,47.7c-0.1-0.4-0.3-0.8-0.4-1.2v-0.1c-0.1-2.7-0.7-5.5-1.8-8c-1.4-3.1-3.4-5.7-5.9-7.8 c0.2-0.2,0.3-0.3,0.5-0.5c0.3-0.3,0.5-0.6,0.8-0.9c0.2-0.2,0.4-0.5,0.6-0.7C50.7,33.5,53,40.8,52.4,47.7z"></path> </g> <g> <g> <g> <path class="st0" d="M58.4,10.2c-0.1-0.1-0.1-0.1-0.2-0.2l0,0l-0.1-0.1C58,9.8,58,9.8,57.9,9.8c-0.3-0.3-0.6-0.4-1-0.4 c-0.1,0-0.1,0-0.2,0c-1.3,0.3-2.2,2.2-2.1,4c0.1,0.8,0.3,1.6,0.9,2.4c0.4-0.4,0.7-0.8,1.1-1.2c0.8-0.9,1.6-1.8,2.4-2.7 C59.3,11.8,58.9,10.9,58.4,10.2z"></path> </g> </g> <g> <g> <path class="st0" d="M65.5,5.1c0,0.2-0.2,0.4-0.3,0.5C64,7,62.8,8.4,61.5,9.9c-0.2,0.2-0.3,0.3-0.5,0.3s-0.3-0.1-0.5-0.4 c-0.4-0.5-0.9-1.1-1.3-1.6c-0.3-0.4-0.3-0.6,0.1-0.9c1.6-1,3.2-1.9,4.8-2.8c0.1-0.1,0.3-0.1,0.5-0.1c0.2,0,0.3,0,0.4,0.1 C65.2,4.6,65.4,4.8,65.5,5.1z"></path> </g> </g> <g> <g> <path class="st0" d="M40.4,32.8c-0.6,0.7-1.2,1.3-1.8,2.1c-0.5-0.5-0.9-0.9-1.3-1.4c-1.9-2.2-2.8-4.8-2.9-7.7 c0-0.2,0-0.4,0-0.7c0-1.4,0.6-2.5,1.8-3.3c0.1-0.1,0.2-0.1,0.3-0.2c0.5-0.3,1-0.6,1.6-1c0,0.5,0,1.1,0,1.6 c0,1.7,0.4,3.3,0.9,4.9c0.2,0.6,0.5,1.3,0.9,1.9c0.2,0.4,0.5,0.9,0.8,1.3C41,31.2,41,32.2,40.4,32.8z"></path> </g> </g> <g> <g> <path class="st0" d="M45.3,27v0.1c0,0,0,0,0,0.1v0.1c0,0,0,0,0,0.1v0.1l0,0c0,0,0,0.1-0.1,0.1v0.1c0,0.1-0.1,0.2-0.2,0.3 c0,0,0,0.1-0.1,0.1c0,0,0,0.1-0.1,0.1c-0.1,0.1-0.1,0.1-0.2,0.2c-0.4,0.5-0.9,1-1.3,1.4c-0.2,0.2-0.4,0.4-0.6,0.7 c-0.1,0.1-0.1,0.1-0.2,0.2c-0.3-0.4-0.6-0.8-0.8-1.2c0-0.1-0.1-0.2-0.1-0.2c-0.1-0.2-0.2-0.4-0.3-0.6c-0.1-0.1-0.1-0.2-0.1-0.3 c-0.1-0.2-0.2-0.4-0.3-0.6c-0.1-0.1-0.1-0.2-0.1-0.3c0-0.1-0.1-0.2-0.1-0.3c0-0.1-0.1-0.2-0.1-0.3c-0.1-0.2-0.2-0.4-0.2-0.7 c0-0.1-0.1-0.2-0.1-0.3l0,0c0-0.1,0-0.1-0.1-0.2c0-0.1,0-0.1,0-0.2c-0.1-0.2-0.1-0.4-0.2-0.7c0-0.1,0-0.2,0-0.2 c-0.1-0.4-0.1-0.9-0.2-1.4l0,0l0,0l0,0c0-0.1,0-0.2,0-0.3s0-0.3,0-0.4c0-1.6,0.6-2.8,1.9-3.6c0.5-0.3,1.1-0.7,1.7-1 c0,0.7,0,1.3,0,1.9c0.1,2.1,0.7,3.9,1.8,5.7C45.2,26,45.3,26.5,45.3,27z"></path> </g> <g> <path class="st0" d="M39.5,23.1L39.5,23.1L39.5,23.1L39.5,23.1z"></path> </g> <g> <path class="st0" d="M39.7,24.5c-0.1-0.4-0.1-0.9-0.2-1.4C39.5,23.6,39.6,24,39.7,24.5z"></path> </g> <g> <path class="st0" d="M39.5,23.1c0,0.5,0.1,0.9,0.2,1.4C39.6,24,39.5,23.6,39.5,23.1z M39.5,23.1L39.5,23.1L39.5,23.1L39.5,23.1 z"></path> </g> </g> <g> <g> <path class="st0" d="M49,23.2c-0.7,0.8-1.4,1.6-2.2,2.5C45.5,24,44.7,22,44.5,20c-0.2-2,0.5-3.5,2.3-4.4 c0.4-0.2,0.8-0.5,1.3-0.8c0,0.4,0,0.8,0,1.2c0,1.7,0.4,3.2,1.2,4.7C49.9,21.5,49.8,22.4,49,23.2z"></path> </g> </g> <g> <g> <path class="st0" d="M53.7,18c-0.8,1-1.6,1.9-2.5,2.8c-0.2-0.2-0.3-0.4-0.4-0.6c-0.8-1.4-1.3-3-1.2-4.6 c0.1-0.9,0.4-1.7,1.1-2.2c0.8-0.6,1.6-1.2,2.4-1.7l0.1,0.1c-0.1,1.5,0.1,2.9,0.7,4.2C54.3,16.6,54.2,17.4,53.7,18z"></path> </g> </g> </g> </g> <g> <g> <path class="st0" d="M64.7,29.5c0.5,0.1,0.9,0.4,1.2,0.9c0.4,0.4,0.5,1,0.5,1.8c0,0.7-0.1,1.2-0.3,1.6c-0.2,0.4-0.5,0.8-0.8,1.1 c-0.4,0.3-0.8,0.5-1.2,0.6c-0.5,0.1-0.9,0.2-1.4,0.2h-4.6v-12h4.1c0.4,0,0.8,0,1.3,0.1c0.4,0.1,0.9,0.2,1.2,0.4 c0.4,0.2,0.7,0.5,0.9,1c0.2,0.4,0.4,1,0.4,1.7c0,0.6-0.1,1.2-0.4,1.6C65.4,28.9,65.1,29.1,64.7,29.5L64.7,29.5z M61.5,26.6v1.6 h0.6c0.2,0,0.4-0.1,0.6-0.2c0.1-0.1,0.2-0.3,0.2-0.6c0-0.2-0.1-0.4-0.2-0.6c-0.1-0.1-0.3-0.2-0.6-0.2 C62.1,26.6,61.5,26.6,61.5,26.6z M61.5,30.9v1.7h0.6c0.3,0,0.5-0.1,0.6-0.2c0.2-0.1,0.2-0.4,0.2-0.6c0-0.3-0.1-0.5-0.3-0.7 c-0.2-0.1-0.4-0.2-0.6-0.2C62,30.8,61.5,30.8,61.5,30.9z"></path> </g> <g> <path class="st0" d="M70.1,35.5V23.6h4.8v1h-3.6v4.2h3.4v1h-3.4v4.6h3.8v1.1C75.1,35.5,70.1,35.5,70.1,35.5z"></path> </g> <g> <path class="st0" d="M81,24.6v10.9h-1.2V24.6h-2.3v-1h5.8v1H81z"></path> </g> <g> <path class="st0" d="M94.6,35.5h-1.5l-2-10.2l0,0l-1.9,10.2h-1.5l-2.3-11.9h1.2l2,10.4l0,0l2-10.4H92L94,34l0,0l1.9-10.4H97 L94.6,35.5z"></path> </g> <g> <path class="st0" d="M100.2,35.5V23.6h4.8v1h-3.6v4.2h3.4v1h-3.4v4.6h3.8v1.1C105.2,35.5,100.2,35.5,100.2,35.5z"></path> </g> <g> <path class="st0" d="M109,35.5V23.6h4.8v1h-3.7v4.2h3.4v1h-3.4v4.6h3.8v1.1C113.9,35.5,109,35.5,109,35.5z"></path> </g> <g> <path class="st0" d="M123.1,35.5l-4.1-9.9h-0.1v9.9h-1.1V23.6h1.5l4.1,9.9h0.1v-9.9h1.1v11.9H123.1z"></path> </g> <g> <path class="st0" d="M63.4,47.7h-1.6v4.6h-3.6v-12h3.6v4.1h1.6v-4.1H67v11.9h-3.6V47.7z"></path> </g> <g> <path class="st0" d="M77.5,49.8c-0.1,0.5-0.3,1-0.6,1.4c-0.3,0.4-0.6,0.7-1.1,1c-0.4,0.2-1,0.3-1.6,0.3s-1.2-0.1-1.6-0.3 s-0.8-0.5-1-1c-0.3-0.4-0.5-0.9-0.6-1.4s-0.2-1.1-0.2-1.7v-7.7H72v7.6c0,0.4,0,0.9,0.1,1.3c0.1,0.4,0.2,0.8,0.3,1.1 c0.2,0.3,0.4,0.6,0.7,0.8c0.3,0.2,0.7,0.3,1.1,0.3s0.8-0.1,1.1-0.3c0.3-0.2,0.5-0.5,0.7-0.8s0.3-0.7,0.3-1.1 c0.1-0.4,0.1-0.9,0.1-1.3v-7.6h1.2V48C77.7,48.7,77.6,49.2,77.5,49.8z"></path> </g> <g> <path class="st0" d="M90.1,52.2V41.8H90l-2.9,10.3H86l-2.9-10.3H83v10.3h-1.1V40.2h1.7l2.8,10.1h0.1l2.8-10.1h1.8v11.9 C91.1,52.2,90.1,52.2,90.1,52.2z"></path> </g> <g> <path class="st0" d="M100.8,52.2l-0.7-3h-3.7l-0.8,3h-1.2l3-11.9H99l2.9,11.9H100.8z M98.2,41.3L98.2,41.3l-1.7,6.9h3.3 L98.2,41.3z"></path> </g> <g> <path class="st0" d="M110.5,52.2l-4.1-9.9l0,0v9.9h-1.1V40.2h1.5l4.1,9.9h0.1v-9.9h1.1v11.9H110.5z"></path> </g> <g> <path class="st0" d="M64.7,62.5c0.5,0.1,0.9,0.4,1.2,0.9c0.4,0.4,0.5,1,0.5,1.8c0,0.7-0.1,1.2-0.3,1.6c-0.2,0.4-0.5,0.8-0.8,1.1 c-0.4,0.3-0.8,0.5-1.2,0.6c-0.5,0.1-0.9,0.2-1.4,0.2h-4.6V56.8h4.1c0.4,0,0.8,0,1.3,0.1c0.4,0.1,0.9,0.2,1.2,0.4 c0.4,0.2,0.7,0.5,0.9,1c0.2,0.4,0.4,1,0.4,1.7c0,0.6-0.1,1.2-0.4,1.6C65.4,61.8,65.1,62.2,64.7,62.5L64.7,62.5z M61.5,59.8v1.6 h0.6c0.2,0,0.4-0.1,0.6-0.2c0.1-0.1,0.2-0.3,0.2-0.6c0-0.2-0.1-0.4-0.2-0.6c-0.1-0.1-0.3-0.2-0.6-0.2H61.5z M61.5,64v1.7h0.6 c0.3,0,0.5-0.1,0.6-0.2c0.2-0.1,0.2-0.4,0.2-0.6c0-0.3-0.1-0.5-0.3-0.7C62.4,64.1,62.2,64,62,64C62,64,61.5,64,61.5,64z"></path> </g> <g> <path class="st0" d="M70.1,68.7V56.8h4.8v1h-3.6V62h3.4v1h-3.4v4.6h3.8v1.1H70.1z"></path> </g> <g> <path class="st0" d="M78.9,68.7V56.8h1.2v11.9H78.9z"></path> </g> <g> <path class="st0" d="M89.8,68.7l-4.1-9.9h-0.1v9.9h-1.1V56.8H86l4.1,9.9h0.1v-9.9h1.1v11.9H89.8z"></path> </g> <g> <path class="st0" d="M101,68.7c-0.5,0.2-1,0.3-1.6,0.3c-0.7,0-1.3-0.1-1.8-0.4s-1-0.7-1.3-1.2c-0.4-0.5-0.6-1.2-0.8-2 c-0.2-0.8-0.3-1.6-0.3-2.6c0-0.9,0.1-1.7,0.3-2.5c0.2-0.8,0.5-1.4,0.8-2s0.8-1,1.3-1.3s1.1-0.5,1.7-0.5s1.1,0.1,1.6,0.4 c0.5,0.2,0.9,0.6,1.2,1.1l-0.8,0.8c-0.3-0.4-0.6-0.7-0.9-0.9s-0.7-0.3-1.1-0.3c-0.5,0-0.9,0.1-1.3,0.4c-0.4,0.3-0.7,0.6-0.9,1.1 s-0.4,1-0.5,1.6s-0.2,1.3-0.2,2s0.1,1.4,0.2,2.1c0.1,0.6,0.3,1.2,0.6,1.6c0.3,0.5,0.6,0.8,0.9,1.1c0.4,0.3,0.8,0.4,1.3,0.4 c0.4,0,0.7,0,1-0.1s0.5-0.2,0.7-0.4v-4h-1.7v-1h2.8v5.7C101.9,68.2,101.5,68.4,101,68.7z"></path> </g> <g> <path class="st0" d="M111.5,65.7c0,0.5-0.1,1-0.2,1.4c-0.2,0.4-0.4,0.8-0.6,1c-0.3,0.3-0.6,0.5-1,0.7s-0.8,0.2-1.2,0.2 c-0.6,0-1.2-0.1-1.7-0.4s-0.9-0.6-1.2-1l0.7-0.8c0.3,0.4,0.6,0.7,1,0.9c0.4,0.2,0.8,0.3,1.2,0.3c0.5,0,1-0.2,1.4-0.6 s0.5-0.9,0.5-1.6c0-0.3-0.1-0.6-0.2-0.9s-0.3-0.5-0.5-0.7c-0.2-0.2-0.4-0.4-0.6-0.5c-0.2-0.2-0.5-0.3-0.8-0.4 c-0.3-0.2-0.6-0.3-0.9-0.5s-0.5-0.4-0.8-0.7c-0.2-0.3-0.4-0.6-0.5-0.9c-0.1-0.4-0.2-0.8-0.2-1.2c0-0.5,0.1-1,0.3-1.4 c0.2-0.4,0.4-0.8,0.7-1c0.3-0.3,0.6-0.5,1-0.6s0.7-0.2,1.1-0.2c0.5,0,1,0.1,1.5,0.3c0.4,0.2,0.8,0.5,1.1,0.9l-0.7,0.8 c-0.2-0.3-0.5-0.6-0.8-0.7c-0.3-0.1-0.6-0.2-1-0.2c-0.2,0-0.5,0-0.7,0.1s-0.4,0.2-0.6,0.4s-0.3,0.4-0.4,0.7s-0.2,0.6-0.2,1 c0,0.3,0.1,0.6,0.2,0.9c0.1,0.2,0.2,0.5,0.4,0.7c0.2,0.2,0.4,0.4,0.6,0.5s0.5,0.3,0.7,0.4c0.3,0.2,0.6,0.3,0.9,0.5 s0.6,0.4,0.8,0.7c0.2,0.3,0.4,0.6,0.6,0.9C111.4,64.7,111.5,65.2,111.5,65.7z"></path> </g> </g> </g> </svg>