<svg xmlns="http://www.w3.org/2000/svg" xmlns:xlink="http://www.w3.org/1999/xlink" version="1.1" id="Calque_1" x="0px" y="0px" viewBox="0 0 144.1 75" style="enable-background:new 0 0 144.1 75;" xml:space="preserve"> <style type="text/css"> .st0{fill:#838382;} .st1{fill:#BCB1AB;} .st2{fill:#CCCCCC;} </style> <g> <g> <path class="st0" d="M4.6,59.3c0,1.8,0,2.8,0.3,3s0.6,0.3,1.7,0.3c0.8,0,1.3,0,1.7-0.4c0.2-0.2,0.4-0.5,0.4-0.9 c0-0.1,0-0.2,0.2-0.2C9,61.1,9,61.2,9,61.4S8.9,62.6,8.8,63c-0.1,0.3-0.2,0.4-0.9,0.4c-1,0-1.8,0-2.4,0s-1.2,0-1.8,0 c-0.2,0-0.4,0-0.8,0s-0.7,0-1,0c-0.2,0-0.3,0-0.3-0.2c0-0.1,0.1-0.1,0.3-0.1s0.4,0,0.5-0.1c0.3-0.1,0.4-0.4,0.4-0.8 c0.1-0.6,0.1-1.7,0.1-3v-2.5c0-2.1,0-2.6,0-3c0-0.5-0.2-0.7-0.6-0.8c-0.1,0-0.3,0-0.4,0s-0.3,0-0.3-0.1s0.1-0.1,0.3-0.1 c0.7,0,1.5,0,2,0c0.4,0,1.3,0,2,0c0.2,0,0.3,0,0.3,0.1s-0.1,0.1-0.3,0.1s-0.4,0-0.5,0C5,53,4.9,53.2,4.9,53.7c0,0.4,0,0.9,0,3 C4.6,56.8,4.6,59.3,4.6,59.3z"></path> <path class="st0" d="M11.3,57.8c0-1.8,0-2.1,0-2.6s-0.2-0.5-0.5-0.6c-0.1,0-0.3,0-0.5,0c-0.1,0-0.2,0-0.2-0.1s0.1-0.1,0.3-0.1 c0.6,0,1.4,0,1.8,0c0.4,0,3.2,0,3.4,0c0.3,0,0.4-0.1,0.5-0.1s0.2-0.1,0.2-0.1l0.1,0.1c0,0.1-0.1,0.3-0.1,0.8c0,0.1,0,0.6-0.1,0.8 c0,0.1,0,0.2-0.2,0.2c-0.1,0-0.1-0.1-0.1-0.2c0-0.1,0-0.3-0.1-0.4c-0.1-0.2-0.2-0.4-0.8-0.4c-0.2,0-1.7-0.1-2-0.1 c-0.1,0-0.1,0-0.1,0.1v3c0,0.1,0,0.1,0.1,0.1c0.3,0,1.9,0,2.2,0s0.5-0.1,0.6-0.2s0.2-0.2,0.2-0.2l0.1,0.1c0,0.1,0,0.3-0.1,0.9 c0,0.3-0.1,0.7-0.1,0.8s0,0.3-0.1,0.3s-0.1,0-0.1-0.1s0-0.3,0-0.4C15.6,59.1,15.4,59,15,59c-0.3,0-1.6-0.1-2-0.1 c-0.1,0-0.1,0.1-0.1,0.1v1c0,0.4,0,1.4,0,1.8c0,0.8,0.4,1,1.7,1c0.4,0,0.9,0,1.2-0.2c0.3-0.2,0.4-0.4,0.5-0.9 c0-0.1,0.1-0.2,0.2-0.2c0.1,0,0.1,0.2,0.1,0.3c0,0.3-0.1,1.1-0.2,1.3c-0.1,0.3-0.2,0.3-0.7,0.3c-1,0-1.7,0-2.3,0s-1.1,0-1.4,0 c-0.2,0-0.4,0-0.7,0s-0.6,0-0.9,0c-0.2,0-0.3,0-0.3-0.1s0-0.1,0.2-0.1s0.4,0,0.4,0c0.3-0.1,0.4-0.3,0.4-0.6 c0.1-0.5,0.1-1.4,0.1-2.6L11.3,57.8L11.3,57.8z"></path> <path class="st0" d="M18.9,63.3c-0.2-0.1-0.3-0.2-0.3-0.4c0-0.6,0.1-1.4,0.1-1.6s0.1-0.3,0.2-0.3s0.1,0.1,0.1,0.2 c0,0.2,0,0.4,0.1,0.6c0.3,0.9,1.2,1.2,2,1.2c1.1,0,1.8-0.7,1.8-1.5c0-0.5-0.1-1.1-1.2-1.7L21,59.4c-1.5-0.9-2-1.7-2-2.8 c0-1.5,1.4-2.4,3.1-2.4c0.8,0,1.4,0.1,1.8,0.2c0.1,0,0.2,0.1,0.2,0.2c0,0.2,0,0.5,0,1.4c0,0.3-0.1,0.4-0.2,0.4s-0.1-0.1-0.1-0.2 c0-0.1-0.1-0.5-0.4-0.8C23.2,55.2,22.9,55,22,55s-1.7,0.4-1.7,1.2c0,0.5,0.2,1,1.3,1.6l0.5,0.3c1.6,0.9,2.1,1.8,2.1,2.9 c0,0.9-0.4,1.6-1.2,2.2c-0.6,0.4-1.4,0.5-2.1,0.5C20.3,63.7,19.4,63.5,18.9,63.3z"></path> <path class="st0" d="M40.8,62.5c0,0.4,0,0.4-0.2,0.5c-0.9,0.5-2.3,0.6-3.4,0.6c-3.5,0-6.6-1.6-6.6-5.5c0-2.3,1.2-3.8,2.5-4.6 c1.3-0.8,2.6-0.9,3.8-0.9c1,0,2.2,0.2,2.5,0.3s0.8,0.2,1.2,0.2c0.2,0,0.2,0.1,0.2,0.2c0,0.2-0.1,0.5-0.1,2.3c0,0.3,0,0.3-0.2,0.3 c-0.1,0-0.1-0.1-0.2-0.2c0-0.4-0.1-0.8-0.5-1.2s-1.5-1.1-3.2-1.1c-0.8,0-1.8,0.1-2.8,0.9c-0.8,0.7-1.3,1.8-1.3,3.5 c0,3,2,5.3,4.9,5.3c0.4,0,0.9,0,1.2-0.2c0.2-0.1,0.3-0.3,0.3-0.5v-1.3c0-0.7,0-1.2,0-1.7s-0.2-0.7-0.6-0.8c-0.1,0-0.4,0-0.5,0 s-0.2,0-0.2-0.1s0.1-0.2,0.3-0.2c0.7,0,1.6,0,2.1,0s1.2,0,1.7,0c0.2,0,0.3,0,0.3,0.2c0,0.1-0.1,0.1-0.2,0.1s-0.2,0-0.4,0 c-0.4,0.1-0.5,0.3-0.5,0.8c0,0.4,0,1,0,1.7L40.8,62.5L40.8,62.5z"></path> <path class="st0" d="M44.3,57.8c0-1.8,0-2.1,0-2.6s-0.2-0.5-0.5-0.6c-0.1,0-0.3,0-0.5,0c-0.1,0-0.2,0-0.2-0.1s0.1-0.1,0.3-0.1 c0.6,0,1.4,0,1.7,0c0.4,0,1.5,0,2,0c0.8,0,1.7,0.1,2.4,0.5c0.4,0.3,0.9,0.9,0.9,1.7c0,0.9-0.5,1.7-1.8,2.7c1.1,1.3,2,2.5,2.8,3.2 c0.7,0.7,1.2,0.8,1.3,0.8s0.2,0,0.3,0s0.2,0.1,0.2,0.1c0,0.1-0.1,0.1-0.3,0.1h-1.2c-0.7,0-1.1-0.1-1.3-0.3c-0.5-0.3-1-0.8-1.7-1.8 c-0.5-0.6-1-1.4-1.2-1.6s-0.2-0.2-0.3-0.2H46c-0.1,0-0.1,0-0.1,0.1V60c0,1.2,0,2.1,0.1,2.6c0,0.4,0.1,0.5,0.5,0.6 c0.2,0,0.4,0,0.6,0c0.1,0,0.2,0.1,0.2,0.1c0,0.1-0.1,0.1-0.3,0.1c-0.7,0-1.8,0-2,0c-0.3,0-1.1,0-1.5,0c-0.2,0-0.3,0-0.3-0.1 s0-0.1,0.2-0.1s0.4,0,0.4,0c0.3-0.1,0.4-0.3,0.4-0.6c0.1-0.5,0.1-1.4,0.1-2.6L44.3,57.8L44.3,57.8z M45.9,58.8 c0,0.1,0,0.2,0.1,0.2c0.3,0.1,0.6,0.1,1,0.1c0.5,0,0.7,0,0.9-0.2c0.4-0.3,0.8-0.8,0.8-1.8c0-1.7-1.2-2.1-1.9-2.1 c-0.3,0-0.6,0-0.7,0C46,55,46,55,46,55.2L45.9,58.8L45.9,58.8z"></path> <path class="st0" d="M54.8,60.5C54.7,60.5,54.7,60.5,54.8,60.5L54,62.2c-0.1,0.3-0.2,0.6-0.2,0.7c0,0.2,0.1,0.4,0.5,0.4h0.2 c0.2,0,0.2,0.1,0.2,0.1c0,0.1-0.1,0.1-0.2,0.1c-0.4,0-1,0-1.4,0c-0.1,0-0.8,0-1.4,0c-0.2,0-0.3,0-0.3-0.1s0-0.1,0.2-0.1 c0.1,0,0.3,0,0.4,0c0.5-0.1,0.8-0.4,1.1-1.1l3.3-7.6c0.2-0.4,0.3-0.5,0.4-0.5c0.2,0,0.3,0.1,0.4,0.4c0.3,0.7,2.4,5.6,3.2,7.4 c0.5,1.1,0.8,1.2,1.1,1.2c0.2,0,0.4,0,0.4,0c0.1,0,0.2,0,0.2,0.1s-0.1,0.1-0.5,0.1s-1.3,0-2.4,0c-0.3,0-0.4,0-0.4-0.1 s0-0.1,0.2-0.1c0.1,0,0.2-0.1,0.1-0.3l-1-2.4c0-0.1-0.1-0.1-0.1-0.1L54.8,60.5L54.8,60.5z M57.4,59.8 C57.4,59.8,57.4,59.8,57.4,59.8l-1.2-3.1c0,0,0-0.1-0.1-0.1L56,56.8l-1.2,3c0,0.1,0,0.1,0,0.1H57.4L57.4,59.8z"></path> <path class="st0" d="M64.1,61.8c0,1,0.2,1.2,0.4,1.3c0.2,0.1,0.4,0.1,0.6,0.1s0.2,0.1,0.2,0.1c0,0.1-0.1,0.1-0.3,0.1 c-0.8,0-1.4,0-1.6,0c-0.1,0-0.7,0-1.3,0c-0.2,0-0.3,0-0.3-0.1s0.1-0.1,0.2-0.1c0.2,0,0.4,0,0.5-0.1c0.4-0.1,0.4-0.4,0.4-1.4 l0.1-7.1c0-0.3,0.1-0.4,0.2-0.4c0.2,0,0.4,0.2,0.5,0.4c0.2,0.2,2.1,2.1,3.8,3.8c0.9,0.8,2.5,2.5,2.7,2.8h0.1l-0.1-5.3 c0-0.7-0.1-1-0.4-1.1c-0.2-0.1-0.5-0.1-0.6-0.1c-0.2,0-0.2-0.1-0.2-0.1c0-0.1,0.1-0.1,0.3-0.1c0.6,0,1.3,0,1.6,0 c0.2,0,0.6,0,1.2,0c0.2,0,0.3,0,0.3,0.1s-0.1,0.1-0.2,0.1s-0.3,0-0.4,0c-0.4,0.1-0.4,0.3-0.4,1l-0.1,7.7c0,0.3-0.1,0.4-0.2,0.4 c-0.2,0-0.4-0.1-0.5-0.3c-0.8-0.7-2.3-2.2-3.7-3.5c-1.3-1.3-2.7-2.8-2.9-3l0,0L64.1,61.8z"></path> <path class="st0" d="M75.4,57.8c0-1.8,0-2.1,0-2.6s-0.2-0.5-0.5-0.6c-0.1,0-0.3,0-0.5,0c-0.1,0-0.2,0-0.2-0.1s0.1-0.1,0.3-0.1 c0.6,0,1.4,0,1.8,0s1.2,0,2.1,0c1.5,0,3.7,0,5.1,1.3c0.6,0.6,1.2,1.6,1.2,3c0,1.5-0.6,2.7-1.3,3.4c-0.5,0.5-1.9,1.4-4.2,1.4 c-0.4,0-1,0-1.5-0.1c-0.5,0-1-0.1-1.2-0.1s-0.4,0-0.7,0c-0.3,0-0.6,0-0.9,0c-0.2,0-0.3,0-0.3-0.1s0-0.1,0.2-0.1s0.4,0,0.4,0 c0.3-0.1,0.4-0.3,0.4-0.6c0.1-0.5,0.1-1.4,0.1-2.6L75.4,57.8L75.4,57.8z M77,59.2c0,1.2,0,2.2,0,2.4c0,0.3,0,0.7,0.2,0.9 c0.2,0.3,0.6,0.5,1.6,0.5c1.2,0,2-0.2,2.8-0.8c0.8-0.7,1.1-1.8,1.1-3c0-1.5-0.6-2.5-1.2-3c-1.2-1-2.5-1.2-3.5-1.2 c-0.3,0-0.7,0-0.8,0.1c-0.1,0-0.2,0.1-0.2,0.3c0,0.4,0,1.4,0,2.3V59.2L77,59.2z"></path> <path class="st0" d="M86.7,63.3c-0.2-0.1-0.3-0.2-0.3-0.4c0-0.6,0.1-1.4,0.1-1.6s0.1-0.3,0.2-0.3s0.1,0.1,0.1,0.2 c0,0.2,0,0.4,0.1,0.6c0.3,0.9,1.2,1.2,2,1.2c1.1,0,1.8-0.7,1.8-1.5c0-0.5-0.1-1.1-1.2-1.7l-0.7-0.4c-1.5-0.9-2-1.7-2-2.8 c0-1.5,1.4-2.4,3.1-2.4c0.8,0,1.4,0.1,1.8,0.2c0.1,0,0.2,0.1,0.2,0.2c0,0.2,0,0.5,0,1.4c0,0.3-0.1,0.4-0.2,0.4s-0.1-0.1-0.1-0.2 c0-0.1-0.1-0.5-0.4-0.8C91,55.2,90.7,55,89.8,55s-1.7,0.4-1.7,1.2c0,0.5,0.2,1,1.3,1.6l0.5,0.3C91.5,59,92,59.8,92,61 c0,0.9-0.4,1.6-1.2,2.2c-0.6,0.4-1.4,0.5-2.1,0.5C88,63.7,87.2,63.5,86.7,63.3z"></path> <path class="st0" d="M100.1,62.2c-1.4-1.2-1.8-2.8-1.8-4.2c0-1,0.3-2.7,1.7-3.9c1-1,2.4-1.5,4.5-1.5c0.9,0,1.4,0.1,2.1,0.2 c0.5,0.1,1,0.2,1.4,0.3c0.2,0,0.2,0.1,0.2,0.2s0,0.3-0.1,0.8c0,0.4,0,1.2,0,1.5c0,0.2,0,0.4-0.2,0.4s-0.2-0.1-0.2-0.3 c0-0.4-0.2-1-0.5-1.3c-0.4-0.5-1.6-0.9-2.9-0.9c-1.2,0-2.1,0.3-2.7,0.9c-1.1,1-1.3,2.3-1.3,3.7c0,3.4,2.6,5.1,4.5,5.1 c1.2,0,2.1-0.2,2.6-0.8c0.3-0.3,0.4-0.7,0.5-1c0-0.3,0.1-0.3,0.2-0.3s0.1,0.1,0.1,0.2c0,0.2-0.2,1.4-0.3,1.9 c-0.1,0.3-0.1,0.3-0.4,0.4c-0.5,0.3-1.6,0.4-2.6,0.4C103,63.8,101.4,63.3,100.1,62.2z"></path> <path class="st0" d="M117.6,58.3L117.6,58.3l0.1-0.4c0-1.8,0-2.3,0-2.7s-0.2-0.5-0.5-0.6c-0.1,0-0.3,0-0.5,0s-0.2,0-0.2-0.1 s0.1-0.1,0.3-0.1c0.7,0,1.5,0,1.9,0c0.3,0,1.2,0,1.6,0c0.2,0,0.3,0,0.3,0.1s-0.1,0.1-0.3,0.1c-0.1,0-0.2,0-0.4,0 c-0.4,0.1-0.4,0.3-0.4,0.6c0,0.4,0,0.7,0,2.6v2.1c0,1.1,0,2.1,0.1,2.6c0,0.4,0.1,0.5,0.5,0.6c0.2,0,0.4,0,0.6,0 c0.1,0,0.2,0.1,0.2,0.1c0,0.1-0.1,0.1-0.3,0.1c-0.8,0-1.6,0-2,0c-0.3,0-1.2,0-1.6,0c-0.2,0-0.3,0-0.3-0.1s0.1-0.1,0.2-0.1 c0.2,0,0.4,0,0.4,0c0.3-0.1,0.4-0.3,0.4-0.6c0.1-0.5,0.1-1.4,0.1-2.5v-0.9c0,0,0-0.1-0.1-0.1H113c0,0-0.1,0-0.1,0.1V60 c0,1.1,0,2.1,0.1,2.6c0,0.4,0.1,0.5,0.5,0.6c0.2,0,0.4,0,0.6,0s0.2,0.1,0.2,0.1c0,0.1-0.1,0.1-0.3,0.1c-0.8,0-1.7,0-2.1,0 c-0.3,0-1.1,0-1.6,0c-0.2,0-0.3,0-0.3-0.1s0-0.1,0.2-0.1s0.4,0,0.4,0c0.3-0.1,0.4-0.3,0.4-0.6c0.1-0.5,0.1-1.4,0.1-2.6v-2.1 c0-1.8,0-2.1,0-2.6s-0.2-0.5-0.5-0.6c-0.1,0-0.3,0-0.5,0c-0.1,0-0.2,0-0.2-0.1s0.1-0.1,0.3-0.1c0.7,0,1.5,0,1.8,0s1.2,0,1.7,0 c0.2,0,0.3,0,0.3,0.1s-0.1,0.1-0.3,0.1c-0.1,0-0.2,0-0.4,0c-0.4,0.1-0.4,0.3-0.4,0.6c0,0.4,0,0.8,0,2.7v0.3c0,0.1,0,0.1,0.1,0.1 L117.6,58.3L117.6,58.3z"></path> <path class="st0" d="M124.1,60.5C124,60.5,124,60.5,124.1,60.5l-0.8,1.7c-0.1,0.3-0.2,0.6-0.2,0.7c0,0.2,0.1,0.4,0.5,0.4h0.2 c0.2,0,0.2,0.1,0.2,0.1c0,0.1-0.1,0.1-0.2,0.1c-0.4,0-1,0-1.4,0c-0.1,0-0.8,0-1.4,0c-0.2,0-0.3,0-0.3-0.1s0-0.1,0.2-0.1 c0.1,0,0.3,0,0.4,0c0.5-0.1,0.8-0.4,1.1-1.1l3.3-7.6c0.2-0.4,0.3-0.5,0.4-0.5c0.2,0,0.3,0.1,0.4,0.4c0.3,0.7,2.4,5.6,3.2,7.4 c0.5,1.1,0.8,1.2,1.1,1.2c0.2,0,0.4,0,0.4,0s0.2,0,0.2,0.1s-0.1,0.1-0.5,0.1s-1.3,0-2.4,0c-0.3,0-0.4,0-0.4-0.1s0-0.1,0.2-0.1 c0.1,0,0.2-0.1,0.1-0.3l-1-2.4c0-0.1-0.1-0.1-0.1-0.1L124.1,60.5L124.1,60.5z M126.8,59.8C126.9,59.8,126.9,59.8,126.8,59.8 l-1.2-3.1c0,0,0-0.1-0.1-0.1l-0.1,0.1l-1.2,3c0,0.1,0,0.1,0,0.1H126.8L126.8,59.8z"></path> <path class="st0" d="M132.7,57.8c0-1.8,0-2.1,0-2.6s-0.2-0.5-0.4-0.6c-0.2,0-0.3-0.1-0.4-0.1c-0.1,0-0.2,0-0.2-0.2 c0-0.1,0.1-0.1,0.3-0.1c0.4,0,1.3,0,1.7,0c0.3,0,1.2,0,1.6,0c0.2,0,0.3,0,0.3,0.1s-0.1,0.2-0.2,0.2c-0.1,0-0.3,0-0.4,0 c-0.4,0.1-0.4,0.3-0.4,0.6c0,0.4,0,0.7,0,2.6v2.1c0,1.2,0,2.1,0.1,2.7c0,0.4,0.1,0.5,0.5,0.5c0.2,0,0.4,0,0.6,0 c0.2,0,0.2,0.1,0.2,0.1c0,0.1-0.1,0.1-0.3,0.1c-0.8,0-1.7,0-2.1,0c-0.3,0-1.2,0-1.6,0c-0.2,0-0.3,0-0.3-0.1s0-0.1,0.2-0.1 s0.4,0,0.4,0c0.3-0.1,0.4-0.3,0.4-0.5c0.1-0.5,0.1-1.4,0.1-2.6L132.7,57.8L132.7,57.8z"></path> <path class="st0" d="M137.9,63.3c-0.2-0.1-0.3-0.2-0.3-0.4c0-0.6,0.1-1.4,0.1-1.6s0.1-0.3,0.2-0.3c0.1,0,0.1,0.1,0.1,0.2 c0,0.2,0,0.4,0.1,0.6c0.3,0.9,1.2,1.2,2,1.2c1.1,0,1.8-0.7,1.8-1.5c0-0.5-0.1-1.1-1.2-1.7l-0.7-0.4c-1.5-0.9-2-1.7-2-2.8 c0-1.5,1.4-2.4,3.1-2.4c0.8,0,1.4,0.1,1.8,0.2c0.1,0,0.2,0.1,0.2,0.2c0,0.2,0,0.5,0,1.4c0,0.3-0.1,0.4-0.2,0.4 c-0.1,0-0.1-0.1-0.1-0.2c0-0.1-0.1-0.5-0.4-0.8c-0.2-0.3-0.5-0.5-1.4-0.5s-1.7,0.4-1.7,1.2c0,0.5,0.2,1,1.3,1.6l0.5,0.3 c1.6,0.9,2.1,1.8,2.1,2.9c0,0.9-0.4,1.6-1.2,2.2c-0.6,0.4-1.4,0.5-2.1,0.5C139.3,63.7,138.5,63.5,137.9,63.3z"></path> </g> <g> <g> <g> <path class="st1" d="M60.4,40.7c-0.8-0.3-1.7-0.6-2.5-0.6c-0.4,0-0.8,0.1-1,0.4c-0.1,0.3-0.1,0.7-0.1,1c0,0.4,0,0.9,0,1.3 c0,0.2,0,0.3,0.2,0.4c0.3,0.3,0.6,0.2,0.9,0.1c0.4,0,0.8-0.1,1.2-0.2c0.4,0,0.9-0.1,1.3-0.1c0.3,0,0.4,0,0.6,0 c0.6,0,0.8-1,0.6-1.4S60.8,40.8,60.4,40.7z"></path> <g> <path class="st1" d="M62,37.3c-0.2-0.5-2-1.3-2.6-1.1c-0.4,0.2-1.1,1.7-0.8,2.3s1.5,1.2,2.1,1.2c0.3,0,0.4-0.3,0.4-0.4 c0.1-0.3,0.3-0.5,0.4-0.7C61.6,38.3,62.1,37.8,62,37.3z"></path> </g> <path class="st1" d="M63.6,33.8C63.5,33.8,63.5,33.8,63.6,33.8c-0.3-0.4-0.4-0.6-0.6-0.8c-0.4-0.4-0.8-0.8-1.4-0.5 c-1,0.4-1.2,1.3-0.7,2.1c0.3,0.4,0.5,0.6,0.8,1c0.3,0.3,0.7,0.7,1.2,0.4c0.4-0.3,1-0.6,1.1-1.1c0.1-0.3,0.1-0.5-0.1-0.8 C63.7,34,63.6,33.8,63.6,33.8z"></path> <path class="st1" d="M67.6,31.5c-0.1-0.6-0.4-1.2-0.6-1.8c-0.1-0.3-0.2-0.6-0.4-0.7c-0.3-0.1-0.5,0-0.8,0 c-0.3,0.1-0.6,0.2-0.9,0.3c-0.5,0.2-1,0.5-1.2,1.2c-0.1,0.5,0.1,1.1,0.4,1.5c0.2,0.4,0.5,1.3,1.1,1.3c0.3,0,0.6-0.3,1-0.4 c0.3-0.1,0.5-0.2,0.9-0.3C67.5,32.5,67.7,32.2,67.6,31.5z"></path> <path class="st1" d="M71.4,27c-0.3-0.3-2.6,0-2.9,0.4c-0.4,0.4-0.1,1.3,0,1.9c0.1,0.4,0.3,0.8,0.4,1.2c0.1,0.3,0.2,0.8,0.5,0.9 s0.7,0,1,0s0.5,0,0.8-0.1c0.5-0.2,0.7-0.7,0.7-1.2C71.9,29.5,71.8,27.2,71.4,27z"></path> <path class="st1" d="M75.7,26c-0.8-0.1-2-0.2-2.3,0.4c-0.4,0.5-0.4,1.3-0.4,2c0,0.4,0,0.8,0,1.2c0,0.3,0,0.6,0.2,0.9 c0,0,0.1,0.1,0.1,0.2c0.3,0.3,0.8,0.2,1.2,0.1c0.3,0,0.6-0.1,0.9-0.2c0.3,0,0.4,0,0.5-0.3c0.2-0.3,0.2-0.5,0.3-0.8 c0.2-0.6,0.3-1.2,0.4-1.8C77,26.6,77,26.2,75.7,26z"></path> <path class="st1" d="M80.3,28.1c-0.4-0.8-1.8-1.6-2.5-0.9c-0.4,0.4-0.5,1.2-0.6,1.7c-0.1,0.4-0.1,0.7-0.2,1.1 c0,0.2,0,0.3-0.1,0.4c0,0.4,0.3,0.4,0.5,0.6s0.4,0.4,0.7,0.4c0.6,0.3,1.1-0.2,1.3-0.7C80,30,80.7,29,80.3,28.1z"></path> <path class="st1" d="M84.1,29.9c-0.3-0.8-1.8-1.8-2.6-1.2c-0.4,0.4-0.6,1-0.8,1.5c-0.1,0.4-0.2,0.6-0.3,1 c-0.1,0.3-0.2,0.7-0.2,1c0,0.2,0.1,0.4,0.2,0.5c0.1,0.2,0.3,0.3,0.4,0.4c0.6,0.5,1.4-0.1,1.9-0.5s1-1.1,1.2-1.8 C84,30.5,84.2,30.1,84.1,29.9z"></path> <path class="st1" d="M87.1,34.2c0-0.4-0.3-0.8-0.4-1.2c-0.3-0.4-0.6-1.1-1.1-1.2s-1.1,0.5-1.3,0.8c-0.3,0.3-0.4,0.5-0.7,0.8 c-0.2,0.2-0.2,0.4-0.1,0.6c0.1,0.3,0.3,0.5,0.4,0.8c0.1,0.2,0.2,0.4,0.3,0.6c0.3,0.5,0.7,0.5,1.2,0.4c0.4-0.1,0.9-0.5,1.2-0.7 c0.2-0.1,0.3-0.2,0.4-0.4C87.1,34.5,87.1,34.3,87.1,34.2z"></path> <path class="st1" d="M88.9,36c-0.5-0.3-1.2-0.1-1.6,0.1c-0.3,0.1-0.6,0.3-0.9,0.4c-0.2,0.1-0.6,0.3-0.7,0.5 C85.6,37.3,86,37.6,86,38c0.1,0.2,0.1,0.4,0.2,0.6c0.2,0.4,0.6,0.4,1.1,0.4s1.1,0.1,1.6,0.1c0.4,0,1,0,1.2-0.3 c0.4-0.4-0.2-1.3-0.4-1.8C89.5,36.7,89.3,36.2,88.9,36z"></path> <path class="st1" d="M91.5,40.5c-0.1-0.1-0.3-0.2-0.4-0.2c-0.7-0.1-1.5-0.1-2.3,0c-0.4,0-0.7,0-1,0.1c-0.2,0-0.4,0-0.5,0.2 s0,0.5,0.1,0.8c0,0.3,0.1,0.6,0.2,1c0.3,1.3,1.4,2,2.8,1.8c0.5,0,1-0.3,1.2-0.7c0.3-0.5,0.3-1.2,0.3-1.8c0-0.3,0-0.6,0-0.9 C91.7,40.7,91.6,40.5,91.5,40.5z"></path> </g> <path class="st1" d="M48.1,32.8c1-1.2,3.5-4.1,6.9-7.1c12.6-11.1,24.7-12,37.6-0.7c2.4,2.1,5,4.8,7.6,8.2 c0.1,0.1,0.2,0.2,0.3,0.3c0.1,0.2-0.1,0.3-0.4,0.3h-0.9h-0.8c-0.4,0-0.7,0-0.8-0.1c0-0.1-0.1-0.2-0.1-0.3c-0.7-1-5-7.1-11.6-11.2 c-8.7-5.4-17.5-4.2-25.7,2c-2.7,2.1-5.7,4.9-8.8,8.7c0,0.1-0.3,0.3-0.4,0.4c-0.1,0.1-0.3,0.2-0.7,0.2h-2c-0.4,0-0.6-0.1-0.4-0.3 C48,33,48,33,48.1,32.8z"></path> <path class="st2" d="M61.7,19c-21,1.2-37,12.3-39.7,15.2l-0.1,0.1l0.4,0.2c5.3-3.2,20.4-10.9,36.6-13.6L61.7,19z"></path> <path class="st2" d="M86.6,19c21,1.2,37,12.2,39.7,15.2l0.1,0.1l-0.4,0.2c-5.3-3.2-20.4-10.9-36.6-13.6L86.6,19z"></path> <path class="st1" d="M58.2,11.1c0,0-0.5,5,2,5.7h1.2c0,0,2.1-0.5,1.8-5.7C63.2,11.1,58.2,11.1,58.2,11.1z"></path> <g> <path class="st2" d="M20.2,37.7h-4c-0.4,0-0.8-0.4-0.8-0.8v-0.7c0-0.4,0.4-0.8,0.8-0.8h4c0.4,0,0.8,0.4,0.8,0.8v0.7 C21,37.2,20.6,37.7,20.2,37.7z"></path> <path class="st2" d="M19.9,44.3h-3.6c-0.4,0-0.8-0.4-0.8-0.8v-4.4c0-0.4,0.4-0.8,0.8-0.8h3.6c0.4,0,0.8,0.4,0.8,0.8v4.4 C20.7,44,20.3,44.3,19.9,44.3z"></path> </g> <g> <path class="st1" d="M50.7,37.7h-4c-0.4,0-0.8-0.4-0.8-0.8v-0.7c0-0.4,0.4-0.8,0.8-0.8h4c0.4,0,0.8,0.4,0.8,0.8v0.7 C51.5,37.2,51.1,37.7,50.7,37.7z"></path> <path class="st1" d="M50.5,44.3h-3.6c-0.4,0-0.8-0.4-0.8-0.8v-4.4c0-0.4,0.4-0.8,0.8-0.8h3.6c0.4,0,0.8,0.4,0.8,0.8v4.4 C51.2,44,50.8,44.3,50.5,44.3z"></path> </g> <g> <path class="st1" d="M102.1,37.7h-4c-0.4,0-0.8-0.4-0.8-0.8v-0.7c0-0.4,0.4-0.8,0.8-0.8h4c0.4,0,0.8,0.4,0.8,0.8v0.7 C102.9,37.2,102.5,37.7,102.1,37.7z"></path> <path class="st1" d="M101.8,44.3h-3.6c-0.4,0-0.8-0.4-0.8-0.8v-4.4c0-0.4,0.4-0.8,0.8-0.8h3.6c0.4,0,0.8,0.4,0.8,0.8v4.4 C102.6,44,102.3,44.3,101.8,44.3z"></path> </g> <g> <path class="st2" d="M132.2,37.7h-4c-0.4,0-0.8-0.4-0.8-0.8v-0.7c0-0.4,0.4-0.8,0.8-0.8h4c0.4,0,0.8,0.4,0.8,0.8v0.7 C133,37.2,132.7,37.7,132.2,37.7z"></path> <path class="st2" d="M132,44.3h-3.6c-0.4,0-0.8-0.4-0.8-0.8v-4.4c0-0.4,0.4-0.8,0.8-0.8h3.6c0.4,0,0.8,0.4,0.8,0.8v4.4 C132.8,44,132.4,44.3,132,44.3z"></path> </g> <path class="st1" d="M62.4,17.8c0,0.3-0.3,0.5-0.5,0.5h-2.4c-0.3,0-0.5-0.3-0.5-0.5l0,0c0-0.3,0.3-0.5,0.5-0.5h2.4 C62.2,17.2,62.4,17.5,62.4,17.8L62.4,17.8z"></path> <path class="st1" d="M89.3,11.1h-5c0,0-0.5,5,2,5.7h1.2C87.5,16.9,89.6,16.4,89.3,11.1z"></path> <path class="st1" d="M88.5,17.8c0,0.3-0.3,0.5-0.5,0.5h-2.4c-0.3,0-0.5-0.3-0.5-0.5l0,0c0-0.3,0.3-0.5,0.5-0.5H88 C88.4,17.2,88.5,17.5,88.5,17.8L88.5,17.8z"></path> </g> <g> <path class="st2" d="M43.5,36.5H27.4c-0.2,0-0.3-0.2-0.3-0.3c0-0.2,0.2-0.3,0.3-0.3h16.1c0.2,0,0.3,0.2,0.3,0.3 S43.7,36.5,43.5,36.5z"></path> </g> <g> <path class="st2" d="M43.8,40.5H23.3c-0.2,0-0.3-0.2-0.3-0.3c0-0.2,0.2-0.3,0.3-0.3h20.5c0.2,0,0.3,0.2,0.3,0.3 C44.1,40.3,44,40.5,43.8,40.5z"></path> </g> <g> <path class="st2" d="M43.8,44.2H23.3C23.1,44.2,23,44,23,44c0-0.2,0.2-0.3,0.3-0.3h20.5c0.2,0,0.3,0.2,0.3,0.3S44,44.2,43.8,44.2 z"></path> </g> <g> <path class="st2" d="M45.5,32.5H32.8c-0.2,0-0.3-0.2-0.3-0.3c0-0.2,0.2-0.3,0.3-0.3h12.6c0.2,0,0.3,0.2,0.3,0.3 C45.7,32.3,45.6,32.5,45.5,32.5z"></path> </g> <g> <path class="st2" d="M48.5,29.4h-9.6c-0.2,0-0.3-0.2-0.3-0.3s0.2-0.3,0.3-0.3h9.6c0.2,0,0.3,0.2,0.3,0.3S48.7,29.4,48.5,29.4z"></path> </g> <g> <path class="st2" d="M51.3,26.4h-5.4c-0.2,0-0.3-0.2-0.3-0.3c0-0.2,0.2-0.3,0.3-0.3h5.4c0.2,0,0.3,0.2,0.3,0.3 S51.5,26.4,51.3,26.4z"></path> </g> <g> <path class="st2" d="M121.4,36.5h-16.2c-0.2,0-0.3-0.2-0.3-0.3c0-0.2,0.2-0.3,0.3-0.3h16.1c0.2,0,0.3,0.2,0.3,0.3 S121.5,36.5,121.4,36.5z"></path> </g> <g> <path class="st2" d="M125.5,40.5H105c-0.2,0-0.3-0.2-0.3-0.3c0-0.2,0.2-0.3,0.3-0.3h20.5c0.2,0,0.3,0.2,0.3,0.3 C125.7,40.3,125.6,40.5,125.5,40.5z"></path> </g> <g> <path class="st2" d="M125.5,44.2H105c-0.2,0-0.3-0.2-0.3-0.3c0-0.2,0.2-0.3,0.3-0.3h20.5c0.2,0,0.3,0.2,0.3,0.3 C125.7,44,125.6,44.2,125.5,44.2z"></path> </g> <g> <path class="st2" d="M115.8,32.5h-12.6c-0.2,0-0.3-0.2-0.3-0.3c0-0.2,0.2-0.3,0.3-0.3h12.6c0.2,0,0.3,0.2,0.3,0.3 C116.2,32.3,116,32.5,115.8,32.5z"></path> </g> <g> <path class="st2" d="M109.8,29.4h-9.6c-0.2,0-0.3-0.2-0.3-0.3s0.2-0.3,0.3-0.3h9.6c0.2,0,0.3,0.2,0.3,0.3S110,29.4,109.8,29.4z"></path> </g> <g> <path class="st2" d="M102.9,26.4h-5.4c-0.2,0-0.3-0.2-0.3-0.3c0-0.2,0.2-0.3,0.3-0.3h5.4c0.2,0,0.3,0.2,0.3,0.3 C103.3,26.2,103.1,26.4,102.9,26.4z"></path> </g> </g> </g> </svg>