<svg xmlns="http://www.w3.org/2000/svg" xmlns:xlink="http://www.w3.org/1999/xlink" version="1.1" id="Calque_1" x="0px" y="0px" viewBox="0 0 285.9 162" style="enable-background:new 0 0 285.9 162;" xml:space="preserve"> <style type="text/css"> .st0{fill:#1D1D1B;} </style> <g> <g> <path class="st0" d="M24.1,12.1h21v1.3h-6.2v38.2H41c3.3,0,5.9-1,7.9-3c2-2,4-5.1,6-9.3h1.2l-1.1,13.6H24.1v-1.3h3.4V13.3h-3.4 V12.1z"></path> <path class="st0" d="M61,49.6c-2.5-2.6-3.8-6.2-3.8-10.8c0-4.6,1.4-8.1,4.2-10.6c2.8-2.4,6.4-3.7,10.8-3.7 c8.8,0,13.1,4.4,12.7,13.3H68.5v2.3c0,3.8,0.5,6.7,1.5,8.6c1,1.9,2.7,2.9,5.1,2.9c4.5,0,7.5-2.4,8.9-7.2l1,0.2 c-0.7,2.8-2.1,5-4,6.5c-1.9,1.6-4.8,2.3-8.7,2.3C67.3,53.4,63.5,52.2,61,49.6z M68.6,36.7h6v-2.9c0-3.1-0.2-5.3-0.6-6.4 c-0.4-1.1-1.1-1.7-2.2-1.7s-1.9,0.6-2.4,1.8c-0.5,1.2-0.8,3.3-0.8,6.3V36.7z"></path> <path class="st0" d="M86.7,53.4V43h0.7c1,3.4,2.4,5.8,4.1,7.1c1.7,1.4,3.8,2,6.4,2c4,0,5.9-1.3,5.9-3.8c0-1.1-0.5-1.9-1.5-2.4 c-1.5-0.9-3.5-1.5-5.8-2c-2.6-0.7-4.9-1.6-6.6-2.8c-2.1-1.4-3.2-3.6-3.2-6.6s0.9-5.4,2.8-7.3c1.9-1.8,4.4-2.7,7.5-2.7 c1.9,0,3.9,0.4,5.9,1.3c0.7,0.3,1.3,0.5,1.7,0.5c0.4,0,0.7-0.1,1-0.4c0.3-0.3,0.6-0.8,1-1.5h0.6v8.9h-0.7c-2-5.1-5.1-7.6-9.2-7.6 c-1.8,0-3.2,0.3-4.1,1c-0.9,0.6-1.3,1.4-1.3,2.4c0,0.6,0.1,1,0.4,1.4c0.3,0.3,0.5,0.6,0.6,0.7c0.2,0.2,0.4,0.3,0.8,0.5 c0.3,0.2,0.6,0.3,0.9,0.4c0.2,0.1,0.6,0.2,1.1,0.4c0.5,0.2,0.8,0.3,1.1,0.3c2.6,0.7,4.5,1.2,5.7,1.7c1.2,0.5,2.3,1.1,3.3,1.8 c2.1,1.5,3.2,3.9,3.2,7.1c0,3.3-1,5.8-2.9,7.5c-1.9,1.7-4.6,2.5-8,2.5c-2.4,0-4.7-0.6-7-1.7c-0.5-0.3-0.8-0.5-1.1-0.5 c-0.9,0-1.7,0.7-2.5,2.2H86.7z"></path> <path class="st0" d="M142.2,51.8l-4.3-12.6h-11.5l-4.5,12.6h4.4v1.1h-8.9v-1.1h2.7l14.9-40h4.8l14.7,40h2.7v1.1h-19.1v-1.1H142.2z M132.4,22.6l-5.5,15.3h10.5L132.4,22.6z M128.5,9.6l6.2-8.6c1.1-0.6,2.2-0.9,3.2-0.9c1.8,0,3.2,0.8,4.1,2.3l4.3,7.2l-0.5,0.6 l-8.3-4l-8.5,4L128.5,9.6z"></path> <path class="st0" d="M154.7,25.1h14v5.4c1.3-4,4.1-5.9,8.5-5.9s7,2.1,8,6.3c1.4-4.2,4.2-6.3,8.6-6.3c5.7,0,8.6,3.2,8.6,9.7v17.5 h3.3v1h-16.1v-1h2V32.9c0-3-0.3-4.7-0.8-5.2c-0.2-0.2-0.5-0.3-0.9-0.3c-1.1,0-2.1,0.8-3,2.3c-0.9,1.5-1.3,3.4-1.3,5.8v16.4h2.1v1 h-15v-1h2V32.9c0-3-0.3-4.7-0.8-5.2c-0.2-0.2-0.5-0.3-0.9-0.3c-1.1,0-2.1,0.8-2.9,2.5c-0.9,1.7-1.3,3.6-1.3,5.9v16.1h2.1v1h-16.1 v-1h3.2V26.2h-3.2V25.1z"></path> <path class="st0" d="M209.1,49.6c-2.5-2.6-3.8-6.2-3.8-10.8c0-4.6,1.4-8.1,4.2-10.6c2.8-2.4,6.4-3.7,10.8-3.7 c8.8,0,13.1,4.4,12.7,13.3h-16.4v2.3c0,3.8,0.5,6.7,1.5,8.6c1,1.9,2.7,2.9,5.1,2.9c4.5,0,7.5-2.4,8.9-7.2l1,0.2 c-0.7,2.8-2.1,5-4,6.5c-1.9,1.6-4.8,2.3-8.7,2.3C215.3,53.4,211.6,52.2,209.1,49.6z M216.6,36.7h6v-2.9c0-3.1-0.2-5.3-0.6-6.4 c-0.4-1.1-1.1-1.7-2.2-1.7c-1.1,0-1.9,0.6-2.4,1.8c-0.5,1.2-0.8,3.3-0.8,6.3V36.7z"></path> <path class="st0" d="M234.4,53.4V43h0.7c1,3.4,2.4,5.8,4.1,7.1c1.7,1.4,3.8,2,6.4,2c4,0,5.9-1.3,5.9-3.8c0-1.1-0.5-1.9-1.5-2.4 c-1.5-0.9-3.5-1.5-5.8-2c-2.6-0.7-4.9-1.6-6.6-2.8c-2.1-1.4-3.2-3.6-3.2-6.6s0.9-5.4,2.8-7.3c1.9-1.8,4.4-2.7,7.5-2.7 c1.9,0,3.9,0.4,5.9,1.3c0.7,0.3,1.3,0.5,1.7,0.5c0.4,0,0.7-0.1,1-0.4c0.3-0.3,0.6-0.8,1-1.5h0.6v8.9h-0.7c-2-5.1-5.1-7.6-9.2-7.6 c-1.8,0-3.2,0.3-4.1,1c-0.9,0.6-1.3,1.4-1.3,2.4c0,0.6,0.1,1,0.4,1.4c0.3,0.3,0.5,0.6,0.6,0.7c0.2,0.2,0.4,0.3,0.8,0.5 c0.3,0.2,0.6,0.3,0.9,0.4c0.2,0.1,0.6,0.2,1.1,0.4c0.5,0.2,0.8,0.3,1.1,0.3c2.6,0.7,4.5,1.2,5.7,1.7c1.2,0.5,2.3,1.1,3.3,1.8 c2.1,1.5,3.2,3.9,3.2,7.1c0,3.3-1,5.8-2.9,7.5c-1.9,1.7-4.6,2.5-8,2.5c-2.4,0-4.7-0.6-7-1.7c-0.5-0.3-0.8-0.5-1.1-0.5 c-0.9,0-1.7,0.7-2.5,2.2H234.4z"></path> <path class="st0" d="M47.6,98.1c1.9,0,3.7-0.5,5.2-1.6c1.5-1,2.2-2.6,2.2-4.8c0-2.1-0.8-3.7-2.4-4.9c-1.6-1.1-3.9-2.1-6.9-2.9 c-3-0.8-5.1-1.6-6.5-2.2c-1.3-0.6-2.6-1.4-3.8-2.4c-2.4-2-3.6-5.1-3.6-9.4c0-3.5,1.2-6.4,3.7-8.9c2.5-2.5,5.8-3.7,10.1-3.7 c2.1,0,4.2,0.3,6.4,0.9c2.2,0.6,3.6,0.9,4.2,0.9c0.5,0,1-0.4,1.5-1.2h0.6l0.4,11.8h-0.9C56,66.3,54,63.6,52,61.5s-4.3-3.1-6.6-3.1 c-2.4,0-4.2,0.6-5.6,1.7c-1.3,1.1-2,2.6-2,4.4c0,1.8,0.8,3.3,2.4,4.3c1.6,1,3.5,1.8,5.8,2.4c2.3,0.6,3.8,1,4.5,1.3 c0.7,0.2,1.6,0.6,2.7,1c1.1,0.4,1.9,0.8,2.6,1.3c0.7,0.4,1.4,1,2.2,1.7c0.8,0.7,1.3,1.4,1.8,2.2c1,1.9,1.6,4.1,1.6,6.6 c0,4.2-1.3,7.6-3.9,10.1c-2.6,2.5-6.1,3.8-10.3,3.8c-2.2,0-4.8-0.3-7.6-0.9c-2.9-0.6-4.4-0.9-4.8-0.9c-0.5,0-1.1,0.6-1.6,1.7h-0.8 l-0.6-13.9h1c1.7,3.4,3.9,6.3,6.6,8.9C41.9,96.8,44.7,98.1,47.6,98.1z"></path> <path class="st0" d="M75.9,85h1.7v-4.5c0-3.7-0.2-6.2-0.6-7.4c-0.4-1.3-1.2-1.9-2.4-1.9c-0.7,0-1.3,0.2-1.9,0.6 c-0.6,0.4-0.8,0.9-0.8,1.5c0,0.6,0.1,1.3,0.3,2h1.5c0.3,0.8,0.5,1.8,0.5,2.9c0,1.1-0.5,2.1-1.5,3c-1,0.8-2.2,1.3-3.7,1.3 c-3.3,0-5-1.6-5-4.8c0-4.8,4.1-7.2,12.2-7.2c4.6,0,7.8,0.8,9.6,2.4c1.8,1.6,2.7,4.5,2.7,8.7v11.8c0,2,0.6,3,1.7,3 c1.3,0,2.1-2,2.3-6l0.9,0.1c-0.2,3.4-0.8,5.8-1.9,7.1c-1.1,1.3-3,1.9-5.5,1.9c-4.7,0-7.3-1.4-8-4.3c-0.5,1.5-1.3,2.6-2.3,3.3 c-1,0.7-2.5,1-4.4,1c-5.8,0-8.6-2.4-8.6-7.1c0-2.8,1.1-4.7,3.3-5.7C68,85.5,71.4,85,75.9,85z M73.9,96.1c0.2,0.6,0.6,0.9,1.2,0.9 c0.6,0,1.2-0.5,1.7-1.5c0.5-1,0.8-2.4,0.8-4.1v-5.4h-0.4c-2.4,0-3.6,1.8-3.6,5.3v0.9C73.6,94.2,73.7,95.5,73.9,96.1z"></path> <path class="st0" d="M125.1,98.7h-13.3l-0.6-4.3c-0.6,1.6-1.5,2.7-2.8,3.6c-1.2,0.8-3,1.3-5.4,1.3c-6,0-9-3.2-9-9.7V72h-3.3v-1 h14.1v20c0,2.3,0.2,3.9,0.5,4.6c0.3,0.7,1,1.1,2,1.1c1,0,1.9-0.6,2.7-1.8c0.8-1.2,1.2-2.9,1.2-5V72h-2.7v-1h13.5v26.7h3.2V98.7z"></path> <path class="st0" d="M121.6,72v-1H139v1h-3.7l7,19.4l6.3-19.4h-3.9v-1h7.9v1H150l-8.6,26.7h-6.6L124,72H121.6z"></path> <path class="st0" d="M163.1,85h1.7v-4.5c0-3.7-0.2-6.2-0.6-7.4c-0.4-1.3-1.2-1.9-2.4-1.9c-0.7,0-1.3,0.2-1.9,0.6 c-0.6,0.4-0.8,0.9-0.8,1.5c0,0.6,0.1,1.3,0.3,2h1.5c0.3,0.8,0.5,1.8,0.5,2.9c0,1.1-0.5,2.1-1.5,3c-1,0.8-2.2,1.3-3.7,1.3 c-3.3,0-5-1.6-5-4.8c0-4.8,4.1-7.2,12.2-7.2c4.6,0,7.8,0.8,9.6,2.4c1.8,1.6,2.7,4.5,2.7,8.7v11.8c0,2,0.6,3,1.7,3 c1.3,0,2.1-2,2.3-6l0.9,0.1c-0.2,3.4-0.8,5.8-1.9,7.1c-1.1,1.3-3,1.9-5.5,1.9c-4.7,0-7.3-1.4-8-4.3c-0.5,1.5-1.3,2.6-2.3,3.3 c-1,0.7-2.5,1-4.4,1c-5.8,0-8.6-2.4-8.6-7.1c0-2.8,1.1-4.7,3.3-5.7C155.2,85.5,158.5,85,163.1,85z M161.1,96.1 c0.2,0.6,0.6,0.9,1.2,0.9s1.2-0.5,1.7-1.5c0.5-1,0.8-2.4,0.8-4.1v-5.4h-0.4c-2.4,0-3.6,1.8-3.6,5.3v0.9 C160.8,94.2,160.9,95.5,161.1,96.1z"></path> <path class="st0" d="M203.3,67.9l1.6-1c0.2-1.2-0.2-1.8-1.4-1.8c-1.7,0-2.5,1.3-2.5,3.8c0,1,0.1,2.2,0.4,3.5c3,2,4.4,4.5,4.4,7.6 c0,3.1-1.1,5.5-3.2,7.2s-5,2.6-8.7,2.6c-1.5,0-3.1-0.2-4.7-0.5c-1.7,1.1-2.6,1.9-2.6,2.4c0,0.5,1.2,0.8,3.7,0.8h5.9 c8.8,0,13.2,3.2,13.2,9.5c0,3.4-1.3,6.1-4,8.1c-2.7,2-6.8,3-12.4,3c-9.6,0-14.4-2.1-14.4-6.2c0-2.3,1.5-3.8,4.5-4.7l3.5,1.6 c-0.3,1.1-0.5,2.2-0.5,3.2c0,3.3,2.5,5,7.5,5c3,0,5.4-0.6,7-1.7c1.6-1.1,2.4-2.5,2.4-4.2c0-1.7-0.5-2.8-1.5-3.4 c-1-0.6-3-0.8-5.9-0.8h-5.7c-3.1,0-5.4-0.5-6.8-1.6c-1.4-1-2-2.3-2-3.9c0-1.5,0.5-2.8,1.5-3.8c1-1,2.7-2.3,5.2-3.8 c-4.5-1.3-6.8-4.2-6.8-8.9c0-2.9,1-5.3,3.1-7.1c2.1-1.8,5.2-2.7,9.4-2.7c2.5,0,4.7,0.5,6.5,1.5c-0.2-1-0.3-2-0.3-2.9 c0-2.2,0.6-3.7,1.7-4.7c1.2-1,2.5-1.5,3.9-1.5c1.4,0,2.6,0.4,3.5,1.1c0.9,0.8,1.3,1.8,1.3,3.1c0,1.3-0.3,2.3-1,2.9s-1.5,1-2.5,1 c-1,0-1.8-0.3-2.4-0.8C203.7,69.6,203.3,68.9,203.3,67.9z M191,78.8V82c0,2.6,0.2,4.4,0.7,5.3c0.4,0.9,1.1,1.4,2,1.4 c0.9,0,1.6-0.5,2-1.4c0.4-0.9,0.6-2.8,0.6-5.6v-2.9c0-3-0.2-5-0.6-6c-0.4-1-1-1.4-2-1.4c-0.9,0-1.6,0.5-2.1,1.5 C191.2,73.9,191,75.9,191,78.8z"></path> <path class="st0" d="M211.8,95.4c-2.5-2.6-3.8-6.2-3.8-10.8c0-4.6,1.4-8.1,4.2-10.6c2.8-2.4,6.4-3.7,10.8-3.7 c8.8,0,13.1,4.4,12.7,13.3h-16.4v2.3c0,3.8,0.5,6.7,1.5,8.6c1,1.9,2.7,2.9,5.1,2.9c4.5,0,7.5-2.4,8.9-7.2l1,0.2 c-0.7,2.8-2.1,5-4,6.5c-1.9,1.6-4.8,2.3-8.7,2.3C218.1,99.3,214.3,98,211.8,95.4z M219.3,82.5h6v-2.9c0-3.1-0.2-5.3-0.6-6.4 c-0.4-1.1-1.1-1.7-2.2-1.7c-1.1,0-1.9,0.6-2.4,1.8c-0.5,1.2-0.8,3.3-0.8,6.3V82.5z"></path> <path class="st0" d="M237.4,99.3V88.8h0.7c1,3.4,2.4,5.8,4.1,7.1s3.8,2,6.4,2c4,0,5.9-1.3,5.9-3.8c0-1.1-0.5-1.9-1.5-2.4 c-1.5-0.9-3.5-1.5-5.8-2c-2.6-0.7-4.9-1.6-6.6-2.8c-2.1-1.4-3.2-3.6-3.2-6.6s0.9-5.4,2.8-7.3c1.9-1.8,4.4-2.7,7.5-2.7 c1.9,0,3.9,0.4,5.9,1.3c0.7,0.3,1.3,0.5,1.7,0.5c0.4,0,0.7-0.1,1-0.4c0.3-0.3,0.6-0.8,1-1.5h0.6v8.9h-0.7c-2-5.1-5.1-7.6-9.2-7.6 c-1.8,0-3.2,0.3-4.1,1c-0.9,0.6-1.3,1.4-1.3,2.4c0,0.6,0.1,1,0.4,1.4c0.3,0.3,0.5,0.6,0.6,0.7c0.2,0.2,0.4,0.3,0.8,0.5 c0.3,0.2,0.6,0.3,0.9,0.4c0.2,0.1,0.6,0.2,1.1,0.4c0.5,0.2,0.8,0.3,1.1,0.3c2.6,0.7,4.5,1.2,5.7,1.7c1.2,0.5,2.3,1.1,3.3,1.8 c2.1,1.5,3.2,3.9,3.2,7.1c0,3.3-1,5.8-2.9,7.5c-1.9,1.7-4.6,2.5-8,2.5c-2.4,0-4.7-0.6-7-1.7c-0.5-0.3-0.8-0.5-1.1-0.5 c-0.9,0-1.7,0.7-2.5,2.2H237.4z"></path> </g> <g> <g> <path class="st0" d="M7.5,120.3h1.8l7.5,16.7h-2l-1.9-4.4h-9l-2,4.4H0L7.5,120.3z M12.2,130.9l-3.8-8.4l-3.8,8.4H12.2z"></path> <path class="st0" d="M19.9,120.4H27c2,0,3.7,0.6,4.7,1.7c0.8,0.8,1.3,2,1.3,3.3v0c0,2.7-1.9,4.4-4.5,4.8l5.1,6.8h-2.3l-4.8-6.4 h-4.7v6.4h-1.9V120.4z M26.8,128.9c2.5,0,4.3-1.3,4.3-3.4v0c0-2-1.6-3.3-4.2-3.3h-5.1v6.7H26.8z"></path> <path class="st0" d="M40.9,122.1h-5.6v-1.7h13v1.7h-5.6V137h-1.9V122.1z"></path> <path class="st0" d="M51.8,120.4h1.9V137h-1.9V120.4z"></path> <path class="st0" d="M57.2,134.6l1.2-1.4c1.7,1.6,3.4,2.3,5.7,2.3c2.2,0,3.7-1.2,3.7-2.8v0c0-1.5-0.8-2.4-4.3-3.1 c-3.8-0.8-5.6-2.1-5.6-4.8v0c0-2.6,2.3-4.5,5.4-4.5c2.4,0,4.1,0.7,5.8,2l-1.1,1.4c-1.5-1.3-3.1-1.8-4.8-1.8 c-2.2,0-3.5,1.2-3.5,2.7v0c0,1.6,0.9,2.4,4.5,3.2c3.7,0.8,5.4,2.2,5.4,4.7v0c0,2.8-2.4,4.7-5.7,4.7 C61.4,137.2,59.2,136.3,57.2,134.6z"></path> <path class="st0" d="M79,120.3h1.8l7.5,16.7h-2l-1.9-4.4h-9l-2,4.4h-1.9L79,120.3z M83.6,130.9l-3.8-8.4l-3.8,8.4H83.6z"></path> <path class="st0" d="M91.3,120.4h1.8l10.4,13.3v-13.3h1.8V137h-1.5l-10.7-13.6V137h-1.8V120.4z"></path> <path class="st0" d="M108.7,134.6l1.2-1.4c1.7,1.6,3.4,2.3,5.7,2.3c2.2,0,3.7-1.2,3.7-2.8v0c0-1.5-0.8-2.4-4.3-3.1 c-3.8-0.8-5.6-2.1-5.6-4.8v0c0-2.6,2.3-4.5,5.4-4.5c2.4,0,4.1,0.7,5.8,2l-1.1,1.4c-1.5-1.3-3.1-1.8-4.8-1.8 c-2.2,0-3.5,1.2-3.5,2.7v0c0,1.6,0.9,2.4,4.5,3.2c3.7,0.8,5.4,2.2,5.4,4.7v0c0,2.8-2.4,4.7-5.7,4.7 C112.8,137.2,110.7,136.3,108.7,134.6z"></path> <path class="st0" d="M130.4,134.6l1.2-1.4c1.7,1.6,3.4,2.3,5.7,2.3c2.2,0,3.7-1.2,3.7-2.8v0c0-1.5-0.8-2.4-4.3-3.1 c-3.8-0.8-5.6-2.1-5.6-4.8v0c0-2.6,2.3-4.5,5.4-4.5c2.4,0,4.1,0.7,5.8,2l-1.1,1.4c-1.5-1.3-3.1-1.8-4.8-1.8 c-2.2,0-3.5,1.2-3.5,2.7v0c0,1.6,0.9,2.4,4.5,3.2c3.7,0.8,5.4,2.2,5.4,4.7v0c0,2.8-2.4,4.7-5.7,4.7 C134.6,137.2,132.4,136.3,130.4,134.6z"></path> <path class="st0" d="M152.2,120.3h1.8l7.5,16.7h-2l-1.9-4.4h-9l-2,4.4h-1.9L152.2,120.3z M156.8,130.9l-3.8-8.4l-3.8,8.4H156.8z"></path> <path class="st0" d="M160.7,120.4h2.1l5.9,14.3l5.9-14.3h2l-7.1,16.7h-1.7L160.7,120.4z"></path> <path class="st0" d="M178,128.7L178,128.7c0-4.6,3.4-8.6,8.5-8.6c5,0,8.4,3.9,8.4,8.5v0c0,4.6-3.4,8.6-8.5,8.6 C181.3,137.3,178,133.3,178,128.7z M192.9,128.7L192.9,128.7c0-3.8-2.7-6.9-6.5-6.9c-3.8,0-6.5,3-6.5,6.8v0 c0,3.8,2.7,6.8,6.5,6.8C190.2,135.5,192.9,132.5,192.9,128.7z"></path> <path class="st0" d="M198.6,120.4h1.8l10.4,13.3v-13.3h1.8V137h-1.5l-10.7-13.6V137h-1.8V120.4z"></path> <path class="st0" d="M217,120.4h1.8l10.4,13.3v-13.3h1.8V137h-1.5l-10.7-13.6V137H217V120.4z"></path> <path class="st0" d="M235.6,120.4h1.9V137h-1.9V120.4z"></path> <path class="st0" d="M242.1,120.4h12v1.7H244v5.7h9v1.7h-9v5.8h10.2v1.7h-12.1V120.4z"></path> <path class="st0" d="M257.7,120.4h7.1c2,0,3.7,0.6,4.7,1.7c0.8,0.8,1.3,2,1.3,3.3v0c0,2.7-1.9,4.4-4.5,4.8l5.1,6.8h-2.3l-4.8-6.4 h-4.7v6.4h-1.9V120.4z M264.7,128.9c2.5,0,4.3-1.3,4.3-3.4v0c0-2-1.6-3.3-4.2-3.3h-5.1v6.7H264.7z"></path> <path class="st0" d="M273.5,134.6l1.2-1.4c1.7,1.6,3.4,2.3,5.7,2.3c2.2,0,3.7-1.2,3.7-2.8v0c0-1.5-0.8-2.4-4.3-3.1 c-3.8-0.8-5.6-2.1-5.6-4.8v0c0-2.6,2.3-4.5,5.4-4.5c2.4,0,4.1,0.7,5.8,2l-1.1,1.4c-1.5-1.3-3.1-1.8-4.8-1.8 c-2.2,0-3.5,1.2-3.5,2.7v0c0,1.6,0.9,2.4,4.5,3.2c3.7,0.8,5.4,2.2,5.4,4.7v0c0,2.8-2.4,4.7-5.7,4.7 C277.6,137.2,275.5,136.3,273.5,134.6z"></path> <path class="st0" d="M61.7,145.2h12v1.7H63.6v5.7h9v1.7h-9v5.8h10.2v1.7H61.7V145.2z"></path> <path class="st0" d="M77.4,145.2h1.8l10.4,13.3v-13.3h1.8v16.6h-1.5l-10.7-13.6v13.6h-1.8V145.2z"></path> <path class="st0" d="M101.9,153.5L101.9,153.5c0-4.7,3.5-8.6,8.4-8.6c3,0,4.8,1.1,6.5,2.6l-1.3,1.4c-1.4-1.3-3-2.3-5.2-2.3 c-3.7,0-6.4,3-6.4,6.8v0c0,3.8,2.8,6.8,6.4,6.8c2.3,0,3.8-0.9,5.3-2.4l1.2,1.2c-1.7,1.8-3.6,2.9-6.6,2.9 C105.5,162,101.9,158.2,101.9,153.5z"></path> <path class="st0" d="M119.9,145.2h12v1.7h-10.1v5.7h9v1.7h-9v5.8H132v1.7h-12.1V145.2z M127.5,140.6l1.9,0.9l-2.7,2.2h-1.5 L127.5,140.6z"></path> <path class="st0" d="M134.1,145.2h2.1l5.9,14.3l5.9-14.3h2l-7.1,16.7h-1.7L134.1,145.2z"></path> <path class="st0" d="M153,145.2h12v1.7h-10.1v5.7h9v1.7h-9v5.8h10.2v1.7H153V145.2z"></path> <path class="st0" d="M168.6,145.2h1.8l10.4,13.3v-13.3h1.8v16.6h-1.5l-10.7-13.6v13.6h-1.8V145.2z"></path> <path class="st0" d="M187.1,145.2h1.8l10.4,13.3v-13.3h1.8v16.6h-1.5l-10.7-13.6v13.6h-1.8V145.2z"></path> <path class="st0" d="M205.5,145.2h12v1.7h-10.1v5.7h9v1.7h-9v5.8h10.2v1.7h-12.1V145.2z"></path> <path class="st0" d="M220,159.3l1.2-1.4c1.7,1.6,3.4,2.3,5.7,2.3c2.2,0,3.7-1.2,3.7-2.8v0c0-1.5-0.8-2.4-4.3-3.1 c-3.8-0.8-5.6-2.1-5.6-4.8v0c0-2.6,2.3-4.5,5.4-4.5c2.4,0,4.1,0.7,5.8,2l-1.1,1.4c-1.5-1.3-3.1-1.8-4.8-1.8 c-2.2,0-3.5,1.2-3.5,2.7v0c0,1.6,0.9,2.4,4.5,3.2c3.7,0.8,5.4,2.2,5.4,4.7v0c0,2.8-2.4,4.7-5.7,4.7 C224.2,162,222,161.1,220,159.3z"></path> </g> </g> </g> </svg>