<svg xmlns="http://www.w3.org/2000/svg" xmlns:xlink="http://www.w3.org/1999/xlink" version="1.1" id="Calque_1" x="0px" y="0px" viewBox="0 0 120 120" style="enable-background:new 0 0 120 120;" xml:space="preserve"> <style type="text/css"> .st0{fill:#FFFFFF;} .st1{fill:#5E5EF7;} .st2{fill:#575756;} </style> <g> <g> <g> <polygon points="43.8,21.8 51.1,104.7 7.9,107.1 0,26.2 "></polygon> <g> <polygon class="st0" points="41.5,26.5 3.1,28.3 10.3,95.1 45.9,90.2 "></polygon> <path class="st1" d="M9.9,95.6L2.6,27.8L42,26l4.4,64.6L9.9,95.6z M3.6,28.7l7.1,65.9l34.7-4.8l-4.3-62.9L3.6,28.7z"></path> </g> <g> <circle class="st0" cx="28.6" cy="98.9" r="3.2"></circle> <path class="st1" d="M28.6,102.6c-2,0-3.7-1.6-3.7-3.7c0-2,1.6-3.7,3.7-3.7s3.7,1.6,3.7,3.7C32.2,100.9,30.6,102.6,28.6,102.6z M28.6,96.1c-1.5,0-2.8,1.2-2.8,2.8c0,1.6,1.2,2.8,2.8,2.8s2.8-1.2,2.8-2.8C31.3,97.3,30.1,96.1,28.6,96.1z"></path> </g> </g> <g> <path d="M45.9,96.1l-2.1,15c0,0,13.5,3.9,21.3,1.4l-1.6-15.7C63.5,96.7,59,103,45.9,96.1z"></path> <path class="st0" d="M58.8,113.8c-7,0-14.6-2.1-15-2.2l-0.4-0.1l2.2-16.1l0.6,0.3c12.6,6.7,17,0.9,17.1,0.8l0.7-1l1.8,17.3 l-0.4,0.1C63.4,113.5,61.1,113.8,58.8,113.8z M44.4,110.7c2.2,0.6,13.5,3.4,20.3,1.4l-1.5-14.4c-1.7,1.5-6.7,4.2-16.9-1 L44.4,110.7z"></path> </g> <path class="st1" d="M45.5,95.5c0,0,7.4,3.8,11.8,3.4s5.3-1.9,5.3-1.9S60.3,90.7,45.5,95.5z"></path> <path class="st1" d="M66,112c-7.3,0-18.7-10.8-19.3-11.3c-0.2-0.2-0.2-0.5,0-0.7c0.2-0.2,0.5-0.2,0.7,0 c0.1,0.1,14.2,13.4,20.5,10.7c1.1-0.5,1.8-1.1,1.9-2c0.3-2.5-4.3-6.5-6.1-7.8c-0.2-0.1-0.2-0.4-0.1-0.7c0.1-0.2,0.4-0.2,0.7-0.1 c0.3,0.2,6.9,4.9,6.5,8.6c-0.1,1.2-1,2.2-2.5,2.8C67.6,111.8,66.8,112,66,112z"></path> <path class="st1" d="M37,108.8c0,0-4.3,0-4.6,1.2c-0.3,1.2,3.1,3.1,3.1,3.1S43.1,110,37,108.8z"></path> <path class="st1" d="M27.5,108.8c0,0,4.3,0.3,2.5,1.2C28.1,110.9,28.8,110.3,27.5,108.8z"></path> <path class="st1" d="M30.3,112.4c0,0,1.5,1.5-0.6,1.5C27.5,113.9,28.1,113,30.3,112.4z"></path> <polygon class="st1" points="11.7,36.4 12.3,41.8 37,36.7 37,33.6 "></polygon> <polygon class="st1" points="13.2,46.4 30,43.7 29.1,47 13.8,50 "></polygon> <polygon class="st1" points="13.2,56.1 28.8,51.9 29.4,55.2 13.5,59.2 "></polygon> <polygon class="st1" points="14.5,65.9 30.3,61.9 31.5,64.6 13.8,69.9 "></polygon> </g> <g> <path class="st1" d="M94.7,17.2c0,0,0.1,8.2,7.1,12.7c7,4.6,18.2-2.6,18.2-2.6s-9.3-9.4-15.5-1.4c0,0,5.6-12.3-3.4-19.8 C101.1,6.1,95.9,9.1,94.7,17.2z"></path> <path class="st0" d="M100.2,27.6c-0.1,0-0.2-0.1-0.4-0.1c-0.1-0.1-9.1-10.2,0.2-19.2l0.2-0.2l0.3,0.2c0.2,0.1,6.4,4,3.5,15.1 c-0.1,0.2-0.3,0.4-0.6,0.4c-0.2-0.1-0.4-0.3-0.4-0.6c2.3-9.1-1.6-12.9-2.8-13.8c-8.2,8.2-0.2,17.1,0.1,17.5c0.2,0.2,0.1,0.5,0,0.7 C100.5,27.5,100.4,27.6,100.2,27.6z"></path> <path class="st0" d="M110.7,30.3c-0.4,0-0.8,0-1.2-0.1c-0.2,0-0.4-0.3-0.4-0.5c0-0.2,0.2-0.4,0.5-0.4c3.4,0.4,5.9-1.3,6.8-2.1 c-4.3-4.3-9.7-1.6-10-1.4c-0.2,0.1-0.5,0-0.7-0.2c-0.1-0.2,0-0.5,0.2-0.7c0.1,0,6.7-3.3,11.4,1.9l0.3,0.3l-0.3,0.3 C117.4,27.6,114.8,30.3,110.7,30.3z"></path> <path d="M89,19.3l9.7-0.6l0.9,5.8c0,0,24.3,14.6,17.4,41.1C110,92,89.9,95.1,89.9,95.1l-2.1,5.2l-7.3-0.9L78,93 c0,0-17.7-9.7-15.5-30.7c2.1-21,14.9-32.2,24.3-37.4L89,19.3z"></path> <path class="st0" d="M86.5,98.9h-0.8l-4-0.6l-1.9-6.8c-1.9-1.3-21-15.5-13.2-38.2c7.7-22.2,20.2-26,22.3-26.4l2.5-6.4l4-0.4 l2.5,5.7c2.1,1.3,25.9,16.3,15.9,41c-9.6,23.6-22.6,26.4-25,26.7C87.7,98.9,86.8,98.9,86.5,98.9z M82.4,97.4l3.4,0.5h0.7 c0.4-0.4,1.1-2.9,1.6-5l0.1-0.4h0.4c0.1,0,14.4-1.2,24.5-26.2c10-24.8-15.3-39.7-15.6-39.9l-0.1-0.1l-2.4-5.3l-2.7,0.2l-2.4,6.4 l-0.2,0.1c-0.1,0-13.8,2.7-21.8,25.9c-8,23.1,12.7,37,12.9,37.2l0.1,0.1L82.4,97.4z M86.5,97.9L86.5,97.9L86.5,97.9z"></path> <path class="st1" d="M50.6,67.3c0,0,4.3,7.8,7.9,9.5c3.6,1.7,51.9,16.2,51.9,16.2l0.5-2.2c0,0-43.8-23.2-46.4-23.8 c-2.6-0.6-12.8-1.6-12.8-1.6L50.6,67.3z"></path> <path d="M52.3,64.9c-1.9,6-11.1,8.3-16.7-2.2c-3.7-7-0.4-17.3-0.4-17.3s3.6,6.7,9,9.4C49.4,57.5,53.9,59.8,52.3,64.9z"></path> <polygon points="54.8,63 50.3,70.8 54.8,74.7 60.1,65.4 "></polygon> <path class="st1" d="M81.5,112.3H72l0.1-0.5c0-0.1,0.4-2.9,2.4-3.8c1.3-0.6,2.9-0.2,4.8,1c0.2,0.1,0.3,0.4,0.1,0.7 c-0.1,0.2-0.4,0.3-0.7,0.1c-1.6-1-2.9-1.3-3.9-1c-1,0.4-1.5,1.8-1.7,2.5h7.8c1.9-5.9-3.2-18.1-3.3-18.3c-0.1-0.2,0-0.5,0.2-0.7 c0.2-0.1,0.5,0,0.7,0.2c0.2,0.5,5.5,13.1,3.2,19.2L81.5,112.3z"></path> <path class="st1" d="M95.9,112.4h-9l-0.1-0.4c-2.2-8,2.5-16.8,2.7-17.2c0.1-0.2,0.4-0.3,0.7-0.2c0.2,0.1,0.3,0.4,0.2,0.7 c-0.1,0.1-4.6,8.6-2.7,16.1h7.2c-0.1-0.7-0.4-1.9-1.4-2.5s-2.3-0.3-4.1,0.7c-0.2,0.1-0.5,0.1-0.7-0.2c-0.1-0.2-0.1-0.5,0.2-0.7 c2.1-1.2,3.8-1.4,5.1-0.7c1.9,1,1.9,3.7,1.9,3.7L95.9,112.4L95.9,112.4z"></path> <path class="st1" d="M61.7,84.5c-3.3,0-7.2-0.6-9.1-3.1c-1.9-2.4-1.7-5.9,0.4-10.6c0.1-0.2,0.4-0.4,0.7-0.2 c0.2,0.1,0.4,0.4,0.2,0.7c-2,4.3-2.2,7.6-0.5,9.7c3.4,4.3,13.9,2.2,14,2.2c0.2-0.1,0.5,0.1,0.6,0.4s-0.1,0.5-0.4,0.6 C67.3,84,64.8,84.5,61.7,84.5z"></path> <path class="st1" d="M53.7,75.1c-0.1,0-0.1,0-0.1,0c-0.2-0.1-0.4-0.4-0.3-0.6l1.1-2.9c0.1-0.2,0.4-0.4,0.6-0.3 c0.2,0.1,0.4,0.4,0.3,0.6l-1.1,2.9C54.1,75,53.9,75.1,53.7,75.1z"></path> <path class="st1" d="M51.1,73.9c-0.1,0-0.1,0-0.1,0c-0.2-0.1-0.4-0.4-0.3-0.6l1-3.1c0.1-0.2,0.3-0.4,0.6-0.3 c0.2,0.1,0.4,0.4,0.3,0.6l-1,3.1C51.5,73.8,51.3,73.9,51.1,73.9z"></path> <path class="st1" d="M106.4,89.5c-0.2,0-0.4-0.2-0.4-0.4c0-0.2,0.2-0.5,0.4-0.5c4.3-0.2,6.7-1.1,7.5-2.9c1.1-2.7-2.5-6.6-2.5-6.7 c-0.2-0.2-0.1-0.5,0-0.7c0.2-0.2,0.5-0.1,0.7,0c0.1,0.1,4,4.4,2.7,7.6C113.8,88.1,111,89.3,106.4,89.5L106.4,89.5z"></path> <path class="st2" d="M106.2,39.8c0.8-1.8,6.8,4.6,7,11.5c0.1,7-2.2,12.2-3.6,12.1c-1.5-0.1,2.2-5.9,1.3-11 C110,47.3,104.9,42.7,106.2,39.8z"></path> <path class="st2" d="M105.6,36.7c0,0,0.1,1.7-1.3,1.2s-2.2-3.1-1-3.1C104.4,34.8,105.6,36.7,105.6,36.7z"></path> <g> <path class="st0" d="M78.9,59.3c-0.6,0-1.2-0.2-1.9-0.7c-0.2-0.1-0.2-0.4-0.1-0.7c0.1-0.2,0.4-0.2,0.7-0.1 c0.7,0.5,1.3,0.7,1.7,0.4c1.3-0.7,1.9-4.1,2-6.2c0-0.2,0.2-0.4,0.5-0.4c0.2,0,0.4,0.2,0.4,0.5c0,0.6-0.2,6-2.5,7 C79.5,59.2,79.2,59.3,78.9,59.3z"></path> <path class="st0" d="M88.6,58.7c-0.1,0-0.3-0.1-0.4-0.2c-0.4-0.7-1.8-2.5-2.9-2.4c-0.4,0-0.9,0.4-1.2,1.1 c-0.1,0.2-0.4,0.3-0.7,0.2c-0.2-0.1-0.3-0.4-0.2-0.7c0.5-1,1.2-1.6,2-1.7c1.9-0.1,3.6,2.5,3.8,2.8c0.1,0.2,0.1,0.5-0.1,0.7 C88.7,58.7,88.7,58.7,88.6,58.7z"></path> <path class="st0" d="M78.4,53.6c-0.1,0-0.3-0.1-0.4-0.1c-0.4-0.5-1.7-1.7-2.7-1.6c-0.4,0.1-0.7,0.4-1,1C74.1,53,73.9,53,73.6,53 c-0.2-0.1-0.3-0.4-0.2-0.7c0.4-0.9,1-1.3,1.8-1.5c1.6-0.2,3.4,1.7,3.5,1.9c0.1,0.2,0.1,0.5-0.1,0.7 C78.6,53.6,78.6,53.6,78.4,53.6z"></path> <path class="st1" d="M93.6,64.3c-0.1,0-0.2,0-0.4-0.1c-0.4-0.1-0.7-0.6-0.8-1c-0.1-0.1-0.1-0.3-0.2-0.4c-0.2-0.5-0.2-1,0.2-1.4 c0.1-0.1,0.3-0.3,0.4-0.4c-0.1-0.1-0.1-0.3,0-0.4s0.2-0.4,0.8-0.3c0.3,0.1,0.7,0.2,1,0.4c0.1,0,0.1,0.1,0.2,0.1 c0.4,0.1,0.5,0.4,0.6,0.6c0.3,0.3,0.5,0.7,0.6,1c0.1,0.3,0,1-0.9,1.5C94.5,64.1,94,64.3,93.6,64.3z M95.2,62.5 c-0.1,0.1-0.2,0.2-0.3,0.4C95.1,62.7,95.2,62.5,95.2,62.5z M94.2,61.5c0.1,0.1,0.1,0.3,0.1,0.5c0.1-0.1,0.2-0.2,0.2-0.3 c-0.1-0.1-0.1-0.1-0.2-0.2C94.3,61.5,94.3,61.5,94.2,61.5z"></path> <path class="st1" d="M67.8,54.5c-0.1,0-0.2,0-0.4-0.1c-0.4-0.1-0.7-0.6-0.8-1c-0.1-0.1-0.1-0.3-0.2-0.4c-0.2-0.5-0.2-1,0.2-1.4 c0.1-0.1,0.3-0.3,0.4-0.4c-0.1-0.1-0.1-0.3,0-0.4c0.1-0.1,0.3-0.4,0.8-0.3c0.3,0.1,0.7,0.2,1,0.4c0.1,0,0.1,0.1,0.2,0.1 c0.4,0.1,0.5,0.4,0.6,0.6c0.3,0.3,0.5,0.7,0.6,1c0.1,0.3,0,1-0.9,1.5C68.8,54.3,68.2,54.5,67.8,54.5z M69.4,52.7 c-0.1,0.1-0.2,0.2-0.3,0.4C69.3,52.9,69.4,52.8,69.4,52.7z M68.5,51.7c0.1,0.1,0.1,0.3,0.1,0.5c0.1-0.1,0.2-0.2,0.2-0.3 c-0.1-0.1-0.1-0.1-0.2-0.2C68.5,51.7,68.5,51.7,68.5,51.7z"></path> <path class="st0" d="M82.6,67.1c-5.7,0-11.1-4-11.2-4c-0.2-0.1-0.2-0.4-0.1-0.7c0.1-0.2,0.4-0.2,0.7-0.1 c0.1,0.1,10.3,7.6,16.8,1.6c0.2-0.1,0.4-0.1,0.7,0c0.1,0.2,0.1,0.4,0,0.7C87.3,66.4,84.9,67.1,82.6,67.1z"></path> <path class="st0" d="M89.7,67.5c-0.1,0-0.1,0-0.1,0c-0.2-0.1-0.4-0.3-0.3-0.5c0.7-2.8-1.6-3.6-1.6-3.6c-0.2-0.1-0.4-0.3-0.3-0.6 c0.1-0.2,0.3-0.4,0.6-0.3c0,0,3.2,1,2.3,4.7C90.1,67.3,89.9,67.5,89.7,67.5z"></path> </g> <path class="st1" d="M35,42.8c0,0-3.6,8.1-2.2,12.9c1.4,4.9,3.7-0.1,3.7-0.1s1.7,5,3.8,3.4s-1.5-4.9-1.5-4.9s1.7,1.9,2.5,0.5 c0.7-1.3-0.1-2.9-0.1-2.9S36.7,50.3,35,42.8z"></path> </g> </g> </svg>