<svg xmlns="http://www.w3.org/2000/svg" xmlns:xlink="http://www.w3.org/1999/xlink" version="1.1" id="Calque_1" x="0px" y="0px" viewBox="0 0 350 416" style="enable-background:new 0 0 350 416;" xml:space="preserve"> <style type="text/css"> .st0{fill:#FFFFFF;} </style> <g> <g> <path class="st0" d="M227.2,18.2c0.7-0.6,1.5-1.2,2.3-1.7c6.6-4.5,14.7-7.2,23.5-8c8.4-0.7,17.2,0.4,25.5,3.2 c14.6,5,29,15.2,42.8,30.4c6.7,7.5,11.3,13.9,14.4,20.2c3.1,6.4,5.3,14,7,23.9c2.6,15.4,3.1,31.1,1.4,46.8 c-1.2,12-3.7,23.7-7.3,35.1c-5.5-9.9-12.4-19.1-20.3-27c-8.1-8-17.3-14.9-26.1-21.4c-3.2-2.4-6.5-4.9-9.7-7.3 c-9.7-7.5-19.9-16.3-32.1-27.8c-8.2-7.7-16.1-15.4-21.6-24.6c-4.5-7.4-6.8-15.8-7.6-27.2C219,27.4,221.6,22.6,227.2,18.2 L227.2,18.2z M224.3,14.4c-5.9,4.7-10.2,10.9-9.6,18.7c0.7,10.4,2.8,20.2,8.3,29.3c5.9,9.8,14.1,17.9,22.5,25.7 c10.4,9.8,21.1,19.3,32.5,28.1c12,9.3,24.7,17.7,35.5,28.4c10.3,10.3,18.6,22.5,24.3,35.9c11.7-30,15.2-63.1,9.8-94.9 c-1.5-8.7-3.6-17.3-7.4-25.2c-3.8-7.9-9.3-14.9-15.2-21.4c-12.4-13.7-27.3-25.8-44.8-31.7c-17.5-6-37.9-5.1-53.3,5.3 C226,13.1,225.1,13.8,224.3,14.4L224.3,14.4z"></path> </g> <g> <path class="st0" d="M329.5,124.1c-6.7-23.7-20.1-45.2-38.4-61.8c-16.6-15.1-36.9-26.3-58.6-32.3c-6-1.7-12.1-3-18.2-3.9 c-6.3-0.9-12.8-1.4-19,0c-3.7,0.8-2.2,6.1,1.4,5c10.4-3.2,22.2-0.4,32.4,2.3c10.4,2.7,20.5,6.6,30,11.6c20.1,10.5,37,25.8,50.5,44 c8.1,10.9,14.6,22.6,19.6,35.1C329.4,124.3,329.5,124.3,329.5,124.1L329.5,124.1z"></path> </g> <path class="st0" d="M198.5,80.1c-2.1-25.6-4.8-52.3-19-72.7c-0.9-1.3-1.9-2.8-1.5-4.5c0.6-2.4,4-3.5,6.2-2.5s3.4,3.2,4.3,5.3 c13.8,30,14.1,65.2,14.3,99.4c0,1.9-0.7,4.6-2.7,4.6c-0.8,0-1.4-0.5-1.9-1.1c-2.9-3.3-2.5-7.8-1.5-12 C198.2,90.7,199,86.1,198.5,80.1z"></path> <g> <path class="st0" d="M75.5,137.5c15.4-12.2,29.9-20.1,39.4-24.6c11-5.2,18.5-7.3,19.9-7.5c65.9-7.9,96.6,19.8,111.3,33.1 c1.5,1.4,2.9,2.6,4.1,3.6c20.8,17.5,30.4,56,34.3,77.3c3.1,17.2,2.2,35.2-2.7,53.5c-4.6,17.2-12.8,34.2-23.7,49.1 c-9.5,13.1-21.4,25.3-35.2,36.3c-14.6,11.6-31.7,22.1-50.7,31.1c-9.1,4.3-19.8,8.9-31,10.4c-6.6,0.9-13.6,0.8-20.4,0.7 c-12.6-0.2-25.6-0.4-37.5,5.4c-1,0.5-1.9,1-2.8,1.4c-5.4,2.8-9.1,4.5-11.7,3.1c-2.7-1.4-3.6-6-4.4-10.5l-0.1-0.8 c-4.3-22.2-17.3-41.1-30-59.3C21,320.9,8.5,302.8,5.4,281.3c-1.4-10.2-0.6-21.6,2.6-36c5.3-23.8,14.7-45.7,27.8-65.1 C46.6,164.2,60,149.9,75.5,137.5L75.5,137.5z M72.6,133.8c-28,22.2-57.3,57.4-69.2,110.4C0.6,256.6-1,269.4,0.7,282 c6.2,44,50.4,74.7,58.8,118.4c1.1,5.5,2.1,11.9,7,14.5c6,3.2,12.8-1.5,18.9-4.4c17.1-8.4,37.6-3.1,56.5-5.7 c11.3-1.6,22-6,32.3-10.8c18.3-8.7,35.8-19.1,51.6-31.7c13.6-10.8,25.9-23.2,36.1-37.2c22.1-30.4,34-69.3,27.2-106.3 c-4.8-26.4-15.3-62.8-35.9-80.1c-12.8-10.7-44.2-46.8-119-37.8C130.2,101.2,102.2,110.3,72.6,133.8L72.6,133.8z"></path> </g> <path class="st0" d="M20.6,263.8c0.7,1.4,1.7,2.8,3.2,2.9c1.7,0.1,2.9-1.4,3.8-2.8c2.7-4.7,3.5-10.4,2.2-15.7 c-0.4-1.7-1.3-3.6-2.9-4.2c-3.7-1.2-6.9,3.5-7.7,6.4C17.9,254.7,18.7,259.9,20.6,263.8z"></path> <path class="st0" d="M33.5,239.9c0.4,1.2,1,2.5,2.2,2.9c1,0.3,2.1-0.2,3-0.7c6.9-4.1,10.4-13.3,7.9-21c-2.3-7-10-3.4-13,1.2 C30.5,227.1,31.9,235,33.5,239.9z"></path> <path class="st0" d="M49.2,243.3c-1.9,2.8-2,6.7-0.4,9.7c0.4,0.8,1.1,1.6,2,1.7c1.1,0.1,2-0.8,2.7-1.6c1.6-1.9,3-4,3.6-6.4 c0.6-2.4,0.4-5.1-1.1-7.1c-0.2-0.3-0.5-0.5-0.8-0.7c-0.4-0.1-0.8,0-1.2,0.2c-2.1,0.9-3.8,2.6-5,4.5L49.2,243.3z"></path> <path class="st0" d="M39.4,181.9c-2,2-3.4,4.6-3.8,7.4c-0.1,0.6-0.1,1.2,0.3,1.7c0.7,0.8,2,0.3,2.9-0.3c5.7-3.8,10.1-9.5,12.5-15.9 c0.2-0.6,0.4-1.3,0.3-1.9c-0.1-0.7-0.6-1.3-1.3-1.3c-0.4,0-0.7,0.2-1,0.4c-3,2-5.7,4.6-7.8,7.6L39.4,181.9z"></path> <path class="st0" d="M38.7,301.3c1,1.7,2.9,3.5,4.7,2.8c1.1-0.4,1.7-1.6,2.1-2.7c2.4-6.9-0.3-14.6-4.4-20.6c-0.3-0.5-0.7-1-1.3-1.2 c-0.5-0.2-1,0-1.5,0.2C30.5,283.1,35.8,296.4,38.7,301.3z"></path> <path class="st0" d="M67.6,261.8c-2.4,3-2.5,7.6-0.3,10.7c0.2,0.4,0.6,0.7,1,0.7c0.4,0,0.7-0.3,1-0.5c3.9-4,5.7-9.9,4.6-15.4 c-0.1-0.3-0.1-0.6-0.4-0.8c-0.2-0.2-0.6-0.2-0.9-0.1c-2.7,0.4-5,2.9-5,5.6L67.6,261.8z"></path> <path class="st0" d="M64.4,199.3c-1.4,2-2.2,4.4-2.5,6.8c-0.2,2.1,0.6,4.8,2.7,5c0.9,0.1,1.7-0.4,2.4-0.9c3.4-2.3,5.9-5.9,7.9-9.6 c0.7-1.3,1.4-2.8,1.4-4.3c0-1.5-0.9-3.1-2.3-3.5c-1.1-0.3-2.4,0.2-3.4,0.8c-2.3,1.4-4.3,3.4-5.6,5.7L64.4,199.3z"></path> <path class="st0" d="M112.1,245.9c-1.1,1.6-1.8,3.4-2.1,5.3c-0.2,1.6,0.3,3.7,2,3.8c0.7,0,1.3-0.3,1.9-0.7c2.7-1.9,4.7-4.6,6.3-7.5 c0.6-1,1.1-2.2,1.2-3.3c0-1.2-0.6-2.4-1.7-2.7c-0.9-0.2-1.8,0.2-2.6,0.7c-1.8,1.1-3.4,2.7-4.5,4.5L112.1,245.9z"></path> <path class="st0" d="M104.3,325.4c-1.1,1.6-1.8,3.4-2.1,5.3c-0.2,1.6,0.3,3.7,2,3.8c0.7,0,1.3-0.3,1.9-0.7c2.7-1.9,4.7-4.6,6.3-7.5 c0.6-1,1.1-2.2,1.2-3.3s-0.6-2.4-1.7-2.7c-0.9-0.2-1.8,0.2-2.6,0.7c-1.8,1.1-3.4,2.7-4.5,4.5L104.3,325.4z"></path> <path class="st0" d="M68.9,163.5c-1.3,1.6-2.1,3.6-2.2,5.7c0,0.7,0.1,1.4,0.6,1.8c0.9,0.7,2.1,0,2.9-0.7c4.5-3.8,8.4-8.3,11.5-13.3 c0.3-0.5,0.7-1.2,0.4-1.8c-0.4-0.9-1.7-0.9-2.6-0.6c-4.4,1.3-8.4,4-11.2,7.7L68.9,163.5z"></path> <path class="st0" d="M19,217.3c-1.2,2.8-2,5.7-2.4,8.7c-0.1,1.1,0.1,2.6,1.2,2.6c0.4,0,0.8-0.2,1.1-0.4c2.7-2,4-5.4,4.9-8.7 c0.6-2.1,1.1-4.8-0.6-6.3c-2,1-3.6,2.7-4.4,4.7L19,217.3z"></path> <path class="st0" d="M93.3,212c-1.1,1.8-0.9,4.2,0.4,5.9c0.4,0.5,1,1,1.7,1c0.9,0,1.6-0.7,2.3-1.3c1.6-1.7,3.1-3.5,3.9-5.7 c0.7-2.2,0.4-4.9-1.3-6.4c-4,0.6-7.3,4.3-7.3,8.4L93.3,212z"></path> <path class="st0" d="M100,163.8c-1.5,1-0.6,3.6,1.1,4.2c1.7,0.6,3.5-0.1,5.2-0.9c1.6-0.8,3.3-1.7,4.2-3.3s0.6-4-1.1-4.7 c-0.9-0.4-1.9-0.3-2.8,0c-2.6,0.7-4.9,2.1-6.7,4L100,163.8z"></path> <path class="st0" d="M75.8,138.7c1.3,1.5,3.8,0.8,5.5-0.2c2.1-1.2,4-2.7,5.8-4.4c0.6-0.6,1.2-1.2,1.3-2c0.2-0.8-0.2-1.7-1-1.9 c-0.4-0.1-0.9,0.1-1.3,0.2c-2.2,0.8-4.5,1.6-6.5,3c-2,1.4-3.6,3.3-4.1,5.7L75.8,138.7z"></path> <path class="st0" d="M87.9,294.4c-0.8,1.8-1.6,3.8-1.1,5.7c0.5,1.9,3,3.3,4.5,2c0.4-0.4,0.7-0.9,0.9-1.4c1.1-2.4,2.3-4.8,2.6-7.4 c0.1-1.4,0-3-1.1-3.9c-1.2-1-3.2-0.6-4.4,0.4c-1.2,1-1.9,2.6-2.5,4L87.9,294.4z"></path> <path class="st0" d="M47.2,335.7c0.7,3.1,1.9,6.1,3.6,8.8c1.1,1.8,3.1,3.7,5.1,3c2.1-0.7,2.6-3.5,2.2-5.7c-0.5-3.2-2-6.2-4.2-8.6 c-0.5-0.6-1.1-1.1-1.9-1.3c-1.2-0.3-2.4,0.6-3,1.7c-0.5,1.1-0.6,2.4-0.5,3.6L47.2,335.7z"></path> <path class="st0" d="M155.4,207.8c-1.7,2.8-1.5,6.5,0.4,9.2c0.5,0.7,1.3,1.4,2.2,1.5c0.9,0.1,1.7-0.4,2.4-1 c2.8-2.3,4.7-5.7,5.1-9.2c0.1-0.8,0.1-1.7-0.2-2.4c-0.7-1.9-3.2-2.6-5.2-1.9c-1.9,0.6-3.4,2.2-4.8,3.7L155.4,207.8z"></path> <path class="st0" d="M140.9,144c-0.2,2.7,0.9,6,3.5,6.4c2.3,0.4,4.2-1.8,5.5-3.7c1.2-1.8,2.2-4.2,1.2-6.1c-1-1.7-3.3-2.2-5.2-1.5 c-1.8,0.6-3.3,2.1-4.5,3.6L140.9,144z"></path> <g> <path class="st0" d="M252.8,76.7c-1.8-6.6-3.1-13.3-4-20.1c-0.4-3.1-0.8-6.2-1.3-9.3c-0.5-3.1-1.2-6.4-0.6-9.5 c0.3-1.5-2.1-1.8-2.4-0.3c-0.5,3,0.1,5.9,0.6,8.9c0.6,3.5,1.2,7,1.8,10.5c1.3,6.8,2.9,13.5,5.7,19.9 C252.6,76.9,252.8,76.8,252.8,76.7L252.8,76.7z"></path> </g> <g> <path class="st0" d="M275.7,99.5c4-6.2,4.3-14,3.9-21.2c-0.2-4.3-0.6-8.7-1.2-12.9c-0.7-4.5-1.8-8.8-2.6-13.2 c-0.4-2.1-3.6-1.1-2.7,0.8c3.4,7.3,4.2,16.2,4.8,24.1c0.6,7.7,0.4,15.2-2.5,22.4C275.3,99.6,275.6,99.7,275.7,99.5L275.7,99.5z"></path> </g> <g> <path class="st0" d="M304.8,118.5c3.7-4.9,4.3-12.4,4.9-18.3c0.3-3.2,0.8-6.5,0.7-9.7c0-1.3,0.3-4.5-1.4-4.9 c-0.3-0.1-0.6,0.2-0.7,0.4c0,0,0,0.1-0.1,0.1c-0.1,0.2,0,0.6,0.2,0.8c0,0,0.1,0,0.1,0.1c0.4,0.2,1.1,0,0.9-0.6c0,0,0-0.1,0-0.1 c-0.1,0.2-0.3,0.5-0.4,0.7c0.1,0,0.1,0,0.2-0.1c-0.3-0.1-0.6-0.1-0.8-0.2c1.1,1.7,0.5,5.4,0.4,7.4c-0.2,2.8-0.5,5.5-0.8,8.3 c-0.3,2.8-0.8,5.5-1.4,8.2c-0.6,2.6-1.6,5.1-2.2,7.6C304.2,118.5,304.6,118.7,304.8,118.5L304.8,118.5z"></path> </g> <g> <path class="st0" d="M341.6,94.4c-4.1-6.1-9.5-10.8-16-14.3c-3.1-1.7-6.5-3-9.9-3.9c-3.6-0.9-7.3-1-10.9-2c-2.8-0.7-2.6,3.8,0,2.9 c6.2-2,14.3,1.2,19.8,4.1c6.3,3.3,11.9,8.1,16.5,13.4C341.5,94.9,341.8,94.6,341.6,94.4L341.6,94.4z"></path> </g> <g> <path class="st0" d="M318.7,41.1c-6.4-4.2-14.1-5.2-21.6-4c-9.5,1.6-16.7,6.9-24,12.8c-1.2,1,0.5,2.7,1.6,1.5 c10.5-11.9,29.3-18.3,43.8-10.1C318.7,41.4,318.8,41.2,318.7,41.1L318.7,41.1z"></path> </g> <g> <g> <path class="st0" d="M273.8,14.7C273.8,14.7,273.8,14.7,273.8,14.7C273.7,14.7,273.8,14.8,273.8,14.7L273.8,14.7z"></path> <path class="st0" d="M273.8,14.7C273.7,14.7,273.8,14.8,273.8,14.7C273.8,14.7,273.8,14.7,273.8,14.7L273.8,14.7z"></path> </g> </g> <g> <path class="st0" d="M273.7,14.1c-7,0.4-13.8,4.5-19.8,7.8c-6.6,3.6-12.8,7.8-18.6,12.5c-1,0.8,0.3,2.4,1.3,1.6 c5.7-4.7,11.6-9,18-12.7c5.9-3.5,12.5-7.3,19.3-8.5C274.2,14.6,274.1,14.1,273.7,14.1L273.7,14.1z"></path> </g> </g> </svg>