<svg xmlns="http://www.w3.org/2000/svg" xmlns:xlink="http://www.w3.org/1999/xlink" version="1.1" id="Calque_1" x="0px" y="0px" viewBox="0 0 120 120" style="enable-background:new 0 0 120 120;" xml:space="preserve"> <style type="text/css"> .st0{fill:#EDEDED;} .st1{fill:#5E5EF7;} .st2{fill:#FFFFFF;} .st3{fill:#C6C6C5;} .st4{fill:#575756;} .st5{fill:#ECECEC;} </style> <g> <g> <path class="st0" d="M49.9,86.3C38.5,96.2,1.5,91.4,12,59.8s40.1-15.7,40.1-15.7s1.5-22.6,22.3-22s21.4,21.7,21.4,21.7 s18.7,1.5,8.4,18.4c0,0,17.5,3.6,0.6,18.1S49.9,86.3,49.9,86.3z"></path> <path d="M34.8,97.8c-7.4,0-14.5-2-19.9-5.6c-5-3.4-8.5-7.8-10.2-13.3c-0.1-0.2,0.1-0.4,0.3-0.5c0.2-0.1,0.4,0.1,0.5,0.3 c1.7,5.3,5,9.6,9.9,12.9C20.7,95,27.6,97,34.8,97c6.2,0,12-1.5,16.3-4.2c0.2-0.1,0.4-0.1,0.6,0.1c0.1,0.2,0.1,0.4-0.1,0.6 C47.1,96.3,41.2,97.8,34.8,97.8z"></path> <path d="M49.8,30.3c-0.1,0-0.1,0-0.2-0.1c-0.2-0.1-0.3-0.4-0.2-0.5c5.1-9.6,14.1-14.7,25.2-14.4c9.3,0.3,16.9,4,21.9,10.7 c0.1,0.2,0.1,0.4-0.1,0.6c-0.2,0.1-0.4,0.1-0.6-0.1c-4.9-6.6-12.1-10.1-21.2-10.3c-10.8-0.3-19.5,4.6-24.4,14 C50,30.2,49.9,30.3,49.8,30.3z"></path> <path d="M118.2,66.8c-0.2,0-0.3-0.1-0.4-0.3c-0.7-2.9-2.5-5.3-5.3-7.2l-0.3-0.2l0.1-0.3c1.4-4.4,1.2-8.4-0.6-12 c-2.4-4.7-6.9-6.9-10.3-8l-0.2-0.1l-0.1-0.2c-0.6-2.9-1.6-5.7-2.9-8.2c-0.1-0.2,0-0.4,0.2-0.5c0.2-0.1,0.4,0,0.5,0.2 c1.3,2.6,2.3,5.3,2.9,8.2c3.5,1.2,8.2,3.5,10.6,8.4c1.9,3.6,2.1,7.8,0.7,12.3c2.8,2,4.6,4.5,5.4,7.5c0.1,0.2-0.1,0.4-0.3,0.5 C118.2,66.8,118.2,66.8,118.2,66.8z"></path> <path d="M99.7,91.2c-0.2,0-0.3-0.1-0.4-0.3c-0.1-0.2,0-0.4,0.2-0.5c3.5-1.5,6.6-3.4,9.2-5.6c0.2-0.2,0.4-0.1,0.6,0.1 c0.2,0.2,0.1,0.4-0.1,0.6c-2.7,2.3-5.8,4.2-9.4,5.7C99.8,91.2,99.7,91.2,99.7,91.2z"></path> <path class="st1" d="M100.4,24.5L100.4,24.5c0,1.7,1.4,3,3,3l0,0l0,0c-1.7,0-3,1.4-3,3l0,0l0,0c0-1.7-1.4-3-3-3l0,0l0,0 C99.1,27.5,100.4,26.1,100.4,24.5L100.4,24.5z"></path> <path d="M118.4,71.5c-0.9,0-1.6-0.7-1.6-1.6s0.7-1.6,1.6-1.6s1.6,0.7,1.6,1.6C120,70.8,119.3,71.5,118.4,71.5z M118.4,69.1 c-0.4,0-0.8,0.4-0.8,0.8c0,0.4,0.4,0.8,0.8,0.8c0.4,0,0.8-0.4,0.8-0.8C119.2,69.5,118.8,69.1,118.4,69.1z"></path> <circle cx="117.4" cy="73.4" r="0.7"></circle> <circle cx="53" cy="91.9" r="0.7"></circle> <path class="st1" d="M44,24L44,24c0,1.7,1.4,3,3,3l0,0l0,0c-1.7,0-3,1.4-3,3l0,0l0,0c0-1.7-1.4-3-3-3l0,0l0,0 C42.6,27,44,25.7,44,24L44,24z"></path> </g> <g> <path class="st1" d="M20.3,49.4c0,0-3.8-7.8,4.7-12.4s-2,4.3-2,4.3s4.8-3.6,4.9-2c0.1,1.6-5.1,4.2-5.1,4.2s5.1-2.8,4.1-1 C25.9,44.3,20.3,46.2,20.3,49.4z"></path> <g> <polygon points="13.4,44.7 34.9,52.2 30.7,63.2 9.6,56.1 "></polygon> <polygon class="st2" points="15.2,46.9 11.9,55.4 27,60.3 29.4,52.1 "></polygon> <circle class="st1" cx="31" cy="57.1" r="0.9"></circle> </g> <path class="st1" d="M21.8,50.8c0,0,1.9-8.5,11.4-6.7c9.5,1.8-4.3,2-4.3,2s6,0.2,5.1,1.5s-6.6,0.2-6.6,0.2s5.7,1,3.8,1.8 C29.4,50.2,23.9,48.3,21.8,50.8z"></path> </g> <g> <polygon class="st1" points="0,71.8 71.4,92.8 80.8,62.6 "></polygon> <g> <polygon class="st1" points="69.8,55 100.3,64.1 101.3,59.1 "></polygon> <polygon class="st1" points="69.6,54.4 109.6,59.2 100.3,54.1 75.4,54.1 99.4,53.3 102.1,47.4 "></polygon> </g> <g> <polygon class="st1" points="36.6,43.3 62,50.9 62.9,46.7 "></polygon> <polygon class="st1" points="36.4,42.8 69.8,46.8 62,42.5 41.2,42.5 61.2,41.8 63.6,36.9 "></polygon> </g> <g> <polygon class="st3" points="94.7,72.7 112.9,81.5 114,78.4 "></polygon> <polygon class="st3" points="94.6,72.3 119.2,79.4 113.9,75.2 98.3,72.7 113.4,74.6 115.7,71.2 "></polygon> </g> <g> <path class="st1" d="M77,43.7c0,0-5.3-1.8-6.7-7.4s5.7-11.2,5.7-11.2s4.1,8-2.4,10.4c0,0,9.2-1,12.1,6.5 C85.6,41.9,82.5,44.6,77,43.7z"></path> <path class="st2" d="M79.6,43.2c-5.1,0-8.1-5.1-8.1-5.2c-0.1-0.2,0-0.4,0.1-0.4c0.2-0.1,0.4,0,0.4,0.1c0.2,0.3,4.3,7.4,11.3,3.8 c-0.3-1-1.9-4.3-8.4-4.8c-0.2,0-0.3-0.2-0.3-0.4c0-0.2,0.2-0.3,0.4-0.3c7.8,0.6,9,5.4,9.1,5.5l0.1,0.2L83.9,42 C82.3,42.9,80.9,43.2,79.6,43.2z"></path> <path class="st2" d="M74.2,34.8c-0.1,0-0.2,0-0.2-0.1c-0.1-0.1-0.1-0.3,0-0.5c0.1-0.1,3.1-3.1,1.2-6.8c-0.7,0.4-2.4,1.6-2.8,3.9 c0,0.2-0.2,0.3-0.4,0.3c-0.2,0-0.3-0.2-0.3-0.4c0.6-3.3,3.4-4.5,3.5-4.6l0.3-0.1l0.2,0.3c2.4,4.3-1.2,7.8-1.2,7.8 C74.4,34.7,74.3,34.8,74.2,34.8z"></path> <path d="M69,29.5l-2.5,2.3c0,0-19,0.1-25,17.9s6.7,30.6,6.7,30.6l1,3.9l7.7,2.6l1.5-3.1c0,0,18.3-6.9,21.1-23.6 c2.7-15.8-6.2-25.4-6.2-25.4l0.3-3.3L69,29.5z"></path> <path class="st2" d="M55.9,85.3l-5.7-1.6l-0.6-4c-1-1.1-11.6-13.6-7.4-27.9C47,35.2,61.4,32.9,67.6,32.7l1.3-2.6l0.3,0.2 c0.2,0.1,1.3,0.7,1.6,1.3c0.1,0,0.3-0.1,0.5-0.1c0.4-0.1,1-0.3,1.4,0c0.8,0.4,0.3,2.1-0.4,3.5c1.4,1.6,10.9,13.8,4.8,29.4 c-5.2,13.3-19,18-20.9,18.6L55.9,85.3z M50.9,83.1l4.4,1.2l0.4-1.9l0.2-0.1c0.2,0,15.2-4.3,20.6-18.2c6.3-16.3-4.7-28.7-4.9-28.8 l-0.2-0.2l0.1-0.2c0.5-1.2,0.9-2.6,0.8-2.8c-0.2-0.1-0.5,0-0.9,0.1c-0.4,0.1-1.1,0.3-1.3-0.3c-0.1-0.2-0.5-0.5-1-0.8l-1.2,2.3 h-0.2c-5.9,0.1-20.2,2.2-24.9,18.6c-4.3,14.6,7.2,27.1,7.3,27.3l0.1,0.1L50.9,83.1z"></path> <g> <path class="st2" d="M51.4,56.3c-0.5,0-1-0.2-1.5-0.6c-0.2-0.1-0.2-0.4-0.1-0.5c0.1-0.2,0.4-0.2,0.5-0.1c0.5,0.4,1,0.5,1.3,0.4 c1-0.5,1.6-3.2,1.7-4.8c0-0.2,0.2-0.4,0.4-0.4c0.2,0,0.4,0.2,0.4,0.4c0,0.5-0.3,4.6-2.1,5.4C51.8,56.3,51.6,56.3,51.4,56.3z"></path> <path class="st2" d="M58.9,56.1c-0.1,0-0.3-0.1-0.3-0.2c-0.3-0.5-1.4-1.9-2.2-1.9c-0.4,0-0.7,0.3-1,0.9 c-0.1,0.2-0.3,0.3-0.5,0.2c-0.2-0.1-0.3-0.3-0.2-0.5c0.4-0.8,1-1.3,1.6-1.3c1.4-0.1,2.7,2,2.9,2.3c0.1,0.2,0.1,0.4-0.1,0.5 C59,56.1,59,56.1,58.9,56.1z"></path> <path class="st2" d="M51.1,51.9c-0.1,0-0.2-0.1-0.3-0.1c-0.3-0.4-1.3-1.4-2.1-1.3c-0.3,0-0.6,0.3-0.8,0.7 c-0.1,0.2-0.3,0.3-0.5,0.2c-0.2-0.1-0.3-0.3-0.2-0.5c0.4-0.7,0.8-1,1.4-1.1c1.3-0.1,2.6,1.4,2.7,1.6c0.1,0.2,0.1,0.4-0.1,0.5 C51.3,51.9,51.2,51.9,51.1,51.9z"></path> <path class="st1" d="M62.7,60.5c-0.1,0-0.2,0-0.3-0.1c-0.4-0.1-0.5-0.5-0.6-0.8c-0.1-0.1-0.1-0.2-0.2-0.4 c-0.2-0.4-0.1-0.8,0.2-1.1c0.1-0.1,0.2-0.2,0.4-0.3c-0.1-0.1-0.1-0.3,0-0.4c0.1-0.1,0.2-0.3,0.6-0.2c0.2,0,0.5,0.2,0.8,0.4 c0.1,0,0.1,0,0.2,0.1c0.3,0.1,0.4,0.3,0.5,0.5c0.2,0.2,0.4,0.5,0.4,0.8c0,0.3,0,0.8-0.7,1.1C63.4,60.4,63,60.5,62.7,60.5z M63.9,59.1c-0.1,0.1-0.2,0.2-0.2,0.3C63.9,59.3,63.9,59.2,63.9,59.1z M63.2,58.3c0,0.1,0.1,0.2,0.1,0.4 c0.1-0.1,0.2-0.2,0.2-0.2C63.4,58.4,63.3,58.4,63.2,58.3C63.3,58.3,63.3,58.3,63.2,58.3z"></path> <path class="st1" d="M42.9,52.4c-0.1,0-0.2,0-0.3-0.1c-0.4-0.1-0.5-0.5-0.6-0.8c-0.1-0.1-0.1-0.2-0.2-0.4 c-0.2-0.4-0.1-0.8,0.2-1.1c0.1-0.1,0.2-0.2,0.4-0.3c-0.1-0.1-0.1-0.3,0-0.4c0.1-0.1,0.2-0.3,0.6-0.2c0.2,0,0.5,0.2,0.8,0.4 c0.1,0,0.1,0,0.2,0.1c0.3,0.1,0.4,0.3,0.5,0.5c0.2,0.2,0.4,0.5,0.4,0.8c0,0.3,0,0.8-0.7,1.1C43.6,52.3,43.2,52.4,42.9,52.4z M44.1,51c-0.1,0.1-0.2,0.2-0.2,0.3C44.1,51.2,44.1,51.1,44.1,51z M43.4,50.3c0,0.1,0.1,0.2,0.1,0.4c0.1-0.1,0.2-0.2,0.2-0.2 C43.6,50.4,43.5,50.3,43.4,50.3C43.4,50.3,43.4,50.3,43.4,50.3z"></path> <path class="st2" d="M55.8,62.9c-4.1,0-9.7-4.2-10-4.4c-0.2-0.1-0.2-0.4-0.1-0.5c0.1-0.2,0.4-0.2,0.5-0.1 c0.1,0.1,6.7,5,10.4,4.1c0.2-0.1,0.4,0.1,0.4,0.3c0.1,0.2-0.1,0.4-0.3,0.4C56.5,62.9,56.2,62.9,55.8,62.9z"></path> <path class="st2" d="M50.9,64.4c-0.3,0-0.7,0-1.1-0.1c-0.2,0-0.4-0.2-0.3-0.4c0-0.2,0.2-0.4,0.4-0.3c2.4,0.2,3.2-0.3,3.5-0.6 c0.2-0.2,0.2-0.5,0.2-0.5c0-0.2,0.1-0.4,0.3-0.4c0.2,0,0.4,0.1,0.4,0.3c0,0.1,0.1,0.6-0.3,1.1C53.4,64,52.4,64.4,50.9,64.4z"></path> </g> <path class="st4" d="M71.9,43.7c0,0-1,6.3,2.8,8.4c3.8,2.1,0.7-5.9,0.1-6.6C74.2,44.8,72.8,43.1,71.9,43.7z"></path> <path class="st4" d="M70.6,40.6c0,0-0.7-2.5,1-1.6c1.7,0.8,2.6,2.7,1.8,3.1C72.6,42.5,71.8,42.7,70.6,40.6z"></path> </g> <g> <polygon points="33.8,33.2 45.3,38 45.9,36.1 "></polygon> <polygon points="33.7,33 49.2,36.5 45.7,34.1 36,33.1 45.4,33.8 46.7,31.6 "></polygon> </g> <polygon class="st1" points="0,71.8 71.4,92.8 75.2,79.6 "></polygon> <polygon points="0,71.8 88.8,70.6 98.3,86.2 "></polygon> <g> <polygon points="78.7,90.9 95.3,97.8 96.1,95 "></polygon> <polygon points="78.6,90.6 100.8,95.6 95.8,92.2 81.8,90.8 95.4,91.7 97.3,88.5 "></polygon> </g> <path class="st1" d="M66.6,75.4c-2.8,0-6.5-0.1-11.1-0.4c-0.2,0-0.4-0.2-0.4-0.4c0-0.2,0.2-0.4,0.4-0.4c18.4,1.2,20.2-0.5,20.4-1 c0.2-0.7-2.2-2.1-4-2.8c-0.2-0.1-0.3-0.3-0.2-0.5c0.1-0.2,0.3-0.3,0.5-0.2c0.8,0.3,4.8,2,4.4,3.6C76.4,74.3,75,75.4,66.6,75.4z"></path> <path class="st1" d="M58.1,74L58.1,74l-2.9-0.1c-0.2,0-0.4-0.2-0.4-0.4c0-0.2,0.2-0.4,0.4-0.4l2.8,0.1c0.2,0,0.4,0.2,0.4,0.4 C58.5,73.8,58.3,74,58.1,74z"></path> <path class="st1" d="M58.6,76.5L58.6,76.5l-2.9-0.1c-0.2,0-0.4-0.2-0.4-0.4c0-0.2,0.2-0.4,0.4-0.4l2.9,0.1c0.2,0,0.4,0.2,0.4,0.4 C59,76.4,58.8,76.5,58.6,76.5z"></path> <ellipse class="st5" cx="59.6" cy="101.8" rx="17.5" ry="3"></ellipse> </g> </g> </svg>