<svg xmlns="http://www.w3.org/2000/svg" xmlns:xlink="http://www.w3.org/1999/xlink" version="1.1" id="Calque_1" x="0px" y="0px" viewBox="0 0 120 120" style="enable-background:new 0 0 120 120;" xml:space="preserve"> <style type="text/css"> .st0{fill:#EDEDED;} .st1{fill:#5E5EF7;} .st2{fill:#FFFFFF;} .st3{fill:#131313;} .st4{fill:none;} .st5{fill:#ECECEC;} .st6{fill:#575756;} </style> <g> <g> <path class="st0" d="M57.7,81.4c-15,6.9-47.9,27.8-50.7,0.4C5.2,64.5,34.9,55.1,34.9,55.1s-1.1-28.1,29.2-31s35.5,43.8,35.5,43.8 s17,7.6,12.7,19.7C102.9,114.5,57.7,81.4,57.7,81.4z"></path> <path d="M45.9,26.6c-0.1,0-0.1,0-0.2,0c-0.2-0.1-0.3-0.3-0.2-0.5c2.7-5.8,6.7-10.5,11.9-13.9c0.2-0.1,0.4-0.1,0.6,0.1 c0.1,0.2,0.1,0.4-0.1,0.6c-5,3.4-8.9,7.9-11.6,13.6C46.2,26.5,46.1,26.6,45.9,26.6z"></path> <path d="M104.7,103.9c-0.2,0-0.3-0.1-0.4-0.3c-0.1-0.2,0.1-0.4,0.3-0.5c6.4-2,11.1-6.7,13.5-13.6c2.6-7.3,0.3-14.7-6.4-20.8 c-1.8-1.7-4-3.3-6.3-4.6l-0.2-0.1l0-0.2c-0.4-2.5-1.2-6.3-2.5-10.8c-0.1-0.2,0.1-0.4,0.3-0.5c0.2-0.1,0.4,0.1,0.5,0.3 c1.3,4.3,2,8.2,2.5,10.7c2.3,1.4,4.5,3,6.3,4.7c7,6.4,9.3,14.1,6.6,21.7c-2.5,7.2-7.4,12.1-14.1,14.1 C104.8,103.9,104.8,103.9,104.7,103.9z"></path> <path d="M10.4,100.2c-0.1,0-0.1,0-0.2-0.1C4.4,97,1,91.1,0.1,82.6c-0.7-6.9,1.6-17.1,16.5-26.5c0.2-0.1,0.4-0.1,0.6,0.1 c0.1,0.2,0.1,0.4-0.1,0.6C2.5,65.9,0.3,75.8,0.9,82.5c0.8,8.2,4.1,13.9,9.6,16.9c0.2,0.1,0.3,0.4,0.2,0.6 C10.7,100.1,10.5,100.2,10.4,100.2z"></path> <path d="M100.9,105.8c-0.9,0-1.6-0.7-1.6-1.6s0.7-1.6,1.6-1.6c0.9,0,1.6,0.7,1.6,1.6C102.6,105.1,101.8,105.8,100.9,105.8z M100.9,103.4c-0.4,0-0.8,0.4-0.8,0.8c0,0.4,0.4,0.8,0.8,0.8c0.4,0,0.8-0.4,0.8-0.8C101.8,103.7,101.4,103.4,100.9,103.4z"></path> <circle cx="96.9" cy="104.2" r="0.7"></circle> <path class="st1" d="M60.8,7L60.8,7c0,1.7,1.4,3.1,3.1,3.1l0,0l0,0c-1.7,0-3.1,1.4-3.1,3.1l0,0l0,0c0-1.7-1.4-3.1-3.1-3.1l0,0l0,0 C59.4,10.1,60.8,8.7,60.8,7L60.8,7z"></path> <circle cx="102" cy="50.7" r="0.7"></circle> <circle cx="12.6" cy="100.8" r="0.7"></circle> </g> <g> <path class="st1" d="M94.7,74.5l-7.8-23c-0.1-0.2,0-0.4,0.2-0.5c0.2-0.1,0.4,0,0.5,0.2l7.2,21.4c0.7-2.9,2.6-11.2,3.9-17 c0.1-0.2,0.3-0.3,0.4-0.3c0.2,0.1,0.3,0.3,0.3,0.4c-4.1,18.1-4.3,18.3-4.4,18.4L94.7,74.5z"></path> <g> <path class="st2" d="M93.2,41.4c0,0-6.4-10-1.2-19.1c5.7-10.1,20.8-5.1,21.4,5.7c0.2,4.1-1.8,8-5.2,10.3 c-2.6,1.8-6.8,3.5-13.2,4.1L93.2,41.4z"></path> <path d="M94.9,42.5l-1.8-1l0,0c-0.1-0.1-6.4-10.2-1.2-19.3c3-5.3,8.3-6.2,12.2-5.3c4.5,1.1,9.2,4.9,9.5,11 c0.2,4.1-1.8,8.1-5.3,10.5C104.9,40.7,100.4,42,94.9,42.5L94.9,42.5z M93.3,41.3l1.7,0.9c5.4-0.5,9.8-1.8,13.1-4 c3.4-2.3,5.4-6.2,5.2-10.1c-0.3-5.9-4.9-9.6-9.3-10.7c-3.8-0.9-8.9,0-11.8,5.1C87.2,31,92.9,40.6,93.3,41.3z"></path> </g> <path class="st3" d="M106.8,25.8l-4.8-3c-1.1-0.7-2.6-0.4-3.4,0.8l-3,4.8c-0.7,1.1-0.4,2.6,0.8,3.3l4.8,3c1.1,0.7,2.6,0.4,3.4-0.8 l3-4.8C108.2,28.1,107.9,26.6,106.8,25.8z M98.4,30.7l-1.2-0.7l2.4-3.8l1.2,0.7L98.4,30.7z M100.5,26c-0.4-0.2-0.5-0.7-0.3-1.1 c0.2-0.4,0.7-0.5,1.1-0.3c0.4,0.2,0.5,0.7,0.3,1.1C101.4,26.1,100.9,26.3,100.5,26z M102.8,33.4l-1.2-0.7c0,0,0.9-1.4,1.3-2 c0.3-0.5,0.3-1-0.1-1.3c-0.5-0.3-0.9-0.1-1.2,0.4c-0.4,0.6-1.3,2-1.3,2l-1.1-0.7l2.4-3.8l1.1,0.7l-0.3,0.5c0,0,0.7-0.4,1.5,0.1 c0.8,0.5,1.1,1.4,0.4,2.4C103.7,32.1,102.8,33.4,102.8,33.4z"></path> <path class="st3" d="M91.8,55.5c0,0-17-1.3-24.3-12.7s4.1-26.2,18-22.3S93.2,55,93.2,55L91.8,55.5z"></path> <path class="st3" d="M92.1,56.7c0,0-1.1,2.7-0.7,2.9s4-1,4-1.3c0-0.3-1.8-1.8-1.8-1.8L92.1,56.7z"></path> <path class="st1" d="M78.8,26.5l-7.3,5.4c-1.7,1.3-2.1,3.7-0.8,5.5l5.4,7.3c1.3,1.7,3.7,2.1,5.5,0.8l1.9-1.4L79.5,39l-1.1,0.8 L77.1,38l1.1-0.8c0,0-0.2-0.3-1.1-1.4c-1-1.3-0.8-2.6,0.8-3.7c0.3-0.2,1.5-1.1,1.5-1.1l1.4,1.8c0,0-0.8,0.6-1.1,0.9 c-0.4,0.3-0.4,0.5-0.1,1c0.3,0.3,0.7,1,0.7,1l1.6-1.2l1.2,1.9l-1.5,1.1l3.9,5.2l3.3-2.5c1.7-1.3,2.1-3.7,0.8-5.5l-5.4-7.3 C83,25.6,80.5,25.2,78.8,26.5z"></path> <path class="st1" d="M94.5,60.9c0,0-4.6-10.5,0-18.4s14.9-6.8,18.8,0c3.8,6.8,0.6,20.2-17.8,19.2L94.5,60.9z"></path> <path class="st1" d="M94,61.5l1,0.9c0,0-0.4,2.3-0.7,2.3s-2-2.5-2-2.5L94,61.5z"></path> <g> <path class="st3" d="M106.3,44.9c1.4,0.9,1.6,1,2.1,1.4c0.5,0.3,0.7,0.6,0.9,0.8c0.2,0.3,0.3,0.5,0.4,0.8c0.1,0.3,0.1,0.5,0,0.9 c-0.1,0.2-0.1,0.6-0.4,1.1c-0.3,0.6-0.4,0.7-1.3,2.2c-0.9,1.4-1,1.6-1.4,2.1c-0.3,0.5-0.6,0.7-0.8,0.9c-0.3,0.2-0.5,0.3-0.8,0.4 s-0.5,0.1-0.9,0c-0.2-0.1-0.6-0.1-1.1-0.4c-0.6-0.3-0.7-0.4-2.2-1.3c-1.4-0.9-1.6-1-2.1-1.4c-0.5-0.3-0.7-0.6-0.9-0.8 c-0.2-0.3-0.3-0.5-0.4-0.8c-0.1-0.3-0.1-0.5,0-0.9c0.1-0.2,0.1-0.6,0.4-1.1c0.3-0.6,0.4-0.7,1.3-2.2c0.9-1.4,1-1.6,1.4-2.1 c0.3-0.5,0.6-0.7,0.8-0.9c0.3-0.2,0.5-0.3,0.8-0.4s0.5-0.1,0.9,0c0.2,0.1,0.6,0.1,1.1,0.4C104.7,43.9,104.9,44,106.3,44.9 M106.9,43.9c-1.4-0.9-1.6-1-2.2-1.3c-0.6-0.3-1-0.5-1.4-0.6c-0.4-0.1-0.9-0.1-1.3,0c-0.5,0.1-0.9,0.3-1.2,0.6 c-0.3,0.3-0.7,0.6-1.1,1.1s-0.5,0.7-1.4,2.2c-0.9,1.4-1,1.6-1.3,2.2c-0.3,0.6-0.5,1-0.6,1.4c-0.1,0.4-0.1,0.9,0,1.3 c0.1,0.5,0.3,0.9,0.6,1.2c0.3,0.3,0.6,0.7,1.1,1.1c0.5,0.4,0.7,0.5,2.2,1.4c1.4,0.9,1.6,1,2.2,1.3c0.6,0.3,1,0.5,1.4,0.6 c0.4,0.1,0.9,0.1,1.3,0c0.5-0.1,0.9-0.3,1.2-0.6c0.3-0.3,0.7-0.6,1.1-1.1s0.5-0.7,1.4-2.2c0.9-1.4,1-1.6,1.3-2.2 c0.3-0.6,0.5-1,0.6-1.4c0.1-0.4,0.1-0.9,0-1.3s-0.3-0.9-0.6-1.2c-0.3-0.3-0.6-0.7-1.1-1.1C108.5,44.9,108.3,44.8,106.9,43.9"></path> <path class="st3" d="M105.3,46.5c-1.5-0.9-3.5-0.5-4.4,1c-0.9,1.5-0.5,3.5,1,4.4c1.5,0.9,3.5,0.5,4.4-1 C107.2,49.4,106.8,47.4,105.3,46.5 M102.4,51c-1-0.6-1.3-1.9-0.7-2.9c0.6-1,1.9-1.3,2.9-0.7c1,0.6,1.3,1.9,0.7,2.9 C104.7,51.3,103.4,51.6,102.4,51"></path> <path class="st3" d="M108.8,48.6c-0.2,0.4-0.7,0.5-1,0.2s-0.5-0.7-0.2-1c0.2-0.4,0.7-0.5,1-0.2C108.9,47.7,109,48.2,108.8,48.6"></path> </g> <polygon points="96,73.4 94.8,72.5 83.2,88.5 79.4,97.9 81.1,98.8 88.9,89.6 "></polygon> <polygon points="96,73.4 115.5,80.5 103.6,98.9 88.9,89.6 "></polygon> <g> <polygon class="st2" points="95.8,76.5 111.5,82 102.9,95.8 90.1,87.9 "></polygon> <path class="st1" d="M103,96.3L89.5,88L95.6,76l16.5,5.8L103,96.3z M90.6,87.7l12.1,7.5l8.1-13L96,77L90.6,87.7z"></path> </g> <polygon class="st1" points="120,67.8 111.4,62.4 106.2,72.4 108.3,74.2 104.7,77.2 110.4,75.9 112.8,77.5 "></polygon> <polygon class="st2" points="115.6,67.8 113.5,66.5 112,70.3 113.1,70.8 "></polygon> <ellipse transform="matrix(0.4502 -0.8929 0.8929 0.4502 -3.2533 139.1225)" class="st2" cx="111.3" cy="72.2" rx="0.9" ry="1"></ellipse> <g> <line class="st4" x1="106.6" y1="82.8" x2="103.8" y2="87.8"></line> <rect x="102.4" y="85.1" transform="matrix(0.4942 -0.8693 0.8693 0.4942 -20.9289 134.6193)" width="5.7" height="0.4"></rect> </g> <g> <line class="st4" x1="105.6" y1="82.3" x2="101.7" y2="89.3"></line> <rect x="99.7" y="85.6" transform="matrix(0.4843 -0.8749 0.8749 0.4843 -21.6211 134.9707)" width="8" height="0.4"></rect> </g> <g> <line class="st4" x1="104.5" y1="81.8" x2="102.6" y2="85.5"></line> <rect x="101.5" y="83.5" transform="matrix(0.4628 -0.8865 0.8865 0.4628 -18.5246 136.7268)" width="4.2" height="0.4"></rect> </g> <path d="M94.8,73.9c-0.2,0-0.4-0.2-0.4-0.4V61.9c0-0.2,0.2-0.4,0.4-0.4s0.4,0.2,0.4,0.4v11.6C95.2,73.8,95,73.9,94.8,73.9z"></path> <path d="M95.9,62.9c-0.1,0-0.2,0-0.3-0.1l-2-1.7c-0.2-0.2-0.2-0.4-0.1-0.6c0.2-0.2,0.4-0.2,0.6-0.1l2,1.7c0.2,0.2,0.2,0.4,0.1,0.6 C96.1,62.9,96,62.9,95.9,62.9z"></path> <path class="st1" d="M91.4,56.5c-0.2,0-0.3-0.1-0.4-0.3c-0.1-0.2,0.1-0.4,0.3-0.5l2.1-0.5c0.2-0.1,0.4,0.1,0.5,0.3 c0.1,0.2-0.1,0.4-0.3,0.5L91.4,56.5C91.5,56.5,91.5,56.5,91.4,56.5z"></path> <ellipse class="st5" cx="93.2" cy="108.4" rx="17.6" ry="3"></ellipse> </g> <g> <path class="st1" d="M23.9,33c0,0,7,2.7,13.3-1.9s3.8-16.5,3.8-16.5s-11.1,4.8-6.4,12.9c0,0-8.7-8.8-18.1-3.7 C16.4,23.8,17.4,29.3,23.9,33z"></path> <path class="st2" d="M29,32.8c-3.7,0-8.4-1.4-10.9-7.5L17.9,25l0.3-0.2c0.2-0.2,5.5-4.1,14.1,2c0.2,0.1,0.2,0.4,0.1,0.6 c-0.1,0.2-0.4,0.2-0.6,0.1c-7.1-5-11.7-2.9-12.8-2.2c4.3,9.8,14.6,5.9,15.1,5.7c0.2-0.1,0.5,0,0.6,0.2c0.1,0.2,0,0.5-0.2,0.6 C34.3,31.9,32,32.8,29,32.8z"></path> <path class="st2" d="M34.7,26.2c-0.2,0-0.4-0.2-0.4-0.4c0-0.1-0.7-6.8,5.5-9.2l0.4-0.1l0.2,0.4c0.1,0.2,1.9,3.8-0.3,7.7 c-0.1,0.2-0.4,0.3-0.6,0.2c-0.2-0.1-0.3-0.4-0.2-0.6c1.5-2.8,0.8-5.6,0.4-6.5c-5.1,2.3-4.5,8-4.5,8.1C35.1,26,34.9,26.2,34.7,26.2 C34.7,26.2,34.7,26.2,34.7,26.2z"></path> <path class="st1" d="M54.7,112.9h-9.3l8.1-18.5c0.1-0.2,0.4-0.4,0.7-0.2s0.4,0.4,0.2,0.7l-7.5,17h6.7c-0.1-0.6-0.4-1.7-1.2-2.1 c-0.7-0.4-1.7-0.2-2.9,0.5c-0.2,0.1-0.5,0-0.7-0.2c-0.1-0.2,0-0.5,0.2-0.7c1.5-0.9,2.9-1,3.9-0.5c1.6,0.9,1.8,3.4,1.8,3.5 L54.7,112.9z"></path> <path d="M30.3,28.4l1,3.7c0,0-17.6,14.5-12.9,36.5s22.4,26.6,22.4,26.6l-1.9,6.2l12.6-0.6c0,0,21.2-21.2,17-40.8 c-5.7-26.3-27.4-30-27.4-30l-1.6-2.8L30.3,28.4z"></path> <path class="st2" d="M41.5,99.4l1-5.5c-3-1-20.8-7.6-22.5-27.8C18.2,45.5,29.9,35.2,31.4,34l0.7-3.9l2.7-0.3l3.5-2.1l2,4 c2.3,0.5,19.1,4.8,25.5,26.3c6.8,22.9-16.3,40.5-16.5,40.7l-0.1,0.1L41.5,99.4z M32.9,31l-0.6,3.5l-0.2,0.1c0,0-3.3,2.5-6.3,7.6 c-2.8,4.7-5.9,12.6-4.9,23.8c1.8,21.3,22,27,22.2,27.1l0.5,0.1l-0.9,5.1l6-0.5c1.7-1.3,22.5-18.1,16.1-39.5 c-3.5-11.7-10-18-15-21.2c-5.3-3.5-9.9-4.4-10-4.4l-0.2,0l-1.7-3.4l-2.8,1.6L32.9,31z"></path> <path class="st1" d="M43.5,112.9h-9L40.2,95c0.1-0.3,0.4-0.4,0.6-0.3c0.3,0.1,0.4,0.4,0.3,0.6l-5.2,16.6h6.6 c-0.1-0.5-0.2-1.2-0.9-1.7c-0.7-0.6-2-0.6-3.6,0c-0.3,0.1-0.5,0-0.6-0.3c-0.1-0.3,0-0.5,0.3-0.6c2-0.7,3.6-0.7,4.6,0.1 c1.4,1,1.3,2.9,1.3,3L43.5,112.9z"></path> <path class="st1" d="M37.3,68.8c-0.4,0-1-0.2-1.7-0.6c-0.9-0.5-1-1.2-0.9-1.5c0.1-0.4,0.3-0.7,0.6-1.1c0.1-0.2,0.2-0.5,0.6-0.6 c0.1,0,0.2,0,0.2-0.1c0.4-0.2,0.8-0.4,1.1-0.5c0.5-0.1,0.8,0.2,0.8,0.3c0.1,0.2,0.1,0.3,0,0.5c0.2,0.1,0.4,0.2,0.5,0.4 c0.4,0.5,0.5,1,0.2,1.5c-0.1,0.2-0.2,0.3-0.2,0.5c-0.2,0.4-0.4,0.9-0.9,1C37.6,68.7,37.5,68.8,37.3,68.8z M35.7,66.9 c0,0.1,0.1,0.2,0.3,0.4C35.9,67.1,35.8,67,35.7,66.9z M36.4,66c0,0.1,0.1,0.2,0.2,0.3c0-0.2,0.1-0.4,0.1-0.5c0,0-0.1,0-0.1,0 C36.5,65.9,36.4,66,36.4,66z"></path> <path class="st6" d="M44.2,40.1c0,0,3.3,7.9,9.1,7.7c5.8-0.2-3.3-7.3-4.4-7.7C47.7,39.7,44.8,38.7,44.2,40.1z"></path> <path class="st6" d="M40.6,37.4c0,0-2.5-2.3,0-2.5c2.5-0.2,4.8,1.4,4.3,2.3C44.2,38.1,43.5,38.9,40.6,37.4z"></path> <path class="st1" d="M66.9,61.7c-0.4,0-1-0.2-1.7-0.6c-0.9-0.5-1-1.2-0.9-1.5c0.1-0.4,0.3-0.7,0.6-1.1c0.1-0.2,0.2-0.5,0.6-0.6 c0.1,0,0.2,0,0.2-0.1c0.4-0.2,0.8-0.4,1.1-0.5c0.5-0.1,0.8,0.2,0.8,0.3c0.1,0.2,0.1,0.3,0,0.5c0.2,0.1,0.4,0.2,0.5,0.4 c0.4,0.5,0.5,1,0.2,1.5c-0.1,0.2-0.2,0.3-0.2,0.5c-0.2,0.4-0.4,0.9-0.9,1C67.2,61.7,67,61.7,66.9,61.7z M65.3,59.8 c0,0.1,0.1,0.2,0.3,0.4C65.5,60.1,65.3,60,65.3,59.8z M65.9,59c0,0.1,0.1,0.2,0.2,0.3c0-0.2,0.1-0.4,0.1-0.5c0,0-0.1,0-0.1,0 C66,58.9,66,58.9,65.9,59z"></path> <path class="st2" d="M42.2,70.9c-0.2,0-0.5-0.2-0.5-0.4c0-0.3,0.2-0.5,0.4-0.6c4.7-0.6,17.5-2.8,19.9-5.8c0.2-0.2,0.5-0.2,0.7-0.1 c0.2,0.2,0.2,0.5,0.1,0.7C59.7,68.7,42.9,70.8,42.2,70.9C42.2,70.9,42.2,70.9,42.2,70.9z"></path> <path class="st2" d="M49.7,71.8c-0.2,0-0.5-0.2-0.5-0.5c0-0.3,0.2-0.5,0.5-0.5c3.6-0.3,7.8-0.9,8.3-1.2c0.2-0.2,0.5-0.1,0.7,0.1 s0.1,0.5-0.1,0.7C57.5,71,51.1,71.7,49.7,71.8C49.7,71.8,49.7,71.8,49.7,71.8z"></path> <path class="st2" d="M54.8,64.6c-0.3,0-0.6-0.1-0.9-0.2C52.6,63.6,52,61.3,52,61c-0.1-0.3,0.1-0.5,0.4-0.6 c0.3-0.1,0.5,0.1,0.6,0.4c0.1,0.6,0.6,2.2,1.5,2.7c0.2,0.1,0.5,0.2,0.7,0c0.3-0.1,0.5,0,0.6,0.3c0.1,0.3,0,0.5-0.3,0.6 C55.3,64.5,55,64.6,54.8,64.6z"></path> <path class="st2" d="M43.7,62.9c-0.1,0-0.2,0-0.3-0.1c-0.2-0.2-0.3-0.5-0.1-0.7c0.1-0.1,2.3-3,4.4-2.8c0.9,0.1,1.7,0.6,2.2,1.7 c0.1,0.2,0,0.5-0.2,0.7c-0.2,0.1-0.5,0-0.7-0.2c-0.4-0.7-0.9-1.1-1.4-1.1c-1.3-0.1-3,1.7-3.5,2.4C44,62.8,43.8,62.9,43.7,62.9z"></path> <path class="st2" d="M55.4,60.1c-0.1,0-0.2,0-0.2,0c-0.2-0.1-0.3-0.4-0.2-0.7c0-0.1,1.4-2.7,3.2-2.9c0.9-0.1,1.8,0.4,2.5,1.4 c0.2,0.2,0.1,0.5-0.1,0.7c-0.2,0.2-0.5,0.1-0.7-0.1c-0.5-0.7-1.1-1.1-1.7-1c-1.1,0.1-2.1,1.7-2.4,2.3C55.8,60,55.6,60.1,55.4,60.1 z"></path> <path class="st1" d="M67.6,75.6c-0.1,0-0.3-0.1-0.4-0.2c-0.2-0.2-0.2-0.5,0-0.7c0.2-0.1,15.7-14,12.6-20.4 c-1.7-3.5-9.1-4.3-21.4-2.2c-0.3,0-0.5-0.1-0.6-0.4c0-0.3,0.1-0.5,0.4-0.6c13.1-2.2,20.5-1.3,22.4,2.7c3.4,7.1-12.2,21-12.8,21.6 C67.8,75.6,67.7,75.6,67.6,75.6z"></path> <path class="st1" d="M20.4,113c-1.7,0-2.3-0.5-2.6-1.1c-0.3-0.6,0-1.3,0.5-1.8c0.7-0.6,1.8-0.9,2.9-0.2c0.2,0.2,0.3,0.5,0.2,0.7 c-0.2,0.2-0.5,0.3-0.7,0.2c-0.6-0.4-1.3-0.2-1.7,0.1c-0.2,0.2-0.4,0.5-0.3,0.7c0.1,0.3,0.9,0.7,3,0.4c4.6-0.6,5.3-18.1,5.2-24.8 c0-0.3,0.2-0.5,0.5-0.5c0.3,0,0.5,0.2,0.5,0.5c0,2.5,0.2,24.9-6.1,25.8C21.3,112.9,20.9,113,20.4,113z"></path> </g> </g> </svg>