<svg xmlns="http://www.w3.org/2000/svg" xmlns:xlink="http://www.w3.org/1999/xlink" version="1.1" id="Calque_1" x="0px" y="0px" viewBox="0 0 120 120" style="enable-background:new 0 0 120 120;" xml:space="preserve"> <style type="text/css"> .st0{fill:#EDEDED;} .st1{fill:#5E5EF7;} .st2{fill:#C6C6C5;} .st3{fill:#FFFFFF;} .st4{fill:#151819;} .st5{fill:#575756;} </style> <g> <g> <path class="st0" d="M52,96.8c11.4,0.1,53,3.2,41.9-26.6c0,0,19.9-1.2,19.4-19.2c-0.5-18-27.5-37.2-50.2-11.8S37.3,60.4,22.1,54.8 C12.2,51.1-19,96.2,52,96.8z"></path> <path d="M112.3,69.5c-0.1,0-0.2-0.1-0.3-0.1c-0.2-0.2-0.1-0.4,0-0.6c4.9-4.5,7.4-10.7,7.2-17.9c-0.2-7.5-3.8-15.1-10-20.8 c-0.2-0.2-0.2-0.4,0-0.6c0.2-0.2,0.4-0.2,0.6,0c6.3,5.9,10,13.7,10.2,21.4c0.2,7.5-2.4,13.9-7.5,18.5 C112.5,69.5,112.4,69.5,112.3,69.5z"></path> <path d="M78.2,102.4c-0.2,0-0.4-0.1-0.4-0.3c0-0.2,0.1-0.4,0.3-0.5c9.4-1.7,16.1-5.3,20-10.7c0.1-0.2,0.4-0.2,0.6-0.1 c0.2,0.1,0.2,0.4,0.1,0.6C94.8,96.9,87.9,100.7,78.2,102.4C78.2,102.4,78.2,102.4,78.2,102.4z"></path> <path d="M2.1,83.5c-0.2,0-0.3-0.1-0.4-0.2C-2.7,72.7,2,61,8.6,54.1c2.4-2.5,4.9-4.3,7.4-5.3c0.2-0.1,0.4,0,0.5,0.2 c0.1,0.2,0,0.4-0.2,0.5c-2.4,1-4.9,2.7-7.2,5.1c-6.4,6.7-11,18-6.7,28.3c0.1,0.2,0,0.4-0.2,0.5C2.2,83.5,2.2,83.5,2.1,83.5z"></path> <path d="M4.6,87.9c-0.1,0-0.2,0-0.3,0c-0.4-0.1-0.8-0.3-1-0.6C3.1,86.9,3,86.5,3.1,86c0.1-0.4,0.3-0.8,0.6-1s0.8-0.3,1.2-0.3 c0.9,0.2,1.4,1,1.3,1.8l0,0C6.1,87.4,5.4,87.9,4.6,87.9z M4.6,85.5c-0.2,0-0.3,0.1-0.4,0.1C4,85.8,3.9,86,3.9,86.2 c0,0.2,0,0.4,0.1,0.6c0.1,0.2,0.3,0.3,0.5,0.3c0.4,0.1,0.8-0.2,0.9-0.6c0.1-0.4-0.2-0.8-0.6-0.9C4.7,85.5,4.7,85.5,4.6,85.5z M5.8,86.5L5.8,86.5L5.8,86.5z"></path> <circle cx="8.1" cy="89.3" r="0.7"></circle> <path class="st1" d="M100.7,85.4L100.7,85.4c0,1.6,1.3,3,3,3l0,0l0,0c-1.6,0-3,1.3-3,3l0,0l0,0c0-1.6-1.3-3-3-3l0,0l0,0 C99.3,88.4,100.7,87.1,100.7,85.4L100.7,85.4z"></path> <circle cx="106.7" cy="28.2" r="0.7"></circle> </g> <g> <polygon class="st1" points="78.1,26.1 78.3,28 102.9,28.3 102.3,25.8 "></polygon> <polygon class="st1" points="78.3,29.4 91.7,29.4 91.5,31.1 78.3,30.8 "></polygon> <circle class="st2" cx="75.9" cy="46.1" r="5.2"></circle> <polygon class="st2" points="82,42.3 82.2,44.8 102.9,44.8 102.3,42 "></polygon> <polygon class="st2" points="82.5,46.4 93.7,46.4 93.1,48.1 82.8,48.1 "></polygon> <polygon class="st2" points="82.8,49.5 95.8,49.5 95.6,50.4 82.6,50.1 "></polygon> <circle class="st2" cx="75.9" cy="59.3" r="5.2"></circle> <polygon class="st2" points="82.5,56 106.9,55.7 106.7,57.3 82.1,57.4 "></polygon> <polygon class="st2" points="82.3,58.8 97.2,58.7 97.2,60.1 82.6,60.3 "></polygon> <polygon class="st2" points="82.6,61.9 100.5,62 100.5,63 82.8,63 "></polygon> <circle class="st2" cx="75.9" cy="84.2" r="5.2"></circle> <polygon class="st2" points="82,80.6 101.5,80.4 101.5,82.8 82.1,82.5 "></polygon> <polygon class="st2" points="82.1,84.2 99.6,84.2 99.4,85.3 82.8,85.3 "></polygon> <polygon class="st2" points="82.1,86.8 89.1,86.8 89,87.7 82,87.7 "></polygon> <g> <polygon class="st3" points="70.1,66.6 70.7,77.1 106.8,76.7 107.9,67.1 "></polygon> <path class="st1" d="M70.3,77.5l-0.6-11.3l38.5,0.5l-1.2,10.3L70.3,77.5z M70.5,66.9l0.5,9.8l35.4-0.4l1-8.9L70.5,66.9z"></path> </g> <path class="st1" d="M89.2,72.4c-0.1,0-0.2-0.1-0.3-0.2c-0.1-0.2-0.1-0.4,0.1-0.5c0.1-0.1,9.4-6,10.9-15.9 c0.9-6.3-1.5-12.7-7.3-19.3c-0.1-0.2-0.1-0.4,0-0.5s0.4-0.1,0.5,0c5.9,6.7,8.4,13.4,7.5,19.9c-1.5,10.2-11.1,16.3-11.2,16.4 C89.3,72.4,89.2,72.4,89.2,72.4z"></path> <path class="st1" d="M93.3,40.1c-0.2,0-0.3-0.1-0.4-0.3l-1.2-4.2l4.6,0.6c0.2,0,0.3,0.2,0.3,0.4s-0.2,0.3-0.4,0.3l-3.5-0.5 l0.9,3.1C93.7,39.8,93.6,40,93.3,40.1C93.4,40.1,93.4,40.1,93.3,40.1z"></path> </g> <g> <g transform="matrix(1, 0, 0, 1, 27.009001, -39.238998)"> <path class="st1" d="M1,133.6c0.3-0.5,0.5-1.1,0.6-1.6l-7.7-3.9l-1.5,3.1l4.4,2.2c-0.7,0.9-1.7,1.5-2.9,1.6l-1,2.1l2.6,1.3 C-2.2,137.8-0.3,136.1,1,133.6z"></path> <path class="st4" d="M-10.9,137.7c2.2,1.1,4.4,1.3,6.4,0.7l-1.6-3.4c-1,0.1-2.1-0.1-3.2-0.6c-2.1-1.1-3.2-3.4-2.9-5.7l-2.7-1.4 l-1.1,2.1C-15.9,132.9-14.1,136.1-10.9,137.7z"></path> <path class="st1" d="M-12.2,128.8c0.1-0.6,0.3-1.2,0.5-1.7c0.3-0.5,0.6-1,1-1.4l1.1-2.1l-2.7-1.4c-1.1,0.8-2.1,1.9-2.7,3.2 s-1,2.7-1,4.1L-12.2,128.8z"></path> <path d="M-4.3,124.5c1.2,0.6,2.1,1.6,2.5,2.8l3.5-1.2c-0.7-2-2.2-3.8-4.4-4.9c-3.2-1.6-6.9-1.1-9.6,0.9l1.7,3.5 C-9,124-6.4,123.5-4.3,124.5z"></path> </g> <path class="st1" d="M25.4,26.3c0,0,4.2,4.6,10.5,3.6c6.3-1,9-10.7,9-10.7s-10-0.6-9.5,7c0,0-3-9.8-11.9-9.5 C23.4,16.7,22,21,25.4,26.3z"></path> <path class="st3" d="M33.6,29.4c-0.1,0-2.6-0.3-5.1-1.8c-2.3-1.4-4.9-4.1-4.5-9.2l0-0.3l0.3-0.1c0.2,0,5.6-1,9.6,6.8l-0.6,0.3 c-3.3-6.4-7.5-6.5-8.6-6.5c-0.2,3.7,1.2,6.4,4.1,8.2c2.3,1.4,4.7,1.7,4.8,1.7L33.6,29.4z"></path> <path class="st3" d="M40.4,26.2L40,25.6c2.2-1.5,2.7-3.8,2.8-4.6c-4.6-0.3-6.4,4.2-6.4,4.2l-0.7-0.3c0-0.1,2.1-5.2,7.5-4.7l0.3,0 v0.3C43.5,20.7,43.5,24,40.4,26.2z"></path> <path d="M46.7,79.7c0,0-20.4-1.2-24.8-23.1s10.9-28.3,10.9-28.3l-0.2-3.2l7.9-0.3l1,3.7c0,0,31.3,8.9,17.9,46l-1.8,7.5l-11.7,0.8 L46.7,79.7z"></path> <path class="st3" d="M51.5,81.1c-1.4,0-2.5-2.2-2.9-2.9c-2.2-0.2-19.3-2.5-24.2-20C19.6,40.9,33,31.8,35.1,30.5 c-0.4-1.3-0.4-2.2,0.1-2.8c0.5-0.5,1.2-0.4,1.5-0.3c0.4-0.2,1.5-0.6,2.1-0.5c0.7,0.2,2.4,2.2,3,2.9C43,30.4,57.5,37,60.6,51.4 c2.4,11.3-0.4,18-2,21.6c-0.5,1.1-0.9,2-0.9,2.6c0,2.6-1.6,4.1-1.6,4.1L56,79.7h-2.2c-0.2,0.4-0.8,1.1-2,1.3 C51.7,81.1,51.6,81.1,51.5,81.1z M36.1,28.1c-0.2,0-0.4,0-0.5,0.2c-0.1,0.1-0.4,0.6,0.2,2.3l0.1,0.3L35.7,31 c-0.2,0.1-15.6,9-10.5,27c5.1,18.1,23.6,19.5,23.8,19.5l0.2,0l0.1,0.2c0.3,0.7,1.4,2.9,2.4,2.6c1.3-0.3,1.6-1.1,1.6-1.1l0.1-0.2 h0.3h2.2c0.3-0.3,1.3-1.5,1.3-3.5c0-0.7,0.4-1.6,0.9-2.9c1.5-3.5,4.3-10.1,1.9-21.1c-3.1-14.5-18.4-20.9-18.5-21l-0.1,0l-0.1-0.1 c-1-1.2-2.3-2.6-2.7-2.7c-0.4-0.1-1.2,0.2-1.8,0.5l-0.1,0.1l-0.1-0.1C36.5,28.2,36.3,28.1,36.1,28.1z"></path> <path class="st3" d="M50.7,53.2c-0.2,0-0.4-0.1-0.6-0.2c-1.7-0.8-1.9-4.9-1.9-5.4c0-0.2,0.2-0.4,0.4-0.4c0.2,0,0.4,0.2,0.4,0.4 c0.1,1.6,0.5,4.3,1.5,4.7c0.4,0.2,0.8,0.1,1.3-0.3c0.2-0.1,0.4-0.1,0.5,0.1s0.1,0.4-0.1,0.5C51.7,53,51.2,53.2,50.7,53.2z"></path> <path class="st3" d="M43.4,52.8c-0.1,0-0.1,0-0.2-0.1c-0.2-0.1-0.2-0.3-0.1-0.5c0.2-0.2,1.5-2.2,2.9-2.2c0.6,0,1.2,0.5,1.5,1.3 c0.1,0.2,0,0.4-0.2,0.5c-0.2,0.1-0.4,0-0.5-0.2c-0.3-0.6-0.6-0.9-0.9-0.9c-0.8,0-1.9,1.3-2.2,1.8C43.6,52.7,43.5,52.8,43.4,52.8z"></path> <path class="st3" d="M51.1,48.9c-0.1,0-0.2,0-0.2-0.1c-0.2-0.1-0.2-0.4-0.1-0.5c0.1-0.2,1.4-1.6,2.7-1.5c0.6,0.1,1,0.4,1.4,1.1 c0.1,0.2,0,0.4-0.2,0.5c-0.2,0.1-0.4,0-0.5-0.2c-0.2-0.4-0.5-0.7-0.8-0.7c-0.7-0.1-1.7,0.9-2.1,1.2C51.3,48.8,51.2,48.9,51.1,48.9 z"></path> <path class="st1" d="M39.6,57c-0.3,0-0.7-0.1-1.2-0.4c-0.7-0.4-0.7-0.9-0.7-1.1c0.1-0.3,0.2-0.5,0.4-0.8c0.1-0.1,0.2-0.3,0.5-0.5 c0.1,0,0.1,0,0.2-0.1c0.3-0.2,0.6-0.3,0.8-0.3c0.4-0.1,0.6,0.1,0.6,0.2c0.1,0.1,0.1,0.3,0,0.4c0.1,0.1,0.3,0.2,0.4,0.3 c0.3,0.3,0.3,0.7,0.1,1.1c-0.1,0.1-0.1,0.2-0.2,0.4c-0.1,0.3-0.3,0.6-0.6,0.7C39.8,57,39.7,57,39.6,57z M38.4,55.6 c0,0.1,0,0.2,0.2,0.3C38.5,55.8,38.5,55.7,38.4,55.6z M38.8,55c0,0.1,0.1,0.1,0.2,0.2c0-0.2,0.1-0.3,0.1-0.4c0,0-0.1,0-0.1,0 C39,54.9,38.9,54.9,38.8,55z"></path> <path class="st3" d="M50.4,61.6c-0.1,0-0.2,0-0.2,0c-3.7-0.2-6.3-4.4-6.4-4.6l-0.3-0.5l0.6-0.1c6.8-0.6,11.7-4.1,11.7-4.1 c0.2-0.1,0.4-0.1,0.5,0.1c0.1,0.2,0.1,0.4-0.1,0.5c-0.2,0.2-4.7,3.5-11.5,4.2c0.8,1.1,2.9,3.6,5.5,3.7c1.9,0.1,3.7-1.1,5.4-3.4 c0.1-0.2,0.4-0.2,0.5-0.1c0.2,0.1,0.2,0.3,0.1,0.5C54.4,60.4,52.5,61.6,50.4,61.6z"></path> <path class="st1" d="M59.2,49.6c-0.3,0-0.7-0.1-1.2-0.4c-0.7-0.4-0.7-0.9-0.7-1.1c0.1-0.3,0.2-0.5,0.4-0.8 c0.1-0.1,0.2-0.3,0.5-0.5c0.1,0,0.1,0,0.2-0.1c0.3-0.2,0.6-0.3,0.8-0.3c0.4-0.1,0.6,0.1,0.6,0.2c0.1,0.1,0.1,0.3,0,0.4 c0.1,0.1,0.3,0.2,0.4,0.3c0.3,0.3,0.3,0.7,0.1,1.1c-0.1,0.1-0.1,0.2-0.2,0.4c-0.1,0.3-0.3,0.6-0.6,0.7 C59.4,49.6,59.3,49.6,59.2,49.6z M58,48.2c0,0.1,0,0.2,0.2,0.3C58.1,48.4,58.1,48.3,58,48.2z M58.5,47.6c0,0.1,0.1,0.1,0.2,0.2 c0-0.2,0.1-0.3,0.1-0.4c0,0-0.1,0-0.1,0C58.6,47.5,58.5,47.5,58.5,47.6z"></path> <path class="st1" d="M47.3,93.1H42l4.4-13.5c0.1-0.2,0.3-0.3,0.5-0.2c0.2,0.1,0.3,0.3,0.2,0.5L43,92.4h3.6c0-0.4-0.1-1-0.5-1.2 c-0.3-0.3-0.8-0.3-1.5,0c-0.2,0.1-0.4,0-0.5-0.2c-0.1-0.2,0-0.4,0.2-0.5c0.9-0.3,1.7-0.3,2.2,0.2c0.9,0.7,0.7,2.2,0.7,2.2 L47.3,93.1z"></path> <path class="st1" d="M55.4,93h-5.7l2.9-10.6c0.1-0.2,0.3-0.3,0.4-0.3c0.2,0.1,0.3,0.3,0.3,0.4l-2.6,9.7h4.1c0-0.3-0.1-0.8-0.5-1.1 c-0.4-0.4-1.1-0.4-2.1-0.2c-0.2,0.1-0.4-0.1-0.4-0.3c-0.1-0.2,0.1-0.4,0.3-0.4c1.2-0.3,2.2-0.2,2.8,0.3c0.9,0.7,0.7,2,0.7,2.1 L55.4,93z"></path> <path class="st5" d="M44.6,36.1c0,0,2.4,5.8,6.6,5.6c4.2-0.1-2.4-5.3-3.2-5.6C47.1,35.8,45,35.1,44.6,36.1z"></path> <path class="st5" d="M41.9,34.1c0,0-1.8-1.7,0-1.8c1.8-0.1,3.5,1,3.1,1.7C44.6,34.7,44,35.2,41.9,34.1z"></path> <path d="M38.8,93h19.5v6.9h10.1v3.4H29.4v-5.8h9.4C38.8,97.5,38.8,92,38.8,93z"></path> <path class="st1" d="M69.4,22.2c-2.2,0-4.2,1.1-5.5,2.7l2.3,1l-1.7,3.3l-2-0.5c0,0.2,0,0.3,0,0.4c0,3.8,3.1,6.9,6.9,6.9 s6.9-3.1,6.9-6.9S73.2,22.2,69.4,22.2z"></path> <path class="st1" d="M54.6,36.8c-0.2,0-0.3-0.1-0.4-0.3c0-0.3-0.5-6.5,2.9-9.2c1.8-1.4,4.2-1.6,7.2-0.6c0.2,0.1,0.3,0.3,0.2,0.5 c-0.1,0.2-0.3,0.3-0.5,0.2c-2.8-0.9-5-0.8-6.6,0.4c-3.1,2.5-2.7,8.5-2.6,8.5C55,36.6,54.9,36.8,54.6,36.8 C54.6,36.8,54.6,36.8,54.6,36.8z"></path> <path class="st1" d="M64,28.5c0,0-0.1,0-0.1,0L62.1,28c-0.2-0.1-0.3-0.3-0.2-0.5c0.1-0.2,0.3-0.3,0.5-0.2l1.8,0.5 c0.2,0.1,0.3,0.3,0.2,0.5C64.3,28.4,64.2,28.5,64,28.5z"></path> <path class="st1" d="M64.8,26.6c0,0-0.1,0-0.1,0L62.7,26c-0.2-0.1-0.3-0.3-0.3-0.5c0.1-0.2,0.3-0.3,0.5-0.3l2.1,0.6 c0.2,0.1,0.3,0.3,0.3,0.5C65.2,26.5,65,26.6,64.8,26.6z"></path> <polygon class="st3" points="65.9,29.7 67.5,30.4 68.6,28.1 70.2,32.1 71.8,31.5 69.5,25.3 67.8,25.9 "></polygon> <path class="st1" d="M26.5,85.8c-0.1,0-0.3-0.1-0.3-0.2c-0.1-0.2,0-0.4,0.2-0.5c6.6-3.1,6.9-10.2,6.9-10.3c0-0.2,0.2-0.4,0.4-0.4 c0.2,0,0.4,0.2,0.4,0.4c0,0.1-0.3,7.7-7.4,10.9C26.6,85.8,26.5,85.8,26.5,85.8z"></path> <path class="st1" d="M25.8,84.8c-0.2,0-0.3-0.1-0.3-0.3c-0.1-0.2,0-0.4,0.2-0.5c0.3-0.1,1.2-0.4,1.5-0.8c0.1-0.2,0.4-0.2,0.5,0 c0.2,0.1,0.2,0.4,0,0.5c-0.5,0.5-1.7,0.9-1.8,1C25.9,84.8,25.9,84.8,25.8,84.8z"></path> <path class="st1" d="M26.9,86.8c-0.2,0-0.3-0.1-0.3-0.2c-0.1-0.2,0-0.4,0.2-0.5c0.7-0.3,1.6-0.7,1.8-0.9c0.1-0.2,0.3-0.2,0.5-0.1 c0.2,0.1,0.2,0.3,0.1,0.5c-0.2,0.4-1.3,0.9-2.1,1.2C27,86.8,26.9,86.8,26.9,86.8z"></path> </g> </g> </svg>