<svg xmlns="http://www.w3.org/2000/svg" xmlns:xlink="http://www.w3.org/1999/xlink" version="1.1" id="Calque_1" x="0px" y="0px" viewBox="0 0 120 120" style="enable-background:new 0 0 120 120;" xml:space="preserve"> <style type="text/css"> .st0{fill:#FFFFFF;} .st1{fill:#5E5EF7;} .st2{fill:#C6C6C5;} .st3{fill:#EDEDED;} .st4{clip-path:url(#SVGID_00000160899333218383235830000005456007265396516756_);fill:#5E5EF7;} .st5{clip-path:url(#SVGID_00000132059022845787286050000016814786586610116770_);fill:#5E5EF7;} .st6{fill:#575756;} </style> <g> <g> <g> <polygon class="st0" points="11.6,2.1 8.2,23.3 111.1,24.3 109.7,2.6 "></polygon> <path d="M111.4,24.5h-0.2L8,23.6l3.5-21.7h0.2L110,2.3v0.2L111.4,24.5z M8.5,23l102.3,1l-1.3-21.3L11.8,2.3L8.5,23z"></path> </g> <path class="st1" d="M23.4,19.1L20.8,17c-0.2-0.1-0.3-0.2-0.5-0.1l-3.2,1c-0.5,0.2-0.9-0.3-0.7-0.7l1.2-3.1c0.1-0.2,0-0.4-0.1-0.5 l-2-2.7c-0.2-0.4,0-0.9,0.5-0.9l3.4,0.2c0.2,0,0.4-0.1,0.5-0.2l2-2.7c0.2-0.4,0.9-0.2,0.9,0.2l0.9,3.2c0.1,0.2,0.2,0.3,0.4,0.4 l3.2,1.1c0.5,0.2,0.5,0.7,0.2,1l-2.8,1.9c-0.2,0.1-0.2,0.2-0.2,0.5l-0.1,3.4C24.4,19.1,23.8,19.3,23.4,19.1z"></path> <path class="st1" d="M45.5,16l-3.4,0.2c-0.2,0-0.3,0.1-0.5,0.2l-1.8,2.9c-0.2,0.4-0.9,0.3-1-0.1l-1.2-3.1 c-0.1-0.2-0.2-0.3-0.4-0.3L34,15c-0.5-0.1-0.5-0.7-0.2-0.9l2.7-2.1c0.2-0.1,0.2-0.3,0.2-0.5l-0.2-3.4c0-0.5,0.5-0.8,0.9-0.5 l2.8,1.9c0.2,0.1,0.3,0.2,0.5,0.1l3.1-1.3c0.4-0.2,0.9,0.2,0.7,0.6l-0.9,3.2c-0.1,0.2,0,0.4,0.1,0.5l2.2,2.6 C46.1,15.4,45.9,16,45.5,16z"></path> <path class="st2" d="M61.1,18.7L58,17.2c-0.2-0.1-0.4-0.1-0.5,0l-3,1.6c-0.4,0.2-0.9-0.1-0.8-0.5l0.5-3.4c0-0.2,0-0.4-0.2-0.5 l-2.5-2.3c-0.3-0.3-0.2-0.9,0.3-0.9l3.3-0.5c0.2,0,0.3-0.2,0.4-0.3l1.4-3.1c0.2-0.4,0.8-0.4,1,0l1.6,3c0.1,0.2,0.2,0.2,0.4,0.3 l3.4,0.4c0.5,0.1,0.6,0.6,0.3,0.9l-2.4,2.4c-0.2,0.2-0.2,0.3-0.2,0.5l0.6,3.3C62,18.6,61.5,18.9,61.1,18.7z"></path> <path class="st2" d="M72.8,18l0.8-3.3c0.1-0.2,0-0.4-0.2-0.5l-2.3-2.5c-0.3-0.3-0.1-0.9,0.4-0.9l3.4-0.3c0.2,0,0.3-0.2,0.5-0.3 L77,7.3c0.2-0.4,0.8-0.4,1,0.1l1.3,3.1c0.1,0.2,0.2,0.3,0.4,0.3l3.3,0.7c0.5,0.1,0.6,0.6,0.2,0.9l-2.5,2.2 c-0.2,0.2-0.2,0.3-0.2,0.5l0.4,3.4c0.1,0.5-0.5,0.8-0.9,0.5l-2.9-1.7c-0.2-0.1-0.3-0.1-0.5,0l-3.1,1.4 C73.2,18.8,72.7,18.5,72.8,18z"></path> <path class="st2" d="M101.9,17.2l-3.2-0.9c-0.2-0.1-0.4,0-0.5,0.1l-2.6,2.1c-0.4,0.3-0.9,0.1-0.9-0.4l-0.1-3.4 c0-0.2-0.1-0.3-0.2-0.5l-2.8-1.8c-0.4-0.2-0.3-0.9,0.1-1l3.2-1.1c0.2-0.1,0.3-0.2,0.3-0.4l0.9-3.3c0.2-0.5,0.7-0.5,0.9-0.2l2,2.7 c0.1,0.2,0.3,0.2,0.5,0.2l3.4-0.2c0.5,0,0.7,0.5,0.5,0.9l-1.9,2.7c-0.1,0.2-0.2,0.3-0.1,0.5l1.2,3.1 C102.7,17,102.3,17.4,101.9,17.2z"></path> <polygon points="13.8,114 36.9,118.2 53.6,114 55.8,92.2 10.4,95.3 "></polygon> <polygon points="10.7,95.9 38.7,90.4 56.1,91.9 52.2,97.4 "></polygon> <polygon points="10.7,95.9 0,68 30.3,65.5 38.7,90.4 "></polygon> <g> <polygon class="st0" points="4.6,70.8 12.6,91.3 35.3,88.8 29.4,68.9 "></polygon> <path class="st1" d="M12.2,91.9L3.8,70.3l26-2l6.1,20.9L12.2,91.9z M5.4,71.3l7.5,19.5l21.6-2.4l-5.5-18.9L5.4,71.3z"></path> </g> <path class="st3" d="M37.3,91.3l-23.4,3.3c0,0,26.7,2.9,27.7,2.7c1-0.2,12.7-4.1,12.7-4.1L37.3,91.3z"></path> <g> <g> <g> <defs> <path id="SVGID_1_" d="M37.3,91.3l-23.4,3.3c0,0,26.7,2.9,27.7,2.7c1-0.2,12.7-4.1,12.7-4.1L37.3,91.3z"></path> </defs> <clipPath id="SVGID_00000158023620318186613480000003562715306033943168_"> <use xlink:href="#SVGID_1_" style="overflow:visible;"></use> </clipPath> <path style="clip-path:url(#SVGID_00000158023620318186613480000003562715306033943168_);fill:#5E5EF7;" d="M44,100.7l-3.2,0.2 c-0.2,0-0.3,0.1-0.4,0.2l-1.6,2.8c-0.2,0.4-0.8,0.3-0.9-0.1l-1.2-3.1c-0.1-0.2-0.2-0.3-0.4-0.3l-3.1-0.7 c-0.4-0.1-0.5-0.6-0.2-0.9l2.5-2c0.2-0.1,0.2-0.3,0.2-0.5l-0.3-3.2c0-0.5,0.5-0.7,0.8-0.5l2.7,1.7c0.2,0.1,0.3,0.1,0.5,0.1 l3-1.3c0.4-0.2,0.9,0.2,0.7,0.6L42.1,97c-0.1,0.2,0,0.3,0.1,0.5l2.1,2.4C44.6,100.1,44.5,100.7,44,100.7z"></path> </g> </g> <g> <g> <defs> <path id="SVGID_00000104690536082017750500000017936796796916501390_" d="M37.3,91.3l-23.4,3.3c0,0,26.7,2.9,27.7,2.7 c1-0.2,12.7-4.1,12.7-4.1L37.3,91.3z"></path> </defs> <clipPath id="SVGID_00000011730365566070764080000009212803145741079961_"> <use xlink:href="#SVGID_00000104690536082017750500000017936796796916501390_" style="overflow:visible;"></use> </clipPath> <path style="clip-path:url(#SVGID_00000011730365566070764080000009212803145741079961_);fill:#5E5EF7;" d="M29,104.7l-1.6-2.9 c-0.1-0.2-0.2-0.2-0.4-0.3l-3.2-0.4c-0.5-0.1-0.6-0.5-0.3-0.9l2.3-2.4c0.2-0.2,0.2-0.3,0.2-0.5l-0.6-3.2 c-0.1-0.5,0.4-0.8,0.8-0.5l2.9,1.4c0.2,0.1,0.3,0.1,0.5,0l2.8-1.6c0.4-0.2,0.9,0.1,0.8,0.5l-0.5,3.2c0,0.2,0,0.3,0.2,0.5 l2.4,2.2c0.3,0.3,0.2,0.9-0.2,0.9l-3.2,0.5c-0.2,0-0.3,0.2-0.4,0.3l-1.3,3C29.8,105.1,29.3,105.1,29,104.7z"></path> </g> </g> </g> <path class="st1" d="M46.3,94.9L46,91.6c0-0.2-0.2-0.3-0.2-0.4l-2.8-1.6c-0.4-0.2-0.4-0.8,0.1-0.9l3-1.3c0.2-0.1,0.3-0.2,0.3-0.4 l0.6-3.2c0.1-0.5,0.6-0.5,0.9-0.2l2.1,2.4c0.1,0.2,0.3,0.2,0.5,0.2l3.2-0.4c0.5-0.1,0.8,0.4,0.5,0.8l-1.6,2.8 c-0.1,0.2-0.1,0.3,0,0.5l1.3,3c0.2,0.4-0.2,0.9-0.6,0.7L50,92.9c-0.2,0-0.3,0-0.5,0.2l-2.4,2.2C46.9,95.5,46.3,95.3,46.3,94.9z"></path> </g> <g> <path class="st1" d="M96.5,25.9c0,0-5.7,6.4-14.4,4.9c-8.6-1.3-12.3-14.7-12.3-14.7s13.7-0.9,13.1,9.6c0,0,4.2-13.4,16.4-13.1 C99.2,12.8,101.2,18.8,96.5,25.9z"></path> <path class="st0" d="M85.3,30.3l-0.1-1c0,0,3.4-0.4,6.6-2.3c4.1-2.5,6-6.3,5.6-11.3c-1.5-0.1-7.3,0.1-11.8,8.9l-0.9-0.5 c5.6-10.7,12.9-9.4,13.3-9.3l0.4,0.1v0.4c0.6,7.1-3,10.7-6.1,12.6C88.9,29.9,85.4,30.2,85.3,30.3z"></path> <path class="st0" d="M75.9,25.8c-4.2-2.9-4.3-7.5-4.3-7.6v-0.5l0.5-0.1c7.5-0.8,10.3,6.4,10.3,6.4l-0.9,0.4 c-0.1-0.2-2.4-6.1-8.8-5.8c0.2,1.2,0.8,4.3,3.8,6.4L75.9,25.8z"></path> <path d="M77.6,23.1l-1.8,4.5c0,0-21.1,8.9-22.2,32.7c-1.3,26.7,25,41.3,25,41.3h11.6L90,96.1c0,0,19.4-10.5,18-35 s-20-32.8-20-32.8l-1.6-4.7L77.6,23.1z"></path> <path class="st0" d="M80.2,100.2c-0.7,0-1.4-0.3-1.9-0.9l-1.6-2c-1.6-0.8-18.7-9.4-20.5-34c-1.8-24.5,18.5-34,20.8-35.1l0.9-2 c0.2-0.5,0.7-0.9,1.3-1.2s1.2-0.2,1.7,0.1l1.3,0.6l2,0.1c0.8,0,1.5,0.5,1.9,1.1l2,3.5c1.3,1,17.3,13.5,17.9,34 c0.6,19.8-15.8,29.4-18.4,30.8l0.4,2.6c0.1,0.5-0.1,1.1-0.4,1.5c-0.3,0.4-0.9,0.6-1.3,0.7l-5.8,0.2 C80.2,100.2,80.2,100.2,80.2,100.2z M79.8,25.8c-0.2,0-0.2,0-0.4,0.1c-0.3,0.1-0.5,0.3-0.6,0.6l-1,2.4L77.6,29 c-0.2,0.1-22.2,9.1-20.3,34.1c1.9,25.1,19.8,33.2,20,33.3l0.2,0.1l1.7,2.2c0.2,0.3,0.7,0.5,1.1,0.5l5.8-0.2c0.2,0,0.5-0.2,0.6-0.3 c0.2-0.2,0.2-0.5,0.2-0.7l-0.5-3.3l0.3-0.2c0.2-0.1,18.7-9.3,18.1-30c-0.6-20.8-17.4-33.2-17.6-33.3L87,31l-2-3.6 c-0.2-0.4-0.6-0.6-1-0.6l-2.4-0.2l-1.3-0.7C80.1,25.9,80,25.8,79.8,25.8z"></path> <path class="st1" d="M100.6,115.2h-9.4l-1.7-19.1c0-0.3,0.2-0.5,0.5-0.5c0.2,0,0.5,0.2,0.5,0.5l1.6,18.2h7.3 c-0.2-0.7-0.6-1.9-1.6-2.3c-0.9-0.4-2-0.1-3.3,0.9c-0.2,0.2-0.5,0.1-0.7-0.2c-0.2-0.2-0.1-0.5,0.2-0.7c1.6-1.1,3.1-1.4,4.2-0.9 c1.9,0.9,2.3,3.5,2.4,3.7V115.2z"></path> <path class="st1" d="M72.6,115.3v-0.5c0-0.1,0.1-2.4,1.6-3.3c1-0.6,2.3-0.5,3.8,0.2c0.2,0.2,0.4,0.4,0.2,0.7 c-0.2,0.2-0.4,0.4-0.7,0.2c-1.3-0.6-2.2-0.7-2.9-0.3c-0.7,0.4-1,1.3-1.1,1.9l6.7-0.2c0-13.5-6.5-15.1-6.6-15.1 c-0.2-0.1-0.5-0.3-0.4-0.6c0.1-0.2,0.3-0.5,0.5-0.4c0.3,0.1,7.6,1.6,7.5,16.5v0.5L72.6,115.3z M81,114.6L81,114.6L81,114.6z"></path> <path class="st1" d="M55.8,76.4c-0.1,0-0.2,0-0.2,0c-0.2-0.1-20.8-8.5-12.9-34.6c0.1-0.2,0.4-0.4,0.6-0.3s0.4,0.4,0.3,0.6 c-7.6,25.1,11.4,33,12.2,33.3c0.2,0.1,0.4,0.4,0.3,0.6C56.2,76.4,56.1,76.4,55.8,76.4z"></path> <path class="st1" d="M41.1,44.9L41.1,44.9c-0.3-0.1-0.5-0.3-0.5-0.5l0.5-3.2c0.1-0.2,0.3-0.5,0.5-0.4c0.2,0.1,0.5,0.3,0.4,0.5 l-0.6,3.2C41.6,44.7,41.3,44.9,41.1,44.9z"></path> <path class="st1" d="M43.8,45.8c-0.1,0-0.1,0-0.2,0c-0.2-0.1-0.4-0.4-0.3-0.6l1.1-3c0.1-0.2,0.4-0.4,0.6-0.3 c0.2,0.1,0.4,0.4,0.3,0.6l-1.1,3C44.2,45.8,44,45.8,43.8,45.8z"></path> <path class="st1" d="M54.4,38.5l-4.1-2.7c-0.2-0.2-0.4-0.4-0.4-0.6l-0.2-4.9c0-0.6-0.8-1-1.3-0.6l-3.8,3.1 c-0.2,0.2-0.5,0.2-0.7,0.2l-4.7-1.3c-0.6-0.2-1.2,0.5-0.9,1.1l1.8,4.5c0.1,0.2,0.1,0.5-0.1,0.7L37.3,42c-0.4,0.5,0.1,1.3,0.7,1.3 l1.6-0.1l0.9-3.7l6.2,2.2l-1.2,4.2l1,1.3c0.4,0.5,1.3,0.4,1.4-0.3l1.3-4.7c0.1-0.2,0.2-0.5,0.5-0.5l4.6-1.6 C54.9,39.6,55,38.9,54.4,38.5z"></path> <path class="st1" d="M99.6,91.8c-2,0-3.3-0.1-3.3-0.1c-0.3,0-0.5-0.2-0.5-0.5s0.3-0.5,0.5-0.5c0.1,0,10.4,0.9,20.2-2.4 c1.5-0.5,2.4-1.2,2.4-2.1c0.3-3.5-9.1-9.6-12.8-11.8c-0.2-0.2-0.3-0.5-0.2-0.7s0.5-0.3,0.7-0.2c1.4,0.8,13.7,7.9,13.3,12.7 c-0.2,1.3-1.2,2.4-3.1,3C110.3,91.4,103.5,91.8,99.6,91.8z"></path> <path class="st0" d="M70,62.5c-0.5,0-0.9-0.1-1.5-0.3c-0.2-0.1-0.4-0.4-0.2-0.6c0.1-0.2,0.4-0.4,0.6-0.2c0.9,0.3,1.4,0.3,1.9,0 c1.2-0.9,0.9-4.7,0.4-6.8c-0.1-0.2,0.1-0.5,0.4-0.6c0.2-0.1,0.5,0.1,0.6,0.4c0.2,0.6,1.3,6.1-0.7,7.8C71,62.4,70.5,62.5,70,62.5z"></path> <path class="st0" d="M74.7,59.5c-0.1,0-0.2,0-0.2-0.1c-0.2-0.1-0.4-0.4-0.2-0.6c0.8-1.9,1.8-2.9,2.9-2.9c0,0,0,0,0.1,0 c1.8,0,3.1,2.5,3.3,2.8c0.2,0.2,0,0.5-0.2,0.7c-0.2,0.2-0.5,0-0.7-0.2c-0.3-0.6-1.3-2.3-2.4-2.3l0,0c-0.7,0-1.4,0.9-2,2.4 C75.1,59.4,74.9,59.5,74.7,59.5z"></path> <path class="st0" d="M68.6,57.9c-0.2,0-0.3-0.1-0.4-0.2c-0.7-1.1-1.7-2.6-2.4-2.6l0,0c-0.3,0-0.9,0.4-1.7,2.1 c-0.2,0.2-0.4,0.4-0.7,0.2c-0.2-0.2-0.4-0.4-0.2-0.7c0.9-1.8,1.6-2.6,2.5-2.7c1.2-0.1,2.1,1.2,3.3,3.1c0.2,0.2,0.1,0.5-0.2,0.7 C68.9,57.9,68.8,57.9,68.6,57.9z"></path> <path class="st1" d="M86.4,63.7L86.4,63.7c-0.6-0.1-0.9-0.4-1.2-0.8c-0.1-0.2-0.2-0.2-0.3-0.4c-0.4-0.4-0.5-0.9-0.2-1.5 c0.1-0.2,0.2-0.4,0.4-0.5c-0.2-0.2-0.2-0.3-0.2-0.5c0-0.2,0.2-0.5,0.7-0.5c0.3,0,0.7,0,1.2,0.2c0.1,0,0.2,0,0.2,0 c0.5,0.1,0.6,0.2,0.8,0.5c0.4,0.2,0.7,0.5,0.9,0.9s0.3,1-0.5,1.7C87.4,63.4,86.9,63.7,86.4,63.7z M87.8,61.5 c-0.1,0.2-0.2,0.3-0.2,0.4C87.8,61.7,87.8,61.5,87.8,61.5z M86.6,60.7c0.1,0.2,0.2,0.3,0.2,0.5c0.1-0.2,0.2-0.3,0.2-0.4 C86.9,60.7,86.7,60.7,86.6,60.7C86.7,60.7,86.6,60.7,86.6,60.7z"></path> <path class="st1" d="M57.8,60.7L57.8,60.7c-0.6-0.1-0.9-0.4-1.2-0.8c-0.1-0.2-0.2-0.2-0.3-0.4c-0.4-0.4-0.5-0.9-0.2-1.5 c0.1-0.2,0.2-0.4,0.4-0.5c-0.2-0.2-0.2-0.3-0.2-0.5c0-0.2,0.2-0.5,0.7-0.5c0.3,0,0.7,0,1.2,0.2c0.1,0,0.2,0,0.2,0 c0.5,0.1,0.6,0.2,0.8,0.5c0.4,0.2,0.7,0.5,0.9,0.9c0.2,0.3,0.3,1-0.5,1.7C58.8,60.4,58.3,60.7,57.8,60.7z M59.1,58.4 c-0.1,0.2-0.2,0.3-0.2,0.4C59.1,58.6,59.2,58.5,59.1,58.4z M58,57.6c0.1,0.2,0.2,0.3,0.2,0.5c0.1-0.2,0.2-0.3,0.2-0.4 C58.3,57.7,58.1,57.6,58,57.6C58,57.6,58,57.6,58,57.6z"></path> <path class="st6" d="M90.8,39.1c1.9-1.3,7.2,7.4,8.3,11.1c1.1,3.7-1.8,4.4-2.6,2.4c-0.7-2-6.5-10.7-6.5-11.4 C90,40.5,90,39.6,90.8,39.1z"></path> <path class="st6" d="M89.5,37.4c-0.3,0.9-4.9-0.6-5.4-3.8C83.6,30.4,90.2,35.4,89.5,37.4z"></path> <path class="st0" d="M74.7,69.6c-5,0-10.4-1.9-10.7-2c-0.2-0.1-0.4-0.4-0.3-0.6c0.1-0.2,0.4-0.4,0.6-0.3c0.1,0,10.1,3.5,15.3,1 c1.3-0.7,2.3-1.6,2.7-3.1c0.1-0.2,0.4-0.4,0.6-0.3c0.2,0.1,0.4,0.4,0.3,0.6c-0.5,1.6-1.6,2.9-3.2,3.7 C78.5,69.4,76.5,69.6,74.7,69.6z"></path> <path class="st0" d="M75.4,73.3c-0.6,0-1.4-0.1-2.2-0.2c-4.6-0.6-7.3-1.5-8-2.7c-0.2-0.4-0.2-0.7-0.2-0.9c0.1-0.2,0.4-0.4,0.6-0.3 c0.2,0.1,0.4,0.3,0.3,0.5c0.1,0.2,0.6,1.3,7.3,2.2c3.5,0.5,4.9-0.2,5.3-0.9c0.6-0.9-0.1-2.3-0.1-2.3c-0.2-0.2,0-0.5,0.2-0.7 c0.2-0.2,0.5,0,0.7,0.2c0.1,0.1,0.9,1.9,0,3.4C78.7,72.8,77.3,73.3,75.4,73.3z M66,70L66,70L66,70z M66,70L66,70L66,70z"></path> </g> </g> </svg>