<svg xmlns="http://www.w3.org/2000/svg" xmlns:xlink="http://www.w3.org/1999/xlink" version="1.1" id="Calque_1" x="0px" y="0px" viewBox="0 0 120 120" style="enable-background:new 0 0 120 120;" xml:space="preserve"> <style type="text/css"> .st0{fill:#EDEDED;} .st1{fill:#5E5EF7;} .st2{fill:#FFFFFF;} .st3{fill:#575756;} .st4{fill:none;stroke:#000000;stroke-width:0.1929;stroke-linecap:round;stroke-miterlimit:10;} </style> <g> <g> <path class="st0" d="M29.5,62c-8,3.4-24.8,15.8-21.9,28.2s19.5,9.9,29.4,9.5c9.9-0.4,23.5,4.6,33.6,5s38-1.3,37.6-19.3 c-0.4-18.1-17-31.5-17-31.5s21.4-6.9,20.2-20.4c-1.3-13.5-42.9-22.1-57.4,1.9S29.5,62,29.5,62z"></path> <path d="M118.3,33.2c-0.2,0-0.4-0.2-0.4-0.4c-0.6-6.1-5.5-11.6-13.5-15.1c-2.4-1-5-1.9-7.9-2.6C80,11.4,58.8,15.1,48.6,32 c-0.1,0.2-0.4,0.3-0.6,0.2s-0.3-0.4-0.2-0.6c10.4-17.3,32-21.1,48.8-17.3c2.9,0.7,5.6,1.5,8,2.6c8.3,3.6,13.4,9.4,14,15.8 C118.7,32.9,118.6,33.2,118.3,33.2C118.3,33.2,118.3,33.2,118.3,33.2z"></path> <path d="M108.8,101.4c-0.1,0-0.2-0.1-0.3-0.1c-0.2-0.2-0.2-0.4,0-0.6c4.2-4.1,6.4-9.5,6.3-15.5c-0.1-4.5-1.1-9.1-2.8-13.7 c-0.1-0.2,0-0.5,0.3-0.6c0.2-0.1,0.5,0,0.6,0.3c1.8,4.7,2.8,9.3,2.9,14c0.2,6.2-2.1,11.8-6.5,16.1 C109,101.4,108.9,101.4,108.8,101.4z"></path> <path d="M1,92.2c-0.2,0-0.4-0.1-0.4-0.3C-2,81.1,4.8,71.8,10.9,66c0.2-0.2,0.4-0.2,0.6,0s0.2,0.4,0,0.6c-6,5.7-12.5,14.7-10.1,25 c0.1,0.2-0.1,0.5-0.3,0.5C1,92.2,1,92.2,1,92.2z"></path> <path d="M3.8,97.4c-0.9,0-1.7-0.8-1.7-1.7s0.8-1.7,1.7-1.7s1.7,0.8,1.7,1.7C5.5,96.6,4.7,97.4,3.8,97.4z M3.8,94.8 c-0.5,0-0.9,0.4-0.9,0.9c0,0.5,0.4,0.9,0.9,0.9s0.9-0.4,0.9-0.9C4.6,95.2,4.2,94.8,3.8,94.8z"></path> <circle cx="8" cy="98.2" r="0.7"></circle> <path class="st1" d="M116.8,34.4L116.8,34.4c0,1.8,1.4,3.2,3.2,3.2l0,0l0,0c-1.8,0-3.2,1.4-3.2,3.2l0,0l0,0c0-1.8-1.4-3.2-3.2-3.2 l0,0l0,0C115.3,37.7,116.8,36.2,116.8,34.4L116.8,34.4z"></path> <circle cx="110.7" cy="68.8" r="0.7"></circle> </g> <g> <polygon points="61.7,26.9 59.9,38.7 103.3,40.1 102.9,28 "></polygon> <polygon points="59.9,43.6 60.7,56.6 73.4,56.8 74.4,43.1 "></polygon> <polygon points="76.7,42.9 75.4,56.8 102.5,56.4 103.2,43.9 "></polygon> <polygon points="82.4,60.1 82.1,63.9 103.1,64.5 102.9,60.3 "></polygon> <polygon points="82.1,65.5 103.1,65.8 102.9,70.3 81.6,69 "></polygon> <polygon points="81.6,70.7 81.6,74.1 102.4,74.5 102.4,71.5 "></polygon> <g> <ellipse cx="80.9" cy="88.7" rx="4.1" ry="4.1"></ellipse> <path class="st1" d="M82.2,91.1h-2.8v-2.5c0-0.2,0.2-0.4,0.4-0.4s0.4,0.2,0.4,0.4v1.7h1.3l0.1-1.7c0-0.2,0.2-0.4,0.4-0.4 c0.2,0,0.4,0.2,0.4,0.4L82.2,91.1z"></path> <path class="st1" d="M78.8,88.3c-0.1,0-0.2-0.1-0.3-0.2c-0.1-0.2-0.1-0.4,0.1-0.6l2.5-1.9l2,1.8c0.2,0.2,0.2,0.4,0,0.6 c-0.2,0.2-0.4,0.2-0.6,0L81,86.7l-2,1.5C78.9,88.3,78.8,88.3,78.8,88.3z"></path> </g> <polygon points="54.7,106.5 92.7,106.5 93.2,100.9 57.2,100.2 "></polygon> <path class="st1" d="M56.1,79.9c-0.2,0-0.4,0-0.4,0c-0.2,0-0.4-0.2-0.4-0.4c0-0.2,0.2-0.4,0.4-0.4c0.1,0,6.9,0.4,12-5.9 c0.1-0.2,0.4-0.2,0.6-0.1s0.2,0.4,0.1,0.6C63.7,79.5,57.7,79.9,56.1,79.9z"></path> <path class="st1" d="M65.5,74.5c-0.1,0-0.2-0.1-0.3-0.2c-0.1-0.2-0.1-0.4,0.1-0.6c0,0,0.9-0.7,1.1-1.8c0.1-0.2,0.3-0.4,0.5-0.3 c0.2,0.1,0.4,0.3,0.3,0.5c-0.3,1.4-1.4,2.2-1.4,2.3C65.7,74.5,65.6,74.5,65.5,74.5z"></path> <path class="st1" d="M67,76.7c-0.2,0-0.3-0.1-0.4-0.2c-0.1-0.2,0-0.4,0.2-0.5c1.1-0.5,2.1-1.1,2.2-1.4c0.1-0.2,0.3-0.4,0.5-0.3 c0.2,0.1,0.4,0.3,0.3,0.5c-0.2,0.7-1.7,1.5-2.6,1.9C67.1,76.7,67,76.7,67,76.7z"></path> <g> <circle cx="90.6" cy="88.7" r="4.1"></circle> <path class="st1" d="M89.7,90.7c-0.1,0-0.2-0.1-0.3-0.2c-0.1-0.2-0.1-0.4,0.1-0.6l1.6-1.3l-2.1-1c-0.2-0.1-0.3-0.3-0.2-0.5 c0.1-0.2,0.3-0.3,0.5-0.2l3.3,1.6L90,90.6C89.9,90.7,89.8,90.7,89.7,90.7z"></path> </g> <g> <circle cx="71.2" cy="88.7" r="4.1"></circle> <path class="st1" d="M72.7,90.4c-0.1,0-0.1,0-0.2,0l-3.3-1.6l2.6-2.1c0.2-0.1,0.4-0.1,0.6,0.1c0.1,0.2,0.1,0.4-0.1,0.6l-1.6,1.3 l2.1,1c0.2,0.1,0.3,0.3,0.2,0.5C73,90.3,72.8,90.4,72.7,90.4z"></path> </g> <path class="st1" d="M67.4,49.7c-0.2,0-0.3-0.1-0.4-0.3c-4.4-11.8,3.9-15.1,4-15.1c0.2-0.1,0.4,0,0.5,0.2c0.1,0.2,0,0.4-0.2,0.5 c-0.3,0.1-7.6,3-3.5,14.1c0.1,0.2,0,0.4-0.2,0.5C67.5,49.7,67.5,49.7,67.4,49.7z"></path> <path class="st1" d="M68.4,52.7l-4-4c-0.2-0.2-0.2-0.4,0-0.6c0.2-0.2,0.4-0.2,0.6,0l3,3l1.1-4.1c0.1-0.2,0.3-0.3,0.5-0.3 s0.3,0.3,0.3,0.5L68.4,52.7z"></path> <path class="st1" d="M97.3,82.6c-0.1,0-0.1,0-0.1,0c-0.2-0.1-0.3-0.3-0.2-0.5c4.1-11.1-3.2-14-3.5-14.1c-0.2-0.1-0.3-0.3-0.2-0.5 c0.1-0.2,0.3-0.3,0.5-0.2c0.1,0,8.4,3.3,4,15.1C97.6,82.5,97.5,82.6,97.3,82.6z"></path> <path class="st1" d="M96.4,85.6l-1.4-5.4c-0.1-0.2,0.1-0.4,0.3-0.5c0.2-0.1,0.4,0.1,0.5,0.3l1.1,4.1l3-3c0.2-0.2,0.4-0.2,0.6,0 c0.2,0.2,0.2,0.4,0,0.6L96.4,85.6z"></path> </g> <g> <path class="st1" d="M42.7,34.6c0,0-2.3,6.4-9,8c-6.7,1.6-13.5-7-13.5-7s9.8-4.8,12.5,3.1c0,0-1-11.1,8-14.5 C40.7,24.2,43.9,28,42.7,34.6z"></path> <path class="st2" d="M35.6,41.3c-0.1,0-0.3-0.1-0.4-0.2c-0.1-0.2,0-0.4,0.2-0.5c0.4-0.2,9.1-5,4.8-13.7c-1.2,0.4-5.3,2.3-5.9,10.1 c0,0.2-0.2,0.4-0.4,0.4s-0.4-0.2-0.4-0.4c0.8-9.5,6.6-10.8,6.9-10.8l0.3-0.1l0.1,0.3c4.9,9.5-4.9,15-5,15 C35.8,41.3,35.7,41.3,35.6,41.3z"></path> <path class="st2" d="M27.5,40.6c0,0-0.1,0-0.1,0c-3.4-1.1-4.3-4.1-4.3-4.3L23,36l0.3-0.1c4.9-1.9,8.1,2.3,8.1,2.3 c0.1,0.2,0.1,0.4-0.1,0.5c-0.2,0.1-0.4,0.1-0.5-0.1c-0.1-0.2-2.8-3.6-7-2.2c0.3,0.7,1.3,2.7,3.7,3.5c0.2,0.1,0.3,0.3,0.2,0.4 C27.8,40.5,27.7,40.6,27.5,40.6z"></path> <path d="M33.6,36l-0.8,3.8c0,0-16.4,5-13.8,27.2s20.4,24.4,20.4,24.4l0.3,3.8l8.3-0.3l0.5-4.3c0,0,14.4-13.8,7.3-32.2 S39.7,39.5,39.7,39.5l-2.3-4L33.6,36z"></path> <path class="st2" d="M45.3,93h-3.6l-0.5-3.5c-2.5-0.2-17.9-2.1-20.9-21.7c-3-19.9,11.4-26.4,13.5-27.2l0.3-3.1 c0-0.2,0.2-0.4,0.4-0.4c0.2,0,0.4,0.2,0.4,0.4l-0.3,3.6l-0.3,0.1C33.7,41.4,18,47,21.1,67.6c3.1,20.6,20.3,21.1,20.4,21.1h0.3 l0.5,3.5h2.4l1.4-3.5l0.1-0.1c0.1-0.1,11.2-8.8,8.6-25.3C52.2,46.8,38,41.6,37.9,41.5l-0.2-0.1l-1.2-3.5c-0.1-0.2,0.1-0.4,0.3-0.5 c0.2-0.1,0.4,0.1,0.5,0.3l1,3.1c1.7,0.7,14.7,6.4,17.3,22.4c2.6,16.2-7.7,25.1-8.8,26L45.3,93z"></path> <path class="st1" d="M45.5,107.1H39V91.4c0-0.2,0.2-0.4,0.4-0.4c0.2,0,0.4,0.2,0.4,0.4v14.9h4.8c-0.1-0.5-0.3-1.3-0.9-1.6 c-0.5-0.3-1.2-0.3-2.1,0.2c-0.2,0.1-0.4,0-0.5-0.2s0-0.4,0.2-0.5c1.2-0.5,2.1-0.6,2.9-0.1c1.2,0.8,1.3,2.6,1.3,2.7L45.5,107.1z"></path> <path class="st1" d="M66.8,100.6h-7.6l0-0.4c0-0.1,0.5-8.8,0-11.7c0-0.2-0.1-0.3-0.3-0.4c-1.7-0.9-8,1.9-10.3,3 c-0.2,0.1-0.4,0-0.5-0.2s0-0.4,0.2-0.5c0.9-0.4,8.6-4.2,11-3c0.4,0.2,0.7,0.6,0.7,1c0.4,2.7,0.1,9.7,0,11.5h6 c-0.1-0.8-0.4-2-1.1-2.5c-0.6-0.3-1.6-0.1-2.8,0.7c-0.2,0.1-0.4,0.1-0.6-0.1c-0.1-0.2-0.1-0.4,0.1-0.6c1.5-1,2.7-1.2,3.6-0.7 c1.6,0.8,1.6,3.5,1.6,3.6L66.8,100.6L66.8,100.6z"></path> <path class="st1" d="M19.2,92.3c-0.2,0-0.4-0.2-0.4-0.4c-0.7-7.7,4.2-11.2,4.4-11.4c0.2-0.1,0.4-0.1,0.6,0.1 c0.1,0.2,0.1,0.4-0.1,0.6c-0.1,0-4.8,3.5-4.1,10.7C19.6,92.1,19.5,92.3,19.2,92.3C19.2,92.3,19.2,92.3,19.2,92.3z"></path> <path class="st1" d="M17.7,92.8c-0.2,0-0.4-0.1-0.4-0.3L17,90.1c0-0.2,0.1-0.4,0.3-0.5c0.2,0,0.4,0.1,0.5,0.3l0.4,2.4 C18.2,92.6,18,92.8,17.7,92.8C17.8,92.8,17.7,92.8,17.7,92.8z"></path> <path class="st1" d="M20.5,92.7c-0.2,0-0.4-0.2-0.4-0.4l-0.2-2.6c0-0.2,0.2-0.4,0.4-0.4c0.2,0,0.4,0.2,0.4,0.4l0.2,2.6 C20.9,92.5,20.7,92.6,20.5,92.7C20.5,92.7,20.5,92.7,20.5,92.7z"></path> <polygon class="st1" points="64.9,71.6 66.4,69.8 71.2,74.6 69.3,76.8 73.4,80.3 89.5,65.6 80.3,53.5 63.2,69.6 "></polygon> <polygon points="15.9,91.5 16.6,93.7 21.4,93.3 21.5,90.8 25.6,90.5 27.5,102.4 13.2,104.4 11.7,91.8 "></polygon> <path class="st3" d="M39.5,47.2c0,0,2.6,6.3,7.2,6.1s-2.6-5.8-3.5-6.1C42.2,46.9,39.9,46.1,39.5,47.2z"></path> <path class="st3" d="M36.6,45.1c0,0-2-1.8,0-2s3.8,1.1,3.4,1.8C39.5,45.7,38.8,46.3,36.6,45.1z"></path> <path class="st2" d="M45.6,65.8c-0.2,0-0.4-0.1-0.6-0.2c-1.7-0.8-1.9-4.8-1.9-5.3c0-0.2,0.2-0.4,0.4-0.4s0.4,0.2,0.4,0.4 c0.1,1.6,0.5,4.2,1.5,4.7c0.4,0.2,0.8,0.1,1.3-0.3c0.2-0.1,0.4-0.1,0.5,0.1c0.1,0.2,0.1,0.4-0.1,0.5 C46.6,65.6,46.1,65.8,45.6,65.8z"></path> <path class="st2" d="M38.4,65.4c-0.1,0-0.1,0-0.2-0.1C38,65.3,38,65,38.1,64.9c0.2-0.2,1.5-2.2,2.8-2.1c0.6,0,1.1,0.5,1.5,1.3 c0.1,0.2,0,0.4-0.2,0.5c-0.2,0.1-0.4,0-0.5-0.2c-0.3-0.6-0.6-0.8-0.9-0.9c-0.8,0-1.9,1.3-2.2,1.8C38.6,65.4,38.5,65.4,38.4,65.4z"></path> <path class="st2" d="M46,61.6c-0.1,0-0.2,0-0.2-0.1c-0.2-0.1-0.2-0.4-0.1-0.5c0.1-0.2,1.4-1.6,2.7-1.5c0.6,0.1,1,0.4,1.4,1.1 c0.1,0.2,0,0.4-0.2,0.5c-0.2,0.1-0.4,0-0.5-0.2c-0.2-0.4-0.5-0.7-0.8-0.7c-0.7-0.1-1.7,0.8-2,1.2C46.2,61.5,46.1,61.6,46,61.6z"></path> <path class="st1" d="M34.6,69.6c-0.3,0-0.7-0.1-1.2-0.4c-0.7-0.4-0.7-0.8-0.6-1.1c0.1-0.3,0.2-0.5,0.4-0.8 c0.1-0.1,0.2-0.3,0.5-0.4c0.1,0,0.1,0,0.2-0.1c0.3-0.2,0.6-0.3,0.8-0.3c0.4-0.1,0.5,0.1,0.6,0.2c0.1,0.1,0.1,0.3,0,0.4 c0.1,0.1,0.3,0.2,0.4,0.3c0.3,0.3,0.3,0.7,0.1,1.1c-0.1,0.1-0.1,0.2-0.2,0.4c-0.1,0.3-0.3,0.6-0.6,0.7 C34.8,69.6,34.7,69.6,34.6,69.6z M33.5,68.2c0,0.1,0.1,0.2,0.2,0.3C33.6,68.4,33.5,68.3,33.5,68.2z M33.9,67.6 c0,0.1,0.1,0.1,0.2,0.2c0-0.2,0.1-0.3,0.1-0.4c0,0-0.1,0-0.1,0C34,67.5,34,67.6,33.9,67.6z"></path> <path class="st2" d="M41.9,70.3c-0.9,0-1.9-0.2-2.9-0.6c-0.2-0.1-0.3-0.3-0.2-0.5s0.3-0.3,0.5-0.2c5.8,2.3,11.3-4,11.3-4.1 c0.1-0.2,0.4-0.2,0.5,0c0.2,0.1,0.2,0.4,0,0.5C50.9,65.8,46.9,70.3,41.9,70.3z"></path> <path class="st1" d="M54,62.3c-0.3,0-0.7-0.1-1.2-0.4c-0.7-0.4-0.7-0.8-0.6-1.1c0.1-0.3,0.2-0.5,0.4-0.8c0.1-0.1,0.2-0.3,0.5-0.4 c0.1,0,0.1,0,0.2-0.1c0.3-0.2,0.6-0.3,0.8-0.3c0.4-0.1,0.5,0.1,0.6,0.2c0.1,0.1,0.1,0.3,0,0.4c0.1,0.1,0.3,0.2,0.4,0.3 c0.3,0.3,0.3,0.7,0.1,1.1c-0.1,0.1-0.1,0.2-0.2,0.4c-0.1,0.3-0.3,0.6-0.6,0.7C54.2,62.2,54.1,62.3,54,62.3z M52.8,60.9 c0,0.1,0.1,0.2,0.2,0.3C53,61.1,52.9,61,52.8,60.9z M53.3,60.3c0,0.1,0.1,0.1,0.2,0.2c0-0.2,0.1-0.3,0.1-0.4c0,0-0.1,0-0.1,0 C53.4,60.2,53.3,60.2,53.3,60.3z"></path> <path class="st2" d="M41.4,74.3c-0.1,0-0.2,0-0.3,0c-0.6-0.1-0.8-0.4-0.9-0.7c-0.5-1.2,1.1-3.4,1.4-3.8c0.1-0.2,0.3-0.2,0.5-0.1 c0.2,0.1,0.2,0.3,0.1,0.5c-0.7,0.9-1.5,2.5-1.3,3.1c0,0.1,0.1,0.2,0.4,0.2c1.3,0.2,2.5-2.7,2.8-3.7c0.1-0.2,0.3-0.3,0.4-0.3 s0.3,0.3,0.3,0.4C44.5,70.5,43.4,74.3,41.4,74.3z"></path> <path class="st4" d="M27.6,55.3"></path> </g> </g> </svg>