<svg xmlns="http://www.w3.org/2000/svg" xmlns:xlink="http://www.w3.org/1999/xlink" version="1.1" id="Calque_1" x="0px" y="0px" viewBox="0 0 120 150" style="enable-background:new 0 0 120 150;" xml:space="preserve"> <style type="text/css"> .st0{fill:#FFFFFF;} .st1{fill:#5E5EF7;} .st2{fill:#151819;} .st3{fill:#57DBE9;} .st4{fill:#575756;} </style> <g> <polygon points="9.4,27.4 0,108.3 56.3,111.5 63,35.8 "></polygon> <g> <polygon class="st0" points="13.4,32.6 58.9,37.9 53.2,105.4 5.3,103.5 "></polygon> <path class="st1" d="M53.7,106l-49-2l0.1-0.6L13,32l46.5,5.5L53.7,106z M5.8,102.9l46.8,2l5.7-66.5l-44.5-5.3L5.8,102.9z"></path> </g> <g> <path class="st1" d="M50.7,54.2c0,0,3.3-3.8,2.1-6.5c-1.2-2.7-3.9-9.1-11.4-5.6c0,0-6.7-4.6-14.6-1.3S13.6,55.2,15.1,67.3 c1.3,12.1,0.2,21-2,20.9s-1-3.5-1-3.5s-4.3,0.9-3.6,3.2c0.6,2.3,5.5,10.6,11,5.9c5.5-4.6,9.7-14.1,9.7-14.1L50.7,54.2z"></path> <path class="st2" d="M38.7,86.9c0,0-0.3,12.1,9.7,13.5s-13.9,3.5-18.6,1.3c-4.7-2.3-8.5-8.9-8.5-8.9s9.8-5.6,9.5-10.9 C30.4,76.7,38.7,86.9,38.7,86.9z"></path> <path d="M37.2,44.1c7.6,0.1,13.6,4.4,13.5,12.1s1.6,10.1,1.9,12.1c0.2,2-3.6,1.5-4.5,2.6c-0.9,1.1,0.9,1.7,0.9,2.5 c-0.1,0.9-1,0.9-0.9,1.5c0.2,0.7,1.6,2.1,0.8,2.9c-0.9,0.8-2,1.9-1.7,2.8c0.2,0.9,1,2,0.2,4c-0.8,2-11,6.5-19.8-7.6 S22.4,44,37.2,44.1z"></path> <path class="st0" d="M46.1,70c0,0-2.5-1.5-2.5-0.4C43.6,70.7,46.1,70,46.1,70z"></path> <path class="st0" d="M47.5,69.2c0,0,2.3-0.9,2.2-0.2C49.6,69.6,47.5,69.2,47.5,69.2z"></path> <path class="st1" d="M41.5,76.8c0,0,4.5-3.2,5.3-2.3C47.5,75.4,48.1,76.6,41.5,76.8z"></path> <path class="st1" d="M41.6,77.6c0,0,4.7-0.9,5.1-0.5C47.1,77.4,48.3,78.8,41.6,77.6z"></path> <path class="st1" d="M50,58.4c0,0-5.5-3.6-5.5-1.5s1.3,3.2,1.3,3.2s-1.6,3.2,0.2,3.4C47.8,63.6,50,58.4,50,58.4z"></path> <path class="st1" d="M40.8,45c0,0-0.6,7.3-5.4,7.6c0,0,1.3-2,1.3-4c0.1-2-0.2,4.1-11,2.7c-10.8-1.4-3.2-0.4-0.5-2.2 C27.9,47.3,34.5,39.4,40.8,45z"></path> <path class="st1" d="M39.7,44.3c0,0,4.6,3.7,4.7,5.3C44.4,49.5,46.4,44.3,39.7,44.3z"></path> <path class="st1" d="M26.6,62.5l-0.7-0.5c0.2-0.2,3.7-5.4,8.4-6.4c2-0.4,3.8,0.1,5.5,1.3l-0.4,0.7c-1.6-1.1-3.2-1.4-4.9-1.1 C30.1,57.3,26.6,62.5,26.6,62.5z"></path> <path class="st1" d="M49.7,56.4c-0.6-0.9-1.3-1.5-2.3-1.7c-2.2-0.5-4.7,1.1-4.7,1.1l-0.5-0.7c0.1-0.1,2.8-1.8,5.4-1.2 c1.2,0.2,2.1,0.9,2.8,2.1L49.7,56.4z"></path> <path class="st0" d="M49.9,58.4c0,0-6.1-1.2-6,1.7C44.1,64,49.9,58.4,49.9,58.4z"></path> <path class="st1" d="M29.5,63.1c0,0,4.7-6.7,9.7-1.3C39.2,61.8,37.9,67.8,29.5,63.1z"></path> <path class="st0" d="M29.5,63.1c0,0,4-4,9.5-1.3C38.9,61.8,38.3,65.2,29.5,63.1z"></path> <g> <circle class="st3" cx="34.2" cy="62.5" r="0.8"></circle> <path d="M34.2,61.8c0.4,0,0.8,0.3,0.8,0.8c0,0.4-0.3,0.8-0.8,0.8c-0.4,0-0.8-0.3-0.8-0.8S33.8,61.8,34.2,61.8 M34.2,61.4 c-0.6,0-1.2,0.6-1.2,1.2c0,0.6,0.6,1.2,1.2,1.2s1.2-0.6,1.2-1.2C35.4,61.8,34.8,61.4,34.2,61.4L34.2,61.4z"></path> </g> <g> <circle class="st3" cx="45.6" cy="59.9" r="0.6"></circle> <path d="M45.6,59.3c0.4,0,0.6,0.3,0.6,0.6c0,0.4-0.3,0.6-0.6,0.6c-0.4,0-0.6-0.3-0.6-0.6C44.9,59.6,45.2,59.3,45.6,59.3 M45.6,58.9c-0.6,0-1.1,0.5-1.1,1.1c0,0.6,0.5,1.1,1.1,1.1c0.6,0,1.1-0.5,1.1-1.1C46.6,59.4,46.1,58.9,45.6,58.9L45.6,58.9z"></path> </g> </g> <path d="M45.5,34c-0.2,0-0.4-0.2-0.5-0.3l-5-11.6l-12.9,9.8c-0.2,0.2-0.6,0.2-0.7-0.1s-0.2-0.6,0.1-0.7l14-10.6L46,33.3 c0.1,0.2,0,0.6-0.2,0.7C45.6,34,45.6,34,45.5,34z"></path> <circle class="st1" cx="40.7" cy="20.1" r="2.4"></circle> <g> <path class="st1" d="M109.7,50.8c0,0-7.5,3.3-14.6-1.3C88,45,90,31.9,90,31.9s12.4,4.6,7.6,13.6c0,0,8.9-10.2,19.5-5 C117.2,40.4,116.5,46.4,109.7,50.8z"></path> <path class="st0" d="M103.2,51c-2.8,0-5-0.7-5-0.7l0.3-0.9c0,0,3.2,1,6.6,0.6c4.6-0.6,7.7-3.2,9.4-7.6c-1.3-0.7-6.4-2.8-13.8,3.2 l-0.6-0.8c9-7.2,15-3.2,15.3-3l0.3,0.2l-0.2,0.3c-2.2,6.4-6.9,8.3-10.3,8.7C104.5,51,103.8,51,103.2,51z"></path> <path class="st0" d="M97.6,45C97.5,45,97.5,45,97.6,45c-0.3,0-0.5-0.3-0.5-0.6s0.7-6.3-4.7-8.9c-0.4,1-1.3,4,0.3,7.1 c0.2,0.2,0,0.6-0.2,0.6c-0.2,0.2-0.6,0-0.6-0.2c-2.2-4.3-0.2-8.3-0.2-8.4l0.2-0.4l0.4,0.2c6.6,2.8,5.8,10,5.8,10.1 C98,44.8,97.8,45,97.6,45z"></path> <path d="M86.3,114.7c0,0,26.9-1.6,32.6-30.4c5.8-28.9-14.3-37.3-14.3-37.3l0.2-4.2l-10.3-0.5l-1.3,4.9c0,0-41.2,11.7-23.6,60.6 l2.4,9.9l15.5,1.1L86.3,114.7z"></path> <path class="st0" d="M80,116.5c-0.2,0-0.2,0-0.4-0.1c-1.7-0.4-2.4-1.3-2.6-1.7h-3l-0.2-0.2c-0.1-0.1-2.1-2-2.1-5.4 c0-0.7-0.5-1.9-1.2-3.4c-2-4.7-5.8-13.6-2.6-28.5C72,58.4,91.1,49.7,92.9,49c0.8-0.9,3-3.6,3.9-3.8c0.9-0.2,2.3,0.4,2.8,0.6 c0.4-0.1,1.3-0.2,2,0.4c0.6,0.6,0.7,1.9,0.1,3.6c2.8,1.7,20.3,13.7,14,36.5c-6.5,23.1-29,26.1-31.9,26.3 C83.3,113.7,81.9,116.5,80,116.5z M74.4,113.8h3.2l0.1,0.3c0,0,0.4,1.1,2,1.4c1.3,0.3,2.8-2.4,3.2-3.5l0.1-0.2h0.3 c0.2,0,24.7-1.8,31.3-25.7c6.6-23.8-13.7-35.5-13.9-35.6l-0.4-0.2l0.2-0.4c0.8-2.1,0.5-2.8,0.2-3c-0.4-0.4-1.2-0.2-1.2-0.2 l-0.2,0.1l-0.2-0.1c-0.6-0.3-1.8-0.7-2.3-0.6c-0.5,0.2-2.1,2-3.5,3.5l-0.1,0.1l-0.1,0.1c-0.2,0.1-20.3,8.5-24.4,27.7 c-3.1,14.6,0.6,23.2,2.5,27.8c0.7,1.7,1.2,2.8,1.2,3.8C72.7,111.7,73.9,113.4,74.4,113.8z"></path> <path class="st0" d="M81,79.7c-0.6,0-1.2-0.2-1.9-0.7c-0.2-0.2-0.2-0.5-0.1-0.7c0.2-0.2,0.5-0.2,0.7-0.1c0.7,0.6,1.3,0.7,1.7,0.5 c1.3-0.6,1.9-4.2,2-6.2c0-0.2,0.2-0.5,0.5-0.5c0.2,0,0.5,0.2,0.5,0.5c0,0.6-0.2,6-2.5,7.1C81.6,79.7,81.3,79.7,81,79.7z"></path> <path class="st0" d="M91.5,79.2c-0.2,0-0.4-0.2-0.5-0.3c-0.2-0.6-0.9-2.3-2-2.4c-0.6-0.1-1.3,0.3-2.1,1.3 c-0.2,0.2-0.5,0.2-0.7,0.1s-0.2-0.5-0.1-0.7c1-1.3,2-1.9,3.1-1.7c1.8,0.3,2.8,3,2.8,3.1c0.1,0.2-0.1,0.6-0.3,0.6 C91.5,79.2,91.5,79.2,91.5,79.2z"></path> <path class="st0" d="M80.5,74.1c-0.2,0-0.4-0.2-0.5-0.3c-0.2-0.4-0.7-1.5-1.5-1.7c-0.8-0.2-1.7,0.6-2.2,1.3 c-0.2,0.2-0.5,0.2-0.7,0.1c-0.2-0.2-0.2-0.5-0.1-0.7c1.1-1.3,2.1-1.7,3.2-1.6c1.5,0.3,2.2,2.2,2.2,2.3C81,73.7,80.8,74,80.5,74.1 C80.6,74.1,80.6,74.1,80.5,74.1z"></path> <path class="st1" d="M95.7,84.7c-0.2,0-0.2,0-0.4-0.1c-0.5-0.2-0.6-0.6-0.8-1c-0.1-0.2-0.2-0.3-0.2-0.5c-0.2-0.5-0.2-1,0.2-1.4 c0.2-0.2,0.3-0.3,0.5-0.4c-0.1-0.2-0.1-0.3,0-0.5c0.1-0.2,0.2-0.4,0.8-0.3c0.3,0.1,0.6,0.2,1,0.5c0.1,0,0.2,0.1,0.2,0.1 c0.4,0.2,0.6,0.4,0.6,0.6c0.3,0.3,0.6,0.6,0.6,1c0.1,0.3,0,0.9-0.9,1.5C96.7,84.5,96.1,84.7,95.7,84.7z M97.3,82.9 c-0.1,0.1-0.2,0.2-0.3,0.3C97.2,83.1,97.3,83,97.3,82.9z M96.3,81.9c0.1,0.2,0.1,0.3,0.1,0.5c0.1-0.2,0.2-0.2,0.2-0.3 C96.6,82,96.5,81.9,96.3,81.9C96.4,81.9,96.3,81.9,96.3,81.9z"></path> <path class="st0" d="M89.7,85L89.7,85c-9.3-0.9-15.7-5.4-15.9-5.7c-0.2-0.2-0.2-0.5-0.1-0.7c0.2-0.2,0.5-0.2,0.7-0.1 c0.1,0.1,6.4,4.7,15.5,5.4c0.2,0,0.5,0.2,0.5,0.6C90.2,84.9,90,85,89.7,85z"></path> <path class="st1" d="M69.8,74.9c-0.2,0-0.2,0-0.4-0.1c-0.5-0.2-0.6-0.6-0.8-1c-0.1-0.2-0.2-0.3-0.2-0.5c-0.2-0.5-0.2-1,0.2-1.4 c0.2-0.2,0.3-0.3,0.5-0.4c-0.1-0.2-0.1-0.3,0-0.5c0.1-0.2,0.3-0.4,0.8-0.3c0.3,0.1,0.6,0.2,1,0.5c0.1,0,0.2,0.1,0.2,0.1 c0.4,0.2,0.6,0.4,0.6,0.6c0.3,0.3,0.6,0.6,0.6,1c0.1,0.3,0,0.9-0.9,1.5C70.8,74.8,70.3,74.9,69.8,74.9z M71.4,73.1 c-0.1,0.1-0.2,0.2-0.3,0.3C71.3,73.3,71.4,73.2,71.4,73.1z M70.5,72.2c0.1,0.2,0.1,0.3,0.1,0.5c0.1-0.2,0.2-0.2,0.2-0.3 C70.7,72.2,70.6,72.2,70.5,72.2C70.6,72.2,70.6,72.2,70.5,72.2z"></path> <path class="st1" d="M92.6,132.4h-7l-0.1-0.4c0-0.1-0.2-2,0.9-2.9c0.7-0.6,1.7-0.6,2.9-0.2c0.2,0.1,0.4,0.4,0.3,0.6 s-0.4,0.4-0.6,0.3c-0.9-0.3-1.6-0.3-2,0.1c-0.5,0.4-0.6,1.1-0.6,1.7h4.7L85.8,115c-0.1-0.2,0.1-0.6,0.3-0.6 c0.2-0.1,0.6,0.1,0.6,0.3L92.6,132.4z"></path> <path class="st1" d="M82.4,132.2h-7.6l-0.1-0.4c0-0.1-0.2-1.8,1-2.8c0.8-0.7,2-0.9,3.7-0.4c0.2,0.1,0.4,0.3,0.3,0.6 c-0.1,0.2-0.3,0.4-0.6,0.3c-1.3-0.3-2.2-0.3-2.8,0.2c-0.5,0.4-0.6,1-0.6,1.5H81l-3.5-12.8c-0.1-0.2,0.1-0.6,0.3-0.6 s0.6,0.1,0.6,0.3L82.4,132.2z"></path> <path class="st4" d="M111.8,74c0,0-6.3-5.3-4.4-10.6c1.9-5.3,5.8,5.1,5.8,6.3C113.1,71,113.2,73.9,111.8,74z"></path> <path class="st4" d="M104.9,61.2c0,0,1.4,3,2.3,0.7s0.2-4.8-0.9-4.6C105.2,57.7,104.3,58.1,104.9,61.2z"></path> <path class="st0" d="M83.3,85c-2.3,0-4.9-0.2-7.1-0.7c-1-0.2-2.3-0.7-2.3-1.6c0-1.1,2-1.8,2.8-2.1c0.2-0.1,0.6,0.1,0.6,0.3 c0.1,0.2-0.1,0.6-0.3,0.6c-1,0.3-2.1,0.9-2.2,1.2l0,0c0,0,0.2,0.3,1.6,0.6c4.5,1.1,11.4,0.5,11.5,0.5c0.2,0,0.5,0.2,0.6,0.4 c0,0.2-0.2,0.5-0.4,0.6C87.9,84.8,85.9,85,83.3,85z"></path> <path class="st1" d="M68,104.6c-0.1,0-0.2,0-0.2-0.1c-0.5-0.2-11.6-6.5-10.4-12.1c0.8-3.6,6.2-5.9,16.8-6.9c0.2,0,0.5,0.2,0.6,0.4 c0,0.2-0.2,0.5-0.4,0.6c-12.4,1.2-15.5,4-15.9,6.1c-1,4.9,9.9,11,9.9,11c0.2,0.2,0.3,0.4,0.2,0.6C68.4,104.6,68.2,104.6,68,104.6z "></path> <path class="st1" d="M113.8,132.2c-0.6,0-1.2-0.1-2-0.4c-5-1.7-4.8-24-4.8-26.5c0-0.2,0.2-0.5,0.5-0.5s0.5,0.2,0.5,0.5 c0,0.1-0.1,6.1,0.4,12.4c0.9,10.6,2.7,12.9,3.7,13.2c1.6,0.6,2.5,0.3,2.8,0c0.2-0.3,0.2-0.6,0.1-0.8c-0.2-0.6-0.9-1.1-2.2-1.1 c-0.2,0-0.5-0.2-0.5-0.5s0.2-0.5,0.5-0.5c1.7,0,2.8,0.9,3.1,1.7c0.3,0.6,0.2,1.3-0.2,1.8C115.3,131.8,114.8,132.2,113.8,132.2z"></path> </g> </g> </svg>