<?xml version="1.0" encoding="utf-8"?>
<!-- Generator: Adobe Illustrator 26.2.1, SVG Export Plug-In . SVG Version: 6.00 Build 0)  -->
<svg version="1.1" id="Calque_1" xmlns="http://www.w3.org/2000/svg" xmlns:xlink="http://www.w3.org/1999/xlink" x="0px" y="0px"
	 viewBox="0 0 165 100" style="enable-background:new 0 0 165 100;" xml:space="preserve">
<style type="text/css">
	.st0{fill:#1F4674;}
	.st1{fill:#EA5969;}
</style>
<g>
	<path class="st0" d="M39.3,55.1c0.4,1.1,0.8,2.1,1.1,2.8c0.3,0.7,0.6,1.1,0.8,1.1s0.4-0.2,0.7-0.9c0.4-0.9,0.8-1.8,1.1-2.7
		c0.4-1.2,0.8-2.5,1.3-4c0.5-1.5,1-3.1,1.4-4.7s1-3.2,1.4-4.8s0.9-3,1.3-4.3h8.9c-1.3,4.3-2.4,8-3.4,11.1c-1,3.1-2,5.7-2.9,7.9
		c-0.7,1.8-1.6,3.5-2.7,5.2c-0.7,1.2-1.7,2.1-2.9,2.8v16.4h-8.2V64.5c-1.4-0.9-2.5-2.1-3.4-3.5c-1.1-1.8-2.1-3.7-2.8-5.7
		c-0.9-2.3-1.8-4.9-2.7-7.9c-0.9-3-1.9-6.3-3.1-9.9h8.9c0.4,1.3,0.8,2.8,1.3,4.3c0.5,1.6,0.9,3.1,1.4,4.7"/>
	<path class="st0" d="M74.1,72.4c0,1.4-0.2,2.8-0.5,4.2c-0.3,1-0.8,2-1.5,2.8c-0.7,0.7-1.5,1.3-2.4,1.6c-1,0.4-2.1,0.5-3.3,0.5
		c-1.6,0-3.2-0.2-4.7-0.8c-1.3-0.5-2.4-1.2-3.4-2.1c-0.9-0.9-1.6-2-2.1-3.2c-1.6-4.1-0.5-8.8,2.8-11.7c1.3-1.2,2.8-2.2,4.5-2.9
		c2-0.9,4.2-1.5,6.4-1.8c-0.1-0.7-0.3-1.3-0.5-1.9c-0.2-0.6-0.5-1.1-1-1.6c-0.4-0.5-1-0.8-1.5-1.1c-0.7-0.3-1.4-0.4-2.2-0.4
		c-1.3,0.1-2.5,0.4-3.6,1c-1.4,0.8-2.7,1.8-3.6,3.1c-0.4-0.3-0.8-0.8-1-1.3c-0.2-0.6-0.2-1.3,0-1.9c0.2-0.7,0.6-1.3,1.1-1.8
		c0.6-0.5,1.2-1,2-1.3c0.8-0.3,1.6-0.6,2.5-0.7c0.9-0.2,1.8-0.2,2.7-0.2c1.5,0,3,0.2,4.4,0.8c1.1,0.5,2.2,1.3,3,2.3
		c0.8,1,1.3,2.1,1.6,3.3c0.3,1.3,0.5,2.6,0.5,4L74.1,72.4z M66.3,78.5c0.5,0,1.1-0.1,1.5-0.3c0.5-0.2,0.9-0.6,1.2-1
		c0.4-0.6,0.6-1.2,0.7-1.9c0.2-1,0.3-2.1,0.2-3.1v-9.9c-1.7,0.2-3.3,0.7-4.8,1.3c-1.2,0.5-2.3,1.2-3.3,2.1c-0.8,0.8-1.4,1.7-1.8,2.7
		c-0.4,1-0.6,2.1-0.6,3.2c0,2.3,0.5,4,1.5,5.1C62.1,77.9,63.9,78.4,66.3,78.5z"/>
	<path class="st0" d="M77.4,81V43.3h4.1v22.8c1.7-0.1,3.4-0.5,5-1.1c1.3-0.5,2.4-1.3,3.2-2.3c0.9-1.1,1.5-2.3,1.8-3.6
		c0.4-1.7,0.5-3.4,0.5-5.1l0-2.5h4.1v2.6c0.1,2.7-0.4,5.3-1.4,7.8c-1,2.2-2.7,3.9-4.8,5c0.9,0.5,1.7,1.2,2.4,2
		c0.8,0.9,1.4,1.8,1.9,2.9c0.7,1.3,1.2,2.6,1.7,4c0.5,1.5,1.1,3.3,1.8,5.3h-4.1c-0.7-2.1-1.3-3.9-1.9-5.4c-0.5-1.3-1-2.5-1.6-3.6
		c-0.5-0.9-1-1.6-1.8-2.3c-0.6-0.5-1.3-1-2.1-1.3c-0.7,0.2-1.4,0.3-2.2,0.5c-0.8,0.1-1.6,0.2-2.4,0.3v11.9L77.4,81z"/>
	<path class="st0" d="M99.6,81V43.3h4.1v22.8c1.7-0.1,3.4-0.5,5-1.1c1.3-0.5,2.4-1.3,3.2-2.3c0.9-1.1,1.5-2.3,1.8-3.6
		c0.4-1.7,0.5-3.4,0.5-5.1l0-2.5h4.1v2.6c0.1,2.7-0.4,5.3-1.4,7.8c-1,2.2-2.7,3.9-4.8,5c0.9,0.5,1.7,1.2,2.4,2
		c0.8,0.9,1.4,1.8,1.9,2.9c0.7,1.3,1.2,2.6,1.7,4c0.5,1.5,1.1,3.3,1.8,5.3h-4.1c-0.7-2.1-1.3-3.9-1.9-5.4c-0.5-1.3-1-2.5-1.6-3.6
		c-0.5-0.9-1-1.6-1.8-2.3c-0.6-0.5-1.3-1-2.1-1.3c-0.7,0.2-1.4,0.3-2.2,0.5c-0.8,0.1-1.6,0.2-2.4,0.3v11.9L99.6,81z"/>
	<path class="st0" d="M139.8,72.4c0,1.4-0.2,2.8-0.5,4.2c-0.3,1-0.8,2-1.5,2.8c-0.7,0.7-1.5,1.3-2.4,1.6c-1,0.4-2.1,0.5-3.3,0.5
		c-1.6,0-3.2-0.2-4.7-0.8c-1.3-0.5-2.4-1.2-3.4-2.1c-0.9-0.9-1.6-2-2.1-3.2c-1-2.6-0.9-5.5,0.1-8.1c0.6-1.4,1.5-2.7,2.6-3.7
		c1.3-1.2,2.8-2.2,4.5-2.9c2-0.9,4.2-1.5,6.4-1.7c-0.1-0.7-0.3-1.3-0.5-1.9c-0.2-0.6-0.5-1.1-1-1.6c-0.4-0.5-1-0.8-1.6-1.1
		c-0.7-0.3-1.5-0.4-2.2-0.4c-1.3,0.1-2.5,0.4-3.6,1c-1.4,0.8-2.7,1.8-3.6,3.1c-0.4-0.4-0.8-0.8-1-1.3c-0.2-0.6-0.2-1.3,0-1.9
		c0.2-0.7,0.6-1.3,1.1-1.8c0.6-0.5,1.2-1,2-1.3c0.8-0.3,1.6-0.6,2.5-0.7c0.9-0.2,1.8-0.2,2.7-0.2c1.5,0,3,0.2,4.4,0.8
		c1.1,0.5,2.2,1.3,3,2.3c0.8,1,1.3,2.1,1.6,3.3c0.3,1.3,0.5,2.6,0.5,4L139.8,72.4z M132.1,78.5c0.5,0,1.1-0.1,1.5-0.3
		c0.5-0.2,0.9-0.6,1.2-1c0.4-0.6,0.6-1.2,0.7-1.9c0.2-1,0.3-2.1,0.2-3.1v-9.9c-1.7,0.2-3.3,0.7-4.8,1.3c-1.2,0.5-2.3,1.2-3.3,2.1
		c-0.8,0.8-1.4,1.7-1.8,2.7c-0.4,1-0.6,2.1-0.6,3.2c0,2.3,0.5,4,1.5,5.1S129.6,78.4,132.1,78.5L132.1,78.5z"/>
	<path class="st1" d="M41.2,58.9c0.2,0.1,0.4-0.2,0.7-0.9c0.4-0.9,0.8-1.8,1.1-2.7c0.4-1.2,0.8-2.5,1.3-4c0.5-1.5,1-3.1,1.4-4.7
		s1-3.2,1.4-4.8s0.9-3,1.3-4.3h8.9c-1.3,4.3-2.4,8-3.4,11.1c-1,3.1-2,5.7-2.9,7.9c-0.7,1.8-1.6,3.5-2.7,5.2
		c-0.7,1.2-1.7,2.1-2.9,2.8"/>
	<circle class="st1" cx="40.8" cy="26.5" r="8"/>
</g>
</svg>
