<svg xmlns="http://www.w3.org/2000/svg" xmlns:xlink="http://www.w3.org/1999/xlink" version="1.1" id="Calque_1" x="0px" y="0px" viewBox="0 0 160 65" style="enable-background:new 0 0 160 65;" xml:space="preserve"> <style type="text/css"> .st0{opacity:0.5;} .st1{fill:#FF4131;} .st2{fill:#00A94B;} .st3{fill:#0085F7;} .st4{fill:#FFBC00;} </style> <g> <path d="M14.2,38.1c0,0-0.1,0-0.1,0C14.2,38.1,14.2,38.1,14.2,38.1z"></path> <path d="M14.1,38.1c0,0-0.1,0-0.1,0H14.1C14.1,38.1,14.1,38.1,14.1,38.1C14.1,38.1,14.1,38.1,14.1,38.1z"></path> <path d="M14.3,38.1c0,0-0.1,0-0.1,0C14.3,38.1,14.3,38.1,14.3,38.1z"></path> <path d="M14.6,38.1c-0.1,0-0.2-0.1-0.2-0.1C14.4,38.1,14.5,38.1,14.6,38.1z"></path> <path d="M15.1,38.3c-0.2-0.1-0.3-0.1-0.4-0.2C14.8,38.2,14.9,38.3,15.1,38.3z"></path> <path d="M23.5,46.5c0,0-0.2-0.3-0.6-0.7c-0.1-0.1-0.1-0.2-0.2-0.2c-0.4-0.4-0.8-0.9-1.3-1.5c-0.1-0.1-0.1-0.1-0.2-0.2 c-0.1-0.1-0.2-0.2-0.3-0.3c-0.1-0.1-0.2-0.3-0.4-0.4c-0.1-0.1-0.2-0.3-0.4-0.4c-0.2-0.2-0.4-0.4-0.6-0.6c-0.1-0.1-0.3-0.3-0.4-0.4 c-0.1-0.1-0.1-0.1-0.2-0.2c-0.3-0.3-0.5-0.5-0.8-0.8c-0.1-0.1-0.3-0.3-0.4-0.4c-0.1-0.1-0.3-0.2-0.4-0.4c-0.1-0.1-0.2-0.2-0.3-0.3 c-0.4-0.3-0.8-0.6-1.1-0.9c-0.2-0.1-0.3-0.2-0.5-0.3c-0.2-0.2-0.5-0.3-0.7-0.4c-0.2-0.1-0.3-0.1-0.4-0.2c0,0-0.1,0-0.1,0 c-0.2-0.1-0.3-0.1-0.5-0.1h0h0c0,0-0.1,0-0.1,0c0,0-0.1,0-0.1,0c-2.4,0.5-7.7,7.1-7.7,7.1s2.9-5.6,3.2-10c0.3-4.4-9.5-4.7-9.5-4.7 s8.7-0.6,11.2-3S15,17,15,17s0.5,9.7,2.5,11.1c0.4,0.3,0.9,0.3,1.6,0.3c0.4,0,0.8,0,1.3-0.1c0.1,0,0.2,0,0.3,0 c0.2,0,0.4-0.1,0.6-0.1c0.1,0,0.2-0.1,0.4-0.1c0.1,0,0.2-0.1,0.4-0.1c0.3-0.1,0.5-0.1,0.7-0.2c0.1,0,0.2-0.1,0.3-0.1 c0.6-0.1,1.1-0.3,1.6-0.4c0.1,0,0.2-0.1,0.3-0.1c0.1,0,0.1-0.1,0.2-0.1c0.1,0,0.2-0.1,0.3-0.1c0.6-0.2,1.1-0.4,1.5-0.5 c0.1,0,0.1-0.1,0.2-0.1c0.4-0.1,0.6-0.2,0.6-0.2s-8.3,5.4-8.5,8.8C18.8,38.5,23.5,46.4,23.5,46.5z"></path> </g> <g> <path d="M113.5,38.7c0,0-0.1,0-0.1,0C113.4,38.7,113.4,38.7,113.5,38.7z"></path> <path d="M113.4,38.7c0,0-0.1,0-0.1,0H113.4C113.3,38.7,113.3,38.7,113.4,38.7C113.3,38.7,113.3,38.7,113.4,38.7z"></path> <path d="M113.6,38.8c0,0-0.1,0-0.1,0C113.5,38.8,113.5,38.8,113.6,38.8z"></path> <path d="M113.8,38.8c-0.1,0-0.2-0.1-0.2-0.1C113.7,38.8,113.7,38.8,113.8,38.8z"></path> <path d="M114.3,39c-0.2-0.1-0.3-0.1-0.4-0.2C114,38.9,114.1,38.9,114.3,39z"></path> <path d="M122.8,47.2c0,0-0.2-0.3-0.6-0.7c-0.1-0.1-0.1-0.2-0.2-0.2c-0.4-0.4-0.8-0.9-1.3-1.5c-0.1-0.1-0.1-0.1-0.2-0.2 c-0.1-0.1-0.2-0.2-0.3-0.3c-0.1-0.1-0.2-0.3-0.4-0.4c-0.1-0.1-0.2-0.3-0.4-0.4c-0.2-0.2-0.4-0.4-0.6-0.6c-0.1-0.1-0.3-0.3-0.4-0.4 c-0.1-0.1-0.1-0.1-0.2-0.2c-0.3-0.3-0.5-0.5-0.8-0.8c-0.1-0.1-0.3-0.3-0.4-0.4c-0.1-0.1-0.3-0.2-0.4-0.4c-0.1-0.1-0.2-0.2-0.3-0.3 c-0.4-0.3-0.8-0.6-1.1-0.9c-0.2-0.1-0.3-0.2-0.5-0.3c-0.2-0.2-0.5-0.3-0.7-0.4c-0.2-0.1-0.3-0.1-0.4-0.2c0,0-0.1,0-0.1,0 c-0.2-0.1-0.3-0.1-0.5-0.1h0h0c0,0-0.1,0-0.1,0c0,0-0.1,0-0.1,0c-2.4,0.5-7.7,7.1-7.7,7.1s2.9-5.6,3.2-10s-9.5-4.6-9.5-4.6 s8.7-0.6,11.2-3c2.4-2.4,4-10.5,4-10.5s0.5,9.7,2.5,11.1c0.4,0.3,0.9,0.3,1.6,0.3c0.4,0,0.8,0,1.3-0.1c0.1,0,0.2,0,0.3,0 c0.2,0,0.4-0.1,0.6-0.1c0.1,0,0.2-0.1,0.4-0.1c0.1,0,0.2-0.1,0.4-0.1c0.3-0.1,0.5-0.1,0.7-0.2c0.1,0,0.2-0.1,0.3-0.1 c0.6-0.1,1.1-0.3,1.6-0.4c0.1,0,0.2-0.1,0.3-0.1c0.1,0,0.1-0.1,0.2-0.1c0.1,0,0.2-0.1,0.3-0.1c0.6-0.2,1.1-0.4,1.5-0.5 c0.1,0,0.1-0.1,0.2-0.1c0.4-0.1,0.6-0.2,0.6-0.2s-8.3,5.4-8.5,8.8C118,39.2,122.7,47.1,122.8,47.2z"></path> </g> <g> <path d="M80.4,38.7c0,0-0.1,0-0.1,0C80.3,38.7,80.4,38.7,80.4,38.7z"></path> <path d="M80.3,38.7c0,0-0.1,0-0.1,0H80.3C80.2,38.7,80.2,38.7,80.3,38.7C80.2,38.7,80.3,38.7,80.3,38.7z"></path> <path d="M80.5,38.8c0,0-0.1,0-0.1,0C80.4,38.8,80.5,38.8,80.5,38.8z"></path> <path d="M80.7,38.8c-0.1,0-0.2-0.1-0.2-0.1C80.6,38.8,80.6,38.8,80.7,38.8z"></path> <path d="M81.2,39c-0.2-0.1-0.3-0.1-0.4-0.2C80.9,38.9,81,38.9,81.2,39z"></path> <path d="M89.7,47.2c0,0-0.2-0.3-0.6-0.7c-0.1-0.1-0.1-0.2-0.2-0.2c-0.4-0.4-0.8-0.9-1.3-1.5c-0.1-0.1-0.1-0.1-0.2-0.2 c-0.1-0.1-0.2-0.2-0.3-0.3c-0.1-0.1-0.2-0.3-0.4-0.4c-0.1-0.1-0.2-0.3-0.4-0.4c-0.2-0.2-0.4-0.4-0.6-0.6c-0.1-0.1-0.3-0.3-0.4-0.4 c-0.1-0.1-0.1-0.1-0.2-0.2c-0.3-0.3-0.5-0.5-0.8-0.8c-0.1-0.1-0.3-0.3-0.4-0.4c-0.1-0.1-0.3-0.2-0.4-0.4c-0.1-0.1-0.2-0.2-0.3-0.3 c-0.4-0.3-0.8-0.6-1.1-0.9c-0.2-0.1-0.3-0.2-0.5-0.3c-0.2-0.2-0.5-0.3-0.7-0.4c-0.2-0.1-0.3-0.1-0.4-0.2c0,0-0.1,0-0.1,0 c-0.2-0.1-0.3-0.1-0.5-0.1h0h0c0,0-0.1,0-0.1,0c0,0-0.1,0-0.1,0c-2.4,0.5-7.7,7.1-7.7,7.1s2.9-5.6,3.2-10S66,31.2,66,31.2 s8.7-0.6,11.2-3s4-10.5,4-10.5s0.5,9.7,2.5,11.1c0.4,0.3,0.9,0.3,1.6,0.3c0.4,0,0.8,0,1.3-0.1c0.1,0,0.2,0,0.3,0 c0.2,0,0.4-0.1,0.6-0.1c0.1,0,0.2-0.1,0.4-0.1c0.1,0,0.2-0.1,0.4-0.1c0.3-0.1,0.5-0.1,0.7-0.2c0.1,0,0.2-0.1,0.3-0.1 c0.6-0.1,1.1-0.3,1.6-0.4c0.1,0,0.2-0.1,0.3-0.1c0.1,0,0.1-0.1,0.2-0.1c0.1,0,0.2-0.1,0.3-0.1c0.6-0.2,1.1-0.4,1.5-0.5 c0.1,0,0.1-0.1,0.2-0.1c0.4-0.1,0.6-0.2,0.6-0.2s-8.3,5.3-8.5,8.7C84.9,39.2,89.6,47.1,89.7,47.2z"></path> </g> <g> <path d="M47.3,38.7c0,0-0.1,0-0.1,0C47.2,38.7,47.3,38.7,47.3,38.7z"></path> <path d="M47.2,38.7c0,0-0.1,0-0.1,0H47.2C47.1,38.7,47.1,38.7,47.2,38.7L47.2,38.7z"></path> <path d="M47.4,38.8c0,0-0.1,0-0.1,0C47.4,38.8,47.4,38.8,47.4,38.8z"></path> <path d="M47.6,38.8c-0.1,0-0.2-0.1-0.2-0.1C47.5,38.8,47.6,38.8,47.6,38.8z"></path> <path d="M48.1,39c-0.2-0.1-0.3-0.1-0.4-0.2C47.8,38.9,48,38.9,48.1,39z"></path> <path d="M56.6,47.2c0,0-0.2-0.3-0.6-0.7c-0.1-0.1-0.1-0.2-0.2-0.2c-0.4-0.4-0.8-0.9-1.3-1.5c-0.1-0.1-0.1-0.1-0.2-0.2 c-0.1-0.1-0.2-0.2-0.3-0.3c-0.1-0.1-0.2-0.3-0.4-0.4c-0.1-0.1-0.2-0.3-0.4-0.4c-0.2-0.2-0.4-0.4-0.6-0.6c-0.1-0.1-0.3-0.3-0.4-0.4 c-0.1-0.1-0.1-0.1-0.2-0.2c-0.3-0.3-0.5-0.5-0.8-0.8c-0.1-0.1-0.3-0.3-0.4-0.4c-0.1-0.1-0.3-0.2-0.4-0.4c-0.1-0.1-0.2-0.2-0.3-0.3 c-0.4-0.3-0.8-0.6-1.1-0.9c-0.2-0.1-0.3-0.2-0.5-0.3c-0.2-0.2-0.5-0.3-0.7-0.4c-0.2-0.1-0.3-0.1-0.4-0.2c0,0-0.1,0-0.1,0 c-0.2-0.1-0.3-0.1-0.5-0.1h0h0c0,0-0.1,0-0.1,0c0,0-0.1,0-0.1,0c-2.4,0.5-7.7,7.1-7.7,7.1s2.9-5.6,3.2-10c0.2-4.4-9.5-4.6-9.5-4.6 s8.8-0.6,11.2-3c2.4-2.4,4-10.5,4-10.5s0.5,9.7,2.5,11.1c0.4,0.3,0.9,0.3,1.6,0.3c0.4,0,0.8,0,1.3-0.1c0.1,0,0.2,0,0.3,0 c0.2,0,0.4-0.1,0.6-0.1c0.1,0,0.2-0.1,0.4-0.1c0.1,0,0.2-0.1,0.4-0.1c0.3-0.1,0.5-0.1,0.7-0.2c0.1,0,0.2-0.1,0.3-0.1 c0.6-0.1,1.1-0.3,1.6-0.4c0.1,0,0.2-0.1,0.3-0.1c0.1,0,0.1-0.1,0.2-0.1c0.1,0,0.2-0.1,0.3-0.1c0.6-0.2,1.1-0.4,1.5-0.5 c0.1,0,0.1-0.1,0.2-0.1c0.4-0.1,0.6-0.2,0.6-0.2s-8.3,5.3-8.5,8.7C51.8,39.2,56.5,47.1,56.6,47.2z"></path> </g> <g> <path d="M146.5,38.7c0,0-0.1,0-0.1,0C146.5,38.7,146.5,38.7,146.5,38.7z"></path> <path d="M146.4,38.7c0,0-0.1,0-0.1,0H146.4C146.4,38.7,146.4,38.7,146.4,38.7L146.4,38.7z"></path> <path d="M146.7,38.8c0,0-0.1,0-0.1,0C146.6,38.8,146.6,38.8,146.7,38.8z"></path> <path d="M146.9,38.8c-0.1,0-0.2-0.1-0.2-0.1C146.7,38.8,146.8,38.8,146.9,38.8z"></path> <path d="M147.4,39c-0.2-0.1-0.3-0.1-0.4-0.2C147.1,38.9,147.2,38.9,147.4,39z"></path> <path d="M155.8,47.2c0,0-0.2-0.3-0.6-0.7c-0.1-0.1-0.1-0.2-0.2-0.2c-0.4-0.4-0.8-0.9-1.3-1.5c-0.1-0.1-0.1-0.1-0.2-0.2 c-0.1-0.1-0.2-0.2-0.3-0.3c-0.1-0.1-0.2-0.3-0.4-0.4c-0.1-0.1-0.2-0.3-0.4-0.4c-0.2-0.2-0.4-0.4-0.6-0.6c-0.1-0.1-0.3-0.3-0.4-0.4 c-0.1-0.1-0.1-0.1-0.2-0.2c-0.3-0.3-0.5-0.5-0.8-0.8c-0.1-0.1-0.3-0.3-0.4-0.4c-0.1-0.1-0.3-0.2-0.4-0.4c-0.1-0.1-0.2-0.2-0.3-0.3 c-0.4-0.3-0.8-0.6-1.1-0.9c-0.2-0.1-0.3-0.2-0.5-0.3c-0.2-0.2-0.5-0.3-0.7-0.4c-0.2-0.1-0.3-0.1-0.4-0.2c0,0-0.1,0-0.1,0 c-0.2-0.1-0.3-0.1-0.5-0.1h0h0c0,0-0.1,0-0.1,0c0,0-0.1,0-0.1,0c-2.4,0.5-7.7,7.1-7.7,7.1s2.9-5.6,3.2-10s-9.5-4.6-9.5-4.6 s8.8-0.6,11.2-3c2.4-2.4,4-10.5,4-10.5s0.5,9.7,2.5,11.1c0.4,0.3,0.9,0.3,1.6,0.3c0.4,0,0.8,0,1.3-0.1c0.1,0,0.2,0,0.3,0 c0.2,0,0.4-0.1,0.6-0.1c0.1,0,0.2-0.1,0.4-0.1c0.1,0,0.2-0.1,0.4-0.1c0.3-0.1,0.5-0.1,0.7-0.2c0.1,0,0.2-0.1,0.3-0.1 c0.6-0.1,1.1-0.3,1.6-0.4c0.1,0,0.2-0.1,0.3-0.1c0.1,0,0.1-0.1,0.2-0.1c0.1,0,0.2-0.1,0.3-0.1c0.6-0.2,1.1-0.4,1.5-0.5 c0.1,0,0.1-0.1,0.2-0.1c0.4-0.1,0.6-0.2,0.6-0.2s-8.3,5.3-8.5,8.7C151.1,39.2,155.8,47.1,155.8,47.2z"></path> </g> <g class="st0"> <path class="st1" d="M44.6,59.2c-0.8,0-1.4-0.5-1.8-1.1l3.9-1.6l1.1-0.4c-0.2-0.8-0.9-1.9-1.6-2.3c-0.5-0.3-1.1-0.5-1.7-0.5 c-1.9,0-3.5,1.6-3.5,3.7c0,1.6,1,3,2.3,3.5c0.4,0.1,0.7,0.2,1.1,0.2c0.3,0,0.7,0,1-0.1c0.9-0.2,1.8-0.8,2.3-1.6l-1.3-0.9 C46,58.8,45.3,59.2,44.6,59.2z M44.3,54.7L44.3,54.7C44.3,54.7,44.3,54.7,44.3,54.7c0.7-0.1,1.3,0.3,1.5,0.8L44,56.3l-1.5,0.6 C42.5,55.8,43.3,54.9,44.3,54.7z"></path> <rect x="38.6" y="49.7" class="st2" width="1.6" height="10.8"></rect> <path class="st3" d="M36.1,53.5v0.6h-0.1c-0.4-0.5-1.1-0.8-1.9-0.8c-1.7,0-3.1,1.2-3.5,2.9c-0.1,0.3-0.1,0.5-0.1,0.8 c0,0.5,0.1,0.9,0.2,1.3c0.2,0.6,0.6,1.1,1,1.5c0.6,0.5,1.4,0.9,2.3,0.9c0.2,0,0.5,0,0.7-0.1c0.6-0.1,1-0.4,1.3-0.8h0.1 c0,0.2,0,0.4,0,0.6c0,0.3-0.1,0.6-0.1,0.8c-0.1,0.3-0.2,0.5-0.4,0.7c-0.4,0.4-0.9,0.6-1.5,0.6c-0.2,0-0.3,0-0.5-0.1 c-0.5-0.1-1-0.5-1.4-1.2l0,0l-1.4,0.6c0.2,0.4,0.5,0.8,0.8,1.2c0.1,0.1,0.3,0.3,0.5,0.4c0.6,0.4,1.3,0.6,2,0.6 c0.6,0,1.2-0.1,1.6-0.3c0.2-0.1,0.5-0.3,0.7-0.4c0.1-0.1,0.1-0.1,0.2-0.2c0.7-0.7,0.9-1.7,1-2.7V60v-6.5H36.1z M34.2,59.2 c-1.1,0-2-1-2-2.2c0-0.1,0-0.2,0-0.2c0.1-1.1,1-2,2-2c0.1,0,0.1,0,0.2,0c0.8,0.1,1.4,0.6,1.7,1.5c0.1,0.2,0.1,0.4,0.1,0.6 c0,0.1,0,0.1,0,0.2c0,0.3,0,0.5-0.1,0.8c0,0,0,0,0,0C35.9,58.6,35.2,59.2,34.2,59.2z"></path> <path class="st4" d="M30,57c0-0.5-0.1-0.9-0.3-1.4c-0.2-0.4-0.4-0.8-0.8-1.2c-0.3-0.3-0.7-0.6-1.2-0.8c-0.5-0.2-1-0.3-1.5-0.3 c-0.5,0-1,0.1-1.5,0.3c-0.4,0.2-0.8,0.5-1.2,0.8c-0.3,0.3-0.6,0.7-0.8,1.2c-0.2,0.4-0.3,0.9-0.3,1.4c0,0,0,0,0,0s0,0,0,0 c0,0.5,0.1,0.9,0.3,1.4c0.2,0.4,0.4,0.8,0.8,1.2c0.3,0.3,0.7,0.6,1.2,0.8c0.5,0.2,1,0.3,1.5,0.3c0.5,0,1-0.1,1.5-0.3 c0.4-0.2,0.8-0.5,1.2-0.8c0.3-0.3,0.6-0.7,0.8-1.2C29.9,58,30,57.5,30,57C30,57,30,57,30,57C30,57,30,57,30,57z M28.4,57.1 C28.4,57.1,28.4,57.1,28.4,57.1c0,1.2-1,2.2-2.1,2.2c-1.1,0-2-1-2.1-2.2c0,0,0,0,0,0c0,0,0,0,0-0.1s0,0,0-0.1c0,0,0,0,0,0 c0-1.2,1-2.2,2.1-2.2c1.1,0,2,1,2.1,2.2c0,0,0,0,0,0C28.4,57,28.4,57,28.4,57.1C28.4,57,28.4,57,28.4,57.1z"></path> <path class="st1" d="M22.1,57c0-0.5-0.1-0.9-0.3-1.4c-0.2-0.4-0.4-0.8-0.8-1.2c-0.3-0.3-0.7-0.6-1.2-0.8c-0.5-0.2-1-0.3-1.5-0.3 c-0.5,0-1,0.1-1.5,0.3c-0.4,0.2-0.8,0.5-1.2,0.8c-0.3,0.3-0.6,0.7-0.8,1.2c-0.2,0.4-0.3,0.9-0.3,1.4c0,0,0,0,0,0s0,0,0,0 c0,0.5,0.1,0.9,0.3,1.4c0.2,0.4,0.4,0.8,0.8,1.2c0.3,0.3,0.7,0.6,1.2,0.8c0.5,0.2,1,0.3,1.5,0.3c0.5,0,1-0.1,1.5-0.3 c0.4-0.2,0.8-0.5,1.2-0.8c0.3-0.3,0.6-0.7,0.8-1.2C22,58,22,57.5,22.1,57C22.1,57,22.1,57,22.1,57C22.1,57,22.1,57,22.1,57z M20.4,57.1C20.4,57.1,20.4,57.1,20.4,57.1c0,1.2-1,2.2-2.1,2.2c-1.1,0-2-1-2.1-2.2c0,0,0,0,0,0c0,0,0,0,0-0.1s0,0,0-0.1 c0,0,0,0,0,0c0-1.2,1-2.2,2.1-2.2c1.1,0,2,1,2.1,2.2c0,0,0,0,0,0C20.4,57,20.4,57,20.4,57.1C20.4,57,20.4,57,20.4,57.1z"></path> <path class="st3" d="M14,55c0-0.2,0-0.4-0.1-0.6h-1.5H8.6V56h3.7c-0.1,0.7-0.3,1.3-0.7,1.8c-0.7,0.8-1.7,1.3-3,1.3 c-2.3,0-4-1.7-4.1-4.1c0-0.4,0.1-1,0.2-1.4c0.6-1.7,2-2.9,4-2.9c1.1,0,2.1,0.4,2.8,1.1l1.1-1.1c-1-1-2.4-1.6-4-1.6 c-0.4,0-0.7,0-1.1,0.1c-2.7,0.5-4.7,2.8-4.7,5.6c0,2.8,2.1,5.2,4.8,5.7c0.3,0.1,0.6,0.1,1,0.1c1,0,1.9-0.2,2.7-0.6 c1.3-0.6,2.1-1.8,2.5-3.2c0.1-0.3,0.1-0.6,0.2-0.9C14,55.7,14,55.4,14,55z"></path> </g> </svg>