<svg xmlns="http://www.w3.org/2000/svg" xmlns:xlink="http://www.w3.org/1999/xlink" version="1.1" id="Calque_1" x="0px" y="0px" viewBox="0 0 174.5 94.6" style="enable-background:new 0 0 174.5 94.6;" xml:space="preserve"> <style type="text/css"> .st0{fill:#FFFFFF;stroke:#000000;stroke-width:3;stroke-miterlimit:10;} </style> <line class="st0" x1="-0.2" y1="45.2" x2="161.3" y2="45.2"></line> <g> <path d="M113.6,0.2c1.3,26.5,39.8,39.8,61.6,44.8c-8.6,2.5-17.7,5.5-25.6,9.7c-11.9,6.3-24,13.7-31.1,25.5 c-2.6,4.4-4.2,9.2-4.9,14.4c0,0-0.6,0-0.6,0c-2.8-25.2,22.3-41.9,43.4-48.8c3.1-1.1,6.2-2.1,9.6-2.9c0,0,0,4.6,0,4.6 c-17.3-5.6-36.5-14.4-47.3-29.5c-3.7-5.1-5.8-11.5-5.6-17.8H113.6L113.6,0.2z"></path> </g> </svg>