<svg xmlns="http://www.w3.org/2000/svg" xmlns:xlink="http://www.w3.org/1999/xlink" version="1.1" id="Calque_1" x="0px" y="0px" viewBox="0 0 765.4 461" style="enable-background:new 0 0 765.4 461;" xml:space="preserve"> <g> <path d="M292.4,253.3L278,192.9l21.6-9.9c5.6-2.6,10.8-3.8,15.6-3.8c4.8,0.1,9,1.3,12.7,3.7c3.6,2.4,6.5,5.9,8.6,10.6 c2.2,4.8,3.5,9.7,3.7,14.4c0.2,4.8-0.5,9.3-2.2,13.6c-1.7,4.3-4.3,8.1-7.8,11.6c-3.5,3.5-7.9,6.4-13.1,8.8L292.4,253.3z M298.4,242.2l15.7-7.2c5.5-2.5,9.7-5.8,12.5-9.7c2.9-4,4.5-8.4,4.9-13.1c0.3-4.8-0.6-9.6-2.8-14.4c-1.5-3.3-3.6-5.9-6.1-7.7 c-2.5-1.8-5.6-2.7-9-2.7c-3.5,0-7.3,1-11.6,2.9l-14.4,6.6L298.4,242.2z"></path> <path d="M376.3,215.2c-4,1.8-7.8,2.7-11.4,2.5c-3.6-0.2-6.9-1.2-9.7-3.2c-2.9-2-5.2-4.8-6.8-8.4c-2.2-4.7-3.1-9.4-2.7-14.1 c0.4-4.7,2-8.9,4.7-12.8c2.7-3.8,6.5-6.8,11.2-9c3.9-1.8,7.7-2.7,11.4-2.5c3.6,0.1,6.9,1.2,9.7,3.1c2.8,1.9,5.1,4.8,6.8,8.4 c2.2,4.7,3.1,9.4,2.7,14.1c-0.4,4.7-1.9,8.9-4.6,12.8C384.9,210,381.1,213,376.3,215.2z M373.8,208.4c3.2-1.5,5.6-3.5,7.4-6.2 c1.8-2.7,2.7-5.6,2.9-8.9c0.2-3.3-0.5-6.7-2.1-10.1c-1.7-3.7-4.1-6.1-7.2-7.2c-3.1-1.1-6.7-0.7-10.7,1.1c-3.1,1.4-5.5,3.5-7.3,6.1 c-1.8,2.6-2.8,5.6-3,8.9c-0.2,3.3,0.5,6.7,2.1,10.2c1.7,3.6,4.1,6,7.2,7.1C366.2,210.6,369.8,210.2,373.8,208.4z"></path> <path d="M424.7,193c-3.6,1.6-6.9,2.3-10.1,1.9c-3.1-0.3-5.8-1.7-8.1-4.1c-2.3-2.4-4-5.7-5-10.1l-6.1-25.6l7.6-3.5l6.2,25.7 c1,4.1,2.7,6.8,5.2,8.3c2.5,1.4,5.6,1.3,9.5-0.5c3.9-1.8,6.8-4.4,8.4-7.9c1.7-3.4,1.9-7.6,0.8-12.5l-5.8-24.2l7.6-3.5l11,45.7 l-7.3,3.3l-3.1-13.1l2.8,2.6c-0.5,4.1-1.9,7.5-4.3,10.5C431.4,189,428.3,191.3,424.7,193z"></path> <path d="M460.1,176.1l-15.3-63.9l7.6-3.5l7.1,30.3l1.6,10.8l3,9.5l3.1,13.5L460.1,176.1z M484.4,165.5c-3.6,1.6-6.9,2.4-10.1,2.3 c-3.1-0.1-6-1.1-8.5-2.9c-2.5-1.8-4.5-4.5-6.1-7.9c-1.8-3.9-2.9-7.7-3.4-11.4c-0.5-3.7-0.3-7.2,0.6-10.4c0.9-3.2,2.4-6.1,4.6-8.6 c2.2-2.5,5-4.6,8.4-6.2c3.6-1.6,7.1-2.4,10.5-2.2c3.4,0.2,6.5,1.2,9.4,3.2c2.9,2,5.1,4.8,6.9,8.6c1.6,3.6,2.6,7.1,2.8,10.7 c0.2,3.5-0.3,6.9-1.4,10.1c-1.1,3.2-2.8,6.1-5.2,8.6C490.6,161.9,487.8,164,484.4,165.5z M481,159c3.2-1.5,5.6-3.5,7.4-6.2 c1.7-2.7,2.7-5.6,2.9-8.9c0.2-3.3-0.5-6.7-2.1-10.1c-1.7-3.7-4.1-6.1-7.2-7.2c-3.1-1.1-6.7-0.7-10.7,1.1c-3.1,1.4-5.6,3.5-7.4,6.1 c-1.8,2.6-2.8,5.6-3,8.9c-0.2,3.3,0.5,6.7,2.1,10.2c1.7,3.6,4.1,6,7.2,7.1C473.5,161.3,477,160.9,481,159z"></path> <path d="M514,151.4l-15.3-63.9l7.6-3.5l15.3,64L514,151.4z"></path> <path d="M556.2,132.5c-4.1,1.9-8,2.8-11.7,2.7c-3.7-0.1-7-1.2-9.9-3.1c-2.9-2-5.2-4.8-6.9-8.5c-2.2-4.7-3.1-9.4-2.7-14 s1.8-8.8,4.4-12.6c2.6-3.8,6.1-6.7,10.6-8.8c3.8-1.7,7.4-2.5,10.9-2.4c3.5,0.2,6.6,1.2,9.4,3.2c2.8,2,5.1,4.8,6.8,8.6 c0.4,0.9,0.8,1.9,1.2,3c0.3,1,0.6,2,0.9,2.9l-36.2,16.7l-1.6-6L563,99.7l-2.2,3.3c-0.9-3.2-2.2-5.6-4.1-7.2 c-1.8-1.6-3.9-2.5-6.4-2.7c-2.4-0.2-5,0.3-7.7,1.6c-3.2,1.5-5.6,3.5-7.3,6.1c-1.7,2.6-2.6,5.5-2.7,8.8c-0.1,3.3,0.7,6.7,2.3,10.3 c1.7,3.8,4.2,6.2,7.3,7.3c3.1,1.1,6.9,0.6,11.4-1.5c2.6-1.2,4.9-2.8,6.7-4.7c1.9-1.9,3.2-3.9,4-6.1l5.7,4c-1.1,2.9-2.9,5.5-5.4,7.9 C562.2,129.1,559.4,131.1,556.2,132.5z"></path> <path d="M625.5,100.7c-4.1,1.9-7.9,2.7-11.6,2.6c-3.7-0.1-6.9-1.2-9.8-3.1c-2.9-2-5.2-4.8-6.8-8.4c-2.2-4.7-3.1-9.4-2.7-14.1 c0.4-4.7,2-8.9,4.7-12.8c2.8-3.9,6.5-6.9,11.2-9c4.1-1.9,7.9-2.7,11.5-2.5c3.6,0.2,6.9,1.4,9.9,3.7l-4.8,6.5 c-2-1.6-4.2-2.4-6.5-2.5c-2.4-0.1-4.9,0.5-7.6,1.7c-3.2,1.5-5.6,3.5-7.4,6.1c-1.8,2.6-2.8,5.6-3,8.9c-0.2,3.3,0.5,6.7,2.1,10.2 c1.7,3.6,4.1,6,7.2,7.1c3.2,1.1,6.7,0.7,10.7-1.1c2.5-1.1,4.6-2.7,6.3-4.7c1.7-2,2.9-4.3,3.5-6.9l7.3,1.4c-0.7,3.6-2.3,6.8-4.8,9.9 C632.4,96.5,629.3,98.9,625.5,100.7z"></path> <path d="M650,88.8l-15.3-63.9l7.6-3.5l15.3,63.9L650,88.8z"></path> <path d="M663.3,22.2c-1.4,0.7-2.8,0.7-4.1,0.2c-1.3-0.5-2.2-1.4-2.8-2.6c-0.7-1.5-0.8-3-0.2-4.4c0.5-1.5,1.6-2.6,3.2-3.4 c1.4-0.6,2.7-0.7,4-0.3c1.3,0.4,2.3,1.3,2.8,2.5c0.7,1.6,0.9,3.2,0.3,4.6C666.1,20.3,665,21.4,663.3,22.2z M672,78.7L661,33 l7.6-3.5l11,45.7L672,78.7z"></path> <path d="M714.1,59.9c-4.1,1.9-7.9,2.7-11.6,2.6c-3.7-0.1-6.9-1.2-9.8-3.1c-2.9-2-5.2-4.8-6.8-8.4c-2.2-4.7-3.1-9.4-2.7-14.1 c0.4-4.7,2-8.9,4.7-12.8c2.8-3.9,6.5-6.9,11.2-9c4.1-1.9,7.9-2.7,11.5-2.5c3.6,0.2,6.9,1.4,9.9,3.7l-4.8,6.5 c-2-1.6-4.2-2.4-6.5-2.5c-2.4-0.1-4.9,0.5-7.6,1.7c-3.2,1.5-5.6,3.5-7.4,6.1c-1.8,2.6-2.8,5.6-3,8.9c-0.2,3.3,0.5,6.7,2.1,10.2 c1.7,3.6,4.1,6,7.2,7.1c3.2,1.1,6.7,0.7,10.7-1.1c2.5-1.1,4.6-2.7,6.3-4.7c1.7-2,2.9-4.3,3.5-6.9l7.3,1.4c-0.7,3.6-2.3,6.8-4.8,9.9 C721,55.8,717.8,58.2,714.1,59.9z"></path> <path d="M335.9,348l-14.4-60.3l20.5-9.4c6.5-3,12.1-3.9,17-2.6c4.8,1.2,8.4,4.4,10.8,9.5c2.2,4.7,3,9.2,2.4,13.5 c-0.5,4.3-2.4,8.2-5.4,11.8c-3.1,3.6-7.3,6.6-12.6,9l-18.2,8.4l2.4-5.7l5.3,22.4L335.9,348z M338.7,322.9l-4.6-2.7l17.1-7.8 c5.6-2.6,9.4-5.9,11.4-9.8c2-3.9,1.9-8.3-0.4-13.2c-1.5-3.3-3.8-5.3-6.8-5.9c-3-0.6-6.7,0-10.9,1.9l-16.7,7.7l2.3-6L338.7,322.9z"></path> <path d="M410.7,314.2c-4,1.8-7.8,2.7-11.4,2.5c-3.6-0.2-6.9-1.2-9.7-3.2c-2.9-2-5.2-4.8-6.8-8.4c-2.2-4.7-3.1-9.4-2.7-14.1 c0.4-4.7,2-8.9,4.7-12.8c2.7-3.8,6.5-6.8,11.2-9c3.9-1.8,7.7-2.7,11.4-2.5c3.6,0.1,6.9,1.2,9.7,3.1c2.8,1.9,5.1,4.8,6.8,8.4 c2.2,4.7,3.1,9.4,2.7,14.1c-0.4,4.7-1.9,8.9-4.6,12.8C419.3,309,415.5,312,410.7,314.2z M408.2,307.3c3.2-1.5,5.6-3.5,7.4-6.2 c1.8-2.7,2.7-5.6,2.9-8.9c0.2-3.3-0.5-6.7-2.1-10.1c-1.7-3.7-4.1-6.1-7.2-7.2c-3.1-1.1-6.7-0.7-10.7,1.1c-3.1,1.4-5.5,3.5-7.3,6.1 c-1.8,2.6-2.8,5.6-3,8.9c-0.2,3.3,0.5,6.7,2.1,10.2c1.7,3.6,4.1,6,7.2,7.1C400.6,309.5,404.2,309.2,408.2,307.3z"></path> <path d="M459.1,292c-3.6,1.6-6.9,2.3-10.1,1.9c-3.1-0.3-5.8-1.7-8.1-4.1c-2.3-2.4-4-5.7-5-10.1l-6.1-25.6l7.6-3.5l6.2,25.7 c1,4.1,2.7,6.8,5.2,8.3c2.5,1.4,5.6,1.3,9.5-0.5c3.9-1.8,6.8-4.4,8.4-7.9c1.7-3.4,1.9-7.6,0.8-12.5l-5.8-24.2l7.6-3.5l11,45.7 l-7.3,3.3l-3.2-13.1l2.8,2.6c-0.5,4.1-1.9,7.5-4.3,10.5C465.8,288,462.7,290.3,459.1,292z"></path> <path d="M494.5,275.1l-11-45.7l7.3-3.3l3.2,13.2l-2.2-2.6c0.3-4.4,1.7-8,4-10.8c2.3-2.8,5.7-5.2,10.2-7.3l2,8 c-0.3,0.1-0.7,0.2-1,0.4c-0.3,0.1-0.7,0.3-1,0.5c-4.2,1.9-7.1,4.6-8.7,8.1c-1.7,3.5-1.9,7.9-0.6,13.2l5.4,22.8L494.5,275.1z"></path> <path d="M567.9,241.9c-4,1.8-7.8,2.7-11.4,2.5c-3.6-0.2-6.9-1.2-9.7-3.2c-2.9-2-5.2-4.8-6.8-8.4c-2.2-4.7-3.1-9.4-2.7-14.1 c0.4-4.7,2-8.9,4.7-12.8c2.7-3.8,6.5-6.8,11.2-9c3.9-1.8,7.7-2.7,11.4-2.5c3.6,0.1,6.9,1.2,9.7,3.1c2.8,1.9,5.1,4.8,6.8,8.4 c2.2,4.7,3.1,9.4,2.7,14.1c-0.4,4.7-1.9,8.9-4.6,12.8C576.4,236.7,572.7,239.7,567.9,241.9z M565.3,235c3.2-1.5,5.6-3.5,7.4-6.2 c1.8-2.7,2.7-5.6,2.9-8.9c0.2-3.3-0.5-6.7-2.1-10.1c-1.7-3.7-4.1-6.1-7.2-7.2c-3.1-1.1-6.7-0.7-10.7,1.1c-3.1,1.4-5.6,3.5-7.3,6.1 c-1.8,2.6-2.8,5.6-3,8.9c-0.2,3.3,0.5,6.7,2.1,10.2c1.7,3.6,4.1,6,7.2,7.1C557.8,237.2,561.3,236.9,565.3,235z"></path> <path d="M616.2,219.7c-3.6,1.6-6.9,2.3-10.1,1.9c-3.1-0.3-5.8-1.7-8.1-4.1c-2.3-2.4-4-5.7-5-10.1l-6.1-25.6l7.6-3.5l6.2,25.7 c1,4.1,2.7,6.8,5.2,8.3c2.5,1.4,5.6,1.3,9.5-0.5c3.9-1.8,6.8-4.4,8.4-7.9c1.7-3.4,1.9-7.6,0.8-12.5l-5.8-24.2l7.6-3.5l11,45.7 l-7.3,3.3l-3.1-13.1l2.8,2.6c-0.5,4.1-1.9,7.5-4.3,10.5C623,215.7,619.9,218,616.2,219.7z"></path> <path d="M662.7,197.7l-29.3-37.2l7.6-3.5l26.3,33.8l-3.8,1.7l6.7-49l7.7-3.5l-7.4,54.1L662.7,197.7z"></path> <path d="M695.8,182.5l-11-45.7l7.3-3.3l3.2,13.2l-2.2-2.6c0.3-4.4,1.7-8,4-10.8c2.3-2.8,5.7-5.2,10.2-7.2l2,8 c-0.3,0.1-0.7,0.2-1,0.4c-0.3,0.1-0.7,0.3-1,0.5c-4.2,1.9-7.1,4.6-8.7,8.1c-1.7,3.5-1.9,7.9-0.6,13.2l5.4,22.8L695.8,182.5z"></path> <path d="M719,111.4c-1.4,0.7-2.8,0.7-4.1,0.2c-1.3-0.5-2.2-1.4-2.8-2.6c-0.7-1.5-0.8-3-0.2-4.4c0.5-1.5,1.6-2.6,3.2-3.4 c1.4-0.6,2.7-0.7,4-0.3c1.3,0.4,2.3,1.3,2.8,2.5c0.7,1.6,0.9,3.2,0.3,4.6C721.8,109.5,720.7,110.6,719,111.4z M727.6,167.9 l-11-45.7l7.6-3.5l11,45.7L727.6,167.9z"></path> <path d="M749.7,157.7l-11-45.7l7.3-3.3l3.2,13.2l-2.2-2.6c0.3-4.4,1.7-8,4-10.8c2.3-2.8,5.7-5.2,10.2-7.3l2,8 c-0.3,0.1-0.7,0.2-1,0.4c-0.3,0.1-0.7,0.3-1,0.5c-4.2,1.9-7.1,4.6-8.7,8.1c-1.7,3.5-1.9,7.9-0.6,13.2l5.4,22.8L749.7,157.7z"></path> </g> <path d="M227.4,459.5c-0.5,0-1-0.1-1.5-0.2c-1.3-0.4-2.4-1.4-3-2.6L188,384.1l-40,41.6c-1.4,1.4-3.5,1.9-5.4,1.2 c-1.9-0.7-3.1-2.5-3.2-4.4l-11-232.8c-0.1-2,1.1-3.9,2.9-4.8c1.9-0.8,4-0.5,5.5,0.9l169.8,161c1.5,1.4,2,3.6,1.2,5.5 c-0.8,1.9-2.6,3.1-4.6,3.1h-57.5l36.2,69.7c1.3,2.4,0.3,5.4-2.1,6.7l-50,27C229,459.3,228.2,459.5,227.4,459.5z M189.4,370.5 c0.3,0,0.5,0,0.8,0.1c1.6,0.3,3,1.3,3.7,2.8l35.7,74.3l41.1-22.2l-37.7-72.6c-0.8-1.5-0.7-3.4,0.2-4.9c0.9-1.5,2.5-2.4,4.3-2.4h53.2 L139,201.7l9.9,208.8l37-38.4C186.7,371,188,370.5,189.4,370.5z"></path> <path d="M89.9,171c-1.3,0-2.6-0.5-3.5-1.5L42.8,126c-2-2-2-5.1,0-7.1c2-2,5.1-2,7.1,0l43.5,43.5c2,2,2,5.1,0,7.1 C92.4,170.5,91.2,171,89.9,171z"></path> <path d="M139.2,148.6c-2.6,0-4.8-2.1-5-4.7L131,82.4c-0.1-2.8,2-5.1,4.7-5.3c2.8-0.1,5.1,2,5.3,4.7l3.2,61.4c0.1,2.8-2,5.1-4.7,5.3 C139.4,148.6,139.3,148.6,139.2,148.6z"></path> <path d="M184.7,162.3c-1.1,0-2.3-0.4-3.2-1.2c-2.1-1.8-2.4-4.9-0.6-7l39.7-47c1.8-2.1,4.9-2.4,7-0.6c2.1,1.8,2.4,4.9,0.6,7l-39.7,47 C187.5,161.7,186.1,162.3,184.7,162.3z"></path> <path d="M72.3,215.8H10.8c-2.8,0-5-2.2-5-5s2.2-5,5-5h61.5c2.8,0,5,2.2,5,5S75.1,215.8,72.3,215.8z"></path> </svg>