<svg xmlns="http://www.w3.org/2000/svg" xmlns:xlink="http://www.w3.org/1999/xlink" version="1.1" id="Calque_1" x="0px" y="0px" viewBox="0 0 160 160" style="enable-background:new 0 0 160 160;" xml:space="preserve"> <style type="text/css"> .st0{fill:#5E5EF7;} .st1{fill:#FFFFFF;} .st2{fill:#131313;} .st3{fill:none;} .st4{fill:#ECECEC;} .st5{fill:#575756;} </style> <g> <g> <path class="st0" d="M110.7,95.7L98.2,58.8c-0.1-0.3,0.1-0.7,0.4-0.8s0.7,0.1,0.8,0.4L111,92.8c1.2-4.7,4.2-18,6.3-27.3 c0.1-0.3,0.4-0.5,0.7-0.5c0.3,0.1,0.5,0.4,0.5,0.7c-6.5,29.2-6.8,29.4-7.1,29.6L110.7,95.7z"></path> <g> <path class="st1" d="M108.1,42.5c0,0-10.2-16.1-2-30.7c9.2-16.2,33.4-8.3,34.4,9.1c0.4,6.6-3,12.9-8.4,16.6 c-4.2,2.8-10.9,5.7-21.2,6.5L108.1,42.5z"></path> <path d="M110.9,44.2l-2.9-1.6v-0.1c-0.1-0.2-10.2-16.4-2-31c4.8-8.5,13.3-10,19.6-8.5c7.2,1.7,14.8,7.8,15.3,17.7 c0.4,6.6-2.9,13-8.6,16.8C126.9,41.3,119.7,43.5,110.9,44.2L110.9,44.2z M108.3,42.2l2.6,1.4c8.7-0.8,15.7-2.9,21-6.5 c5.5-3.7,8.7-9.9,8.3-16.3c-0.5-9.5-7.9-15.5-14.9-17.1c-6.1-1.4-14.3,0-19,8.2C98.6,25.7,107.7,41.1,108.3,42.2z"></path> </g> <path class="st2" d="M105.9,65c0,0-27.4-2-39.1-20.5S73.4,2.4,95.7,8.8s12.5,55.5,12.5,55.5L105.9,65z"></path> <path class="st2" d="M106.3,66.9c0,0-1.8,4.4-1.2,4.6s6.4-1.5,6.4-2.1s-3-3-3-3L106.3,66.9z"></path> <path class="st0" d="M110.3,73.7c0,0-7.4-16.9,0-29.7s24-11,30.2,0s1,32.5-28.6,30.9L110.3,73.7z"></path> <path class="st0" d="M109.5,74.7l1.6,1.4c0,0-0.7,3.6-1.2,3.7s-3.3-4-3.3-4L109.5,74.7z"></path> <polygon points="112.6,93.8 110.8,92.5 92,118.2 86.1,133.2 88.8,134.7 101.3,119.9 "></polygon> <polygon points="112.6,93.8 144,105.2 124.9,134.9 101.3,119.9 "></polygon> <g> <polygon class="st1" points="112.4,98.8 137.6,107.7 123.7,129.9 103.1,117.1 "></polygon> <path class="st0" d="M123.9,130.8l-21.7-13.4L112,98l26.5,9.4L123.9,130.8z M104,116.9l19.5,12.1l13-20.9l-23.8-8.5L104,116.9z"></path> </g> <polygon class="st0" points="151.3,84.9 137.5,76.2 129.1,92.3 132.4,95.1 126.7,100 135.9,97.8 139.7,100.5 "></polygon> <polygon class="st1" points="144.2,84.8 140.8,82.8 138.4,88.8 140.2,89.8 "></polygon> <ellipse transform="matrix(0.4502 -0.8929 0.8929 0.4502 -6.601 173.1662)" class="st1" cx="137.3" cy="91.9" rx="1.4" ry="1.5"></ellipse> <g> <line class="st3" x1="129.8" y1="109" x2="125.3" y2="117"></line> <rect x="123" y="112.7" transform="matrix(0.4942 -0.8693 0.8693 0.4942 -33.712 168.0285)" width="9.1" height="0.6"></rect> </g> <g> <line class="st3" x1="128.2" y1="108.2" x2="121.9" y2="119.5"></line> <rect x="118.7" y="113.6" transform="matrix(0.4843 -0.8749 0.8749 0.4843 -35.1424 168.2051)" width="12.9" height="0.6"></rect> </g> <g> <line class="st3" x1="126.4" y1="107.4" x2="123.3" y2="113.3"></line> <rect x="121.5" y="110" transform="matrix(0.4628 -0.8865 0.8865 0.4628 -30.7555 169.9461)" width="6.7" height="0.6"></rect> </g> <path d="M110.8,94.7c-0.4,0-0.7-0.3-0.7-0.7V75.4c0-0.4,0.3-0.7,0.7-0.7s0.7,0.3,0.7,0.7v18.7C111.4,94.5,111.1,94.7,110.8,94.7z"></path> <path d="M112.5,77c-0.2,0-0.3-0.1-0.4-0.2l-3.2-2.8c-0.3-0.2-0.3-0.7-0.1-0.9c0.2-0.3,0.7-0.3,0.9-0.1l3.2,2.8 c0.3,0.2,0.3,0.7,0.1,0.9C112.9,76.9,112.7,77,112.5,77z"></path> <path class="st0" d="M105.3,66.7c-0.3,0-0.5-0.2-0.6-0.5s0.1-0.7,0.4-0.7l3.4-0.8c0.3-0.1,0.7,0.1,0.7,0.4 c0.1,0.3-0.1,0.7-0.4,0.7L105.3,66.7C105.4,66.7,105.4,66.7,105.3,66.7z"></path> <ellipse class="st4" cx="108.1" cy="150.2" rx="28.4" ry="4.8"></ellipse> </g> <g> <path class="st0" d="M17.7,61c0,0,8.5,3.2,16-2.3s4.5-19.9,4.5-19.9s-13.4,5.8-7.7,15.5c0,0-10.5-10.7-21.8-4.4 C8.7,49.9,9.8,56.5,17.7,61z"></path> <path class="st1" d="M23.8,60.8c-4.5,0-10.2-1.7-13.2-9l-0.2-0.4l0.3-0.2c0.3-0.2,6.7-5,17.1,2.4c0.2,0.2,0.3,0.5,0.1,0.7 c-0.2,0.2-0.5,0.3-0.7,0.1c-8.5-6.1-14.1-3.5-15.5-2.7c5.2,11.8,17.6,7.1,18.2,6.9c0.3-0.1,0.6,0,0.7,0.3s0,0.6-0.3,0.7 C30.3,59.7,27.4,60.8,23.8,60.8z"></path> <path class="st1" d="M30.7,52.8c-0.3,0-0.5-0.2-0.5-0.5c0-0.1-0.8-8.2,6.6-11.1l0.5-0.2l0.2,0.4c0.1,0.2,2.2,4.5-0.4,9.3 c-0.1,0.3-0.5,0.4-0.7,0.2c-0.3-0.1-0.4-0.5-0.2-0.7c1.9-3.4,1-6.7,0.5-7.9C30.6,45,31.2,52,31.2,52C31.2,52.5,31,52.8,30.7,52.8 L30.7,52.8z"></path> <path class="st0" d="M54.8,157.4H43.6l9.8-22.3c0.1-0.3,0.5-0.4,0.8-0.3c0.3,0.1,0.4,0.5,0.3,0.8l-9.1,20.6h8.1 c-0.1-0.8-0.5-2-1.4-2.6c-0.8-0.5-2-0.3-3.5,0.6c-0.3,0.2-0.7,0.1-0.8-0.2c-0.2-0.3-0.1-0.7,0.2-0.8c1.9-1,3.4-1.2,4.7-0.6 c2,1.1,2.1,4.1,2.1,4.2L54.8,157.4z"></path> <path d="M25.4,55.4l1.1,4.5c0,0-21.3,17.5-15.6,44s27,32.1,27,32.1l-2.3,7.5l15.2-0.7c0,0,25.6-25.6,20.5-49.2 c-6.8-31.7-33.1-36.2-33.1-36.2L36.3,54L25.4,55.4z"></path> <path class="st1" d="M38.9,141.1l1.2-6.6c-3.7-1.2-25.1-9.1-27.1-33.6C10.9,76,25,63.6,26.8,62.1l0.8-4.7l3.3-0.4l4.2-2.5l2.4,4.8 c2.8,0.6,23.1,5.8,30.8,31.7c8.2,27.7-19.7,48.9-20,49.1l-0.1,0.1L38.9,141.1z M28.6,58.6l-0.7,4.3L27.7,63c0,0-4,3-7.6,9.2 c-3.3,5.7-7.1,15.2-5.9,28.7c2.2,25.8,26.5,32.6,26.8,32.7l0.5,0.1l-1.1,6.1l7.2-0.7c2.1-1.6,27.1-21.8,19.4-47.7 c-4.2-14.1-12.1-21.7-18.1-25.6c-6.4-4.3-12-5.2-12-5.3l-0.3-0.1l-2.1-4.2l-3.4,2L28.6,58.6z"></path> <path class="st0" d="M41.4,157.4H30.5l6.8-21.7c0.1-0.3,0.4-0.5,0.8-0.4c0.3,0.1,0.5,0.4,0.4,0.8l-6.3,20.1h8 c-0.1-0.6-0.3-1.5-1-2c-0.9-0.7-2.4-0.7-4.4,0c-0.3,0.1-0.7-0.1-0.8-0.4c-0.1-0.3,0.1-0.7,0.4-0.8c2.4-0.8,4.3-0.8,5.5,0.2 c1.6,1.2,1.5,3.5,1.5,3.6V157.4z"></path> <path class="st0" d="M33.9,104.2c-0.5,0-1.1-0.2-2.1-0.7c-1.1-0.6-1.2-1.4-1.1-1.8c0.1-0.5,0.4-0.9,0.7-1.3 c0.1-0.2,0.3-0.6,0.8-0.7c0.1,0,0.2-0.1,0.3-0.1c0.5-0.3,1-0.5,1.3-0.5c0.7-0.1,0.9,0.2,1,0.4c0.1,0.2,0.1,0.4,0,0.6 c0.2,0.1,0.4,0.3,0.6,0.5c0.5,0.6,0.6,1.2,0.2,1.8c-0.1,0.2-0.2,0.4-0.3,0.6c-0.2,0.5-0.4,1-1,1.2 C34.3,104.1,34.1,104.2,33.9,104.2z M32,101.9c0,0.1,0.1,0.3,0.4,0.4C32.2,102.2,32.1,102,32,101.9z M32.7,100.8 c0,0.1,0.1,0.2,0.3,0.4c0-0.2,0.1-0.4,0.1-0.6c-0.1,0-0.1,0-0.1,0C32.9,100.7,32.8,100.8,32.7,100.8z"></path> <path class="st5" d="M42.2,69.5c0,0,4,9.6,11,9.3c7-0.2-4-8.9-5.4-9.3S42.9,67.9,42.2,69.5z"></path> <path class="st5" d="M37.8,66.2c0,0-3-2.8,0-3s5.8,1.6,5.1,2.8C42.2,67.2,41.3,68.1,37.8,66.2z"></path> <path class="st0" d="M69.6,95.6c-0.5,0-1.1-0.2-2.1-0.7c-1.1-0.6-1.2-1.4-1.1-1.8c0.1-0.5,0.4-0.9,0.7-1.3 c0.1-0.2,0.3-0.6,0.8-0.7c0.1,0,0.2-0.1,0.3-0.1c0.5-0.3,1-0.5,1.3-0.5c0.7-0.1,0.9,0.2,1,0.4c0.1,0.2,0.1,0.4,0,0.6 c0.2,0.1,0.4,0.3,0.6,0.5c0.5,0.6,0.6,1.2,0.2,1.8c-0.1,0.2-0.2,0.4-0.3,0.6c-0.2,0.5-0.4,1-1,1.2C69.9,95.6,69.7,95.6,69.6,95.6z M67.6,93.3c0,0.1,0.1,0.3,0.4,0.4C67.8,93.6,67.7,93.5,67.6,93.3z M68.4,92.3c0,0.1,0.1,0.2,0.3,0.4c0-0.2,0.1-0.4,0.1-0.6h-0.1 C68.5,92.2,68.5,92.2,68.4,92.3z"></path> <path class="st1" d="M39.7,106.8c-0.3,0-0.6-0.2-0.6-0.5s0.2-0.6,0.5-0.7c5.7-0.7,21.2-3.3,24-7c0.2-0.3,0.6-0.3,0.9-0.1 c0.3,0.2,0.3,0.6,0.1,0.9C60.9,104.1,40.6,106.6,39.7,106.8C39.8,106.8,39.7,106.8,39.7,106.8z"></path> <path class="st1" d="M48.8,107.8c-0.3,0-0.6-0.2-0.6-0.5s0.2-0.6,0.5-0.7c4.4-0.4,9.4-1.1,10-1.5c0.3-0.2,0.7-0.1,0.8,0.2 c0.2,0.3,0.1,0.7-0.2,0.8C58.3,106.9,50.5,107.6,48.8,107.8C48.9,107.8,48.9,107.8,48.8,107.8z"></path> <path class="st1" d="M55,99.1c-0.4,0-0.8-0.1-1.1-0.3c-1.6-0.9-2.3-3.7-2.3-4c-0.1-0.3,0.1-0.6,0.5-0.7c0.3-0.1,0.6,0.1,0.7,0.5 c0.2,0.7,0.8,2.6,1.8,3.2c0.3,0.2,0.6,0.2,0.9,0.1c0.3-0.1,0.7,0.1,0.8,0.4s-0.1,0.7-0.4,0.8C55.5,99,55.3,99.1,55,99.1z"></path> <path class="st1" d="M41.6,97c-0.1,0-0.3,0-0.4-0.1c-0.3-0.2-0.3-0.6-0.1-0.8c0.1-0.1,2.7-3.6,5.3-3.4c1.1,0.1,2,0.8,2.7,2 c0.2,0.3,0.1,0.7-0.2,0.8c-0.3,0.2-0.7,0.1-0.8-0.2c-0.5-0.9-1-1.3-1.7-1.4c-1.6-0.1-3.6,2-4.3,2.9C41.9,96.9,41.7,97,41.6,97z"></path> <path class="st1" d="M55.7,93.7c-0.1,0-0.2,0-0.3-0.1c-0.3-0.1-0.4-0.5-0.3-0.8c0.1-0.1,1.6-3.2,3.9-3.4c1.1-0.1,2.1,0.5,3.1,1.7 c0.2,0.3,0.1,0.6-0.1,0.8c-0.3,0.2-0.6,0.1-0.8-0.1c-0.7-0.9-1.3-1.3-2-1.2c-1.3,0.1-2.6,2-2.9,2.8C56.2,93.6,56,93.7,55.7,93.7z"></path> <path class="st0" d="M70.4,112.4c-0.2,0-0.3-0.1-0.5-0.2c-0.2-0.3-0.2-0.6,0.1-0.9c0.2-0.2,18.9-16.9,15.2-24.7 c-2-4.2-10.9-5.2-25.8-2.6c-0.3,0.1-0.6-0.2-0.7-0.5c-0.1-0.3,0.2-0.6,0.5-0.7c15.9-2.7,24.7-1.6,27.1,3.3 c4.1,8.6-14.7,25.4-15.5,26.1C70.7,112.4,70.6,112.4,70.4,112.4z"></path> <path class="st0" d="M13.5,157.5c-2,0-2.8-0.7-3.1-1.3c-0.3-0.7-0.1-1.6,0.7-2.2c0.8-0.7,2.2-1.1,3.5-0.3c0.3,0.2,0.4,0.6,0.2,0.8 c-0.2,0.3-0.6,0.4-0.8,0.2c-0.7-0.5-1.5-0.3-2,0.2c-0.3,0.3-0.4,0.6-0.4,0.8c0.2,0.3,1.1,0.8,3.6,0.5c5.6-0.8,6.4-21.8,6.3-29.9 c0-0.3,0.3-0.6,0.6-0.6c0.3,0,0.6,0.3,0.6,0.6c0.1,3.1,0.3,30.1-7.3,31.1C14.6,157.5,14,157.5,13.5,157.5z"></path> </g> </g> </svg>