<?xml version="1.0" encoding="utf-8"?>
<!-- Generator: Adobe Illustrator 25.2.1, SVG Export Plug-In . SVG Version: 6.00 Build 0)  -->
<svg version="1.1" id="Calque_1" xmlns="http://www.w3.org/2000/svg" xmlns:xlink="http://www.w3.org/1999/xlink" x="0px" y="0px"
	 viewBox="0 0 150 53.9" style="enable-background:new 0 0 150 53.9;" xml:space="preserve">
<style type="text/css">
	.st0{fill:#009EE2;}
</style>
<g>
	<path class="st0" d="M114.4,1c0.5,0.3,1,0.5,1.3,1.1c0.1,0.2,0.2,0.5,0.3,0.8c0,2.6,0,5.2,0,7.8c-0.1,0.2-0.2,0.3-0.4,0.4
		c-0.3,0.1-0.5,0-0.6-0.4c0-2.5,0-4.9,0-7.4c0-0.1,0-0.2-0.1-0.3c-0.1-0.5-0.6-0.8-1.1-0.8c-1.5,0-2.9,0-4.4,0c-0.7,0-1,0.6-1,1
		c0,2.4,0,4.8,0,7.2c0,0.4-0.2,0.7-0.5,0.7c-0.3,0-0.5-0.1-0.6-0.4c0-0.1,0-0.2,0-0.3c0-2.3,0-4.5,0-6.8c0-1-0.6-1.3-1.3-1.3
		c-1.4,0-2.8,0-4.2,0c-0.5,0-0.8,0.3-1,0.8c-0.1,0.1-0.1,0.2-0.1,0.3c0,2.5,0,4.9,0,7.4c-0.1,0.3-0.2,0.5-0.6,0.5
		c-0.2,0-0.4,0-0.5-0.3c0-0.1,0-0.1,0-0.2c0-2.5,0-5,0-7.5c0-0.8,0.6-1.7,1.5-1.9c0.1,0,0.1,0,0.1-0.1c0.1,0,0.1,0,0.2,0
		c0.1,0.1,0.2,0.1,0.3,0.1c1.5,0,3,0,4.4,0c0.1,0,0.2,0,0.3-0.1c0,0,0.1,0,0.1,0c0.4,0.1,0.8,0.3,1,0.5c0.1,0.1,0.2,0.1,0.3,0
		c0.3-0.3,0.6-0.5,1-0.5c1.7,0,3.4,0,5.1,0C114.3,1,114.3,1,114.4,1C114.4,1,114.4,1,114.4,1z"/>
	<path class="st0" d="M77.5,10.6c-0.2,0.2-0.4,0.3-0.7,0.3c-1.9,0-3.8,0-5.7,0c-1.1,0-2.1-1-2.1-2.1c0-2,0-4,0-6
		c0-0.9,0.6-1.7,1.5-1.9c0.1,0,0.1,0,0.1-0.1c0,0,0.1,0,0.1,0C70.9,1.1,71,1,71.1,1c2,0,4,0,6,0c0.2,0,0.2,0.2,0.3,0.3
		c0,0.1,0,0.2,0,0.4C77.3,2,77.1,2,76.8,2c-1.8,0-3.6,0-5.4,0c-0.9,0-1.3,0.5-1.3,1.3c0.1,0.6,0,1.2,0,1.8c0,0.2,0.1,0.3,0.3,0.3
		c2.1,0,4.2,0,6.3,0c0.2,0,0.5,0,0.6,0.3c0.1,0.2,0.1,0.4,0,0.6c-0.1,0.2-0.3,0.2-0.5,0.2c-2.1,0-4.2,0-6.2,0c-0.3,0-0.4,0-0.4,0.4
		c0,0.7,0,1.4,0,2.1c0,0.7,0.4,1.1,1.1,1.1c1.9,0,3.7,0,5.6,0c0.3,0,0.5,0,0.7,0.3C77.5,10.3,77.5,10.5,77.5,10.6z"/>
	<path class="st0" d="M59.1,6c-0.1,0.3-0.4,0.4-0.7,0.4c-2.1,0-4.1,0-6.2,0c-0.3,0-0.3,0.1-0.3,0.3c0,0.7,0,1.4,0,2.1
		c0,0.6,0.4,1,1,1c1.9,0,3.7,0,5.6,0c0.3,0,0.5,0,0.7,0.3c0.1,0.1,0,0.3,0,0.4c-0.2,0.2-0.4,0.3-0.6,0.3c-1.9,0-3.8,0-5.7,0
		c-1.1,0-2-0.9-2-2c0-2,0-4.1,0-6.1c0-0.6,0.4-1.4,1.4-1.7c0.1,0,0.1,0,0.1-0.1c0.1,0,0.1,0,0.2,0C52.7,1.1,52.8,1,52.9,1
		c2,0,4,0,6,0c0.3,0.1,0.3,0.4,0.3,0.6C59.2,1.9,58.9,2,58.7,2c-1.4,0-2.7,0-4.1,0C54,2,53.5,2,53,2c-0.6,0-1.1,0.4-1.1,1
		c0,0.7,0,1.3,0,2c0,0.3,0.1,0.3,0.3,0.3c2.1,0,4.1,0,6.2,0c0.3,0,0.5,0.1,0.7,0.3C59.1,5.8,59.1,5.9,59.1,6z"/>
	<path class="st0" d="M125.9,1c0.3,0.1,0.3,0.4,0.3,0.6c-0.1,0.3-0.3,0.4-0.6,0.4c-1.9,0-3.8,0-5.6,0c-0.7,0-1.1,0.4-1.1,1.1
		c0,0.6,0,1.3,0,1.9c0,0.2,0.1,0.3,0.3,0.3c2.1,0,4.2,0,6.3,0c0.3,0,0.5,0.1,0.6,0.4c0.1,0.2,0,0.5-0.2,0.6
		c-0.1,0.1-0.2,0.1-0.4,0.1c-2.1,0-4.2,0-6.2,0c-0.3,0-0.4,0.1-0.4,0.3c0,0.7,0,1.4,0,2c0,0.6,0.4,1.1,1.1,1.1c1.8,0,3.7,0,5.5,0
		c0.3,0,0.6,0.1,0.7,0.4c0,0.1,0,0.3,0,0.4c-0.2,0.2-0.4,0.3-0.6,0.3c-1.9,0-3.8,0-5.7,0c-1.1,0-2-0.9-2-1.9c0-2.1,0-4.2,0-6.3
		c0-0.6,0.6-1.4,1.5-1.6c0.1,0,0.2,0,0.2-0.1c0,0,0.1,0,0.1,0c0.1,0.1,0.2,0.1,0.3,0.1C121.8,1,123.9,1,125.9,1z"/>
	<path class="st0" d="M91.1,9.1c0.1,0.5,0.4,0.8,1,0.8c1.8,0,3.7,0,5.5,0c0.1,0,0.3,0,0.4,0.1c0.3,0.1,0.4,0.3,0.4,0.5
		c0,0.3-0.2,0.5-0.5,0.5c-0.6,0-1.2,0-1.8,0c-1.2,0-2.5-0.1-3.7,0c-1.3,0.1-2.3-0.6-2.4-2.1c0.1-0.1,0-0.3,0-0.4c0-1.9,0-3.9,0-5.8
		c0.2-0.8,0.6-1.3,1.4-1.6c0.1,0,0.2,0,0.2-0.1c0.1,0,0.1,0,0.2,0C91.9,1.1,92,1,92.2,1c2,0,3.9,0,5.9,0c0.1,0,0.2,0.1,0.2,0.2
		c0,0.2,0,0.3,0,0.5C98.2,2,98,2,97.7,2c-1.8,0-3.7,0-5.5,0c-0.6,0-1,0.3-1.1,0.8c-0.1,0.7,0,1.4,0,2.1c0,0.1-0.1,0.3,0.1,0.5
		c1.1,0,2.3,0,3.4,0c1,0,2.1,0,3.1,0c0.4,0,0.6,0.2,0.6,0.5c0,0.3-0.3,0.5-0.6,0.5c-2,0-4.1,0-6.1,0c-0.1,0-0.3,0-0.4,0
		C90.9,6.7,91,6.9,91,7.1C91,7.8,90.9,8.4,91.1,9.1z"/>
	<path class="st0" d="M135.5,1c0.3,0.2,0.7,0.3,1,0.6c0.3,0.3,0.5,0.7,0.6,1.1c0,0.1,0,0.3,0.1,0.4c-0.1,0.1,0,0.3,0,0.4
		c0,2.2,0,4.5,0,6.7c0,0.5-0.2,0.7-0.6,0.7c-0.3,0-0.4-0.2-0.4-0.5c0-2.3,0-4.6,0-6.9c0-0.5,0-0.9-0.4-1.3c-0.2-0.2-0.5-0.3-0.8-0.3
		c-1.7,0-3.4,0-5.1,0c-0.7,0-1.1,0.5-1.1,1.1c0,2.4,0,4.8,0,7.1c0,0.5-0.2,0.7-0.6,0.7c-0.3,0-0.4-0.2-0.4-0.4c0-2.5,0-5.1,0-7.6
		c0-0.8,0.6-1.5,1.4-1.8c0.1,0,0.1,0,0.1-0.1c0.1,0,0.1,0,0.2,0c0.1,0.1,0.2,0.1,0.3,0.1c1.8,0,3.6,0,5.5,0
		C135.2,1,135.3,1.1,135.5,1C135.4,1,135.4,1,135.5,1z"/>
	<path class="st0" d="M27.8,1c0.3,0.1,0.3,0.3,0.3,0.6c0,1.1,0,2.3,0,3.4c0,0.2,0.1,0.3,0.3,0.3c2,0,4,0,5.9,0
		c0.3,0,0.3-0.1,0.3-0.3c0-1.1,0-2.2,0-3.4c0-0.3,0-0.5,0.3-0.7c0.1,0,0.3,0,0.4,0c0.2,0,0.2,0.2,0.3,0.3c0,3.1,0,6.1,0,9.2
		c-0.1,0.4-0.4,0.4-0.8,0.4c-0.3-0.1-0.3-0.4-0.3-0.6c0.1-0.2,0.1-0.4,0-0.5c0.1-1.1,0-2.1,0-3.2c0-0.1,0-0.2-0.2-0.2
		c-2.1,0-4.2,0-6.3,0c-0.1,0-0.1,0.1-0.1,0.2c0,1.3,0,2.6,0,3.9c-0.1,0.3-0.3,0.4-0.7,0.4c-0.2,0-0.3-0.1-0.4-0.3
		c0-0.2-0.1-0.4,0-0.5c0.1-2.8,0-5.7,0-8.5c0-0.3,0.1-0.5,0.3-0.6c0,0,0.1,0,0.1,0C27.5,1.1,27.7,1,27.8,1z"/>
	<path class="st0" d="M87.3,2.8c-0.2-0.5-0.5-0.8-1-0.8c-1.8,0-3.5,0-5.3,0c-0.6,0-1,0.5-1,1.1c0,2.4,0,4.8,0,7.1c0,0.1,0,0.3,0,0.4
		c-0.1,0.3-0.3,0.3-0.6,0.3c-0.3,0-0.3-0.2-0.4-0.4c0-0.1,0-0.3,0-0.4c0-2.5,0-5,0-7.4c0-0.6,0.5-1.4,1.4-1.7c0.1,0,0.2,0,0.2-0.1
		c0.1,0,0.1,0,0.2,0C80.8,1.1,80.9,1,81,1c1.8,0,3.6,0,5.4,0c0.1,0,0.2,0,0.3-0.1c0,0,0.1,0,0.1,0c0.5,0.2,1,0.4,1.3,0.9
		c0.2,0.4,0.4,0.8,0.4,1.2c0,2.2,0,4.4,0,6.7c0,0.2-0.1,0.5,0,0.7c0,0.2-0.1,0.4-0.4,0.5c-0.3,0.1-0.6,0-0.6-0.4c0-2.5,0-4.9,0-7.4
		C87.4,3.1,87.4,2.9,87.3,2.8z"/>
	<path class="st0" d="M60.9,1c0.2,0.1,0.3,0.3,0.4,0.5c1,2.4,1.9,4.8,2.9,7.1c0,0.1,0,0.2,0.2,0.3c0.9-2.2,1.7-4.4,2.6-6.7
		c0.1-0.3,0.2-0.5,0.3-0.8c0.1-0.2,0.2-0.4,0.4-0.5c0.1,0,0.3,0,0.4,0c0.1,0.1,0.2,0.2,0.3,0.3c0,0.1,0,0.3,0,0.4
		c-0.9,2.2-1.8,4.5-2.7,6.7c-0.3,0.7-0.6,1.5-0.9,2.2c-0.1,0.3-0.3,0.4-0.6,0.3c-0.3,0-0.4-0.2-0.5-0.4c-0.5-1.3-1-2.5-1.5-3.8
		c-0.6-1.4-1.1-2.8-1.7-4.2c-0.1-0.3-0.3-0.6-0.3-0.9c0-0.1,0-0.3,0-0.4c0-0.1,0.2-0.2,0.2-0.3C60.6,1,60.8,1,60.9,1z"/>
	<path class="st0" d="M45.9,1c0.3,0.1,0.3,0.4,0.3,0.6C46.1,1.9,45.9,2,45.6,2c-1.1,0-2.2,0-3.2,0C42,2,42,2.1,42,2.4
		c0,2.6,0,5.3,0,7.9c0,0.5-0.2,0.7-0.6,0.7c-0.3,0-0.4-0.1-0.4-0.4c0-0.1,0-0.3,0-0.4c0-2.6,0-5.2,0-7.8c0-0.3,0-0.4-0.3-0.4
		c-1.1,0-2.1,0-3.2,0c-0.3,0-0.6,0-0.6-0.3c-0.1-0.3,0-0.6,0.3-0.7c0,0,0.1,0,0.1,0C37.2,1.1,37.3,1,37.4,1C40.2,1,43,1,45.9,1z"/>
	<path class="st0" d="M147,1.8C146.8,2,146.5,2,146.2,2c-1,0-2,0-2.9,0c-0.3,0-0.4,0.1-0.4,0.4c0,2.6,0,5.2,0,7.8
		c0,0.5-0.2,0.7-0.6,0.7c-0.3,0-0.4-0.2-0.4-0.4c0-0.1,0-0.3,0-0.4c0-2.6,0-5.2,0-7.8c0-0.3-0.1-0.4-0.4-0.4c-1.1,0-2.2,0-3.3,0
		c-0.2,0-0.4,0-0.5-0.3c0-0.2,0-0.3,0-0.5c0-0.1,0.2-0.2,0.2-0.3c0,0,0.1,0,0.1,0c0.1,0.1,0.2,0.1,0.3,0.1c2.8,0,5.7,0,8.5,0
		c0.2,0,0.2,0.2,0.3,0.2C147,1.5,147,1.6,147,1.8z"/>
	<path class="st0" d="M109.1,1c-0.4,0-0.7,0.2-1,0.5c-0.1,0.1-0.2,0.1-0.3,0c-0.3-0.3-0.7-0.4-1-0.5C107.5,1,108.3,1,109.1,1
		C109.1,1,109.1,1,109.1,1z"/>
	<path class="st0" d="M146.7,1c-2.8,0-5.7,0-8.5,0c-0.1,0-0.2,0-0.3-0.1C140.9,1,143.8,1,146.7,1C146.7,1,146.7,1,146.7,1z"/>
	<path class="st0" d="M45.9,1c-2.8,0-5.6,0-8.5,0c-0.1,0-0.2,0.1-0.3-0.1C40,1,42.9,1,45.9,1C45.8,1,45.8,1,45.9,1z"/>
	<path class="st0" d="M25.7,1C25.7,1,25.7,1,25.7,1C25.3,1,25,1,24.6,1c-2.1,0-4.2,0-6.4,0c0,0,0,0,0-0.1C20.7,1,23.2,1,25.7,1z"/>
	<path class="st0" d="M58.9,1c-2,0-4,0-6,0c-0.1,0-0.2,0-0.3-0.1C54.7,1,56.8,1,58.9,1C58.9,1,58.9,1,58.9,1z"/>
	<path class="st0" d="M77.2,1c-2,0-4,0-6,0c-0.1,0-0.2,0-0.3-0.1C72.9,1,75,1,77.2,1C77.2,1,77.2,1,77.2,1z"/>
	<path class="st0" d="M125.9,1c-2,0-4,0-6,0c-0.1,0-0.2,0-0.3-0.1C121.6,1,123.7,1,125.9,1C125.9,1,125.9,1,125.9,1z"/>
	<path class="st0" d="M98.1,1c-2,0-3.9,0-5.9,0C92,1,91.9,1.1,91.8,1C93.9,1,96,1,98.1,1C98.1,1,98.1,1,98.1,1C98.1,1,98.1,1,98.1,1
		z"/>
	<path class="st0" d="M135.4,1c-0.1,0.1-0.2,0.1-0.3,0.1c-1.8,0-3.6,0-5.5,0c-0.1,0-0.2,0-0.3-0.1C131.4,1,133.4,1,135.4,1z"/>
	<path class="st0" d="M86.7,1C86.6,1.1,86.5,1,86.4,1c-1.8,0-3.6,0-5.4,0c-0.1,0-0.2,0-0.3-0.1C82.7,1,84.7,1,86.7,1z"/>
	<path class="st0" d="M109.1,1C109.1,1,109.1,1,109.1,1c1.8-0.1,3.5-0.1,5.2-0.1c0,0.1-0.1,0.1-0.2,0.1C112.5,1,110.8,1,109.1,1z"/>
	<path class="st0" d="M106.7,1c-0.1,0.1-0.2,0.1-0.3,0.1c-1.5,0-3,0-4.4,0c-0.1,0-0.2,0-0.3-0.1C103.3,1,105,1,106.7,1z"/>
	<path class="st0" d="M146.7,1C146.7,1,146.7,1,146.7,1c0.3-0.1,0.4,0,0.3,0.2C146.9,1.2,146.9,1.1,146.7,1z"/>
	<path class="st0" d="M27.8,1c-0.1,0-0.3,0.1-0.4-0.1C27.5,1,27.7,1,27.8,1C27.8,1,27.8,1,27.8,1z"/>
	<path class="st0" d="M35.3,1c-0.1,0-0.3,0-0.4,0c0,0,0,0,0-0.1C35.1,1,35.2,1,35.3,1C35.3,1,35.3,1,35.3,1z"/>
	<path class="st0" d="M5.4,1C5.4,1,5.4,1,5.4,1C5.5,1,5.6,1,5.8,1c0,0,0,0,0,0.1C5.7,1,5.5,1,5.4,1z"/>
	<path class="st0" d="M14.5,1C14.5,1,14.5,1,14.5,1C14.3,1,14.2,1,14.1,1c0,0,0,0,0-0.1C14.2,1,14.3,1,14.5,1z"/>
	<path class="st0" d="M68.5,32.1c0.1-1.1,0.4-2,1.2-2.8c0.8-0.8,1.7-1.2,2.8-1.2c2.1,0,3.7,1.3,4.1,3.2c0.4,1.6-0.4,3.4-1.8,4.3
		c-1.1,0.7-2.2,0.8-3.4,0.5c-0.9-0.3-1.6-0.9-2.2-1.7c-0.4-0.5-0.6-1.1-0.7-1.8C68.5,32.5,68.5,32.3,68.5,32.1z"/>
	<path class="st0" d="M62.9,38.9c-1.2,0.1-2.2-0.3-3-1.2c-1.7-1.8-1.6-4.4,0.2-6.1c1.4-1.2,3.6-1.3,5.1-0.1c1,0.7,1.5,1.7,1.6,2.9
		c0,0.3,0,0.5,0,0.8c-0.1,0.5-0.2,1-0.4,1.4c0,0.1-0.1,0.2-0.1,0.2c-0.6,1-1.5,1.6-2.6,1.9c-0.1,0-0.3,0-0.4,0.1
		C63.2,38.8,63.1,38.8,62.9,38.9z"/>
	<path class="st0" d="M73.9,42.8c-0.2,0.6-0.4,1.2-0.8,1.8c-0.7,0.9-1.7,1.5-2.9,1.6c-2,0.2-3.3-0.8-4.1-2.4
		c-0.2-0.3-0.3-0.7-0.3-1.1c0-0.1,0-0.2,0-0.3c0-0.6,0.1-1.2,0.3-1.8c0.3-0.6,0.7-1.2,1.2-1.6c0.8-0.7,1.8-1,2.8-0.9
		c0.9,0.1,1.6,0.4,2.3,0.8c0.1,0.1,0.2,0.1,0.2,0.2c0.5,0.6,1,1.2,1.2,1.9c0.1,0.5,0.2,0.9,0.2,1.4C73.9,42.6,73.9,42.7,73.9,42.8z"
		/>
	<path class="st0" d="M51.2,42.3c0-1.2,0.4-2.3,1.2-3.1c1.1-1.1,2.4-1.4,3.8-1c1.8,0.4,2.7,1.6,3.1,3.4c0,0.1,0,0.3,0.1,0.4
		c-0.1,0.5-0.1,1-0.2,1.5c-0.6,1.6-2.1,2.9-4.3,2.8c-1.4-0.1-2.4-0.8-3.1-2c-0.3-0.4-0.5-0.9-0.5-1.4C51.2,42.6,51.2,42.5,51.2,42.3
		z"/>
	<path class="st0" d="M48,45.8c2.1,0.2,3.6,1.6,3.8,3.7c0.1,1.1-0.2,2.1-1,3c-0.6,0.7-1.5,1.3-2.4,1.4c-1.1,0.2-2.2,0-3.2-0.8
		c-0.8-0.6-1.3-1.4-1.5-2.3c0-0.2,0-0.3-0.1-0.5c0-0.3,0-0.6,0-0.9c0.2-1.9,1.8-3.5,3.7-3.7C47.6,45.8,47.8,45.8,48,45.8z"/>
	<path class="st0" d="M51.5,27.1c0-0.2,0.1-0.4,0.1-0.6c0-0.1,0.1-0.3,0.1-0.4c0.6-1.6,1.8-2.5,3.5-2.7c0.2,0,0.3,0,0.5,0
		c2,0.2,3.4,1.5,3.8,3.2c0.4,1.6-0.2,3.1-1.6,4.2c-1.3,1-2.8,1.1-4.2,0.4c-1.3-0.6-2.1-1.7-2.3-3.2c0-0.1,0-0.3-0.1-0.4c0,0,0,0,0,0
		C51.5,27.4,51.5,27.3,51.5,27.1z"/>
	<path class="st0" d="M65.7,20.7c1.9,0.2,3.1,1.2,3.7,3c0.1,0.2,0.1,0.4,0.1,0.6c0,0.3,0,0.6,0,0.8c-0.2,1.5-0.9,2.6-2.3,3.3
		c-1.5,0.7-3.5,0.6-4.7-0.8c0-0.1-0.1-0.2-0.2-0.2c-1-1.2-1.3-2.6-0.8-4c0.6-1.6,1.7-2.5,3.4-2.7C65.2,20.8,65.4,20.8,65.7,20.7z"/>
	<path class="st0" d="M72.4,19.3c0.7-0.7,1.5-1.1,2.5-1.2c0.2,0,0.4,0,0.6,0c1.9,0.2,3.3,1.4,3.7,3.2c0.4,1.7-0.2,3.1-1.6,4.2
		c-1.3,1-3.6,1.1-4.9-0.1c-0.9-0.8-1.4-1.6-1.6-2.8c0-0.1,0-0.3,0-0.4c0,0,0,0,0-0.1c0,0,0,0,0,0c0.1-0.1,0.1-0.3,0-0.4
		c0.1-0.9,0.4-1.6,1-2.3C72.3,19.5,72.3,19.4,72.4,19.3z"/>
	<path class="st0" d="M17.3,1.3C17.6,1.2,17.9,1,18.2,1c2.1,0,4.2,0,6.4,0c0.4,0,0.7,0,1.1,0c0.4,0.4,0.4,0.7-0.1,1
		c-2.3,0-4.6,0-6.9,0c-0.1,0-0.2,0-0.3,0.1c-0.5,0.1-0.7,0.3-0.9,0.8c-0.1,0.1-0.1,0.2-0.1,0.3c0,1.9,0,3.7,0,5.6
		c0,0.1,0,0.2,0.1,0.3c0.1,0.5,0.5,0.8,1,0.8c0.8,0,1.7,0,2.5,0c0.8,0,1.7,0,2.5,0c0.8,0,1.2-0.4,1.2-1.2c0-0.6,0-1.3,0-1.9
		c0-0.3-0.1-0.4-0.4-0.3c-1.7,0-3.5,0-5.2,0c-0.3,0-0.5-0.1-0.6-0.4c0-0.1,0-0.2,0-0.4c0.1-0.3,0.3-0.3,0.5-0.3c0.7,0,1.4,0,2.2,0
		c1.3,0,2.5,0,3.8,0c0.6,0,0.8,0.2,0.8,0.7c0,0.9,0,1.7,0,2.6c0,1.4-1.1,2.3-2.3,2.3c-1.8,0-3.6,0-5.3,0c-0.7,0-1.4-0.6-1.7-1.3
		c-0.1-0.3-0.2-0.7-0.2-1c0-1.8,0-3.6,0-5.4c0-0.7,0.2-1.3,0.7-1.7C17.2,1.5,17.3,1.4,17.3,1.3z"/>
	<path class="st0" d="M5.4,1c0.1,0,0.3,0,0.4,0c0.3,0.1,0.3,0.4,0.3,0.7c0,2.3,0,4.6,0,6.9c0,0.7,0.4,1.3,1.3,1.3c1.9,0,3.7,0,5.6,0
		c0.3,0,0.5,0.1,0.7,0.3c0,0.1,0,0.2,0,0.4C13.6,10.8,13.3,11,13,11c-2,0-4,0-6,0c-0.3,0-0.7,0-1-0.2c-0.8-0.5-1.1-1.2-1-2.1
		c0-2.3,0-4.6,0-6.9C5.1,1.4,5.1,1.1,5.4,1z"/>
	<path class="st0" d="M111.7,29.4c0.5,0.4,1,0.2,1.4,0c0.7,0,1.4,0,2,0c0.9,0.3,1.1,0.7,1.1,1.6c0,0.7,0,1.4,0,2.1
		c0,0.3-0.1,0.5-0.4,0.5c-0.2,0-0.4-0.1-0.3-0.4c0-0.7,0-1.4,0-2.2c0-0.6-0.1-0.7-0.7-0.9c-0.5-0.1-1-0.1-1.5,0
		c-0.3,0-0.5,0.3-0.5,0.6c0,0.7,0,1.4,0,2.1c0,0.1,0,0.2,0,0.3c-0.1,0.2-0.2,0.3-0.5,0.3c-0.2,0-0.3-0.2-0.3-0.4c0-0.7,0-1.5,0-2.2
		c0-0.5-0.2-0.8-0.7-0.8c-0.4,0-0.9,0-1.3,0c-0.3,0-0.6,0.2-0.6,0.6c-0.1,0.2-0.1,0.3,0,0.5c-0.1,0.5,0,1.1,0,1.7c0,0.2,0,0.3,0,0.5
		c-0.1,0.2-0.2,0.3-0.4,0.2c-0.2,0-0.3-0.1-0.3-0.3c0-1,0-1.9,0-2.9c0-0.5,0.5-0.9,1.1-1C110.4,29.4,111.1,29.4,111.7,29.4z"/>
	<path class="st0" d="M10.5,33.6c-0.7-0.1-1.2-0.7-1.2-1.1c0-0.5,0-0.9,0-1.4c0-0.3-0.1-0.5,0-0.8c0.2-0.5,0.5-0.8,1.1-0.9
		c0.9,0,1.9,0,2.8,0c0.6,0.2,1,0.5,1.1,1.2c0,0.4,0,0.8,0,1.1C14.2,32,14,32,13.7,32c-1.1,0-2.2,0-3.2,0c-0.1,0-0.3-0.1-0.3,0.1
		c-0.1,0.2,0,0.3,0.1,0.5c0.1,0.2,0.3,0.3,0.6,0.3c1,0,1.9,0,2.9,0c0.2,0,0.4,0,0.5,0.2c0.1,0.2,0,0.4-0.2,0.5
		C12.8,33.6,11.7,33.6,10.5,33.6z M11.8,31.3c0.5,0,1,0,1.5,0c0.1,0,0.2,0,0.2-0.1c0.2-0.5-0.2-0.9-0.7-0.9c-0.7,0-1.3,0-2,0
		c-0.6,0-0.8,0.2-0.8,0.8c0,0.2,0.1,0.3,0.3,0.3C10.9,31.2,11.4,31.3,11.8,31.3z"/>
	<path class="st0" d="M132.1,33.6c-0.8-0.1-1.2-0.7-1.2-1.5c0-0.5,0-1,0-1.6c0-0.5,0.5-1,1.1-1.2c0.9,0,1.9,0,2.8,0
		c0.6,0.2,0.9,0.5,1.1,1.1c0,0.4,0,0.8,0,1.2c-0.1,0.2-0.3,0.3-0.6,0.3c-1.1,0-2.2,0-3.2,0c-0.1,0-0.3-0.1-0.4,0.1
		c0,0.1,0,0.3,0.1,0.5c0.1,0.2,0.3,0.3,0.6,0.3c1,0,1.9,0,2.9,0c0.2,0,0.4,0,0.5,0.2c0.1,0.2,0,0.4-0.2,0.5
		C134.4,33.6,133.3,33.6,132.1,33.6z M133.4,31.3c0.5,0,1,0,1.5,0c0.1,0,0.2,0,0.2-0.1c0.2-0.5-0.2-0.9-0.7-0.9c-0.7,0-1.3,0-2,0
		c-0.6,0-0.8,0.2-0.8,0.8c0,0.2,0,0.3,0.3,0.3C132.5,31.2,132.9,31.3,133.4,31.3z"/>
	<path class="st0" d="M94,33.6c-0.8-0.1-1.2-0.7-1.2-1.4c0-0.5,0-0.9,0-1.4c0-0.8,0.3-1.2,1.1-1.4c0.9,0,1.9,0,2.8,0
		c0.6,0.2,1,0.6,1.1,1.2c0,0.4,0,0.7,0,1.1c-0.1,0.2-0.3,0.3-0.6,0.3c-1.1,0-2.1,0-3.2,0c-0.1,0-0.4-0.1-0.4,0.1
		c0,0.2,0,0.5,0.3,0.7c0.2,0.1,0.3,0.1,0.5,0.1c0.9,0,1.9,0,2.8,0c0.2,0,0.4,0,0.5,0.2c0.1,0.2,0,0.4-0.2,0.5
		C96.3,33.6,95.2,33.6,94,33.6z M95.3,31.3c0.5,0,1,0,1.5,0c0.1,0,0.2,0.1,0.3-0.1c0.2-0.4-0.1-1-0.6-1c-0.7,0-1.4,0-2.1,0
		c-0.5,0-0.7,0.2-0.7,0.7c0,0.2,0,0.3,0.3,0.3C94.4,31.2,94.8,31.3,95.3,31.3z"/>
	<path class="st0" d="M83.9,33.6c-0.8-0.1-1.2-0.8-1.2-1.5c0-0.5,0-1,0-1.5c0-0.5,0.5-1.1,1.1-1.2c0.9,0,1.9,0,2.8,0
		c0.6,0.2,0.9,0.5,1.1,1.1c0,0.4,0,0.9,0,1.3C87.5,32,87.3,32,87.1,32c-1.1,0-2.1,0-3.2,0c-0.1,0-0.4-0.2-0.4,0.2
		c0,0.3,0.2,0.6,0.4,0.7c0.2,0,0.5,0,0.7,0c0.8,0,1.6,0,2.4,0c0.2,0,0.4,0,0.5,0.2c0.1,0.2,0,0.4-0.2,0.5
		C86.2,33.6,85,33.6,83.9,33.6z M85.2,31.3c0.5,0,1,0,1.5,0c0.1,0,0.2,0.1,0.3-0.1c0.2-0.4-0.1-1-0.6-1c-0.7,0-1.4,0-2,0
		c-0.6,0-0.8,0.2-0.8,0.8c0,0.2,0.1,0.3,0.3,0.3C84.3,31.2,84.7,31.3,85.2,31.3z"/>
	<path class="st0" d="M104.5,33.6c-0.9-0.1-1.2-0.7-1.2-1.3c0-0.6,0-1.1,0-1.7c0-0.6,0.5-1,1.1-1.2c0.9,0,1.9,0,2.8,0
		c0.8,0.3,1.1,0.7,1.1,1.6c0,0.9,0.1,1-1,1c-0.9,0-1.9,0-2.8,0c-0.1,0-0.4-0.1-0.4,0.1c0,0.3,0,0.5,0.3,0.7c0.2,0.1,0.3,0.1,0.5,0.1
		c0.9,0,1.9,0,2.8,0c0.2,0,0.4,0,0.5,0.2c0.1,0.2,0,0.4-0.2,0.5C106.7,33.6,105.6,33.6,104.5,33.6z M105.8,31.3c0.5,0,1,0,1.5,0
		c0.1,0,0.2,0,0.2-0.1c0.2-0.5-0.2-1-0.7-1c-0.7,0-1.3,0-2,0c-0.6,0-0.8,0.2-0.8,0.8c0,0.2,0.1,0.3,0.3,0.3
		C104.8,31.2,105.3,31.3,105.8,31.3z"/>
	<path class="st0" d="M31.2,30.5c0.1-0.5,0.4-0.9,1.1-1.1c0.9,0,1.9,0,2.8,0c0.9,0.4,1.1,0.7,1.1,1.7c0,1.3,0,2.7,0,4
		c0,0.2,0,0.3-0.1,0.4c-0.1,0.2-0.3,0.2-0.5,0.2c-0.2,0-0.3-0.2-0.3-0.4c0-0.5,0-1,0-1.5c0-0.2-0.1-0.3-0.3-0.3c-0.8,0-1.7,0-2.5,0
		c-0.7,0-1.3-0.4-1.4-1.1C31.2,31.9,31.2,31.2,31.2,30.5z M33.9,32.9c0.4,0,0.8,0,1.2,0c0.2,0,0.3,0,0.3-0.3c0-0.6,0-1.1,0-1.7
		c0-0.5-0.2-0.7-0.7-0.7c-0.7,0-1.4,0-2.1,0c-0.5,0-0.7,0.2-0.7,0.7c0,0.4,0,0.9,0,1.3c0,0.5,0.2,0.7,0.7,0.7
		C33.1,32.9,33.5,32.9,33.9,32.9z"/>
	<path class="st0" d="M145.4,29.4c0.7,0.2,1.1,0.6,1.1,1.6c0,1,0,1-1,1c-0.9,0-1.9,0-2.8,0c-0.1,0-0.4-0.1-0.4,0.1
		c0,0.3,0,0.5,0.3,0.7c0.2,0.1,0.3,0.1,0.5,0.1c0.9,0,1.9,0,2.8,0c0.2,0,0.4,0,0.5,0.2c0.1,0.2,0,0.4-0.2,0.5c-1.1,0-2.3,0-3.4,0
		c-0.9-0.1-1.2-0.7-1.2-1.3c0-0.6,0-1.2,0-1.8c0-0.6,0.5-1,1.1-1.1C143.6,29.4,144.5,29.4,145.4,29.4z M144.1,31.3c0.5,0,1,0,1.5,0
		c0.1,0,0.2,0,0.2-0.1c0-0.5,0-1-0.7-0.9c-0.7,0-1.3,0-2,0c-0.6,0-0.7,0.2-0.7,0.7c0,0.2,0,0.3,0.3,0.3
		C143.1,31.2,143.6,31.3,144.1,31.3z"/>
	<path class="st0" d="M41.5,30.6c0.1-0.6,0.5-1,1.1-1.1c0.9,0,1.9,0,2.8,0c0.9,0.4,1.2,0.8,1.1,1.9C46.4,32,46.4,32,45.7,32
		c-1,0-2,0-3,0c-0.1,0-0.4-0.2-0.4,0.2c0,0.3,0.2,0.6,0.5,0.6c0.2,0,0.5,0,0.7,0c0.8,0,1.6,0,2.3,0c0.2,0,0.4,0,0.5,0.3
		c0.1,0.3-0.1,0.3-0.3,0.5c-1.1,0-2.3,0-3.4,0c-0.7-0.1-1.1-0.6-1.2-1.2C41.5,31.8,41.5,31.2,41.5,30.6z M44,31.3c0.5,0,1,0,1.4,0
		c0.1,0,0.2,0.1,0.3-0.1c0.1-0.5-0.1-1-0.7-0.9c-0.7,0-1.3,0-2,0c-0.6,0-0.8,0.2-0.8,0.8c0,0.2,0.1,0.2,0.2,0.2
		C43,31.3,43.5,31.3,44,31.3z"/>
	<path class="st0" d="M120.6,29.4c0.8,0.3,1,0.7,1,1.6c0,1,0,1-0.9,1c-1.1,0-2.1,0-3.2,0c-0.1,0.1-0.1,0.3,0,0.4
		c0.1,0.3,0.3,0.4,0.6,0.4c1,0,1.9,0,2.9,0c0.3,0,0.5,0.1,0.5,0.3c0.1,0.2-0.1,0.4-0.3,0.5c-1.1,0-2.2,0-3.3,0
		c-0.8-0.1-1.2-0.5-1.2-1.3c0-0.5,0-1.1,0-1.6c0-0.6,0.4-1.2,1.1-1.3C118.7,29.4,119.6,29.4,120.6,29.4z M119.1,31.3
		c0.5,0,1,0,1.5,0c0.1,0,0.2,0.1,0.3-0.1c0.1-0.6-0.1-1-0.7-0.9c-0.7,0-1.4,0-2,0c-0.6,0-0.8,0.2-0.7,0.8c0,0.2,0.1,0.3,0.3,0.3
		C118.2,31.2,118.6,31.3,119.1,31.3z"/>
	<path class="st0" d="M14.1,1c0.1,0,0.3,0,0.4,0c0.4,0.1,0.3,0.5,0.3,0.8c0,0.1,0,0.3,0,0.4c0,2.7,0,5.3,0,8c0,0.5-0.2,0.7-0.6,0.7
		c-0.3,0-0.3-0.2-0.4-0.4c0-3.1,0-6.1,0-9.2C13.9,1.2,13.9,1.1,14.1,1z"/>
	<path class="st0" d="M20.7,29.5c0,0,0.1,0,0.1,0c0.9,0,1.8,0,2.7,0c0.8,0.3,1,0.8,1,1.6c0,0.7,0,1.4,0,2.2c0,0.2-0.1,0.4-0.3,0.4
		c-0.2,0-0.4,0.1-0.4-0.2c0-0.5,0-1,0-1.5c0-0.4,0.1-0.8-0.1-1.2c-0.1-0.3-0.3-0.4-0.6-0.4c-0.7,0-1.4,0-2,0c-0.3,0-0.4,0.1-0.5,0.4
		c-0.1,0.1-0.1,0.2-0.1,0.2c0,0.8,0,1.7,0,2.5c-0.1,0.3-0.3,0.4-0.5,0.3c-0.3-0.1-0.2-0.3-0.2-0.5c0-1.8,0-3.5,0-5.3
		c0-0.2,0-0.4,0.2-0.5c0.3-0.1,0.4,0,0.5,0.3c0,0.6,0,1.1,0,1.7C20.5,29.4,20.5,29.6,20.7,29.5z"/>
	<path class="st0" d="M19.4,29.4c0.2,0.1,0.3,0.3,0.2,0.5c-0.1,0.2-0.3,0.3-0.5,0.3c-0.9,0-1.9,0-2.8,0c-0.6,0-0.8,0.3-0.8,0.9
		c0,0.4,0,0.7,0,1.1c0,0.4,0.3,0.7,0.7,0.7c1,0,2,0,2.9,0c0.3,0,0.4,0.1,0.5,0.3c0.1,0.2-0.1,0.4-0.3,0.5c-1.1,0-2.3,0-3.4,0
		c-0.6-0.1-1-0.4-1.2-1c0-0.1,0-0.3-0.1-0.4c0.1-0.5,0-0.9,0-1.4c0-0.7,0.4-1.3,1.1-1.4C17,29.4,18.2,29.4,19.4,29.4z"/>
	<path class="st0" d="M37.6,33.6c-0.7-0.1-1.2-0.6-1.2-1.4c0-0.8,0-1.6,0-2.4c0-0.2,0.1-0.3,0.3-0.3c0.2,0,0.4,0,0.5,0.3
		c0.1,0.7,0,1.5,0,2.2c0,0.6,0.2,0.9,0.8,0.9c0.7,0,1.4,0,2.1,0c0.3,0,0.3,0,0.3-0.3c0-0.9,0-1.8,0-2.7c0-0.3,0-0.4,0.3-0.4
		c0.3,0,0.4,0.2,0.4,0.4c0,1.1,0,2.2,0,3.3c0,0.2-0.1,0.4-0.3,0.5C39.8,33.6,38.7,33.6,37.6,33.6z"/>
	<path class="st0" d="M8.1,33.4c-0.1,0.2-0.4,0.3-0.6,0.2c-0.2-0.1-0.2-0.3-0.2-0.5c0-1.5,0-3,0-4.5c0-0.1,0-0.3,0-0.4
		c0-0.1-0.2-0.1-0.2-0.1c-0.7,0-1.4,0-2,0c-0.3-0.1-0.3-0.3-0.3-0.5c0-0.2,0.2-0.3,0.4-0.3c1.7,0,3.4,0,5.1,0c0.2,0,0.4,0.1,0.5,0.3
		c0.1,0.3-0.1,0.3-0.3,0.5c-0.7,0-1.4,0-2,0c-0.2,0-0.3,0.1-0.3,0.3C8.1,30.1,8.1,31.7,8.1,33.4z"/>
	<path class="st0" d="M101.7,29.4c0.6,0.2,0.9,0.5,1.1,1.1c0,1,0,1.9,0,2.9c-0.1,0.2-0.3,0.3-0.5,0.2c-0.2-0.1-0.2-0.3-0.2-0.5
		c0-0.7,0-1.4,0-2.1c0-0.5-0.2-0.7-0.7-0.7c-0.7,0-1.4,0-2.1,0c-0.2,0-0.3,0.1-0.3,0.3c0,0.9,0,1.8,0,2.7c0,0.3-0.1,0.5-0.4,0.5
		c-0.3,0-0.3-0.3-0.3-0.5c0-1.1,0-2.1,0-3.2c0-0.2,0-0.4,0.2-0.5C99.5,29.4,100.6,29.4,101.7,29.4z"/>
	<path class="st0" d="M125.6,29.4c0.8,0.3,1.1,0.7,1.1,1.6c0,0.7,0,1.4,0,2.2c0,0.3-0.1,0.4-0.4,0.4c-0.2,0-0.4-0.1-0.4-0.3
		c0-0.7,0-1.5,0-2.2c0-0.6-0.2-0.9-0.9-0.9c-0.6,0-1.3,0-1.9,0c-0.2,0-0.3,0.1-0.3,0.3c0,0.9,0,1.8,0,2.7c0,0.2-0.1,0.4-0.3,0.5
		c-0.4,0-0.4-0.2-0.4-0.4c0-1.1,0-2.2,0-3.3c0-0.1,0-0.1,0-0.2c0-0.1,0.1-0.2,0.2-0.2C123.3,29.4,124.5,29.4,125.6,29.4z"/>
	<path class="st0" d="M25.7,33.3c-0.1,0.3-0.3,0.4-0.6,0.3c-0.2-0.1-0.2-0.3-0.2-0.4c0-1.1,0-2.2,0-3.3c0-0.2,0-0.4,0.2-0.4
		c1.1,0,2.2,0,3.3,0c0.8,0.3,1.1,0.7,1.1,1.6c0,0.7,0,1.4,0,2c0,0.3,0,0.5-0.4,0.6c-0.4,0-0.4-0.3-0.4-0.5c0-0.7,0-1.4,0-2
		c0-0.6-0.3-0.9-0.8-0.9c-0.7,0-1.5,0-2.2,0c-0.1,0-0.1,0.2-0.1,0.2C25.7,31.4,25.7,32.4,25.7,33.3z"/>
	<path class="st0" d="M90,33.6c-0.4-0.2-0.5-0.6-0.7-1c-0.5-0.9-1-1.7-1.5-2.6c-0.1-0.3-0.2-0.5,0.1-0.6c0.3-0.1,0.4,0,0.6,0.2
		c0.5,1,1.1,1.9,1.6,2.9c0,0.1,0.1,0.1,0.1,0.2c0.3-0.5,0.5-1,0.8-1.4c0.3-0.6,0.6-1.1,1-1.7c0.1-0.2,0.3-0.2,0.5-0.2
		c0.2,0.1,0.3,0.3,0.2,0.5c-0.7,1.2-1.3,2.5-2.1,3.7C90.5,33.6,90.2,33.6,90,33.6z"/>
	<path class="st0" d="M128.3,29.4c0.2,0.1,0.5,0,0.7,0c0.3,0,0.5,0.1,0.5,0.4c0,0.3-0.2,0.4-0.5,0.4c-0.3,0-0.7,0-1,0
		c-0.2,0-0.3,0-0.3,0.3c0,0.6,0,1.2,0,1.8c0,0.4,0.2,0.6,0.6,0.6c0.2,0,0.4,0,0.6,0c0.2,0,0.4,0,0.5,0.2c0.1,0.2,0,0.4-0.2,0.5
		c-0.4,0-0.7,0-1.1,0c-0.8-0.1-1.2-0.6-1.2-1.4c0-1.5,0-2.9,0-4.4c0-0.2,0-0.4,0.2-0.5c0.2-0.1,0.4,0,0.5,0.3c0,0.6-0.1,1.2,0.1,1.7
		l0,0C128,29.4,128.2,29.4,128.3,29.4z"/>
	<path class="st0" d="M137.5,33.6c-0.8-0.1-1.2-0.7-1.2-1.4c0-1.5,0-3,0-4.5c0-0.2,0-0.3,0.2-0.3c0.2,0,0.4,0,0.5,0.2
		c0,0.1,0,0.3,0,0.4c0,1.3,0,2.7,0,4c0,0.6,0.2,0.9,0.9,0.9c0.1,0,0.2,0,0.3,0c0.3,0,0.4,0.1,0.5,0.3c0.1,0.2-0.1,0.4-0.3,0.5
		C138.2,33.6,137.8,33.6,137.5,33.6z"/>
	<path class="st0" d="M140.2,33.6c-0.7-0.1-1.2-0.5-1.2-1.4c0-1.4,0-2.9,0-4.3c0-0.2-0.1-0.5,0.3-0.5c0.4,0,0.4,0.2,0.4,0.5
		c0,1.4,0,2.7,0,4.1c0,0.6,0.2,0.9,0.9,0.9c0.1,0,0.2,0,0.3,0c0.3,0,0.4,0.1,0.5,0.3c0.1,0.2-0.1,0.4-0.3,0.5
		C140.9,33.6,140.6,33.6,140.2,33.6z"/>
	<path class="st0" d="M130.6,29.2c-0.2,0.2-0.2,0.3,0,0.5c0,1.2,0,2.5,0,3.7c-0.1,0.2-0.3,0.3-0.5,0.2c-0.2-0.1-0.2-0.3-0.2-0.5
		c0-1.1,0-2.1,0-3.2c0-0.3,0-0.6,0-0.9c0-0.2,0-0.4,0.2-0.5c0.2-0.1,0.4,0,0.5,0.3C130.6,28.9,130.6,29.1,130.6,29.2z"/>
	<path class="st0" d="M30.7,33.4c-0.1,0.2-0.3,0.3-0.5,0.2C30,33.5,30,33.3,30,33.1c0-1,0-2.1,0-3.1c0-0.3,0.1-0.7,0-1
		c0-0.2,0-0.4,0.2-0.5c0.2-0.1,0.4,0,0.6,0.2c0,0.2,0,0.4,0,0.5c-0.2,0.2-0.2,0.3,0,0.5C30.7,30.9,30.7,32.2,30.7,33.4z"/>
</g>
</svg>
