<?xml version="1.0" encoding="utf-8"?>
<!-- Generator: Adobe Illustrator 25.2.1, SVG Export Plug-In . SVG Version: 6.00 Build 0)  -->
<svg version="1.1" id="Calque_1" xmlns="http://www.w3.org/2000/svg" xmlns:xlink="http://www.w3.org/1999/xlink" x="0px" y="0px"
	 viewBox="0 0 167 86" style="enable-background:new 0 0 167 86;" xml:space="preserve">
<path d="M164,13c-0.2,0.1-23.1,6.3-46.5,26.5c-6.6,5.7-13.2,8.5-19.7,8.5c-1.6,0-3.1-0.2-4.7-0.5c-15.6-3.3-26.3-22.5-33-36.7
	c-1-2.2-2.3-2.7-3.3-2.8c-9.3-1.2-29.9,18.4-40.7,31c-1.4,1.7-4,1.9-5.6,0.5c-1.7-1.4-1.9-4-0.5-5.6c5.2-6,31.6-35.9,47.9-33.8
	c2.9,0.4,7,2,9.5,7.3c3.4,7.3,13.9,29.4,27.5,32.2c5.5,1.2,11.3-0.9,17.5-6.2C137.2,12,161,5.5,162,5.3c2.1-0.6,4.3,0.7,4.9,2.8
	C167.4,10.3,166.2,12.5,164,13z"/>
<path d="M157.3,50.1c-0.2,0.1-23.1,6.3-46.5,26.5c-6.6,5.7-13.2,8.5-19.7,8.5c-1.6,0-3.1-0.2-4.7-0.5c-15.6-3.3-26.3-22.5-33-36.6
	c-1-2.2-2.3-2.7-3.3-2.8c-9.3-1.2-29.9,18.4-40.7,31c-1.4,1.7-4,1.9-5.6,0.4c-1.7-1.4-1.9-4-0.4-5.6c5.1-6,31.6-35.9,47.9-33.7
	c2.9,0.4,7,2,9.5,7.3c3.4,7.3,13.9,29.4,27.5,32.2c5.5,1.2,11.2-0.9,17.5-6.2c24.9-21.5,48.7-27.9,49.7-28.1
	c2.1-0.6,4.3,0.7,4.9,2.8S159.5,49.6,157.3,50.1z"/>
</svg>
