<svg xmlns="http://www.w3.org/2000/svg" xmlns:xlink="http://www.w3.org/1999/xlink" version="1.1" id="Calque_1" x="0px" y="0px" viewBox="0 0 200 200" style="enable-background:new 0 0 200 200;" xml:space="preserve"> <style type="text/css"> .st0{fill:#1D2327;} .st1{fill:#FFFFFF;} </style> <rect x="0" class="st0" width="200" height="200"></rect> <g> <path class="st1" d="M55.3,155.2c0.2,1.5,0.5,3.1,1,4.6H32c-0.1-0.3-0.3-0.8-0.4-1.3v-0.1c-0.4-1.3-12.5-2.6-13.1-3.2 c0.1,0,12.5,0.2,12.6,0.2C38.9,155.6,47,155.4,55.3,155.2L55.3,155.2z M144.6,146.6c2.7,3.7,6.3,7.3,11.8,12.2h-27.9 c-1.4-1.3-2.9-2.6-4.3-4c-0.7-0.7-1.5-1.5-2.2-2.2c-1.2-1.4-4.4-1.3-5.7-1.9l3.6-0.5c0.1,0,0.2,0,0.4,0 C128.4,149.1,136.6,147.9,144.6,146.6L144.6,146.6z M110.4,151.3c0.1,2.2,0.5,4.6,1.4,7.5H87.9c0-0.8,0.1-1.6,0.1-2.3 c0-0.1,0-0.2,0-0.3c0.2-1.6-2.1-2.6-2.1-2.6c0.1,0,2.7-0.2,2.8-0.2c3.8-0.3,7.6-0.6,11.5-1C103.6,152.1,107,151.8,110.4,151.3 L110.4,151.3z M38.4,127.6c0.2,0,3.5,0.5,3.7,0.5c6.8,0.9,14.4,1.5,22.6,1.7c-4.8,7.3-9.7,15.5-9.4,24c-8.3,0.2-16.4,0.3-24.2,0.2 c-0.1,0-2.2,0-2.3,0c0-0.7,2-2.2,2.1-3.3c0.7-7.2,5-14.2,9.3-20.5c0.1-0.1,0.1-0.2,0.2-0.2C40.7,129.2,40.1,128.8,38.4,127.6 L38.4,127.6z M164.8,115.6c0.4,14-11.7,20.4-21.8,20.4h-4.3c1.6,3.7,3.1,6.6,4.9,9.4c-7.9,1.3-16,2.5-24.2,3.5 c-0.2,0-2.4,0.3-2.6,0.3c-0.1-0.5,2.2-0.1,0.4-2.6c-0.1-0.1-0.1-0.2-0.2-0.3c-1.2-2-2.1-4.2-3-6.8c-2.3,4.2-3.4,7.3-3.6,10.4 c-3.4,0.4-6.9,0.7-10.3,1.1c-3.8,0.4-7.5,0.7-11.2,1c-0.1,0-1.1,0.1-1.3,0.1c0.6-0.8,1.2-1.7,1.4-2.4c0-0.1,0-0.2,0.1-0.3 c1.3-6.2,3.6-11.8,5.9-17.3c0.1-0.1,0.1-0.3,0.2-0.4c0.4-1,0.8-1.9,1.2-2.9c0.1,0,0.3,0,0.4,0c1.6-0.1,3.3-0.3,5-0.4 c7.1-0.7,14.1-1.6,20.8-2.7c-0.8,1.4-1.7,2.8-2.8,4.6h10.8c5.5,0,9.1-4.1,10-7.7c0-0.1,0.1-0.2,0.1-0.4 C149.4,120.2,157.6,118,164.8,115.6L164.8,115.6z M42.5,126.7c1-1.4,2-2.9,2.9-4.2H29.6c3.5-7.4,4.9-11.1,1.3-18.5h55.9 c2.4,7.4,1.2,11.1-1.7,18.5H69.5c-1.2,1.9-2.5,3.8-3.8,5.8c-8.2-0.2-15.9-0.7-22.7-1.6C42.8,126.8,42.7,126.7,42.5,126.7 L42.5,126.7z M90,127.8c0.5-1.7,8.2-2.9,10-8.4c0.1-0.3,0.2-0.6,0.3-0.9c1.5-4.8,2.7-9.9,2.9-15.6h46.2c10,0,14.5,4,15.2,11 c-7.2,2.5-15.2,4.7-24,6.7c-0.5-1.4-2.3-2.1-4.6-2.1h-10.2c-0.6,2.1-1.3,3.7-2.2,5.3c-7,1.2-14.4,2.1-21.9,2.9 c-1.2,0.1-2.5,0.2-3.7,0.3C97.6,127.2,90.3,127.8,90,127.8L90,127.8z M86.1,78.9c-0.3,0.7-0.6,1.4-0.8,2c-2.2,5.5-2.7,8.9,0.3,15 H29.7c-0.2-0.5-0.3-0.9-0.4-1.4v-0.1C43,88.2,63.1,82.6,86.1,78.9L86.1,78.9z M122.5,75.3c-5,6.8-7.5,12.2-1.9,20.7H96.5 c-0.5-1.5-0.8-3.1-1-4.7c-0.2-2.7,0.1-5.4,0.9-8c0.6-2.1,1.5-4,2.5-6l0.1-0.1c2-0.2,4-0.4,6-0.6C111,76.1,116.9,75.6,122.5,75.3 L122.5,75.3z M126.9,75.2c13.8-0.4,26.4,0.1,37,1.5c0.2,0,2.7,0.4,2.9,0.4c-3,0.5-3.7,2.4-4.2,3.8c-0.1,0.3-0.2,0.5-0.3,0.8 c-1.6,4.5-2.2,9.2-0.6,14.4h-26.6c-0.6-0.6-1.2-1.1-1.9-1.7c-0.5-0.5-1-1-1.5-1.5c-2.3-2.5-4.3-5.3-5.2-8.6 c-0.2-0.7-0.3-1.4-0.4-2.1C126,79.8,126.4,77.4,126.9,75.2L126.9,75.2L126.9,75.2z M103.8,49.4c-2.2,1.6-4.1,3.2-4.8,4.8 c-0.5,1.1-1,2.3-1.6,3.7c-12,7.1-24.5,13.6-36.4,21v0.2h16.1c-19.4,3.5-36.2,8.5-48.4,14.1c-1.1-5-0.3-8.3,1.7-14.1 c11.4-7.4,23.3-13.9,34.9-21v-0.2H46c17-3.3,35.1-6,53.9-8C100,49.8,103.6,49.4,103.8,49.4L103.8,49.4z M154.4,46.2 c8.1-0.2,15.9-0.2,23.4-0.1c0.2,0,1.5,0,1.6,0c-1.1,0.9-0.8,2-1.2,4.6c0,0.1,0,0.2-0.1,0.4c-1.1,7-5.9,13.4-10.1,19.9 c-0.1,0.1-0.2,0.3-0.3,0.4c-0.8,1.3,5.9,3.3,10.3,5.7c-0.2,0-13.1-1.8-13.2-1.8c-10.7-1.4-23.4-2-37.4-1.6c0.5-2.1,1.2-4.3,1.8-6.8 h-0.2c-1.8,2.5-3.6,4.8-5.2,6.9c-6,0.2-12.3,0.7-18.7,1.3c-1.7,0.2-3.3,0.3-5,0.5c5.3-9,13.4-17.4,13.5-27.1 c10.4-0.9,20.6-1.6,30.4-2c0.1,0,1.3-0.1,1.4-0.1c-0.4,0.5,0.3,2.3,0.7,3.4c0,0.1,0.1,0.2,0.1,0.3c2.5,7.3-1.7,13.2-4.1,22.3h0.2 C147.9,66.3,155.1,55.8,154.4,46.2L154.4,46.2z M40.1,57.5c2.8-6.8,4-10.4,1.8-17.3h56.6c0.4,0.8,0.8,1.6,1,2.3 c0.1,0.2,0.2,0.3,0.2,0.5c0.9,4,4.2,3.5,7.4,4.6c-0.3,0-7,0.7-7.3,0.8C78.9,50.5,58.8,53.7,40.1,57.5L40.1,57.5z M113.5,47 c-0.2-2.2-0.8-4.4-2-6.8h27.5c0.5,0.4,0.9,0.9,1.3,1.3c0.1,0.2,0.3,0.3,0.4,0.5c1,1.1,6.5,2.4,6.6,3.1c-0.1,0-4.2,0-4.3,0 C133.6,45.5,123.6,46.1,113.5,47L113.5,47z M154.2,44.7c-0.3-1.6-0.7-3.1-1.5-4.5h24.1c0.3,0.6,0.5,1.3,0.7,1.9 c0.3,0.9,2.1,1.9,4,2.6c-0.2,0-3.7,0-3.9,0C169.9,44.5,162.2,44.5,154.2,44.7L154.2,44.7z"></path> </g> </svg>