<?xml version="1.0" encoding="utf-8"?>
<!-- Generator: Adobe Illustrator 26.2.0, SVG Export Plug-In . SVG Version: 6.00 Build 0)  -->
<svg version="1.1" id="Calque_1" xmlns="http://www.w3.org/2000/svg" xmlns:xlink="http://www.w3.org/1999/xlink" x="0px" y="0px"
	 viewBox="0 0 165 100" style="enable-background:new 0 0 165 100;" xml:space="preserve">
<style type="text/css">
	.st0{fill:#12AAE2;}
	.st1{fill:#69B332;}
	.st2{fill:#68B239;}
	.st3{fill:#68B332;}
</style>
<g>
	<g>
		<path class="st0" d="M22.6,59c-0.5-1.1-1.2-1.9-2-2.7c-0.9-0.7-2.1-1.4-3.8-1.9c1.3-0.7,2.3-1.6,3-2.8c0.7-1.1,1-2.4,1-3.8
			c0-1.5-0.4-2.8-1.1-4s-1.8-2.1-3.1-2.7c-1.3-0.6-3.2-0.9-5.7-0.9H0.9v31.1h12.3c3.1,0,5.5-0.9,7.3-2.6c1.8-1.7,2.8-3.8,2.8-6.3
			C23.3,61.2,23,60,22.6,59z M3.9,43.3h7.4c2.2,0,3.7,0.4,4.8,1.2c1,0.8,1.5,1.9,1.5,3.4c0,1.1-0.3,2-0.9,2.9
			c-0.6,0.9-1.4,1.5-2.4,1.9c-1,0.4-2.6,0.6-4.8,0.6H3.9V43.3z M19.1,65.6c-0.6,0.9-1.5,1.6-2.6,2.1c-1.1,0.5-2.7,0.7-5,0.7H3.9
			V56.4h5.5c2.6,0,4.4,0.1,5.5,0.4c1.6,0.4,2.8,1.1,3.7,2.1c0.9,1,1.4,2.2,1.4,3.6C20.1,63.6,19.7,64.6,19.1,65.6z"/>
		<path class="st0" d="M30.6,40.3v31.1h3.1V40.3H30.6z"/>
	</g>
	<g>
		<path class="st1" d="M131.1,63.3l2.5,1.3c-0.8,1.6-1.7,2.9-2.8,3.9c-1.1,1-2.3,1.7-3.6,2.2c-1.3,0.5-2.9,0.8-4.5,0.8
			c-3.7,0-6.7-1.2-8.8-3.7c-2.1-2.5-3.2-5.2-3.2-8.3c0-2.9,0.9-5.5,2.7-7.8c2.3-2.9,5.3-4.4,9.1-4.4c3.9,0,7,1.5,9.4,4.5
			c1.7,2.1,2.5,4.7,2.5,7.8h-20.7c0.1,2.7,0.9,4.9,2.6,6.6c1.6,1.7,3.7,2.6,6.1,2.6c1.2,0,2.3-0.2,3.4-0.6c1.1-0.4,2-1,2.8-1.6
			C129.4,65.9,130.2,64.8,131.1,63.3z M131.1,57.1c-0.4-1.6-1-2.8-1.7-3.8c-0.8-0.9-1.7-1.7-3-2.3c-1.2-0.6-2.6-0.9-3.9-0.9
			c-2.2,0-4.2,0.7-5.8,2.2c-1.2,1.1-2.1,2.7-2.7,4.8C114,57.1,131.1,57.1,131.1,57.1z"/>
	</g>
	<polygon class="st0" points="164.1,28.6 164.1,31.6 154.4,31.6 154.4,71.3 151.3,71.3 151.3,31.6 142.5,31.6 142.5,71.3 
		139.5,71.3 139.5,31.6 104,31.6 104,40.3 104,40.3 104,71.4 103.3,71.4 82.9,47.9 82.9,71.4 79.6,71.4 79.6,40.3 80.3,40.3 
		100.9,64.1 100.9,28.6 	"/>
	<g>
		<path class="st0" d="M65.7,51.2c-2.3-2.6-5.3-3.8-8.8-3.8c-1.1,0-2.1,0.1-3.1,0.4c-0.1,0-0.1,0-0.2,0.1c0,0,0,0-0.1,0
			c-0.9,0.3-1.8,0.6-2.6,1.1c-1,0.6-2,1.4-2.9,2.4c-1.6,1.8-2.7,3.9-3,6.3c0,0.1,0,0.1,0,0.2c-0.1,0.8-0.1,1.7-0.1,2.5
			c0.1,1.1,0.3,2.2,0.7,3.3c0.9,2.5,2.5,4.5,4.7,6.1c0.7,0.5,1.4,0.9,2.1,1.1c-0.2,0-0.3-0.1-0.4-0.1c0.7,0.3,1.4,0.5,2.2,0.7l0,0
			c0.9,0.2,1.8,0.3,2.7,0.3c1.1,0,2.2-0.1,3.2-0.4l0,0c2.1-0.5,3.9-1.6,5.4-3.2c0,0,0.1-0.1,0.1-0.1c2-2.2,3.1-4.7,3.3-7.5
			c0,0,0,0,0-0.1c0-0.3,0-0.6,0-0.8C68.8,56.3,67.8,53.5,65.7,51.2z M52.4,67.5c-1.4-0.8-2.5-1.9-3.3-3.3c-0.8-1.4-1.2-3-1.2-4.7
			c0-2.6,0.9-4.8,2.7-6.6c0.1-0.1,0.2-0.2,0.3-0.3c0.1-0.1,0.1-0.1,0.2-0.2c1.6-1.5,3.6-2.2,5.8-2.2c2.5,0,4.5,0.9,6.3,2.7
			c1.8,1.8,2.7,4,2.7,6.6c0,1.7-0.4,3.2-1.2,4.7c-0.2,0.4-0.4,0.7-0.7,1c0,0,0,0,0,0c-0.7,1-1.6,1.7-2.6,2.3
			c-1.4,0.8-2.9,1.2-4.5,1.2C55.2,68.7,53.7,68.3,52.4,67.5z"/>
	</g>
	<path class="st1" d="M78.4,47.4c-0.1-1.2-0.4-2.4-0.8-3.5c-0.7-2.3-1.8-4.4-3.2-6.4c-0.7-0.9-1.4-1.8-2.3-2.6
		c-1.1-1.1-2.2-2-3.5-2.8c-1.9-1.2-3.9-2.1-6-2.7c-1.5-0.4-3.1-0.7-4.7-0.8c-1.4-0.1-2.9-0.1-4.3,0.2c-1.1,0.2-2.2,0.4-3.3,0.7
		c-1.9,0.6-3.8,1.4-5.5,2.5c-1.9,1.2-3.6,2.7-5,4.4c-1.5,1.8-2.8,3.8-3.6,6c-0.5,1.2-0.9,2.5-1.1,3.8c-0.2,0.9-0.3,1.8-0.3,2.7
		c0,1-0.1,1.9,0,2.9c0.1,0.9,0.2,1.7,0.3,2.5c0.5,2.5,1.4,4.8,2.8,6.9c0.8,1.2,1.5,2.5,2.6,3.5c0.3,0.3,0.6,0.7,1,1
		c1.1,1,2.2,1.9,3.5,2.6c1.6,1,3.2,1.7,5,2.3c1.4,0.4,2.7,0.7,4.1,0.9l0,0c0.4,0.1,0.7,0.1,1.1,0.1l0,0c0-0.1-0.1-0.1-0.2-0.2
		c-0.7-0.1-1.4-0.3-2-0.4c-0.1,0-0.1,0-0.2,0c-0.2,0-0.3-0.1-0.4-0.1l0,0c-0.2,0-0.3-0.1-0.4-0.1l0,0c-2.3-0.5-4.4-1.3-6.4-2.5
		c-1.3-0.8-2.6-1.7-3.7-2.8c-0.4-0.4-0.9-0.8-1.2-1.3c-0.4-0.5-0.4-0.6,0-1.1c0.1-0.2,0.2-0.3,0.1-0.5c-0.5-1.2-1.3-2.2-2.3-3.2
		c-0.4-0.4-0.7-0.7-0.9-1.2c-0.4-0.9-1-1.7-1.2-2.7c-0.2-0.8-0.3-1.6-0.6-2.4c-0.2-0.5-0.4-1-0.4-1.5c-0.2-1.4-0.1-2.9,0.1-4.2
		c0.5-3.6,1.8-6.8,3.9-9.7c0.2-0.2,0.4-0.3,0.6-0.5c0.1-0.1,0.1-0.1,0.2,0c0.1,0.2,0.3,0.2,0.4,0.1c0.3-0.2,0.5-0.4,0.8-0.5
		c0.1-0.1,0.2-0.2,0.1-0.3c-0.1-0.2,0-0.2,0.1-0.3c0.1-0.1,0.2-0.2,0.3-0.3c0.2-0.2,0.4-0.3,0.7-0.3c-0.1,0.1-0.2,0.2-0.4,0.3
		c-0.7,0.5-0.6,0.4-0.2,1.2c0.1,0.3,0.3,0.3,0.4,0c0.2-0.4,0.6-0.7,0.6-1.2c0-0.1,0.1-0.1,0.1-0.2c0.2-0.3,0.5-0.5,0.7-0.8
		c0.2-0.2,0.4-0.5,0.5-0.7c0.1-0.3,0.2-0.6,0.4-0.8c0.5-0.4,0.9-0.9,1.5-1.2c1-0.6,2.1-1.1,3.1-1.8c0.8-0.5,1.6-0.9,2.6-1.1
		c0,0,0.1,0,0.1,0c-0.1,0-0.1,0.1-0.2,0.1c-0.6,0.4-1.3,0.8-1.9,1.1c-0.8,0.4-1.5,0.9-2.1,1.6c-0.2,0.3-0.3,0.5-0.2,0.8
		c0.1,0.3,0.2,0.4,0.5,0.2c0.6-0.3,1.1-0.7,1.7-1c0.2-0.1,0.4-0.2,0.6-0.2c0.4-0.1,0.8,0,1.2-0.2c0.4-0.2,0.8-0.3,1.2-0.4
		c0.7-0.1,1.3-0.4,1.9-0.8c0.6-0.5,1.2-1.1,2.1-1.2c0.1,0,0.1,0,0.1-0.1c0.1-0.1,0.1-0.1,0-0.2c-0.2-0.2-0.4-0.3-0.6-0.4
		c1,0,1.9,0,2.9,0.1c2,0.2,4,0.7,5.9,1.4c0.2,0.1,0.3,0.2,0.4,0.3c0.1,0.2,0.2,0.3,0.1,0.5c-0.1,0.2-0.3,0.3-0.5,0.5
		c-0.1,0.1-0.2-0.1-0.4-0.1c-0.1,0-0.2-0.1-0.2,0c-0.1,0.1,0,0.1,0,0.2c0.1,0.1,0.2,0.2,0.2,0.4c0.1,0.2,0.1,0.3-0.1,0.5
		c-0.2,0.1-0.3,0-0.5-0.1c0.1-0.1,0.1-0.1,0.1-0.1c0.2,0,0.4,0.1,0.4-0.2c0-0.2-0.1-0.3-0.3-0.4c-0.4-0.2-0.9-0.3-1.3-0.3
		c-0.2,0-0.3-0.1-0.4-0.1c-0.6-0.3-1.3-0.4-1.9,0c-0.1,0.1-0.2,0.1-0.4,0.2c-0.2,0-0.3,0.1-0.3,0.3c0,0.2-0.1,0.4-0.2,0.5
		c-0.2,0.4-0.6,0.7-0.9,1.1c-0.1,0.1-0.2,0.2-0.4,0.2c-0.3,0-0.3,0.2-0.3,0.4c0,0.3,0.2,0.6,0.3,0.9c0.1,0.3,0.3,0.3,0.5,0.4
		c0.2,0,0.3-0.1,0.4-0.2c0.3-0.2,0.6-0.2,0.8,0.2c0.2,0.2,0.2,0.5,0.3,0.7c0.2,0.4,0.4,0.4,0.8,0.2c0.1-0.1,0.2-0.2,0.4-0.3
		c0.1-0.1,0.1-0.2,0.1-0.3c-0.1-0.3,0-0.6,0.2-0.8c0.2-0.2,0.1-0.3-0.1-0.4c-0.1-0.1-0.2-0.2-0.3-0.2c-0.2-0.2-0.3-0.6-0.1-0.7
		c0.2-0.2,0.4-0.3,0.4-0.6c0-0.1,0.1-0.2,0.2-0.1c0.1,0,0.2,0.1,0.1,0.2c0,0.1-0.1,0.1-0.1,0.2c-0.2,0.4-0.1,0.8,0.2,1.1
		c0.4,0.4,0.6,0.4,1.1,0.2c0.1-0.1,0.2-0.1,0.3-0.1c0.1,0,0.2,0,0.3,0.1c-0.8,0-1,0.3-0.7,0.7c-0.4,0-0.4,0.1-0.4,0.5
		c0,0.2,0,0.4,0,0.6c0,0.1,0,0.2-0.2,0.2c-0.6,0.1-1.1,0.5-1.7,0.3c-0.1,0-0.1,0-0.2,0c-0.4,0.1-0.6-0.1-0.6-0.5
		c0-0.2-0.1-0.5-0.1-0.7c-0.1-0.2-0.1-0.2-0.3-0.1c-0.6,0.4-0.6,0.5-0.3,1.2c0,0,0,0.1,0,0.1c0.1,0.1,0,0.2-0.1,0.2
		c-0.3,0.1-0.5,0.1-0.8,0.2c-0.2,0.1-0.3,0.1-0.3,0.3c0,0.2-0.2,0.3-0.3,0.4c-0.3,0.2-0.7,0.3-0.9,0.6c-0.2,0.3-0.4,0.4-0.7,0.4
		c-0.1,0-0.2,0.1-0.3,0.1c-0.1,0.1-0.2,0.1-0.4,0.1c-0.2,0-0.3,0-0.5,0c-0.1,0-0.3,0-0.3,0.2c0,0.2,0,0.3,0.1,0.4
		c0.1,0.1,0.2,0.1,0.3,0.2c0.1,0,0.2,0.1,0.2,0.1c0.2,0.4,0.5,0.7,0.3,1.2c0,0.1,0,0.2-0.1,0.2c-0.1,0.3-0.1,0.4-0.4,0.3
		c-0.6-0.1-1.2-0.2-1.8-0.3c-0.7-0.1-1,0.2-0.9,0.9c0.1,0.3,0,0.6-0.1,0.8c-0.3,0.5-0.3,1-0.2,1.6c0,0.2,0.1,0.3,0.3,0.3
		c0.2,0,0.3,0.1,0.4,0.2c0.1,0.1,0.2,0.2,0.2,0.3c0.1,0.1,0.2,0.2,0.3,0.2c-0.1,0-0.2,0.1-0.3,0.3c-0.1,0.1-0.2,0.2-0.3,0.3
		c-0.5,0.5-1,1-1.5,1.5c-0.2,0.2-0.3,0.3-0.3,0.5c0,0.3-0.1,0.5-0.3,0.6c-0.1,0.1-0.2,0.2-0.2,0.3l0,0c0,0,0.1,0,0.1,0
		c0.1,0,0.1-0.1,0.2-0.1c0.8-0.4,1.6-0.8,2.4-1c0,0,0,0,0.1,0c0.1,0,0.1,0,0.2-0.1c0.5-0.1,1-0.2,1.5-0.3c1.6-0.2,3.2-0.2,4.8,0.2
		c2.4,0.6,4.4,1.9,6,3.8c2.2,2.6,3.1,5.6,2.9,8.9c0,0,0,0,0,0.1c0,0.3-0.1,0.5-0.1,0.8c-0.4,3.2-2,5.7-4.4,7.7
		c-1.2,1-2.6,1.7-4.1,2.1c-0.1,0-0.3,0-0.4,0.2l0,0c0.1,0,0.2,0,0.2,0l0,0c0.1,0,0.1,0,0.2,0c0.9-0.2,1.7-0.3,2.5-0.5
		c1.3-0.3,2.6-0.8,3.8-1.5c0.9-0.5,1.8-1,2.6-1.6c1.2-0.8,2.4-1.8,3.4-2.9c1-1,1.8-2.1,2.6-3.3c0.8-1.2,1.4-2.5,2-3.8
		c0.4-1.1,0.8-2.2,1-3.4c0.2-1,0.3-1.9,0.4-2.9C78.6,49.9,78.5,48.6,78.4,47.4z M72.2,39.3c0.8,0.7,1.4,1.5,1.9,2.4
		c0.1,0.1,0.2,0.2,0.2,0.3c0,0.1,0.2,0.1,0.1,0.3c-0.1,0.1-0.2,0.3-0.4,0.2c-0.3-0.1-0.5-0.2-0.6-0.5c0-0.2-0.1-0.4-0.1-0.6
		c0-0.3-0.3-0.4-0.5-0.5c-0.6-0.3-0.9-0.8-1.1-1.4c0,0-0.1-0.1-0.1-0.1c0,0,0-0.1-0.1-0.1C71.8,39.1,72,39.2,72.2,39.3z M70.3,46.7
		c-0.3,0-0.6,0-0.8,0.2c-0.3,0.3-0.6,0.3-1,0.2c-0.1,0-0.3,0-0.4-0.1c-0.5-0.1-1.1-0.1-1.6-0.4c-0.3-0.2-0.5-0.2-0.8,0
		c-0.3,0.2-0.6,0.4-0.5,0.8c0.1,0.3-0.1,0.4-0.4,0.4c-0.2,0-0.4-0.1-0.6-0.1c-0.3,0-0.5-0.1-0.7-0.3c-0.3-0.3-0.6-0.5-1-0.5
		c-0.4,0-0.8-0.1-1.1-0.3c-0.4-0.2-0.4-0.3-0.2-0.7c0.1-0.2,0.2-0.3,0-0.5c-0.1-0.2-0.1-0.3-0.1-0.5c0.1-0.1,0-0.2-0.1-0.3
		c-0.2-0.2-0.5-0.3-0.8-0.2c-0.3,0.1-0.6,0.1-1,0.1c-0.2,0-0.4,0-0.5,0.1c-0.2,0.1-0.3,0.1-0.5,0c-0.3-0.1-0.6-0.1-0.8,0
		c-0.7,0.3-1.4,0.5-2.1,0.7c-0.1,0.1-0.3,0.1-0.4,0c-0.3-0.2-0.5-0.2-0.8-0.2c-0.1,0-0.3-0.1-0.4-0.2c-0.1-0.1-0.2-0.1-0.2-0.1
		c0.1,0,0.1,0,0.2-0.1c0.3-0.1,0.6-0.2,0.8-0.3c0.5-0.1,1-0.3,1.4-0.6c0.2-0.1,0.3-0.3,0.3-0.5c0-0.6,0.3-1,0.9-1.1
		c0.5-0.1,0.5-0.2,0.5-0.7c0-0.3,0.2-0.5,0.5-0.4c0.1,0,0.2,0.1,0.3,0.1c0.3,0.1,0.6,0.1,0.8-0.1c0.1-0.1,0.2-0.1,0.3-0.2
		c0.4-0.2,0.6-0.2,0.9,0.1c0.2,0.2,0.4,0.4,0.6,0.6c0.2,0.3,0.5,0.4,0.8,0.6c0.4,0.2,0.8,0.4,1,0.7c0.3,0.4,0.2,0.6-0.3,0.7
		c-0.1,0-0.2,0-0.3,0c-0.1,0-0.3,0-0.4,0c-0.1,0-0.2,0.1-0.3,0.2s0.1,0.2,0.2,0.3c0.3,0.2,0.7,0.3,1,0.4c0.2,0.1,0.3,0,0.3-0.2
		c-0.1-0.3,0-0.4,0.3-0.5c0.1,0,0.1-0.1,0.2-0.2c0.2-0.3,0.4-0.6,0.1-0.9c0.1-0.1,0.2,0,0.3,0c0.1,0,0.2,0,0.3-0.1
		c0.1-0.1,0-0.2-0.1-0.3c-0.4-0.3-0.8-0.5-1.1-0.7c0,0-0.1,0-0.1,0c-0.3,0-0.4-0.2-0.6-0.3c-0.2-0.2-0.4-0.4-0.6-0.6
		c-0.2-0.1-0.3-0.3-0.2-0.6c0.2,0.2,0.5,0.1,0.7,0.4c0.1,0.2,0.3,0.3,0.4,0.3c0.4,0.2,0.8,0.5,1.2,0.7c0.2,0.1,0.4,0.3,0.3,0.6
		c0,0.4,0.2,0.7,0.4,0.8c0.4,0.2,0.6,0.6,0.7,0.9c0.1,0.3,0.4,0.4,0.7,0.4c0.2,0,0.3-0.1,0.3-0.3s0.1-0.4,0.2-0.5
		c0.1-0.2,0.1-0.3-0.1-0.4c-0.4-0.3-0.4-0.3-0.2-0.8c0.1-0.2,0.2-0.2,0.3-0.2c0.3,0,0.5,0.1,0.6,0.4c0.2,0.7,0.6,1.2,1.3,1.5
		c0.3,0.1,0.5,0.1,0.7-0.1c0.1-0.1,0.1-0.1,0.2-0.1c0.4,0,0.7-0.1,1-0.2c0.2-0.1,0.3,0,0.4,0.2c0.2,0.6,0.1,1.2,0.2,1.8
		C70.8,46.6,70.7,46.7,70.3,46.7z M70.7,41.5c-0.2,0-0.5,0.1-0.6,0.1c-0.4,0-0.6-0.1-0.9-0.2c-0.2-0.1-0.3,0-0.4,0.1
		c-0.1,0.1-0.2,0.2-0.3,0.3c-0.4,0.4-1.1,0.3-1.4-0.2c-0.1-0.2,0-0.4,0.1-0.6c0.1-0.4,0.2-0.8,0.2-1.1c0-0.1,0.1-0.2,0.2-0.2
		c0.2,0,0.5,0,0.6,0.2c0.1,0.1,0.1,0.1,0.1,0.2c0.3,0.4,0.4,0.4,0.7,0c0.1-0.1,0.2-0.2,0.4-0.1c0.3,0.1,0.6,0.3,0.9,0.3
		c0.3,0.1,0.5,0.4,0.7,0.5c0.2,0.1,0,0.4,0.1,0.5C70.9,41.5,70.8,41.5,70.7,41.5z M77.8,54.6c-0.4,1.8-1.1,3.6-2,5.2
		c-1,1.9-2.3,3.6-3.8,5.1c-0.1,0.1-0.1,0.1-0.2,0.1c0.2-0.5,0.3-1,0.5-1.4c0.2-0.5,0.3-1,0.6-1.5c0.5-0.8,1-1.6,1.5-2.4
		c0.4-0.7,0.9-1.3,1.2-2c0.3-0.8,0.7-1.6,0.9-2.4c0.1-0.5,0-1,0-1.5c-0.3,0.4-0.7,0.8-1,1.2c-0.1,0.1-0.2,0.2-0.3,0.3
		c-0.2,0-0.4-0.1-0.4-0.3c0-0.4-0.4-0.8-0.8-0.8c-0.2,0-0.2,0-0.3-0.2c-0.1-0.5-0.3-0.8-0.6-1.1c-0.2-0.2-0.2-0.4-0.2-0.6
		c0-0.5-0.2-0.8-0.5-1.1c-0.6-0.7-0.9-1.5-1.3-2.2c-0.1-0.2,0.1-0.1,0.2-0.2c0.1-0.1,0.2-0.2,0.3,0c0.3,0.3,0.5,0.7,0.8,1
		c0.2,0.2,0.3,0.4,0.5,0.6c0.3,0.2,0.4,0.5,0.5,0.8c0.1,0.4,0.3,0.7,0.6,1c0.2,0.3,0.5,0.6,0.7,0.9c0.1,0.2,0.1,0.4,0.1,0.6
		c0,0.3,0.2,0.6,0.1,0.9c0,0.1,0,0.1,0.1,0.1c0.1,0,0.2,0,0.3-0.1c0.2-0.4,0.5-0.8,0.7-1.2c0.2-0.3,0.3-0.5,0.5-0.8
		c0.5-0.8,0.8-1.7,1-2.7c0.1-0.3,0-0.6,0-1c0-0.2-0.1-0.4,0-0.6c0.1-0.4-0.1-0.6-0.4-0.7c-0.3-0.1-0.2-0.4-0.3-0.6
		c0-0.1,0-0.2-0.1-0.2c-0.1,0-0.1,0.1-0.1,0.2c0,0.1,0,0.3,0,0.4c0.1,0.4-0.1,0.6-0.4,0.8c0-0.5-0.1-0.8-0.5-1
		c-0.4-0.2-0.5-0.7-0.7-1C74.8,46,75,46,75,45.9c0.1-0.1,0.2-0.1,0.3,0c0.1,0.2,0.3,0.3,0.4,0.5c0.2,0.3,0.4,0.2,0.6,0.2
		c0.1,0,0.1,0,0.2-0.1c0.1-0.4,0.3-0.2,0.4,0c0.2,0.2,0.3,0.1,0.4-0.1c0.1-0.2,0.3-0.4,0.4-0.6c0.4,0.5,0.5,1,0.5,1.6
		c0.1,0.8,0.1,1.6,0.1,2.4C78.3,51.5,78.1,53.1,77.8,54.6z"/>
	<path class="st0" d="M68.8,57.6c-0.4-2.9-1.7-5.4-3.9-7.4c-3.2-2.9-7-3.5-11.1-2.7c-1.1,0.2-2.1,0.7-3.1,1.2l0,0
		c-0.3,0-0.5,0.3-0.7,0.4c0,0-0.1,0-0.1,0.1c-0.3,0.2-0.6,0.5-0.9,0.7c0,0-0.1,0.1-0.1,0.1c-0.2,0.1-0.3,0.3-0.4,0.4
		c-0.9,0.9-1.7,1.9-2.3,3.1c-0.5,1-0.9,2-1.1,3.1c-0.1,0.3-0.1,0.6-0.2,0.9c0,0.1,0,0.1,0,0.2c-0.1,0.8-0.1,1.7-0.1,2.5
		c0.1,1.1,0.3,2.2,0.7,3.3c0.9,2.5,2.5,4.5,4.7,6.1c0.7,0.5,1.4,0.9,2.1,1.1l0,0c0.2,0.1,0.4,0.1,0.6,0.2c0.1,0,0.2,0.1,0.3,0.1
		c0.7,0.2,1.3,0.3,2,0.4l0,0l0,0c0.2,0.1,0.3,0,0.5,0.1c0.3,0,0.5,0,0.8,0c1,0,2,0,3-0.2c0.1-0.1,0.2,0,0.3-0.1l0,0
		c0.1,0,0.1-0.1,0.1-0.1c1.1-0.3,2.1-0.6,3.1-1.2c0.9-0.6,1.7-1.2,2.4-1.9c0,0,0.1-0.1,0.1-0.1C68,65.3,69.4,61.7,68.8,57.6z
		 M48.3,61.7c-0.3-1.1-0.3-2.2-0.2-3.3c0.1,0.3,0.4,0.5,0.5,0.8c0.1,0.5,0.4,0.9,0.8,1.1c0.6,0.4,1.2,0.9,1.8,1.3
		c0.2,0.1,0.3,0.2,0.5,0.1c0.5-0.2,0.9-0.2,1.4-0.1c0.3,0.1,0.6,0.1,1,0.2c0.3,0.1,0.6,0,0.9-0.1c0.8-0.2,1.6-0.5,2.4-0.5
		c0.5,0,0.9,0.1,1.1,0.6c0.1,0.2,0.2,0.3,0.4,0.2c0.2-0.1,0.5,0,0.7-0.1c0.4-0.1,0.7,0,1,0.3c0.2,0.2,0.2,0.3,0.1,0.5
		c-0.2,0.3-0.3,0.7-0.4,1c-0.1,0.3-0.1,0.5,0.1,0.8c0.1,0.2,0.2,0.3,0.4,0.4c0.3,0.2,0.5,0.3,0.7,0.5c0.3,0.3,0.5,0.7,0.5,1.2
		c0,0.1-0.1,0.3,0.1,0.3c-0.9,0.6-1.9,1-3,1.2c-2.7,0.5-5.1,0.1-7.3-1.6C49.9,65.5,48.8,63.8,48.3,61.7z"/>
	<path class="st1" d="M65.9,60.3c-0.2,1.9-0.8,3.5-1.9,4.9c0,0,0,0,0,0c-0.5,0.6-1.1,1.2-1.8,1.7C62,67,62,67.1,61.9,67.1
		c-0.2-0.1-0.1-0.2-0.1-0.3c0.1-0.5-0.2-0.9-0.5-1.2c-0.2-0.2-0.5-0.4-0.7-0.5c-0.2-0.1-0.3-0.3-0.4-0.4c-0.1-0.3-0.2-0.5-0.1-0.8
		c0.1-0.3,0.3-0.7,0.4-1c0.1-0.2,0.1-0.3-0.1-0.5c-0.3-0.3-0.6-0.4-1-0.3c-0.2,0.1-0.4,0-0.7,0.1c-0.2,0.1-0.4,0-0.4-0.2
		c-0.2-0.6-0.6-0.6-1.1-0.6c-0.9,0-1.6,0.3-2.4,0.5C54.6,62,54.3,62,54,61.9c-0.3-0.1-0.6-0.1-1-0.2c-0.5-0.1-0.9-0.1-1.4,0.1
		c-0.2,0.1-0.4,0-0.5-0.1c-0.6-0.4-1.2-0.9-1.8-1.3c-0.4-0.3-0.7-0.6-0.8-1.1c-0.1-0.3-0.4-0.5-0.5-0.8c0.2-2.1,1-3.9,2.4-5.4
		c0.1-0.2,0.3-0.3,0.4-0.4c0.1-0.1,0.1-0.1,0.2-0.2c1.1-1,2.4-1.8,3.9-2.1c3.4-0.7,6.3,0.2,8.7,2.8C65.4,55.2,66.1,57.6,65.9,60.3z"
		/>
	<path class="st2" d="M49,50.1c0.2-0.2,0.3-0.5,0.5-0.7c0.2-0.1,0.4-0.2,0.6-0.2C49.8,49.5,49.5,49.9,49,50.1z"/>
	<path class="st3" d="M55.3,37.8c-0.1-0.1-0.1-0.1-0.2-0.1c-0.2,0-0.1-0.2-0.2-0.3c-0.1-0.1,0.1-0.1,0.2-0.2
		c0.2-0.1,0.4-0.2,0.5-0.4c0.2-0.2,0.2-0.4,0.2-0.7c0-0.1-0.2-0.1-0.3-0.1c-0.3,0.1-0.4-0.1-0.3-0.4c0-0.2,0-0.3-0.1-0.4
		c-0.1-0.1-0.2-0.3,0-0.4c0.2-0.1,0.3-0.4,0.6-0.3c0.2,0.1,0.5,0.1,0.4,0.5c-0.1,0.5,0.3,0.7,0.5,1.1c0,0,0.1,0.1,0.1,0.1
		c0.1,0.4,0.3,0.7,0.5,0.9c0.1,0.1,0.1,0.2,0,0.2c-0.3,0.4-0.8,0.4-1.2,0.5c-0.3,0.1-0.6,0.2-0.9,0.1c-0.1,0-0.1,0.1-0.2,0
		c-0.1-0.1,0.1-0.2,0.1-0.2C55,38,55.1,37.9,55.3,37.8z"/>
	<path class="st1" d="M53.5,37.5c-0.1,0-0.2,0.1-0.2-0.1c0-0.1,0-0.3,0.2-0.3c0.1,0,0.1-0.1,0.2-0.1s0.1-0.1,0.1-0.1
		c0-0.1-0.1-0.1-0.1-0.1c-0.1-0.1-0.3,0-0.2-0.2c0.1-0.2,0.1-0.4,0.4-0.4c0.2,0,0.2-0.1,0.4-0.2c0.2-0.2,0.4,0,0.7,0
		c0.1,0,0.1,0.2,0,0.4c-0.1,0.3-0.2,0.5-0.2,0.7c0,0.1-0.1,0.2-0.1,0.2C54.1,37.3,53.8,37.5,53.5,37.5z"/>
	<path class="st1" d="M52.8,32.9c-0.4,0.2-0.5-0.3-0.7-0.4c0,0,0-0.1,0-0.1c0.2-0.1,0.3-0.4,0.6-0.3c0.3,0.1,0.6,0,0.9,0
		c0.4,0,0.5,0.2,0.3,0.5c0,0,0,0.1-0.1,0.1C53.6,32.7,53.3,32.9,52.8,32.9z"/>
	<path class="st1" d="M60.3,41.9c0,0.2,0.2,0.5,0,0.7c-0.1,0.1,0,0.1,0,0.1c0.3,0.3,0.2,0.6,0.2,0.9c0,0.3-0.3,0.3-0.5,0.3
		c-0.2,0-0.1-0.2-0.1-0.3c0-0.1,0-0.2-0.1-0.4c0-0.1-0.1-0.2,0-0.3c0.2-0.2,0.1-0.5,0.1-0.7C59.9,42,60.1,42,60.3,41.9z"/>
</g>
</svg>
