<?xml version="1.0" encoding="utf-8"?>
<!-- Generator: Adobe Illustrator 26.2.0, SVG Export Plug-In . SVG Version: 6.00 Build 0)  -->
<svg version="1.1" id="Calque_1" xmlns="http://www.w3.org/2000/svg" xmlns:xlink="http://www.w3.org/1999/xlink" x="0px" y="0px"
	 viewBox="0 0 165 100" style="enable-background:new 0 0 165 100;" xml:space="preserve">
<style type="text/css">
	.st0{fill:#E27C7E;}
	.st1{fill:#595C6C;}
	.st2{fill:#E79395;}
	.st3{fill:#5A5D6D;}
	.st4{fill:#585B6B;}
	.st5{fill:#E17B7E;}
	.st6{fill:#575A6A;}
	.st7{fill:#494D5F;}
	.st8{fill:#4F5264;}
	.st9{fill:#5D606F;}
</style>
<g>
	<path class="st0" d="M51.4,22.8c4,2.5,2.1,6.3,2,9.6C53,45,52.7,57.6,49.8,69.9c-0.4,1.8-0.6,4-2.9,4.4c-2.6,0.5-4.2-1.4-5-3.3
		c-3.4-7.8-6.6-15.6-10-23.4c-0.2-0.5-0.5-0.9-0.8-1.3c-0.2,0.5-0.4,1-0.6,1.6c-1.8,7.6-3.5,15.3-5.6,22.9c-0.6,2.3-2.3,4.3-3.5,6.5
		c-0.7,0-1.3,0-2,0c-3-2.1-4.1-5.3-4.7-8.7c-1.4-8.4-2.6-16.8-3.9-25.2c0-0.8,0-1.6,0-2.4c0-0.9,0-1.8,0-2.8c0-0.4,0-0.8,0-1.2
		c5-2,5.8,1.2,6.4,4.9c1.2,7-0.1,14.2,2.4,21c0.2,0.6,0.6,1.1,1,1.6c0.3-0.5,0.6-1.1,0.8-1.6c2.7-7.2,2.6-14.9,4-22.3
		c0.5-2.8,0.2-7,3.5-7.4c3.1-0.4,4.7,3.3,6.1,6c3.9,7.2,6,15,8.7,22.7c0.2,0.6,0.8,1,1.3,1.5c0.2-0.4,0.5-0.7,0.5-1.1
		c1.1-13.1,2.1-26.2,3.2-39.3C49.6,22.8,50.5,22.8,51.4,22.8z"/>
	<path class="st1" d="M154.2,72.4c-4.2,3.4-9,1.1-13.5,1.5c-2.3,0.2-5.6,1.5-6.9-1c-1.5-2.8,1.9-4.5,3-6.7c0.7-1.3,1.7-2.5,2.6-3.7
		c2.9-4.1,9.2-9.4-3-8c-0.8,0.1-2.1-1.1-2.5-2c-0.6-1.2,0.1-2.4,1.5-2.9c0.1,0,0.2,0,0.4-0.1c5.3,0,10.6-0.3,15.9,0
		c2.7,0.1,2.2,2.3,1.1,3.9c-3.2,4.7-6.6,9.3-9.9,13.9c-0.3,0.4-0.5,0.8-0.7,1.2c0.5,0.1,1,0.2,1.4,0.3c3.5,0.6,7.5-1.5,10.6,1.6
		C154.2,71.1,154.2,71.8,154.2,72.4z"/>
	<path class="st2" d="M10.8,38.2c0,0.9,0,1.8,0,2.8C10.8,40,10.8,39.1,10.8,38.2z"/>
	<path class="st3" d="M84.1,61.4c0-3.1,0-6.2,0-9.2c0-2,1.8-3.9,2.9-2.9c3.5,3.1,6.7-1.4,9.4,0c5,2.4,9.4,0.9,14.3,0.1
		c5.4-0.9,8.7,2.6,8.8,8.3c0.1,4.5,0,8.9,0,13.4c0,2-0.7,3.4-2.8,3.5c-2.3,0-3-1.5-3.1-3.5c0-4.1,0-8.3,0-12.4
		c0-2.8-1.3-4.6-4.2-4.6c-2.9,0-4.6,1.7-4.6,4.7c0,4.1,0,8.3,0,12.4c0,2-0.9,3.4-3,3.4c-2.2,0-2.9-1.4-2.9-3.4c0-4.1,0.1-8.3,0-12.4
		c-0.1-2.8-1.4-4.7-4.4-4.7c-3,0-4.5,1.9-4.5,4.8c-0.1,4.2,0,8.4,0,12.6c0,1.8-0.8,3.1-2.7,3.1c-2,0.1-3.1-1.1-3.1-3
		C84.1,68.1,84.1,64.8,84.1,61.4z"/>
	<path class="st1" d="M79.5,61.9c0,3.3,0,6.6,0,9.8c0,1.3-0.6,2.5-1.9,2.6c-1,0.1-2.9-0.2-3.1-0.8c-1.1-2.7-1.9-0.8-3-0.2
		c-3.5,2-7.1,1.7-10.2-0.7c-5-3.8-6.1-9.1-4.6-15c2.1-7.9,9.5-10.9,16.2-6.5c0.2,0.1,0.3,0.3,0.5,0.3c6.1,0.3,6.1,0.3,6.1,8.6
		C79.5,60.7,79.5,61.3,79.5,61.9z M73.7,61.7c-0.3-3.7-1.1-7.4-5.8-7.3c-4.7,0.1-5.8,3.8-5.7,7.6c0.1,3.7,1.2,7.2,5.7,7.2
		C72.8,69.3,73.4,65.6,73.7,61.7z"/>
	<path class="st4" d="M128.1,49.3c1.5,0.6,2,1.7,2,3.2c0,6.2,0,12.3,0,18.5c0,1.9-0.7,3.4-2.9,3.5c-2.2,0-3.1-1.4-3.1-3.5
		c0-6.2,0-12.3,0-18.5c0-1.5,0.5-2.7,2-3.2c0.1,0,0.2,0,0.4-0.1c0.4,0,0.8,0,1.2,0C127.9,49.3,128,49.3,128.1,49.3z"/>
	<path class="st5" d="M133.2,38.6c-0.1,3.9-0.6,7.8-5.6,8c-4.8,0.3-6.2-3.2-6.9-7.1c3.6-1.7,7.2-4.3,11.4-1.2
		c0.1,0.1,0.3,0.1,0.4,0.2C132.7,38.4,132.9,38.5,133.2,38.6z"/>
	<path class="st6" d="M132,38.2c-4.2-3.1-7.7-0.5-11.4,1.2c-0.8,0-1.7,0.2-2.3-0.1c-1.4-0.6-2.7-1.2-3.8-2.1
		c-0.5-0.4,0.1-1.1,0.9-0.6c0.7,0.4,1.4,1,2.2,1.2c3,1,5.6,0.1,7.3-2.6c1.9-2.9-0.3-3.9-2.4-5.1c-0.6-0.3-0.8-1.2-1.2-1.8
		c1.2-0.5,2.3-1.1,3.5-1.3c1.9-0.4,4.5-1,5.5,0.7c0.9,1.7-1.5,2.6-2.8,3.6c-1.2,1-0.4,2,0.1,2.8c1.5,2.8,4,3.4,6.9,2.7
		c1.5-0.4,2.9-1.3,4.3-1.9c-1,2.6-3.4,2.9-5.6,3.6c-0.3-0.1-0.5-0.1-0.8-0.2C132.3,38.3,132.2,38.3,132,38.2z"/>
	<path class="st6" d="M109.3,34.5c-0.6,0.4-1.1,0.7-1.6,1c-0.4-0.1-0.5-0.1-0.6-0.1c0.6-0.4,1.2-0.8,1.8-1.1
		C108.9,34.3,109.1,34.4,109.3,34.5z"/>
	<path class="st6" d="M149.9,28.3c-0.7-0.4-1.4-0.7-2.1-1.1c0.7,0.2,1.5,0.4,2.2,0.7C150.1,27.8,150,28.1,149.9,28.3z"/>
	<path class="st6" d="M145.1,26.4c0.4,0.2,0.8,0.4,1.2,0.6c-0.4,0-0.8,0-1.3,0.1c-1.4,0-2.8,0-4.2,0c-0.8,0.2-1.6,0.3-2.4,0.5
		c-0.8,0.2-1.5,0.3-2.3,0.5c0.7-0.4,1.5-0.7,2.2-1.1c0.8-0.2,1.6-0.3,2.4-0.5H145.1z"/>
	<path class="st6" d="M104.5,30.1c0.5-0.1,1-0.1,1.5-0.1c-0.5,0.2-1,0.4-1.5,0.6C104.5,30.4,104.4,30.1,104.5,30.1z"/>
	<path class="st6" d="M102.5,31c0.4-0.1,0.9-0.3,1.3-0.4c-0.2,0.2-0.3,0.4-0.5,0.6c-0.6,0.2-1.2,0.4-1.8,0.6
		C101.8,31.5,102.1,31.3,102.5,31z"/>
	<path class="st6" d="M115.1,29.5c-0.3,0.1-0.5,0.3-0.8,0.4c-0.7-0.3-1.3-0.5-1.9-0.7c0.4-0.1,0.8-0.2,1.2-0.1
		C114.2,29.1,114.6,29.4,115.1,29.5z"/>
	<path class="st6" d="M110.8,28.8c0.3,0,0.7,0.1,1.6,0.3c-0.8,0.3-1.1,0.5-1.3,0.4c-0.3,0-0.6-0.2-0.9-0.4
		C110.5,29,110.6,28.8,110.8,28.8z"/>
	<path class="st6" d="M107.3,29.2c0.8,0,1.6,0,2.5-0.1c-0.8,0.2-1.6,0.5-2.5,0.7c-0.4,0-0.8,0.1-1.2,0.1
		C106.5,29.6,106.9,29.4,107.3,29.2z"/>
	<path class="st6" d="M106.1,29.9C106.1,29.9,106,29.9,106.1,29.9C106,29.9,106.1,29.9,106.1,29.9L106.1,29.9z"/>
	<path class="st6" d="M146.9,33.7c-0.7-0.3-1.3-0.6-2-0.8c-0.7-0.3-1.5-0.6-2.2-0.8c-0.8-0.2-1.5-0.4-2.3-0.5h-3.8
		c0-0.1,0-0.3,0-0.4h3.8c0.8,0.1,1.6,0.3,2.4,0.4c0.8,0.3,1.7,0.6,2.5,0.9C145.8,32.9,146.3,33.3,146.9,33.7z"/>
	<path class="st6" d="M106.2,29.9C106.1,29.9,106.1,29.9,106.2,29.9L106.2,29.9C106.1,29.9,106.1,29.9,106.2,29.9z"/>
	<path class="st6" d="M115.5,33.1c-0.4,0.1-0.8,0.2-1.1,0.3c-1.2,0.3-2.3,0.5-3.5,0.8c-0.4,0.1-0.8,0.1-1.2,0.2
		c0.4-0.3,0.8-0.5,1.2-0.8c1.2-0.2,2.4-0.5,3.6-0.7C114.8,32.9,115.1,33,115.5,33.1z"/>
	<polygon class="st6" points="147.8,27.2 147.8,27.1 147.9,27.2 	"/>
	<path class="st7" d="M126.6,49.2c-0.1,0-0.2,0-0.4,0.1C126.3,49.2,126.5,49.2,126.6,49.2z"/>
	<path class="st7" d="M128.1,49.3c-0.1,0-0.2,0-0.4-0.1C127.9,49.2,128,49.2,128.1,49.3z"/>
	<path class="st8" d="M135.6,49.6c-0.1,0-0.2,0-0.4,0.1C135.4,49.6,135.5,49.6,135.6,49.6z"/>
	<path class="st9" d="M132,38.2c0.1,0.1,0.3,0.1,0.4,0.2C132.3,38.3,132.2,38.3,132,38.2z"/>
</g>
</svg>
