<?xml version="1.0" encoding="utf-8"?>
<!-- Generator: Adobe Illustrator 26.2.0, SVG Export Plug-In . SVG Version: 6.00 Build 0)  -->
<svg version="1.1" id="Calque_1" xmlns="http://www.w3.org/2000/svg" xmlns:xlink="http://www.w3.org/1999/xlink" x="0px" y="0px"
	 viewBox="0 0 165 100" style="enable-background:new 0 0 165 100;" xml:space="preserve">
<style type="text/css">
	.st0{fill:#15DB2F;}
	.st1{fill:#898989;}
</style>
<g>
	<path class="st0" d="M61.1,44.9c0.9,0.9,1.6,1.9,2.1,3.2c0.5,1.2,0.8,2.5,0.8,3.8v9.9h-3.6v-10c0-0.9-0.2-1.7-0.5-2.4
		c-0.3-0.8-0.8-1.4-1.4-2c-0.6-0.6-1.3-1-2-1.4c-0.8-0.3-1.6-0.5-2.4-0.5c-0.5,0-0.9,0-1.3,0.1s-0.8,0.2-1.2,0.4
		c0.6,0.8,1,1.7,1.4,2.7c0.3,1,0.5,2,0.5,3.1v9.9h-3.6v-10c0-0.9-0.2-1.7-0.5-2.4c-0.3-0.8-0.8-1.4-1.4-2c-0.6-0.6-1.2-1-2-1.4
		c-0.8-0.3-1.6-0.5-2.5-0.5c-0.9,0-1.7,0.2-2.4,0.5c-0.8,0.3-1.4,0.8-2,1.4c-0.6,0.6-1,1.2-1.4,2c-0.3,0.8-0.5,1.6-0.5,2.4v9.9h-3.6
		v-9.9c0-1.4,0.3-2.6,0.8-3.8c0.5-1.2,1.2-2.3,2.1-3.2c0.9-0.9,1.9-1.6,3.2-2.1c1.2-0.5,2.5-0.8,3.8-0.8c1,0,1.9,0.1,2.8,0.4
		c0.9,0.3,1.7,0.6,2.5,1.1c0.8-0.5,1.6-0.9,2.5-1.1c0.9-0.3,1.8-0.4,2.8-0.4c1.4,0,2.7,0.3,3.8,0.8C59.1,43.3,60.2,44,61.1,44.9"/>
	<path class="st0" d="M68.9,61.8V45.6h-2.6V42h6.2v19.8H68.9z M68.9,35.9h3.6v2.8h-3.6V35.9z"/>
	<path class="st0" d="M91.3,61.8v-9.9c0-0.9-0.2-1.7-0.5-2.4c-0.3-0.8-0.8-1.4-1.4-2c-0.6-0.6-1.3-1-2-1.4c-0.8-0.3-1.6-0.5-2.4-0.5
		c-0.9,0-1.7,0.2-2.4,0.5c-0.8,0.3-1.4,0.8-2,1.4c-0.6,0.6-1,1.2-1.4,2c-0.3,0.8-0.5,1.6-0.5,2.4v9.9H75v-9.9c0-1.4,0.3-2.6,0.8-3.8
		c0.5-1.2,1.2-2.3,2.1-3.2c0.9-0.9,1.9-1.6,3.1-2.1c1.2-0.5,2.5-0.8,3.8-0.8s2.7,0.3,3.9,0.8c1.2,0.5,2.3,1.2,3.2,2.1
		c0.9,0.9,1.6,1.9,2.1,3.2s0.8,2.5,0.8,3.8v9.9H91.3z"/>
	<path class="st0" d="M107.2,61.8c-1.4,0-2.7-0.3-3.9-0.8c-1.2-0.5-2.3-1.2-3.2-2.1S98.5,57,98,55.7c-0.5-1.2-0.8-2.5-0.8-3.9
		c0-1.4,0.3-2.6,0.8-3.8c0.5-1.2,1.2-2.3,2.1-3.2c0.9-0.9,1.9-1.6,3.2-2.1c1.2-0.5,2.5-0.8,3.9-0.8v3.6c-0.9,0-1.7,0.2-2.4,0.5
		c-0.8,0.3-1.4,0.8-2,1.4s-1,1.2-1.4,2c-0.3,0.8-0.5,1.6-0.5,2.4c0,0.9,0.2,1.7,0.5,2.5c0.3,0.8,0.8,1.4,1.4,2c0.6,0.6,1.3,1,2,1.4
		c0.8,0.3,1.6,0.5,2.4,0.5c0.9,0,1.7-0.2,2.4-0.5c0.8-0.3,1.4-0.8,2-1.4c0.6-0.6,1-1.2,1.4-2c0.3-0.8,0.5-1.6,0.5-2.5v-16h3.6v16
		c0,1.4-0.3,2.7-0.8,3.9c-0.5,1.2-1.2,2.3-2.1,3.2c-0.9,0.9-1.9,1.6-3.1,2.1C109.9,61.6,108.6,61.8,107.2,61.8"/>
	<path class="st1" d="M121.1,64.1v-19c0-0.8,0.1-1.5,0.5-2.2c0.3-0.7,0.7-1.3,1.2-1.8c0.5-0.5,1.1-1,1.8-1.2
		c0.7-0.3,1.4-0.5,2.2-0.5c0.8,0,1.5,0.1,2.2,0.5c0.7,0.3,1.3,0.7,1.8,1.2c0.5,0.5,1,1.1,1.2,1.8c0.3,0.7,0.5,1.4,0.5,2.2
		s-0.1,1.5-0.5,2.2c-0.3,0.7-0.7,1.3-1.2,1.8c-0.5,0.5-1.1,0.9-1.8,1.2c-0.7,0.3-1.4,0.5-2.2,0.5v-2.1c0.5,0,1-0.1,1.4-0.3
		c0.5-0.2,0.8-0.5,1.1-0.8c0.4-0.3,0.6-0.7,0.8-1.2c0.2-0.5,0.3-0.9,0.3-1.4s-0.1-1-0.3-1.4c-0.2-0.5-0.5-0.8-0.8-1.2
		c-0.3-0.3-0.7-0.6-1.1-0.8c-0.5-0.2-0.9-0.3-1.4-0.3s-1,0.1-1.4,0.3c-0.5,0.2-0.8,0.5-1.1,0.8c-0.3,0.4-0.6,0.7-0.8,1.2
		c-0.2,0.5-0.3,0.9-0.3,1.4v19H121.1z"/>
	<path class="st1" d="M133.9,50.8v-5.7c0-0.8,0.1-1.5,0.5-2.2c0.3-0.7,0.7-1.3,1.2-1.8c0.5-0.5,1.1-1,1.8-1.2
		c0.7-0.3,1.4-0.5,2.2-0.5v2c-0.5,0-1,0.1-1.4,0.3c-0.5,0.2-0.8,0.5-1.2,0.8c-0.3,0.4-0.6,0.7-0.8,1.2c-0.2,0.5-0.3,0.9-0.3,1.4v5.7
		L133.9,50.8L133.9,50.8z"/>
	<path class="st1" d="M146.7,50.8c-0.8,0-1.5-0.1-2.2-0.5c-0.7-0.3-1.3-0.7-1.8-1.2c-0.5-0.5-0.9-1.1-1.2-1.8
		c-0.3-0.7-0.5-1.4-0.5-2.2c0-0.8,0.1-1.5,0.5-2.2c0.3-0.7,0.7-1.3,1.2-1.8c0.5-0.5,1.1-1,1.8-1.2c0.7-0.3,1.4-0.5,2.2-0.5
		c0.8,0,1.5,0.1,2.2,0.5c0.7,0.3,1.3,0.7,1.8,1.2c0.5,0.5,1,1.1,1.2,1.8c0.3,0.7,0.5,1.4,0.5,2.2c0,0.8-0.1,1.5-0.5,2.2
		c-0.3,0.7-0.7,1.3-1.2,1.8c-0.5,0.5-1.1,0.9-1.8,1.2C148.2,50.6,147.5,50.8,146.7,50.8 M144.1,42.5c-0.3,0.4-0.6,0.7-0.8,1.2
		s-0.3,0.9-0.3,1.4s0.1,1,0.3,1.4c0.2,0.5,0.5,0.8,0.8,1.2c0.3,0.3,0.7,0.6,1.1,0.8c0.5,0.2,0.9,0.3,1.4,0.3c0.5,0,1-0.1,1.4-0.3
		c0.5-0.2,0.8-0.5,1.1-0.8c0.4-0.3,0.6-0.7,0.8-1.2c0.2-0.5,0.3-0.9,0.3-1.4s-0.1-1-0.3-1.4c-0.2-0.5-0.5-0.8-0.8-1.2
		c-0.3-0.3-0.7-0.6-1.1-0.8c-0.5-0.2-0.9-0.3-1.4-0.3s-1,0.1-1.4,0.3C144.9,41.9,144.5,42.2,144.1,42.5"/>
	<path class="st1" d="M159.3,50.8c-0.8,0-1.5-0.1-2.2-0.5c-0.7-0.3-1.3-0.7-1.8-1.2c-0.5-0.5-0.9-1.1-1.2-1.8
		c-0.3-0.7-0.5-1.4-0.5-2.2c0-0.8,0.1-1.5,0.5-2.2c0.3-0.7,0.7-1.3,1.2-1.8c0.5-0.5,1.1-1,1.8-1.2c0.7-0.3,1.4-0.5,2.2-0.5v2
		c-0.5,0-1,0.1-1.4,0.3c-0.5,0.2-0.8,0.5-1.2,0.8c-0.3,0.3-0.6,0.7-0.8,1.1c-0.2,0.5-0.3,0.9-0.3,1.4s0.1,1,0.3,1.4s0.5,0.8,0.8,1.1
		c0.4,0.3,0.7,0.6,1.2,0.8c0.5,0.2,0.9,0.3,1.4,0.3c0.5,0,1-0.1,1.4-0.3c0.5-0.2,0.8-0.5,1.2-0.8c0.3-0.3,0.6-0.7,0.8-1.1
		c0.2-0.5,0.3-0.9,0.3-1.4v-9.1h2v9.2c0,0.8-0.1,1.5-0.5,2.2c-0.3,0.7-0.7,1.3-1.2,1.8c-0.5,0.5-1.1,0.9-1.8,1.2
		C160.9,50.6,160.2,50.8,159.3,50.8"/>
	<path class="st0" d="M15.2,54.3c0-4.2-3.4-7.6-7.6-7.6S0,50.1,0,54.3s3.4,7.6,7.6,7.6S15.2,58.4,15.2,54.3"/>
	<path class="st0" d="M30.7,43.5c0-4.2-3.4-7.6-7.6-7.6s-7.6,3.4-7.6,7.6s3.3,7.6,7.6,7.6C27.3,51,30.7,47.6,30.7,43.5"/>
</g>
</svg>
