<?xml version="1.0" encoding="utf-8"?>
<!-- Generator: Adobe Illustrator 26.2.0, SVG Export Plug-In . SVG Version: 6.00 Build 0)  -->
<svg version="1.1" id="Calque_1" xmlns="http://www.w3.org/2000/svg" xmlns:xlink="http://www.w3.org/1999/xlink" x="0px" y="0px"
	 viewBox="0 0 165 100" style="enable-background:new 0 0 165 100;" xml:space="preserve">
<style type="text/css">
	.st0{fill:#FFFFFF;}
	.st1{fill:#FF565F;}
</style>
<g>
	<circle class="st0" cx="83.1" cy="49.9" r="36.2"/>
	<g>
		<path class="st1" d="M47,32c1-0.5,1.9-1,2.9-1.5c0.3-0.1,0.4-0.3,0.4-0.7c0-0.9,0-1.8,0-2.7c0-0.3,0.1-0.5,0.4-0.6
			c0.9-0.3,1.7-0.6,2.6-0.8c0.3-0.1,0.4-0.2,0.5-0.5c0.1-1,0.3-1.9,0.5-2.9c0-0.1,0.2-0.3,0.3-0.4c1-0.2,1.9-0.4,2.9-0.5
			c0.3,0,0.5-0.2,0.5-0.5c0.3-0.9,0.6-1.7,0.8-2.6c0.1-0.4,0.3-0.5,0.7-0.5c0.8,0,1.7,0,2.5,0c0.4,0,0.6-0.1,0.8-0.5
			c0.4-0.8,0.8-1.6,1.2-2.4c0.1-0.3,0.3-0.4,0.6-0.3c0.9,0.2,1.9,0.3,2.8,0.4c0.2,0,0.5-0.1,0.6-0.3c0.6-0.7,1.1-1.5,1.7-2.3
			c0.2-0.2,0.3-0.3,0.6-0.2c0.9,0.3,1.8,0.6,2.7,0.9c0.3,0.1,0.6,0.1,0.8-0.2c0.6-0.6,1.3-1.2,1.9-1.9c0.3-0.3,0.5-0.3,0.9-0.1
			c0.8,0.4,1.6,0.8,2.4,1.2c0.3,0.2,0.5,0.1,0.8-0.1c0.8-0.6,1.7-1.2,2.6-1.9c0.9,0.6,1.7,1.2,2.6,1.8c0.3,0.2,0.6,0.2,0.9,0.1
			c0.8-0.4,1.6-0.8,2.4-1.3c0.3-0.2,0.4-0.1,0.6,0.1c0.7,0.7,1.3,1.4,2,2c0.1,0.1,0.5,0.2,0.6,0.2c0.9-0.3,1.8-0.6,2.7-0.9
			c0.3-0.1,0.5-0.1,0.7,0.2c0.5,0.8,1.1,1.5,1.7,2.3c0.2,0.2,0.3,0.3,0.6,0.3c1.1-0.2,2.1-0.3,3.2-0.5c0.5,0.9,1,1.8,1.4,2.8
			c0.2,0.4,0.4,0.5,0.8,0.5c0.9,0,1.8,0,2.6,0c0.4,0,0.5,0.1,0.6,0.5c0.3,0.9,0.6,1.7,0.8,2.6c0.1,0.3,0.2,0.4,0.5,0.5
			c1,0.1,1.9,0.3,2.8,0.5c0.3,0,0.4,0.2,0.5,0.5c0.1,0.9,0.3,1.8,0.4,2.7c0,0.3,0.2,0.6,0.5,0.7c0.8,0.2,1.6,0.5,2.5,0.8
			c0.4,0.1,0.6,0.3,0.6,0.8c0,0.9,0,1.7,0,2.6c0,0.4,0.1,0.5,0.4,0.7c0.9,0.5,1.9,0.9,2.8,1.4c-0.2,1.1-0.3,2.2-0.5,3.2
			c-0.1,0.3,0,0.5,0.3,0.6c0.7,0.5,1.4,1.1,2.2,1.6c0.4,0.3,0.4,0.5,0.3,0.9c-0.3,0.8-0.5,1.6-0.8,2.5c-0.1,0.4,0,0.6,0.2,0.8
			c0.7,0.6,1.3,1.3,1.9,1.9c0.2,0.2,0.2,0.4,0.1,0.7c-0.4,0.8-0.8,1.7-1.3,2.5c-0.1,0.3-0.1,0.5,0.1,0.7c0.6,0.7,1.1,1.5,1.7,2.3
			c0.2,0.3,0.2,0.5,0,0.7c-0.6,0.7-1.1,1.5-1.6,2.2c-0.2,0.3-0.2,0.5-0.1,0.8c0.4,0.8,0.8,1.6,1.3,2.4c0.2,0.3,0.1,0.5-0.1,0.8
			c-0.7,0.6-1.3,1.3-1.9,1.9c-0.2,0.2-0.3,0.4-0.2,0.7c0.3,0.9,0.6,1.8,0.9,2.6c0.1,0.3,0.1,0.5-0.2,0.7c-0.8,0.5-1.5,1.1-2.3,1.6
			c-0.3,0.2-0.4,0.4-0.3,0.8c0.2,0.9,0.3,1.8,0.4,2.7c0,0.2-0.1,0.4-0.3,0.5c-0.8,0.4-1.6,0.9-2.4,1.3c-0.3,0.2-0.5,0.3-0.5,0.7
			c0,0.9-0.1,1.9-0.1,2.8c0,0.3-0.1,0.4-0.4,0.5c-0.9,0.3-1.8,0.6-2.7,0.9c-0.3,0.1-0.5,0.3-0.5,0.6c-0.1,0.9-0.3,1.8-0.4,2.7
			c0,0.3-0.2,0.5-0.5,0.5c-0.9,0.1-1.8,0.3-2.7,0.4c-0.3,0-0.5,0.2-0.6,0.5c-0.3,0.9-0.6,1.7-0.8,2.6c-0.1,0.4-0.3,0.6-0.7,0.5
			c-0.9,0-1.7,0-2.6,0c-0.4,0-0.6,0.1-0.7,0.4c-0.4,0.8-0.8,1.7-1.3,2.5c-0.1,0.3-0.3,0.3-0.5,0.3c-1-0.2-1.9-0.3-2.9-0.4
			c-0.3-0.1-0.5,0-0.6,0.3c-0.5,0.8-1.1,1.5-1.6,2.3c-0.2,0.3-0.4,0.4-0.7,0.2c-0.9-0.3-1.7-0.5-2.6-0.9c-0.4-0.1-0.6,0-0.8,0.2
			c-0.6,0.6-1.3,1.2-1.9,1.9c-0.3,0.3-0.5,0.3-0.8,0.1c-0.8-0.4-1.6-0.8-2.4-1.2c-0.3-0.2-0.5-0.1-0.8,0.1c-0.7,0.5-1.5,1-2.2,1.6
			c-0.3,0.2-0.5,0.2-0.8,0c-0.7-0.5-1.5-1-2.2-1.6c-0.3-0.2-0.5-0.2-0.8-0.1c-0.8,0.4-1.7,0.8-2.5,1.3c-0.3,0.1-0.5,0.1-0.7-0.1
			c-0.6-0.7-1.3-1.3-1.9-1.9c-0.3-0.3-0.5-0.3-0.8-0.2c-0.8,0.3-1.7,0.6-2.5,0.9c-0.4,0.1-0.6,0-0.8-0.3c-0.5-0.7-1.1-1.4-1.6-2.2
			c-0.2-0.3-0.5-0.4-0.8-0.3c-0.9,0.2-1.8,0.3-2.7,0.4c-0.2,0-0.4-0.2-0.5-0.3c-0.4-0.8-0.9-1.6-1.3-2.4c-0.2-0.3-0.3-0.4-0.7-0.4
			c-0.9,0-1.9,0-2.8-0.1c-0.3,0-0.4-0.1-0.5-0.4c-0.3-0.9-0.6-1.7-0.8-2.6c-0.1-0.3-0.3-0.5-0.7-0.6c-0.9-0.1-1.8-0.3-2.7-0.4
			c-0.3,0-0.4-0.2-0.5-0.5c-0.1-0.9-0.3-1.9-0.5-2.8c0-0.3-0.2-0.4-0.4-0.5c-0.9-0.3-1.7-0.6-2.6-0.8c-0.5-0.1-0.6-0.3-0.5-0.8
			c0-0.8,0-1.7,0-2.5c0-0.4-0.1-0.6-0.5-0.8c-0.8-0.4-1.6-0.8-2.4-1.2c-0.3-0.1-0.4-0.3-0.3-0.6c0.2-0.9,0.3-1.9,0.4-2.8
			c0-0.2-0.1-0.5-0.3-0.6c-0.7-0.6-1.5-1.1-2.3-1.7c-0.2-0.2-0.3-0.3-0.2-0.6c0.3-0.8,0.5-1.7,0.8-2.5c0.2-0.4,0.1-0.7-0.3-1
			c-0.6-0.6-1.2-1.3-1.9-1.9c-0.2-0.2-0.2-0.4-0.1-0.6c0.4-0.8,0.9-1.7,1.3-2.5c0.1-0.3,0.1-0.5-0.1-0.7c-0.5-0.7-1-1.5-1.6-2.2
			c-0.3-0.3-0.2-0.6,0-0.9c0.5-0.7,1-1.5,1.6-2.2c0.2-0.2,0.2-0.5,0.1-0.7c-0.4-0.8-0.8-1.6-1.3-2.4c-0.2-0.3-0.1-0.6,0.1-0.8
			c0.6-0.6,1.3-1.3,1.9-1.9c0.2-0.2,0.3-0.4,0.2-0.8c-0.3-0.9-0.6-1.8-0.9-2.6c-0.1-0.3-0.1-0.5,0.2-0.7c0.8-0.5,1.5-1.1,2.3-1.6
			c0.2-0.2,0.4-0.3,0.3-0.6C47.3,34.2,47.1,33.1,47,32z M47.3,50c-0.1,18.9,15.2,35.2,35.2,35.3c19.5,0,35.2-15.7,35.2-35.2
			c0-20-16.2-35.1-35-35.2C63.2,14.7,47.3,30.6,47.3,50z"/>
		<path class="st1" d="M116.9,50.1c0,19-15.5,34.4-34.5,34.4c-18.7,0-34.6-15.4-34.4-34.9c0.2-18.6,15.5-34.2,35-34
			C101.9,15.9,117,31.3,116.9,50.1z M57.9,50c-0.1,13.2,10.6,24.6,24.5,24.7c13.7,0.1,24.8-11,24.8-24.6c0-14-11.4-24.5-24.3-24.7
			C69.1,25.2,57.8,36.5,57.9,50z M54.3,58.7c0.9-0.5,1.6-0.9,2.4-1.3c0.5-0.3,0.6-0.5,0.3-1.1c-0.1-0.4-0.3-0.4-0.7-0.3
			c-1.5,0.5-3.1,0.9-4.6,1.4c-0.3,0.1-0.5,0.2-0.4,0.5c0.1,0.3,0.2,0.6,0.6,0.5c0.4-0.1,0.8-0.2,1.2-0.3c-0.3,0.3-0.7,0.5-1.1,0.6
			c-0.3,0.1-0.4,0.3-0.3,0.6c0.1,0.3,0.2,0.6,0.6,0.5c0.4-0.1,0.8-0.1,1.1-0.1c-0.4,0.2-0.8,0.3-1.1,0.4c-0.3,0.1-0.4,0.3-0.2,0.6
			c0.1,0.2,0.1,0.6,0.5,0.5c1.6-0.5,3.3-1,4.9-1.4c0.3-0.1,0.4-0.2,0.3-0.5c-0.1-0.2-0.1-0.3-0.1-0.5c-0.1-0.3-0.2-0.4-0.5-0.3
			C56.3,58.5,55.4,58.6,54.3,58.7z M57.3,33.6C57.3,33.6,57.3,33.6,57.3,33.6c-0.7-0.1-1.3-0.2-1.9-0.4c-0.6-0.2-0.6,0.4-0.9,0.7
			c-0.2,0.3,0.1,0.4,0.3,0.5c1.4,0.8,2.8,1.7,4.1,2.5c0.4,0.3,0.5,0,0.7-0.2c0.2-0.3,0.2-0.5-0.1-0.7c-0.7-0.4-1.3-0.8-1.9-1.2
			c0.8,0.1,1.6,0.3,2.4,0.5c0.5,0.1,0.6-0.3,0.7-0.6c0-0.1-0.1-0.4-0.3-0.5c-1.4-0.9-2.8-1.7-4.2-2.6c-0.4-0.3-0.5,0-0.7,0.3
			c-0.2,0.3-0.2,0.5,0.1,0.6C56.3,32.9,56.8,33.2,57.3,33.6z M62.7,72.1C62.8,72.1,62.8,72.2,62.7,72.1c-0.3,0.8-0.6,1.5-0.9,2.3
			c-0.2,0.5,0.2,0.6,0.5,0.8c0.1,0.1,0.4,0,0.5-0.2c1.1-1.2,2.1-2.4,3.2-3.6c0.3-0.3,0.3-0.5,0-0.8c-0.3-0.3-0.5-0.2-0.8,0.1
			c-0.3,0.4-0.7,0.8-1.1,1.2c0.2-0.6,0.5-1.2,0.7-1.8c0.1-0.2,0.1-0.4,0-0.5c-0.2-0.2-0.4-0.4-0.7-0.6c-0.1,0.2-0.2,0.3-0.3,0.4
			c-1.1,1.2-2.1,2.4-3.2,3.6c-0.3,0.3-0.2,0.4,0,0.7c0.3,0.2,0.5,0.4,0.8,0C61.8,73.2,62.3,72.7,62.7,72.1z M113.8,56.5
			c-0.4-0.1-0.8-0.2-1.3-0.2c-0.5,0-0.9,0-1.4-0.1c-0.1,0-0.2,0-0.3-0.1c-0.5-0.2-0.9-0.4-1.4-0.6c-0.7-0.2-1.3,0.1-1.6,0.9
			c-0.1,0.4-0.2,0.9-0.3,1.3c0,0.1,0.1,0.3,0.2,0.4c1.7,0.4,3.3,0.8,5,1.2c0.4,0.1,0.4-0.1,0.5-0.4c0-0.3,0.2-0.6-0.2-0.7
			c-0.5-0.1-0.9-0.2-1.3-0.3c-0.2-0.1-0.4-0.2-0.4-0.3c0-0.3,0.3-0.4,0.6-0.3c0.3,0.1,0.5,0.1,0.8,0.2
			C113.6,57.7,113.9,57.5,113.8,56.5z M87.9,23.8c0-0.4,0-0.7,0-1c0.1-0.6,0.2-1.2,0-1.8c0-0.1,0-0.2,0.1-0.3
			c0.4-0.5,0.4-1.1,0.5-1.6c0-0.7-0.3-1.1-1-1.3c-0.4-0.1-0.8-0.1-1.1-0.2c-0.4-0.1-0.5,0.1-0.6,0.4c-0.2,1.6-0.5,3.1-0.7,4.7
			c-0.1,0.3-0.1,0.6,0.4,0.7c0.5,0.1,0.7,0,0.7-0.5c0-0.6,0.2-1.1,0.2-1.7c0.5,0.1,0.7,0.3,0.6,0.8c-0.1,0.3-0.1,0.7-0.2,1
			c0,0.4,0.1,0.6,0.5,0.6C87.5,23.8,87.7,23.8,87.9,23.8z M56.9,68.5c0.2-0.1,0.5-0.1,0.7-0.3c0.8-0.5,1.6-1,2.4-1.6
			c0.8-0.6,1-1.3,0.5-2.1c-0.5-0.7-1.3-0.9-2.1-0.4c-0.8,0.5-1.6,1-2.3,1.5c-0.2,0.1-0.3,0.3-0.5,0.4c-0.4,0.4-0.4,0.9-0.2,1.4
			C55.8,68.1,56.1,68.5,56.9,68.5z M57.2,42.9c0-0.7-0.4-1.2-1.1-1.3c-1.3-0.3-2.6-0.6-3.9-1c-0.4-0.1-0.5,0.1-0.5,0.4
			c-0.1,0.3-0.1,0.5,0.3,0.6c0.6,0.1,1.1,0.3,1.6,0.4c0.7,0.2,1.4,0.3,2.1,0.5c0.2,0,0.3,0.3,0.4,0.5c-0.2,0.1-0.4,0.2-0.6,0.2
			c-0.1,0-0.1,0-0.2-0.1c-1.2-0.3-2.4-0.6-3.6-0.9c-0.4-0.1-0.5,0.1-0.6,0.4c-0.1,0.3-0.2,0.5,0.2,0.6c1.4,0.3,2.7,0.7,4.1,1
			C56.5,44.6,57.2,43.9,57.2,42.9z M111,41.3c1.2-0.5,1.2-0.5,1.6,0.7c0,0.1,0,0.2,0.1,0.2c0.1,0.1,0.1,0.2,0.2,0.2
			c0.5,0.1,0.8-0.3,0.7-0.8c0-0.1,0-0.2,0-0.3c0.4,0.2,0.7,0.3,1.1,0.5c0-0.9-0.1-1.1-0.9-1.4c-0.2-0.1-0.4-0.4-0.7-0.5
			c-0.1-0.1-0.3-0.2-0.5-0.2c-1.6,0.4-3.2,0.9-4.9,1.3c-0.3,0.1-0.3,0.2-0.3,0.5c0.2,0.6,0.4,1.2,0.5,1.8c0.1,0.4,0.3,0.4,0.6,0.3
			c0.3-0.1,0.5-0.2,0.4-0.6c-0.1-0.4-0.2-0.7-0.3-1.1c0.5-0.1,0.9-0.2,1.3-0.4c0.1,0.3,0.2,0.6,0.3,0.9c0,0.1,0.1,0.2,0.2,0.3
			c0.5,0.1,0.8-0.3,0.7-0.8C111.1,41.8,111,41.6,111,41.3z M96,22.6c0.2,0.1,0.4,0.3,0.6,0.3c0.1,0,0.3,0,0.4-0.1
			c0.5-0.7,0.3-1.6-0.4-2c-0.8-0.5-1.5-0.3-2,0.4c-0.3,0.5-0.5,1-0.3,1.6c0.1,0.3,0.3,0.7,0.4,1c0.1,0.3,0.1,0.7,0,1
			c0,0.1-0.3,0.2-0.4,0.2c-0.1,0-0.2-0.3-0.2-0.4c0-0.1,0.1-0.3,0.1-0.4c0-0.1-0.1-0.4-0.2-0.4c-0.2-0.1-0.6-0.2-0.7-0.1
			c-0.6,0.6-0.5,1.7,0.2,2.2c0.4,0.3,0.9,0.5,1.5,0.2c0.6-0.3,1-0.8,1-1.5c0-0.5-0.2-1.1-0.4-1.6c-0.1-0.4-0.3-0.8,0-1.2
			c0.1-0.1,0.3-0.2,0.4-0.2c0.1,0,0.2,0.3,0.2,0.4C96.2,22.2,96.1,22.4,96,22.6z M69.7,23.7c0,0-0.1,0-0.1,0.1
			c-0.5-0.7-1-1.4-1.6-2.1c-0.4-0.5-0.5-0.6-1.1-0.2c-0.1,0.1-0.1,0.3-0.1,0.4c1,1.4,2.1,2.8,3.2,4.2c0.1,0.1,0.3,0.1,0.5,0.1
			c0.2,0,0.4-0.1,0.5-0.3c0.1-0.1,0.3-0.3,0.2-0.5c-0.5-1.7-1-3.4-1.5-5c0-0.1-0.2-0.2-0.2-0.2c-0.4,0-0.8,0.4-0.7,0.8
			C69.2,21.9,69.4,22.8,69.7,23.7z M77.2,79.8c0.8,0,1.2-0.3,1.5-1c0.1-0.4,0.2-0.8,0.3-1.2c0.1-0.7-0.3-1.3-1-1.5
			c-0.4-0.1-0.7-0.1-1.1-0.2c-0.4-0.1-0.5,0-0.6,0.4c-0.3,1.6-0.6,3.2-0.9,4.8c-0.1,0.4,0.1,0.5,0.4,0.5c0.3,0,0.6,0.1,0.7-0.3
			c0.1-0.4,0.2-0.7,0.2-1.1C76.6,79.9,76.7,79.7,77.2,79.8z M84.4,77.6c0.4,0,0.8-0.1,1.3-0.1c0.4-0.1,0.3-0.4,0.3-0.7
			c0-0.3-0.1-0.4-0.5-0.4c-0.5,0.1-1.1,0.1-1.6,0.1c-0.7,0.1-0.7,0.1-0.7,0.8c0.1,1.5,0.3,3.1,0.4,4.6c0,0.4,0.2,0.5,0.5,0.5
			c0.5,0,1.1-0.1,1.6-0.1c0.4,0,0.6-0.1,0.6-0.6c-0.1-0.5-0.3-0.5-0.7-0.4c-0.2,0-0.5,0-0.7,0c-0.1,0-0.2-0.1-0.2-0.2
			c-0.3-0.8-0.1-1.1,0.7-1.2c0,0,0,0,0,0c0.4,0,0.4-0.3,0.4-0.6c0-0.3-0.2-0.5-0.5-0.5c-0.3,0-0.5,0.1-0.8,0.1
			C84.5,78.4,84.5,78,84.4,77.6z M78,22.6c-0.1-0.5-0.1-0.9-0.2-1.3c0.3-0.1,0.6-0.1,0.9-0.2c0.1,0,0.3-0.1,0.3-0.2
			c0.1-0.5-0.1-0.8-0.7-0.8c-0.1,0-0.2,0-0.3,0c-0.3,0.1-0.4,0-0.4-0.3c0-0.1-0.1-0.3-0.1-0.4c-0.1-0.3,0-0.6,0.4-0.6
			c0.2,0,0.5-0.1,0.7-0.1c0.3-0.1,0.4-0.2,0.3-0.5c-0.1-0.3,0-0.6-0.5-0.5c-0.6,0.1-1.2,0.2-1.8,0.3c-0.4,0-0.5,0.3-0.4,0.6
			c0.3,1.6,0.5,3.1,0.7,4.7c0.1,0.5,0.3,0.5,0.7,0.5c0.6-0.1,1.1-0.2,1.7-0.3c0.4,0,0.4-0.3,0.3-0.6c0-0.3-0.1-0.5-0.5-0.5
			C78.9,22.5,78.5,22.6,78,22.6z M105.9,62c-0.3,0.6-0.7,1.2-1,1.8c-0.2,0.3-0.1,0.5,0.2,0.7c1.4,0.8,2.9,1.6,4.3,2.4
			c0.3,0.2,0.4,0.1,0.6-0.1c0.3-0.6,0.6-1.1,0.9-1.7c0.2-0.4,0-0.5-0.3-0.6c-0.3-0.1-0.5-0.3-0.7,0.1c-0.2,0.3-0.4,0.7-0.6,1
			c-0.4-0.2-0.8-0.5-1.2-0.7c0.2-0.4,0.5-0.7,0.5-1c0-0.2-0.4-0.4-0.7-0.7c-0.3,0.5-0.5,0.8-0.7,1.2c-0.4-0.2-0.7-0.4-1.1-0.6
			c0.1-0.3,0.2-0.5,0.4-0.7c0.4-0.8,0.4-0.8-0.4-1.1C106.1,62,106.1,62,105.9,62z M71.1,75.2c0.2,0.1,0.4,0.2,0.6,0.3
			c0.4,0.2,0.4-0.2,0.6-0.4c0.1-0.2,0.1-0.4-0.1-0.5c-0.7-0.3-1.4-0.7-2.1-1c-0.3-0.1-0.5-0.1-0.6,0.2c-0.1,0.3-0.4,0.6,0.1,0.7
			c0.5,0.2,0.4,0.4,0.2,0.8c-0.6,1.1-1.1,2.2-1.6,3.4c-0.1,0.1-0.1,0.4,0,0.5c0.5,0.4,0.8,0.4,1-0.2C69.9,77.6,70.5,76.4,71.1,75.2z
			 M108.1,32.2c-0.2,0.1-0.4,0.3-0.5,0.4c-1,0.7-2,1.3-3.1,2c-0.4,0.3-0.3,0.5-0.1,0.8c0.2,0.3,0.4,0.4,0.7,0.2
			c0.4-0.3,0.9-0.6,1.3-0.8c0.8-0.5,1.5-1,2.3-1.5c0.1,0.2,0.2,0.3,0.3,0.5c0.2,0.3,0.4,0.3,0.6,0.1c0.2-0.2,0.5-0.3,0.3-0.6
			c-0.4-0.6-0.8-1.3-1.2-1.9c-0.2-0.2-0.3-0.3-0.6-0.1c-0.5,0.3-0.5,0.3-0.2,0.9C108,32,108.1,32.1,108.1,32.2z M92.7,79.7
			c-0.1-0.2-0.1-0.3-0.2-0.4c-0.4-1.2-0.9-2.4-1.3-3.7c-0.1-0.4-0.4-0.3-0.7-0.2c-0.3,0.1-0.6,0.1-0.4,0.6c0.6,1.6,1.1,3.2,1.7,4.8
			c0,0.1,0.3,0.3,0.4,0.2c0.6-0.2,1.2-0.4,1.8-0.6c0.4-0.1,0.3-0.4,0.2-0.7c-0.1-0.3-0.3-0.4-0.6-0.3C93.3,79.4,93,79.5,92.7,79.7z
			 M99.7,76.1c-0.1-0.2-0.3-0.4-0.4-0.5c-0.7-1-1.4-2.1-2.1-3.1c-0.2-0.3-0.4-0.3-0.6-0.1c-0.2,0.2-0.6,0.2-0.3,0.6
			c1,1.4,1.9,2.9,2.9,4.3c0.1,0.1,0.3,0.2,0.4,0.1c0.6-0.4,1.1-0.7,1.7-1.1c0.3-0.2,0-0.4-0.1-0.6c-0.1-0.2-0.2-0.4-0.5-0.2
			C100.4,75.7,100.1,75.9,99.7,76.1z M102.1,67.8c-0.8,0.6-0.9,0.7-0.2,1.3c1.1,1,2.2,2,3.3,3.1c0.3,0.3,0.5,0.2,0.7-0.1
			c0.2-0.2,0.5-0.4,0.1-0.8c-0.9-0.8-1.7-1.6-2.6-2.4C103,68.6,102.6,68.2,102.1,67.8z M104.1,25.9c-0.2-0.2-0.4-0.4-0.6-0.6
			c-0.1,0-0.3,0.1-0.4,0.2c-1.1,1.2-2.2,2.4-3.3,3.6c-0.3,0.3-0.2,0.5,0.1,0.8c0.3,0.2,0.4,0.3,0.7,0c1.1-1.2,2.2-2.5,3.3-3.7
			C103.9,26.2,104,26.1,104.1,25.9z M64.4,30.6c0.3-0.3,0.5-0.5,0.7-0.7c-0.1-0.1-0.1-0.2-0.2-0.3c-1.1-1.2-2.3-2.4-3.4-3.7
			c-0.3-0.3-0.4-0.3-0.7,0c-0.2,0.2-0.5,0.4-0.1,0.8c1,1,2,2.1,3,3.2C63.9,30.1,64.1,30.3,64.4,30.6z M53,50.9
			c0.5,0,0.8-0.4,0.8-0.9c0-0.5-0.4-0.8-0.9-0.8c-0.5,0-0.9,0.4-0.8,0.9C52.2,50.5,52.6,50.9,53,50.9z M112,50.9
			c0.5,0,0.9-0.4,0.8-0.9c0-0.5-0.4-0.8-0.8-0.8c-0.5,0-0.8,0.4-0.8,0.9C111.2,50.5,111.6,50.9,112,50.9z"/>
		<path class="st1" d="M106.3,50.1c0.1,13.1-10.8,23.9-23.9,23.9c-12.8,0-24-10.5-23.8-24.3C58.8,36.8,69.4,25.9,83,26.2
			C96,26.4,106.4,37.2,106.3,50.1z M76,43.6c0.9,2.4,1.7,4.7,2.7,7c0.1-0.2,0.2-0.2,0.2-0.2c0.9-2.4,1.8-4.7,2.7-7.1
			c0.1-0.2,0.1-0.4,0-0.6c-1-2.6-2-5.2-3-7.8c-0.5-1.2-1.5-1.9-2.6-1.9c-1.2,0-2.2,0.7-2.7,1.9c-0.2,0.6-0.5,1.2-0.7,1.9
			c-2.5,6.6-5,13.2-7.5,19.8c-0.8,2.2-0.7,4.5,0.7,6.5c1.8,2.7,5.3,4.1,8.8,3.4c3.9-0.8,6.6-3.2,8-6.9c2-5.1,3.9-10.3,5.9-15.5
			c0-0.1,0.1-0.2,0.2-0.4c0.8,2,1.5,3.9,2.2,5.8c1.7,4.5,3.4,9.1,5.1,13.6c0.6,1.5,2.1,2.2,3.6,1.7c1.5-0.6,2.2-2.1,1.6-3.7
			C98,52.3,94.7,43.6,91.4,35c-0.5-1.3-1.5-2-2.7-2c-1.2,0-2.2,0.7-2.7,2c-2.8,7.4-5.6,14.8-8.3,22.1c-0.4,0.9-0.8,1.8-1.5,2.5
			c-1.3,1.3-3,1.7-4.6,1.1c-1-0.4-1.4-1-1.2-2c0-0.3,0.2-0.5,0.3-0.8c1.3-3.4,2.6-6.7,3.8-10.1C74.9,46.4,75.4,45,76,43.6z
			 M82.2,41.8c0.1,0,0.2,0,0.3,0c0.1-0.5,0.3-1,0.3-1.6c0-2.6-0.1-5.2-0.1-7.8c0-1.6,0-3.1,0-4.7c0-0.2,0-0.4-0.1-0.5
			c0-0.1-0.2-0.2-0.3-0.2c-0.1,0.1-0.2,0.2-0.2,0.3c0,0.4-0.1,0.8-0.1,1.1C82.1,31,82,33.6,82,36.2c0,1.4-0.1,2.8-0.1,4.1
			C81.9,40.8,82.1,41.3,82.2,41.8z M96.5,45.5c0.2-0.1,0.3-0.1,0.4-0.1c1.5-0.6,2.9-1.1,4.4-1.7c0.9-0.3,1.7-0.6,2.6-1
			c0.2-0.1,0.3-0.3,0.4-0.4c-0.2,0-0.4-0.1-0.6-0.1c-1.8,0.6-3.5,1.2-5.3,1.8c-0.6,0.2-1.3,0.4-1.9,0.7c-0.1,0-0.2,0.3-0.2,0.4
			C96.2,45.2,96.4,45.3,96.5,45.5z M97.1,47.1c0.1,0.7,0.2,0.8,0.8,0.7c1.8-0.4,3.7-0.7,5.5-1.1c0.5-0.1,1-0.2,1.5-0.3
			c0.1,0,0.2-0.2,0.4-0.3c-0.1-0.1-0.3-0.1-0.4-0.2c0,0-0.1,0-0.1,0c-2,0.3-3.9,0.6-5.9,0.9C98.2,46.9,97.6,47,97.1,47.1z M61,42
			c-0.1,0.1-0.2,0.1-0.2,0.2c0,0.1,0.1,0.3,0.1,0.3c0.3,0.1,0.6,0.2,0.9,0.4c2,0.8,4.1,1.6,6.1,2.4c0.2,0.1,0.5,0.2,0.6-0.2
			c0.2-0.4,0-0.5-0.3-0.6c-2.3-0.8-4.6-1.6-6.9-2.4C61.2,42.1,61.1,42.1,61,42z M95.5,43c0.2-0.1,0.3-0.2,0.4-0.2
			c1.1-0.6,2.1-1.3,3.2-1.9c1.1-0.6,2.1-1.3,3.2-1.9c0.1-0.1,0.1-0.2,0.2-0.4c-0.2,0-0.3-0.1-0.5-0.1c-0.1,0-0.2,0.1-0.3,0.2
			c-2,1.1-4,2.2-6.1,3.4C95.1,42.3,95.1,42.4,95.5,43z M67.7,47.1c-0.5-0.1-1-0.2-1.4-0.2c-2-0.3-4-0.6-6-0.9
			c-0.2,0-0.4,0.1-0.5,0.2c0.1,0.1,0.3,0.3,0.4,0.3c2.2,0.5,4.5,0.9,6.7,1.3C67.5,47.9,67.5,47.9,67.7,47.1z M69.3,42.9
			c0.4-0.7,0.4-0.7-0.2-1c-2-1.1-4-2.2-6-3.3c-0.2-0.1-0.4,0-0.6,0c0.1,0.2,0.2,0.4,0.4,0.5c2,1.2,3.9,2.4,5.9,3.6
			C68.9,42.7,69.1,42.8,69.3,42.9z M86.7,27.6c0-0.1-0.1-0.2-0.2-0.3c-0.1,0.1-0.2,0.2-0.3,0.3c0,0,0,0.1,0,0.1
			c-0.4,2.3-0.9,4.6-1.3,6.9c0,0.2,0.1,0.4,0.2,0.5c0.1-0.1,0.3-0.2,0.4-0.4c0.5-0.9,0.5-1.9,0.7-2.9C86.3,30.6,86.5,29.2,86.7,27.6
			z M80.2,35.1c0-0.2,0-0.3,0-0.3c-0.5-2.3-0.9-4.7-1.4-7c0-0.1-0.2-0.3-0.3-0.4c-0.1,0.2-0.2,0.3-0.2,0.5c0.2,1.6,0.5,3.3,0.8,4.9
			c0.1,0.8,0.4,1.5,0.6,2.3c0,0.1,0.2,0.2,0.3,0.2C80.1,35.2,80.2,35.1,80.2,35.1z M98,49.7c0.1,0.8,0.2,0.8,0.9,0.8
			c1.4,0,2.7,0,4.1-0.1c0.8,0,1.5,0,2.3-0.1c0.1,0,0.2-0.1,0.3-0.2c-0.1-0.1-0.2-0.2-0.3-0.3c-0.1,0-0.2,0-0.3,0
			c-1.6,0-3.2-0.1-4.8-0.1C99.5,49.7,98.8,49.7,98,49.7z M94.6,40.5c0.2-0.1,0.3-0.2,0.4-0.3c0.6-0.6,1.3-1.1,1.9-1.7
			c1.1-0.9,2.1-1.8,3.1-2.8c0.1-0.1,0.1-0.3,0.1-0.4c-0.1,0-0.3,0-0.4,0.1c-0.1,0-0.1,0.1-0.2,0.2c-1.6,1.3-3.3,2.6-4.9,3.9
			C94.2,39.7,94.2,40,94.6,40.5z M66.7,49.8c-0.1,0-0.2-0.1-0.4-0.1c-2.2,0-4.3,0.1-6.5,0.1c-0.1,0-0.3,0.2-0.4,0.3
			c0.2,0.1,0.3,0.2,0.5,0.2c2,0.1,4,0.1,6,0.2C66.4,50.5,66.6,50.4,66.7,49.8z M70.2,40.3c0.3-0.5,0.4-0.7-0.1-1.1
			c-1.6-1.3-3.2-2.6-4.9-3.9c-0.1-0.1-0.4-0.1-0.5-0.1c0.1,0.2,0.1,0.4,0.2,0.5c1.2,1.1,2.4,2.2,3.7,3.2
			C69.2,39.4,69.7,39.8,70.2,40.3z M93.4,37.5c0.1-0.1,0.1-0.1,0.2-0.1c1.2-1.5,2.5-3.1,3.7-4.6c0.1-0.1,0-0.3,0-0.4
			c-0.2,0-0.4,0-0.4,0.1c-1.2,1.3-2.3,2.6-3.5,3.9C93.1,36.8,93.1,37.1,93.4,37.5z M99.2,52.7c0,0.6,0.3,0.8,0.7,0.9
			c1.6,0.2,3.2,0.5,4.9,0.7c0.2,0,0.3-0.1,0.5-0.2c-0.1-0.1-0.2-0.3-0.4-0.3c-1.3-0.3-2.7-0.5-4-0.8C100.3,52.9,99.8,52.8,99.2,52.7
			z M71.4,37.4c0.3-0.4,0.3-0.7,0-1.1c-1.1-1.2-2.1-2.4-3.2-3.7c-0.1-0.1-0.4-0.3-0.5-0.2c-0.3,0.2,0,0.4,0.1,0.6
			c1.1,1.3,2.1,2.7,3.2,4C71.1,37.1,71.2,37.2,71.4,37.4z M65.5,52.8c-0.1,0-0.2,0-0.2,0c-1.8,0.3-3.6,0.7-5.3,1
			c-0.1,0-0.2,0.2-0.3,0.3c0.2,0.1,0.3,0.2,0.5,0.2c1.6-0.2,3.1-0.5,4.7-0.7C65.4,53.5,65.5,53.2,65.5,52.8z M92.1,34
			c0.1-0.1,0.2-0.2,0.2-0.3c0.6-1,1.2-2.1,1.7-3.1c0.1-0.1,0-0.3,0-0.5c-0.1,0.1-0.3,0.2-0.4,0.3c-0.6,0.9-1.1,1.9-1.7,2.8
			C91.7,33.5,91.8,33.7,92.1,34z M72.8,33.8c0.3-0.3,0.5-0.5,0.3-0.8c-0.6-0.9-1.1-1.8-1.7-2.7c-0.1-0.1-0.3-0.2-0.4-0.2
			c0,0.2-0.1,0.4,0,0.5c0.5,0.9,1,1.8,1.5,2.7C72.5,33.5,72.6,33.6,72.8,33.8z M90.6,28.7c0.1-0.1,0.1-0.1,0.2-0.2
			c-0.1,0-0.3-0.1-0.4-0.1c-0.1,0-0.3,0.2-0.3,0.3c-0.4,0.9-0.7,1.9-1.1,2.8c-0.1,0.2-0.3,0.4,0.1,0.6c0.4,0.1,0.5-0.1,0.6-0.4
			c0.3-0.9,0.6-1.8,0.9-2.7C90.5,28.8,90.5,28.8,90.6,28.7z M76.2,31.9c-0.4-1.1-0.9-2.2-1.3-3.3c0-0.1-0.2-0.1-0.3-0.2
			c0,0.1-0.2,0.3-0.1,0.4c0.3,1,0.7,2,1,3C75.6,32.1,75.8,32.1,76.2,31.9z M100.6,56.4c-0.1,0.1-0.1,0.1-0.2,0.2
			c0.2,0.2,0.3,0.5,0.5,0.6c1,0.4,1.9,0.7,2.9,1c0.1,0,0.2-0.1,0.4-0.1c-0.1-0.1-0.1-0.3-0.2-0.4c-0.8-0.3-1.5-0.6-2.3-0.9
			C101.3,56.6,101,56.5,100.6,56.4z M64.1,56.5c-0.2,0-0.3,0.1-0.4,0.1c-0.8,0.3-1.7,0.6-2.5,1c-0.1,0.1-0.2,0.2-0.4,0.4
			c0.2,0,0.4,0.2,0.5,0.1c0.8-0.2,1.6-0.5,2.4-0.8C64,57.2,64.2,57,64.1,56.5z"/>
		<path class="st1" d="M108.7,57.2c0.1-0.2,0.3-0.5,0.3-0.5c0.4,0,0.8,0.1,1.1,0.3c0.1,0,0,0.3,0.1,0.6
			C109.7,57.5,109.3,57.4,108.7,57.2z"/>
		<path class="st1" d="M86.8,18.8c0.1,0.1,0.4,0.3,0.4,0.4c0,0.4-0.1,0.7-0.2,1.1c0,0-0.3,0-0.4,0c-0.1,0-0.1-0.2-0.1-0.3
			c0-0.4,0.1-0.7,0.2-1.1C86.8,18.8,86.8,18.8,86.8,18.8z"/>
		<path class="st1" d="M56.8,67.4c-0.1-0.1-0.3-0.2-0.3-0.3c0-0.1,0-0.3,0.2-0.4c0.3-0.3,0.7-0.5,1-0.7c0.5-0.3,1-0.6,1.5-0.9
			c0.1-0.1,0.4,0,0.6,0c-0.1,0.2,0,0.5-0.2,0.5c-0.8,0.6-1.6,1.1-2.5,1.6C57,67.4,56.9,67.4,56.8,67.4z"/>
		<path class="st1" d="M76.9,78.9c0.1-0.6,0.2-1,0.3-1.4c0-0.1,0.2-0.2,0.3-0.2c0.1,0,0.4,0.2,0.3,0.3c0,0.4-0.1,0.8-0.2,1.2
			C77.5,78.7,77.2,78.7,76.9,78.9z"/>
	</g>
</g>
</svg>
