<?xml version="1.0" encoding="utf-8"?>
<!-- Generator: Adobe Illustrator 26.2.0, SVG Export Plug-In . SVG Version: 6.00 Build 0)  -->
<svg version="1.1" id="Calque_1" xmlns="http://www.w3.org/2000/svg" xmlns:xlink="http://www.w3.org/1999/xlink" x="0px" y="0px"
	 viewBox="0 0 165 100" style="enable-background:new 0 0 165 100;" xml:space="preserve">
<style type="text/css">
	.st0{fill:#0E7370;}
	.st1{fill:#7BC2E7;}
	.st2{fill:#FFFFFF;stroke:#41ACE2;stroke-width:18;stroke-miterlimit:10;}
	.st3{fill:#175080;}
	.st4{fill:#036A76;}
</style>
<g>
	<path class="st0" d="M115.2,54.1c0-7.6,0.1-15.2,0-22.9c-0.1-10.6-9.8-19-20.4-18.2c-7.3,0.5-14.6,0.2-21.9,0.3
		c-6.7,0.1-10.5,3.5-10.5,9.4c0,5.6,4.1,9.4,10.5,9.6c4.3,0.1,8.5,0,12.8,0c6.7,0.1,10.4,3.8,10.5,10.5c0.1,11.4,0,22.9,0.1,34.3
		c0.1,6.2,3.2,9.9,8.6,10.6c5.5,0.7,10.2-3.2,10.3-9C115.3,70.6,115.2,62.4,115.2,54.1C115.2,54.1,115.2,54.1,115.2,54.1z"/>
	<path class="st1" d="M141.9,22.5c-0.1-5.3-4.3-9.5-9.6-9.5c-5.1,0-9.5,4.4-9.5,9.6c0,5.4,4.5,9.8,9.9,9.7
		C138,32.1,142,27.9,141.9,22.5z"/>
	<path class="st2" d="M71.6,23.7"/>
	<path class="st3" d="M75,59.7c0,15.3-13.7,27.7-30.4,27.7c-4.5,0-8.8-0.9-12.8-2.6c-4-1.7-5.8-6.2-4.1-10.2c1.7-4,6.2-5.8,10.2-4.1
		c2.1,0.9,4.4,1.3,6.8,1.3c8.2,0,14.8-5.4,14.8-12.1c0-6.7-6.7-12.1-14.8-12.1H31.8c-4.3,0-7.8-3.5-7.8-7.8s3.5-7.8,7.8-7.8h12.8
		c0.9,0,1.8,0,2.6,0.1C62.8,33.3,75,45.2,75,59.7z"/>
	<path class="st4" d="M47.2,32.1c-0.9-0.1-1.7-0.1-2.6-0.1h1.3C46.3,31.9,46.8,32,47.2,32.1z"/>
</g>
</svg>
