<?xml version="1.0" encoding="utf-8"?>
<!-- Generator: Adobe Illustrator 26.2.0, SVG Export Plug-In . SVG Version: 6.00 Build 0)  -->
<svg version="1.1" id="Calque_1" xmlns="http://www.w3.org/2000/svg" xmlns:xlink="http://www.w3.org/1999/xlink" x="0px" y="0px"
	 viewBox="0 0 165 100" style="enable-background:new 0 0 165 100;" xml:space="preserve">
<style type="text/css">
	.st0{fill:#838382;}
	.st1{fill:#BCB1AB;}
	.st2{fill:#CCCCCC;}
</style>
<g>
	<g>
		<path class="st0" d="M6.5,74.6c0,2,0,3.1,0.3,3.4c0.3,0.2,0.7,0.3,1.9,0.3c0.9,0,1.5,0,1.9-0.4c0.2-0.2,0.4-0.6,0.4-1
			c0-0.1,0-0.2,0.2-0.2c0.1,0,0.1,0.1,0.1,0.3c0,0.2-0.1,1.4-0.2,1.8c-0.1,0.3-0.2,0.4-1,0.4c-1.1,0-2,0-2.7,0s-1.3,0-2,0
			c-0.2,0-0.5,0-0.9,0c-0.4,0-0.8,0-1.1,0c-0.2,0-0.3,0-0.3-0.2c0-0.1,0.1-0.1,0.3-0.1c0.2,0,0.4,0,0.6-0.1c0.3-0.1,0.4-0.4,0.5-0.9
			c0.1-0.7,0.1-1.9,0.1-3.4v-2.8c0-2.4,0-2.9,0-3.4c0-0.6-0.2-0.8-0.7-0.9c-0.1,0-0.3,0-0.5,0c-0.2,0-0.3,0-0.3-0.1
			c0-0.1,0.1-0.1,0.3-0.1c0.8,0,1.7,0,2.2,0c0.4,0,1.5,0,2.2,0c0.2,0,0.3,0,0.3,0.1c0,0.1-0.1,0.1-0.3,0.1c-0.2,0-0.4,0-0.6,0
			c-0.4,0.1-0.6,0.3-0.6,0.9c0,0.5,0,1,0,3.4C6.5,71.8,6.5,74.6,6.5,74.6z"/>
		<path class="st0" d="M14,72.9c0-2,0-2.4,0-2.9c0-0.5-0.2-0.6-0.6-0.7c-0.1,0-0.3,0-0.6,0c-0.1,0-0.2,0-0.2-0.1s0.1-0.1,0.3-0.1
			c0.7,0,1.6,0,2,0c0.4,0,3.6,0,3.8,0c0.3,0,0.5-0.1,0.6-0.1c0.1,0,0.2-0.1,0.2-0.1s0.1,0.1,0.1,0.1c0,0.1-0.1,0.3-0.1,0.9
			c0,0.1,0,0.7-0.1,0.9c0,0.1,0,0.2-0.2,0.2c-0.1,0-0.1-0.1-0.1-0.2c0-0.1,0-0.3-0.1-0.5c-0.1-0.2-0.2-0.4-0.9-0.5
			c-0.2,0-1.9-0.1-2.2-0.1c-0.1,0-0.1,0-0.1,0.1v3.4c0,0.1,0,0.1,0.1,0.1c0.3,0,2.1,0,2.5,0c0.3,0,0.6-0.1,0.7-0.2
			c0.1-0.1,0.2-0.2,0.2-0.2s0.1,0.1,0.1,0.1c0,0.1,0,0.3-0.1,1c0,0.3-0.1,0.8-0.1,0.9c0,0.1,0,0.3-0.1,0.3c-0.1,0-0.1,0-0.1-0.1
			c0-0.1,0-0.3,0-0.5c-0.1-0.3-0.3-0.5-0.8-0.5c-0.3,0-1.8-0.1-2.2-0.1c-0.1,0-0.1,0.1-0.1,0.1v1.1c0,0.5,0,1.6,0,2
			c0,0.9,0.5,1.1,1.9,1.1c0.4,0,1,0,1.3-0.2c0.3-0.2,0.5-0.4,0.6-1c0-0.1,0.1-0.2,0.2-0.2c0.1,0,0.1,0.2,0.1,0.3
			c0,0.3-0.1,1.2-0.2,1.5c-0.1,0.3-0.2,0.3-0.8,0.3c-1.1,0-1.9,0-2.6,0c-0.7,0-1.2,0-1.6,0c-0.2,0-0.5,0-0.8,0c-0.3,0-0.7,0-1,0
			c-0.2,0-0.3,0-0.3-0.1c0-0.1,0-0.1,0.2-0.1c0.2,0,0.4,0,0.5,0c0.3-0.1,0.4-0.3,0.4-0.7c0.1-0.6,0.1-1.6,0.1-2.9L14,72.9L14,72.9z"
			/>
		<path class="st0" d="M22.5,79c-0.2-0.1-0.3-0.2-0.3-0.5c0-0.7,0.1-1.6,0.1-1.8s0.1-0.3,0.2-0.3c0.1,0,0.1,0.1,0.1,0.2
			c0,0.2,0,0.5,0.1,0.7c0.3,1,1.4,1.3,2.2,1.3c1.2,0,2-0.8,2-1.7c0-0.6-0.1-1.2-1.4-1.9l-0.8-0.5c-1.7-1-2.2-1.9-2.2-3.1
			c0-1.7,1.6-2.7,3.5-2.7c0.9,0,1.6,0.1,2,0.2c0.1,0,0.2,0.1,0.2,0.2c0,0.2,0,0.6,0,1.6c0,0.3-0.1,0.4-0.2,0.4
			c-0.1,0-0.1-0.1-0.1-0.2c0-0.1-0.1-0.6-0.4-0.9c-0.2-0.3-0.6-0.6-1.6-0.6c-1,0-1.9,0.5-1.9,1.4c0,0.6,0.2,1.1,1.5,1.8l0.6,0.3
			c1.8,1,2.4,2,2.4,3.3c0,1-0.4,1.8-1.4,2.5c-0.7,0.5-1.6,0.6-2.3,0.6C24,79.4,23.1,79.3,22.5,79z"/>
		<path class="st0" d="M47,78.2c0,0.4,0,0.5-0.2,0.6c-1,0.6-2.6,0.7-3.8,0.7c-3.9,0-7.4-1.8-7.4-6.2c0-2.6,1.3-4.3,2.8-5.2
			c1.5-0.9,2.9-1,4.3-1c1.1,0,2.5,0.2,2.8,0.3c0.3,0.1,0.9,0.2,1.3,0.2c0.2,0,0.2,0.1,0.2,0.2c0,0.2-0.1,0.6-0.1,2.6
			c0,0.3,0,0.3-0.2,0.3c-0.1,0-0.1-0.1-0.2-0.2c0-0.4-0.1-0.9-0.6-1.3c-0.5-0.5-1.7-1.2-3.6-1.2c-0.9,0-2,0.1-3.1,1
			c-0.9,0.8-1.5,2-1.5,3.9c0,3.4,2.2,6,5.5,6c0.4,0,1,0,1.4-0.2c0.2-0.1,0.3-0.3,0.3-0.6v-1.5c0-0.8,0-1.4,0-1.9
			c0-0.6-0.2-0.8-0.7-0.9c-0.1,0-0.4,0-0.6,0c-0.1,0-0.2,0-0.2-0.1c0-0.1,0.1-0.2,0.3-0.2c0.8,0,1.8,0,2.3,0c0.5,0,1.3,0,1.9,0
			c0.2,0,0.3,0,0.3,0.2c0,0.1-0.1,0.1-0.2,0.1c-0.1,0-0.2,0-0.4,0c-0.4,0.1-0.6,0.3-0.6,0.9c0,0.5,0,1.1,0,1.9L47,78.2L47,78.2z"/>
		<path class="st0" d="M51,72.9c0-2,0-2.4,0-2.9c0-0.5-0.2-0.6-0.6-0.7c-0.1,0-0.3,0-0.6,0c-0.1,0-0.2,0-0.2-0.1s0.1-0.1,0.3-0.1
			c0.7,0,1.6,0,1.9,0c0.5,0,1.7,0,2.2,0c0.9,0,1.9,0.1,2.7,0.6c0.4,0.3,1,1,1,1.9c0,1-0.6,1.9-2,3c1.2,1.5,2.2,2.8,3.1,3.6
			c0.8,0.8,1.3,0.9,1.5,0.9c0.1,0,0.2,0,0.3,0c0.1,0,0.2,0.1,0.2,0.1c0,0.1-0.1,0.1-0.3,0.1h-1.3c-0.8,0-1.2-0.1-1.5-0.3
			c-0.6-0.3-1.1-0.9-1.9-2c-0.6-0.7-1.1-1.6-1.3-1.8C54.3,75,54.3,75,54.2,75l-1.3,0c-0.1,0-0.1,0-0.1,0.1v0.2c0,1.3,0,2.3,0.1,2.9
			c0,0.4,0.1,0.6,0.6,0.7c0.2,0,0.5,0,0.7,0c0.1,0,0.2,0.1,0.2,0.1c0,0.1-0.1,0.1-0.3,0.1c-0.8,0-2,0-2.2,0c-0.3,0-1.2,0-1.7,0
			c-0.2,0-0.3,0-0.3-0.1c0-0.1,0-0.1,0.2-0.1c0.2,0,0.4,0,0.5,0c0.3-0.1,0.4-0.3,0.4-0.7c0.1-0.6,0.1-1.6,0.1-2.9L51,72.9L51,72.9z
			 M52.8,73.9c0,0.1,0,0.2,0.1,0.2c0.3,0.1,0.7,0.1,1.1,0.1c0.6,0,0.8,0,1-0.2c0.4-0.3,0.9-0.9,0.9-2c0-1.9-1.3-2.4-2.1-2.4
			c-0.3,0-0.7,0-0.8,0c-0.1,0-0.1,0.1-0.1,0.2V73.9z"/>
		<path class="st0" d="M62.7,75.8c-0.1,0-0.1,0-0.1,0.1l-0.8,1.8c-0.1,0.3-0.2,0.7-0.2,0.8c0,0.2,0.1,0.4,0.6,0.4h0.2
			c0.2,0,0.2,0.1,0.2,0.1c0,0.1-0.1,0.1-0.2,0.1c-0.5,0-1.1,0-1.6,0c-0.1,0-0.9,0-1.6,0c-0.2,0-0.3,0-0.3-0.1c0-0.1,0-0.1,0.2-0.1
			c0.1,0,0.3,0,0.4,0c0.6-0.1,0.9-0.5,1.2-1.2l3.7-8.5c0.2-0.4,0.3-0.6,0.4-0.6c0.2,0,0.3,0.1,0.4,0.4c0.3,0.8,2.7,6.3,3.6,8.3
			c0.6,1.2,0.9,1.4,1.2,1.4c0.2,0,0.4,0,0.5,0c0.1,0,0.2,0,0.2,0.1c0,0.1-0.1,0.1-0.6,0.1c-0.5,0-1.5,0-2.7,0c-0.3,0-0.4,0-0.4-0.1
			c0-0.1,0-0.1,0.2-0.1c0.1,0,0.2-0.1,0.1-0.3l-1.1-2.7c0-0.1-0.1-0.1-0.1-0.1L62.7,75.8L62.7,75.8z M65.7,75.1
			C65.7,75.1,65.7,75,65.7,75.1l-1.3-3.5c0,0,0-0.1-0.1-0.1c0,0-0.1,0.1-0.1,0.1L62.9,75c0,0.1,0,0.1,0,0.1L65.7,75.1L65.7,75.1z"/>
		<path class="st0" d="M73.2,77.4c0,1.1,0.2,1.4,0.5,1.5c0.2,0.1,0.5,0.1,0.7,0.1c0.2,0,0.2,0.1,0.2,0.1c0,0.1-0.1,0.1-0.3,0.1
			c-0.9,0-1.6,0-1.8,0c-0.1,0-0.8,0-1.5,0c-0.2,0-0.3,0-0.3-0.1c0-0.1,0.1-0.1,0.2-0.1c0.2,0,0.4,0,0.6-0.1c0.4-0.1,0.4-0.5,0.4-1.6
			l0.1-8c0-0.3,0.1-0.5,0.2-0.5c0.2,0,0.4,0.2,0.6,0.4c0.2,0.2,2.3,2.3,4.3,4.3c1,0.9,2.8,2.8,3,3.1h0.1l-0.1-6
			c0-0.8-0.1-1.1-0.5-1.2c-0.2-0.1-0.6-0.1-0.7-0.1c-0.2,0-0.2-0.1-0.2-0.1c0-0.1,0.1-0.1,0.3-0.1c0.7,0,1.5,0,1.8,0
			c0.2,0,0.7,0,1.4,0c0.2,0,0.3,0,0.3,0.1c0,0.1-0.1,0.1-0.2,0.1c-0.1,0-0.3,0-0.4,0c-0.4,0.1-0.5,0.3-0.5,1.1L81.3,79
			c0,0.3-0.1,0.4-0.2,0.4c-0.2,0-0.4-0.1-0.6-0.3c-0.9-0.8-2.6-2.5-4.1-3.9c-1.5-1.5-3-3.1-3.3-3.4h0L73.2,77.4z"/>
		<path class="st0" d="M85.9,72.9c0-2,0-2.4,0-2.9c0-0.5-0.2-0.6-0.6-0.7c-0.1,0-0.3,0-0.6,0c-0.1,0-0.2,0-0.2-0.1s0.1-0.1,0.3-0.1
			c0.7,0,1.6,0,2,0c0.4,0,1.4,0,2.3,0c1.7,0,4.1,0,5.7,1.5c0.7,0.7,1.3,1.8,1.3,3.4c0,1.7-0.7,3-1.5,3.8c-0.6,0.6-2.1,1.6-4.7,1.6
			c-0.5,0-1.1,0-1.7-0.1c-0.6,0-1.1-0.1-1.4-0.1c-0.2,0-0.5,0-0.8,0c-0.3,0-0.7,0-1,0c-0.2,0-0.3,0-0.3-0.1c0-0.1,0-0.1,0.2-0.1
			c0.2,0,0.4,0,0.5,0c0.3-0.1,0.4-0.3,0.4-0.7c0.1-0.6,0.1-1.6,0.1-2.9L85.9,72.9L85.9,72.9z M87.7,74.4c0,1.4,0,2.5,0,2.7
			c0,0.3,0,0.8,0.2,1c0.2,0.3,0.7,0.6,1.8,0.6c1.3,0,2.2-0.2,3.1-0.9c0.9-0.8,1.2-2,1.2-3.4c0-1.7-0.7-2.8-1.3-3.4
			c-1.3-1.1-2.8-1.3-3.9-1.3c-0.3,0-0.8,0-0.9,0.1c-0.1,0-0.2,0.1-0.2,0.3c0,0.5,0,1.6,0,2.6L87.7,74.4L87.7,74.4z"/>
		<path class="st0" d="M98.5,79c-0.2-0.1-0.3-0.2-0.3-0.5c0-0.7,0.1-1.6,0.1-1.8s0.1-0.3,0.2-0.3c0.1,0,0.1,0.1,0.1,0.2
			c0,0.2,0,0.5,0.1,0.7c0.3,1,1.4,1.3,2.2,1.3c1.2,0,2-0.8,2-1.7c0-0.6-0.1-1.2-1.4-1.9l-0.8-0.5c-1.7-1-2.2-1.9-2.2-3.1
			c0-1.7,1.6-2.7,3.5-2.7c0.9,0,1.6,0.1,2,0.2c0.1,0,0.2,0.1,0.2,0.2c0,0.2,0,0.6,0,1.6c0,0.3-0.1,0.4-0.2,0.4
			c-0.1,0-0.1-0.1-0.1-0.2c0-0.1-0.1-0.6-0.4-0.9c-0.2-0.3-0.6-0.6-1.6-0.6c-1,0-1.9,0.5-1.9,1.4c0,0.6,0.2,1.1,1.5,1.8l0.6,0.3
			c1.8,1,2.4,2,2.4,3.3c0,1-0.4,1.8-1.4,2.5c-0.7,0.5-1.6,0.6-2.3,0.6C100,79.4,99.1,79.3,98.5,79z"/>
		<path class="st0" d="M113.6,77.7c-1.6-1.4-2-3.1-2-4.7c0-1.1,0.3-3,1.9-4.4c1.1-1.1,2.7-1.7,5-1.7c1,0,1.6,0.1,2.3,0.2
			c0.6,0.1,1.1,0.2,1.6,0.3c0.2,0,0.2,0.1,0.2,0.2c0,0.1,0,0.3-0.1,0.9c0,0.5,0,1.4,0,1.7c0,0.2,0,0.4-0.2,0.4s-0.2-0.1-0.2-0.3
			c0-0.5-0.2-1.1-0.6-1.5c-0.5-0.6-1.8-1-3.2-1c-1.4,0-2.3,0.3-3,1c-1.2,1.1-1.5,2.6-1.5,4.1c0,3.8,2.9,5.7,5,5.7
			c1.4,0,2.3-0.2,2.9-0.9c0.3-0.3,0.5-0.8,0.6-1.1c0-0.3,0.1-0.3,0.2-0.3c0.1,0,0.1,0.1,0.1,0.2c0,0.2-0.2,1.6-0.3,2.1
			c-0.1,0.3-0.1,0.3-0.4,0.5c-0.6,0.3-1.8,0.4-2.9,0.4C116.8,79.5,115,79,113.6,77.7z"/>
		<path class="st0" d="M133.2,73.4C133.2,73.4,133.2,73.4,133.2,73.4l0.1-0.4c0-2,0-2.6,0-3c0-0.5-0.2-0.6-0.6-0.7
			c-0.1,0-0.3,0-0.6,0c-0.2,0-0.2,0-0.2-0.1s0.1-0.1,0.3-0.1c0.8,0,1.7,0,2.1,0c0.3,0,1.3,0,1.8,0c0.2,0,0.3,0,0.3,0.1
			c0,0.1-0.1,0.1-0.3,0.1c-0.1,0-0.2,0-0.4,0c-0.4,0.1-0.5,0.3-0.5,0.7c0,0.4,0,0.8,0,2.9v2.4c0,1.2,0,2.3,0.1,2.9
			c0,0.4,0.1,0.6,0.6,0.7c0.2,0,0.5,0,0.7,0c0.1,0,0.2,0.1,0.2,0.1c0,0.1-0.1,0.1-0.3,0.1c-0.9,0-1.8,0-2.2,0c-0.3,0-1.3,0-1.8,0
			c-0.2,0-0.3,0-0.3-0.1c0-0.1,0.1-0.1,0.2-0.1c0.2,0,0.4,0,0.5,0c0.3-0.1,0.4-0.3,0.4-0.7c0.1-0.6,0.1-1.6,0.1-2.8v-1
			c0,0,0-0.1-0.1-0.1H128c0,0-0.1,0-0.1,0.1v1c0,1.2,0,2.3,0.1,2.9c0,0.4,0.1,0.6,0.6,0.7c0.2,0,0.5,0,0.7,0c0.2,0,0.2,0.1,0.2,0.1
			c0,0.1-0.1,0.1-0.3,0.1c-0.9,0-1.9,0-2.3,0c-0.3,0-1.2,0-1.8,0c-0.2,0-0.3,0-0.3-0.1c0-0.1,0-0.1,0.2-0.1c0.2,0,0.4,0,0.5,0
			c0.3-0.1,0.4-0.3,0.4-0.7c0.1-0.6,0.1-1.6,0.1-2.9v-2.4c0-2,0-2.4,0-2.9c0-0.5-0.2-0.6-0.6-0.7c-0.1,0-0.3,0-0.6,0
			c-0.1,0-0.2,0-0.2-0.1s0.1-0.1,0.3-0.1c0.8,0,1.7,0,2,0c0.3,0,1.3,0,1.9,0c0.2,0,0.3,0,0.3,0.1s-0.1,0.1-0.3,0.1
			c-0.1,0-0.2,0-0.4,0c-0.4,0.1-0.5,0.3-0.5,0.7c0,0.4,0,0.9,0,3v0.3c0,0.1,0,0.1,0.1,0.1L133.2,73.4L133.2,73.4z"/>
		<path class="st0" d="M140.5,75.8c-0.1,0-0.1,0-0.1,0.1l-0.8,1.8c-0.1,0.3-0.2,0.7-0.2,0.8c0,0.2,0.1,0.4,0.6,0.4h0.2
			c0.2,0,0.2,0.1,0.2,0.1c0,0.1-0.1,0.1-0.2,0.1c-0.5,0-1.1,0-1.6,0c-0.1,0-0.9,0-1.6,0c-0.2,0-0.3,0-0.3-0.1c0-0.1,0-0.1,0.2-0.1
			c0.1,0,0.3,0,0.4,0c0.6-0.1,0.9-0.5,1.2-1.2l3.7-8.5c0.2-0.4,0.3-0.6,0.4-0.6c0.2,0,0.3,0.1,0.4,0.4c0.3,0.8,2.7,6.3,3.6,8.3
			c0.6,1.2,0.9,1.4,1.2,1.4c0.2,0,0.4,0,0.5,0c0.1,0,0.2,0,0.2,0.1c0,0.1-0.1,0.1-0.6,0.1c-0.5,0-1.5,0-2.7,0c-0.3,0-0.4,0-0.4-0.1
			c0-0.1,0-0.1,0.2-0.1c0.1,0,0.2-0.1,0.1-0.3l-1.1-2.7c0-0.1-0.1-0.1-0.1-0.1L140.5,75.8L140.5,75.8z M143.5,75.1
			C143.6,75.1,143.6,75,143.5,75.1l-1.3-3.5c0,0,0-0.1-0.1-0.1c0,0-0.1,0.1-0.1,0.1l-1.4,3.4c0,0.1,0,0.1,0,0.1L143.5,75.1
			L143.5,75.1z"/>
		<path class="st0" d="M150.1,72.9c0-2,0-2.4,0-2.9c0-0.5-0.2-0.6-0.5-0.7c-0.2,0-0.3-0.1-0.5-0.1c-0.1,0-0.2,0-0.2-0.2
			c0-0.1,0.1-0.1,0.3-0.1c0.5,0,1.5,0,1.9,0c0.3,0,1.3,0,1.8,0c0.2,0,0.3,0,0.3,0.1c0,0.1-0.1,0.2-0.2,0.2c-0.1,0-0.3,0-0.4,0
			c-0.4,0.1-0.5,0.3-0.5,0.7c0,0.4,0,0.8,0,2.9v2.4c0,1.3,0,2.4,0.1,3c0,0.4,0.1,0.6,0.6,0.6c0.2,0,0.5,0,0.7,0
			c0.2,0,0.2,0.1,0.2,0.1c0,0.1-0.1,0.1-0.3,0.1c-0.9,0-1.9,0-2.3,0c-0.3,0-1.3,0-1.8,0c-0.2,0-0.3,0-0.3-0.1c0-0.1,0-0.1,0.2-0.1
			c0.2,0,0.4,0,0.5,0c0.3-0.1,0.4-0.3,0.4-0.6c0.1-0.6,0.1-1.6,0.1-2.9L150.1,72.9L150.1,72.9z"/>
		<path class="st0" d="M156,79c-0.2-0.1-0.3-0.2-0.3-0.5c0-0.7,0.1-1.6,0.1-1.8s0.1-0.3,0.2-0.3c0.1,0,0.1,0.1,0.1,0.2
			c0,0.2,0,0.5,0.1,0.7c0.3,1,1.4,1.3,2.2,1.3c1.2,0,2-0.8,2-1.7c0-0.6-0.1-1.2-1.4-1.9l-0.8-0.5c-1.7-1-2.2-1.9-2.2-3.1
			c0-1.7,1.6-2.7,3.5-2.7c0.9,0,1.6,0.1,2,0.2c0.1,0,0.2,0.1,0.2,0.2c0,0.2,0,0.6,0,1.6c0,0.3-0.1,0.4-0.2,0.4
			c-0.1,0-0.1-0.1-0.1-0.2c0-0.1-0.1-0.6-0.4-0.9c-0.2-0.3-0.6-0.6-1.6-0.6c-1,0-1.9,0.5-1.9,1.4c0,0.6,0.2,1.1,1.5,1.8l0.6,0.3
			c1.8,1,2.4,2,2.4,3.3c0,1-0.4,1.8-1.4,2.5c-0.7,0.5-1.6,0.6-2.3,0.6C157.5,79.4,156.6,79.3,156,79z"/>
	</g>
	<g>
		<g>
			<g>
				<path class="st1" d="M69,53.6c-0.9-0.3-1.9-0.7-2.8-0.7c-0.5,0-0.9,0.1-1.1,0.5c-0.1,0.3-0.1,0.8-0.1,1.1c0,0.5,0,1,0,1.5
					c0,0.2,0,0.3,0.2,0.4c0.3,0.3,0.7,0.2,1,0.1c0.4,0,0.9-0.1,1.3-0.2c0.5,0,1-0.1,1.5-0.1c0.3,0,0.5,0,0.7,0
					c0.7,0,0.9-1.1,0.7-1.6C70.2,54.1,69.5,53.8,69,53.6z"/>
				<g>
					<path class="st1" d="M70.8,49.9c-0.2-0.6-2.2-1.5-2.9-1.2c-0.5,0.2-1.2,1.9-0.9,2.6c0.3,0.7,1.7,1.3,2.3,1.3
						c0.3,0,0.4-0.3,0.5-0.5c0.1-0.3,0.3-0.6,0.5-0.8C70.4,51,70.9,50.4,70.8,49.9z"/>
				</g>
				<path class="st1" d="M72.6,45.9C72.5,45.9,72.5,45.9,72.6,45.9c-0.3-0.4-0.5-0.7-0.7-0.9c-0.4-0.5-0.9-0.9-1.6-0.6
					c-1.1,0.5-1.3,1.5-0.8,2.3c0.3,0.4,0.6,0.7,0.9,1.1c0.3,0.3,0.8,0.8,1.3,0.5c0.4-0.3,1.1-0.7,1.2-1.2c0.1-0.3,0.1-0.6-0.1-0.9
					C72.7,46.1,72.6,46,72.6,45.9z"/>
				<path class="st1" d="M77.1,43.3c-0.1-0.7-0.4-1.4-0.7-2c-0.1-0.3-0.2-0.7-0.5-0.8c-0.3-0.1-0.6,0-0.9,0c-0.3,0.1-0.7,0.2-1,0.3
					c-0.6,0.2-1.1,0.6-1.3,1.3c-0.1,0.6,0.1,1.2,0.4,1.7c0.2,0.5,0.6,1.5,1.2,1.5c0.3,0,0.7-0.3,1.1-0.4c0.3-0.1,0.6-0.2,1-0.3
					C77,44.5,77.2,44,77.1,43.3z"/>
				<path class="st1" d="M81.4,38.2c-0.3-0.3-2.9,0-3.2,0.4c-0.4,0.5-0.1,1.5,0,2.1c0.1,0.4,0.3,0.9,0.4,1.3c0.1,0.3,0.2,0.9,0.6,1
					c0.3,0.1,0.8,0,1.1,0c0.3,0,0.6,0,0.9-0.1c0.6-0.2,0.8-0.8,0.8-1.4C81.9,41,81.8,38.6,81.4,38.2z"/>
				<path class="st1" d="M86.2,37.2c-0.9-0.1-2.2-0.2-2.6,0.5c-0.4,0.6-0.4,1.5-0.4,2.2c0,0.4,0,0.9,0,1.3c0,0.3,0,0.7,0.2,1
					c0,0,0.1,0.1,0.1,0.2c0.3,0.3,0.9,0.2,1.4,0.1c0.3,0,0.7-0.1,1-0.2c0.3,0,0.4,0,0.6-0.3c0.2-0.3,0.2-0.6,0.3-0.9
					c0.2-0.7,0.3-1.4,0.4-2C87.6,37.9,87.6,37.4,86.2,37.2z"/>
				<path class="st1" d="M91.4,39.6c-0.4-0.9-2-1.8-2.8-1c-0.5,0.4-0.6,1.3-0.7,1.9c-0.1,0.4-0.1,0.8-0.2,1.2c0,0.2,0,0.3-0.1,0.5
					c0,0.4,0.3,0.5,0.6,0.7c0.3,0.2,0.5,0.4,0.8,0.5c0.7,0.3,1.2-0.2,1.5-0.8C91,41.7,91.8,40.5,91.4,39.6z"/>
				<path class="st1" d="M95.6,41.5c-0.3-0.9-2-2-2.9-1.4c-0.5,0.4-0.7,1.1-0.9,1.7c-0.1,0.4-0.2,0.7-0.3,1.1
					c-0.1,0.4-0.3,0.8-0.3,1.2c0,0.2,0.1,0.4,0.2,0.6c0.1,0.2,0.3,0.3,0.4,0.4c0.7,0.6,1.6-0.1,2.1-0.6c0.6-0.5,1.1-1.2,1.4-2
					C95.5,42.2,95.7,41.8,95.6,41.5z"/>
				<path class="st1" d="M99,46.3c0-0.5-0.3-0.9-0.5-1.3c-0.3-0.5-0.7-1.2-1.2-1.4c-0.6-0.1-1.2,0.6-1.5,0.9
					c-0.3,0.3-0.5,0.6-0.8,0.9c-0.2,0.2-0.2,0.4-0.1,0.7c0.1,0.3,0.3,0.6,0.5,0.9c0.1,0.2,0.2,0.5,0.3,0.7c0.3,0.6,0.8,0.6,1.4,0.5
					c0.4-0.1,1-0.6,1.4-0.8c0.2-0.1,0.3-0.2,0.5-0.4C99,46.8,99,46.5,99,46.3z"/>
				<path class="st1" d="M101,48.4c-0.6-0.3-1.3-0.1-1.8,0.1c-0.3,0.1-0.7,0.3-1,0.5c-0.2,0.1-0.7,0.3-0.8,0.6
					c-0.1,0.3,0.3,0.7,0.3,1c0.1,0.2,0.1,0.5,0.2,0.7c0.2,0.5,0.7,0.5,1.2,0.5c0.6,0,1.2,0.1,1.8,0.1c0.4,0,1.1,0,1.4-0.3
					c0.4-0.5-0.2-1.5-0.5-2C101.7,49.1,101.4,48.6,101,48.4z"/>
				<path class="st1" d="M103.9,53.4c-0.1-0.1-0.3-0.2-0.5-0.2c-0.8-0.1-1.7-0.1-2.6,0c-0.4,0-0.8,0-1.1,0.1c-0.2,0-0.5,0-0.6,0.2
					c-0.1,0.2,0,0.6,0.1,0.9c0,0.3,0.1,0.7,0.2,1.1c0.3,1.5,1.6,2.2,3.1,2c0.6,0,1.1-0.3,1.3-0.8c0.3-0.6,0.3-1.3,0.3-2
					c0-0.3,0-0.7,0-1C104.1,53.6,104,53.5,103.9,53.4z"/>
			</g>
			<path class="st1" d="M55.2,44.8c1.1-1.4,3.9-4.6,7.7-8c14.1-12.4,27.7-13.5,42.2-0.8c2.7,2.4,5.6,5.4,8.5,9.2
				c0.1,0.1,0.2,0.2,0.3,0.3c0.1,0.2-0.1,0.3-0.5,0.3h-0.9h-0.9c-0.4,0-0.8,0-0.9-0.1c0-0.1-0.1-0.2-0.1-0.3c-0.8-1.1-5.6-8-13-12.6
				C87.8,26.7,78,28.1,68.8,35c-3,2.3-6.4,5.5-9.9,9.8c0,0.1-0.3,0.3-0.4,0.4c-0.1,0.1-0.3,0.2-0.8,0.2h-2.2c-0.4,0-0.7-0.1-0.5-0.3
				C55.1,45,55.1,44.9,55.2,44.8z"/>
			<path class="st2" d="M70.5,29.3C46.9,30.7,29,43.1,26,46.4l-0.1,0.1l0.4,0.2c6-3.6,22.9-12.2,41.1-15.3L70.5,29.3z"/>
			<path class="st2" d="M98.4,29.3c23.6,1.3,41.5,13.7,44.5,17.1l0.1,0.1l-0.4,0.2c-6-3.6-22.9-12.2-41.1-15.3L98.4,29.3z"/>
			<path class="st1" d="M66.6,20.5c0,0-0.6,5.6,2.2,6.4h1.4c0,0,2.3-0.6,2-6.4H66.6z"/>
			<g>
				<path class="st2" d="M23.9,50.2h-4.5c-0.5,0-0.9-0.4-0.9-0.9v-0.8c0-0.5,0.4-0.9,0.9-0.9h4.5c0.5,0,0.9,0.4,0.9,0.9v0.8
					C24.8,49.8,24.4,50.2,23.9,50.2z"/>
				<path class="st2" d="M23.6,57.7h-4c-0.5,0-0.9-0.4-0.9-0.9v-4.9c0-0.5,0.4-0.9,0.9-0.9h4c0.5,0,0.9,0.4,0.9,0.9v4.9
					C24.5,57.3,24.1,57.7,23.6,57.7z"/>
			</g>
			<g>
				<path class="st1" d="M58.1,50.2h-4.5c-0.5,0-0.9-0.4-0.9-0.9v-0.8c0-0.5,0.4-0.9,0.9-0.9h4.5c0.5,0,0.9,0.4,0.9,0.9v0.8
					C59,49.8,58.6,50.2,58.1,50.2z"/>
				<path class="st1" d="M57.9,57.7h-4c-0.5,0-0.9-0.4-0.9-0.9v-4.9c0-0.5,0.4-0.9,0.9-0.9h4c0.5,0,0.9,0.4,0.9,0.9v4.9
					C58.7,57.3,58.3,57.7,57.9,57.7z"/>
			</g>
			<g>
				<path class="st1" d="M115.8,50.2h-4.5c-0.5,0-0.9-0.4-0.9-0.9v-0.8c0-0.5,0.4-0.9,0.9-0.9h4.5c0.5,0,0.9,0.4,0.9,0.9v0.8
					C116.7,49.8,116.3,50.2,115.8,50.2z"/>
				<path class="st1" d="M115.5,57.7h-4c-0.5,0-0.9-0.4-0.9-0.9v-4.9c0-0.5,0.4-0.9,0.9-0.9h4c0.5,0,0.9,0.4,0.9,0.9v4.9
					C116.4,57.3,116,57.7,115.5,57.7z"/>
			</g>
			<g>
				<path class="st2" d="M149.6,50.2h-4.5c-0.5,0-0.9-0.4-0.9-0.9v-0.8c0-0.5,0.4-0.9,0.9-0.9h4.5c0.5,0,0.9,0.4,0.9,0.9v0.8
					C150.5,49.8,150.1,50.2,149.6,50.2z"/>
				<path class="st2" d="M149.3,57.7h-4c-0.5,0-0.9-0.4-0.9-0.9v-4.9c0-0.5,0.4-0.9,0.9-0.9h4c0.5,0,0.9,0.4,0.9,0.9v4.9
					C150.2,57.3,149.8,57.7,149.3,57.7z"/>
			</g>
			<path class="st1" d="M71.3,27.9c0,0.3-0.3,0.6-0.6,0.6H68c-0.3,0-0.6-0.3-0.6-0.6l0,0c0-0.3,0.3-0.6,0.6-0.6h2.7
				C71,27.3,71.3,27.6,71.3,27.9L71.3,27.9z"/>
			<path class="st1" d="M101.4,20.5h-5.6c0,0-0.6,5.6,2.2,6.4h1.4C99.4,26.9,101.8,26.3,101.4,20.5z"/>
			<path class="st1" d="M100.6,27.9c0,0.3-0.3,0.6-0.6,0.6h-2.7c-0.3,0-0.6-0.3-0.6-0.6l0,0c0-0.3,0.3-0.6,0.6-0.6h2.7
				C100.4,27.3,100.6,27.6,100.6,27.9L100.6,27.9z"/>
		</g>
		<g>
			<path class="st2" d="M50.1,48.9H32c-0.2,0-0.3-0.2-0.3-0.3c0-0.2,0.2-0.3,0.3-0.3h18.1c0.2,0,0.3,0.2,0.3,0.3
				S50.3,48.9,50.1,48.9z"/>
		</g>
		<g>
			<path class="st2" d="M50.4,53.4h-23c-0.2,0-0.3-0.2-0.3-0.3c0-0.2,0.2-0.3,0.3-0.3h23c0.2,0,0.3,0.2,0.3,0.3
				C50.7,53.3,50.6,53.4,50.4,53.4z"/>
		</g>
		<g>
			<path class="st2" d="M50.4,57.6h-23c-0.2,0-0.3-0.2-0.3-0.3c0-0.2,0.2-0.3,0.3-0.3h23c0.2,0,0.3,0.2,0.3,0.3
				C50.7,57.4,50.6,57.6,50.4,57.6z"/>
		</g>
		<g>
			<path class="st2" d="M52.3,44.4H38.1c-0.2,0-0.3-0.2-0.3-0.3c0-0.2,0.2-0.3,0.3-0.3h14.1c0.2,0,0.3,0.2,0.3,0.3
				C52.6,44.3,52.4,44.4,52.3,44.4z"/>
		</g>
		<g>
			<path class="st2" d="M55.7,40.9H44.9c-0.2,0-0.3-0.2-0.3-0.3s0.2-0.3,0.3-0.3h10.8c0.2,0,0.3,0.2,0.3,0.3S55.9,40.9,55.7,40.9z"
				/>
		</g>
		<g>
			<path class="st2" d="M58.8,37.6h-6.1c-0.2,0-0.3-0.2-0.3-0.3c0-0.2,0.2-0.3,0.3-0.3h6.1c0.2,0,0.3,0.2,0.3,0.3
				C59.1,37.4,59,37.6,58.8,37.6z"/>
		</g>
		<g>
			<path class="st2" d="M137.4,48.9h-18.1c-0.2,0-0.3-0.2-0.3-0.3c0-0.2,0.2-0.3,0.3-0.3h18.1c0.2,0,0.3,0.2,0.3,0.3
				S137.6,48.9,137.4,48.9z"/>
		</g>
		<g>
			<path class="st2" d="M142,53.4h-23c-0.2,0-0.3-0.2-0.3-0.3c0-0.2,0.2-0.3,0.3-0.3h23c0.2,0,0.3,0.2,0.3,0.3
				C142.3,53.3,142.2,53.4,142,53.4z"/>
		</g>
		<g>
			<path class="st2" d="M142,57.6h-23c-0.2,0-0.3-0.2-0.3-0.3c0-0.2,0.2-0.3,0.3-0.3h23c0.2,0,0.3,0.2,0.3,0.3
				C142.3,57.4,142.2,57.6,142,57.6z"/>
		</g>
		<g>
			<path class="st2" d="M131.2,44.4h-14.1c-0.2,0-0.3-0.2-0.3-0.3c0-0.2,0.2-0.3,0.3-0.3h14.1c0.2,0,0.3,0.2,0.3,0.3
				C131.6,44.3,131.4,44.4,131.2,44.4z"/>
		</g>
		<g>
			<path class="st2" d="M124.5,40.9h-10.8c-0.2,0-0.3-0.2-0.3-0.3s0.2-0.3,0.3-0.3h10.8c0.2,0,0.3,0.2,0.3,0.3
				S124.7,40.9,124.5,40.9z"/>
		</g>
		<g>
			<path class="st2" d="M116.7,37.6h-6.1c-0.2,0-0.3-0.2-0.3-0.3c0-0.2,0.2-0.3,0.3-0.3h6.1c0.2,0,0.3,0.2,0.3,0.3
				C117.1,37.4,116.9,37.6,116.7,37.6z"/>
		</g>
	</g>
</g>
</svg>
