<svg xmlns="http://www.w3.org/2000/svg" xmlns:xlink="http://www.w3.org/1999/xlink" version="1.1" id="Calque_1" x="0px" y="0px" viewBox="0 0 879 793" style="enable-background:new 0 0 879 793;" xml:space="preserve"> <style type="text/css"> .st0{opacity:0.3;fill:#FFFFFF;} .st1{clip-path:url(#SVGID_00000056416889649471146390000004509160100997989528_);} .st2{clip-path:url(#SVGID_00000078749509365822422120000017348876191462097034_);} .st3{fill:none;stroke:#FFFFFF;stroke-width:2;} .st4{fill:#FFFFFF;stroke:#FFFFFF;} .st5{clip-path:url(#SVGID_00000164486271780640162960000011324441621621503891_);} .st6{opacity:0.5;fill:#FFFFFF;enable-background:new ;} .st7{clip-path:url(#SVGID_00000129886668489753645810000012211764587658750655_);} .st8{clip-path:url(#SVGID_00000113313098742284632240000009154534547306730405_);} .st9{clip-path:url(#SVGID_00000091002047393200407970000001596963666202435719_);} .st10{fill:#9CABC2;} .st11{fill:#9CABC2;fill-opacity:0.35;stroke:#FFFFFF;stroke-width:2;} .st12{fill-rule:evenodd;clip-rule:evenodd;fill:#FFFFFF;} .st13{clip-path:url(#SVGID_00000165946653169677428730000001680730384727421598_);} .st14{fill:#FFFFFF;} .st15{fill:#9CABC2;fill-opacity:0.35;} .st16{fill:none;stroke:#9CABC2;stroke-width:2;stroke-opacity:0.35;} .st17{clip-path:url(#SVGID_00000064331006558406664510000005243749997598951823_);} .st18{fill:#FFFFFF;stroke:#FFFFFF;stroke-width:2;} .st19{clip-path:url(#SVGID_00000055681699098795398360000009426874502149269895_);} .st20{clip-path:url(#SVGID_00000152963554409159501940000016932056448044654476_);} .st21{clip-path:url(#SVGID_00000016756687468247620780000011611915854121143733_);} .st22{clip-path:url(#SVGID_00000049902754063791534430000002134566745239736511_);} .st23{clip-path:url(#SVGID_00000123401989872703699720000005634944371935674801_);} </style> <path class="st0" d="M790.8,583.3H555.2c-16.1,0-29.2-13.1-29.2-29.2v-35.9c0-16.1,13.1-29.2,29.2-29.2h235.6 c16.1,0,29.2,13.1,29.2,29.2v35.9C820,570.2,806.9,583.3,790.8,583.3z"></path> <g> <g> <defs> <rect id="SVGID_1_" width="879" height="793"></rect> </defs> <clipPath id="SVGID_00000141439576070025478600000008027895730421191576_"> <use xlink:href="#SVGID_1_" style="overflow:visible;"></use> </clipPath> <g style="clip-path:url(#SVGID_00000141439576070025478600000008027895730421191576_);"> <g> <g> <defs> <rect id="SVGID_00000145770068573974910300000013977947635466190490_" x="525" y="738" width="294" height="30"></rect> </defs> <clipPath id="SVGID_00000008851843803480532790000007497046364452867228_"> <use xlink:href="#SVGID_00000145770068573974910300000013977947635466190490_" style="overflow:visible;"></use> </clipPath> <g style="clip-path:url(#SVGID_00000008851843803480532790000007497046364452867228_);"> <circle class="st3" cx="540" cy="753" r="14"></circle> <circle class="st3" cx="606" cy="753" r="14"></circle> <circle class="st3" cx="672" cy="753" r="14"></circle> <circle class="st4" cx="738" cy="753" r="14.5"></circle> <circle class="st3" cx="804" cy="753" r="14"></circle> </g> </g> </g> <g> <g> <defs> <rect id="SVGID_00000162332442198123377520000009169973884005545374_" x="525" y="93" width="295" height="600"></rect> </defs> <clipPath id="SVGID_00000070082811418501708040000011188286085906418864_"> <use xlink:href="#SVGID_00000162332442198123377520000009169973884005545374_" style="overflow:visible;"></use> </clipPath> <g style="clip-path:url(#SVGID_00000070082811418501708040000011188286085906418864_);"> <rect x="525" y="93" class="st6" width="135" height="5"></rect> <rect x="525" y="108" class="st6" width="105" height="5"></rect> <g> <g> <defs> <rect id="SVGID_00000081646439729604568020000011545810558359197866_" x="525" y="143" width="295" height="135"></rect> </defs> <clipPath id="SVGID_00000101792933631060542650000002588087382614318758_"> <use xlink:href="#SVGID_00000081646439729604568020000011545810558359197866_" style="overflow:visible;"></use> </clipPath> <g style="clip-path:url(#SVGID_00000101792933631060542650000002588087382614318758_);"> <path class="st3" d="M545,144h95c10.5,0,19,8.5,19,19v95c0,10.5-8.5,19-19,19h-95c-10.5,0-19-8.5-19-19v-95 C526,152.5,534.5,144,545,144z"></path> <path class="st3" d="M705,144h95c10.5,0,19,8.5,19,19v95c0,10.5-8.5,19-19,19h-95c-10.5,0-19-8.5-19-19v-95 C686,152.5,694.5,144,705,144z"></path> </g> </g> </g> <g> <g> <defs> <rect id="SVGID_00000009567449434478525390000013237820023161218715_" x="527.5" y="308" width="290" height="40"></rect> </defs> <clipPath id="SVGID_00000008138528252800772670000014429680824059218864_"> <use xlink:href="#SVGID_00000009567449434478525390000013237820023161218715_" style="overflow:visible;"></use> </clipPath> <g style="clip-path:url(#SVGID_00000008138528252800772670000014429680824059218864_);"> <path class="st3" d="M547.5,309h190c10.5,0,19,8.5,19,19l0,0c0,10.5-8.5,19-19,19h-190c-10.5,0-19-8.5-19-19l0,0 C528.5,317.5,537,309,547.5,309z"></path> <circle class="st3" cx="797.5" cy="328" r="19"></circle> </g> </g> </g> <g> <g> <defs> <rect id="SVGID_00000021835849995576642990000018024132993026640025_" x="525" y="378" width="295" height="315"></rect> </defs> <clipPath id="SVGID_00000163753422439526988850000000194596781867359374_"> <use xlink:href="#SVGID_00000021835849995576642990000018024132993026640025_" style="overflow:visible;"></use> </clipPath> <g style="clip-path:url(#SVGID_00000163753422439526988850000000194596781867359374_);"> <path class="st3" d="M555,379h235c16,0,29,13,29,29v35c0,16-13,29-29,29H555c-16,0-29-13-29-29v-35 C526,392,539,379,555,379z"></path> <rect x="620" y="398" class="st10" width="135" height="3"></rect> <rect x="620" y="411" class="st10" width="105" height="3"></rect> <path class="st11" d="M558,392h30c10.5,0,19,8.5,19,19v30c0,10.5-8.5,19-19,19h-30c-10.5,0-19-8.5-19-19v-30 C539,400.5,547.5,392,558,392z"></path> <path class="st12" d="M781,432c0,0.6,0.4,1,1,1s1-0.4,1-1v-5h6c0.6,0,1-0.4,1-1s-0.4-1-1-1h-6v-6c0-0.6-0.4-1-1-1 s-1,0.4-1,1v6h-5c-0.6,0-1,0.4-1,1s0.4,1,1,1h5V432z"></path> <path class="st3" d="M555,489h235c16,0,29,13,29,29v35c0,16-13,29-29,29H555c-16,0-29-13-29-29v-35 C526,502,539,489,555,489z"></path> <rect x="620" y="508" class="st10" width="135" height="3"></rect> <rect x="620" y="521" class="st10" width="105" height="3"></rect> <path class="st11" d="M558,502h30c10.5,0,19,8.5,19,19v30c0,10.5-8.5,19-19,19h-30c-10.5,0-19-8.5-19-19v-30 C539,510.5,547.5,502,558,502z"></path> <path class="st12" d="M781,542c0,0.6,0.4,1,1,1s1-0.4,1-1v-5h6c0.6,0,1-0.4,1-1s-0.4-1-1-1h-6v-6c0-0.6-0.4-1-1-1 s-1,0.4-1,1v6h-5c-0.6,0-1,0.4-1,1s0.4,1,1,1h5V542z"></path> <path class="st3" d="M555,599h235c16,0,29,13,29,29v35c0,16-13,29-29,29H555c-16,0-29-13-29-29v-35 C526,612,539,599,555,599z"></path> <rect x="620" y="618" class="st10" width="135" height="3"></rect> <rect x="620" y="631" class="st10" width="105" height="3"></rect> <path class="st11" d="M558,612h30c10.5,0,19,8.5,19,19v30c0,10.5-8.5,19-19,19h-30c-10.5,0-19-8.5-19-19v-30 C539,620.5,547.5,612,558,612z"></path> <path class="st12" d="M781,652c0,0.6,0.4,1,1,1s1-0.4,1-1v-5h6c0.6,0,1-0.4,1-1s-0.4-1-1-1h-6v-6c0-0.6-0.4-1-1-1 s-1,0.4-1,1v6h-5c-0.6,0-1,0.4-1,1s0.4,1,1,1h5V652z"></path> </g> </g> </g> </g> </g> </g> <path class="st3" d="M535,13h275c27.1,0,49,21.9,49,49v726c0,27.1-21.9,49-49,49H535c-27.1,0-49-21.9-49-49V62 C486,34.9,507.9,13,535,13z"></path> <g> <g> <defs> <path id="SVGID_00000083800569989813136880000016875078982024782769_" d="M60,12h275c27.6,0,50,22.4,50,50v726 c0,27.6-22.4,50-50,50H60c-27.6,0-50-22.4-50-50V62C10,34.4,32.4,12,60,12z"></path> </defs> <clipPath id="SVGID_00000087376567003394508290000005855772176186906551_"> <use xlink:href="#SVGID_00000083800569989813136880000016875078982024782769_" style="overflow:visible;"></use> </clipPath> <g style="clip-path:url(#SVGID_00000087376567003394508290000005855772176186906551_);"> <path class="st14" d="M100,720h195c16.6,0,30,13.4,30,30v1c0,16.6-13.4,30-30,30H100c-16.6,0-30-13.4-30-30v-1 C70,733.4,83.4,720,100,720z"></path> <path class="st3" d="M80,264h235c16,0,29,13,29,29v350c0,16-13,29-29,29H80c-16,0-29-13-29-29V293C51,277,64,264,80,264z"></path> <path class="st3" d="M100,604h195c13.3,0,24,10.7,24,24l0,0c0,13.3-10.7,24-24,24H100c-13.3,0-24-10.7-24-24l0,0 C76,614.7,86.7,604,100,604z"></path> <circle class="st3" cx="295" cy="628" r="24"></circle> <path class="st15" d="M105,343h185c16.6,0,30,13.4,30,30v185c0,16.6-13.4,30-30,30H105c-16.6,0-30-13.4-30-30V373 C75,356.4,88.4,343,105,343z"></path> <path class="st16" d="M105,344h185c16,0,29,13,29,29v185c0,16-13,29-29,29H105c-16,0-29-13-29-29V373C76,357,89,344,105,344z"></path> <rect x="135" y="293" class="st6" width="135" height="5"></rect> <rect x="135" y="308" class="st6" width="105" height="5"></rect> <circle class="st3" cx="97.5" cy="305.5" r="21.5"></circle> <g> <g> <defs> <rect id="SVGID_00000101799217526952743500000009355187571099164045_" x="50" y="137" width="384" height="90"></rect> </defs> <clipPath id="SVGID_00000183954694373997149380000002514974352597353124_"> <use xlink:href="#SVGID_00000101799217526952743500000009355187571099164045_" style="overflow:visible;"></use> </clipPath> <g style="clip-path:url(#SVGID_00000183954694373997149380000002514974352597353124_);"> <circle class="st18" cx="87.5" cy="162" r="24"></circle> <g> <g> <defs> <rect id="SVGID_00000149374644905650084380000000285654391023325595_" x="50" y="207" width="75" height="20"></rect> </defs> <clipPath id="SVGID_00000134212539337589961950000015642092801391815310_"> <use xlink:href="#SVGID_00000149374644905650084380000000285654391023325595_" style="overflow:visible;"></use> </clipPath> <g style="clip-path:url(#SVGID_00000134212539337589961950000015642092801391815310_);"> <rect x="50" y="207" class="st6" width="75" height="5"></rect> <rect x="58" y="222" class="st6" width="59" height="5"></rect> </g> </g> </g> <circle class="st18" cx="190.5" cy="162" r="24"></circle> <g> <g> <defs> <rect id="SVGID_00000057843709203173015710000007964347879667921341_" x="153" y="207" width="75" height="20"></rect> </defs> <clipPath id="SVGID_00000088834461443630211880000001879356022771932077_"> <use xlink:href="#SVGID_00000057843709203173015710000007964347879667921341_" style="overflow:visible;"></use> </clipPath> <g style="clip-path:url(#SVGID_00000088834461443630211880000001879356022771932077_);"> <rect x="153" y="207" class="st6" width="75" height="5"></rect> <rect x="161" y="222" class="st6" width="59" height="5"></rect> </g> </g> </g> <circle class="st18" cx="293.5" cy="162" r="24"></circle> <g> <g> <defs> <rect id="SVGID_00000075875750917231811320000003793804006589934247_" x="256" y="207" width="75" height="20"></rect> </defs> <clipPath id="SVGID_00000171697376608545121200000010389874182052296336_"> <use xlink:href="#SVGID_00000075875750917231811320000003793804006589934247_" style="overflow:visible;"></use> </clipPath> <g style="clip-path:url(#SVGID_00000171697376608545121200000010389874182052296336_);"> <rect x="256" y="207" class="st6" width="75" height="5"></rect> <rect x="264" y="222" class="st6" width="59" height="5"></rect> </g> </g> </g> <circle class="st18" cx="396.5" cy="162" r="24"></circle> <g> <g> <defs> <rect id="SVGID_00000037688218655182511800000000367730166325287072_" x="359" y="207" width="75" height="20"></rect> </defs> <clipPath id="SVGID_00000071532890871872473010000016469416758968318894_"> <use xlink:href="#SVGID_00000037688218655182511800000000367730166325287072_" style="overflow:visible;"></use> </clipPath> <g style="clip-path:url(#SVGID_00000071532890871872473010000016469416758968318894_);"> <rect x="359" y="207" class="st6" width="75" height="5"></rect> <rect x="367" y="222" class="st6" width="59" height="5"></rect> </g> </g> </g> </g> </g> </g> <g> <g> <defs> <rect id="SVGID_00000019663276789036659250000004160727875072825522_" x="55" y="63" width="290" height="40"></rect> </defs> <clipPath id="SVGID_00000036953699040571871850000005190950772806830211_"> <use xlink:href="#SVGID_00000019663276789036659250000004160727875072825522_" style="overflow:visible;"></use> </clipPath> <g style="clip-path:url(#SVGID_00000036953699040571871850000005190950772806830211_);"> <path class="st3" d="M75,64h190c10.5,0,19,8.5,19,19l0,0c0,10.5-8.5,19-19,19H75c-10.5,0-19-8.5-19-19l0,0 C56,72.5,64.5,64,75,64z"></path> <circle class="st3" cx="325" cy="83" r="19"></circle> </g> </g> </g> </g> </g> </g> <path class="st3" d="M60,13h275c27.1,0,49,21.9,49,49v726c0,27.1-21.9,49-49,49H60c-27.1,0-49-21.9-49-49V62 C11,34.9,32.9,13,60,13z"></path> <circle class="st14" cx="345" cy="625" r="3"></circle> <path class="st14" d="M485,777l-10-5.8v11.5L485,777z M345,626h50v-2h-50V626z M414,645v112h2V645H414z M435,778h41v-2h-41V778z M414,757c0,11.6,9.4,21,21,21v-2c-10.5,0-19-8.5-19-19H414z M395,626c10.5,0,19,8.5,19,19h2c0-11.6-9.4-21-21-21V626z"></path> </g> </g> </g> <g> <path class="st14" d="M559.3,540.7h-5.3l-1.2,2.4h-5.2l8.6-15.8h5.7l3,15.8h-5.2L559.3,540.7z M558.1,532.6l-2.2,4.4h2.9 L558.1,532.6z"></path> <path class="st14" d="M582.2,535.2c-0.8,4.5-4.6,7.9-9.6,7.9H566l2.8-15.8h6.6C580.4,527.3,583,530.6,582.2,535.2z M572.9,538.7 c2.2,0,3.9-1.2,4.3-3.5c0.4-2.3-0.8-3.5-3-3.5H573l-1.2,7.1H572.9z"></path> <path class="st14" d="M589.4,543.3c-4,0-6.7-1.7-6.3-5.2h5.3c-0.1,0.9,0.3,1.4,1.1,1.4c0.5,0,0.9-0.3,0.9-0.8c0-2-6.3-1.7-6.3-6.2 c0-3.4,2.8-5.4,6.6-5.4c3.7,0,6.3,1.9,5.9,5.1h-5.3c0.2-0.8-0.2-1.2-0.9-1.2c-0.5,0-0.9,0.3-0.9,0.8c0,1.9,6.3,1.9,6.3,6.5 C595.8,541.1,593.5,543.3,589.4,543.3z"></path> </g> </svg>