<svg xmlns="http://www.w3.org/2000/svg" version="1.1" viewBox="0 0 100 100"><defs><style> .cls-1 { fill: #002c5a; } .cls-2 { fill: #fff; } .cls-3 { fill: #0090d4; } </style></defs><g><g id="Calque_1"><g><path class="cls-2" d="M84.1,6l-1.1-.4c-8.2-2.9-16.8-4.4-25.5-4.4s-5,.1-7.6.4c-11.3,1.1-22.5,4.7-33.3,10.8l-.9.5h0v35.6c0,28.9,30.5,48.1,31.8,48.9l2.3,1.5h0l2.3-1.5c1.3-.8,31.8-20,31.8-48.9V6h0Z"></path><path class="cls-3" d="M40.7,33.7c14.4-6.7,23.2-3.9,26.6-.6-.9-1.9-2.4-3-2.4-3,0,0,4.6.6,7.3,2.1-1.9-1.5-1.3-1.2-1.8-1.9-.7-1-1.7-1.7-2.2-2,1,0,3.7.2,7.6,2.7-2.7-2.6-8.9-4.7-12.5-4.6-13.3.4-22.6,7.4-22.6,7.4h0Z"></path><path class="cls-3" d="M50.1,29.8c-.4,0-.7.2-1.1.3,0,0,.4-.1,1.1-.3Z"></path><path class="cls-3" d="M75.8,48.6c-.7,4-3.1,7.4-3.1,7.4,0,0,1.7-1,3.1-2.4,0,0-2.2,4.4-3.4,5.3-1.2.9-8.6,4.7-9.3,4.8-.7,0,8.7-9.8,10.1-12,1.4-2.3,2.5-3.1,2.5-3.1h0Z"></path><path class="cls-3" d="M22.5,54.4c1.7-6.6,5.6-9.7,5.6-9.7,0,0,1-3,1.4-4-1.9.6-8.6,7.9-7,13.8h0Z"></path><path class="cls-1" d="M61,67.1c0,0,.2,0,.3-.1.3-.1.6-.3.8-.4,0,0,0,0,.1,0,.3-.2.6-.3,1-.5,0,0,.2,0,.2-.1.2-.1.5-.3.8-.4,0,0,.1,0,.2-.1.3-.2.6-.3.9-.5,0,0,.1,0,.2-.1.2-.1.5-.3.7-.4,0,0,.2,0,.2-.1.3-.2.6-.4.9-.5,0,0,0,0,.1,0,.2-.2.5-.3.7-.5,0,0,.2,0,.2-.2.3-.2.6-.4.8-.6,0,0,0,0,0,0,.3-.2.5-.4.8-.6,0,0,.1,0,.2-.2.2-.2.5-.4.7-.6h0c.3-.2.5-.5.8-.7,0,0,.1,0,.2-.1.2-.2.5-.4.7-.6,0,0,0,0,0,0,.2-.2.5-.4.7-.6h.1c.2-.3.4-.5.6-.7h0c.2-.3.5-.6.7-.8h0c.2-.3.4-.5.6-.7h0c.4-.6.9-1.1,1.3-1.5,0,0,0,0,0,0,.4-.5.8-1,1.1-1.5,0,0,0,0,0,0,.4-.5.7-1,1.1-1.5,0,0,0,0,0,0,.5-.8,1-1.6,1.4-2.4h0c.3-.5.5-1.1.7-1.6h0c.2-.5.4-1.1.6-1.6h0c.2-.5.3-1.1.5-1.6.6-2.6.6-5.2,0-7.6h0c0-.3-.2-.6-.3-1,0,0,0,0,0,0,0-.1,0-.3-.2-.4,0-.2-.1-.3-.2-.5-.6-1.5-1.5-2.8-2.6-4,1.3,1,2.4,2.1,3.2,3.3V8.1C61.4.6,38.6,2.9,17.6,14.6v33.5h0c0,28.1,29.7,46.7,31,47.5l1.5.9,1.5-.9c1.2-.7,27.7-17.4,30.7-42.9-4.1,6.7-12,12.7-22,16.1-5.9,2-11.7,2.8-17,2.5,5.3-.2,11.1-1.4,16.7-3.8.3-.2.7-.3,1-.4h0ZM77.8,32.7c1,1,1.7,2.2,2.2,3.5,1.9,4.5.9,10.1-2.8,15.6-2.9,4.2-7.1,8-12.1,11,1.7-1.2,3.2-2.6,4.6-4.1,2.2-2.3,4.1-5,5.3-8s1.8-6.2,1.5-9.3c-.3,1.5-.7,3-1.2,4.4-.6,1.4-1.2,2.7-2,4-1.6,2.5-3.6,4.7-5.8,6.6-2.2,1.9-4.7,3.6-7.2,5-1.3.7-2.6,1.4-4,2-1.3.6-2.7,1.1-4.1,1.6s-2.8.9-4.2,1.2-2.9.6-4.3.8c-2.9.4-5.8.5-8.7,0-2.8-.4-5.6-1.4-7.9-3.1s-3.2-2.3-4.3-5.6c-1.1-3.3.1-9,3.4-13.8.9-1.4,2-2.7,3.2-4-.4.7-.7,1.5-1.1,2.2-1.2,2.7-1.9,5.6-1.9,8.5,0,1.5.1,2.9.5,4.3.4,1.4.9,2.7,1.7,3.9-.9-2.7-.9-5.4-.4-8,.5-2.6,1.5-5.1,2.8-7.4,2.6-4.6,6.4-8.4,10.8-11,.6-.3,1.1-.6,1.7-.9s.6-.3.9-.4l.9-.4c.6-.2,1.2-.5,1.8-.7.6-.2,1.2-.4,1.9-.6,2.5-.7,5.1-1.2,7.8-1.3,2.6-.2,5.3,0,7.9.5,2.6.5,5.2,1.4,7.6,2.9-.9-1.1-1.9-2.1-3.1-2.9-1.2-.8-2.5-1.5-3.8-2-.2,0-.4-.1-.5-.2,5.5.6,10.2,2.5,13,5.6h0ZM19.4,38.8s7.7-5.4,19.2-8.4c-8.2,4.5-15.8,10.7-19.2,17.9v-9.5h0Z"></path><path class="cls-3" d="M17.6,13.5v1.9C38.6,3.7,61.4,1.4,82.5,8.9v-1.9C61.4-.6,38.6,1.7,17.6,13.5Z"></path><path class="cls-1" d="M57.8,37.9c0-1.9-.1-3.8-2.3-4.6-4-1.3-9.4-.9-12.8,2-1.1,1.1-1.5,3.2-.5,4-7.3-2.9-8.3,16.9-2.4,12.7-.8,4,2.3,8,5.2,9.2,2.2.9,5.9,1.4,7.2-2.1,2.1,1.5,5,2.6,8.9-.8,2.1-1.8,3.5-7.1,1.5-8.5,5.4-3.5,0-16.9-4.9-12ZM52.6,49.7c-2.1,1.8-4.8,2.1-5.9.7-1.2-1.4-.4-3.9,1.7-5.7s4.8-2.1,5.9-.7.4,3.9-1.7,5.7Z"></path><path class="cls-3" d="M80.6,22.8c-19.5-5.7-41.5-3.1-61.2,7.9v-13.6c19.6-10.6,41.6-12.8,61.2-6.6v12.3Z"></path><g><path class="cls-1" d="M24,23.1c-.4-1.9-.8-3.8-1.2-5.7-.1,0-.2.1-.4.2-.4.2-.7.4-1.1.6v10.7c.4-.2.9-.5,1.3-.7,0-2.3,0-4.6-.1-6.9.3,1.5.7,3,1,4.6.3-.2.7-.3,1-.5.3-1.8.7-3.7,1-5.5,0,2.3,0,4.7-.1,7,.4-.2.9-.4,1.3-.6v-10.6c-.5.2-1,.4-1.5.6-.4,2.3-.8,4.5-1.2,6.8h0Z"></path><path class="cls-1" d="M31.6,13.7c-.4.2-.9.3-1.3.5-1.1.4-1.6,1.2-1.6,2.4v7c0,1.2.6,1.6,1.6,1.1.4-.2.8-.3,1.3-.5,1.1-.4,1.7-1.2,1.6-2.4v-6.9c0-1.2-.6-1.6-1.6-1.2ZM31.9,22.2c0,.4-.2.7-.5.8-.2,0-.5.2-.7.3-.4.2-.6,0-.6-.4v-6.8c0-.4.2-.7.6-.8.2,0,.4-.2.6-.2.4-.2.6,0,.6.4v6.7h0Z"></path><path class="cls-1" d="M38,16.7c-.5-1.5-1-3.1-1.5-4.6-.5.1-.9.3-1.4.4v10.5c.5-.2.9-.3,1.4-.4v-6.8c.5,1.4,1,2.9,1.5,4.3v2.1c.5-.1.9-.2,1.4-.4v-10.4c-.5.1-.9.2-1.4.4v5Z"></path><path class="cls-1" d="M40.9,12.3c.4,0,.9-.2,1.3-.3v9.1c.5-.1.9-.2,1.4-.3v-9.1c.4,0,.9-.2,1.3-.2v-1.2c-1.4.2-2.7.5-4,.8v1.3h0Z"></path><path class="cls-1" d="M49,9.6c-.8,0-1.7.2-2.5.3v4.5c-.4.5-.8,1-1.3,1.5.4,0,.8-.2,1.3-.2v4.5c.5-.5.9-1.1,1.4-1.6v-3.1c.4,0,.8-.1,1.2-.2,1.1-.2,1.7-.8,1.7-1.9v-2.2c0-1.2-.6-1.7-1.7-1.6ZM49.3,13.5c0,.4-.2.6-.6.7-.3,0-.6,0-.9.1v-3.3c.3,0,.5,0,.8-.1.4,0,.6.1.6.5v2.1h0Z"></path><path class="cls-1" d="M56,10.3v-1.2c-1.1,0-2.3,0-3.5.2v4.5c-.4.4-.8.9-1.3,1.4.4,0,.8,0,1.3-.1v4.5c1.1-.1,2.3-.2,3.5-.2v-1.2c-.7,0-1.4,0-2.1.1v-3.2c.6,0,1.2,0,1.8,0v-1.2c-.6,0-1.2,0-1.8,0v-3.2c.7,0,1.4,0,2.1,0h0Z"></path><path class="cls-1" d="M59.1,9h-1.4v10.1c1.1,0,2.2,0,3.3,0v-1.2h-1.9v-8.8h0Z"></path><path class="cls-1" d="M63.9,9.2c-.5,0-.9,0-1.4,0v10c1.1,0,2.2,0,3.3.2v-1.2c-.6,0-1.3,0-1.9-.1v-8.8h0Z"></path><path class="cls-1" d="M67.3,19.5c.5,0,.9,0,1.4.2v-9.9c-.5,0-.9-.1-1.4-.2v9.9Z"></path><path class="cls-1" d="M74,11.8v-1.2c-1.1-.2-2.2-.4-3.3-.6v4.3c-.4.3-.8.7-1.2,1,.4,0,.8.1,1.2.2v4.3c1.1.2,2.2.4,3.3.6v-1.2c-.7-.1-1.3-.2-2-.4v-3.1c.6,0,1.2.2,1.8.3v-1.2c-.6-.1-1.2-.2-1.8-.3v-3.1c.7.1,1.3.2,2,.4h0Z"></path><path class="cls-1" d="M79,17.2c.5,0,.8-.5.8-1.4v-2c0-1.1-.5-1.8-1.5-2.1-.9-.2-1.7-.5-2.6-.7v4.3c-.4.3-.8.6-1.2.9.4,0,.8.2,1.2.3v4.3c.4,0,.9.2,1.3.3v-4.3c.3,0,.5.1.8.2.3,1.5.6,3,.9,4.5.4.1.8.2,1.2.3-.3-1.5-.6-3.1-.9-4.7h0ZM78.4,15.3c0,.5-.2.6-.6.6-.3,0-.6-.2-.9-.2v-3.1c.3,0,.6.2.9.2.4.1.6.4.6.9v1.7h0Z"></path></g><g><path class="cls-2" d="M23.4,22.7c-.4-1.9-.8-3.8-1.2-5.7-.5.2-1,.5-1.5.7v10.7c.4-.2.9-.5,1.3-.7,0-2.3,0-4.6-.1-6.9.3,1.5.7,3,1,4.6.3-.2.7-.3,1-.5.3-1.8.7-3.7,1-5.5,0,2.3,0,4.7-.1,7,.4-.2.9-.4,1.3-.6v-10.6c-.5.2-1,.4-1.5.7-.4,2.3-.8,4.5-1.2,6.8h0Z"></path><path class="cls-2" d="M31,13.3c-.4.2-.9.3-1.3.5-1.1.4-1.6,1.2-1.6,2.4v7c0,1.2.6,1.6,1.6,1.1.4-.2.8-.3,1.3-.5,1.1-.4,1.6-1.2,1.6-2.4v-6.9c0-1.2-.6-1.6-1.6-1.2ZM31.3,21.8c0,.4-.2.7-.5.8-.2,0-.5.2-.7.3-.4.2-.6,0-.6-.4v-6.8c0-.4.2-.7.6-.8.2,0,.4-.2.6-.2.4-.2.6,0,.6.4v6.7h0Z"></path><path class="cls-2" d="M37.4,16.3c-.5-1.5-1-3.1-1.5-4.6-.5.1-.9.3-1.4.4v10.5c.5-.2.9-.3,1.4-.4v-6.8c.5,1.4,1,2.9,1.5,4.3v2.1c.5-.1.9-.3,1.4-.4v-10.4c-.5.1-.9.2-1.4.4v5Z"></path><path class="cls-2" d="M40.3,11.8c.4-.1.9-.2,1.3-.3v9.1c.5-.1.9-.2,1.4-.3v-9.1c.4,0,.9-.2,1.3-.2v-1.2c-1.4.2-2.7.5-4,.8v1.3h0Z"></path><path class="cls-2" d="M48.4,9.1c-.8.1-1.7.2-2.5.4v4.5c-.4.5-.8,1-1.3,1.5.4,0,.8-.2,1.3-.2v4.5c.5-.5.9-1.1,1.4-1.6v-3.1c.4,0,.8-.1,1.2-.2,1.1-.2,1.7-.8,1.7-1.9v-2.2c0-1.2-.6-1.7-1.7-1.5h0ZM48.7,12.9c0,.4-.2.6-.6.7-.3,0-.6,0-.9.1v-3.3c.3,0,.5,0,.8-.1.4,0,.6.1.6.5v2.1Z"></path><path class="cls-2" d="M55.4,9.7v-1.2c-1.1,0-2.3.1-3.5.2v4.5c-.4.5-.8.9-1.3,1.4.4,0,.8,0,1.3-.1v4.5c1.1-.1,2.3-.2,3.5-.3v-1.2c-.7,0-1.4,0-2.1.1v-3.2c.6,0,1.2,0,1.8-.1v-1.2c-.6,0-1.2,0-1.8.1v-3.2c.7,0,1.4,0,2.1-.1Z"></path><path class="cls-2" d="M58.5,8.4h-1.4v10.1c1.1,0,2.2,0,3.3,0v-1.2h-1.9v-8.9h0Z"></path><path class="cls-2" d="M63.3,8.6c-.5,0-.9,0-1.4,0v10c1.1,0,2.2,0,3.3.2v-1.2c-.6,0-1.3,0-1.9-.1v-8.8h0Z"></path><path class="cls-2" d="M66.7,18.8c.5,0,.9,0,1.4.1v-9.9l-1.4-.2v9.9Z"></path><path class="cls-2" d="M73.4,11.1v-1.2c-1.1-.2-2.2-.4-3.4-.6v4.3c-.4.3-.8.7-1.2,1,.4,0,.8.1,1.2.2v4.4c1.1.2,2.2.3,3.4.6v-1.2c-.7-.1-1.3-.2-2-.3v-3.1c.6,0,1.2.2,1.8.3v-1.2c-.6-.1-1.2-.2-1.8-.3v-3.1c.7.1,1.3.2,2,.4h0Z"></path><path class="cls-2" d="M78.4,16.5c.5,0,.8-.6.8-1.4v-2.1c0-1.1-.5-1.8-1.5-2.1-.9-.2-1.7-.4-2.6-.6v4.3c-.4.3-.8.6-1.2.9.4,0,.8.2,1.2.2v4.3c.4,0,.9.2,1.3.3v-4.3c.3,0,.5.1.8.2.3,1.5.6,3,.9,4.5.4.1.8.2,1.3.3-.3-1.5-.6-3.1-.9-4.7h0ZM77.8,14.6c0,.5-.2.6-.6.6-.3,0-.6-.2-.9-.2v-3.1c.3,0,.6.2.9.2.4,0,.6.4.6.9,0,0,0,1.7,0,1.7Z"></path></g><g><path class="cls-2" d="M40.8,78.1v-1.9c0-1.1-.5-1.8-1.5-2-.9-.2-1.7-.4-2.6-.7v4.3c-.4.3-.7.5-1.1.8.4.1.7.2,1.1.3v4.5c.4.1.9.2,1.3.4v-4.5c.3,0,.5.1.8.2.3,1.6.6,3.2.9,4.8.4,0,.8.2,1.3.3-.3-1.6-.6-3.2-.9-4.9.5-.1.8-.6.8-1.5h0ZM39.5,77.7c0,.5-.2.7-.6.6-.3,0-.6-.2-.9-.2v-3.1c.3,0,.6.2.9.2.4,0,.6.4.6.9v1.6Z"></path><path class="cls-2" d="M45.5,83.2c0,.4-.2.6-.5.6-.2,0-.4,0-.6,0-.4,0-.6-.3-.6-.7v-8.1c-.4,0-.9-.1-1.3-.2v8.1c0,1.3.5,2,1.6,2.1.4,0,.7,0,1.1.1,1.1.1,1.6-.5,1.6-1.7v-8.1c-.4,0-.9,0-1.3-.1v8.1h0Z"></path><path class="cls-2" d="M51.2,75.3h-.9c-1,0-1.5.6-1.5,1.7v6.6c0,1.1.5,1.7,1.5,1.7s1.8,0,2.6,0v-4.8c-.7,0-1.4,0-2,0v1.2h.7v2.4c-.3,0-.6,0-.9,0-.4,0-.6-.2-.6-.7v-6.1c0-.5.2-.7.6-.7h.3c.4,0,.6.2.6.7v.9c.4,0,.9,0,1.3,0v-1.1c0-1.2-.6-1.7-1.7-1.7h0Z"></path><path class="cls-2" d="M57.8,79.5h0c.6-.2,1-.6,1-1.2v-2c0-1.2-.6-1.7-1.8-1.5-.8.1-1.5.2-2.3.3v4.3c-.4.4-.8.8-1.1,1.2.4,0,.8,0,1.1,0v4.5c.9,0,1.8-.2,2.7-.3,1-.2,1.5-.8,1.5-1.7v-2.5c0-.6-.4-.9-1.1-.9ZM56,76.2c.3,0,.5,0,.8-.1.4,0,.6.2.6.6v1.6c0,.5-.2.8-.8.8-.2,0-.4,0-.6,0v-3.1h0ZM57.6,83.1c0,.3-.2.5-.5.5-.3,0-.7,0-1,.1v-3.3c.2,0,.5,0,.7,0,.5,0,.8.1.8.6v2.2h0Z"></path><path class="cls-2" d="M63.1,73.5c-.3,1.5-.6,3.1-.9,4.6h0c-.3-1.4-.7-2.7-1-4.1-.4.1-.9.2-1.3.3.5,2,1.1,4,1.6,5.9v3.7c.4-.1.9-.2,1.3-.3v-3.7c.5-2.3,1.1-4.5,1.6-6.8-.4.1-.9.3-1.3.4h0Z"></path></g><path class="cls-3" d="M41.7,87.5s3.4.6,8.3.6,8.4-.6,8.4-.6c0,0-5.1,4.4-8.4,6,2.2-2.1,3.1-3.8,3.1-3.8,0,0-1.1,1.1-1.7,1.5-4.9-1.1-7.9-2.7-9.7-3.6h0Z"></path><path class="cls-3" d="M64.7,80.9c4.5-3.2,12.3-14.7,14-21.7-3.1,4.5-9,8.9-12.9,11,1.6-.3,4.4-1.2,6.3-2-.7,3.7-4.4,9.2-7.4,12.8h0Z"></path><path class="cls-3" d="M35.7,32c.9-.6,1.9-1.1,2.9-1.7-11.5,3-19.2,8.4-19.2,8.4v9.5c.2-.5.5-1.1.8-1.6v-7.4s6.1-4.3,15.5-7.3h0Z"></path><path class="cls-3" d="M21.5,59.9c.7,2.6,1.9,5.3,4,7.6,1.1,1.2,2.4,2.2,4,3,1.6.8,3.3,1.5,5.1,1.9-2.8-.9-5.3-2.3-7.1-4.1,2.4,1.3,5.3,1.9,8.1,2,2.9,0,5.9-.4,8.8-1.1-3,.5-6,.7-8.8.4-2.7-.3-5.3-1-7.4-2.4.9,0,1.8,0,2.7,0-1.9-.3-3.8-1.2-5.4-2.5-1.6-1.3-2.9-2.9-4-4.7h0Z"></path><path class="cls-3" d="M48.3,45.4c2.1-1.8,4.8-2.1,5.9-.7.3.4.5.8.5,1.3,0-.7,0-1.4-.5-1.9-1.2-1.4-3.8-1.1-5.9.7-1.5,1.3-2.4,3-2.2,4.4.1-1.2.9-2.6,2.2-3.7Z"></path><g><path class="cls-2" d="M26.7,30.4c-.2,0-.4.2-.6.2v-1.5c-.2,0-.5.2-.7.3v3.7c.2,0,.5-.2.7-.3v-1.6c.2,0,.4-.2.6-.2v1.6c.2,0,.5-.2.7-.3v-3.7c-.2,0-.5.2-.7.3v1.5Z"></path><path class="cls-2" d="M35.2,26.2v-.6c-.1,0-.3,0-.4.1,0-.2.2-.3.2-.4-.2,0-.5.2-.7.2,0,.1-.1.3-.2.4-.2,0-.3.1-.5.2v3.7c.5-.2,1-.3,1.5-.5v-.6c-.3,0-.6.2-.8.3v-1.1c.2,0,.5-.2.7-.2v-.6c-.2,0-.5.2-.7.2v-1c.3,0,.6-.2.8-.3h0Z"></path><path class="cls-2" d="M43.4,25v-.9c0-.6-.4-.6-.7-.5-.4,0-.8.2-1.2.3v3.7c.2,0,.5-.1.7-.2v-1.5c0,0,.2,0,.2,0,.1.5.2.9.4,1.4.2,0,.5,0,.7-.2-.1-.5-.3-1-.4-1.4.2-.2.3-.4.3-.7h0ZM42.1,24.3c0,0,.2,0,.3,0,0,0,.2,0,.2.2v.8c0,.2,0,.2-.2.2,0,0-.2,0-.3,0v-1.2Z"></path><path class="cls-2" d="M50.9,22.2c-.2,0-.3,0-.4,0-.5,0-.8.3-.8.8v3c.2,0,.5,0,.7,0v-1.3c.2,0,.3,0,.5,0v1.3c.2,0,.5,0,.7,0v-3c0-.4-.3-.6-.8-.6h0ZM50.9,22.9v1.1c-.2,0-.3,0-.5,0v-1.1c0-.4,0-.2.2-.2,0,0,.1,0,.2,0,.1,0,.2,0,.2.1Z"></path><path class="cls-2" d="M59.3,24.6c0,.2,0,.2-.2.2h-.2c0,0-.2,0-.2-.2v-3c-.2,0-.5,0-.7,0v3c0,.6.4.7.7.7h.5c.3,0,.8-.1.8-.7v-3h-.7v3h0Z"></path><path class="cls-2" d="M67.1,21.8c-.2,0-.5,0-.7,0v3.7c.5,0,1,0,1.5.1v-.6c-.3,0-.5,0-.8,0v-3.2h0Z"></path><path class="cls-2" d="M73.4,22.6v.6c.2,0,.4,0,.5,0v3.2c.2,0,.5,0,.7.1v-3.2c.2,0,.4,0,.5,0v-.6c-.6-.1-1.2-.2-1.8-.3h0Z"></path></g></g></g></g></svg>